{"accessors":[{"bufferView":0,"componentType":5126,"count":32,"min":[0.0],"max":[80.0],"type":"SCALAR"},{"bufferView":1,"componentType":5126,"count":32,"type":"VEC4"},{"bufferView":0,"byteOffset":128,"componentType":5126,"count":5,"min":[0.0],"max":[100.0],"type":"SCALAR"},{"bufferView":1,"byteOffset":512,"componentType":5126,"count":5,"type":"VEC4"},{"bufferView":0,"byteOffset":148,"componentType":5126,"count":5,"min":[0.0],"max":[100.0],"type":"SCALAR"},{"bufferView":1,"byteOffset":592,"componentType":5126,"count":5,"type":"VEC4"},{"bufferView":2,"componentType":5126,"count":98,"min":[-12.036009788513184,-1.1440000534057618,-13.383999824523926],"max":[12.036009788513184,5.372000217437744,4.659999847412109],"type":"VEC3","name":"part000_vertices#0_POSITION"},{"bufferView":2,"byteOffset":12,"componentType":5120,"count":98,"type":"VEC4","name":"part000_vertices#0_TANGENT"},{"bufferView":2,"byteOffset":16,"componentType":5120,"count":98,"type":"VEC4","name":"part000_vertices#0_NORMAL"},{"bufferView":2,"byteOffset":20,"componentType":5122,"count":98,"type":"VEC2","name":"part000_vertices#0_TEXCOORD_0"},{"bufferView":2,"byteOffset":24,"componentType":5122,"count":98,"type":"VEC2","name":"part000_vertices#0_TEXCOORD_1"},{"bufferView":2,"byteOffset":28,"componentType":5123,"count":98,"type":"VEC4","name":"part000_vertices#0_COLOR_0"},{"bufferView":3,"componentType":5123,"count":174,"type":"SCALAR","name":"part000_indices#0"},{"bufferView":2,"byteOffset":3528,"componentType":5126,"count":42,"min":[-1.156000018119812,-0.8960000276565552,-13.552000045776368],"max":[1.156000018119812,1.4240000247955323,13.640000343322754],"type":"VEC3","name":"part001_vertices#0_POSITION"},{"bufferView":2,"byteOffset":3540,"componentType":5120,"count":42,"type":"VEC4","name":"part001_vertices#0_TANGENT"},{"bufferView":2,"byteOffset":3544,"componentType":5120,"count":42,"type":"VEC4","name":"part001_vertices#0_NORMAL"},{"bufferView":2,"byteOffset":3548,"componentType":5122,"count":42,"type":"VEC2","name":"part001_vertices#0_TEXCOORD_0"},{"bufferView":2,"byteOffset":3552,"componentType":5122,"count":42,"type":"VEC2","name":"part001_vertices#0_TEXCOORD_1"},{"bufferView":2,"byteOffset":3556,"componentType":5123,"count":42,"type":"VEC4","name":"part001_vertices#0_COLOR_0"},{"bufferView":3,"byteOffset":348,"componentType":5123,"count":84,"type":"SCALAR","name":"part001_indices#0"},{"bufferView":2,"byteOffset":5040,"componentType":5126,"count":10,"min":[-2.4815499782562258,-0.2932499945163727,-2.4816999435424806],"max":[2.4802799224853517,-0.1610099971294403,2.480449914932251],"type":"VEC3","name":"part002_vertices#0_POSITION"},{"bufferView":2,"byteOffset":5052,"componentType":5120,"count":10,"type":"VEC4","name":"part002_vertices#0_TANGENT"},{"bufferView":2,"byteOffset":5056,"componentType":5120,"count":10,"type":"VEC4","name":"part002_vertices#0_NORMAL"},{"bufferView":2,"byteOffset":5060,"componentType":5122,"count":10,"type":"VEC2","name":"part002_vertices#0_TEXCOORD_0"},{"bufferView":2,"byteOffset":5064,"componentType":5122,"count":10,"type":"VEC2","name":"part002_vertices#0_TEXCOORD_1"},{"bufferView":2,"byteOffset":5068,"componentType":5123,"count":10,"type":"VEC4","name":"part002_vertices#0_COLOR_0"},{"bufferView":3,"byteOffset":516,"componentType":5123,"count":24,"type":"SCALAR","name":"part002_indices#0"},{"bufferView":2,"byteOffset":5400,"componentType":5126,"count":10,"min":[-2.4815499782562258,-0.2932499945163727,-2.4816999435424806],"max":[2.4802799224853517,-0.1610099971294403,2.480449914932251],"type":"VEC3","name":"part003_vertices#0_POSITION"},{"bufferView":2,"byteOffset":5412,"componentType":5120,"count":10,"type":"VEC4","name":"part003_vertices#0_TANGENT"},{"bufferView":2,"byteOffset":5416,"componentType":5120,"count":10,"type":"VEC4","name":"part003_vertices#0_NORMAL"},{"bufferView":2,"byteOffset":5420,"componentType":5122,"count":10,"type":"VEC2","name":"part003_vertices#0_TEXCOORD_0"},{"bufferView":2,"byteOffset":5424,"componentType":5122,"count":10,"type":"VEC2","name":"part003_vertices#0_TEXCOORD_1"},{"bufferView":2,"byteOffset":5428,"componentType":5123,"count":10,"type":"VEC4","name":"part003_vertices#0_COLOR_0"},{"bufferView":3,"byteOffset":564,"componentType":5123,"count":24,"type":"SCALAR","name":"part003_indices#0"},{"bufferView":2,"byteOffset":5760,"componentType":5126,"count":10,"min":[-1.815999984741211,-0.2932499945163727,-1.8172399997711182],"max":[1.815999984741211,-0.1610099971294403,1.815619945526123],"type":"VEC3","name":"part004_vertices#0_POSITION"},{"bufferView":2,"byteOffset":5772,"componentType":5120,"count":10,"type":"VEC4","name":"part004_vertices#0_TANGENT"},{"bufferView":2,"byteOffset":5776,"componentType":5120,"count":10,"type":"VEC4","name":"part004_vertices#0_NORMAL"},{"bufferView":2,"byteOffset":5780,"componentType":5122,"count":10,"type":"VEC2","name":"part004_vertices#0_TEXCOORD_0"},{"bufferView":2,"byteOffset":5784,"componentType":5122,"count":10,"type":"VEC2","name":"part004_vertices#0_TEXCOORD_1"},{"bufferView":2,"byteOffset":5788,"componentType":5123,"count":10,"type":"VEC4","name":"part004_vertices#0_COLOR_0"},{"bufferView":3,"byteOffset":612,"componentType":5123,"count":24,"type":"SCALAR","name":"part004_indices#0"},{"bufferView":2,"byteOffset":6120,"componentType":5126,"count":10,"min":[-1.815999984741211,-0.2932499945163727,-1.8172399997711182],"max":[1.815999984741211,-0.1610099971294403,1.815619945526123],"type":"VEC3","name":"part005_vertices#0_POSITION"},{"bufferView":2,"byteOffset":6132,"componentType":5120,"count":10,"type":"VEC4","name":"part005_vertices#0_TANGENT"},{"bufferView":2,"byteOffset":6136,"componentType":5120,"count":10,"type":"VEC4","name":"part005_vertices#0_NORMAL"},{"bufferView":2,"byteOffset":6140,"componentType":5122,"count":10,"type":"VEC2","name":"part005_vertices#0_TEXCOORD_0"},{"bufferView":2,"byteOffset":6144,"componentType":5122,"count":10,"type":"VEC2","name":"part005_vertices#0_TEXCOORD_1"},{"bufferView":2,"byteOffset":6148,"componentType":5123,"count":10,"type":"VEC4","name":"part005_vertices#0_COLOR_0"},{"bufferView":3,"byteOffset":660,"componentType":5123,"count":24,"type":"SCALAR","name":"part005_indices#0"}],"animations":[{"name":"c_gear","channels":[{"sampler":0,"target":{"node":15,"path":"rotation"}}],"samplers":[{"input":0,"output":1,"interpolation":"LINEAR"}]},{"name":"engine1","channels":[{"sampler":0,"target":{"node":20,"path":"rotation"}}],"samplers":[{"input":2,"output":3,"interpolation":"LINEAR"}]},{"name":"engine0","channels":[{"sampler":0,"target":{"node":24,"path":"rotation"}}],"samplers":[{"input":4,"output":5,"interpolation":"LINEAR"}]}],"asset":{"generator":"ModelConverterX","version":"2.0","extensions":{"ASOBO_asset_optimized":{"BoundingBoxMax":[12.036009788513184,5.372000217437744,13.640000343322754],"BoundingBoxMin":[-12.036009788513184,-1.1440000534057618,-13.552000045776368],"MajorVersion":4,"MinorVersion":4,"UseCheckerboardMaterialForMissingTextures":true,"UseOnlyFilenameForImageURI":true}}},"bufferViews":[{"buffer":0,"byteLength":168,"byteStride":4},{"buffer":0,"byteLength":672,"byteStride":16,"byteOffset":168},{"buffer":0,"byteLength":6480,"byteStride":36,"byteOffset":840,"target":34962,"name":"BufferViewVertexND"},{"buffer":0,"byteLength":708,"byteOffset":7320,"target":34963,"name":"BufferViewIndex"}],"extensionsRequired":["MSFT_texture_dds"],"materials":[{"name":"material00","alphaMode":"BLEND","pbrMetallicRoughness":{"baseColorFactor":[0.0,0.0,0.0,1.0],"metallicFactor":0.0,"baseColorTexture":{"index":0}}},{"name":"material01","emissiveTexture":{"index":2},"emissiveFactor":[0.019607843831181527,0.019607843831181527,0.019607843831181527],"pbrMetallicRoughness":{"metallicFactor":0.0,"baseColorTexture":{"index":1}},"extensions":{"ASOBO_material_day_night_switch":{}}}],"meshes":[{"primitives":[{"attributes":{"COLOR_0":11,"NORMAL":8,"POSITION":6,"TANGENT":7,"TEXCOORD_0":9,"TEXCOORD_1":10},"indices":12,"material":1,"mode":4,"extras":{"ASOBO_primitive":{"PrimitiveCount":58,"VertexType":"VTX","VertexVersion":2}}}],"name":"part000"},{"primitives":[{"attributes":{"COLOR_0":18,"NORMAL":15,"POSITION":13,"TANGENT":14,"TEXCOORD_0":16,"TEXCOORD_1":17},"indices":19,"material":1,"mode":4,"extras":{"ASOBO_primitive":{"PrimitiveCount":28,"VertexType":"VTX","VertexVersion":2}}}],"name":"part001"},{"primitives":[{"attributes":{"COLOR_0":25,"NORMAL":22,"POSITION":20,"TANGENT":21,"TEXCOORD_0":23,"TEXCOORD_1":24},"indices":26,"material":0,"mode":4,"extras":{"ASOBO_primitive":{"PrimitiveCount":8,"VertexType":"VTX","VertexVersion":2}}}],"name":"part002"},{"primitives":[{"attributes":{"COLOR_0":32,"NORMAL":29,"POSITION":27,"TANGENT":28,"TEXCOORD_0":30,"TEXCOORD_1":31},"indices":33,"material":0,"mode":4,"extras":{"ASOBO_primitive":{"PrimitiveCount":8,"VertexType":"VTX","VertexVersion":2}}}],"name":"part003"},{"primitives":[{"attributes":{"COLOR_0":39,"NORMAL":36,"POSITION":34,"TANGENT":35,"TEXCOORD_0":37,"TEXCOORD_1":38},"indices":40,"material":0,"mode":4,"extras":{"ASOBO_primitive":{"PrimitiveCount":8,"VertexType":"VTX","VertexVersion":2}}}],"name":"part004"},{"primitives":[{"attributes":{"COLOR_0":46,"NORMAL":43,"POSITION":41,"TANGENT":42,"TEXCOORD_0":44,"TEXCOORD_1":45},"indices":47,"material":0,"mode":4,"extras":{"ASOBO_primitive":{"PrimitiveCount":8,"VertexType":"VTX","VertexVersion":2}}}],"name":"part005"}],"nodes":[{"name":"node_0","children":[1,2,3,4,5,6,7,8,9,10,11,12]},{"mesh":0,"name":"custom_vis_parts_visible_00_mcx_VC"},{"mesh":1,"name":"custom_vis_parts_visible_01_mcx_VC"},{"translation":[4.260000228881836,-2.1500000953674318,-0.4999999999999995],"rotation":[-6.123031769111886e-17,3.061515884555943e-17,1.0,1.874575902277672e-33],"scale":[1.0,1.0,1.0],"name":"l_tire1"},{"translation":[4.260000228881836,-0.30000001192092898,-1.4999999999999996],"rotation":[-6.123031769111886e-17,3.061515884555943e-17,1.0,1.874575902277672e-33],"scale":[1.0,1.0,1.0],"name":"contrail1"},{"translation":[4.760000228881838,1.950000047683716,-11.0],"rotation":[0.5220631059093577,0.4554539348821288,0.5826666703206742,-0.424866305967041],"scale":[1.0,1.0,1.0],"name":"logo_l"},{"translation":[-4.760000228881834,1.950000047683716,-11.0],"rotation":[-0.5220631059093578,0.45545393488212868,0.5826666703206741,0.424866305967041],"scale":[1.0,1.0,1.0],"name":"logo_r"},{"translation":[0.8500000238418575,-0.6700000166893005,3.2300000190734865],"rotation":[-0.7044160264027587,0.0616284167162193,0.0616284167162193,0.7044160264027587],"scale":[1.0,1.0,1.0],"name":"landing_l"},{"translation":[-0.8500000238418584,-0.6700000166893005,3.2300000190734865],"rotation":[-0.7044160264027587,-0.061628416716219377,-0.061628416716219377,0.7044160264027587],"scale":[1.0,1.0,1.0],"name":"landing_r"},{"translation":[-4.260000228881836,-0.30000001192092898,-1.5000000000000005],"rotation":[-6.123031769111886e-17,3.061515884555943e-17,1.0,1.874575902277672e-33],"scale":[1.0,1.0,1.0],"name":"contrail2"},{"translation":[-4.260000228881836,-2.1500000953674318,-0.5000000000000006],"rotation":[-6.123031769111886e-17,3.061515884555943e-17,1.0,1.874575902277672e-33],"scale":[1.0,1.0,1.0],"name":"r_tire1"},{"translation":[-1.3838052031767989e-15,-2.0,11.300000190734864],"rotation":[-6.123031769111886e-17,3.061515884555943e-17,1.0,1.874575902277672e-33],"scale":[1.0,1.0,1.0],"name":"c_tire1"},{"translation":[0.0,0.0,0.0],"rotation":[-4.329637285359677e-17,0.7071067811865475,0.7071067811865475,4.329637285359677e-17],"scale":[1.0,1.0,1.0],"name":"node_23","children":[13,19,23]},{"translation":[0.0,10.85513973236084,-1.3449549674987794],"rotation":[0.0,0.0,0.0,1.0],"scale":[1.0,1.0,1.0],"name":"node_82","children":[14]},{"translation":[-9.99999997475243e-7,0.6049690246582031,0.5165050029754639],"rotation":[0.0,0.0,0.0,1.0],"scale":[1.0,1.0,1.0],"name":"node_83","children":[15]},{"name":"c_gear_AN_83","children":[16]},{"translation":[0.7531599998474121,-9.99999997475243e-7,0.21506699919700626],"rotation":[-0.7049266636155969,0.7049273729090206,0.0554784325301148,-0.055479141823183888],"scale":[1.0,1.0,1.0],"name":"node_111","children":[17,18]},{"translation":[0.0,0.0,0.0],"rotation":[0.7071067811865475,0.0,0.0,0.7071067811865475],"scale":[1.0,1.0,1.0],"name":"landing_nose"},{"translation":[0.0,0.0,0.0],"rotation":[0.7071067811865475,0.0,0.0,0.7071067811865475],"scale":[1.0,1.0,1.0],"name":"taxi"},{"translation":[4.260238170623779,5.024758815765381,0.24697600305080417],"rotation":[-0.02528492228354467,-0.2587303981412658,0.006775100258296212,0.9655948174927616],"scale":[1.0,1.0,1.0],"name":"node_114","children":[20]},{"name":"engine1_AN_114","children":[21,22]},{"mesh":2,"name":"prop1_slow_VC"},{"mesh":3,"name":"prop1_blurred_VC"},{"translation":[-4.260000228881836,5.024755954742432,0.24692699313163758],"rotation":[-0.026176958265470987,0.0,0.0,0.9996573247148085],"scale":[1.0,1.0,1.0],"name":"node_136","children":[24]},{"name":"engine0_AN_136","children":[25,26]},{"mesh":4,"name":"prop0_slow_VC"},{"mesh":5,"name":"prop0_blurred_VC"}],"scene":0,"scenes":[{"nodes":[0]}],"textures":[{"extensions":{"MSFT_texture_dds":{"source":0}}},{"extensions":{"MSFT_texture_dds":{"source":1}}},{"extensions":{"MSFT_texture_dds":{"source":2}}}],"extensionsUsed":["ASOBO_material_day_night_switch","MSFT_texture_dds","ASOBO_asset_optimized"],"buffers":[{"byteLength":8028,"uri":"TFS_Saab_2000_MSFS_LOD5.bin"}],"images":[{"uri":"TFS_SAAB_2000_PROP.PNG.DDS","extras":"ASOBO_image_converted_meta"},{"uri":"TFS_SAAB_2000_T.PNG.DDS","extras":"ASOBO_image_converted_meta"},{"uri":"TFS_SAAB_2000_L.PNG.DDS","extras":"ASOBO_image_converted_meta"}]}
