{"accessors":[{"bufferView":0,"componentType":5126,"count":2,"min":[0.0],"max":[100.0],"type":"SCALAR"},{"bufferView":2,"componentType":5126,"count":2,"type":"VEC4"},{"bufferView":0,"byteOffset":8,"componentType":5126,"count":5,"min":[0.0],"max":[200.0],"type":"SCALAR"},{"bufferView":2,"byteOffset":32,"componentType":5126,"count":5,"type":"VEC4"},{"bufferView":0,"byteOffset":28,"componentType":5126,"count":5,"min":[0.0],"max":[100.0],"type":"SCALAR"},{"bufferView":2,"byteOffset":112,"componentType":5126,"count":5,"type":"VEC4"},{"bufferView":0,"byteOffset":48,"componentType":5126,"count":4,"min":[0.0],"max":[100.0],"type":"SCALAR"},{"bufferView":1,"componentType":5126,"count":4,"type":"VEC3"},{"bufferView":0,"byteOffset":64,"componentType":5126,"count":4,"min":[0.0],"max":[100.0],"type":"SCALAR"},{"bufferView":2,"byteOffset":192,"componentType":5126,"count":4,"type":"VEC4"},{"bufferView":0,"byteOffset":80,"componentType":5126,"count":5,"min":[0.0],"max":[100.0],"type":"SCALAR"},{"bufferView":2,"byteOffset":256,"componentType":5126,"count":5,"type":"VEC4"},{"bufferView":0,"byteOffset":100,"componentType":5126,"count":3,"min":[0.0],"max":[100.0],"type":"SCALAR"},{"bufferView":1,"byteOffset":48,"componentType":5126,"count":3,"type":"VEC3"},{"bufferView":0,"byteOffset":112,"componentType":5126,"count":3,"min":[0.0],"max":[100.0],"type":"SCALAR"},{"bufferView":2,"byteOffset":336,"componentType":5126,"count":3,"type":"VEC4"},{"bufferView":0,"byteOffset":124,"componentType":5126,"count":3,"min":[0.0],"max":[100.0],"type":"SCALAR"},{"bufferView":1,"byteOffset":84,"componentType":5126,"count":3,"type":"VEC3"},{"bufferView":0,"byteOffset":136,"componentType":5126,"count":3,"min":[0.0],"max":[100.0],"type":"SCALAR"},{"bufferView":2,"byteOffset":384,"componentType":5126,"count":3,"type":"VEC4"},{"bufferView":0,"byteOffset":148,"componentType":5126,"count":3,"min":[0.0],"max":[100.0],"type":"SCALAR"},{"bufferView":1,"byteOffset":120,"componentType":5126,"count":3,"type":"VEC3"},{"bufferView":0,"byteOffset":160,"componentType":5126,"count":3,"min":[0.0],"max":[100.0],"type":"SCALAR"},{"bufferView":2,"byteOffset":432,"componentType":5126,"count":3,"type":"VEC4"},{"bufferView":0,"byteOffset":172,"componentType":5126,"count":3,"min":[0.0],"max":[100.0],"type":"SCALAR"},{"bufferView":1,"byteOffset":156,"componentType":5126,"count":3,"type":"VEC3"},{"bufferView":0,"byteOffset":184,"componentType":5126,"count":3,"min":[0.0],"max":[100.0],"type":"SCALAR"},{"bufferView":2,"byteOffset":480,"componentType":5126,"count":3,"type":"VEC4"},{"bufferView":0,"byteOffset":196,"componentType":5126,"count":4,"min":[0.0],"max":[100.0],"type":"SCALAR"},{"bufferView":1,"byteOffset":192,"componentType":5126,"count":4,"type":"VEC3"},{"bufferView":0,"byteOffset":212,"componentType":5126,"count":4,"min":[0.0],"max":[100.0],"type":"SCALAR"},{"bufferView":2,"byteOffset":528,"componentType":5126,"count":4,"type":"VEC4"},{"bufferView":0,"byteOffset":228,"componentType":5126,"count":5,"min":[0.0],"max":[100.0],"type":"SCALAR"},{"bufferView":2,"byteOffset":592,"componentType":5126,"count":5,"type":"VEC4"},{"bufferView":3,"componentType":5126,"count":154,"min":[-5.482999801635742,-0.6095600128173828,-6.120910167694092],"max":[5.482999801635742,1.504699945449829,1.9368799924850464],"type":"VEC3","name":"part000_vertices#0_POSITION"},{"bufferView":3,"byteOffset":12,"componentType":5120,"count":154,"type":"VEC4","name":"part000_vertices#0_TANGENT"},{"bufferView":3,"byteOffset":16,"componentType":5120,"count":154,"type":"VEC4","name":"part000_vertices#0_NORMAL"},{"bufferView":3,"byteOffset":20,"componentType":5122,"count":154,"type":"VEC2","name":"part000_vertices#0_TEXCOORD_0"},{"bufferView":3,"byteOffset":24,"componentType":5122,"count":154,"type":"VEC2","name":"part000_vertices#0_TEXCOORD_1"},{"bufferView":3,"byteOffset":28,"componentType":5123,"count":154,"type":"VEC4","name":"part000_vertices#0_COLOR_0"},{"bufferView":4,"componentType":5123,"count":381,"type":"SCALAR","name":"part000_indices#0"},{"bufferView":3,"byteOffset":5544,"componentType":5126,"count":20,"min":[-0.07649999856948853,-0.03596000000834465,-0.4766800105571747],"max":[0.07649999856948853,0.03627000004053116,-0.050289999693632129],"type":"VEC3","name":"part001_vertices#0_POSITION"},{"bufferView":3,"byteOffset":5556,"componentType":5120,"count":20,"type":"VEC4","name":"part001_vertices#0_TANGENT"},{"bufferView":3,"byteOffset":5560,"componentType":5120,"count":20,"type":"VEC4","name":"part001_vertices#0_NORMAL"},{"bufferView":3,"byteOffset":5564,"componentType":5122,"count":20,"type":"VEC2","name":"part001_vertices#0_TEXCOORD_0"},{"bufferView":3,"byteOffset":5568,"componentType":5122,"count":20,"type":"VEC2","name":"part001_vertices#0_TEXCOORD_1"},{"bufferView":3,"byteOffset":5572,"componentType":5123,"count":20,"type":"VEC4","name":"part001_vertices#0_COLOR_0"},{"bufferView":4,"byteOffset":762,"componentType":5123,"count":36,"type":"SCALAR","name":"part001_indices#0"},{"bufferView":3,"byteOffset":6264,"componentType":5126,"count":20,"min":[-0.050050001591444018,-0.17250999808311463,-0.1814900040626526],"max":[0.050050001591444018,0.17257000505924226,0.1813499927520752],"type":"VEC3","name":"part002_vertices#0_POSITION"},{"bufferView":3,"byteOffset":6276,"componentType":5120,"count":20,"type":"VEC4","name":"part002_vertices#0_TANGENT"},{"bufferView":3,"byteOffset":6280,"componentType":5120,"count":20,"type":"VEC4","name":"part002_vertices#0_NORMAL"},{"bufferView":3,"byteOffset":6284,"componentType":5122,"count":20,"type":"VEC2","name":"part002_vertices#0_TEXCOORD_0"},{"bufferView":3,"byteOffset":6288,"componentType":5122,"count":20,"type":"VEC2","name":"part002_vertices#0_TEXCOORD_1"},{"bufferView":3,"byteOffset":6292,"componentType":5123,"count":20,"type":"VEC4","name":"part002_vertices#0_COLOR_0"},{"bufferView":4,"byteOffset":834,"componentType":5123,"count":48,"type":"SCALAR","name":"part002_indices#0"},{"bufferView":3,"byteOffset":6984,"componentType":5126,"count":16,"min":[-0.8131300210952759,-0.04380999878048897,-0.5210800170898438],"max":[0.13515999913215638,0.3597699999809265,-0.06996999680995941],"type":"VEC3","name":"part003_vertices#0_POSITION"},{"bufferView":3,"byteOffset":6996,"componentType":5120,"count":16,"type":"VEC4","name":"part003_vertices#0_TANGENT"},{"bufferView":3,"byteOffset":7000,"componentType":5120,"count":16,"type":"VEC4","name":"part003_vertices#0_NORMAL"},{"bufferView":3,"byteOffset":7004,"componentType":5122,"count":16,"type":"VEC2","name":"part003_vertices#0_TEXCOORD_0"},{"bufferView":3,"byteOffset":7008,"componentType":5122,"count":16,"type":"VEC2","name":"part003_vertices#0_TEXCOORD_1"},{"bufferView":3,"byteOffset":7012,"componentType":5123,"count":16,"type":"VEC4","name":"part003_vertices#0_COLOR_0"},{"bufferView":4,"byteOffset":930,"componentType":5123,"count":30,"type":"SCALAR","name":"part003_indices#0"},{"bufferView":3,"byteOffset":7560,"componentType":5126,"count":10,"min":[-0.06763000041246414,-0.20476000010967256,-0.21539999544620515],"max":[-0.06763000041246414,0.20483000576496125,0.21526999771595],"type":"VEC3","name":"part004_vertices#0_POSITION"},{"bufferView":3,"byteOffset":7572,"componentType":5120,"count":10,"type":"VEC4","name":"part004_vertices#0_TANGENT"},{"bufferView":3,"byteOffset":7576,"componentType":5120,"count":10,"type":"VEC4","name":"part004_vertices#0_NORMAL"},{"bufferView":3,"byteOffset":7580,"componentType":5122,"count":10,"type":"VEC2","name":"part004_vertices#0_TEXCOORD_0"},{"bufferView":3,"byteOffset":7584,"componentType":5122,"count":10,"type":"VEC2","name":"part004_vertices#0_TEXCOORD_1"},{"bufferView":3,"byteOffset":7588,"componentType":5123,"count":10,"type":"VEC4","name":"part004_vertices#0_COLOR_0"},{"bufferView":4,"byteOffset":990,"componentType":5123,"count":24,"type":"SCALAR","name":"part004_indices#0"},{"bufferView":3,"byteOffset":7920,"componentType":5126,"count":4,"min":[-0.029260000213980676,-0.21457000076770783,-0.052730001509189609],"max":[0.09081999957561493,0.21091000735759736,0.044190000742673877],"type":"VEC3","name":"part005_vertices#0_POSITION"},{"bufferView":3,"byteOffset":7932,"componentType":5120,"count":4,"type":"VEC4","name":"part005_vertices#0_TANGENT"},{"bufferView":3,"byteOffset":7936,"componentType":5120,"count":4,"type":"VEC4","name":"part005_vertices#0_NORMAL"},{"bufferView":3,"byteOffset":7940,"componentType":5122,"count":4,"type":"VEC2","name":"part005_vertices#0_TEXCOORD_0"},{"bufferView":3,"byteOffset":7944,"componentType":5122,"count":4,"type":"VEC2","name":"part005_vertices#0_TEXCOORD_1"},{"bufferView":3,"byteOffset":7948,"componentType":5123,"count":4,"type":"VEC4","name":"part005_vertices#0_COLOR_0"},{"bufferView":4,"byteOffset":1038,"componentType":5123,"count":6,"type":"SCALAR","name":"part005_indices#0"},{"bufferView":3,"byteOffset":8064,"componentType":5126,"count":8,"min":[-0.001930000027641654,-0.22148999571800233,-0.06830000132322312],"max":[0.11824999749660492,0.3349500000476837,0.22644999623298646],"type":"VEC3","name":"part006_vertices#0_POSITION"},{"bufferView":3,"byteOffset":8076,"componentType":5120,"count":8,"type":"VEC4","name":"part006_vertices#0_TANGENT"},{"bufferView":3,"byteOffset":8080,"componentType":5120,"count":8,"type":"VEC4","name":"part006_vertices#0_NORMAL"},{"bufferView":3,"byteOffset":8084,"componentType":5122,"count":8,"type":"VEC2","name":"part006_vertices#0_TEXCOORD_0"},{"bufferView":3,"byteOffset":8088,"componentType":5122,"count":8,"type":"VEC2","name":"part006_vertices#0_TEXCOORD_1"},{"bufferView":3,"byteOffset":8092,"componentType":5123,"count":8,"type":"VEC4","name":"part006_vertices#0_COLOR_0"},{"bufferView":4,"byteOffset":1050,"componentType":5123,"count":18,"type":"SCALAR","name":"part006_indices#0"},{"bufferView":3,"byteOffset":8352,"componentType":5126,"count":8,"min":[-0.11824999749660492,-0.22148999571800233,-0.06830000132322312],"max":[0.001930000027641654,0.3349500000476837,0.22644999623298646],"type":"VEC3","name":"part007_vertices#0_POSITION"},{"bufferView":3,"byteOffset":8364,"componentType":5120,"count":8,"type":"VEC4","name":"part007_vertices#0_TANGENT"},{"bufferView":3,"byteOffset":8368,"componentType":5120,"count":8,"type":"VEC4","name":"part007_vertices#0_NORMAL"},{"bufferView":3,"byteOffset":8372,"componentType":5122,"count":8,"type":"VEC2","name":"part007_vertices#0_TEXCOORD_0"},{"bufferView":3,"byteOffset":8376,"componentType":5122,"count":8,"type":"VEC2","name":"part007_vertices#0_TEXCOORD_1"},{"bufferView":3,"byteOffset":8380,"componentType":5123,"count":8,"type":"VEC4","name":"part007_vertices#0_COLOR_0"},{"bufferView":4,"byteOffset":1086,"componentType":5123,"count":18,"type":"SCALAR","name":"part007_indices#0"},{"bufferView":3,"byteOffset":8640,"componentType":5126,"count":4,"min":[-0.09081999957561493,-0.21457000076770783,-0.052730001509189609],"max":[0.029260000213980676,0.21091000735759736,0.044190000742673877],"type":"VEC3","name":"part008_vertices#0_POSITION"},{"bufferView":3,"byteOffset":8652,"componentType":5120,"count":4,"type":"VEC4","name":"part008_vertices#0_TANGENT"},{"bufferView":3,"byteOffset":8656,"componentType":5120,"count":4,"type":"VEC4","name":"part008_vertices#0_NORMAL"},{"bufferView":3,"byteOffset":8660,"componentType":5122,"count":4,"type":"VEC2","name":"part008_vertices#0_TEXCOORD_0"},{"bufferView":3,"byteOffset":8664,"componentType":5122,"count":4,"type":"VEC2","name":"part008_vertices#0_TEXCOORD_1"},{"bufferView":3,"byteOffset":8668,"componentType":5123,"count":4,"type":"VEC4","name":"part008_vertices#0_COLOR_0"},{"bufferView":4,"byteOffset":1122,"componentType":5123,"count":6,"type":"SCALAR","name":"part008_indices#0"},{"bufferView":3,"byteOffset":8784,"componentType":5126,"count":16,"min":[-0.13515999913215638,-0.04380999878048897,-0.5210800170898438],"max":[0.8131300210952759,0.358240008354187,-0.06996999680995941],"type":"VEC3","name":"part009_vertices#0_POSITION"},{"bufferView":3,"byteOffset":8796,"componentType":5120,"count":16,"type":"VEC4","name":"part009_vertices#0_TANGENT"},{"bufferView":3,"byteOffset":8800,"componentType":5120,"count":16,"type":"VEC4","name":"part009_vertices#0_NORMAL"},{"bufferView":3,"byteOffset":8804,"componentType":5122,"count":16,"type":"VEC2","name":"part009_vertices#0_TEXCOORD_0"},{"bufferView":3,"byteOffset":8808,"componentType":5122,"count":16,"type":"VEC2","name":"part009_vertices#0_TEXCOORD_1"},{"bufferView":3,"byteOffset":8812,"componentType":5123,"count":16,"type":"VEC4","name":"part009_vertices#0_COLOR_0"},{"bufferView":4,"byteOffset":1134,"componentType":5123,"count":30,"type":"SCALAR","name":"part009_indices#0"},{"bufferView":3,"byteOffset":9360,"componentType":5126,"count":10,"min":[0.06763000041246414,-0.20476000010967256,-0.21539999544620515],"max":[0.06763000041246414,0.20483000576496125,0.21526999771595],"type":"VEC3","name":"part010_vertices#0_POSITION"},{"bufferView":3,"byteOffset":9372,"componentType":5120,"count":10,"type":"VEC4","name":"part010_vertices#0_TANGENT"},{"bufferView":3,"byteOffset":9376,"componentType":5120,"count":10,"type":"VEC4","name":"part010_vertices#0_NORMAL"},{"bufferView":3,"byteOffset":9380,"componentType":5122,"count":10,"type":"VEC2","name":"part010_vertices#0_TEXCOORD_0"},{"bufferView":3,"byteOffset":9384,"componentType":5122,"count":10,"type":"VEC2","name":"part010_vertices#0_TEXCOORD_1"},{"bufferView":3,"byteOffset":9388,"componentType":5123,"count":10,"type":"VEC4","name":"part010_vertices#0_COLOR_0"},{"bufferView":4,"byteOffset":1194,"componentType":5123,"count":24,"type":"SCALAR","name":"part010_indices#0"}],"animations":[{"name":"c_gear","channels":[{"sampler":0,"target":{"node":11,"path":"rotation"}},{"sampler":1,"target":{"node":24,"path":"translation"}},{"sampler":2,"target":{"node":26,"path":"rotation"}},{"sampler":3,"target":{"node":28,"path":"translation"}},{"sampler":4,"target":{"node":30,"path":"rotation"}},{"sampler":5,"target":{"node":32,"path":"translation"}},{"sampler":6,"target":{"node":34,"path":"rotation"}},{"sampler":7,"target":{"node":36,"path":"translation"}},{"sampler":8,"target":{"node":38,"path":"rotation"}}],"samplers":[{"input":0,"output":1,"interpolation":"LINEAR"},{"input":12,"output":13,"interpolation":"LINEAR"},{"input":14,"output":15,"interpolation":"LINEAR"},{"input":16,"output":17,"interpolation":"LINEAR"},{"input":18,"output":19,"interpolation":"LINEAR"},{"input":20,"output":21,"interpolation":"LINEAR"},{"input":22,"output":23,"interpolation":"LINEAR"},{"input":24,"output":25,"interpolation":"LINEAR"},{"input":26,"output":27,"interpolation":"LINEAR"}]},{"name":"custom_anim_C_WHEEL_LR","channels":[{"sampler":0,"target":{"node":13,"path":"rotation"}}],"samplers":[{"input":2,"output":3,"interpolation":"LINEAR"}]},{"name":"c_tire_blurred_key","channels":[{"sampler":0,"target":{"node":15,"path":"rotation"}}],"samplers":[{"input":4,"output":5,"interpolation":"LINEAR"}]},{"name":"l_gear","channels":[{"sampler":0,"target":{"node":17,"path":"translation"}},{"sampler":1,"target":{"node":19,"path":"rotation"}}],"samplers":[{"input":6,"output":7,"interpolation":"LINEAR"},{"input":8,"output":9,"interpolation":"LINEAR"}]},{"name":"l_tire_blurred_key","channels":[{"sampler":0,"target":{"node":22,"path":"rotation"}}],"samplers":[{"input":10,"output":11,"interpolation":"LINEAR"}]},{"name":"r_gear","channels":[{"sampler":0,"target":{"node":40,"path":"translation"}},{"sampler":1,"target":{"node":42,"path":"rotation"}}],"samplers":[{"input":28,"output":29,"interpolation":"LINEAR"},{"input":30,"output":31,"interpolation":"LINEAR"}]},{"name":"r_tire_blurred_key","channels":[{"sampler":0,"target":{"node":45,"path":"rotation"}}],"samplers":[{"input":32,"output":33,"interpolation":"LINEAR"}]}],"asset":{"generator":"ModelConverterX","version":"2.0","extensions":{"ASOBO_asset_optimized":{"BoundingBoxMax":[5.482999801635742,1.504699945449829,1.9368799924850464],"BoundingBoxMin":[-5.482999801635742,-0.6095600128173828,-6.120910167694092],"MajorVersion":4,"MinorVersion":4,"UseCheckerboardMaterialForMissingTextures":true,"UseOnlyFilenameForImageURI":true}}},"bufferViews":[{"buffer":0,"byteLength":248,"byteStride":4},{"buffer":0,"byteLength":240,"byteStride":12,"byteOffset":248},{"buffer":0,"byteLength":672,"byteStride":16,"byteOffset":488},{"buffer":0,"byteLength":9720,"byteStride":36,"byteOffset":1160,"target":34962,"name":"BufferViewVertexND"},{"buffer":0,"byteLength":1242,"byteOffset":10880,"target":34963,"name":"BufferViewIndex"}],"extensionsRequired":["MSFT_texture_dds"],"materials":[{"name":"material00","pbrMetallicRoughness":{"metallicFactor":0.0,"baseColorTexture":{"index":0}}}],"meshes":[{"primitives":[{"attributes":{"COLOR_0":39,"NORMAL":36,"POSITION":34,"TANGENT":35,"TEXCOORD_0":37,"TEXCOORD_1":38},"indices":40,"material":0,"mode":4,"extras":{"ASOBO_primitive":{"PrimitiveCount":127,"VertexType":"VTX","VertexVersion":2}}}],"name":"part000"},{"primitives":[{"attributes":{"COLOR_0":46,"NORMAL":43,"POSITION":41,"TANGENT":42,"TEXCOORD_0":44,"TEXCOORD_1":45},"indices":47,"material":0,"mode":4,"extras":{"ASOBO_primitive":{"PrimitiveCount":12,"VertexType":"VTX","VertexVersion":2}}}],"name":"part001"},{"primitives":[{"attributes":{"COLOR_0":53,"NORMAL":50,"POSITION":48,"TANGENT":49,"TEXCOORD_0":51,"TEXCOORD_1":52},"indices":54,"material":0,"mode":4,"extras":{"ASOBO_primitive":{"PrimitiveCount":16,"VertexType":"VTX","VertexVersion":2}}}],"name":"part002"},{"primitives":[{"attributes":{"COLOR_0":60,"NORMAL":57,"POSITION":55,"TANGENT":56,"TEXCOORD_0":58,"TEXCOORD_1":59},"indices":61,"material":0,"mode":4,"extras":{"ASOBO_primitive":{"PrimitiveCount":10,"VertexType":"VTX","VertexVersion":2}}}],"name":"part003"},{"primitives":[{"attributes":{"COLOR_0":67,"NORMAL":64,"POSITION":62,"TANGENT":63,"TEXCOORD_0":65,"TEXCOORD_1":66},"indices":68,"material":0,"mode":4,"extras":{"ASOBO_primitive":{"PrimitiveCount":8,"VertexType":"VTX","VertexVersion":2}}}],"name":"part004"},{"primitives":[{"attributes":{"COLOR_0":74,"NORMAL":71,"POSITION":69,"TANGENT":70,"TEXCOORD_0":72,"TEXCOORD_1":73},"indices":75,"material":0,"mode":4,"extras":{"ASOBO_primitive":{"PrimitiveCount":2,"VertexType":"VTX","VertexVersion":2}}}],"name":"part005"},{"primitives":[{"attributes":{"COLOR_0":81,"NORMAL":78,"POSITION":76,"TANGENT":77,"TEXCOORD_0":79,"TEXCOORD_1":80},"indices":82,"material":0,"mode":4,"extras":{"ASOBO_primitive":{"PrimitiveCount":6,"VertexType":"VTX","VertexVersion":2}}}],"name":"part006"},{"primitives":[{"attributes":{"COLOR_0":88,"NORMAL":85,"POSITION":83,"TANGENT":84,"TEXCOORD_0":86,"TEXCOORD_1":87},"indices":89,"material":0,"mode":4,"extras":{"ASOBO_primitive":{"PrimitiveCount":6,"VertexType":"VTX","VertexVersion":2}}}],"name":"part007"},{"primitives":[{"attributes":{"COLOR_0":95,"NORMAL":92,"POSITION":90,"TANGENT":91,"TEXCOORD_0":93,"TEXCOORD_1":94},"indices":96,"material":0,"mode":4,"extras":{"ASOBO_primitive":{"PrimitiveCount":2,"VertexType":"VTX","VertexVersion":2}}}],"name":"part008"},{"primitives":[{"attributes":{"COLOR_0":102,"NORMAL":99,"POSITION":97,"TANGENT":98,"TEXCOORD_0":100,"TEXCOORD_1":101},"indices":103,"material":0,"mode":4,"extras":{"ASOBO_primitive":{"PrimitiveCount":10,"VertexType":"VTX","VertexVersion":2}}}],"name":"part009"},{"primitives":[{"attributes":{"COLOR_0":109,"NORMAL":106,"POSITION":104,"TANGENT":105,"TEXCOORD_0":107,"TEXCOORD_1":108},"indices":110,"material":0,"mode":4,"extras":{"ASOBO_primitive":{"PrimitiveCount":8,"VertexType":"VTX","VertexVersion":2}}}],"name":"part010"}],"nodes":[{"name":"node_0","children":[1,2,3,4,5,6,7,8]},{"mesh":0,"name":"node_6"},{"translation":[-1.3700000047683716,-1.0800000429153443,-0.5000000000000002],"rotation":[-6.123031769111886e-17,0.0,1.0,0.0],"scale":[1.0,1.0,1.0],"name":"r_tire1"},{"translation":[1.3700000047683716,-1.0800000429153443,-0.49999999999999986],"rotation":[-6.123031769111886e-17,0.0,1.0,0.0],"scale":[1.0,1.0,1.0],"name":"l_tire1"},{"translation":[-1.4695276829806339e-16,-1.100000023841858,1.2000000476837159],"rotation":[-6.123031769111886e-17,0.0,1.0,0.0],"scale":[1.0,1.0,1.0],"name":"c_tire1"},{"translation":[-0.05999999865889572,-0.17000000178813935,1.850000023841858],"rotation":[-0.7071067811865475,-4.329637285359677e-17,-4.329637285359677e-17,0.7071067811865475],"scale":[1.0,1.0,1.0],"name":"Landing_Light"},{"translation":[0.059999998658895267,-0.17000000178813935,1.850000023841858],"rotation":[-0.7071067811865475,-4.329637285359677e-17,-4.329637285359677e-17,0.7071067811865475],"scale":[1.0,1.0,1.0],"name":"Taxi_Light"},{"translation":[7.347638122934264e-16,0.0,-6.0],"rotation":[-6.123031769111886e-17,0.0,1.0,0.0],"scale":[1.0,1.0,1.0],"name":"contrail1"},{"translation":[0.0,0.0,0.0],"rotation":[-4.329637285359677e-17,0.7071067811865475,0.7071067811865475,4.329637285359677e-17],"scale":[1.0,1.0,1.0],"name":"node_25","children":[9,16,23,27,31,35,39]},{"translation":[0.0,1.0911140441894532,-0.4980109930038452],"rotation":[0.0,0.0,0.0,1.0],"scale":[1.0,1.0,1.0],"name":"node_26","children":[10]},{"name":"node_27","children":[11]},{"mesh":1,"name":"c_gear_AN_27","children":[12]},{"translation":[0.0,0.0009139999747276305,-0.4449799954891205],"rotation":[0.0,0.0,0.0,1.0],"scale":[1.0,1.0,1.0],"name":"node_28","children":[13]},{"name":"custom_anim_C_WHEEL_LR_AN_28","children":[14]},{"name":"node_29","children":[15]},{"mesh":2,"name":"c_tire_blurred_key_AN_29"},{"translation":[-0.3962149918079376,-0.8229069709777832,-0.4266929924488067],"rotation":[0.0,0.0,0.0,1.0],"scale":[1.0,1.0,1.0],"name":"node_56","children":[17]},{"name":"l_gear_AN_56","children":[18]},{"name":"node_57","children":[19]},{"mesh":3,"name":"l_gear_AN_57","children":[20]},{"translation":[-0.92500901222229,0.27704599499702456,-0.4382739961147308],"rotation":[0.0,0.0,0.0,1.0],"scale":[1.0,1.0,1.0],"name":"node_60","children":[21]},{"name":"node_61","children":[22]},{"mesh":4,"name":"l_tire_blurred_key_AN_61"},{"translation":[-0.09082499891519545,1.0088239908218384,-0.5550050139427185],"rotation":[0.0,0.0,0.0,1.0],"scale":[1.0,1.0,1.0],"name":"node_71","children":[24]},{"name":"c_gear_AN_71","children":[25]},{"name":"node_72","children":[26]},{"mesh":5,"name":"c_gear_AN_72"},{"translation":[-0.11825499683618546,1.4413069486618043,-0.45534199476242068],"rotation":[0.0,0.0,0.0,1.0],"scale":[1.0,1.0,1.0],"name":"node_77","children":[28]},{"name":"c_gear_AN_77","children":[29]},{"name":"node_78","children":[30]},{"mesh":6,"name":"c_gear_AN_78"},{"translation":[0.11825499683618546,1.4413069486618043,-0.45534199476242068],"rotation":[0.0,0.0,0.0,1.0],"scale":[1.0,1.0,1.0],"name":"node_83","children":[32]},{"name":"c_gear_AN_83","children":[33]},{"name":"node_84","children":[34]},{"mesh":7,"name":"c_gear_AN_84"},{"translation":[0.09082499891519545,1.0088239908218384,-0.5550050139427185],"rotation":[0.0,0.0,0.0,1.0],"scale":[1.0,1.0,1.0],"name":"node_89","children":[36]},{"name":"c_gear_AN_89","children":[37]},{"name":"node_90","children":[38]},{"mesh":8,"name":"c_gear_AN_90"},{"translation":[0.3962149918079376,-0.8229069709777832,-0.4266929924488067],"rotation":[0.0,0.0,0.0,1.0],"scale":[1.0,1.0,1.0],"name":"node_95","children":[40]},{"name":"r_gear_AN_95","children":[41]},{"name":"node_96","children":[42]},{"mesh":9,"name":"r_gear_AN_96","children":[43]},{"translation":[0.92500901222229,0.2739979922771454,-0.4382739961147308],"rotation":[0.0,0.0,0.0,1.0],"scale":[1.0,1.0,1.0],"name":"node_97","children":[44]},{"name":"node_98","children":[45]},{"mesh":10,"name":"r_tire_blurred_key_AN_98"}],"scene":0,"scenes":[{"nodes":[0]}],"textures":[{"extensions":{"MSFT_texture_dds":{"source":0}}}],"extensionsUsed":["MSFT_texture_dds","ASOBO_asset_optimized"],"buffers":[{"byteLength":12122,"uri":"HTAI Cessna P210 Centurion MSFS_LOD4.bin"}],"images":[{"uri":"HTAI_P210.PNG.DDS","extras":"ASOBO_image_converted_meta"}]}
