{"accessors":[{"bufferView":0,"componentType":5126,"count":18,"min":[0.4654226303100586,-0.009521453641355038,-0.15683233737945558],"max":[0.8918106555938721,5.2619725465774539e-8,0.15400995314121247],"type":"VEC3","name":"antenna3_vertices#0_POSITION"},{"bufferView":0,"byteOffset":12,"componentType":5120,"count":18,"type":"VEC4","name":"antenna3_vertices#0_TANGENT"},{"bufferView":0,"byteOffset":16,"componentType":5120,"count":18,"type":"VEC4","name":"antenna3_vertices#0_NORMAL"},{"bufferView":0,"byteOffset":20,"componentType":5122,"count":18,"type":"VEC2","name":"antenna3_vertices#0_TEXCOORD_0"},{"bufferView":0,"byteOffset":24,"componentType":5122,"count":18,"type":"VEC2","name":"antenna3_vertices#0_TEXCOORD_1"},{"bufferView":0,"byteOffset":28,"componentType":5123,"count":18,"type":"VEC4","name":"antenna3_vertices#0_COLOR_0"},{"bufferView":1,"componentType":5123,"count":30,"type":"SCALAR","name":"antenna3_indices#0"},{"bufferView":0,"byteOffset":648,"componentType":5126,"count":18,"min":[0.11511510610580445,-0.009521477855741978,-0.15683233737945558],"max":[0.5657991766929627,2.8405338525772096e-8,0.15400995314121247],"type":"VEC3","name":"antenna1_vertices#0_POSITION"},{"bufferView":0,"byteOffset":660,"componentType":5120,"count":18,"type":"VEC4","name":"antenna1_vertices#0_TANGENT"},{"bufferView":0,"byteOffset":664,"componentType":5120,"count":18,"type":"VEC4","name":"antenna1_vertices#0_NORMAL"},{"bufferView":0,"byteOffset":668,"componentType":5122,"count":18,"type":"VEC2","name":"antenna1_vertices#0_TEXCOORD_0"},{"bufferView":0,"byteOffset":672,"componentType":5122,"count":18,"type":"VEC2","name":"antenna1_vertices#0_TEXCOORD_1"},{"bufferView":0,"byteOffset":676,"componentType":5123,"count":18,"type":"VEC4","name":"antenna1_vertices#0_COLOR_0"},{"bufferView":1,"byteOffset":60,"componentType":5123,"count":30,"type":"SCALAR","name":"antenna1_indices#0"},{"bufferView":0,"byteOffset":1296,"componentType":5126,"count":18,"min":[1.095409870147705,-0.009521412663161755,-0.15683230757713319],"max":[1.5460939407348633,9.313225746154785e-8,0.15400996804237367],"type":"VEC3","name":"antenna2_vertices#0_POSITION"},{"bufferView":0,"byteOffset":1308,"componentType":5120,"count":18,"type":"VEC4","name":"antenna2_vertices#0_TANGENT"},{"bufferView":0,"byteOffset":1312,"componentType":5120,"count":18,"type":"VEC4","name":"antenna2_vertices#0_NORMAL"},{"bufferView":0,"byteOffset":1316,"componentType":5122,"count":18,"type":"VEC2","name":"antenna2_vertices#0_TEXCOORD_0"},{"bufferView":0,"byteOffset":1320,"componentType":5122,"count":18,"type":"VEC2","name":"antenna2_vertices#0_TEXCOORD_1"},{"bufferView":0,"byteOffset":1324,"componentType":5123,"count":18,"type":"VEC4","name":"antenna2_vertices#0_COLOR_0"},{"bufferView":1,"byteOffset":120,"componentType":5123,"count":30,"type":"SCALAR","name":"antenna2_indices#0"},{"bufferView":0,"byteOffset":1944,"componentType":5126,"count":45,"min":[-0.14000000059604646,-0.019304990768432618,-0.14000000059604646],"max":[0.14000000059604646,0.07000000029802323,0.14000000059604646],"type":"VEC3","name":"antenna5_vertices#0_POSITION"},{"bufferView":0,"byteOffset":1956,"componentType":5120,"count":45,"type":"VEC4","name":"antenna5_vertices#0_TANGENT"},{"bufferView":0,"byteOffset":1960,"componentType":5120,"count":45,"type":"VEC4","name":"antenna5_vertices#0_NORMAL"},{"bufferView":0,"byteOffset":1964,"componentType":5122,"count":45,"type":"VEC2","name":"antenna5_vertices#0_TEXCOORD_0"},{"bufferView":0,"byteOffset":1968,"componentType":5122,"count":45,"type":"VEC2","name":"antenna5_vertices#0_TEXCOORD_1"},{"bufferView":0,"byteOffset":1972,"componentType":5123,"count":45,"type":"VEC4","name":"antenna5_vertices#0_COLOR_0"},{"bufferView":1,"byteOffset":180,"componentType":5123,"count":120,"type":"SCALAR","name":"antenna5_indices#0"},{"bufferView":0,"byteOffset":3564,"componentType":5126,"count":36,"min":[-0.25382187962532046,-0.1326579451560974,-0.03837345540523529],"max":[0.25382187962532046,0.1326579451560974,0.01058282796293497],"type":"VEC3","name":"antenna4_vertices#0_POSITION"},{"bufferView":0,"byteOffset":3576,"componentType":5120,"count":36,"type":"VEC4","name":"antenna4_vertices#0_TANGENT"},{"bufferView":0,"byteOffset":3580,"componentType":5120,"count":36,"type":"VEC4","name":"antenna4_vertices#0_NORMAL"},{"bufferView":0,"byteOffset":3584,"componentType":5122,"count":36,"type":"VEC2","name":"antenna4_vertices#0_TEXCOORD_0"},{"bufferView":0,"byteOffset":3588,"componentType":5122,"count":36,"type":"VEC2","name":"antenna4_vertices#0_TEXCOORD_1"},{"bufferView":0,"byteOffset":3592,"componentType":5123,"count":36,"type":"VEC4","name":"antenna4_vertices#0_COLOR_0"},{"bufferView":1,"byteOffset":420,"componentType":5123,"count":120,"type":"SCALAR","name":"antenna4_indices#0"}],"asset":{"generator":"babylon.js glTF exporter for 3dsmax 2021 v1.0.8378.27976","version":"2.0","extensions":{"ASOBO_asset_optimized":{"BoundingBoxMax":[1.5460939407348633,0.1326579451560974,0.15400996804237367],"BoundingBoxMin":[-0.25382187962532046,-0.1326579451560974,-0.15683233737945558],"MajorVersion":4,"MinorVersion":4,"UseCheckerboardMaterialForMissingTextures":true,"UseOnlyFilenameForImageURI":true},"ASOBO_normal_map_convention":{"tangent_space_convention":"DirectX"}}},"bufferViews":[{"buffer":0,"byteLength":4860,"byteStride":36,"target":34962,"name":"BufferViewVertexND"},{"buffer":0,"byteLength":660,"byteOffset":4860,"target":34963,"name":"BufferViewIndex"}],"extensionsRequired":["MSFT_texture_dds"],"materials":[{"name":"Antenna","alphaMode":"MASK","pbrMetallicRoughness":{"metallicFactor":0.0,"baseColorTexture":{"index":0}}}],"meshes":[{"primitives":[{"attributes":{"COLOR_0":5,"NORMAL":2,"POSITION":0,"TANGENT":1,"TEXCOORD_0":3,"TEXCOORD_1":4},"indices":6,"material":0,"mode":4,"extras":{"ASOBO_primitive":{"PrimitiveCount":10,"VertexType":"VTX","VertexVersion":2}}}],"name":"antenna3"},{"primitives":[{"attributes":{"COLOR_0":12,"NORMAL":9,"POSITION":7,"TANGENT":8,"TEXCOORD_0":10,"TEXCOORD_1":11},"indices":13,"material":0,"mode":4,"extras":{"ASOBO_primitive":{"PrimitiveCount":10,"VertexType":"VTX","VertexVersion":2}}}],"name":"antenna1"},{"primitives":[{"attributes":{"COLOR_0":19,"NORMAL":16,"POSITION":14,"TANGENT":15,"TEXCOORD_0":17,"TEXCOORD_1":18},"indices":20,"material":0,"mode":4,"extras":{"ASOBO_primitive":{"PrimitiveCount":10,"VertexType":"VTX","VertexVersion":2}}}],"name":"antenna2"},{"primitives":[{"attributes":{"COLOR_0":26,"NORMAL":23,"POSITION":21,"TANGENT":22,"TEXCOORD_0":24,"TEXCOORD_1":25},"indices":27,"material":0,"mode":4,"extras":{"ASOBO_primitive":{"PrimitiveCount":40,"VertexType":"VTX","VertexVersion":2}}}],"name":"antenna5"},{"primitives":[{"attributes":{"COLOR_0":33,"NORMAL":30,"POSITION":28,"TANGENT":29,"TEXCOORD_0":31,"TEXCOORD_1":32},"indices":34,"material":0,"mode":4,"extras":{"ASOBO_primitive":{"PrimitiveCount":40,"VertexType":"VTX","VertexVersion":2}}}],"name":"antenna4"}],"nodes":[{"translation":[-1.419168e-7,-8.577313e-15,-1.931456],"rotation":[0.4999999,0.4999999,-0.49999994,0.500000238],"scale":[1.0,0.9999999,1.0],"extensions":{"ASOBO_unique_id":{"id":"antenna_dummy"}},"name":"antenna_dummy","children":[1,2,3,4,5]},{"translation":[-3.74526024,0.0151063688,0.8921048],"rotation":[-1.0,-5.21540642e-8,-3.7252903e-8,3.7252903e-8],"mesh":0,"extensions":{"ASOBO_unique_id":{"id":"antenna3"}},"name":"antenna3"},{"translation":[-7.38783646,0.0151062105,-1.920721],"rotation":[1.77635684e-15,0.0,2.22044563e-15,1.0],"mesh":1,"extensions":{"ASOBO_unique_id":{"id":"antenna1"}},"name":"antenna1"},{"translation":[-10.100379,0.0151060913,0.892047763],"rotation":[-1.0,-5.21540642e-8,-3.7252903e-8,3.7252903e-8],"mesh":2,"extensions":{"ASOBO_unique_id":{"id":"antenna2"}},"name":"antenna2"},{"translation":[-9.45697,2.18149935e-7,-1.7772398],"rotation":[0.7071068,-7.316755e-8,-5.327302e-8,0.7071068],"mesh":3,"extensions":{"ASOBO_unique_id":{"id":"antenna5"}},"name":"antenna5"},{"translation":[-2.710019,4.296715e-7,0.7641269],"rotation":[1.77635684e-15,0.0,2.22044563e-15,1.0],"mesh":4,"extensions":{"ASOBO_unique_id":{"id":"antenna4"}},"name":"antenna4"}],"scene":0,"scenes":[{"nodes":[0]}],"textures":[{"extensions":{"MSFT_texture_dds":{"source":0}}}],"extensionsUsed":["ASOBO_normal_map_convention","ASOBO_unique_id","MSFT_texture_dds","ASOBO_asset_optimized"],"buffers":[{"byteLength":5520,"uri":"AIG_DHC-Dash-8-300_Antenna.bin"}],"images":[{"uri":"AIG_DASH-8-300_ANTENNA.PNG.DDS","extras":"ASOBO_image_converted_meta"}]}
