{"accessors":[{"bufferView":0,"componentType":5126,"count":32,"min":[0.0],"max":[80.0],"type":"SCALAR"},{"bufferView":1,"componentType":5126,"count":32,"type":"VEC4"},{"bufferView":2,"componentType":5126,"count":78,"min":[-10.564000129699707,-1.715999960899353,-13.104000091552735],"max":[10.539999961853028,5.099999904632568,8.196000099182129],"type":"VEC3","name":"part000_vertices#0_POSITION"},{"bufferView":2,"byteOffset":12,"componentType":5120,"count":78,"type":"VEC4","name":"part000_vertices#0_TANGENT"},{"bufferView":2,"byteOffset":16,"componentType":5120,"count":78,"type":"VEC4","name":"part000_vertices#0_NORMAL"},{"bufferView":2,"byteOffset":20,"componentType":5122,"count":78,"type":"VEC2","name":"part000_vertices#0_TEXCOORD_0"},{"bufferView":2,"byteOffset":24,"componentType":5122,"count":78,"type":"VEC2","name":"part000_vertices#0_TEXCOORD_1"},{"bufferView":2,"byteOffset":28,"componentType":5123,"count":78,"type":"VEC4","name":"part000_vertices#0_COLOR_0"},{"bufferView":3,"componentType":5123,"count":132,"type":"SCALAR","name":"part000_indices#0"}],"animations":[{"name":"c_gear","channels":[{"sampler":0,"target":{"node":14,"path":"rotation"}}],"samplers":[{"input":0,"output":1,"interpolation":"LINEAR"}]}],"asset":{"generator":"ModelConverterX","version":"2.0","extensions":{"ASOBO_asset_optimized":{"BoundingBoxMax":[10.539999961853028,5.099999904632568,8.196000099182129],"BoundingBoxMin":[-10.564000129699707,-1.715999960899353,-13.104000091552735],"MajorVersion":4,"MinorVersion":4,"UseCheckerboardMaterialForMissingTextures":true,"UseOnlyFilenameForImageURI":true}}},"bufferViews":[{"buffer":0,"byteLength":128,"byteStride":4},{"buffer":0,"byteLength":512,"byteStride":16,"byteOffset":128},{"buffer":0,"byteLength":2808,"byteStride":36,"byteOffset":640,"target":34962,"name":"BufferViewVertexND"},{"buffer":0,"byteLength":264,"byteOffset":3448,"target":34963,"name":"BufferViewIndex"}],"extensionsRequired":["MSFT_texture_dds"],"materials":[{"name":"material00","emissiveTexture":{"index":1},"emissiveFactor":[0.019607843831181527,0.019607843831181527,0.019607843831181527],"pbrMetallicRoughness":{"metallicFactor":0.0,"baseColorTexture":{"index":0}},"extensions":{"ASOBO_material_day_night_switch":{}}}],"meshes":[{"primitives":[{"attributes":{"COLOR_0":7,"NORMAL":4,"POSITION":2,"TANGENT":3,"TEXCOORD_0":5,"TEXCOORD_1":6},"indices":8,"material":0,"mode":4,"extras":{"ASOBO_primitive":{"PrimitiveCount":44,"VertexType":"VTX","VertexVersion":2}}}],"name":"part000"}],"nodes":[{"name":"node_0","children":[1,2,3,4,5,6,7,8,9,10,11]},{"mesh":0,"name":"custom_vis_parts_visible_00_mcx_VC"},{"translation":[3.5000000000000006,0.699999988079071,-1.9999999999999996],"rotation":[-6.123031769111886e-17,3.061515884555943e-17,1.0,1.874575902277672e-33],"scale":[1.0,1.0,1.0],"name":"contrail1"},{"translation":[1.12999999523163,4.440000057220459,-11.869999885559082],"rotation":[-0.2151970916771537,-0.16165088850938115,-0.1970536561334546,0.9427242749511972],"scale":[1.0,1.0,1.0],"name":"logo_l"},{"translation":[-1.1299999952316269,4.440000057220459,-11.869999885559082],"rotation":[-0.21519709167715377,0.16165088850938104,0.1970536561334546,0.9427242749511972],"scale":[1.0,1.0,1.0],"name":"logo_r"},{"translation":[-1.1299999952316285,-1.0,0.8000000119209288],"rotation":[-0.7044160264027587,-0.061628416716219377,-0.061628416716219377,0.7044160264027587],"scale":[1.0,1.0,1.0],"name":"landing_r"},{"translation":[1.1299999952316285,-1.0,0.8000000119209291],"rotation":[-0.7044160264027587,0.0616284167162193,0.0616284167162193,0.7044160264027587],"scale":[1.0,1.0,1.0],"name":"landing_l"},{"translation":[-3.4999999999999997,0.699999988079071,-2.0000000000000006],"rotation":[-6.123031769111886e-17,3.061515884555943e-17,1.0,1.874575902277672e-33],"scale":[1.0,1.0,1.0],"name":"contrail2"},{"translation":[-7.715020262656102e-16,-1.899999976158142,6.300000190734863],"rotation":[-6.123031769111886e-17,3.061515884555943e-17,1.0,1.874575902277672e-33],"scale":[1.0,1.0,1.0],"name":"c_tire1"},{"translation":[1.700000047683716,-1.899999976158142,-1.299999952316284],"rotation":[-6.123031769111886e-17,3.061515884555943e-17,1.0,1.874575902277672e-33],"scale":[1.0,1.0,1.0],"name":"l_tire1"},{"translation":[-1.7000000476837157,-1.899999976158142,-1.2999999523162845],"rotation":[-6.123031769111886e-17,3.061515884555943e-17,1.0,1.874575902277672e-33],"scale":[1.0,1.0,1.0],"name":"r_tire1"},{"translation":[0.0,0.0,0.0],"rotation":[-4.329637285359677e-17,0.7071067811865475,0.7071067811865475,4.329637285359677e-17],"scale":[1.0,1.0,1.0],"name":"node_21","children":[12]},{"translation":[0.0,-2.3440001010894777,0.045062001794576648],"rotation":[0.0,0.0,0.0,1.0],"scale":[1.0,1.0,1.0],"name":"node_220","children":[13]},{"translation":[-0.004342999774962664,8.71064281463623,-1.114024996757507],"rotation":[0.0,0.0,0.0,1.0],"scale":[1.0,1.0,1.0],"name":"node_255","children":[14]},{"name":"c_gear_AN_255","children":[15,17,19,21]},{"translation":[-0.2710370123386383,0.10335700213909148,0.1456570029258728],"rotation":[0.0,0.0,0.0,1.0],"scale":[1.0,1.0,1.0],"name":"node_274","children":[16]},{"translation":[0.0,0.0,0.0],"rotation":[-0.7071067811865475,-4.329637285359677e-17,0.7071067811865475,-4.329637285359677e-17],"scale":[1.0,1.0,1.0],"name":"landing_nose_l"},{"translation":[-0.2710370123386383,0.10335700213909148,-0.15434299409389497],"rotation":[0.41287119757368448,0.474954149041821,-0.5098533702997877,0.5865196191512522],"scale":[1.0,1.0,1.0],"name":"node_276","children":[18]},{"translation":[0.0,0.0,0.0],"rotation":[0.7071067811865475,0.0,0.0,0.7071067811865475],"scale":[1.0,1.0,1.0],"name":"taxi_r"},{"translation":[-0.2710370123386383,0.10335700213909148,0.1456570029258728],"rotation":[0.5098533702997877,0.5865196191512522,-0.41287119757368448,0.474954149041821],"scale":[1.0,1.0,1.0],"name":"node_278","children":[20]},{"translation":[0.0,0.0,0.0],"rotation":[0.7071067811865475,0.0,0.0,0.7071067811865475],"scale":[1.0,1.0,1.0],"name":"taxi_l"},{"translation":[-0.2710370123386383,0.10335700213909148,-0.15434299409389497],"rotation":[0.0,0.0,0.0,1.0],"scale":[1.0,1.0,1.0],"name":"node_280","children":[22]},{"translation":[0.0,0.0,0.0],"rotation":[-0.7071067811865475,-4.329637285359677e-17,0.7071067811865475,-4.329637285359677e-17],"scale":[1.0,1.0,1.0],"name":"landing_nose_r"}],"scene":0,"scenes":[{"nodes":[0]}],"textures":[{"extensions":{"MSFT_texture_dds":{"source":0}}},{"extensions":{"MSFT_texture_dds":{"source":1}}}],"extensionsUsed":["ASOBO_material_day_night_switch","MSFT_texture_dds","ASOBO_asset_optimized"],"buffers":[{"byteLength":3712,"uri":"JBAI_Do328-100_No_APU_MSFS_LOD8.bin"}],"images":[{"uri":"JBAI_DO328_T.PNG.DDS","extras":"ASOBO_image_converted_meta"},{"uri":"JBAI_DO328_L.PNG.DDS","extras":"ASOBO_image_converted_meta"}]}
