{"accessors":[{"bufferView":0,"componentType":5126,"count":32,"min":[0.0],"max":[80.0],"type":"SCALAR"},{"bufferView":1,"componentType":5126,"count":32,"type":"VEC4"},{"bufferView":2,"componentType":5126,"count":36,"min":[-2.2160000801086427,-2.871999979019165,-37.95600891113281],"max":[2.2160000801086427,11.5,36.70000076293945],"type":"VEC3","name":"part000_vertices#0_POSITION"},{"bufferView":2,"byteOffset":12,"componentType":5120,"count":36,"type":"VEC4","name":"part000_vertices#0_TANGENT"},{"bufferView":2,"byteOffset":16,"componentType":5120,"count":36,"type":"VEC4","name":"part000_vertices#0_NORMAL"},{"bufferView":2,"byteOffset":20,"componentType":5122,"count":36,"type":"VEC2","name":"part000_vertices#0_TEXCOORD_0"},{"bufferView":2,"byteOffset":24,"componentType":5122,"count":36,"type":"VEC2","name":"part000_vertices#0_TEXCOORD_1"},{"bufferView":2,"byteOffset":28,"componentType":5123,"count":36,"type":"VEC4","name":"part000_vertices#0_COLOR_0"},{"bufferView":3,"componentType":5123,"count":60,"type":"SCALAR","name":"part000_indices#0"},{"bufferView":2,"byteOffset":1296,"componentType":5126,"count":48,"min":[-30.65999984741211,-4.400000095367432,-38.619998931884769],"max":[30.65999984741211,3.5799999237060549,9.13599967956543],"type":"VEC3","name":"part001_vertices#0_POSITION"},{"bufferView":2,"byteOffset":1308,"componentType":5120,"count":48,"type":"VEC4","name":"part001_vertices#0_TANGENT"},{"bufferView":2,"byteOffset":1312,"componentType":5120,"count":48,"type":"VEC4","name":"part001_vertices#0_NORMAL"},{"bufferView":2,"byteOffset":1316,"componentType":5122,"count":48,"type":"VEC2","name":"part001_vertices#0_TEXCOORD_0"},{"bufferView":2,"byteOffset":1320,"componentType":5122,"count":48,"type":"VEC2","name":"part001_vertices#0_TEXCOORD_1"},{"bufferView":2,"byteOffset":1324,"componentType":5123,"count":48,"type":"VEC4","name":"part001_vertices#0_COLOR_0"},{"bufferView":3,"byteOffset":120,"componentType":5123,"count":72,"type":"SCALAR","name":"part001_indices#0"}],"animations":[{"name":"c_gear","channels":[{"sampler":0,"target":{"node":35,"path":"rotation"}}],"samplers":[{"input":0,"output":1,"interpolation":"LINEAR"}]}],"asset":{"generator":"ModelConverterX","version":"2.0","extensions":{"ASOBO_asset_optimized":{"BoundingBoxMax":[30.65999984741211,11.5,36.70000076293945],"BoundingBoxMin":[-30.65999984741211,-4.400000095367432,-38.619998931884769],"MajorVersion":4,"MinorVersion":4,"UseCheckerboardMaterialForMissingTextures":true,"UseOnlyFilenameForImageURI":true}}},"bufferViews":[{"buffer":0,"byteLength":128,"byteStride":4},{"buffer":0,"byteLength":512,"byteStride":16,"byteOffset":128},{"buffer":0,"byteLength":3024,"byteStride":36,"byteOffset":640,"target":34962,"name":"BufferViewVertexND"},{"buffer":0,"byteLength":264,"byteOffset":3664,"target":34963,"name":"BufferViewIndex"}],"extensionsRequired":["MSFT_texture_dds"],"materials":[{"name":"material00","emissiveTexture":{"index":1},"emissiveFactor":[0.019607843831181527,0.019607843831181527,0.019607843831181527],"pbrMetallicRoughness":{"metallicFactor":0.0,"baseColorTexture":{"index":0}},"extensions":{"ASOBO_material_day_night_switch":{}}}],"meshes":[{"primitives":[{"attributes":{"COLOR_0":7,"NORMAL":4,"POSITION":2,"TANGENT":3,"TEXCOORD_0":5,"TEXCOORD_1":6},"indices":8,"material":0,"mode":4,"extras":{"ASOBO_primitive":{"PrimitiveCount":20,"VertexType":"VTX","VertexVersion":2}}}],"name":"part000"},{"primitives":[{"attributes":{"COLOR_0":14,"NORMAL":11,"POSITION":9,"TANGENT":10,"TEXCOORD_0":12,"TEXCOORD_1":13},"indices":15,"material":0,"mode":4,"extras":{"ASOBO_primitive":{"PrimitiveCount":24,"VertexType":"VTX","VertexVersion":2}}}],"name":"part001"}],"nodes":[{"name":"node_0","children":[1,2,3,4,5,6,7,8,9,10,11,12,13,14,15,16,17,18,19,20,21,22,23,24,25,26,27,28,29,30,31,32]},{"mesh":0,"name":"custom_vis_parts_visible_00_mcx_VC"},{"mesh":1,"name":"node_37"},{"translation":[30.5,1.7699999809265137,-10.529999732971188],"rotation":[-0.6644629560486159,0.24184495041066129,0.24184495041066129,0.6644629560486159],"scale":[1.0,1.0,1.0],"name":"nav_l"},{"translation":[19.18000030517578,-1.7899999618530272,-5.999999999999997],"rotation":[-6.123031769111886e-17,0.0,1.0,0.0],"scale":[1.0,1.0,1.0],"name":"contrail1"},{"translation":[-19.18000030517578,-1.7899999618530272,-6.000000000000003],"rotation":[-6.123031769111886e-17,0.0,1.0,0.0],"scale":[1.0,1.0,1.0],"name":"contrail4"},{"translation":[9.479999542236329,-3.069999933242798,0.5000000000000011],"rotation":[-6.123031769111886e-17,0.0,1.0,0.0],"scale":[1.0,1.0,1.0],"name":"contrail2"},{"translation":[-9.479999542236329,-3.069999933242798,0.4999999999999988],"rotation":[-6.123031769111886e-17,0.0,1.0,0.0],"scale":[1.0,1.0,1.0],"name":"contrail3"},{"translation":[-3.661572951213884e-15,-5.070000171661377,29.899999618530275],"rotation":[-6.123031769111886e-17,0.0,1.0,0.0],"scale":[1.0,1.0,1.0],"name":"c_tire1"},{"translation":[5.579999923706056,-5.269999980926514,-3.9000000953674305],"rotation":[-6.123031769111886e-17,0.0,1.0,0.0],"scale":[1.0,1.0,1.0],"name":"l_tire1"},{"translation":[-5.579999923706054,-5.269999980926514,-3.900000095367433],"rotation":[-6.123031769111886e-17,0.0,1.0,0.0],"scale":[1.0,1.0,1.0],"name":"r_tire1"},{"translation":[5.755649629390048e-16,-5.269999980926514,-4.699999809265137],"rotation":[-6.123031769111886e-17,0.0,1.0,0.0],"scale":[1.0,1.0,1.0],"name":"l_tire2"},{"translation":[3.608999967575072,-1.1100000143051148,7.796999931335449],"rotation":[-0.6830126820913253,0.18301277579014572,0.18301277579014572,0.6830126820913253],"scale":[1.0,1.0,1.0],"name":"landing_l2"},{"translation":[-2.72106554073857e-16,3.0,2.221992015838623],"rotation":[-6.123031769111886e-17,0.0,1.0,0.0],"scale":[1.0,1.0,1.0],"name":"beacon"},{"translation":[-9.439745996377843e-16,-3.169919967651367,7.708392143249512],"rotation":[0.0,1.0,0.0,6.123031769111886e-17],"scale":[1.0,1.0,1.0],"name":"beacon_b"},{"translation":[2.9500000476837138,0.029999999329447744,19.187000274658204],"rotation":[-0.23035445468853328,0.715164081557186,0.6000939905362713,0.27452570597175937],"scale":[1.0,1.0,1.0],"name":"wing_l"},{"translation":[-2.950000047683718,0.029999999329447744,19.187000274658204],"rotation":[0.2303544546885332,0.715164081557186,0.6000939905362714,-0.2745257059717593],"scale":[1.0,1.0,1.0],"name":"wing_r"},{"translation":[3.5490000247955315,-1.1100000143051148,7.896999835968018],"rotation":[-0.7064337687255942,0.030843644469385514,0.030843644469385514,0.7064337687255942],"scale":[1.0,1.0,1.0],"name":"landing_l1"},{"translation":[0.3199999928474389,-2.680000066757202,30.260000228881837],"rotation":[-0.7069990885026983,0.01234053711771527,0.01234053711771527,0.7069990885026983],"scale":[1.0,1.0,1.0],"name":"landing_nose_l"},{"translation":[-0.31999999284744637,-2.680000066757202,30.260000228881837],"rotation":[-0.7069990885026983,-0.01234053711771536,-0.01234053711771536,0.7069990885026983],"scale":[1.0,1.0,1.0],"name":"landing_nose_r"},{"translation":[-3.549352884292603,-1.1100000143051148,7.896909236907959],"rotation":[-0.7064337687255942,-0.030843644469385604,-0.030843644469385604,0.7064337687255942],"scale":[1.0,1.0,1.0],"name":"landing_r1"},{"translation":[4.496664053575167e-15,1.8227039575576785,-36.719261169433597],"rotation":[-4.329637285359677e-17,0.7071067811865475,0.7071067811865475,4.329637285359677e-17],"scale":[1.0,1.0,1.0],"name":"navwhi_tail"},{"translation":[-3.609353065490723,-1.1100000143051148,7.796909809112549],"rotation":[-0.6830126820913253,-0.1830127757901458,-0.1830127757901458,0.6830126820913253],"scale":[1.0,1.0,1.0],"name":"landing_r2"},{"translation":[4.4966322873581038e-15,1.8227039575576785,-36.71900177001953],"rotation":[-4.329637285359677e-17,0.7071067811865475,0.7071067811865475,4.329637285359677e-17],"scale":[1.0,1.0,1.0],"name":"strobe_tail"},{"translation":[-2.950000047683718,0.029999999329447744,18.145999908447267],"rotation":[0.1628800905974667,0.7506653940042896,0.607876759801936,-0.2011402640056821],"scale":[1.0,1.0,1.0],"name":"engine_r"},{"translation":[2.9500000476837138,0.029999999329447744,18.145999908447267],"rotation":[-0.1628800905974668,0.7506653940042896,0.607876759801936,0.20114026400568217],"scale":[1.0,1.0,1.0],"name":"engine_l"},{"translation":[4.840000152587895,2.450000047683716,-34.400001525878909],"rotation":[0.36872697853968258,-0.024714662282831536,0.8457927138301384,-0.384791152409734],"scale":[1.0,1.0,1.0],"name":"logo_l"},{"translation":[-4.840000152587886,2.450000047683716,-34.400001525878909],"rotation":[-0.3687269785396826,-0.024714662282831556,0.8457927138301384,0.384791152409734],"scale":[1.0,1.0,1.0],"name":"logo_r"},{"translation":[-30.5,1.7699999809265137,-10.529999732971197],"rotation":[-0.6644629560486157,-0.24184495041066138,-0.24184495041066138,0.6644629560486157],"scale":[1.0,1.0,1.0],"name":"nav_r"},{"translation":[-30.350000381469728,1.7599999904632569,-10.35000038146973],"rotation":[-0.6644629560486157,-0.24184495041066138,-0.24184495041066138,0.6644629560486157],"scale":[1.0,1.0,1.0],"name":"strobe_r"},{"translation":[30.350000381469728,1.7599999904632569,-10.350000381469725],"rotation":[-0.6644629560486159,0.24184495041066129,0.24184495041066129,0.6644629560486159],"scale":[1.0,1.0,1.0],"name":"strobe_l"},{"translation":[4.4967546807238499e-15,2.2200000286102297,-36.720001220703128],"rotation":[-5.302701391467916e-17,-0.4999999063011796,0.866025457881471,-3.061515310835089e-17],"scale":[1.0,1.0,1.0],"name":"APU"},{"translation":[0.0,0.0,0.0],"rotation":[-4.329637285359677e-17,0.7071067811865475,0.7071067811865475,4.329637285359677e-17],"scale":[1.0,1.0,1.0],"name":"node_67","children":[33]},{"translation":[0.0,29.1299991607666,-3.199887990951538],"rotation":[0.0,0.0,0.0,1.0],"scale":[1.0,1.0,1.0],"name":"node_713","children":[34]},{"translation":[-9.99999997475243e-7,0.9323440194129946,0.9133170247077941],"rotation":[0.0,0.0,0.0,1.0],"scale":[1.0,1.0,1.0],"name":"node_714","children":[35]},{"name":"c_gear_AN_714","children":[36,38,40,42,44,46]},{"translation":[1.0334290266036988,0.1899929940700531,0.17766100168228148],"rotation":[0.15304648162160057,0.15304901658054208,0.6903478242571902,-0.6903423921880988],"scale":[1.0,1.0,1.0],"name":"node_756","children":[37]},{"translation":[0.0,0.0,0.0],"rotation":[-0.7071067811865475,0.0,0.0,0.7071067811865475],"scale":[1.0,1.0,1.0],"name":"landing_nose_l2"},{"translation":[0.39342999458312996,0.31999701261520388,0.1976570039987564],"rotation":[0.04316761795580682,-0.01850807962446689,0.7068667241274927,-0.7057856458368788],"scale":[1.0,1.0,1.0],"name":"node_758","children":[39]},{"translation":[0.0,0.0,0.0],"rotation":[-0.7071067811865475,0.0,0.0,0.7071067811865475],"scale":[1.0,1.0,1.0],"name":"taxi_nose_l"},{"translation":[1.0334290266036988,0.1899929940700531,0.17766100168228148],"rotation":[0.22436910835875432,0.14097824995012044,0.6929138321361692,-0.6705628404502904],"scale":[1.0,1.0,1.0],"name":"node_760","children":[41]},{"translation":[0.0,0.0,0.0],"rotation":[-0.7071067811865475,0.0,0.0,0.7071067811865475],"scale":[1.0,1.0,1.0],"name":"taxi_nose_l2"},{"translation":[1.0334270000457764,-0.19000700116157533,0.17766299843788148],"rotation":[0.14097682923978356,0.2243646547501953,-0.6705689217981538,0.6929097888048535],"scale":[1.0,1.0,1.0],"name":"node_762","children":[43]},{"translation":[0.0,0.0,0.0],"rotation":[-0.7071067811865475,0.0,0.0,0.7071067811865475],"scale":[1.0,1.0,1.0],"name":"taxi_nose_r2"},{"translation":[1.0334270000457764,-0.19000700116157533,0.17766299843788148],"rotation":[-0.153046393435688,-0.1530427822946028,0.6903477148496088,-0.6903440738404841],"scale":[1.0,1.0,1.0],"name":"node_764","children":[45]},{"translation":[0.0,0.0,0.0],"rotation":[-0.7071067811865475,0.0,0.0,0.7071067811865475],"scale":[1.0,1.0,1.0],"name":"landing_nose_r2"},{"translation":[0.39342600107192995,-0.3200030028820038,0.19766099750995637],"rotation":[-0.018511047011902604,0.04316436142504763,-0.7057906776260047,0.7068618232592742],"scale":[1.0,1.0,1.0],"name":"node_766","children":[47]},{"translation":[0.0,0.0,0.0],"rotation":[-0.7071067811865475,0.0,0.0,0.7071067811865475],"scale":[1.0,1.0,1.0],"name":"taxi_nose_r"}],"scene":0,"scenes":[{"nodes":[0]}],"textures":[{"extensions":{"MSFT_texture_dds":{"source":0}}},{"extensions":{"MSFT_texture_dds":{"source":1}}}],"extensionsUsed":["ASOBO_material_day_night_switch","MSFT_texture_dds","ASOBO_asset_optimized"],"buffers":[{"byteLength":3928,"uri":"TFS_Airbus_A340-600_MSFS_LOD11.bin"}],"images":[{"uri":"TFS_A346_T.PNG.DDS","extras":"ASOBO_image_converted_meta"},{"uri":"TFS_A346_L.PNG.DDS","extras":"ASOBO_image_converted_meta"}]}
