{"accessors":[{"bufferView":0,"componentType":5126,"count":15,"min":[0.0],"max":[79.0],"type":"SCALAR"},{"bufferView":1,"componentType":5126,"count":15,"type":"VEC4"},{"bufferView":2,"componentType":5126,"count":114,"min":[-16.3439998626709,-0.7440000176429749,-21.112009048461915],"max":[16.3439998626709,6.728000164031982,24.832000732421876],"type":"VEC3","name":"part000_vertices#0_POSITION"},{"bufferView":2,"byteOffset":12,"componentType":5120,"count":114,"type":"VEC4","name":"part000_vertices#0_TANGENT"},{"bufferView":2,"byteOffset":16,"componentType":5120,"count":114,"type":"VEC4","name":"part000_vertices#0_NORMAL"},{"bufferView":2,"byteOffset":20,"componentType":5122,"count":114,"type":"VEC2","name":"part000_vertices#0_TEXCOORD_0"},{"bufferView":2,"byteOffset":24,"componentType":5122,"count":114,"type":"VEC2","name":"part000_vertices#0_TEXCOORD_1"},{"bufferView":2,"byteOffset":28,"componentType":5123,"count":114,"type":"VEC4","name":"part000_vertices#0_COLOR_0"},{"bufferView":3,"componentType":5123,"count":234,"type":"SCALAR","name":"part000_indices#0"}],"animations":[{"name":"c_gear","channels":[{"sampler":0,"target":{"node":14,"path":"rotation"}}],"samplers":[{"input":0,"output":1,"interpolation":"LINEAR"}]}],"asset":{"generator":"ModelConverterX","version":"2.0","extensions":{"ASOBO_asset_optimized":{"BoundingBoxMax":[16.3439998626709,6.728000164031982,24.832000732421876],"BoundingBoxMin":[-16.3439998626709,-0.7440000176429749,-21.112009048461915],"MajorVersion":4,"MinorVersion":4,"UseCheckerboardMaterialForMissingTextures":true,"UseOnlyFilenameForImageURI":true}}},"bufferViews":[{"buffer":0,"byteLength":60,"byteStride":4},{"buffer":0,"byteLength":240,"byteStride":16,"byteOffset":60},{"buffer":0,"byteLength":4104,"byteStride":36,"byteOffset":300,"target":34962,"name":"BufferViewVertexND"},{"buffer":0,"byteLength":468,"byteOffset":4404,"target":34963,"name":"BufferViewIndex"}],"extensionsRequired":["MSFT_texture_dds"],"materials":[{"name":"material00","occlusionTexture":{"index":1},"emissiveTexture":{"index":2},"emissiveFactor":[0.019607843831181527,0.019607843831181527,0.019607843831181527],"pbrMetallicRoughness":{"baseColorTexture":{"index":0},"metallicRoughnessTexture":{"index":1}},"extensions":{"ASOBO_material_day_night_switch":{}}}],"meshes":[{"primitives":[{"attributes":{"COLOR_0":7,"NORMAL":4,"POSITION":2,"TANGENT":3,"TEXCOORD_0":5,"TEXCOORD_1":6},"indices":8,"material":0,"mode":4,"extras":{"ASOBO_primitive":{"PrimitiveCount":78,"VertexType":"VTX","VertexVersion":2}}}],"name":"part000"}],"nodes":[{"name":"node_0","children":[1,2,3,4,5,6,7,8,9,10,11,12]},{"mesh":0,"name":"cabin_lights_VC"},{"translation":[2.7200000286102314,1.0,-14.0],"rotation":[-6.123031769111886e-17,3.061515884555943e-17,1.0,1.874575902277672e-33],"scale":[1.0,1.0,1.0],"name":"contrail1"},{"translation":[16.100000381469728,0.1899999976158142,-4.639999866485594],"rotation":[0.2999118616810142,0.5357664618725131,0.7183706774250015,-0.327033245055578],"scale":[1.0,1.0,1.0],"name":"logo_l"},{"translation":[-16.100000381469728,0.1899999976158142,-4.6399998664855979],"rotation":[-0.2999118616810143,0.535766461872513,0.7183706774250015,0.3270332450555781],"scale":[1.0,1.0,1.0],"name":"logo_r"},{"translation":[16.100000381469728,0.30000001192092898,-3.15000009536743],"rotation":[-0.7071067811865475,0.0,0.0,0.7071067811865475],"scale":[1.0,1.0,1.0],"name":"landing_l"},{"translation":[-16.100000381469728,0.30000001192092898,-3.1500000953674336],"rotation":[-0.7071067811865475,0.0,0.0,0.7071067811865475],"scale":[1.0,1.0,1.0],"name":"landing_r"},{"translation":[-2.7200000286102279,1.0,-14.0],"rotation":[-6.123031769111886e-17,3.061515884555943e-17,1.0,1.874575902277672e-33],"scale":[1.0,1.0,1.0],"name":"contrail2"},{"translation":[-2.6941339784092305e-15,-1.600000023841858,22.0],"rotation":[-6.123031769111886e-17,3.061515884555943e-17,1.0,1.874575902277672e-33],"scale":[1.0,1.0,1.0],"name":"c_tire1"},{"translation":[2.549999952316284,-2.0,3.1227461438532808e-16],"rotation":[-6.123031769111886e-17,3.061515884555943e-17,1.0,1.874575902277672e-33],"scale":[1.0,1.0,1.0],"name":"l_tire1"},{"translation":[-2.549999952316284,-2.0,-3.1227461438532808e-16],"rotation":[-6.123031769111886e-17,3.061515884555943e-17,1.0,1.874575902277672e-33],"scale":[1.0,1.0,1.0],"name":"r_tire1"},{"translation":[-1.3999999761581408,1.649999976158142,-11.4399995803833],"rotation":[0.08583165117743123,-0.17298739392508948,0.981060262190407,0.015134435901338612],"scale":[1.0,1.0,1.0],"name":"APU"},{"translation":[0.0,0.0,0.0],"rotation":[-4.329637285359677e-17,0.7071067811865475,0.7071067811865475,4.329637285359677e-17],"scale":[1.0,1.0,1.0],"name":"node_20","children":[13]},{"translation":[9.99999997475243e-7,22.23356056213379,-0.4828499853610992],"rotation":[0.0,0.0,0.0,1.0],"scale":[1.0,1.0,1.0],"name":"node_21","children":[14]},{"name":"c_gear_AN_21","children":[15,18,20]},{"translation":[0.1499989926815033,-0.26715001463890078,-0.2664389908313751],"rotation":[0.0,0.0,0.0,1.0],"scale":[1.0,1.0,1.0],"name":"node_35","children":[16,17]},{"translation":[0.0,0.0,0.0],"rotation":[0.7071067811865475,0.0,0.0,0.7071067811865475],"scale":[1.0,1.0,1.0],"name":"landing_nose_l"},{"translation":[0.0,0.0,0.0],"rotation":[0.7071067811865475,0.0,0.0,0.7071067811865475],"scale":[1.0,1.0,1.0],"name":"landing_nose_r"},{"translation":[0.1499989926815033,-0.26715001463890078,-0.2664389908313751],"rotation":[-0.030481540464730899,-0.06101997285078993,0.0018643455010129633,0.9976692652248888],"scale":[1.0,1.0,1.0],"name":"node_38","children":[19]},{"translation":[0.0,0.0,0.0],"rotation":[0.7071067811865475,0.0,0.0,0.7071067811865475],"scale":[1.0,1.0,1.0],"name":"taxi_r"},{"translation":[-0.1500010043382645,-0.26715001463890078,-0.2664389908313751],"rotation":[-0.030481540464730899,0.06101997285078993,-0.0018643455010129633,0.9976692652248888],"scale":[1.0,1.0,1.0],"name":"node_40","children":[21]},{"translation":[0.0,0.0,0.0],"rotation":[0.7071067811865475,0.0,0.0,0.7071067811865475],"scale":[1.0,1.0,1.0],"name":"taxi_l"}],"scene":0,"scenes":[{"nodes":[0]}],"textures":[{"extensions":{"MSFT_texture_dds":{"source":0}}},{"extensions":{"MSFT_texture_dds":{"source":1}}},{"extensions":{"MSFT_texture_dds":{"source":2}}}],"extensionsUsed":["ASOBO_material_day_night_switch","MSFT_texture_dds","ASOBO_asset_optimized"],"buffers":[{"byteLength":4872,"uri":"AIA_MD8x_Cone_MSFS_LOD7.bin"}],"images":[{"uri":"AIA_MD8X_T.PNG.DDS","extras":"ASOBO_image_converted_meta"},{"uri":"AIA_MD8X_C.PNG.DDS","extras":"ASOBO_image_converted_meta"},{"uri":"AIA_MD8X_L.PNG.DDS","extras":"ASOBO_image_converted_meta"}]}
