{"accessors":[{"bufferView":0,"componentType":5126,"count":5,"min":[0.0],"max":[100.0],"type":"SCALAR"},{"bufferView":2,"componentType":5126,"count":5,"type":"VEC4"},{"bufferView":0,"byteOffset":20,"componentType":5126,"count":3,"min":[0.0],"max":[100.0],"type":"SCALAR"},{"bufferView":1,"componentType":5126,"count":3,"type":"VEC3"},{"bufferView":0,"byteOffset":32,"componentType":5126,"count":3,"min":[0.0],"max":[100.0],"type":"SCALAR"},{"bufferView":2,"byteOffset":80,"componentType":5126,"count":3,"type":"VEC4"},{"bufferView":0,"byteOffset":44,"componentType":5126,"count":4,"min":[0.0],"max":[100.0],"type":"SCALAR"},{"bufferView":1,"byteOffset":36,"componentType":5126,"count":4,"type":"VEC3"},{"bufferView":0,"byteOffset":60,"componentType":5126,"count":4,"min":[0.0],"max":[100.0],"type":"SCALAR"},{"bufferView":2,"byteOffset":128,"componentType":5126,"count":4,"type":"VEC4"},{"bufferView":0,"byteOffset":76,"componentType":5126,"count":5,"min":[0.0],"max":[100.0],"type":"SCALAR"},{"bufferView":2,"byteOffset":192,"componentType":5126,"count":5,"type":"VEC4"},{"bufferView":0,"byteOffset":96,"componentType":5126,"count":4,"min":[0.0],"max":[100.0],"type":"SCALAR"},{"bufferView":2,"byteOffset":272,"componentType":5126,"count":4,"type":"VEC4"},{"bufferView":0,"byteOffset":112,"componentType":5126,"count":3,"min":[0.0],"max":[100.0],"type":"SCALAR"},{"bufferView":1,"byteOffset":84,"componentType":5126,"count":3,"type":"VEC3"},{"bufferView":0,"byteOffset":124,"componentType":5126,"count":3,"min":[0.0],"max":[100.0],"type":"SCALAR"},{"bufferView":2,"byteOffset":336,"componentType":5126,"count":3,"type":"VEC4"},{"bufferView":0,"byteOffset":136,"componentType":5126,"count":4,"min":[0.0],"max":[100.0],"type":"SCALAR"},{"bufferView":1,"byteOffset":120,"componentType":5126,"count":4,"type":"VEC3"},{"bufferView":0,"byteOffset":152,"componentType":5126,"count":4,"min":[0.0],"max":[100.0],"type":"SCALAR"},{"bufferView":2,"byteOffset":384,"componentType":5126,"count":4,"type":"VEC4"},{"bufferView":0,"byteOffset":168,"componentType":5126,"count":5,"min":[0.0],"max":[100.0],"type":"SCALAR"},{"bufferView":2,"byteOffset":448,"componentType":5126,"count":5,"type":"VEC4"},{"bufferView":0,"byteOffset":188,"componentType":5126,"count":4,"min":[0.0],"max":[100.0],"type":"SCALAR"},{"bufferView":2,"byteOffset":528,"componentType":5126,"count":4,"type":"VEC4"},{"bufferView":0,"byteOffset":204,"componentType":5126,"count":2,"min":[0.0],"max":[100.0],"type":"SCALAR"},{"bufferView":2,"byteOffset":592,"componentType":5126,"count":2,"type":"VEC4"},{"bufferView":0,"byteOffset":212,"componentType":5126,"count":4,"min":[0.0],"max":[200.0],"type":"SCALAR"},{"bufferView":2,"byteOffset":624,"componentType":5126,"count":4,"type":"VEC4"},{"bufferView":0,"byteOffset":228,"componentType":5126,"count":5,"min":[0.0],"max":[100.0],"type":"SCALAR"},{"bufferView":2,"byteOffset":688,"componentType":5126,"count":5,"type":"VEC4"},{"bufferView":0,"byteOffset":248,"componentType":5126,"count":2,"min":[0.0],"max":[100.0],"type":"SCALAR"},{"bufferView":2,"byteOffset":768,"componentType":5126,"count":2,"type":"VEC4"},{"bufferView":3,"componentType":5126,"count":186,"min":[-5.483610153198242,-0.6095600128173828,-5.893889904022217],"max":[5.483610153198242,1.4570800065994263,2.3172500133514406],"type":"VEC3","name":"part000_vertices#0_POSITION"},{"bufferView":3,"byteOffset":12,"componentType":5120,"count":186,"type":"VEC4","name":"part000_vertices#0_TANGENT"},{"bufferView":3,"byteOffset":16,"componentType":5120,"count":186,"type":"VEC4","name":"part000_vertices#0_NORMAL"},{"bufferView":3,"byteOffset":20,"componentType":5122,"count":186,"type":"VEC2","name":"part000_vertices#0_TEXCOORD_0"},{"bufferView":3,"byteOffset":24,"componentType":5122,"count":186,"type":"VEC2","name":"part000_vertices#0_TEXCOORD_1"},{"bufferView":3,"byteOffset":28,"componentType":5123,"count":186,"type":"VEC4","name":"part000_vertices#0_COLOR_0"},{"bufferView":4,"componentType":5123,"count":489,"type":"SCALAR","name":"part000_indices#0"},{"bufferView":3,"byteOffset":6696,"componentType":5126,"count":28,"min":[-0.0630199983716011,-0.02329999953508377,-0.9865700006484985],"max":[0.0630199983716011,0.023329999297857286,0.9865700006484985],"type":"VEC3","name":"part001_vertices#0_POSITION"},{"bufferView":3,"byteOffset":6708,"componentType":5120,"count":28,"type":"VEC4","name":"part001_vertices#0_TANGENT"},{"bufferView":3,"byteOffset":6712,"componentType":5120,"count":28,"type":"VEC4","name":"part001_vertices#0_NORMAL"},{"bufferView":3,"byteOffset":6716,"componentType":5122,"count":28,"type":"VEC2","name":"part001_vertices#0_TEXCOORD_0"},{"bufferView":3,"byteOffset":6720,"componentType":5122,"count":28,"type":"VEC2","name":"part001_vertices#0_TEXCOORD_1"},{"bufferView":3,"byteOffset":6724,"componentType":5123,"count":28,"type":"VEC4","name":"part001_vertices#0_COLOR_0"},{"bufferView":4,"byteOffset":978,"componentType":5123,"count":60,"type":"SCALAR","name":"part001_indices#0"},{"bufferView":3,"byteOffset":7704,"componentType":5126,"count":8,"min":[-0.001930000027641654,-0.48629000782966616,-0.1384900063276291],"max":[0.1181500032544136,0.3347899913787842,0.22633999586105348],"type":"VEC3","name":"part002_vertices#0_POSITION"},{"bufferView":3,"byteOffset":7716,"componentType":5120,"count":8,"type":"VEC4","name":"part002_vertices#0_TANGENT"},{"bufferView":3,"byteOffset":7720,"componentType":5120,"count":8,"type":"VEC4","name":"part002_vertices#0_NORMAL"},{"bufferView":3,"byteOffset":7724,"componentType":5122,"count":8,"type":"VEC2","name":"part002_vertices#0_TEXCOORD_0"},{"bufferView":3,"byteOffset":7728,"componentType":5122,"count":8,"type":"VEC2","name":"part002_vertices#0_TEXCOORD_1"},{"bufferView":3,"byteOffset":7732,"componentType":5123,"count":8,"type":"VEC4","name":"part002_vertices#0_COLOR_0"},{"bufferView":4,"byteOffset":1098,"componentType":5123,"count":18,"type":"SCALAR","name":"part002_indices#0"},{"bufferView":3,"byteOffset":7992,"componentType":5126,"count":20,"min":[-0.06763000041246414,-0.20476000010967256,-0.21539999544620515],"max":[0.06763000041246414,0.20483000576496125,0.21526999771595],"type":"VEC3","name":"part003_vertices#0_POSITION"},{"bufferView":3,"byteOffset":8004,"componentType":5120,"count":20,"type":"VEC4","name":"part003_vertices#0_TANGENT"},{"bufferView":3,"byteOffset":8008,"componentType":5120,"count":20,"type":"VEC4","name":"part003_vertices#0_NORMAL"},{"bufferView":3,"byteOffset":8012,"componentType":5122,"count":20,"type":"VEC2","name":"part003_vertices#0_TEXCOORD_0"},{"bufferView":3,"byteOffset":8016,"componentType":5122,"count":20,"type":"VEC2","name":"part003_vertices#0_TEXCOORD_1"},{"bufferView":3,"byteOffset":8020,"componentType":5123,"count":20,"type":"VEC4","name":"part003_vertices#0_COLOR_0"},{"bufferView":4,"byteOffset":1134,"componentType":5123,"count":48,"type":"SCALAR","name":"part003_indices#0"},{"bufferView":3,"byteOffset":8712,"componentType":5126,"count":27,"min":[-0.8546000123023987,-0.046560000628232959,-0.4382700026035309],"max":[0.14521999657154084,0.2770499885082245,-0.06996999680995941],"type":"VEC3","name":"part004_vertices#0_POSITION"},{"bufferView":3,"byteOffset":8724,"componentType":5120,"count":27,"type":"VEC4","name":"part004_vertices#0_TANGENT"},{"bufferView":3,"byteOffset":8728,"componentType":5120,"count":27,"type":"VEC4","name":"part004_vertices#0_NORMAL"},{"bufferView":3,"byteOffset":8732,"componentType":5122,"count":27,"type":"VEC2","name":"part004_vertices#0_TEXCOORD_0"},{"bufferView":3,"byteOffset":8736,"componentType":5122,"count":27,"type":"VEC2","name":"part004_vertices#0_TEXCOORD_1"},{"bufferView":3,"byteOffset":8740,"componentType":5123,"count":27,"type":"VEC4","name":"part004_vertices#0_COLOR_0"},{"bufferView":4,"byteOffset":1230,"componentType":5123,"count":75,"type":"SCALAR","name":"part004_indices#0"},{"bufferView":3,"byteOffset":9684,"componentType":5126,"count":8,"min":[-0.1181500032544136,-0.48629000782966616,-0.1384900063276291],"max":[0.001930000027641654,0.3347899913787842,0.22633999586105348],"type":"VEC3","name":"part005_vertices#0_POSITION"},{"bufferView":3,"byteOffset":9696,"componentType":5120,"count":8,"type":"VEC4","name":"part005_vertices#0_TANGENT"},{"bufferView":3,"byteOffset":9700,"componentType":5120,"count":8,"type":"VEC4","name":"part005_vertices#0_NORMAL"},{"bufferView":3,"byteOffset":9704,"componentType":5122,"count":8,"type":"VEC2","name":"part005_vertices#0_TEXCOORD_0"},{"bufferView":3,"byteOffset":9708,"componentType":5122,"count":8,"type":"VEC2","name":"part005_vertices#0_TEXCOORD_1"},{"bufferView":3,"byteOffset":9712,"componentType":5123,"count":8,"type":"VEC4","name":"part005_vertices#0_COLOR_0"},{"bufferView":4,"byteOffset":1380,"componentType":5123,"count":18,"type":"SCALAR","name":"part005_indices#0"},{"bufferView":3,"byteOffset":9972,"componentType":5126,"count":20,"min":[-0.06763000041246414,-0.20476000010967256,-0.21539999544620515],"max":[0.06763000041246414,0.20483000576496125,0.21526999771595],"type":"VEC3","name":"part006_vertices#0_POSITION"},{"bufferView":3,"byteOffset":9984,"componentType":5120,"count":20,"type":"VEC4","name":"part006_vertices#0_TANGENT"},{"bufferView":3,"byteOffset":9988,"componentType":5120,"count":20,"type":"VEC4","name":"part006_vertices#0_NORMAL"},{"bufferView":3,"byteOffset":9992,"componentType":5122,"count":20,"type":"VEC2","name":"part006_vertices#0_TEXCOORD_0"},{"bufferView":3,"byteOffset":9996,"componentType":5122,"count":20,"type":"VEC2","name":"part006_vertices#0_TEXCOORD_1"},{"bufferView":3,"byteOffset":10000,"componentType":5123,"count":20,"type":"VEC4","name":"part006_vertices#0_COLOR_0"},{"bufferView":4,"byteOffset":1416,"componentType":5123,"count":48,"type":"SCALAR","name":"part006_indices#0"},{"bufferView":3,"byteOffset":10692,"componentType":5126,"count":27,"min":[-0.14521999657154084,-0.046560000628232959,-0.4382700026035309],"max":[0.8546000123023987,0.2770499885082245,-0.06996999680995941],"type":"VEC3","name":"part007_vertices#0_POSITION"},{"bufferView":3,"byteOffset":10704,"componentType":5120,"count":27,"type":"VEC4","name":"part007_vertices#0_TANGENT"},{"bufferView":3,"byteOffset":10708,"componentType":5120,"count":27,"type":"VEC4","name":"part007_vertices#0_NORMAL"},{"bufferView":3,"byteOffset":10712,"componentType":5122,"count":27,"type":"VEC2","name":"part007_vertices#0_TEXCOORD_0"},{"bufferView":3,"byteOffset":10716,"componentType":5122,"count":27,"type":"VEC2","name":"part007_vertices#0_TEXCOORD_1"},{"bufferView":3,"byteOffset":10720,"componentType":5123,"count":27,"type":"VEC4","name":"part007_vertices#0_COLOR_0"},{"bufferView":4,"byteOffset":1512,"componentType":5123,"count":75,"type":"SCALAR","name":"part007_indices#0"},{"bufferView":3,"byteOffset":11664,"componentType":5126,"count":20,"min":[-0.003650000086054206,-0.17250999808311463,-0.1814900040626526],"max":[0.003650000086054206,0.17257000505924226,0.1813499927520752],"type":"VEC3","name":"part008_vertices#0_POSITION"},{"bufferView":3,"byteOffset":11676,"componentType":5120,"count":20,"type":"VEC4","name":"part008_vertices#0_TANGENT"},{"bufferView":3,"byteOffset":11680,"componentType":5120,"count":20,"type":"VEC4","name":"part008_vertices#0_NORMAL"},{"bufferView":3,"byteOffset":11684,"componentType":5122,"count":20,"type":"VEC2","name":"part008_vertices#0_TEXCOORD_0"},{"bufferView":3,"byteOffset":11688,"componentType":5122,"count":20,"type":"VEC2","name":"part008_vertices#0_TEXCOORD_1"},{"bufferView":3,"byteOffset":11692,"componentType":5123,"count":20,"type":"VEC4","name":"part008_vertices#0_COLOR_0"},{"bufferView":4,"byteOffset":1662,"componentType":5123,"count":48,"type":"SCALAR","name":"part008_indices#0"},{"bufferView":3,"byteOffset":12384,"componentType":5126,"count":28,"min":[-0.07649999856948853,-0.03596000000834465,-0.49983999133110049],"max":[0.07649999856948853,0.03627000004053116,-0.0734499990940094],"type":"VEC3","name":"part009_vertices#0_POSITION"},{"bufferView":3,"byteOffset":12396,"componentType":5120,"count":28,"type":"VEC4","name":"part009_vertices#0_TANGENT"},{"bufferView":3,"byteOffset":12400,"componentType":5120,"count":28,"type":"VEC4","name":"part009_vertices#0_NORMAL"},{"bufferView":3,"byteOffset":12404,"componentType":5122,"count":28,"type":"VEC2","name":"part009_vertices#0_TEXCOORD_0"},{"bufferView":3,"byteOffset":12408,"componentType":5122,"count":28,"type":"VEC2","name":"part009_vertices#0_TEXCOORD_1"},{"bufferView":3,"byteOffset":12412,"componentType":5123,"count":28,"type":"VEC4","name":"part009_vertices#0_COLOR_0"},{"bufferView":4,"byteOffset":1758,"componentType":5123,"count":60,"type":"SCALAR","name":"part009_indices#0"}],"animations":[{"name":"engine0","channels":[{"sampler":0,"target":{"node":11,"path":"rotation"}}],"samplers":[{"input":0,"output":1,"interpolation":"LINEAR"}]},{"name":"c_gear","channels":[{"sampler":0,"target":{"node":13,"path":"translation"}},{"sampler":1,"target":{"node":15,"path":"rotation"}},{"sampler":2,"target":{"node":26,"path":"translation"}},{"sampler":3,"target":{"node":28,"path":"rotation"}},{"sampler":4,"target":{"node":40,"path":"rotation"}},{"sampler":5,"target":{"node":46,"path":"rotation"}}],"samplers":[{"input":2,"output":3,"interpolation":"LINEAR"},{"input":4,"output":5,"interpolation":"LINEAR"},{"input":14,"output":15,"interpolation":"LINEAR"},{"input":16,"output":17,"interpolation":"LINEAR"},{"input":26,"output":27,"interpolation":"LINEAR"},{"input":32,"output":33,"interpolation":"LINEAR"}]},{"name":"l_gear","channels":[{"sampler":0,"target":{"node":17,"path":"translation"}},{"sampler":1,"target":{"node":19,"path":"rotation"}},{"sampler":2,"target":{"node":24,"path":"rotation"}}],"samplers":[{"input":6,"output":7,"interpolation":"LINEAR"},{"input":8,"output":9,"interpolation":"LINEAR"},{"input":12,"output":13,"interpolation":"LINEAR"}]},{"name":"l_tire_blurred_key","channels":[{"sampler":0,"target":{"node":22,"path":"rotation"}}],"samplers":[{"input":10,"output":11,"interpolation":"LINEAR"}]},{"name":"r_gear","channels":[{"sampler":0,"target":{"node":30,"path":"translation"}},{"sampler":1,"target":{"node":32,"path":"rotation"}},{"sampler":2,"target":{"node":37,"path":"rotation"}}],"samplers":[{"input":18,"output":19,"interpolation":"LINEAR"},{"input":20,"output":21,"interpolation":"LINEAR"},{"input":24,"output":25,"interpolation":"LINEAR"}]},{"name":"r_tire_blurred_key","channels":[{"sampler":0,"target":{"node":35,"path":"rotation"}}],"samplers":[{"input":22,"output":23,"interpolation":"LINEAR"}]},{"name":"custom_anim_C_WHEEL_LR","channels":[{"sampler":0,"target":{"node":42,"path":"rotation"}}],"samplers":[{"input":28,"output":29,"interpolation":"LINEAR"}]},{"name":"c_tire_blurred_key","channels":[{"sampler":0,"target":{"node":44,"path":"rotation"}}],"samplers":[{"input":30,"output":31,"interpolation":"LINEAR"}]}],"asset":{"generator":"ModelConverterX","version":"2.0","extensions":{"ASOBO_asset_optimized":{"BoundingBoxMax":[5.483610153198242,1.4570800065994263,2.3172500133514406],"BoundingBoxMin":[-5.483610153198242,-0.6095600128173828,-5.893889904022217],"MajorVersion":4,"MinorVersion":4,"UseCheckerboardMaterialForMissingTextures":true,"UseOnlyFilenameForImageURI":true}}},"bufferViews":[{"buffer":0,"byteLength":256,"byteStride":4},{"buffer":0,"byteLength":168,"byteStride":12,"byteOffset":256},{"buffer":0,"byteLength":800,"byteStride":16,"byteOffset":424},{"buffer":0,"byteLength":13392,"byteStride":36,"byteOffset":1224,"target":34962,"name":"BufferViewVertexND"},{"buffer":0,"byteLength":1878,"byteOffset":14616,"target":34963,"name":"BufferViewIndex"}],"extensionsRequired":["MSFT_texture_dds"],"materials":[{"name":"material00","occlusionTexture":{"index":1},"pbrMetallicRoughness":{"baseColorTexture":{"index":0},"metallicRoughnessTexture":{"index":1}}}],"meshes":[{"primitives":[{"attributes":{"COLOR_0":39,"NORMAL":36,"POSITION":34,"TANGENT":35,"TEXCOORD_0":37,"TEXCOORD_1":38},"indices":40,"material":0,"mode":4,"extras":{"ASOBO_primitive":{"PrimitiveCount":163,"VertexType":"VTX","VertexVersion":2}}}],"name":"part000"},{"primitives":[{"attributes":{"COLOR_0":46,"NORMAL":43,"POSITION":41,"TANGENT":42,"TEXCOORD_0":44,"TEXCOORD_1":45},"indices":47,"material":0,"mode":4,"extras":{"ASOBO_primitive":{"PrimitiveCount":20,"VertexType":"VTX","VertexVersion":2}}}],"name":"part001"},{"primitives":[{"attributes":{"COLOR_0":53,"NORMAL":50,"POSITION":48,"TANGENT":49,"TEXCOORD_0":51,"TEXCOORD_1":52},"indices":54,"material":0,"mode":4,"extras":{"ASOBO_primitive":{"PrimitiveCount":6,"VertexType":"VTX","VertexVersion":2}}}],"name":"part002"},{"primitives":[{"attributes":{"COLOR_0":60,"NORMAL":57,"POSITION":55,"TANGENT":56,"TEXCOORD_0":58,"TEXCOORD_1":59},"indices":61,"material":0,"mode":4,"extras":{"ASOBO_primitive":{"PrimitiveCount":16,"VertexType":"VTX","VertexVersion":2}}}],"name":"part003"},{"primitives":[{"attributes":{"COLOR_0":67,"NORMAL":64,"POSITION":62,"TANGENT":63,"TEXCOORD_0":65,"TEXCOORD_1":66},"indices":68,"material":0,"mode":4,"extras":{"ASOBO_primitive":{"PrimitiveCount":25,"VertexType":"VTX","VertexVersion":2}}}],"name":"part004"},{"primitives":[{"attributes":{"COLOR_0":74,"NORMAL":71,"POSITION":69,"TANGENT":70,"TEXCOORD_0":72,"TEXCOORD_1":73},"indices":75,"material":0,"mode":4,"extras":{"ASOBO_primitive":{"PrimitiveCount":6,"VertexType":"VTX","VertexVersion":2}}}],"name":"part005"},{"primitives":[{"attributes":{"COLOR_0":81,"NORMAL":78,"POSITION":76,"TANGENT":77,"TEXCOORD_0":79,"TEXCOORD_1":80},"indices":82,"material":0,"mode":4,"extras":{"ASOBO_primitive":{"PrimitiveCount":16,"VertexType":"VTX","VertexVersion":2}}}],"name":"part006"},{"primitives":[{"attributes":{"COLOR_0":88,"NORMAL":85,"POSITION":83,"TANGENT":84,"TEXCOORD_0":86,"TEXCOORD_1":87},"indices":89,"material":0,"mode":4,"extras":{"ASOBO_primitive":{"PrimitiveCount":25,"VertexType":"VTX","VertexVersion":2}}}],"name":"part007"},{"primitives":[{"attributes":{"COLOR_0":95,"NORMAL":92,"POSITION":90,"TANGENT":91,"TEXCOORD_0":93,"TEXCOORD_1":94},"indices":96,"material":0,"mode":4,"extras":{"ASOBO_primitive":{"PrimitiveCount":16,"VertexType":"VTX","VertexVersion":2}}}],"name":"part008"},{"primitives":[{"attributes":{"COLOR_0":102,"NORMAL":99,"POSITION":97,"TANGENT":98,"TEXCOORD_0":100,"TEXCOORD_1":101},"indices":103,"material":0,"mode":4,"extras":{"ASOBO_primitive":{"PrimitiveCount":20,"VertexType":"VTX","VertexVersion":2}}}],"name":"part009"}],"nodes":[{"name":"node_0","children":[1,2,3,4,5,6,7,8]},{"mesh":0,"name":"node_4"},{"translation":[7.347638122934264e-16,0.0,-6.0],"rotation":[-6.123031769111886e-17,3.061515884555943e-17,1.0,1.874575902277672e-33],"scale":[1.0,1.0,1.0],"name":"contrail1"},{"translation":[0.34999999403953538,-0.36000001430511477,1.559999942779541],"rotation":[-0.6755902076156602,0.0,0.0,0.737277336810124],"scale":[1.0,1.0,1.0],"name":"Taxi_Light"},{"translation":[-0.3499999940395357,-0.36000001430511477,1.559999942779541],"rotation":[-0.7071067811865475,0.0,0.0,0.7071067811865475],"scale":[1.0,1.0,1.0],"name":"Landing_Light"},{"translation":[1.2799999713897706,-1.100000023841858,-0.49999999999999986],"rotation":[-6.123031769111886e-17,3.061515884555943e-17,1.0,1.874575902277672e-33],"scale":[1.0,1.0,1.0],"name":"l_tire1"},{"translation":[-1.2799999713897706,-1.100000023841858,-0.5000000000000001],"rotation":[-6.123031769111886e-17,3.061515884555943e-17,1.0,1.874575902277672e-33],"scale":[1.0,1.0,1.0],"name":"r_tire1"},{"translation":[-1.4695276829806339e-16,-1.100000023841858,1.2000000476837159],"rotation":[-6.123031769111886e-17,3.061515884555943e-17,1.0,1.874575902277672e-33],"scale":[1.0,1.0,1.0],"name":"c_tire1"},{"translation":[0.0,0.0,0.0],"rotation":[-4.329637285359677e-17,0.7071067811865475,0.7071067811865475,4.329637285359677e-17],"scale":[1.0,1.0,1.0],"name":"node_21","children":[9,12,16,25,29,38]},{"translation":[0.0,2.0231330394744875,0.17037199437618257],"rotation":[0.0,0.0,0.0,1.0],"scale":[1.0,1.0,1.0],"name":"node_22","children":[10]},{"name":"node_23","children":[11]},{"mesh":1,"name":"engine0_AN_23"},{"name":"node_34","children":[13]},{"name":"c_gear_AN_34","children":[14]},{"name":"node_36","children":[15]},{"mesh":2,"name":"c_gear_AN_36"},{"name":"node_40","children":[17]},{"name":"l_gear_AN_40","children":[18,23]},{"name":"node_41","children":[19]},{"name":"l_gear_AN_41","children":[20]},{"translation":[-0.92500901222229,0.27704599499702456,-0.4382739961147308],"rotation":[0.0,0.0,0.0,1.0],"scale":[1.0,1.0,1.0],"name":"node_42","children":[21]},{"name":"node_45","children":[22]},{"mesh":3,"name":"l_tire_blurred_key_AN_45"},{"name":"node_50","children":[24]},{"mesh":4,"name":"l_gear_AN_50"},{"name":"node_54","children":[26]},{"name":"c_gear_AN_54","children":[27]},{"name":"node_56","children":[28]},{"mesh":5,"name":"c_gear_AN_56"},{"name":"node_60","children":[30]},{"name":"r_gear_AN_60","children":[31,36]},{"name":"node_61","children":[32]},{"name":"r_gear_AN_61","children":[33]},{"translation":[0.92500901222229,0.27704599499702456,-0.4383629858493805],"rotation":[0.0,0.0,0.0,1.0],"scale":[1.0,1.0,1.0],"name":"node_62","children":[34]},{"name":"node_65","children":[35]},{"mesh":6,"name":"r_tire_blurred_key_AN_65"},{"name":"node_70","children":[37]},{"mesh":7,"name":"r_gear_AN_70"},{"translation":[0.0,1.219122052192688,-0.4681429862976074],"rotation":[0.0,0.0,0.0,1.0],"scale":[1.0,1.0,1.0],"name":"node_74","children":[39,45]},{"name":"node_75","children":[40]},{"name":"c_gear_AN_75","children":[41]},{"translation":[0.0,0.0,-0.46783798933029177],"rotation":[0.0,0.0,0.0,1.0],"scale":[1.0,1.0,1.0],"name":"node_76","children":[42]},{"name":"custom_anim_C_WHEEL_LR_AN_76","children":[43]},{"name":"node_78","children":[44]},{"mesh":8,"name":"c_tire_blurred_key_AN_78"},{"name":"node_87","children":[46]},{"mesh":9,"name":"c_gear_AN_87"}],"scene":0,"scenes":[{"nodes":[0]}],"textures":[{"extensions":{"MSFT_texture_dds":{"source":0}}},{"extensions":{"MSFT_texture_dds":{"source":1}}}],"extensionsUsed":["MSFT_texture_dds","ASOBO_asset_optimized"],"buffers":[{"byteLength":16494,"uri":"HTAI Cessna 172RG Cutlass MSFS_LOD3.bin"}],"images":[{"uri":"HTAI_C172RG.PNG.DDS","extras":"ASOBO_image_converted_meta"},{"uri":"HTAI_C172RG_C.PNG.DDS","extras":"ASOBO_image_converted_meta"}]}
