{"accessors":[{"bufferView":0,"componentType":5126,"count":94,"min":[-5.483610153198242,-0.6095600128173828,-5.893889904022217],"max":[5.483610153198242,1.4570800065994263,1.9368799924850464],"type":"VEC3","name":"part000_vertices#0_POSITION"},{"bufferView":0,"byteOffset":12,"componentType":5120,"count":94,"type":"VEC4","name":"part000_vertices#0_TANGENT"},{"bufferView":0,"byteOffset":16,"componentType":5120,"count":94,"type":"VEC4","name":"part000_vertices#0_NORMAL"},{"bufferView":0,"byteOffset":20,"componentType":5122,"count":94,"type":"VEC2","name":"part000_vertices#0_TEXCOORD_0"},{"bufferView":0,"byteOffset":24,"componentType":5122,"count":94,"type":"VEC2","name":"part000_vertices#0_TEXCOORD_1"},{"bufferView":0,"byteOffset":28,"componentType":5123,"count":94,"type":"VEC4","name":"part000_vertices#0_COLOR_0"},{"bufferView":1,"componentType":5123,"count":162,"type":"SCALAR","name":"part000_indices#0"}],"asset":{"generator":"ModelConverterX","version":"2.0","extensions":{"ASOBO_asset_optimized":{"BoundingBoxMax":[5.483610153198242,1.4570800065994263,1.9368799924850464],"BoundingBoxMin":[-5.483610153198242,-0.6095600128173828,-5.893889904022217],"MajorVersion":4,"MinorVersion":4,"UseCheckerboardMaterialForMissingTextures":true,"UseOnlyFilenameForImageURI":true}}},"bufferViews":[{"buffer":0,"byteLength":3384,"byteStride":36,"target":34962,"name":"BufferViewVertexND"},{"buffer":0,"byteLength":324,"byteOffset":3384,"target":34963,"name":"BufferViewIndex"}],"extensionsRequired":["MSFT_texture_dds"],"materials":[{"name":"material00","pbrMetallicRoughness":{"metallicFactor":0.0,"baseColorTexture":{"index":0}}}],"meshes":[{"primitives":[{"attributes":{"COLOR_0":5,"NORMAL":2,"POSITION":0,"TANGENT":1,"TEXCOORD_0":3,"TEXCOORD_1":4},"indices":6,"material":0,"mode":4,"extras":{"ASOBO_primitive":{"PrimitiveCount":54,"VertexType":"VTX","VertexVersion":2}}}],"name":"part000"}],"nodes":[{"name":"node_0","children":[1,2,3,4,5,6,7]},{"mesh":0,"name":"node_1"},{"translation":[7.347638122934264e-16,0.0,-6.0],"rotation":[-6.123031769111886e-17,3.061515884555943e-17,1.0,1.874575902277672e-33],"scale":[1.0,1.0,1.0],"name":"contrail1"},{"translation":[0.34999999403953538,-0.36000001430511477,1.559999942779541],"rotation":[-0.6755902076156602,0.0,0.0,0.737277336810124],"scale":[1.0,1.0,1.0],"name":"Taxi_Light"},{"translation":[-0.3499999940395357,-0.36000001430511477,1.559999942779541],"rotation":[-0.7071067811865475,0.0,0.0,0.7071067811865475],"scale":[1.0,1.0,1.0],"name":"Landing_Light"},{"translation":[1.2799999713897706,-1.100000023841858,-0.49999999999999986],"rotation":[-6.123031769111886e-17,3.061515884555943e-17,1.0,1.874575902277672e-33],"scale":[1.0,1.0,1.0],"name":"l_tire1"},{"translation":[-1.2799999713897706,-1.100000023841858,-0.5000000000000001],"rotation":[-6.123031769111886e-17,3.061515884555943e-17,1.0,1.874575902277672e-33],"scale":[1.0,1.0,1.0],"name":"r_tire1"},{"translation":[-1.4695276829806339e-16,-1.100000023841858,1.2000000476837159],"rotation":[-6.123031769111886e-17,3.061515884555943e-17,1.0,1.874575902277672e-33],"scale":[1.0,1.0,1.0],"name":"c_tire1"}],"scene":0,"scenes":[{"nodes":[0]}],"textures":[{"extensions":{"MSFT_texture_dds":{"source":0}}}],"extensionsUsed":["MSFT_texture_dds","ASOBO_asset_optimized"],"buffers":[{"byteLength":3708,"uri":"HTAI Cessna 172RG Cutlass MSFS_LOD5.bin"}],"images":[{"uri":"HTAI_C172RG.PNG.DDS","extras":"ASOBO_image_converted_meta"}]}
