{"accessors":[{"bufferView":0,"componentType":5126,"count":3,"min":[0.0],"max":[100.0],"type":"SCALAR"},{"bufferView":1,"componentType":5126,"count":3,"type":"VEC3"},{"bufferView":0,"byteOffset":12,"componentType":5126,"count":3,"min":[0.0],"max":[100.0],"type":"SCALAR"},{"bufferView":2,"componentType":5126,"count":3,"type":"VEC4"},{"bufferView":0,"byteOffset":24,"componentType":5126,"count":4,"min":[0.0],"max":[100.0],"type":"SCALAR"},{"bufferView":1,"byteOffset":36,"componentType":5126,"count":4,"type":"VEC3"},{"bufferView":0,"byteOffset":40,"componentType":5126,"count":4,"min":[0.0],"max":[100.0],"type":"SCALAR"},{"bufferView":2,"byteOffset":48,"componentType":5126,"count":4,"type":"VEC4"},{"bufferView":0,"byteOffset":56,"componentType":5126,"count":5,"min":[0.0],"max":[100.0],"type":"SCALAR"},{"bufferView":2,"byteOffset":112,"componentType":5126,"count":5,"type":"VEC4"},{"bufferView":0,"byteOffset":76,"componentType":5126,"count":3,"min":[0.0],"max":[100.0],"type":"SCALAR"},{"bufferView":1,"byteOffset":84,"componentType":5126,"count":3,"type":"VEC3"},{"bufferView":0,"byteOffset":88,"componentType":5126,"count":3,"min":[0.0],"max":[100.0],"type":"SCALAR"},{"bufferView":2,"byteOffset":192,"componentType":5126,"count":3,"type":"VEC4"},{"bufferView":0,"byteOffset":100,"componentType":5126,"count":4,"min":[0.0],"max":[100.0],"type":"SCALAR"},{"bufferView":1,"byteOffset":120,"componentType":5126,"count":4,"type":"VEC3"},{"bufferView":0,"byteOffset":116,"componentType":5126,"count":4,"min":[0.0],"max":[100.0],"type":"SCALAR"},{"bufferView":2,"byteOffset":240,"componentType":5126,"count":4,"type":"VEC4"},{"bufferView":0,"byteOffset":132,"componentType":5126,"count":5,"min":[0.0],"max":[100.0],"type":"SCALAR"},{"bufferView":2,"byteOffset":304,"componentType":5126,"count":5,"type":"VEC4"},{"bufferView":0,"byteOffset":152,"componentType":5126,"count":2,"min":[0.0],"max":[100.0],"type":"SCALAR"},{"bufferView":2,"byteOffset":384,"componentType":5126,"count":2,"type":"VEC4"},{"bufferView":0,"byteOffset":160,"componentType":5126,"count":4,"min":[0.0],"max":[200.0],"type":"SCALAR"},{"bufferView":2,"byteOffset":416,"componentType":5126,"count":4,"type":"VEC4"},{"bufferView":0,"byteOffset":176,"componentType":5126,"count":5,"min":[0.0],"max":[100.0],"type":"SCALAR"},{"bufferView":2,"byteOffset":480,"componentType":5126,"count":5,"type":"VEC4"},{"bufferView":3,"componentType":5126,"count":142,"min":[-5.483610153198242,-0.6095600128173828,-5.893889904022217],"max":[5.483610153198242,1.4570800065994263,2.3172500133514406],"type":"VEC3","name":"part000_vertices#0_POSITION"},{"bufferView":3,"byteOffset":12,"componentType":5120,"count":142,"type":"VEC4","name":"part000_vertices#0_TANGENT"},{"bufferView":3,"byteOffset":16,"componentType":5120,"count":142,"type":"VEC4","name":"part000_vertices#0_NORMAL"},{"bufferView":3,"byteOffset":20,"componentType":5122,"count":142,"type":"VEC2","name":"part000_vertices#0_TEXCOORD_0"},{"bufferView":3,"byteOffset":24,"componentType":5122,"count":142,"type":"VEC2","name":"part000_vertices#0_TEXCOORD_1"},{"bufferView":3,"byteOffset":28,"componentType":5123,"count":142,"type":"VEC4","name":"part000_vertices#0_COLOR_0"},{"bufferView":4,"componentType":5123,"count":291,"type":"SCALAR","name":"part000_indices#0"},{"bufferView":3,"byteOffset":5112,"componentType":5126,"count":8,"min":[-0.001930000027641654,-0.48629000782966616,-0.1384900063276291],"max":[0.1181500032544136,0.3347899913787842,0.22633999586105348],"type":"VEC3","name":"part001_vertices#0_POSITION"},{"bufferView":3,"byteOffset":5124,"componentType":5120,"count":8,"type":"VEC4","name":"part001_vertices#0_TANGENT"},{"bufferView":3,"byteOffset":5128,"componentType":5120,"count":8,"type":"VEC4","name":"part001_vertices#0_NORMAL"},{"bufferView":3,"byteOffset":5132,"componentType":5122,"count":8,"type":"VEC2","name":"part001_vertices#0_TEXCOORD_0"},{"bufferView":3,"byteOffset":5136,"componentType":5122,"count":8,"type":"VEC2","name":"part001_vertices#0_TEXCOORD_1"},{"bufferView":3,"byteOffset":5140,"componentType":5123,"count":8,"type":"VEC4","name":"part001_vertices#0_COLOR_0"},{"bufferView":4,"byteOffset":582,"componentType":5123,"count":18,"type":"SCALAR","name":"part001_indices#0"},{"bufferView":3,"byteOffset":5400,"componentType":5126,"count":15,"min":[-0.8546000123023987,-0.04380999878048897,-0.4382700026035309],"max":[0.13515999913215638,0.2770499885082245,-0.06996999680995941],"type":"VEC3","name":"part002_vertices#0_POSITION"},{"bufferView":3,"byteOffset":5412,"componentType":5120,"count":15,"type":"VEC4","name":"part002_vertices#0_TANGENT"},{"bufferView":3,"byteOffset":5416,"componentType":5120,"count":15,"type":"VEC4","name":"part002_vertices#0_NORMAL"},{"bufferView":3,"byteOffset":5420,"componentType":5122,"count":15,"type":"VEC2","name":"part002_vertices#0_TEXCOORD_0"},{"bufferView":3,"byteOffset":5424,"componentType":5122,"count":15,"type":"VEC2","name":"part002_vertices#0_TEXCOORD_1"},{"bufferView":3,"byteOffset":5428,"componentType":5123,"count":15,"type":"VEC4","name":"part002_vertices#0_COLOR_0"},{"bufferView":4,"byteOffset":618,"componentType":5123,"count":27,"type":"SCALAR","name":"part002_indices#0"},{"bufferView":3,"byteOffset":5940,"componentType":5126,"count":20,"min":[-0.06763000041246414,-0.20476000010967256,-0.21539999544620515],"max":[0.06763000041246414,0.20483000576496125,0.21526999771595],"type":"VEC3","name":"part003_vertices#0_POSITION"},{"bufferView":3,"byteOffset":5952,"componentType":5120,"count":20,"type":"VEC4","name":"part003_vertices#0_TANGENT"},{"bufferView":3,"byteOffset":5956,"componentType":5120,"count":20,"type":"VEC4","name":"part003_vertices#0_NORMAL"},{"bufferView":3,"byteOffset":5960,"componentType":5122,"count":20,"type":"VEC2","name":"part003_vertices#0_TEXCOORD_0"},{"bufferView":3,"byteOffset":5964,"componentType":5122,"count":20,"type":"VEC2","name":"part003_vertices#0_TEXCOORD_1"},{"bufferView":3,"byteOffset":5968,"componentType":5123,"count":20,"type":"VEC4","name":"part003_vertices#0_COLOR_0"},{"bufferView":4,"byteOffset":672,"componentType":5123,"count":48,"type":"SCALAR","name":"part003_indices#0"},{"bufferView":3,"byteOffset":6660,"componentType":5126,"count":8,"min":[-0.1181500032544136,-0.48629000782966616,-0.1384900063276291],"max":[0.001930000027641654,0.3347899913787842,0.22633999586105348],"type":"VEC3","name":"part004_vertices#0_POSITION"},{"bufferView":3,"byteOffset":6672,"componentType":5120,"count":8,"type":"VEC4","name":"part004_vertices#0_TANGENT"},{"bufferView":3,"byteOffset":6676,"componentType":5120,"count":8,"type":"VEC4","name":"part004_vertices#0_NORMAL"},{"bufferView":3,"byteOffset":6680,"componentType":5122,"count":8,"type":"VEC2","name":"part004_vertices#0_TEXCOORD_0"},{"bufferView":3,"byteOffset":6684,"componentType":5122,"count":8,"type":"VEC2","name":"part004_vertices#0_TEXCOORD_1"},{"bufferView":3,"byteOffset":6688,"componentType":5123,"count":8,"type":"VEC4","name":"part004_vertices#0_COLOR_0"},{"bufferView":4,"byteOffset":768,"componentType":5123,"count":18,"type":"SCALAR","name":"part004_indices#0"},{"bufferView":3,"byteOffset":6948,"componentType":5126,"count":15,"min":[-0.13515999913215638,-0.04380999878048897,-0.4382700026035309],"max":[0.8546000123023987,0.2770499885082245,-0.06996999680995941],"type":"VEC3","name":"part005_vertices#0_POSITION"},{"bufferView":3,"byteOffset":6960,"componentType":5120,"count":15,"type":"VEC4","name":"part005_vertices#0_TANGENT"},{"bufferView":3,"byteOffset":6964,"componentType":5120,"count":15,"type":"VEC4","name":"part005_vertices#0_NORMAL"},{"bufferView":3,"byteOffset":6968,"componentType":5122,"count":15,"type":"VEC2","name":"part005_vertices#0_TEXCOORD_0"},{"bufferView":3,"byteOffset":6972,"componentType":5122,"count":15,"type":"VEC2","name":"part005_vertices#0_TEXCOORD_1"},{"bufferView":3,"byteOffset":6976,"componentType":5123,"count":15,"type":"VEC4","name":"part005_vertices#0_COLOR_0"},{"bufferView":4,"byteOffset":804,"componentType":5123,"count":27,"type":"SCALAR","name":"part005_indices#0"},{"bufferView":3,"byteOffset":7488,"componentType":5126,"count":20,"min":[-0.06763000041246414,-0.20476000010967256,-0.21539999544620515],"max":[0.06763000041246414,0.20483000576496125,0.21526999771595],"type":"VEC3","name":"part006_vertices#0_POSITION"},{"bufferView":3,"byteOffset":7500,"componentType":5120,"count":20,"type":"VEC4","name":"part006_vertices#0_TANGENT"},{"bufferView":3,"byteOffset":7504,"componentType":5120,"count":20,"type":"VEC4","name":"part006_vertices#0_NORMAL"},{"bufferView":3,"byteOffset":7508,"componentType":5122,"count":20,"type":"VEC2","name":"part006_vertices#0_TEXCOORD_0"},{"bufferView":3,"byteOffset":7512,"componentType":5122,"count":20,"type":"VEC2","name":"part006_vertices#0_TEXCOORD_1"},{"bufferView":3,"byteOffset":7516,"componentType":5123,"count":20,"type":"VEC4","name":"part006_vertices#0_COLOR_0"},{"bufferView":4,"byteOffset":858,"componentType":5123,"count":48,"type":"SCALAR","name":"part006_indices#0"},{"bufferView":3,"byteOffset":8208,"componentType":5126,"count":8,"min":[-0.023770000785589219,-0.014630000106990338,-0.26973000168800356],"max":[0.025909999385476114,0.014019999653100968,-0.0734499990940094],"type":"VEC3","name":"part007_vertices#0_POSITION"},{"bufferView":3,"byteOffset":8220,"componentType":5120,"count":8,"type":"VEC4","name":"part007_vertices#0_TANGENT"},{"bufferView":3,"byteOffset":8224,"componentType":5120,"count":8,"type":"VEC4","name":"part007_vertices#0_NORMAL"},{"bufferView":3,"byteOffset":8228,"componentType":5122,"count":8,"type":"VEC2","name":"part007_vertices#0_TEXCOORD_0"},{"bufferView":3,"byteOffset":8232,"componentType":5122,"count":8,"type":"VEC2","name":"part007_vertices#0_TEXCOORD_1"},{"bufferView":3,"byteOffset":8236,"componentType":5123,"count":8,"type":"VEC4","name":"part007_vertices#0_COLOR_0"},{"bufferView":4,"byteOffset":954,"componentType":5123,"count":12,"type":"SCALAR","name":"part007_indices#0"},{"bufferView":3,"byteOffset":8496,"componentType":5126,"count":20,"min":[-0.003650000086054206,-0.17250999808311463,-0.1814900040626526],"max":[0.003650000086054206,0.17257000505924226,0.1813499927520752],"type":"VEC3","name":"part008_vertices#0_POSITION"},{"bufferView":3,"byteOffset":8508,"componentType":5120,"count":20,"type":"VEC4","name":"part008_vertices#0_TANGENT"},{"bufferView":3,"byteOffset":8512,"componentType":5120,"count":20,"type":"VEC4","name":"part008_vertices#0_NORMAL"},{"bufferView":3,"byteOffset":8516,"componentType":5122,"count":20,"type":"VEC2","name":"part008_vertices#0_TEXCOORD_0"},{"bufferView":3,"byteOffset":8520,"componentType":5122,"count":20,"type":"VEC2","name":"part008_vertices#0_TEXCOORD_1"},{"bufferView":3,"byteOffset":8524,"componentType":5123,"count":20,"type":"VEC4","name":"part008_vertices#0_COLOR_0"},{"bufferView":4,"byteOffset":978,"componentType":5123,"count":48,"type":"SCALAR","name":"part008_indices#0"}],"animations":[{"name":"c_gear","channels":[{"sampler":0,"target":{"node":10,"path":"translation"}},{"sampler":1,"target":{"node":12,"path":"rotation"}},{"sampler":2,"target":{"node":21,"path":"translation"}},{"sampler":3,"target":{"node":23,"path":"rotation"}},{"sampler":4,"target":{"node":33,"path":"rotation"}}],"samplers":[{"input":0,"output":1,"interpolation":"LINEAR"},{"input":2,"output":3,"interpolation":"LINEAR"},{"input":10,"output":11,"interpolation":"LINEAR"},{"input":12,"output":13,"interpolation":"LINEAR"},{"input":20,"output":21,"interpolation":"LINEAR"}]},{"name":"l_gear","channels":[{"sampler":0,"target":{"node":14,"path":"translation"}},{"sampler":1,"target":{"node":16,"path":"rotation"}}],"samplers":[{"input":4,"output":5,"interpolation":"LINEAR"},{"input":6,"output":7,"interpolation":"LINEAR"}]},{"name":"l_tire_blurred_key","channels":[{"sampler":0,"target":{"node":19,"path":"rotation"}}],"samplers":[{"input":8,"output":9,"interpolation":"LINEAR"}]},{"name":"r_gear","channels":[{"sampler":0,"target":{"node":25,"path":"translation"}},{"sampler":1,"target":{"node":27,"path":"rotation"}}],"samplers":[{"input":14,"output":15,"interpolation":"LINEAR"},{"input":16,"output":17,"interpolation":"LINEAR"}]},{"name":"r_tire_blurred_key","channels":[{"sampler":0,"target":{"node":30,"path":"rotation"}}],"samplers":[{"input":18,"output":19,"interpolation":"LINEAR"}]},{"name":"custom_anim_C_WHEEL_LR","channels":[{"sampler":0,"target":{"node":35,"path":"rotation"}}],"samplers":[{"input":22,"output":23,"interpolation":"LINEAR"}]},{"name":"c_tire_blurred_key","channels":[{"sampler":0,"target":{"node":37,"path":"rotation"}}],"samplers":[{"input":24,"output":25,"interpolation":"LINEAR"}]}],"asset":{"generator":"ModelConverterX","version":"2.0","extensions":{"ASOBO_asset_optimized":{"BoundingBoxMax":[5.483610153198242,1.4570800065994263,2.3172500133514406],"BoundingBoxMin":[-5.483610153198242,-0.6095600128173828,-5.893889904022217],"MajorVersion":4,"MinorVersion":4,"UseCheckerboardMaterialForMissingTextures":true,"UseOnlyFilenameForImageURI":true}}},"bufferViews":[{"buffer":0,"byteLength":196,"byteStride":4},{"buffer":0,"byteLength":168,"byteStride":12,"byteOffset":196},{"buffer":0,"byteLength":560,"byteStride":16,"byteOffset":364},{"buffer":0,"byteLength":9216,"byteStride":36,"byteOffset":924,"target":34962,"name":"BufferViewVertexND"},{"buffer":0,"byteLength":1074,"byteOffset":10140,"target":34963,"name":"BufferViewIndex"}],"extensionsRequired":["MSFT_texture_dds"],"materials":[{"name":"material00","pbrMetallicRoughness":{"metallicFactor":0.0,"baseColorTexture":{"index":0}}}],"meshes":[{"primitives":[{"attributes":{"COLOR_0":31,"NORMAL":28,"POSITION":26,"TANGENT":27,"TEXCOORD_0":29,"TEXCOORD_1":30},"indices":32,"material":0,"mode":4,"extras":{"ASOBO_primitive":{"PrimitiveCount":97,"VertexType":"VTX","VertexVersion":2}}}],"name":"part000"},{"primitives":[{"attributes":{"COLOR_0":38,"NORMAL":35,"POSITION":33,"TANGENT":34,"TEXCOORD_0":36,"TEXCOORD_1":37},"indices":39,"material":0,"mode":4,"extras":{"ASOBO_primitive":{"PrimitiveCount":6,"VertexType":"VTX","VertexVersion":2}}}],"name":"part001"},{"primitives":[{"attributes":{"COLOR_0":45,"NORMAL":42,"POSITION":40,"TANGENT":41,"TEXCOORD_0":43,"TEXCOORD_1":44},"indices":46,"material":0,"mode":4,"extras":{"ASOBO_primitive":{"PrimitiveCount":9,"VertexType":"VTX","VertexVersion":2}}}],"name":"part002"},{"primitives":[{"attributes":{"COLOR_0":52,"NORMAL":49,"POSITION":47,"TANGENT":48,"TEXCOORD_0":50,"TEXCOORD_1":51},"indices":53,"material":0,"mode":4,"extras":{"ASOBO_primitive":{"PrimitiveCount":16,"VertexType":"VTX","VertexVersion":2}}}],"name":"part003"},{"primitives":[{"attributes":{"COLOR_0":59,"NORMAL":56,"POSITION":54,"TANGENT":55,"TEXCOORD_0":57,"TEXCOORD_1":58},"indices":60,"material":0,"mode":4,"extras":{"ASOBO_primitive":{"PrimitiveCount":6,"VertexType":"VTX","VertexVersion":2}}}],"name":"part004"},{"primitives":[{"attributes":{"COLOR_0":66,"NORMAL":63,"POSITION":61,"TANGENT":62,"TEXCOORD_0":64,"TEXCOORD_1":65},"indices":67,"material":0,"mode":4,"extras":{"ASOBO_primitive":{"PrimitiveCount":9,"VertexType":"VTX","VertexVersion":2}}}],"name":"part005"},{"primitives":[{"attributes":{"COLOR_0":73,"NORMAL":70,"POSITION":68,"TANGENT":69,"TEXCOORD_0":71,"TEXCOORD_1":72},"indices":74,"material":0,"mode":4,"extras":{"ASOBO_primitive":{"PrimitiveCount":16,"VertexType":"VTX","VertexVersion":2}}}],"name":"part006"},{"primitives":[{"attributes":{"COLOR_0":80,"NORMAL":77,"POSITION":75,"TANGENT":76,"TEXCOORD_0":78,"TEXCOORD_1":79},"indices":81,"material":0,"mode":4,"extras":{"ASOBO_primitive":{"PrimitiveCount":4,"VertexType":"VTX","VertexVersion":2}}}],"name":"part007"},{"primitives":[{"attributes":{"COLOR_0":87,"NORMAL":84,"POSITION":82,"TANGENT":83,"TEXCOORD_0":85,"TEXCOORD_1":86},"indices":88,"material":0,"mode":4,"extras":{"ASOBO_primitive":{"PrimitiveCount":16,"VertexType":"VTX","VertexVersion":2}}}],"name":"part008"}],"nodes":[{"name":"node_0","children":[1,2,3,4,5,6,7,8]},{"mesh":0,"name":"node_3"},{"translation":[7.347638122934264e-16,0.0,-6.0],"rotation":[-6.123031769111886e-17,3.061515884555943e-17,1.0,1.874575902277672e-33],"scale":[1.0,1.0,1.0],"name":"contrail1"},{"translation":[0.34999999403953538,-0.36000001430511477,1.559999942779541],"rotation":[-0.6755902076156602,0.0,0.0,0.737277336810124],"scale":[1.0,1.0,1.0],"name":"Taxi_Light"},{"translation":[-0.3499999940395357,-0.36000001430511477,1.559999942779541],"rotation":[-0.7071067811865475,0.0,0.0,0.7071067811865475],"scale":[1.0,1.0,1.0],"name":"Landing_Light"},{"translation":[1.2799999713897706,-1.100000023841858,-0.49999999999999986],"rotation":[-6.123031769111886e-17,3.061515884555943e-17,1.0,1.874575902277672e-33],"scale":[1.0,1.0,1.0],"name":"l_tire1"},{"translation":[-1.2799999713897706,-1.100000023841858,-0.5000000000000001],"rotation":[-6.123031769111886e-17,3.061515884555943e-17,1.0,1.874575902277672e-33],"scale":[1.0,1.0,1.0],"name":"r_tire1"},{"translation":[-1.4695276829806339e-16,-1.100000023841858,1.2000000476837159],"rotation":[-6.123031769111886e-17,3.061515884555943e-17,1.0,1.874575902277672e-33],"scale":[1.0,1.0,1.0],"name":"c_tire1"},{"translation":[0.0,0.0,0.0],"rotation":[-4.329637285359677e-17,0.7071067811865475,0.7071067811865475,4.329637285359677e-17],"scale":[1.0,1.0,1.0],"name":"node_21","children":[9,13,20,24,31]},{"name":"node_34","children":[10]},{"name":"c_gear_AN_34","children":[11]},{"name":"node_35","children":[12]},{"mesh":1,"name":"c_gear_AN_35"},{"name":"node_40","children":[14]},{"name":"l_gear_AN_40","children":[15]},{"name":"node_41","children":[16]},{"mesh":2,"name":"l_gear_AN_41","children":[17]},{"translation":[-0.92500901222229,0.27704599499702456,-0.4382739961147308],"rotation":[0.0,0.0,0.0,1.0],"scale":[1.0,1.0,1.0],"name":"node_42","children":[18]},{"name":"node_44","children":[19]},{"mesh":3,"name":"l_tire_blurred_key_AN_44"},{"name":"node_54","children":[21]},{"name":"c_gear_AN_54","children":[22]},{"name":"node_55","children":[23]},{"mesh":4,"name":"c_gear_AN_55"},{"name":"node_60","children":[25]},{"name":"r_gear_AN_60","children":[26]},{"name":"node_61","children":[27]},{"mesh":5,"name":"r_gear_AN_61","children":[28]},{"translation":[0.92500901222229,0.27704599499702456,-0.4383629858493805],"rotation":[0.0,0.0,0.0,1.0],"scale":[1.0,1.0,1.0],"name":"node_62","children":[29]},{"name":"node_64","children":[30]},{"mesh":6,"name":"r_tire_blurred_key_AN_64"},{"translation":[0.0,1.219122052192688,-0.4681429862976074],"rotation":[0.0,0.0,0.0,1.0],"scale":[1.0,1.0,1.0],"name":"node_74","children":[32]},{"name":"node_75","children":[33]},{"mesh":7,"name":"c_gear_AN_75","children":[34]},{"translation":[0.0,0.0,-0.46783798933029177],"rotation":[0.0,0.0,0.0,1.0],"scale":[1.0,1.0,1.0],"name":"node_76","children":[35]},{"name":"custom_anim_C_WHEEL_LR_AN_76","children":[36]},{"name":"node_77","children":[37]},{"mesh":8,"name":"c_tire_blurred_key_AN_77"}],"scene":0,"scenes":[{"nodes":[0]}],"textures":[{"extensions":{"MSFT_texture_dds":{"source":0}}}],"extensionsUsed":["MSFT_texture_dds","ASOBO_asset_optimized"],"buffers":[{"byteLength":11214,"uri":"HTAI Cessna 172RG Cutlass MSFS_LOD4.bin"}],"images":[{"uri":"HTAI_C172RG.PNG.DDS","extras":"ASOBO_image_converted_meta"}]}
