{"accessors":[{"bufferView":0,"componentType":5126,"count":3,"min":[0.0],"max":[100.0],"type":"SCALAR"},{"bufferView":1,"componentType":5126,"count":3,"type":"VEC4"},{"bufferView":0,"byteOffset":12,"componentType":5126,"count":3,"min":[0.0],"max":[100.0],"type":"SCALAR"},{"bufferView":1,"byteOffset":48,"componentType":5126,"count":3,"type":"VEC4"},{"bufferView":0,"byteOffset":24,"componentType":5126,"count":3,"min":[0.0],"max":[100.0],"type":"SCALAR"},{"bufferView":1,"byteOffset":96,"componentType":5126,"count":3,"type":"VEC4"},{"bufferView":0,"byteOffset":36,"componentType":5126,"count":3,"min":[0.0],"max":[100.0],"type":"SCALAR"},{"bufferView":1,"byteOffset":144,"componentType":5126,"count":3,"type":"VEC4"},{"bufferView":0,"byteOffset":48,"componentType":5126,"count":4,"min":[0.0],"max":[200.0],"type":"SCALAR"},{"bufferView":1,"byteOffset":192,"componentType":5126,"count":4,"type":"VEC4"},{"bufferView":0,"byteOffset":64,"componentType":5126,"count":3,"min":[0.0],"max":[100.0],"type":"SCALAR"},{"bufferView":1,"byteOffset":256,"componentType":5126,"count":3,"type":"VEC4"},{"bufferView":0,"byteOffset":76,"componentType":5126,"count":3,"min":[0.0],"max":[100.0],"type":"SCALAR"},{"bufferView":1,"byteOffset":304,"componentType":5126,"count":3,"type":"VEC4"},{"bufferView":0,"byteOffset":88,"componentType":5126,"count":3,"min":[0.0],"max":[100.0],"type":"SCALAR"},{"bufferView":1,"byteOffset":352,"componentType":5126,"count":3,"type":"VEC4"},{"bufferView":0,"byteOffset":100,"componentType":5126,"count":3,"min":[0.0],"max":[100.0],"type":"SCALAR"},{"bufferView":1,"byteOffset":400,"componentType":5126,"count":3,"type":"VEC4"},{"bufferView":0,"byteOffset":112,"componentType":5126,"count":3,"min":[0.0],"max":[100.0],"type":"SCALAR"},{"bufferView":1,"byteOffset":448,"componentType":5126,"count":3,"type":"VEC4"},{"bufferView":0,"byteOffset":124,"componentType":5126,"count":2,"min":[0.0],"max":[100.0],"type":"SCALAR"},{"bufferView":1,"byteOffset":496,"componentType":5126,"count":2,"type":"VEC4"},{"bufferView":0,"byteOffset":132,"componentType":5126,"count":3,"min":[0.0],"max":[100.0],"type":"SCALAR"},{"bufferView":1,"byteOffset":528,"componentType":5126,"count":3,"type":"VEC4"},{"bufferView":0,"byteOffset":144,"componentType":5126,"count":2,"min":[0.0],"max":[100.0],"type":"SCALAR"},{"bufferView":1,"byteOffset":576,"componentType":5126,"count":2,"type":"VEC4"},{"bufferView":0,"byteOffset":152,"componentType":5126,"count":2,"min":[0.0],"max":[100.0],"type":"SCALAR"},{"bufferView":1,"byteOffset":608,"componentType":5126,"count":2,"type":"VEC4"},{"bufferView":0,"byteOffset":160,"componentType":5126,"count":2,"min":[0.0],"max":[100.0],"type":"SCALAR"},{"bufferView":1,"byteOffset":640,"componentType":5126,"count":2,"type":"VEC4"},{"bufferView":0,"byteOffset":168,"componentType":5126,"count":3,"min":[0.0],"max":[100.0],"type":"SCALAR"},{"bufferView":1,"byteOffset":672,"componentType":5126,"count":3,"type":"VEC4"},{"bufferView":0,"byteOffset":180,"componentType":5126,"count":2,"min":[0.0],"max":[100.0],"type":"SCALAR"},{"bufferView":1,"byteOffset":720,"componentType":5126,"count":2,"type":"VEC4"},{"bufferView":0,"byteOffset":188,"componentType":5126,"count":3,"min":[0.0],"max":[100.0],"type":"SCALAR"},{"bufferView":1,"byteOffset":752,"componentType":5126,"count":3,"type":"VEC4"},{"bufferView":0,"byteOffset":200,"componentType":5126,"count":2,"min":[0.0],"max":[100.0],"type":"SCALAR"},{"bufferView":1,"byteOffset":800,"componentType":5126,"count":2,"type":"VEC4"},{"bufferView":0,"byteOffset":208,"componentType":5126,"count":2,"min":[0.0],"max":[100.0],"type":"SCALAR"},{"bufferView":1,"byteOffset":832,"componentType":5126,"count":2,"type":"VEC4"},{"bufferView":0,"byteOffset":216,"componentType":5126,"count":2,"min":[0.0],"max":[100.0],"type":"SCALAR"},{"bufferView":1,"byteOffset":864,"componentType":5126,"count":2,"type":"VEC4"},{"bufferView":0,"byteOffset":224,"componentType":5126,"count":3,"min":[0.0],"max":[100.0],"type":"SCALAR"},{"bufferView":1,"byteOffset":896,"componentType":5126,"count":3,"type":"VEC4"},{"bufferView":0,"byteOffset":236,"componentType":5126,"count":2,"min":[0.0],"max":[100.0],"type":"SCALAR"},{"bufferView":1,"byteOffset":944,"componentType":5126,"count":2,"type":"VEC4"},{"bufferView":0,"byteOffset":244,"componentType":5126,"count":3,"min":[0.0],"max":[100.0],"type":"SCALAR"},{"bufferView":1,"byteOffset":976,"componentType":5126,"count":3,"type":"VEC4"},{"bufferView":0,"byteOffset":256,"componentType":5126,"count":2,"min":[0.0],"max":[100.0],"type":"SCALAR"},{"bufferView":1,"byteOffset":1024,"componentType":5126,"count":2,"type":"VEC4"},{"bufferView":0,"byteOffset":264,"componentType":5126,"count":2,"min":[0.0],"max":[100.0],"type":"SCALAR"},{"bufferView":1,"byteOffset":1056,"componentType":5126,"count":2,"type":"VEC4"},{"bufferView":0,"byteOffset":272,"componentType":5126,"count":2,"min":[0.0],"max":[100.0],"type":"SCALAR"},{"bufferView":1,"byteOffset":1088,"componentType":5126,"count":2,"type":"VEC4"},{"bufferView":2,"componentType":5126,"count":248,"min":[-29.5,-3.398360013961792,-38.4432487487793],"max":[29.5,14.59276008605957,31.44281005859375],"type":"VEC3","name":"part000_vertices#0_POSITION"},{"bufferView":2,"byteOffset":12,"componentType":5120,"count":248,"type":"VEC4","name":"part000_vertices#0_TANGENT"},{"bufferView":2,"byteOffset":16,"componentType":5120,"count":248,"type":"VEC4","name":"part000_vertices#0_NORMAL"},{"bufferView":2,"byteOffset":20,"componentType":5122,"count":248,"type":"VEC2","name":"part000_vertices#0_TEXCOORD_0"},{"bufferView":2,"byteOffset":24,"componentType":5122,"count":248,"type":"VEC2","name":"part000_vertices#0_TEXCOORD_1"},{"bufferView":2,"byteOffset":28,"componentType":5123,"count":248,"type":"VEC4","name":"part000_vertices#0_COLOR_0"},{"bufferView":3,"componentType":5123,"count":492,"type":"SCALAR","name":"part000_indices#0"}],"animations":[{"name":"custom_anim_FUEL_TANK_LEFT_MAIN_CAPACITY_00","channels":[{"sampler":0,"target":{"node":28,"path":"rotation"}},{"sampler":1,"target":{"node":30,"path":"rotation"}},{"sampler":2,"target":{"node":42,"path":"rotation"}},{"sampler":3,"target":{"node":44,"path":"rotation"}},{"sampler":4,"target":{"node":58,"path":"rotation"}},{"sampler":5,"target":{"node":74,"path":"rotation"}},{"sampler":6,"target":{"node":86,"path":"rotation"}}],"samplers":[{"input":0,"output":1,"interpolation":"LINEAR"},{"input":2,"output":3,"interpolation":"LINEAR"},{"input":10,"output":11,"interpolation":"LINEAR"},{"input":12,"output":13,"interpolation":"LINEAR"},{"input":18,"output":19,"interpolation":"LINEAR"},{"input":34,"output":35,"interpolation":"LINEAR"},{"input":46,"output":47,"interpolation":"LINEAR"}]},{"name":"custom_anim_FUEL_TANK_LEFT_MAIN_CAPACITY_01","channels":[{"sampler":0,"target":{"node":32,"path":"rotation"}},{"sampler":1,"target":{"node":34,"path":"rotation"}},{"sampler":2,"target":{"node":50,"path":"rotation"}},{"sampler":3,"target":{"node":52,"path":"rotation"}},{"sampler":4,"target":{"node":62,"path":"rotation"}},{"sampler":5,"target":{"node":70,"path":"rotation"}},{"sampler":6,"target":{"node":82,"path":"rotation"}}],"samplers":[{"input":4,"output":5,"interpolation":"LINEAR"},{"input":6,"output":7,"interpolation":"LINEAR"},{"input":14,"output":15,"interpolation":"LINEAR"},{"input":16,"output":17,"interpolation":"LINEAR"},{"input":22,"output":23,"interpolation":"LINEAR"},{"input":30,"output":31,"interpolation":"LINEAR"},{"input":42,"output":43,"interpolation":"LINEAR"}]},{"name":"c_gear","channels":[{"sampler":0,"target":{"node":36,"path":"rotation"}}],"samplers":[{"input":8,"output":9,"interpolation":"LINEAR"}]},{"name":"elevator","channels":[{"sampler":0,"target":{"node":60,"path":"rotation"}},{"sampler":1,"target":{"node":64,"path":"rotation"}},{"sampler":2,"target":{"node":66,"path":"rotation"}},{"sampler":3,"target":{"node":68,"path":"rotation"}},{"sampler":4,"target":{"node":72,"path":"rotation"}},{"sampler":5,"target":{"node":76,"path":"rotation"}},{"sampler":6,"target":{"node":78,"path":"rotation"}},{"sampler":7,"target":{"node":80,"path":"rotation"}},{"sampler":8,"target":{"node":84,"path":"rotation"}},{"sampler":9,"target":{"node":88,"path":"rotation"}},{"sampler":10,"target":{"node":90,"path":"rotation"}},{"sampler":11,"target":{"node":92,"path":"rotation"}}],"samplers":[{"input":20,"output":21,"interpolation":"LINEAR"},{"input":24,"output":25,"interpolation":"LINEAR"},{"input":26,"output":27,"interpolation":"LINEAR"},{"input":28,"output":29,"interpolation":"LINEAR"},{"input":32,"output":33,"interpolation":"LINEAR"},{"input":36,"output":37,"interpolation":"LINEAR"},{"input":38,"output":39,"interpolation":"LINEAR"},{"input":40,"output":41,"interpolation":"LINEAR"},{"input":44,"output":45,"interpolation":"LINEAR"},{"input":48,"output":49,"interpolation":"LINEAR"},{"input":50,"output":51,"interpolation":"LINEAR"},{"input":52,"output":53,"interpolation":"LINEAR"}]}],"asset":{"generator":"ModelConverterX","version":"2.0","extensions":{"ASOBO_asset_optimized":{"BoundingBoxMax":[29.5,14.59276008605957,31.44281005859375],"BoundingBoxMin":[-29.5,-3.398360013961792,-38.4432487487793],"MajorVersion":4,"MinorVersion":4,"UseCheckerboardMaterialForMissingTextures":true,"UseOnlyFilenameForImageURI":true}}},"bufferViews":[{"buffer":0,"byteLength":280,"byteStride":4},{"buffer":0,"byteLength":1120,"byteStride":16,"byteOffset":280},{"buffer":0,"byteLength":8928,"byteStride":36,"byteOffset":1400,"target":34962,"name":"BufferViewVertexND"},{"buffer":0,"byteLength":984,"byteOffset":10328,"target":34963,"name":"BufferViewIndex"}],"extensionsRequired":["MSFT_texture_dds"],"materials":[{"name":"material00","pbrMetallicRoughness":{"metallicFactor":0.0,"baseColorTexture":{"index":0}}}],"meshes":[{"primitives":[{"attributes":{"COLOR_0":59,"NORMAL":56,"POSITION":54,"TANGENT":55,"TEXCOORD_0":57,"TEXCOORD_1":58},"indices":60,"material":0,"mode":4,"extras":{"ASOBO_primitive":{"PrimitiveCount":164,"VertexType":"VTX","VertexVersion":2}}}],"name":"part000"}],"nodes":[{"name":"node_0","children":[1,2,3,4,5,6,7,8,9,10,11,12,13,14,15,16,17,18,19,20,21,22,23,24,25]},{"mesh":0,"name":"node_31"},{"translation":[5.420000076293945,-4.21999979019165,-0.8999999761581414],"rotation":[-6.123031769111886e-17,0.0,1.0,0.0],"scale":[1.0,1.0,1.0],"name":"l_tire2"},{"translation":[-5.420000076293945,-4.21999979019165,-0.8999999761581428],"rotation":[-6.123031769111886e-17,0.0,1.0,0.0],"scale":[1.0,1.0,1.0],"name":"r_tire2"},{"translation":[-1.919999957084655,-4.21999979019165,-3.900000095367432],"rotation":[-6.123031769111886e-17,0.0,1.0,0.0],"scale":[1.0,1.0,1.0],"name":"r_tire1"},{"translation":[1.919999957084656,-4.21999979019165,-3.900000095367431],"rotation":[-6.123031769111886e-17,0.0,1.0,0.0],"scale":[1.0,1.0,1.0],"name":"l_tire1"},{"translation":[-2.926809138920457e-15,-4.150000095367432,23.899999618530275],"rotation":[-6.123031769111886e-17,0.0,1.0,0.0],"scale":[1.0,1.0,1.0],"name":"c_tire1"},{"translation":[-11.880000114440918,-1.9800000190734864,0.6999999880790696],"rotation":[-6.123031769111886e-17,0.0,1.0,0.0],"scale":[1.0,1.0,1.0],"name":"contrail3"},{"translation":[11.880000114440918,-1.9800000190734864,0.6999999880790725],"rotation":[-6.123031769111886e-17,0.0,1.0,0.0],"scale":[1.0,1.0,1.0],"name":"contrail2"},{"translation":[-21.049999237060548,-1.350000023841858,-8.699999809265139],"rotation":[-6.123031769111886e-17,0.0,1.0,0.0],"scale":[1.0,1.0,1.0],"name":"contrail4"},{"translation":[21.049999237060548,-1.350000023841858,-8.699999809265135],"rotation":[-6.123031769111886e-17,0.0,1.0,0.0],"scale":[1.0,1.0,1.0],"name":"contrail1"},{"translation":[-5.938610076904298,-0.1278430074453354,8.883133888244629],"rotation":[-0.06162833820646025,-0.7044160332714682,0.7044160332714682,-0.06162833820646025],"scale":[1.0,1.0,1.0],"name":"attachpt_FAIB_7472_Landing_Dyn_4"},{"translation":[-5.41343116760254,-0.17235900461673737,9.414164543151856],"rotation":[-4.329637285359677e-17,-0.7071067811865475,0.7071067811865475,-4.329637285359677e-17],"scale":[1.0,1.0,1.0],"name":"attachpt_FAIB_7472_Landing_Dyn_3"},{"translation":[5.413426876068114,-0.1723569929599762,9.414164543151856],"rotation":[-4.329637285359677e-17,-0.7071067811865475,0.7071067811865475,-4.329637285359677e-17],"scale":[1.0,1.0,1.0],"name":"attachpt_FAIB_7472_Landing_Dyn_2"},{"translation":[5.938611030578612,-0.1278430074453354,8.883133888244629],"rotation":[0.06162833820646017,-0.7044160332714682,0.7044160332714682,0.06162833820646017],"scale":[1.0,1.0,1.0],"name":"attachpt_FAIB_7472_Landing_Dyn_1"},{"translation":[5.937850952148437,-0.12784400582313538,8.874451637268067],"rotation":[-4.329637285359677e-17,-0.7071067811865475,0.7071067811865475,-4.329637285359677e-17],"scale":[1.0,1.0,1.0],"name":"attachpt_landing_1"},{"translation":[-5.341300010681149,3.7165369987487795,-31.561309814453126],"rotation":[0.6859759248285687,-0.24760450919577713,-0.6285809755847466,-0.2702128352821353],"scale":[1.0,1.0,1.0],"name":"attachpt_FAIB_7472_R_Inner_Logo"},{"translation":[5.341342926025394,3.716538906097412,-31.561309814453126],"rotation":[0.6859759248285687,0.24760450919577718,0.6285809755847467,-0.2702128352821353],"scale":[1.0,1.0,1.0],"name":"attachpt_FAIB_7472_L_Inner_Logo"},{"translation":[-6.06547535456928e-16,-2.334768056869507,4.953000068664551],"rotation":[-0.7071067811865475,-4.329637285359677e-17,-4.329637285359677e-17,0.7071067811865475],"scale":[1.0,1.0,1.0],"name":"attachpt_FAIB_7472_beaconb"},{"translation":[-2.4203119902201425e-15,5.751200199127197,19.763999938964845],"rotation":[-0.7071067811865475,-4.329637285359677e-17,-4.329637285359677e-17,0.7071067811865475],"scale":[1.0,1.0,1.0],"name":"attachpt_FAIB_7472_beacon"},{"translation":[4.466149332033561e-15,3.154680013656616,-36.4700813293457],"rotation":[-0.7071067811865475,-4.329637285359677e-17,-4.329637285359677e-17,0.7071067811865475],"scale":[1.0,1.0,1.0],"name":"attachpt_FAIB_7472_navwhi"},{"translation":[3.220000028610228,1.0299999713897706,11.57137966156006],"rotation":[-0.2777080281003805,0.6502908973133473,0.6502908973133473,0.2777080281003805],"scale":[1.0,1.0,1.0],"name":"attachpt_FAIB_7472_L_Wing"},{"translation":[-3.220000028610231,1.0299999713897706,11.57137966156006],"rotation":[0.27770802810038039,0.6502908973133473,0.6502908973133473,-0.27770802810038039],"scale":[1.0,1.0,1.0],"name":"attachpt_FAIB_7472_R_Wing"},{"translation":[0.0000019999999993972256,2.8850560188293459,-36.31158828735352],"rotation":[0.007588532958422829,0.7128515873196013,-0.701241673394714,-0.006718786595021298],"scale":[1.0,1.0,1.0],"name":"attachpt_FAIB_7472_strobe"},{"translation":[4.48695760566115e-15,3.700000047683716,-36.63999938964844],"rotation":[-5.164112084036296e-17,-0.5372997448503404,0.8433913588505394,-3.289903407254345e-17],"scale":[1.0,1.0,1.0],"name":"APU"},{"translation":[0.0,0.0,0.0],"rotation":[-4.329637285359677e-17,0.7071067811865475,0.7071067811865475,4.329637285359677e-17],"scale":[1.0,1.0,1.0],"name":"node_55","children":[26,35,41,49,57,61,65,67,69,73,77,79,81,85,89,91]},{"name":"node_60","children":[27,31]},{"translation":[-11.173720359802246,2.333656072616577,0.894769012928009],"rotation":[0.005955132642026581,0.01614103722295108,0.9388955697794825,-0.3437718916631418],"scale":[1.0,1.0,1.0],"name":"node_61","children":[28]},{"name":"custom_anim_FUEL_TANK_LEFT_MAIN_CAPACITY_00_AN_61","children":[29]},{"translation":[12.686025323426185,-0.000003000000680179672,-0.000006000000230595693],"rotation":[0.004771576471060572,-0.0012650867675319908,-0.010596724750231086,0.9999316681899408],"scale":[1.0,1.0,1.0],"name":"node_62","children":[30]},{"name":"custom_anim_FUEL_TANK_LEFT_MAIN_CAPACITY_00_AN_62"},{"translation":[11.173740386962893,2.3336760997772219,0.8947679996490479],"rotation":[-0.016141038594387068,-0.005955131022254273,-0.34377138372069956,0.9388957556703893],"scale":[1.0,1.0,1.0],"name":"node_63","children":[32]},{"name":"custom_anim_FUEL_TANK_LEFT_MAIN_CAPACITY_01_AN_63","children":[33]},{"translation":[12.686026265864728,0.0000019999990690656429,0.0],"rotation":[-0.004771576483709827,-0.0012650867580052668,0.01059697474312936,0.9999316655391624],"scale":[1.0,1.0,1.0],"name":"node_64","children":[34]},{"name":"custom_anim_FUEL_TANK_LEFT_MAIN_CAPACITY_01_AN_64"},{"translation":[0.0,24.255300521850584,-1.3523390293121338],"rotation":[0.866025457881471,0.0,0.0,0.4999999063011796],"scale":[1.0,1.0,1.0],"name":"node_65","children":[36]},{"name":"c_gear_AN_65","children":[37,39]},{"translation":[-0.13162299990653993,0.15134194781533975,-0.7258237264159504],"rotation":[0.0,0.7489557777595659,0.6626199838221397,0.0],"scale":[1.0,1.0,1.0],"name":"node_72","children":[38]},{"translation":[0.0,0.0,0.0],"rotation":[-0.7071067811865475,0.0,0.0,0.7071067811865475],"scale":[1.0,1.0,1.0],"name":"attachpt_FAIB_7472_Taxi_Dyn_1"},{"translation":[0.13162000477313996,0.15134194781533975,-0.7258237264159504],"rotation":[0.0,0.7489557777595659,0.6626199838221397,0.0],"scale":[1.0,1.0,1.0],"name":"node_74","children":[40]},{"translation":[0.0,0.0,0.0],"rotation":[-0.7071067811865475,0.0,0.0,0.7071067811865475],"scale":[1.0,1.0,1.0],"name":"attachpt_FAIB_7472_Taxi_Dyn_2"},{"translation":[-11.173720359802246,2.33365797996521,0.8947679996490479],"rotation":[0.005955132642026581,0.01614103722295108,0.9388955697794825,-0.3437718916631418],"scale":[1.0,1.0,1.0],"name":"node_76","children":[42]},{"name":"custom_anim_FUEL_TANK_LEFT_MAIN_CAPACITY_00_AN_76","children":[43]},{"translation":[12.686025323426185,-0.000003000000680179672,-0.000006000000230595693],"rotation":[0.004771576471060572,-0.0012650867675319908,-0.010596724750231086,0.9999316681899408],"scale":[1.0,1.0,1.0],"name":"node_77","children":[44]},{"name":"custom_anim_FUEL_TANK_LEFT_MAIN_CAPACITY_00_AN_77","children":[45,47]},{"translation":[10.697922207370987,-0.4353581175544599,-0.14734696600913764],"rotation":[0.6473193098253592,-0.2437523679312671,-0.22890793419245576,0.6849552440901576],"scale":[1.0,1.0,1.0],"name":"node_78","children":[46]},{"translation":[0.0,0.0,0.0],"rotation":[-0.7071067811865475,0.0,0.0,0.7071067811865475],"scale":[1.0,1.0,1.0],"name":"attachpt_FAIB_7472_L_strobe"},{"translation":[10.82067251675828,-0.35718311577497166,-0.14909896959403697],"rotation":[0.6473193098253592,-0.2437523679312671,-0.22890793419245576,0.6849552440901576],"scale":[1.0,1.0,1.0],"name":"node_80","children":[48]},{"translation":[0.0,0.0,0.0],"rotation":[-0.7071067811865475,0.0,0.0,0.7071067811865475],"scale":[1.0,1.0,1.0],"name":"attachpt_FAIB_7472_navred"},{"translation":[11.173740386962893,2.3336749076843268,0.894769012928009],"rotation":[-0.016141035170020226,-0.00595513144388847,-0.3437715653683723,0.9388956891948527],"scale":[1.0,1.0,1.0],"name":"node_82","children":[50]},{"name":"custom_anim_FUEL_TANK_LEFT_MAIN_CAPACITY_01_AN_82","children":[51]},{"translation":[12.686046293035428,0.0,0.0],"rotation":[-0.004771576471060572,-0.0012650867675319908,0.010596724750231086,0.9999316681899408],"scale":[1.0,1.0,1.0],"name":"node_83","children":[52]},{"name":"custom_anim_FUEL_TANK_LEFT_MAIN_CAPACITY_01_AN_83","children":[53,55]},{"translation":[10.820653293454138,0.3571341207423729,-0.14910695661441976],"rotation":[-0.2437521564404762,0.647319475416323,0.6849552488206336,-0.22890793261155904],"scale":[1.0,1.0,1.0],"name":"node_84","children":[54]},{"translation":[0.0,0.0,0.0],"rotation":[-0.7071067811865475,0.0,0.0,0.7071067811865475],"scale":[1.0,1.0,1.0],"name":"attachpt_FAIB_7472_navgre"},{"translation":[10.697902974947784,0.435318122825903,-0.14735496793067785],"rotation":[-0.2437521564404762,0.647319475416323,0.6849552488206336,-0.22890793261155904],"scale":[1.0,1.0,1.0],"name":"node_86","children":[56]},{"translation":[0.0,0.0,0.0],"rotation":[-0.7071067811865475,0.0,0.0,0.7071067811865475],"scale":[1.0,1.0,1.0],"name":"attachpt_FAIB_7472_R_strobe"},{"translation":[-11.173720359802246,2.33365797996521,0.8947679996490479],"rotation":[0.005955136099709603,0.016141036080142693,0.9388956362546288,-0.34377170988179797],"scale":[1.0,1.0,1.0],"name":"node_264","children":[58]},{"name":"custom_anim_FUEL_TANK_LEFT_MAIN_CAPACITY_00_AN_264","children":[59]},{"translation":[4.202172282514467,4.963171001305564,-0.6918709895336566],"rotation":[-0.3010672419396723,0.688120240952034,0.5952885228916495,-0.285448288773106],"scale":[1.0,1.0,1.0],"name":"node_277","children":[60]},{"name":"elevator_AN_277"},{"translation":[11.173740386962893,2.3336749076843268,0.894769012928009],"rotation":[-0.016141035170020226,-0.00595513144388847,-0.3437715653683723,0.9388956891948527],"scale":[1.0,1.0,1.0],"name":"node_280","children":[62]},{"name":"custom_anim_FUEL_TANK_LEFT_MAIN_CAPACITY_01_AN_280","children":[63]},{"translation":[4.202176296205207,-4.9631881674465438,-0.6918720028126209],"rotation":[0.6881202217164719,-0.30106758818741966,-0.28544863490049557,0.5952881070971138],"scale":[1.0,1.0,1.0],"name":"node_293","children":[64]},{"name":"elevator_AN_293"},{"translation":[-11.177599906921389,-4.189469814300537,0.42704200744628909],"rotation":[0.5346662384417621,0.527379404277254,0.4636918868764738,0.4700983803487469],"scale":[1.0,1.0,1.0],"name":"node_316","children":[66]},{"name":"elevator_AN_316"},{"translation":[11.177610397338868,-4.1894659996032719,0.42704200744628909],"rotation":[0.5346657714608044,-0.5273798777215253,-0.4636922981795315,0.47009832332860737],"scale":[1.0,1.0,1.0],"name":"node_317","children":[68]},{"name":"elevator_AN_317"},{"translation":[11.173740386962893,2.3336749076843268,0.894769012928009],"rotation":[-0.016141035170020226,-0.00595513144388847,-0.3437715653683723,0.9388956891948527],"scale":[1.0,1.0,1.0],"name":"node_391","children":[70]},{"name":"custom_anim_FUEL_TANK_LEFT_MAIN_CAPACITY_01_AN_391","children":[71]},{"translation":[4.202175342530412,-4.9631881674465438,-0.6918720028126209],"rotation":[0.6881200425504465,-0.3010676695481607,-0.28544870922284368,0.5952883016310252],"scale":[1.0,1.0,1.0],"name":"node_406","children":[72]},{"name":"elevator_AN_406"},{"translation":[-11.173720359802246,2.33365797996521,0.8947679996490479],"rotation":[0.005955136099709603,0.016141036080142693,0.9388956362546288,-0.34377170988179797],"scale":[1.0,1.0,1.0],"name":"node_415","children":[74]},{"name":"custom_anim_FUEL_TANK_LEFT_MAIN_CAPACITY_00_AN_415","children":[75]},{"translation":[4.202172282514467,4.963171001305564,-0.6918709895336566],"rotation":[-0.3010672419396723,0.688120240952034,0.5952885228916495,-0.285448288773106],"scale":[1.0,1.0,1.0],"name":"node_430","children":[76]},{"name":"elevator_AN_430"},{"translation":[-11.177599906921389,-4.189469814300537,0.42704200744628909],"rotation":[0.5346662380348258,0.5273794046786442,0.463691880923605,0.4700988478781949],"scale":[1.0,1.0,1.0],"name":"node_461","children":[78]},{"name":"elevator_AN_461"},{"translation":[11.177610397338868,-4.1894659996032719,0.42704200744628909],"rotation":[0.5346660048565429,-0.5273796410899818,-0.4636920894544758,0.4700985857256218],"scale":[1.0,1.0,1.0],"name":"node_462","children":[80]},{"name":"elevator_AN_462"},{"translation":[11.173740386962893,2.3336749076843268,0.894769012928009],"rotation":[-0.016141035170020226,-0.00595513144388847,-0.3437715653683723,0.9388956891948527],"scale":[1.0,1.0,1.0],"name":"node_548","children":[82]},{"name":"custom_anim_FUEL_TANK_LEFT_MAIN_CAPACITY_01_AN_548","children":[83]},{"translation":[4.202175342530412,-4.963189121121042,-0.6918720028126209],"rotation":[0.6881201335830455,-0.30106747098112726,-0.28544868101178547,0.5952882228793095],"scale":[1.0,1.0,1.0],"name":"node_563","children":[84]},{"name":"elevator_AN_563"},{"translation":[-11.173720359802246,2.33365797996521,0.8947679996490479],"rotation":[0.005955136099709603,0.016141036080142693,0.9388956362546288,-0.34377170988179797],"scale":[1.0,1.0,1.0],"name":"node_572","children":[86]},{"name":"custom_anim_FUEL_TANK_LEFT_MAIN_CAPACITY_00_AN_572","children":[87]},{"translation":[4.2021732361885679,4.9631729086545619,-0.6918709895336566],"rotation":[-0.3010672419396723,0.688120240952034,0.5952885228916495,-0.285448288773106],"scale":[1.0,1.0,1.0],"name":"node_587","children":[88]},{"name":"elevator_AN_587"},{"translation":[-11.177599906921389,-4.189469814300537,0.42704200744628909],"rotation":[0.5346662384417621,0.527379404277254,0.4636918868764738,0.4700983803487469],"scale":[1.0,1.0,1.0],"name":"node_608","children":[90]},{"name":"elevator_AN_608"},{"translation":[11.177610397338868,-4.1894659996032719,0.42704200744628909],"rotation":[0.5346657710535184,-0.5273798781232612,-0.4636922922215479,0.47009879129417905],"scale":[1.0,1.0,1.0],"name":"node_609","children":[92]},{"name":"elevator_AN_609"}],"scene":0,"scenes":[{"nodes":[0]}],"textures":[{"extensions":{"MSFT_texture_dds":{"source":0}}}],"extensionsUsed":["MSFT_texture_dds","ASOBO_asset_optimized"],"buffers":[{"byteLength":11312,"uri":"FAIB_B7472_RR_LOD5.bin"}],"images":[{"uri":"FAIB_B7472_RR_T.PNG.DDS","extras":"ASOBO_image_converted_meta"}]}
