{"accessors":[{"bufferView":0,"componentType":5126,"count":101,"min":[0.0],"max":[3.33333325],"type":"SCALAR","name":"accessorAnimationInput"},{"bufferView":1,"componentType":5126,"count":101,"type":"VEC3","name":"accessorAnimationPositions"},{"bufferView":0,"byteOffset":404,"componentType":5126,"count":101,"min":[0.0],"max":[3.33333325],"type":"SCALAR","name":"accessorAnimationInput"},{"bufferView":2,"componentType":5126,"count":101,"type":"VEC4","name":"accessorAnimationRotations"},{"bufferView":0,"byteOffset":808,"componentType":5126,"count":101,"min":[0.0],"max":[3.33333325],"type":"SCALAR","name":"accessorAnimationInput"},{"bufferView":1,"byteOffset":1212,"componentType":5126,"count":101,"type":"VEC3","name":"accessorAnimationPositions"},{"bufferView":0,"byteOffset":1212,"componentType":5126,"count":101,"min":[0.0],"max":[3.33333325],"type":"SCALAR","name":"accessorAnimationInput"},{"bufferView":2,"byteOffset":1616,"componentType":5126,"count":101,"type":"VEC4","name":"accessorAnimationRotations"},{"bufferView":0,"byteOffset":1616,"componentType":5126,"count":101,"min":[0.0],"max":[3.33333325],"type":"SCALAR","name":"accessorAnimationInput"},{"bufferView":1,"byteOffset":2424,"componentType":5126,"count":101,"type":"VEC3","name":"accessorAnimationScales"},{"bufferView":0,"byteOffset":2020,"componentType":5126,"count":101,"min":[0.0],"max":[3.33333325],"type":"SCALAR","name":"accessorAnimationInput"},{"bufferView":1,"byteOffset":3636,"componentType":5126,"count":101,"type":"VEC3","name":"accessorAnimationPositions"},{"bufferView":0,"byteOffset":2424,"componentType":5126,"count":101,"min":[0.0],"max":[3.33333325],"type":"SCALAR","name":"accessorAnimationInput"},{"bufferView":2,"byteOffset":3232,"componentType":5126,"count":101,"type":"VEC4","name":"accessorAnimationRotations"},{"bufferView":0,"byteOffset":2828,"componentType":5126,"count":101,"min":[0.0],"max":[3.33333325],"type":"SCALAR","name":"accessorAnimationInput"},{"bufferView":1,"byteOffset":4848,"componentType":5126,"count":101,"type":"VEC3","name":"accessorAnimationScales"},{"bufferView":0,"byteOffset":3232,"componentType":5126,"count":101,"min":[0.0],"max":[3.33333325],"type":"SCALAR","name":"accessorAnimationInput"},{"bufferView":1,"byteOffset":6060,"componentType":5126,"count":101,"type":"VEC3","name":"accessorAnimationPositions"},{"bufferView":0,"byteOffset":3636,"componentType":5126,"count":101,"min":[0.0],"max":[3.33333325],"type":"SCALAR","name":"accessorAnimationInput"},{"bufferView":2,"byteOffset":4848,"componentType":5126,"count":101,"type":"VEC4","name":"accessorAnimationRotations"},{"bufferView":0,"byteOffset":4040,"componentType":5126,"count":101,"min":[0.0],"max":[3.33333325],"type":"SCALAR","name":"accessorAnimationInput"},{"bufferView":1,"byteOffset":7272,"componentType":5126,"count":101,"type":"VEC3","name":"accessorAnimationScales"},{"bufferView":3,"componentType":5126,"count":24,"min":[-1.1557992696762086,-1.8649060726165772,-0.9913120269775391],"max":[0.0,0.0,1.6852645874023438],"type":"VEC3","name":"x0_cargo_door_forward_fake_vertices#0_POSITION"},{"bufferView":3,"byteOffset":12,"componentType":5120,"count":24,"type":"VEC4","name":"x0_cargo_door_forward_fake_vertices#0_TANGENT"},{"bufferView":3,"byteOffset":16,"componentType":5120,"count":24,"type":"VEC4","name":"x0_cargo_door_forward_fake_vertices#0_NORMAL"},{"bufferView":3,"byteOffset":20,"componentType":5122,"count":24,"type":"VEC2","name":"x0_cargo_door_forward_fake_vertices#0_TEXCOORD_0"},{"bufferView":3,"byteOffset":24,"componentType":5122,"count":24,"type":"VEC2","name":"x0_cargo_door_forward_fake_vertices#0_TEXCOORD_1"},{"bufferView":3,"byteOffset":28,"componentType":5123,"count":24,"type":"VEC4","name":"x0_cargo_door_forward_fake_vertices#0_COLOR_0"},{"bufferView":4,"componentType":5123,"count":78,"type":"SCALAR","name":"x0_cargo_door_forward_fake_indices#0"},{"bufferView":3,"byteOffset":864,"componentType":5126,"count":88,"min":[-1.0865652561187745,-1.864928960800171,-0.9945869445800781],"max":[0.12945795059204102,0.00201570987701416,1.6852645874023438],"type":"VEC3","name":"x0_cargo_door_forward_vertices#0_POSITION"},{"bufferView":3,"byteOffset":876,"componentType":5120,"count":88,"type":"VEC4","name":"x0_cargo_door_forward_vertices#0_TANGENT"},{"bufferView":3,"byteOffset":880,"componentType":5120,"count":88,"type":"VEC4","name":"x0_cargo_door_forward_vertices#0_NORMAL"},{"bufferView":3,"byteOffset":884,"componentType":5122,"count":88,"type":"VEC2","name":"x0_cargo_door_forward_vertices#0_TEXCOORD_0"},{"bufferView":3,"byteOffset":888,"componentType":5122,"count":88,"type":"VEC2","name":"x0_cargo_door_forward_vertices#0_TEXCOORD_1"},{"bufferView":3,"byteOffset":892,"componentType":5123,"count":88,"type":"VEC4","name":"x0_cargo_door_forward_vertices#0_COLOR_0"},{"bufferView":4,"byteOffset":156,"componentType":5123,"count":180,"type":"SCALAR","name":"x0_cargo_door_forward_indices#0"},{"bufferView":3,"byteOffset":4032,"componentType":5126,"count":33,"min":[-1.3883330821990967,-2.167478084564209,-1.084538459777832],"max":[-0.03336787223815918,-0.2952084541320801,1.608942985534668],"type":"VEC3","name":"x0_cargo_door_aft_fake_vertices#0_POSITION"},{"bufferView":3,"byteOffset":4044,"componentType":5120,"count":33,"type":"VEC4","name":"x0_cargo_door_aft_fake_vertices#0_TANGENT"},{"bufferView":3,"byteOffset":4048,"componentType":5120,"count":33,"type":"VEC4","name":"x0_cargo_door_aft_fake_vertices#0_NORMAL"},{"bufferView":3,"byteOffset":4052,"componentType":5122,"count":33,"type":"VEC2","name":"x0_cargo_door_aft_fake_vertices#0_TEXCOORD_0"},{"bufferView":3,"byteOffset":4056,"componentType":5122,"count":33,"type":"VEC2","name":"x0_cargo_door_aft_fake_vertices#0_TEXCOORD_1"},{"bufferView":3,"byteOffset":4060,"componentType":5123,"count":33,"type":"VEC4","name":"x0_cargo_door_aft_fake_vertices#0_COLOR_0"},{"bufferView":4,"byteOffset":516,"componentType":5123,"count":123,"type":"SCALAR","name":"x0_cargo_door_aft_fake_indices#0"},{"bufferView":3,"byteOffset":5220,"componentType":5126,"count":70,"min":[-1.2339239120483399,-1.8682459592819214,-0.0036220550537109377],"max":[0.13033699989318849,0.003086686134338379,2.6955738067626955],"type":"VEC3","name":"x0_cargo_door_aft_vertices#0_POSITION"},{"bufferView":3,"byteOffset":5232,"componentType":5120,"count":70,"type":"VEC4","name":"x0_cargo_door_aft_vertices#0_TANGENT"},{"bufferView":3,"byteOffset":5236,"componentType":5120,"count":70,"type":"VEC4","name":"x0_cargo_door_aft_vertices#0_NORMAL"},{"bufferView":3,"byteOffset":5240,"componentType":5122,"count":70,"type":"VEC2","name":"x0_cargo_door_aft_vertices#0_TEXCOORD_0"},{"bufferView":3,"byteOffset":5244,"componentType":5122,"count":70,"type":"VEC2","name":"x0_cargo_door_aft_vertices#0_TEXCOORD_1"},{"bufferView":3,"byteOffset":5248,"componentType":5123,"count":70,"type":"VEC4","name":"x0_cargo_door_aft_vertices#0_COLOR_0"},{"bufferView":4,"byteOffset":762,"componentType":5123,"count":174,"type":"SCALAR","name":"x0_cargo_door_aft_indices#0"}],"animations":[{"name":"Cargo_Door_forward","channels":[{"sampler":0,"target":{"node":26,"path":"translation","extensions":{"ASOBO_animation_retargeting":{"id":"x0_cargo_door_forward"}}}},{"sampler":1,"target":{"node":26,"path":"rotation","extensions":{"ASOBO_animation_retargeting":{"id":"x0_cargo_door_forward"}}}},{"sampler":2,"target":{"node":25,"path":"translation","extensions":{"ASOBO_animation_retargeting":{"id":"x0_cargo_door_forward_fake"}}}},{"sampler":3,"target":{"node":25,"path":"rotation","extensions":{"ASOBO_animation_retargeting":{"id":"x0_cargo_door_forward_fake"}}}},{"sampler":4,"target":{"node":25,"path":"scale","extensions":{"ASOBO_animation_retargeting":{"id":"x0_cargo_door_forward_fake"}}}}],"samplers":[{"input":0,"output":1,"interpolation":"LINEAR"},{"input":2,"output":3,"interpolation":"LINEAR"},{"input":4,"output":5,"interpolation":"LINEAR"},{"input":6,"output":7,"interpolation":"LINEAR"},{"input":8,"output":9,"interpolation":"LINEAR"}]},{"name":"Cargo_Door_aft","channels":[{"sampler":0,"target":{"node":27,"path":"translation","extensions":{"ASOBO_animation_retargeting":{"id":"x0_cargo_door_aft_fake"}}}},{"sampler":1,"target":{"node":27,"path":"rotation","extensions":{"ASOBO_animation_retargeting":{"id":"x0_cargo_door_aft_fake"}}}},{"sampler":2,"target":{"node":27,"path":"scale","extensions":{"ASOBO_animation_retargeting":{"id":"x0_cargo_door_aft_fake"}}}},{"sampler":3,"target":{"node":28,"path":"translation","extensions":{"ASOBO_animation_retargeting":{"id":"x0_cargo_door_aft"}}}},{"sampler":4,"target":{"node":28,"path":"rotation","extensions":{"ASOBO_animation_retargeting":{"id":"x0_cargo_door_aft"}}}},{"sampler":5,"target":{"node":28,"path":"scale","extensions":{"ASOBO_animation_retargeting":{"id":"x0_cargo_door_aft"}}}}],"samplers":[{"input":10,"output":11,"interpolation":"LINEAR"},{"input":12,"output":13,"interpolation":"LINEAR"},{"input":14,"output":15,"interpolation":"LINEAR"},{"input":16,"output":17,"interpolation":"LINEAR"},{"input":18,"output":19,"interpolation":"LINEAR"},{"input":20,"output":21,"interpolation":"LINEAR"}]}],"asset":{"generator":"babylon.js glTF exporter for 3dsmax 2021 v1.0.8378.27976","version":"2.0","extensions":{"ASOBO_asset_optimized":{"BoundingBoxMax":[0.13033699989318849,0.003086686134338379,2.6955738067626955],"BoundingBoxMin":[-1.3883330821990967,-2.167478084564209,-1.084538459777832],"MajorVersion":4,"MinorVersion":4,"UseCheckerboardMaterialForMissingTextures":true,"UseOnlyFilenameForImageURI":true},"ASOBO_normal_map_convention":{"tangent_space_convention":"DirectX"}}},"bufferViews":[{"buffer":0,"byteLength":4444,"name":"bufferViewAnimationFloatScalar"},{"buffer":0,"byteLength":8484,"byteOffset":4444,"name":"bufferViewAnimationFloatVec3"},{"buffer":0,"byteLength":6464,"byteOffset":12928,"name":"bufferViewAnimationFloatVec4"},{"buffer":0,"byteLength":7740,"byteStride":36,"byteOffset":19392,"target":34962,"name":"BufferViewVertexND"},{"buffer":0,"byteLength":1110,"byteOffset":27132,"target":34963,"name":"BufferViewIndex"}],"extensionsRequired":["MSFT_texture_dds"],"materials":[{"name":"T2","pbrMetallicRoughness":{"metallicFactor":0.0,"baseColorTexture":{"index":0}}},{"name":"Fuselage","occlusionTexture":{"index":2},"emissiveTexture":{"index":3},"emissiveFactor":[0.10000000149011612,0.10000000149011612,0.10000000149011612],"pbrMetallicRoughness":{"baseColorTexture":{"index":1},"metallicRoughnessTexture":{"index":2}}}],"meshes":[{"primitives":[{"attributes":{"COLOR_0":27,"NORMAL":24,"POSITION":22,"TANGENT":23,"TEXCOORD_0":25,"TEXCOORD_1":26},"indices":28,"material":0,"mode":4,"extras":{"ASOBO_primitive":{"PrimitiveCount":26,"VertexType":"VTX","VertexVersion":2}}}],"name":"x0_cargo_door_forward_fake"},{"primitives":[{"attributes":{"COLOR_0":34,"NORMAL":31,"POSITION":29,"TANGENT":30,"TEXCOORD_0":32,"TEXCOORD_1":33},"indices":35,"material":1,"mode":4,"extras":{"ASOBO_primitive":{"PrimitiveCount":60,"VertexType":"VTX","VertexVersion":2}}}],"name":"x0_cargo_door_forward"},{"primitives":[{"attributes":{"COLOR_0":41,"NORMAL":38,"POSITION":36,"TANGENT":37,"TEXCOORD_0":39,"TEXCOORD_1":40},"indices":42,"material":0,"mode":4,"extras":{"ASOBO_primitive":{"PrimitiveCount":41,"VertexType":"VTX","VertexVersion":2}}}],"name":"x0_cargo_door_aft_fake"},{"primitives":[{"attributes":{"COLOR_0":48,"NORMAL":45,"POSITION":43,"TANGENT":44,"TEXCOORD_0":46,"TEXCOORD_1":47},"indices":49,"material":1,"mode":4,"extras":{"ASOBO_primitive":{"PrimitiveCount":58,"VertexType":"VTX","VertexVersion":2}}}],"name":"x0_cargo_door_aft"}],"nodes":[{"extensions":{"ASOBO_unique_id":{"id":"x0_dummy"}},"name":"dummy","children":[1,2,12,13,23,24,25,26,27,28]},{"translation":[-17.2568913,0.473788142,-0.852469444],"rotation":[0.0,7.54979e-8,0.0,1.0],"extensions":{"ASOBO_unique_id":{"id":"x0_wing_r"}},"name":"wing_r"},{"translation":[-3.54638863,-0.4392653,4.13325739],"rotation":[-0.051814165,-0.976916254,-0.0109765586,-0.20695281],"scale":[1.00000024,1.00000024,1.00000072],"extensions":{"ASOBO_unique_id":{"id":"x0_WING_Bone_Start_Right"}},"name":"WING_Bone_Start_Right","children":[3]},{"translation":[6.190263,1.1920929e-7,0.0],"rotation":[-0.00244267168,-0.0273213368,-0.0167988557,0.9994826],"scale":[0.9999999,0.9999997,0.99999994],"extensions":{"ASOBO_unique_id":{"id":"x0_WING_Bone_1_Right"}},"name":"WING_Bone_1_Right","children":[4,8,10]},{"translation":[11.4957733,-5.96046448e-8,-0.00000238418579],"rotation":[0.00003171944,0.000451928063,-0.002369793,0.9999971],"scale":[1.00000012,0.9999998,0.999999762],"extensions":{"ASOBO_unique_id":{"id":"x0_WING_Bone_2_Right"}},"name":"WING_Bone_2_Right","children":[5,6]},{"translation":[10.0742378,2.38418579e-7,0.00000381469727],"rotation":[1.50344071e-10,-1.73398469e-8,3.72529e-9,1.0],"scale":[1.0,1.00000012,1.0],"extensions":{"ASOBO_unique_id":{"id":"x0_WING_Bone_End_Right"}},"name":"WING_Bone_End_Right"},{"translation":[10.0742607,3.57627869e-7,9.536743e-7],"rotation":[0.04903562,0.8291786,-0.00476504024,0.556808531],"scale":[1.00000012,1.0,1.0],"extensions":{"ASOBO_unique_id":{"id":"x0_Bone-Slat-R3-1"}},"name":"Bone-Slat-R3-1","children":[7]},{"translation":[0.633439064,0.0,0.0],"rotation":[2.66854316e-10,-2.37927589e-9,0.0,1.0],"extensions":{"ASOBO_unique_id":{"id":"x0_Bone-Slat-R3-2"}},"name":"Bone-Slat-R3-2"},{"translation":[0.0,-5.96046448e-8,0.0],"rotation":[0.04020482,0.808970749,-0.0133164432,0.5863213],"scale":[0.99999994,1.0,1.00000012],"extensions":{"ASOBO_unique_id":{"id":"x0_Bone-Slat-R1-1"}},"name":"Bone-Slat-R1-1","children":[9]},{"translation":[2.24180269,2.98023224e-7,0.0],"rotation":[1.20990773e-10,7.789378e-9,-4.656613e-10,1.0],"scale":[0.9999999,1.0,1.0],"extensions":{"ASOBO_unique_id":{"id":"x0_Bone-Slat-R1-2"}},"name":"Bone-Slat-R1-2"},{"translation":[11.4957848,5.364418e-7,9.536743e-7],"rotation":[-0.0353866331,-0.8763702,0.0153725119,-0.48009038],"scale":[1.0,0.9999999,0.9999995],"extensions":{"ASOBO_unique_id":{"id":"x0_Bone-Slat-R2-1"}},"name":"Bone-Slat-R2-1","children":[11]},{"translation":[1.59266257,-1.1920929e-7,0.00000190734863],"rotation":[1.51150238e-11,1.32526365e-10,-4.65661343e-10,1.0],"scale":[0.9999999,0.9999998,1.0],"extensions":{"ASOBO_unique_id":{"id":"x0_Bone-Slat-R2-2"}},"name":"Bone-Slat-R2-2"},{"translation":[17.2568932,0.473788142,-0.852475166],"rotation":[0.0,-1.0,0.0,7.54979e-8],"extensions":{"ASOBO_unique_id":{"id":"x0_wing_l"}},"name":"wing_l"},{"translation":[3.54638863,-0.439265221,4.1332593],"rotation":[0.0109453853,0.207514361,0.0518142,0.9767975],"scale":[1.00000012,1.00000024,0.9999998],"extensions":{"ASOBO_unique_id":{"id":"x0_WING_Bone_Start_Left"}},"name":"WING_Bone_Start_Left","children":[14]},{"translation":[6.190255,-0.00000196695328,-4.76837158e-7],"rotation":[0.002424826,0.0264387969,-0.0167863686,0.9995066],"scale":[0.9999996,0.9999999,1.00000012],"extensions":{"ASOBO_unique_id":{"id":"x0_WING_Bone_1_Left"}},"name":"WING_Bone_1_Left","children":[15,19,21]},{"translation":[11.495409,-0.0000114440918,-0.00000381469727],"rotation":[-0.00000617069873,-0.00008799125,-0.00238027144,0.9999972],"scale":[1.00000036,1.00000012,1.00000012],"extensions":{"ASOBO_unique_id":{"id":"x0_WING_Bone_2_Left"}},"name":"WING_Bone_2_Left","children":[16,17]},{"translation":[10.0742474,-0.00003874302,0.00000524520874],"rotation":[4.327032e-8,5.10843634e-8,4.656613e-8,1.0],"scale":[0.99999994,1.0,1.0],"extensions":{"ASOBO_unique_id":{"id":"x0_WING_Bone_End_Left"}},"name":"WING_Bone_End_Left"},{"translation":[10.0742531,0.000125050545,0.001121521],"rotation":[-0.04903033,-0.829209745,-0.0047649215,0.5567626],"scale":[1.00000048,0.999999642,0.9999997],"extensions":{"ASOBO_unique_id":{"id":"x0_Bone-Slat-L3-1"}},"name":"Bone-Slat-L3-1","children":[18]},{"translation":[0.6334429,2.38418579e-7,0.00000381469727],"rotation":[-3.24007515e-10,-8.750824e-8,-1.86264537e-9,1.0],"scale":[0.99999994,0.9999999,0.99999994],"extensions":{"ASOBO_unique_id":{"id":"x0_Bone-Slat-L3-2"}},"name":"Bone-Slat-L3-2"},{"translation":[-0.000377655029,0.00010985136,0.00709962845],"rotation":[-0.0402128249,-0.8087898,-0.0133068711,0.586570561],"scale":[1.00000036,1.0,1.00000024],"extensions":{"ASOBO_unique_id":{"id":"x0_Bone-Slat-L1-1"}},"name":"Bone-Slat-L1-1","children":[20]},{"translation":[2.24180532,2.23517418e-7,9.536743e-7],"rotation":[-4.047252e-10,-9.350807e-8,0.0,1.0],"scale":[0.99999994,0.99999994,0.9999999],"extensions":{"ASOBO_unique_id":{"id":"x0_Bone-Slat-L1-2"}},"name":"Bone-Slat-L1-2"},{"translation":[11.4954014,-3.57627869e-7,9.536743e-7],"rotation":[-0.03539535,-0.8762217,-0.0153640714,0.480360925],"scale":[1.00000036,1.00000036,1.0],"extensions":{"ASOBO_unique_id":{"id":"x0_Bone-Slat-L2-1"}},"name":"Bone-Slat-L2-1","children":[22]},{"translation":[1.5926616199999999,3.57627869e-7,0.0000457763672],"rotation":[1.8189894e-12,1.09326959e-9,0.0,1.0],"scale":[0.99999994,0.99999994,0.99999994],"extensions":{"ASOBO_unique_id":{"id":"x0_Bone-Slat-L2-2"}},"name":"Bone-Slat-L2-2"},{"translation":[-19.0874577,0.7262138,-1.42640209],"rotation":[0.0,1.1920929e-7,0.0,1.0],"extensions":{"ASOBO_unique_id":{"id":"x0_slat_r2"}},"name":"slat_r2"},{"translation":[19.08746,0.726213932,-1.42640781],"rotation":[9.313208e-10,-1.0,2.32830644e-9,1.19354809e-7],"scale":[1.00000036,1.0,0.99999994],"extensions":{"ASOBO_unique_id":{"id":"x0_slat_l2"}},"name":"slat_l2"},{"translation":[-2.61397171,-0.0611015856,19.49431],"rotation":[0.0,-1.0,0.0,7.54979e-8],"mesh":0,"extensions":{"ASOBO_unique_id":{"id":"x0_cargo_door_forward_fake"}},"name":"cargo_door_forward_fake"},{"translation":[-2.4598217,-0.0610786825,19.4910355],"rotation":[0.0,-1.0,0.0,7.54979e-8],"mesh":1,"extensions":{"ASOBO_unique_id":{"id":"x0_cargo_door_forward"}},"name":"cargo_door_forward"},{"translation":[-2.67042732,0.189278364,-10.0109863],"rotation":[0.0,-1.0,0.0,7.54979e-8],"mesh":2,"extensions":{"ASOBO_unique_id":{"id":"x0_cargo_door_aft_fake"}},"name":"cargo_door_aft_fake"},{"translation":[-2.40829277,-0.1099537,-8.924353],"rotation":[0.0,-1.0,0.0,7.54979e-8],"mesh":3,"extensions":{"ASOBO_unique_id":{"id":"x0_cargo_door_aft"}},"name":"cargo_door_aft"}],"scene":0,"scenes":[{"nodes":[0]}],"textures":[{"extensions":{"MSFT_texture_dds":{"source":0}}},{"extensions":{"MSFT_texture_dds":{"source":1}}},{"extensions":{"MSFT_texture_dds":{"source":2}}},{"extensions":{"MSFT_texture_dds":{"source":3}}}],"extensionsUsed":["ASOBO_normal_map_convention","ASOBO_unique_id","ASOBO_animation_retargeting","MSFT_texture_dds","ASOBO_asset_optimized"],"buffers":[{"byteLength":28242,"uri":"AIG_Airbus_A330-200_GE_cargo.bin"}],"images":[{"uri":"AIG_A332_GE_T2.PNG.DDS","extras":"ASOBO_image_converted_meta"},{"uri":"AIG_A332_GE_T.PNG.DDS","extras":"ASOBO_image_converted_meta"},{"uri":"AIG_A332_GE_C.PNG.DDS","extras":"ASOBO_image_converted_meta"},{"uri":"AIG_A332_L.PNG.DDS","extras":"ASOBO_image_converted_meta"}]}
