{"accessors":[{"bufferView":0,"componentType":5126,"count":4,"min":[0.0],"max":[200.0],"type":"SCALAR"},{"bufferView":2,"componentType":5126,"count":4,"type":"VEC4"},{"bufferView":0,"byteOffset":16,"componentType":5126,"count":5,"min":[0.0],"max":[200.0],"type":"SCALAR"},{"bufferView":2,"byteOffset":64,"componentType":5126,"count":5,"type":"VEC4"},{"bufferView":0,"byteOffset":36,"componentType":5126,"count":3,"min":[0.0],"max":[200.0],"type":"SCALAR"},{"bufferView":1,"componentType":5126,"count":3,"type":"VEC3"},{"bufferView":3,"componentType":5126,"count":76,"min":[-17.218000411987306,-23.40719985961914,-1.5579999685287476],"max":[17.219999313354493,15.740300178527832,9.543999671936036],"type":"VEC3","name":"part000_vertices#0_POSITION"},{"bufferView":3,"byteOffset":12,"componentType":5120,"count":76,"type":"VEC4","name":"part000_vertices#0_TANGENT"},{"bufferView":3,"byteOffset":16,"componentType":5120,"count":76,"type":"VEC4","name":"part000_vertices#0_NORMAL"},{"bufferView":3,"byteOffset":20,"componentType":5122,"count":76,"type":"VEC2","name":"part000_vertices#0_TEXCOORD_0"},{"bufferView":3,"byteOffset":24,"componentType":5122,"count":76,"type":"VEC2","name":"part000_vertices#0_TEXCOORD_1"},{"bufferView":3,"byteOffset":28,"componentType":5123,"count":76,"type":"VEC4","name":"part000_vertices#0_COLOR_0"},{"bufferView":4,"componentType":5123,"count":120,"type":"SCALAR","name":"part000_indices#0"}],"animations":[{"name":"c_gear","channels":[{"sampler":0,"target":{"node":16,"path":"rotation"}},{"sampler":1,"target":{"node":20,"path":"translation"}}],"samplers":[{"input":0,"output":1,"interpolation":"LINEAR"},{"input":4,"output":5,"interpolation":"LINEAR"}]},{"name":"custom_anim_C_WHEEL_LR","channels":[{"sampler":0,"target":{"node":18,"path":"rotation"}}],"samplers":[{"input":2,"output":3,"interpolation":"LINEAR"}]}],"asset":{"generator":"ModelConverterX System.Func`2[System.String,System.String]","version":"2.0","extensions":{"ASOBO_asset_optimized":{"BoundingBoxMax":[17.219999313354493,15.740300178527832,9.543999671936036],"BoundingBoxMin":[-17.218000411987306,-23.40719985961914,-1.5579999685287476],"MajorVersion":4,"MinorVersion":4,"UseCheckerboardMaterialForMissingTextures":true,"UseOnlyFilenameForImageURI":true},"ASOBO_normal_map_convention":{"tangent_space_convention":"DirectX"}}},"bufferViews":[{"buffer":0,"byteLength":48,"byteStride":4},{"buffer":0,"byteLength":36,"byteStride":12,"byteOffset":48},{"buffer":0,"byteLength":144,"byteStride":16,"byteOffset":84},{"buffer":0,"byteLength":2736,"byteStride":36,"byteOffset":228,"target":34962,"name":"BufferViewVertexND"},{"buffer":0,"byteLength":240,"byteOffset":2964,"target":34963,"name":"BufferViewIndex"}],"extensionsRequired":["MSFT_texture_dds"],"materials":[{"name":"material00","emissiveTexture":{"index":1},"emissiveFactor":[0.0313725508749485,0.0313725508749485,0.0313725508749485],"pbrMetallicRoughness":{"baseColorTexture":{"index":0}}}],"meshes":[{"primitives":[{"attributes":{"COLOR_0":11,"NORMAL":8,"POSITION":6,"TANGENT":7,"TEXCOORD_0":9,"TEXCOORD_1":10},"indices":12,"material":0,"mode":4,"extras":{"ASOBO_primitive":{"PrimitiveCount":40,"VertexType":"VTX","VertexVersion":2}}}],"name":"part000"}],"nodes":[{"name":"node_0","children":[1,2,3,4,5,6,7,8,9,10,11,12,13]},{"translation":[2.7370856428109025e-15,1.7699999809265137,-22.350000381469728],"rotation":[-5.164282425492906e-17,-0.5372997522973312,0.8433913471611095,-3.290012109167962e-17],"scale":[0.999999921129888,1.0,1.0],"name":"APU"},{"translation":[-1.3960973043114148e-15,-2.700000047683716,11.399999618530272],"rotation":[-6.123233995736766e-17,0.0,1.0,0.0],"scale":[1.0,1.0,1.0],"name":"c_tire1"},{"translation":[2.3499999046325685,-0.47999998927116396,1.2999999523162845],"rotation":[-0.6739409339964257,0.07004352296897591,0.05404625611419887,0.7334687582508367],"scale":[1.0,0.9999995948181428,1.0000001878758996],"name":"landing_l_inner"},{"translation":[-2.3499999046325685,-0.47999998927116396,1.299999952316284],"rotation":[-0.6739409339964257,-0.070043522968976,-0.05404625611419895,0.7334687582508367],"scale":[1.0,0.9999995948181428,1.0000001878758996],"name":"landing_r_inner"},{"translation":[2.5199999809265138,-0.47999998927116396,1.200000047683716],"rotation":[-0.7071067811865475,-4.3297802811774667e-17,-4.3297802811774667e-17,0.7071067811865475],"scale":[1.0,1.0,1.0],"name":"landing_l_outer"},{"translation":[-2.5199999809265138,-0.47999998927116396,1.2000000476837157],"rotation":[-0.7071067811865475,-4.3297802811774667e-17,-4.3297802811774667e-17,0.7071067811865475],"scale":[1.0,1.0,1.0],"name":"landing_r_outer"},{"translation":[-0.9399999976158144,-1.4299999475479127,1.0399999618530272],"rotation":[-0.7071067811865475,-4.3297802811774667e-17,-4.3297802811774667e-17,0.7071067811865475],"scale":[1.0,1.0,1.0],"name":"landing_r_belly"},{"translation":[0.939999997615814,-1.4299999475479127,1.0399999618530276],"rotation":[-0.7071067811865475,-4.3297802811774667e-17,-4.3297802811774667e-17,0.7071067811865475],"scale":[1.0,1.0,1.0],"name":"landing_l_belly"},{"translation":[2.900000095367432,-2.799999952316284,-4.0],"rotation":[-6.123233995736766e-17,0.0,1.0,0.0],"scale":[1.0,1.0,1.0],"name":"l_tire1"},{"translation":[-2.900000095367431,-2.799999952316284,-4.0],"rotation":[-6.123233995736766e-17,0.0,1.0,0.0],"scale":[1.0,1.0,1.0],"name":"r_tire1"},{"translation":[4.900000095367432,-1.3200000524520875,-1.9999999999999992],"rotation":[-6.123233995736766e-17,0.0,1.0,0.0],"scale":[1.0,1.0,1.0],"name":"contrail1"},{"translation":[-4.900000095367432,-1.3200000524520875,-2.0000000000000006],"rotation":[-6.123233995736766e-17,0.0,1.0,0.0],"scale":[1.0,1.0,1.0],"name":"contrail2"},{"translation":[0.0,0.0,0.0],"rotation":[-4.3297802811774667e-17,0.7071067811865475,0.7071067811865475,4.3297802811774667e-17],"scale":[1.0,1.0,1.0],"mesh":0,"name":"node_31","children":[14]},{"translation":[-0.0010000000474974514,11.717000007629397,-1.2630000114440919],"rotation":[0.8410390384972172,0.0,0.0,0.54097448063734],"scale":[1.0000003614548419,1.0,1.0],"name":"node_32","children":[15]},{"name":"node_33","children":[16]},{"name":"c_gear_AN_33","children":[17]},{"translation":[0.0,0.0,0.0],"rotation":[-0.05233572342957859,0.0,0.0,0.9986295430186442],"scale":[0.9999999684594664,1.0,1.0],"name":"node_34","children":[18]},{"name":"custom_anim_C_WHEEL_LR_AN_34","children":[19]},{"translation":[-0.002999999036334459,0.012001995694245857,-0.8389997098505602],"rotation":[0.0,0.0,0.0,1.0],"scale":[1.0,1.0,1.0],"name":"node_36","children":[20]},{"name":"c_gear_AN_36","children":[21,22]},{"translation":[0.0,0.15999994363745236,-0.2399999154561786],"rotation":[0.0,0.0,1.0,0.0],"scale":[1.0,1.0,1.0],"name":"taxi_nose"},{"translation":[0.0,0.15999994363745236,-0.2399999154561786],"rotation":[0.0,0.0,1.0,0.0],"scale":[1.0,1.0,1.0],"name":"landing_nose"}],"scene":0,"scenes":[{"nodes":[0]}],"textures":[{"extensions":{"MSFT_texture_dds":{"source":0}}},{"extensions":{"MSFT_texture_dds":{"source":1}}}],"extensionsUsed":["ASOBO_normal_map_convention","MSFT_texture_dds","ASOBO_asset_optimized"],"buffers":[{"byteLength":3204,"uri":"MGAI_Boeing_P8A_MSFS_LOD4.bin"}],"images":[{"uri":"MGAI_P8A_T.PNG.DDS","extras":"ASOBO_image_converted_meta"},{"uri":"MGAI_P8A_L.PNG.DDS","extras":"ASOBO_image_converted_meta"}]}
