{"accessors":[{"bufferView":0,"componentType":5126,"count":5,"min":[0.0],"max":[100.0],"type":"SCALAR"},{"bufferView":1,"componentType":5126,"count":5,"type":"VEC4"},{"bufferView":0,"byteOffset":20,"componentType":5126,"count":5,"min":[0.0],"max":[100.0],"type":"SCALAR"},{"bufferView":1,"byteOffset":80,"componentType":5126,"count":5,"type":"VEC4"},{"bufferView":0,"byteOffset":40,"componentType":5126,"count":5,"min":[0.0],"max":[100.0],"type":"SCALAR"},{"bufferView":1,"byteOffset":160,"componentType":5126,"count":5,"type":"VEC4"},{"bufferView":0,"byteOffset":60,"componentType":5126,"count":5,"min":[0.0],"max":[100.0],"type":"SCALAR"},{"bufferView":1,"byteOffset":240,"componentType":5126,"count":5,"type":"VEC4"},{"bufferView":0,"byteOffset":80,"componentType":5126,"count":5,"min":[0.0],"max":[100.0],"type":"SCALAR"},{"bufferView":1,"byteOffset":320,"componentType":5126,"count":5,"type":"VEC4"},{"bufferView":2,"componentType":5126,"count":335,"min":[-5.278359889984131,-0.9924399852752686,-5.1223602294921879],"max":[5.322380065917969,1.4766600131988526,2.724519968032837],"type":"VEC3","name":"part000_vertices#0_POSITION"},{"bufferView":2,"byteOffset":12,"componentType":5120,"count":335,"type":"VEC4","name":"part000_vertices#0_TANGENT"},{"bufferView":2,"byteOffset":16,"componentType":5120,"count":335,"type":"VEC4","name":"part000_vertices#0_NORMAL"},{"bufferView":2,"byteOffset":20,"componentType":5122,"count":335,"type":"VEC2","name":"part000_vertices#0_TEXCOORD_0"},{"bufferView":2,"byteOffset":24,"componentType":5122,"count":335,"type":"VEC2","name":"part000_vertices#0_TEXCOORD_1"},{"bufferView":2,"byteOffset":28,"componentType":5123,"count":335,"type":"VEC4","name":"part000_vertices#0_COLOR_0"},{"bufferView":3,"componentType":5123,"count":897,"type":"SCALAR","name":"part000_indices#0"},{"bufferView":2,"byteOffset":12060,"componentType":5126,"count":16,"min":[-0.3196899890899658,-0.919979989528656,-0.019910000264644624],"max":[0.30827999114990237,0.9178799986839294,0.013609999790787697],"type":"VEC3","name":"part001_vertices#0_POSITION"},{"bufferView":2,"byteOffset":12072,"componentType":5120,"count":16,"type":"VEC4","name":"part001_vertices#0_TANGENT"},{"bufferView":2,"byteOffset":12076,"componentType":5120,"count":16,"type":"VEC4","name":"part001_vertices#0_NORMAL"},{"bufferView":2,"byteOffset":12080,"componentType":5122,"count":16,"type":"VEC2","name":"part001_vertices#0_TEXCOORD_0"},{"bufferView":2,"byteOffset":12084,"componentType":5122,"count":16,"type":"VEC2","name":"part001_vertices#0_TEXCOORD_1"},{"bufferView":2,"byteOffset":12088,"componentType":5123,"count":16,"type":"VEC4","name":"part001_vertices#0_COLOR_0"},{"bufferView":3,"byteOffset":1794,"componentType":5123,"count":36,"type":"SCALAR","name":"part001_indices#0"},{"bufferView":2,"byteOffset":12636,"componentType":5126,"count":16,"min":[-0.3196699917316437,-0.919979989528656,-0.017680000513792039],"max":[0.3082999885082245,0.9178799986839294,0.01583999954164028],"type":"VEC3","name":"part002_vertices#0_POSITION"},{"bufferView":2,"byteOffset":12648,"componentType":5120,"count":16,"type":"VEC4","name":"part002_vertices#0_TANGENT"},{"bufferView":2,"byteOffset":12652,"componentType":5120,"count":16,"type":"VEC4","name":"part002_vertices#0_NORMAL"},{"bufferView":2,"byteOffset":12656,"componentType":5122,"count":16,"type":"VEC2","name":"part002_vertices#0_TEXCOORD_0"},{"bufferView":2,"byteOffset":12660,"componentType":5122,"count":16,"type":"VEC2","name":"part002_vertices#0_TEXCOORD_1"},{"bufferView":2,"byteOffset":12664,"componentType":5123,"count":16,"type":"VEC4","name":"part002_vertices#0_COLOR_0"},{"bufferView":3,"byteOffset":1866,"componentType":5123,"count":36,"type":"SCALAR","name":"part002_indices#0"},{"bufferView":2,"byteOffset":13212,"componentType":5126,"count":28,"min":[-0.051020000129938129,-0.15395000576972962,-0.17508000135421754],"max":[0.05302000045776367,0.15419000387191773,0.17708000540733338],"type":"VEC3","name":"part003_vertices#0_POSITION"},{"bufferView":2,"byteOffset":13224,"componentType":5120,"count":28,"type":"VEC4","name":"part003_vertices#0_TANGENT"},{"bufferView":2,"byteOffset":13228,"componentType":5120,"count":28,"type":"VEC4","name":"part003_vertices#0_NORMAL"},{"bufferView":2,"byteOffset":13232,"componentType":5122,"count":28,"type":"VEC2","name":"part003_vertices#0_TEXCOORD_0"},{"bufferView":2,"byteOffset":13236,"componentType":5122,"count":28,"type":"VEC2","name":"part003_vertices#0_TEXCOORD_1"},{"bufferView":2,"byteOffset":13240,"componentType":5123,"count":28,"type":"VEC4","name":"part003_vertices#0_COLOR_0"},{"bufferView":3,"byteOffset":1938,"componentType":5123,"count":60,"type":"SCALAR","name":"part003_indices#0"},{"bufferView":2,"byteOffset":14220,"componentType":5126,"count":28,"min":[-0.05803000181913376,-0.17295999825000764,-0.20009000599384309],"max":[0.05803000181913376,0.17520000040531159,0.20009000599384309],"type":"VEC3","name":"part004_vertices#0_POSITION"},{"bufferView":2,"byteOffset":14232,"componentType":5120,"count":28,"type":"VEC4","name":"part004_vertices#0_TANGENT"},{"bufferView":2,"byteOffset":14236,"componentType":5120,"count":28,"type":"VEC4","name":"part004_vertices#0_NORMAL"},{"bufferView":2,"byteOffset":14240,"componentType":5122,"count":28,"type":"VEC2","name":"part004_vertices#0_TEXCOORD_0"},{"bufferView":2,"byteOffset":14244,"componentType":5122,"count":28,"type":"VEC2","name":"part004_vertices#0_TEXCOORD_1"},{"bufferView":2,"byteOffset":14248,"componentType":5123,"count":28,"type":"VEC4","name":"part004_vertices#0_COLOR_0"},{"bufferView":3,"byteOffset":2058,"componentType":5123,"count":60,"type":"SCALAR","name":"part004_indices#0"},{"bufferView":2,"byteOffset":15228,"componentType":5126,"count":28,"min":[-0.054019998759031299,-0.17295999825000764,-0.20009000599384309],"max":[0.054019998759031299,0.17520000040531159,0.20009000599384309],"type":"VEC3","name":"part005_vertices#0_POSITION"},{"bufferView":2,"byteOffset":15240,"componentType":5120,"count":28,"type":"VEC4","name":"part005_vertices#0_TANGENT"},{"bufferView":2,"byteOffset":15244,"componentType":5120,"count":28,"type":"VEC4","name":"part005_vertices#0_NORMAL"},{"bufferView":2,"byteOffset":15248,"componentType":5122,"count":28,"type":"VEC2","name":"part005_vertices#0_TEXCOORD_0"},{"bufferView":2,"byteOffset":15252,"componentType":5122,"count":28,"type":"VEC2","name":"part005_vertices#0_TEXCOORD_1"},{"bufferView":2,"byteOffset":15256,"componentType":5123,"count":28,"type":"VEC4","name":"part005_vertices#0_COLOR_0"},{"bufferView":3,"byteOffset":2178,"componentType":5123,"count":60,"type":"SCALAR","name":"part005_indices#0"}],"animations":[{"name":"engine0","channels":[{"sampler":0,"target":{"node":11,"path":"rotation"}},{"sampler":1,"target":{"node":14,"path":"rotation"}}],"samplers":[{"input":0,"output":1,"interpolation":"LINEAR"},{"input":2,"output":3,"interpolation":"LINEAR"}]},{"name":"c_tire_blurred_key","channels":[{"sampler":0,"target":{"node":16,"path":"rotation"}}],"samplers":[{"input":4,"output":5,"interpolation":"LINEAR"}]},{"name":"r_tire_blurred_key","channels":[{"sampler":0,"target":{"node":18,"path":"rotation"}}],"samplers":[{"input":6,"output":7,"interpolation":"LINEAR"}]},{"name":"l_tire_blurred_key","channels":[{"sampler":0,"target":{"node":20,"path":"rotation"}}],"samplers":[{"input":8,"output":9,"interpolation":"LINEAR"}]}],"asset":{"generator":"ModelConverterX","version":"2.0","extensions":{"ASOBO_asset_optimized":{"BoundingBoxMax":[5.322380065917969,1.4766600131988526,2.724519968032837],"BoundingBoxMin":[-5.278359889984131,-0.9924399852752686,-5.1223602294921879],"MajorVersion":4,"MinorVersion":4,"UseCheckerboardMaterialForMissingTextures":true,"UseOnlyFilenameForImageURI":true}}},"bufferViews":[{"buffer":0,"byteLength":100,"byteStride":4},{"buffer":0,"byteLength":400,"byteStride":16,"byteOffset":100},{"buffer":0,"byteLength":16236,"byteStride":36,"byteOffset":500,"target":34962,"name":"BufferViewVertexND"},{"buffer":0,"byteLength":2298,"byteOffset":16736,"target":34963,"name":"BufferViewIndex"}],"extensionsRequired":["MSFT_texture_dds"],"materials":[{"name":"material00","emissiveTexture":{"index":1},"emissiveFactor":[0.019607843831181527,0.019607843831181527,0.019607843831181527],"pbrMetallicRoughness":{"metallicFactor":0.0,"baseColorTexture":{"index":0}}}],"meshes":[{"primitives":[{"attributes":{"COLOR_0":15,"NORMAL":12,"POSITION":10,"TANGENT":11,"TEXCOORD_0":13,"TEXCOORD_1":14},"indices":16,"material":0,"mode":4,"extras":{"ASOBO_primitive":{"PrimitiveCount":299,"VertexType":"VTX","VertexVersion":2}}}],"name":"part000"},{"primitives":[{"attributes":{"COLOR_0":22,"NORMAL":19,"POSITION":17,"TANGENT":18,"TEXCOORD_0":20,"TEXCOORD_1":21},"indices":23,"material":0,"mode":4,"extras":{"ASOBO_primitive":{"PrimitiveCount":12,"VertexType":"VTX","VertexVersion":2}}}],"name":"part001"},{"primitives":[{"attributes":{"COLOR_0":29,"NORMAL":26,"POSITION":24,"TANGENT":25,"TEXCOORD_0":27,"TEXCOORD_1":28},"indices":30,"material":0,"mode":4,"extras":{"ASOBO_primitive":{"PrimitiveCount":12,"VertexType":"VTX","VertexVersion":2}}}],"name":"part002"},{"primitives":[{"attributes":{"COLOR_0":36,"NORMAL":33,"POSITION":31,"TANGENT":32,"TEXCOORD_0":34,"TEXCOORD_1":35},"indices":37,"material":0,"mode":4,"extras":{"ASOBO_primitive":{"PrimitiveCount":20,"VertexType":"VTX","VertexVersion":2}}}],"name":"part003"},{"primitives":[{"attributes":{"COLOR_0":43,"NORMAL":40,"POSITION":38,"TANGENT":39,"TEXCOORD_0":41,"TEXCOORD_1":42},"indices":44,"material":0,"mode":4,"extras":{"ASOBO_primitive":{"PrimitiveCount":20,"VertexType":"VTX","VertexVersion":2}}}],"name":"part004"},{"primitives":[{"attributes":{"COLOR_0":50,"NORMAL":47,"POSITION":45,"TANGENT":46,"TEXCOORD_0":48,"TEXCOORD_1":49},"indices":51,"material":0,"mode":4,"extras":{"ASOBO_primitive":{"PrimitiveCount":20,"VertexType":"VTX","VertexVersion":2}}}],"name":"part005"}],"nodes":[{"name":"node_0","children":[1,2,3,4,5,6,7,8]},{"mesh":0,"name":"node_4"},{"translation":[6.123031769111886e-16,0.0,-5.0],"rotation":[-6.123031769111886e-17,3.061515884555943e-17,1.0,1.874575902277672e-33],"scale":[1.0,1.0,1.0],"name":"contrail1"},{"translation":[-2.0818308598918228e-16,-0.43999999761581429,1.7000000476837159],"rotation":[-0.7071067811865475,0.0,0.0,0.7071067811865475],"scale":[1.0,1.0,1.0],"name":"Landing_Light"},{"translation":[-2.0695848080323553e-16,-0.44999998807907107,1.690000057220459],"rotation":[-0.7071067811865475,0.0,0.0,0.7071067811865475],"scale":[1.0,1.0,1.0],"name":"Taxi_Light"},{"translation":[-1.4695276829806339e-16,-1.399999976158142,1.2000000476837159],"rotation":[-6.123031769111886e-17,3.061515884555943e-17,1.0,1.874575902277672e-33],"scale":[1.0,1.0,1.0],"name":"c_tire1"},{"translation":[1.5,-1.25,-0.8000000119209288],"rotation":[-6.123031769111886e-17,3.061515884555943e-17,1.0,1.874575902277672e-33],"scale":[1.0,1.0,1.0],"name":"l_tire1"},{"translation":[-1.5,-1.25,-0.8000000119209291],"rotation":[-6.123031769111886e-17,3.061515884555943e-17,1.0,1.874575902277672e-33],"scale":[1.0,1.0,1.0],"name":"r_tire1"},{"translation":[0.0,0.0,0.0],"rotation":[-4.329637285359677e-17,0.7071067811865475,0.7071067811865475,4.329637285359677e-17],"scale":[1.0,1.0,1.0],"name":"node_20","children":[9,12,15,17,19]},{"translation":[0.029590999707579614,1.792225003242493,-0.1884929984807968],"rotation":[-0.3536605281852948,-0.6093681354554644,0.6122989297958886,-0.3591096325547177],"scale":[1.0,1.0,1.0],"name":"node_49","children":[10]},{"name":"prop0_still_VC_0","children":[11]},{"mesh":1,"name":"engine0_AN_0"},{"translation":[0.029590999707579614,1.7944560050964356,-0.1884929984807968],"rotation":[-0.3536605281852948,-0.6093681354554644,0.6122989297958886,-0.3591096325547177],"scale":[1.0,1.0,1.0],"name":"node_51","children":[13]},{"name":"prop0_still_VC_1","children":[14]},{"mesh":2,"name":"engine0_AN_1"},{"translation":[0.010746999643743039,1.226135015487671,-1.1938940286636353],"rotation":[0.0,0.0,0.0,1.0],"scale":[1.0,1.0,1.0],"name":"node_89","children":[16]},{"mesh":3,"name":"c_tire_blurred_key_AN_89"},{"translation":[1.518257975578308,-0.7317730188369751,-1.0365970134735108],"rotation":[0.0,0.0,0.0,1.0],"scale":[1.0,1.0,1.0],"name":"node_90","children":[18]},{"mesh":4,"name":"r_tire_blurred_key_AN_90"},{"translation":[-1.498718023300171,-0.7317730188369751,-1.0365970134735108],"rotation":[0.0,0.0,0.0,1.0],"scale":[1.0,1.0,1.0],"name":"node_91","children":[20]},{"mesh":5,"name":"l_tire_blurred_key_AN_91"}],"scene":0,"scenes":[{"nodes":[0]}],"textures":[{"extensions":{"MSFT_texture_dds":{"source":0}}},{"extensions":{"MSFT_texture_dds":{"source":1}}}],"extensionsUsed":["MSFT_texture_dds","ASOBO_asset_optimized"],"buffers":[{"byteLength":19034,"uri":"ANAI_Piper_Archer_II_FF_MSFS_LOD4.bin"}],"images":[{"uri":"AI_ARCHER.PNG.DDS","extras":"ASOBO_image_converted_meta"},{"uri":"AI_ARCHER_L.PNG.DDS","extras":"ASOBO_image_converted_meta"}]}
