{"accessors":[{"bufferView":0,"componentType":5126,"count":3,"min":[0.0],"max":[200.0],"type":"SCALAR"},{"bufferView":1,"componentType":5126,"count":3,"type":"VEC4"},{"bufferView":2,"componentType":5126,"count":4101,"min":[-14.343119621276856,-1.9503599405288697,-17.34575080871582],"max":[14.343119621276856,7.0713701248168949,14.320110321044922],"type":"VEC3","name":"part000_vertices#0_POSITION"},{"bufferView":2,"byteOffset":12,"componentType":5120,"count":4101,"type":"VEC4","name":"part000_vertices#0_TANGENT"},{"bufferView":2,"byteOffset":16,"componentType":5120,"count":4101,"type":"VEC4","name":"part000_vertices#0_NORMAL"},{"bufferView":2,"byteOffset":20,"componentType":5122,"count":4101,"type":"VEC2","name":"part000_vertices#0_TEXCOORD_0"},{"bufferView":2,"byteOffset":24,"componentType":5122,"count":4101,"type":"VEC2","name":"part000_vertices#0_TEXCOORD_1"},{"bufferView":2,"byteOffset":28,"componentType":5123,"count":4101,"type":"VEC4","name":"part000_vertices#0_COLOR_0"},{"bufferView":3,"componentType":5123,"count":13842,"type":"SCALAR","name":"part000_indices#0"}],"animations":[{"name":"c_gear","channels":[{"sampler":0,"target":{"node":16,"path":"rotation"}}],"samplers":[{"input":0,"output":1,"interpolation":"LINEAR"}]}],"asset":{"generator":"ModelConverterX","version":"2.0","extensions":{"ASOBO_asset_optimized":{"BoundingBoxMax":[14.343119621276856,7.0713701248168949,14.320110321044922],"BoundingBoxMin":[-14.343119621276856,-1.9503599405288697,-17.34575080871582],"MajorVersion":4,"MinorVersion":4,"UseCheckerboardMaterialForMissingTextures":true,"UseOnlyFilenameForImageURI":true}}},"bufferViews":[{"buffer":0,"byteLength":12,"byteStride":4},{"buffer":0,"byteLength":48,"byteStride":16,"byteOffset":12},{"buffer":0,"byteLength":147636,"byteStride":36,"byteOffset":60,"target":34962,"name":"BufferViewVertexND"},{"buffer":0,"byteLength":27684,"byteOffset":147696,"target":34963,"name":"BufferViewIndex"}],"extensionsRequired":["MSFT_texture_dds"],"materials":[{"name":"material00","emissiveTexture":{"index":1},"emissiveFactor":[0.019607843831181527,0.019607843831181527,0.019607843831181527],"pbrMetallicRoughness":{"metallicFactor":0.0,"baseColorTexture":{"index":0}},"extensions":{"ASOBO_material_day_night_switch":{}}}],"meshes":[{"primitives":[{"attributes":{"COLOR_0":7,"NORMAL":4,"POSITION":2,"TANGENT":3,"TEXCOORD_0":5,"TEXCOORD_1":6},"indices":8,"material":0,"mode":4,"extras":{"ASOBO_primitive":{"PrimitiveCount":4614,"VertexType":"VTX","VertexVersion":2}}}],"name":"part000"}],"nodes":[{"name":"node_0","children":[1,2,3,4,5,6,7,8,9,10,11,12,13,14]},{"mesh":0,"name":"node_1"},{"translation":[-1.2368524640756262e-15,-2.299999952316284,10.100000381469729],"rotation":[-6.123031769111886e-17,3.061515884555943e-17,1.0,1.874575902277672e-33],"scale":[1.0,1.0,1.0],"name":"c_tire1"},{"translation":[1.649999976158142,-0.3400000035762787,2.490000009536743],"rotation":[0.06162841671621932,0.7044160264027587,0.7044160264027587,-0.06162841671621932],"scale":[1.0,1.0,1.0],"name":"landing_l"},{"translation":[-1.6499999761581424,-0.3400000035762787,2.490000009536743],"rotation":[-0.061628416716219398,0.7044160264027587,0.7044160264027587,0.061628416716219398],"scale":[1.0,1.0,1.0],"name":"landing_r"},{"translation":[1.4900000095367426,0.25999999046325686,5.349999904632568],"rotation":[0.6546295499730122,-0.25058854398477639,0.2561511908219609,0.6656215902194076],"scale":[1.0,1.0,1.0],"name":"wing_l"},{"translation":[-1.4900000095367439,0.30000001192092898,5.349999904632568],"rotation":[0.6578615480545812,0.2592219966663809,-0.2477326459080575,0.6623070860159341],"scale":[1.0,1.0,1.0],"name":"wing_r"},{"translation":[2.769999980926515,1.6299999952316285,-14.260000228881836],"rotation":[0.9147863766528273,0.3958946144818757,0.0799529969065152,0.0063919950176124],"scale":[1.0,1.0,1.0],"name":"logo_l"},{"translation":[-2.769999980926512,1.6299999952316285,-14.260000228881836],"rotation":[0.07995299690651513,0.006391995017612336,0.9147863766528273,0.3958946144818757],"scale":[1.0,1.0,1.0],"name":"logo_r"},{"translation":[4.0,-1.2200000286102296,-0.18000000715255688],"rotation":[-6.123031769111886e-17,3.061515884555943e-17,1.0,1.874575902277672e-33],"scale":[1.0,1.0,1.0],"name":"contrail1"},{"translation":[-4.0,-1.2200000286102296,-0.18000000715255788],"rotation":[-6.123031769111886e-17,3.061515884555943e-17,1.0,1.874575902277672e-33],"scale":[1.0,1.0,1.0],"name":"contrail2"},{"translation":[2.5799999237060549,-2.4200000762939455,-1.399999976158142],"rotation":[-6.123031769111886e-17,3.061515884555943e-17,1.0,1.874575902277672e-33],"scale":[1.0,1.0,1.0],"name":"l_tire1"},{"translation":[-2.5799999237060549,-2.4200000762939455,-1.3999999761581424],"rotation":[-6.123031769111886e-17,3.061515884555943e-17,1.0,1.874575902277672e-33],"scale":[1.0,1.0,1.0],"name":"r_tire1"},{"translation":[2.1308150089359115e-15,1.3700000047683716,-17.399999618530275],"rotation":[-5.656943728398847e-17,-0.3826834323650898,0.9238795325112867,-2.3431828138842245e-17],"scale":[1.0,1.0,1.0],"name":"APU"},{"translation":[0.0,0.0,0.0],"rotation":[-4.329637285359677e-17,0.7071067811865475,0.7071067811865475,4.329637285359677e-17],"scale":[1.0,1.0,1.0],"name":"node_17","children":[15]},{"translation":[0.0,10.117839813232422,-0.945930004119873],"rotation":[0.5760247383979331,0.575307914499651,-0.41112108769600116,0.4101165091392125],"scale":[1.0,1.0,1.0],"name":"node_35","children":[16]},{"name":"c_gear_AN_35","children":[17,19]},{"translation":[-0.08543202779736181,0.10450394400085876,-0.5747060080476989],"rotation":[-0.4844974528410883,0.4844974233112376,-0.5150356778676845,0.5150361606768709],"scale":[1.0,1.0,1.0],"name":"node_43","children":[18]},{"translation":[0.0,0.0,0.0],"rotation":[0.7071067811865475,0.0,0.0,0.7071067811865475],"scale":[1.0,1.0,1.0],"name":"taxi"},{"translation":[-0.12522303594991616,0.13066593677630604,-0.7788109644882094],"rotation":[-0.4844974528410883,0.4844974233112376,-0.5150356778676845,0.5150361606768709],"scale":[1.0,1.0,1.0],"name":"node_45","children":[20]},{"translation":[0.0,0.0,0.0],"rotation":[0.7071067811865475,0.0,0.0,0.7071067811865475],"scale":[1.0,1.0,1.0],"name":"landing_nose"}],"scene":0,"scenes":[{"nodes":[0]}],"textures":[{"extensions":{"MSFT_texture_dds":{"source":0}}},{"extensions":{"MSFT_texture_dds":{"source":1}}}],"extensionsUsed":["ASOBO_material_day_night_switch","MSFT_texture_dds","ASOBO_asset_optimized"],"buffers":[{"byteLength":175380,"uri":"RFSL_Embraer_E175NW_MSFS_LOD1.bin"}],"images":[{"uri":"RFSL_E175_REV3_T.PNG.DDS","extras":"ASOBO_image_converted_meta"},{"uri":"RFSL_E175_REV3_L.PNG.DDS","extras":"ASOBO_image_converted_meta"}]}
