{"accessors":[{"bufferView":0,"componentType":5126,"count":5,"min":[0.0],"max":[100.0],"type":"SCALAR"},{"bufferView":1,"componentType":5126,"count":5,"type":"VEC4"},{"bufferView":0,"byteOffset":20,"componentType":5126,"count":5,"min":[0.0],"max":[100.0],"type":"SCALAR"},{"bufferView":1,"byteOffset":80,"componentType":5126,"count":5,"type":"VEC4"},{"bufferView":0,"byteOffset":40,"componentType":5126,"count":5,"min":[0.0],"max":[100.0],"type":"SCALAR"},{"bufferView":1,"byteOffset":160,"componentType":5126,"count":5,"type":"VEC4"},{"bufferView":0,"byteOffset":60,"componentType":5126,"count":5,"min":[0.0],"max":[100.0],"type":"SCALAR"},{"bufferView":1,"byteOffset":240,"componentType":5126,"count":5,"type":"VEC4"},{"bufferView":0,"byteOffset":80,"componentType":5126,"count":2,"min":[0.0],"max":[100.0],"type":"SCALAR"},{"bufferView":1,"byteOffset":320,"componentType":5126,"count":2,"type":"VEC4"},{"bufferView":2,"componentType":5126,"count":11,"min":[-2.8495800495147707,-0.3288800120353699,1.318869948387146],"max":[2.8495800495147707,0.5212100148200989,2.056030035018921],"type":"VEC3","name":"part000_vertices#0_POSITION"},{"bufferView":2,"byteOffset":12,"componentType":5120,"count":11,"type":"VEC4","name":"part000_vertices#0_TANGENT"},{"bufferView":2,"byteOffset":16,"componentType":5120,"count":11,"type":"VEC4","name":"part000_vertices#0_NORMAL"},{"bufferView":2,"byteOffset":20,"componentType":5122,"count":11,"type":"VEC2","name":"part000_vertices#0_TEXCOORD_0"},{"bufferView":2,"byteOffset":24,"componentType":5122,"count":11,"type":"VEC2","name":"part000_vertices#0_TEXCOORD_1"},{"bufferView":2,"byteOffset":28,"componentType":5123,"count":11,"type":"VEC4","name":"part000_vertices#0_COLOR_0"},{"bufferView":3,"componentType":5123,"count":21,"type":"SCALAR","name":"part000_indices#0"},{"bufferView":2,"byteOffset":396,"componentType":5126,"count":44,"min":[-2.922420024871826,-0.5093200206756592,1.3374600410461426],"max":[2.922420024871826,0.0841199979186058,1.9734300374984742],"type":"VEC3","name":"part001_vertices#0_POSITION"},{"bufferView":2,"byteOffset":408,"componentType":5120,"count":44,"type":"VEC4","name":"part001_vertices#0_TANGENT"},{"bufferView":2,"byteOffset":412,"componentType":5120,"count":44,"type":"VEC4","name":"part001_vertices#0_NORMAL"},{"bufferView":2,"byteOffset":416,"componentType":5122,"count":44,"type":"VEC2","name":"part001_vertices#0_TEXCOORD_0"},{"bufferView":2,"byteOffset":420,"componentType":5122,"count":44,"type":"VEC2","name":"part001_vertices#0_TEXCOORD_1"},{"bufferView":2,"byteOffset":424,"componentType":5123,"count":44,"type":"VEC4","name":"part001_vertices#0_COLOR_0"},{"bufferView":3,"byteOffset":42,"componentType":5123,"count":108,"type":"SCALAR","name":"part001_indices#0"},{"bufferView":2,"byteOffset":1980,"componentType":5126,"count":326,"min":[-8.334759712219239,-0.5763800144195557,-10.792200088500977],"max":[8.334759712219239,3.2945799827575685,6.993130207061768],"type":"VEC3","name":"part002_vertices#0_POSITION"},{"bufferView":2,"byteOffset":1992,"componentType":5120,"count":326,"type":"VEC4","name":"part002_vertices#0_TANGENT"},{"bufferView":2,"byteOffset":1996,"componentType":5120,"count":326,"type":"VEC4","name":"part002_vertices#0_NORMAL"},{"bufferView":2,"byteOffset":2000,"componentType":5122,"count":326,"type":"VEC2","name":"part002_vertices#0_TEXCOORD_0"},{"bufferView":2,"byteOffset":2004,"componentType":5122,"count":326,"type":"VEC2","name":"part002_vertices#0_TEXCOORD_1"},{"bufferView":2,"byteOffset":2008,"componentType":5123,"count":326,"type":"VEC4","name":"part002_vertices#0_COLOR_0"},{"bufferView":3,"byteOffset":258,"componentType":5123,"count":681,"type":"SCALAR","name":"part002_indices#0"},{"bufferView":2,"byteOffset":13716,"componentType":5126,"count":72,"min":[-1.4084800481796265,-0.07986000180244446,-1.4084800481796265],"max":[1.4084800481796265,0.07986000180244446,1.4084800481796265],"type":"VEC3","name":"part003_vertices#0_POSITION"},{"bufferView":2,"byteOffset":13728,"componentType":5120,"count":72,"type":"VEC4","name":"part003_vertices#0_TANGENT"},{"bufferView":2,"byteOffset":13732,"componentType":5120,"count":72,"type":"VEC4","name":"part003_vertices#0_NORMAL"},{"bufferView":2,"byteOffset":13736,"componentType":5122,"count":72,"type":"VEC2","name":"part003_vertices#0_TEXCOORD_0"},{"bufferView":2,"byteOffset":13740,"componentType":5122,"count":72,"type":"VEC2","name":"part003_vertices#0_TEXCOORD_1"},{"bufferView":2,"byteOffset":13744,"componentType":5123,"count":72,"type":"VEC4","name":"part003_vertices#0_COLOR_0"},{"bufferView":3,"byteOffset":1620,"componentType":5123,"count":168,"type":"SCALAR","name":"part003_indices#0"},{"bufferView":2,"byteOffset":16308,"componentType":5126,"count":72,"min":[-1.4084800481796265,-0.07986000180244446,-1.4084800481796265],"max":[1.4084800481796265,0.07986000180244446,1.4084800481796265],"type":"VEC3","name":"part004_vertices#0_POSITION"},{"bufferView":2,"byteOffset":16320,"componentType":5120,"count":72,"type":"VEC4","name":"part004_vertices#0_TANGENT"},{"bufferView":2,"byteOffset":16324,"componentType":5120,"count":72,"type":"VEC4","name":"part004_vertices#0_NORMAL"},{"bufferView":2,"byteOffset":16328,"componentType":5122,"count":72,"type":"VEC2","name":"part004_vertices#0_TEXCOORD_0"},{"bufferView":2,"byteOffset":16332,"componentType":5122,"count":72,"type":"VEC2","name":"part004_vertices#0_TEXCOORD_1"},{"bufferView":2,"byteOffset":16336,"componentType":5123,"count":72,"type":"VEC4","name":"part004_vertices#0_COLOR_0"},{"bufferView":3,"byteOffset":1956,"componentType":5123,"count":168,"type":"SCALAR","name":"part004_indices#0"},{"bufferView":2,"byteOffset":18900,"componentType":5126,"count":34,"min":[-1.3987300395965577,0.0,-1.3987300395965577],"max":[1.3987300395965577,0.0,1.3987300395965577],"type":"VEC3","name":"part005_vertices#0_POSITION"},{"bufferView":2,"byteOffset":18912,"componentType":5120,"count":34,"type":"VEC4","name":"part005_vertices#0_TANGENT"},{"bufferView":2,"byteOffset":18916,"componentType":5120,"count":34,"type":"VEC4","name":"part005_vertices#0_NORMAL"},{"bufferView":2,"byteOffset":18920,"componentType":5122,"count":34,"type":"VEC2","name":"part005_vertices#0_TEXCOORD_0"},{"bufferView":2,"byteOffset":18924,"componentType":5122,"count":34,"type":"VEC2","name":"part005_vertices#0_TEXCOORD_1"},{"bufferView":2,"byteOffset":18928,"componentType":5123,"count":34,"type":"VEC4","name":"part005_vertices#0_COLOR_0"},{"bufferView":3,"byteOffset":2292,"componentType":5123,"count":96,"type":"SCALAR","name":"part005_indices#0"},{"bufferView":2,"byteOffset":20124,"componentType":5126,"count":34,"min":[-1.3987300395965577,0.0,-1.3987300395965577],"max":[1.3987300395965577,0.0,1.3987300395965577],"type":"VEC3","name":"part006_vertices#0_POSITION"},{"bufferView":2,"byteOffset":20136,"componentType":5120,"count":34,"type":"VEC4","name":"part006_vertices#0_TANGENT"},{"bufferView":2,"byteOffset":20140,"componentType":5120,"count":34,"type":"VEC4","name":"part006_vertices#0_NORMAL"},{"bufferView":2,"byteOffset":20144,"componentType":5122,"count":34,"type":"VEC2","name":"part006_vertices#0_TEXCOORD_0"},{"bufferView":2,"byteOffset":20148,"componentType":5122,"count":34,"type":"VEC2","name":"part006_vertices#0_TEXCOORD_1"},{"bufferView":2,"byteOffset":20152,"componentType":5123,"count":34,"type":"VEC4","name":"part006_vertices#0_COLOR_0"},{"bufferView":3,"byteOffset":2484,"componentType":5123,"count":96,"type":"SCALAR","name":"part006_indices#0"}],"animations":[{"name":"engine0","channels":[{"sampler":0,"target":{"node":16,"path":"rotation"}},{"sampler":1,"target":{"node":24,"path":"rotation"}}],"samplers":[{"input":0,"output":1,"interpolation":"LINEAR"},{"input":6,"output":7,"interpolation":"LINEAR"}]},{"name":"engine1","channels":[{"sampler":0,"target":{"node":19,"path":"rotation"}},{"sampler":1,"target":{"node":21,"path":"rotation"}}],"samplers":[{"input":2,"output":3,"interpolation":"LINEAR"},{"input":4,"output":5,"interpolation":"LINEAR"}]},{"name":"c_gear","channels":[{"sampler":0,"target":{"node":28,"path":"rotation"}}],"samplers":[{"input":8,"output":9,"interpolation":"LINEAR"}]}],"asset":{"generator":"ModelConverterX","version":"2.0","extensions":{"ASOBO_asset_optimized":{"BoundingBoxMax":[8.334759712219239,3.2945799827575685,6.993130207061768],"BoundingBoxMin":[-8.334759712219239,-0.5763800144195557,-10.792200088500977],"MajorVersion":4,"MinorVersion":4,"UseCheckerboardMaterialForMissingTextures":true,"UseOnlyFilenameForImageURI":true}}},"bufferViews":[{"buffer":0,"byteLength":88,"byteStride":4},{"buffer":0,"byteLength":352,"byteStride":16,"byteOffset":88},{"buffer":0,"byteLength":21348,"byteStride":36,"byteOffset":440,"target":34962,"name":"BufferViewVertexND"},{"buffer":0,"byteLength":2676,"byteOffset":21788,"target":34963,"name":"BufferViewIndex"}],"extensionsRequired":["MSFT_texture_dds"],"materials":[{"name":"material00","occlusionTexture":{"index":1},"emissiveTexture":{"index":2},"emissiveFactor":[0.019607843831181527,0.019607843831181527,0.019607843831181527],"pbrMetallicRoughness":{"baseColorTexture":{"index":0},"metallicRoughnessTexture":{"index":1}},"extensions":{"ASOBO_material_day_night_switch":{}}},{"name":"material01","pbrMetallicRoughness":{"baseColorFactor":[0.03921600058674812,0.03921600058674812,0.03921600058674812,1.0],"metallicFactor":0.0}},{"name":"material02","pbrMetallicRoughness":{"baseColorFactor":[0.7960780262947084,0.7960780262947084,0.7960780262947084,1.0],"metallicFactor":0.0}},{"name":"material03","alphaMode":"BLEND","pbrMetallicRoughness":{"baseColorFactor":[0.0,0.0,0.0,0.9960780143737792],"metallicFactor":0.0,"baseColorTexture":{"index":3}}}],"meshes":[{"primitives":[{"attributes":{"COLOR_0":15,"NORMAL":12,"POSITION":10,"TANGENT":11,"TEXCOORD_0":13,"TEXCOORD_1":14},"indices":16,"material":2,"mode":4,"extras":{"ASOBO_primitive":{"PrimitiveCount":7,"VertexType":"VTX","VertexVersion":2}}}],"name":"part000"},{"primitives":[{"attributes":{"COLOR_0":22,"NORMAL":19,"POSITION":17,"TANGENT":18,"TEXCOORD_0":20,"TEXCOORD_1":21},"indices":23,"material":1,"mode":4,"extras":{"ASOBO_primitive":{"PrimitiveCount":36,"VertexType":"VTX","VertexVersion":2}}}],"name":"part001"},{"primitives":[{"attributes":{"COLOR_0":29,"NORMAL":26,"POSITION":24,"TANGENT":25,"TEXCOORD_0":27,"TEXCOORD_1":28},"indices":30,"material":0,"mode":4,"extras":{"ASOBO_primitive":{"PrimitiveCount":227,"VertexType":"VTX","VertexVersion":2}}}],"name":"part002"},{"primitives":[{"attributes":{"COLOR_0":36,"NORMAL":33,"POSITION":31,"TANGENT":32,"TEXCOORD_0":34,"TEXCOORD_1":35},"indices":37,"material":0,"mode":4,"extras":{"ASOBO_primitive":{"PrimitiveCount":56,"VertexType":"VTX","VertexVersion":2}}}],"name":"part003"},{"primitives":[{"attributes":{"COLOR_0":43,"NORMAL":40,"POSITION":38,"TANGENT":39,"TEXCOORD_0":41,"TEXCOORD_1":42},"indices":44,"material":0,"mode":4,"extras":{"ASOBO_primitive":{"PrimitiveCount":56,"VertexType":"VTX","VertexVersion":2}}}],"name":"part004"},{"primitives":[{"attributes":{"COLOR_0":50,"NORMAL":47,"POSITION":45,"TANGENT":46,"TEXCOORD_0":48,"TEXCOORD_1":49},"indices":51,"material":3,"mode":4,"extras":{"ASOBO_primitive":{"PrimitiveCount":32,"VertexType":"VTX","VertexVersion":2}}}],"name":"part005"},{"primitives":[{"attributes":{"COLOR_0":57,"NORMAL":54,"POSITION":52,"TANGENT":53,"TEXCOORD_0":55,"TEXCOORD_1":56},"indices":58,"material":3,"mode":4,"extras":{"ASOBO_primitive":{"PrimitiveCount":32,"VertexType":"VTX","VertexVersion":2}}}],"name":"part006"}],"nodes":[{"name":"node_0","children":[1,2,3,4,5,6,7,8,9,10,11,12,13]},{"mesh":0,"name":"node_8"},{"mesh":1,"name":"node_9"},{"mesh":2,"name":"node_10"},{"translation":[2.5000000000000006,0.0,-2.0],"rotation":[-6.123031769111886e-17,3.061515884555943e-17,1.0,1.874575902277672e-33],"scale":[1.0,1.0,1.0],"name":"contrail1"},{"translation":[1.7300000190734877,3.0999999046325685,-9.989999771118164],"rotation":[0.4966677311900567,0.6809436573614774,0.08431716754486078,-0.53153317445942],"scale":[1.0,1.0,1.0],"name":"logo_l"},{"translation":[3.1500000953674318,-0.10000000149011612,0.7300000190734868],"rotation":[-0.7064337722128922,0.030843564597232019,0.030843564597232019,0.7064337722128922],"scale":[1.0,1.0,1.0],"name":"landing_l"},{"translation":[-3.1500000953674318,-0.10000000149011612,0.730000019073486],"rotation":[-0.7064337722128922,-0.030843564597232106,-0.030843564597232106,0.7064337722128922],"scale":[1.0,1.0,1.0],"name":"landing_r"},{"translation":[-1.730000019073485,3.0999999046325685,-9.989999771118164],"rotation":[-0.4966677311900567,0.6809436573614776,0.08431716754486073,0.5315331744594202],"scale":[1.0,1.0,1.0],"name":"logo_r"},{"translation":[-2.4999999999999997,0.0,-2.0000000000000006],"rotation":[-6.123031769111886e-17,3.061515884555943e-17,1.0,1.874575902277672e-33],"scale":[1.0,1.0,1.0],"name":"contrail2"},{"translation":[-7.959941299845452e-16,-1.5,6.5],"rotation":[-6.123031769111886e-17,3.061515884555943e-17,1.0,1.874575902277672e-33],"scale":[1.0,1.0,1.0],"name":"c_tire1"},{"translation":[2.5799999237060549,-1.5,-0.6999999880790707],"rotation":[-6.123031769111886e-17,3.061515884555943e-17,1.0,1.874575902277672e-33],"scale":[1.0,1.0,1.0],"name":"l_tire1"},{"translation":[-2.5799999237060549,-1.5,-0.6999999880790714],"rotation":[-6.123031769111886e-17,3.061515884555943e-17,1.0,1.874575902277672e-33],"scale":[1.0,1.0,1.0],"name":"r_tire1"},{"translation":[0.0,0.0,0.0],"rotation":[-4.329637285359677e-17,0.7071067811865475,0.7071067811865475,4.329637285359677e-17],"scale":[1.0,1.0,1.0],"name":"node_42","children":[14,17,20,23,26]},{"translation":[-2.612746000289917,2.1482300758361818,0.27432000637054446],"rotation":[0.0,0.0,0.0,1.0],"scale":[1.0,1.0,1.0],"name":"node_43","children":[15]},{"name":"prop0_still_VC","children":[16]},{"mesh":3,"name":"engine0_AN_VC"},{"translation":[2.612746000289917,2.1482300758361818,0.27432000637054446],"rotation":[0.0,0.0,0.0,1.0],"scale":[1.0,1.0,1.0],"name":"node_52","children":[18]},{"name":"prop1_still_VC","children":[19]},{"mesh":4,"name":"engine1_AN_VC"},{"translation":[2.612441062927246,2.146401882171631,0.28894999623298647],"rotation":[0.0,0.0,0.0,1.0],"scale":[1.0,1.0,1.0],"name":"node_61","children":[21]},{"name":"engine1_AN_61","children":[22]},{"mesh":5,"name":"prop1_blurred_VC"},{"translation":[-2.612441062927246,2.146401882171631,0.28894999623298647],"rotation":[0.0,0.0,0.0,1.0],"scale":[1.0,1.0,1.0],"name":"node_70","children":[24]},{"name":"engine0_AN_70","children":[25]},{"mesh":6,"name":"prop0_blurred_VC"},{"translation":[0.0,6.484923839569092,-0.1078990027308464],"rotation":[0.0,0.0,0.0,1.0],"scale":[1.0,1.0,1.0],"name":"node_113","children":[27]},{"name":"node_145","children":[28]},{"name":"c_gear_AN_145","children":[29,31]},{"translation":[0.0,0.13522200286388398,-0.3883630037307739],"rotation":[0.6494478282615225,0.0,0.0,0.7604061535563688],"scale":[1.0,1.0,1.0],"name":"node_146","children":[30]},{"translation":[0.0,0.0,0.0],"rotation":[0.7071067811865475,0.0,0.0,0.7071067811865475],"scale":[1.0,1.0,1.0],"name":"gear_taxi"},{"translation":[0.0,0.13522200286388398,-0.3883630037307739],"rotation":[0.669130410826882,0.0,0.0,0.74314500153513],"scale":[1.0,1.0,1.0],"name":"node_148","children":[32]},{"translation":[0.0,0.0,0.0],"rotation":[0.7071067811865475,0.0,0.0,0.7071067811865475],"scale":[1.0,1.0,1.0],"name":"gear_landing"}],"scene":0,"scenes":[{"nodes":[0]}],"textures":[{"extensions":{"MSFT_texture_dds":{"source":0}}},{"extensions":{"MSFT_texture_dds":{"source":1}}},{"extensions":{"MSFT_texture_dds":{"source":2}}},{"extensions":{"MSFT_texture_dds":{"source":3}}}],"extensionsUsed":["ASOBO_material_day_night_switch","MSFT_texture_dds","ASOBO_asset_optimized"],"buffers":[{"byteLength":24464,"uri":"HTAI Beechcraft 1900C MSFS_LOD7.bin"}],"images":[{"uri":"1900C.PNG.DDS","extras":"ASOBO_image_converted_meta"},{"uri":"1900C_C.PNG.DDS","extras":"ASOBO_image_converted_meta"},{"uri":"CABIN_LIGHTS.PNG.DDS","extras":"ASOBO_image_converted_meta"},{"uri":"PROP-HS.PNG.DDS","extras":"ASOBO_image_converted_meta"}]}
