{"accessors":[{"bufferView":0,"componentType":5126,"count":2,"min":[0.0],"max":[100.0],"type":"SCALAR"},{"bufferView":1,"componentType":5126,"count":2,"type":"VEC4"},{"bufferView":2,"componentType":5126,"count":11,"min":[-2.8495800495147707,-0.3288800120353699,1.318869948387146],"max":[2.8495800495147707,0.5212100148200989,2.056030035018921],"type":"VEC3","name":"part000_vertices#0_POSITION"},{"bufferView":2,"byteOffset":12,"componentType":5120,"count":11,"type":"VEC4","name":"part000_vertices#0_TANGENT"},{"bufferView":2,"byteOffset":16,"componentType":5120,"count":11,"type":"VEC4","name":"part000_vertices#0_NORMAL"},{"bufferView":2,"byteOffset":20,"componentType":5122,"count":11,"type":"VEC2","name":"part000_vertices#0_TEXCOORD_0"},{"bufferView":2,"byteOffset":24,"componentType":5122,"count":11,"type":"VEC2","name":"part000_vertices#0_TEXCOORD_1"},{"bufferView":2,"byteOffset":28,"componentType":5123,"count":11,"type":"VEC4","name":"part000_vertices#0_COLOR_0"},{"bufferView":3,"componentType":5123,"count":21,"type":"SCALAR","name":"part000_indices#0"},{"bufferView":2,"byteOffset":396,"componentType":5126,"count":44,"min":[-2.922420024871826,-0.5093200206756592,1.3374600410461426],"max":[2.922420024871826,0.0841199979186058,1.9734300374984742],"type":"VEC3","name":"part001_vertices#0_POSITION"},{"bufferView":2,"byteOffset":408,"componentType":5120,"count":44,"type":"VEC4","name":"part001_vertices#0_TANGENT"},{"bufferView":2,"byteOffset":412,"componentType":5120,"count":44,"type":"VEC4","name":"part001_vertices#0_NORMAL"},{"bufferView":2,"byteOffset":416,"componentType":5122,"count":44,"type":"VEC2","name":"part001_vertices#0_TEXCOORD_0"},{"bufferView":2,"byteOffset":420,"componentType":5122,"count":44,"type":"VEC2","name":"part001_vertices#0_TEXCOORD_1"},{"bufferView":2,"byteOffset":424,"componentType":5123,"count":44,"type":"VEC4","name":"part001_vertices#0_COLOR_0"},{"bufferView":3,"byteOffset":42,"componentType":5123,"count":108,"type":"SCALAR","name":"part001_indices#0"},{"bufferView":2,"byteOffset":1980,"componentType":5126,"count":326,"min":[-8.334759712219239,-0.5763800144195557,-10.792200088500977],"max":[8.334759712219239,3.2945799827575685,6.993130207061768],"type":"VEC3","name":"part002_vertices#0_POSITION"},{"bufferView":2,"byteOffset":1992,"componentType":5120,"count":326,"type":"VEC4","name":"part002_vertices#0_TANGENT"},{"bufferView":2,"byteOffset":1996,"componentType":5120,"count":326,"type":"VEC4","name":"part002_vertices#0_NORMAL"},{"bufferView":2,"byteOffset":2000,"componentType":5122,"count":326,"type":"VEC2","name":"part002_vertices#0_TEXCOORD_0"},{"bufferView":2,"byteOffset":2004,"componentType":5122,"count":326,"type":"VEC2","name":"part002_vertices#0_TEXCOORD_1"},{"bufferView":2,"byteOffset":2008,"componentType":5123,"count":326,"type":"VEC4","name":"part002_vertices#0_COLOR_0"},{"bufferView":3,"byteOffset":258,"componentType":5123,"count":681,"type":"SCALAR","name":"part002_indices#0"}],"animations":[{"name":"c_gear","channels":[{"sampler":0,"target":{"node":16,"path":"rotation"}}],"samplers":[{"input":0,"output":1,"interpolation":"LINEAR"}]}],"asset":{"generator":"ModelConverterX","version":"2.0","extensions":{"ASOBO_asset_optimized":{"BoundingBoxMax":[8.334759712219239,3.2945799827575685,6.993130207061768],"BoundingBoxMin":[-8.334759712219239,-0.5763800144195557,-10.792200088500977],"MajorVersion":4,"MinorVersion":4,"UseCheckerboardMaterialForMissingTextures":true,"UseOnlyFilenameForImageURI":true}}},"bufferViews":[{"buffer":0,"byteLength":8,"byteStride":4},{"buffer":0,"byteLength":32,"byteStride":16,"byteOffset":8},{"buffer":0,"byteLength":13716,"byteStride":36,"byteOffset":40,"target":34962,"name":"BufferViewVertexND"},{"buffer":0,"byteLength":1620,"byteOffset":13756,"target":34963,"name":"BufferViewIndex"}],"extensionsRequired":["MSFT_texture_dds"],"materials":[{"name":"material00","emissiveTexture":{"index":1},"emissiveFactor":[0.019607843831181527,0.019607843831181527,0.019607843831181527],"pbrMetallicRoughness":{"metallicFactor":0.0,"baseColorTexture":{"index":0}},"extensions":{"ASOBO_material_day_night_switch":{}}},{"name":"material01","pbrMetallicRoughness":{"baseColorFactor":[0.03921600058674812,0.03921600058674812,0.03921600058674812,1.0],"metallicFactor":0.0}},{"name":"material02","pbrMetallicRoughness":{"baseColorFactor":[0.7960780262947084,0.7960780262947084,0.7960780262947084,1.0],"metallicFactor":0.0}}],"meshes":[{"primitives":[{"attributes":{"COLOR_0":7,"NORMAL":4,"POSITION":2,"TANGENT":3,"TEXCOORD_0":5,"TEXCOORD_1":6},"indices":8,"material":2,"mode":4,"extras":{"ASOBO_primitive":{"PrimitiveCount":7,"VertexType":"VTX","VertexVersion":2}}}],"name":"part000"},{"primitives":[{"attributes":{"COLOR_0":14,"NORMAL":11,"POSITION":9,"TANGENT":10,"TEXCOORD_0":12,"TEXCOORD_1":13},"indices":15,"material":1,"mode":4,"extras":{"ASOBO_primitive":{"PrimitiveCount":36,"VertexType":"VTX","VertexVersion":2}}}],"name":"part001"},{"primitives":[{"attributes":{"COLOR_0":21,"NORMAL":18,"POSITION":16,"TANGENT":17,"TEXCOORD_0":19,"TEXCOORD_1":20},"indices":22,"material":0,"mode":4,"extras":{"ASOBO_primitive":{"PrimitiveCount":227,"VertexType":"VTX","VertexVersion":2}}}],"name":"part002"}],"nodes":[{"name":"node_0","children":[1,2,3,4,5,6,7,8,9,10,11,12,13]},{"mesh":0,"name":"node_5"},{"mesh":1,"name":"node_6"},{"mesh":2,"name":"node_7"},{"translation":[2.5000000000000006,0.0,-2.0],"rotation":[-6.123031769111886e-17,3.061515884555943e-17,1.0,1.874575902277672e-33],"scale":[1.0,1.0,1.0],"name":"contrail1"},{"translation":[1.7300000190734877,3.0999999046325685,-9.989999771118164],"rotation":[0.4966677311900567,0.6809436573614774,0.08431716754486078,-0.53153317445942],"scale":[1.0,1.0,1.0],"name":"logo_l"},{"translation":[3.1500000953674318,-0.10000000149011612,0.7300000190734868],"rotation":[-0.7064337722128922,0.030843564597232019,0.030843564597232019,0.7064337722128922],"scale":[1.0,1.0,1.0],"name":"landing_l"},{"translation":[-3.1500000953674318,-0.10000000149011612,0.730000019073486],"rotation":[-0.7064337722128922,-0.030843564597232106,-0.030843564597232106,0.7064337722128922],"scale":[1.0,1.0,1.0],"name":"landing_r"},{"translation":[-1.730000019073485,3.0999999046325685,-9.989999771118164],"rotation":[-0.4966677311900567,0.6809436573614776,0.08431716754486073,0.5315331744594202],"scale":[1.0,1.0,1.0],"name":"logo_r"},{"translation":[-2.4999999999999997,0.0,-2.0000000000000006],"rotation":[-6.123031769111886e-17,3.061515884555943e-17,1.0,1.874575902277672e-33],"scale":[1.0,1.0,1.0],"name":"contrail2"},{"translation":[-7.959941299845452e-16,-1.5,6.5],"rotation":[-6.123031769111886e-17,3.061515884555943e-17,1.0,1.874575902277672e-33],"scale":[1.0,1.0,1.0],"name":"c_tire1"},{"translation":[2.5799999237060549,-1.5,-0.6999999880790707],"rotation":[-6.123031769111886e-17,3.061515884555943e-17,1.0,1.874575902277672e-33],"scale":[1.0,1.0,1.0],"name":"l_tire1"},{"translation":[-2.5799999237060549,-1.5,-0.6999999880790714],"rotation":[-6.123031769111886e-17,3.061515884555943e-17,1.0,1.874575902277672e-33],"scale":[1.0,1.0,1.0],"name":"r_tire1"},{"translation":[0.0,0.0,0.0],"rotation":[-4.329637285359677e-17,0.7071067811865475,0.7071067811865475,4.329637285359677e-17],"scale":[1.0,1.0,1.0],"name":"node_42","children":[14]},{"translation":[0.0,6.484923839569092,-0.1078990027308464],"rotation":[0.0,0.0,0.0,1.0],"scale":[1.0,1.0,1.0],"name":"node_113","children":[15]},{"name":"node_145","children":[16]},{"name":"c_gear_AN_145","children":[17,19]},{"translation":[0.0,0.13522200286388398,-0.3883630037307739],"rotation":[0.6494478282615225,0.0,0.0,0.7604061535563688],"scale":[1.0,1.0,1.0],"name":"node_146","children":[18]},{"translation":[0.0,0.0,0.0],"rotation":[0.7071067811865475,0.0,0.0,0.7071067811865475],"scale":[1.0,1.0,1.0],"name":"gear_taxi"},{"translation":[0.0,0.13522200286388398,-0.3883630037307739],"rotation":[0.669130410826882,0.0,0.0,0.74314500153513],"scale":[1.0,1.0,1.0],"name":"node_148","children":[20]},{"translation":[0.0,0.0,0.0],"rotation":[0.7071067811865475,0.0,0.0,0.7071067811865475],"scale":[1.0,1.0,1.0],"name":"gear_landing"}],"scene":0,"scenes":[{"nodes":[0]}],"textures":[{"extensions":{"MSFT_texture_dds":{"source":0}}},{"extensions":{"MSFT_texture_dds":{"source":1}}}],"extensionsUsed":["ASOBO_material_day_night_switch","MSFT_texture_dds","ASOBO_asset_optimized"],"buffers":[{"byteLength":15376,"uri":"HTAI Beechcraft 1900C MSFS_LOD8.bin"}],"images":[{"uri":"1900C.PNG.DDS","extras":"ASOBO_image_converted_meta"},{"uri":"CABIN_LIGHTS.PNG.DDS","extras":"ASOBO_image_converted_meta"}]}
