{"accessors":[{"bufferView":0,"componentType":5126,"count":5,"min":[0.0],"max":[100.0],"type":"SCALAR"},{"bufferView":1,"componentType":5126,"count":5,"type":"VEC4"},{"bufferView":0,"byteOffset":20,"componentType":5126,"count":5,"min":[0.0],"max":[100.0],"type":"SCALAR"},{"bufferView":1,"byteOffset":80,"componentType":5126,"count":5,"type":"VEC4"},{"bufferView":0,"byteOffset":40,"componentType":5126,"count":5,"min":[0.0],"max":[100.0],"type":"SCALAR"},{"bufferView":1,"byteOffset":160,"componentType":5126,"count":5,"type":"VEC4"},{"bufferView":0,"byteOffset":60,"componentType":5126,"count":5,"min":[0.0],"max":[100.0],"type":"SCALAR"},{"bufferView":1,"byteOffset":240,"componentType":5126,"count":5,"type":"VEC4"},{"bufferView":0,"byteOffset":80,"componentType":5126,"count":5,"min":[0.0],"max":[100.0],"type":"SCALAR"},{"bufferView":1,"byteOffset":320,"componentType":5126,"count":5,"type":"VEC4"},{"bufferView":0,"byteOffset":100,"componentType":5126,"count":5,"min":[0.0],"max":[100.0],"type":"SCALAR"},{"bufferView":1,"byteOffset":400,"componentType":5126,"count":5,"type":"VEC4"},{"bufferView":0,"byteOffset":120,"componentType":5126,"count":5,"min":[0.0],"max":[100.0],"type":"SCALAR"},{"bufferView":1,"byteOffset":480,"componentType":5126,"count":5,"type":"VEC4"},{"bufferView":2,"componentType":5126,"count":390,"min":[-5.486050128936768,-1.2169899940490723,-4.8091301918029789],"max":[5.486660003662109,1.284350037574768,1.7226200103759766],"type":"VEC3","name":"part000_vertices#0_POSITION"},{"bufferView":2,"byteOffset":12,"componentType":5120,"count":390,"type":"VEC4","name":"part000_vertices#0_TANGENT"},{"bufferView":2,"byteOffset":16,"componentType":5120,"count":390,"type":"VEC4","name":"part000_vertices#0_NORMAL"},{"bufferView":2,"byteOffset":20,"componentType":5122,"count":390,"type":"VEC2","name":"part000_vertices#0_TEXCOORD_0"},{"bufferView":2,"byteOffset":24,"componentType":5122,"count":390,"type":"VEC2","name":"part000_vertices#0_TEXCOORD_1"},{"bufferView":2,"byteOffset":28,"componentType":5123,"count":390,"type":"VEC4","name":"part000_vertices#0_COLOR_0"},{"bufferView":3,"componentType":5123,"count":1191,"type":"SCALAR","name":"part000_indices#0"},{"bufferView":2,"byteOffset":14040,"componentType":5126,"count":34,"min":[-0.8941400051116943,0.0,-0.8941400051116943],"max":[0.8941400051116943,0.0,0.8941400051116943],"type":"VEC3","name":"part001_vertices#0_POSITION"},{"bufferView":2,"byteOffset":14052,"componentType":5120,"count":34,"type":"VEC4","name":"part001_vertices#0_TANGENT"},{"bufferView":2,"byteOffset":14056,"componentType":5120,"count":34,"type":"VEC4","name":"part001_vertices#0_NORMAL"},{"bufferView":2,"byteOffset":14060,"componentType":5122,"count":34,"type":"VEC2","name":"part001_vertices#0_TEXCOORD_0"},{"bufferView":2,"byteOffset":14064,"componentType":5122,"count":34,"type":"VEC2","name":"part001_vertices#0_TEXCOORD_1"},{"bufferView":2,"byteOffset":14068,"componentType":5123,"count":34,"type":"VEC4","name":"part001_vertices#0_COLOR_0"},{"bufferView":3,"byteOffset":2382,"componentType":5123,"count":96,"type":"SCALAR","name":"part001_indices#0"},{"bufferView":2,"byteOffset":15264,"componentType":5126,"count":34,"min":[-0.8941400051116943,0.0,-0.8941400051116943],"max":[0.8941400051116943,0.0,0.8941400051116943],"type":"VEC3","name":"part002_vertices#0_POSITION"},{"bufferView":2,"byteOffset":15276,"componentType":5120,"count":34,"type":"VEC4","name":"part002_vertices#0_TANGENT"},{"bufferView":2,"byteOffset":15280,"componentType":5120,"count":34,"type":"VEC4","name":"part002_vertices#0_NORMAL"},{"bufferView":2,"byteOffset":15284,"componentType":5122,"count":34,"type":"VEC2","name":"part002_vertices#0_TEXCOORD_0"},{"bufferView":2,"byteOffset":15288,"componentType":5122,"count":34,"type":"VEC2","name":"part002_vertices#0_TEXCOORD_1"},{"bufferView":2,"byteOffset":15292,"componentType":5123,"count":34,"type":"VEC4","name":"part002_vertices#0_COLOR_0"},{"bufferView":3,"byteOffset":2574,"componentType":5123,"count":96,"type":"SCALAR","name":"part002_indices#0"},{"bufferView":2,"byteOffset":16488,"componentType":5126,"count":24,"min":[-0.004670000169426203,-0.21512000262737275,-0.21512000262737275],"max":[0.004670000169426203,0.21512000262737275,0.21512000262737275],"type":"VEC3","name":"part003_vertices#0_POSITION"},{"bufferView":2,"byteOffset":16500,"componentType":5120,"count":24,"type":"VEC4","name":"part003_vertices#0_TANGENT"},{"bufferView":2,"byteOffset":16504,"componentType":5120,"count":24,"type":"VEC4","name":"part003_vertices#0_NORMAL"},{"bufferView":2,"byteOffset":16508,"componentType":5122,"count":24,"type":"VEC2","name":"part003_vertices#0_TEXCOORD_0"},{"bufferView":2,"byteOffset":16512,"componentType":5122,"count":24,"type":"VEC2","name":"part003_vertices#0_TEXCOORD_1"},{"bufferView":2,"byteOffset":16516,"componentType":5123,"count":24,"type":"VEC4","name":"part003_vertices#0_COLOR_0"},{"bufferView":3,"byteOffset":2766,"componentType":5123,"count":60,"type":"SCALAR","name":"part003_indices#0"},{"bufferView":2,"byteOffset":17352,"componentType":5126,"count":24,"min":[-0.004670000169426203,-0.21512000262737275,-0.21512000262737275],"max":[0.004670000169426203,0.21512000262737275,0.21512000262737275],"type":"VEC3","name":"part004_vertices#0_POSITION"},{"bufferView":2,"byteOffset":17364,"componentType":5120,"count":24,"type":"VEC4","name":"part004_vertices#0_TANGENT"},{"bufferView":2,"byteOffset":17368,"componentType":5120,"count":24,"type":"VEC4","name":"part004_vertices#0_NORMAL"},{"bufferView":2,"byteOffset":17372,"componentType":5122,"count":24,"type":"VEC2","name":"part004_vertices#0_TEXCOORD_0"},{"bufferView":2,"byteOffset":17376,"componentType":5122,"count":24,"type":"VEC2","name":"part004_vertices#0_TEXCOORD_1"},{"bufferView":2,"byteOffset":17380,"componentType":5123,"count":24,"type":"VEC4","name":"part004_vertices#0_COLOR_0"},{"bufferView":3,"byteOffset":2886,"componentType":5123,"count":60,"type":"SCALAR","name":"part004_indices#0"},{"bufferView":2,"byteOffset":18216,"componentType":5126,"count":20,"min":[-0.025019999593496324,-0.07700999826192856,-0.08093000203371048],"max":[0.025019999593496324,0.07699000090360642,0.08099000155925751],"type":"VEC3","name":"part005_vertices#0_POSITION"},{"bufferView":2,"byteOffset":18228,"componentType":5120,"count":20,"type":"VEC4","name":"part005_vertices#0_TANGENT"},{"bufferView":2,"byteOffset":18232,"componentType":5120,"count":20,"type":"VEC4","name":"part005_vertices#0_NORMAL"},{"bufferView":2,"byteOffset":18236,"componentType":5122,"count":20,"type":"VEC2","name":"part005_vertices#0_TEXCOORD_0"},{"bufferView":2,"byteOffset":18240,"componentType":5122,"count":20,"type":"VEC2","name":"part005_vertices#0_TEXCOORD_1"},{"bufferView":2,"byteOffset":18244,"componentType":5123,"count":20,"type":"VEC4","name":"part005_vertices#0_COLOR_0"},{"bufferView":3,"byteOffset":3006,"componentType":5123,"count":48,"type":"SCALAR","name":"part005_indices#0"},{"bufferView":2,"byteOffset":18936,"componentType":5126,"count":32,"min":[-0.049070000648498538,-0.01882000081241131,-0.8963599801063538],"max":[0.049070000648498538,0.01867000013589859,0.8963599801063538],"type":"VEC3","name":"part006_vertices#0_POSITION"},{"bufferView":2,"byteOffset":18948,"componentType":5120,"count":32,"type":"VEC4","name":"part006_vertices#0_TANGENT"},{"bufferView":2,"byteOffset":18952,"componentType":5120,"count":32,"type":"VEC4","name":"part006_vertices#0_NORMAL"},{"bufferView":2,"byteOffset":18956,"componentType":5122,"count":32,"type":"VEC2","name":"part006_vertices#0_TEXCOORD_0"},{"bufferView":2,"byteOffset":18960,"componentType":5122,"count":32,"type":"VEC2","name":"part006_vertices#0_TEXCOORD_1"},{"bufferView":2,"byteOffset":18964,"componentType":5123,"count":32,"type":"VEC4","name":"part006_vertices#0_COLOR_0"},{"bufferView":3,"byteOffset":3102,"componentType":5123,"count":72,"type":"SCALAR","name":"part006_indices#0"},{"bufferView":2,"byteOffset":20088,"componentType":5126,"count":28,"min":[-1.3151299953460694,-0.46022000908851626,0.0],"max":[1.3151299953460694,0.007619999814778566,0.001829999964684248],"type":"VEC3","name":"part007_vertices#0_POSITION"},{"bufferView":2,"byteOffset":20100,"componentType":5120,"count":28,"type":"VEC4","name":"part007_vertices#0_TANGENT"},{"bufferView":2,"byteOffset":20104,"componentType":5120,"count":28,"type":"VEC4","name":"part007_vertices#0_NORMAL"},{"bufferView":2,"byteOffset":20108,"componentType":5122,"count":28,"type":"VEC2","name":"part007_vertices#0_TEXCOORD_0"},{"bufferView":2,"byteOffset":20112,"componentType":5122,"count":28,"type":"VEC2","name":"part007_vertices#0_TEXCOORD_1"},{"bufferView":2,"byteOffset":20116,"componentType":5123,"count":28,"type":"VEC4","name":"part007_vertices#0_COLOR_0"},{"bufferView":3,"byteOffset":3246,"componentType":5123,"count":60,"type":"SCALAR","name":"part007_indices#0"}],"animations":[{"name":"engine0","channels":[{"sampler":0,"target":{"node":11,"path":"rotation"}},{"sampler":1,"target":{"node":13,"path":"rotation"}},{"sampler":2,"target":{"node":25,"path":"rotation"}}],"samplers":[{"input":0,"output":1,"interpolation":"LINEAR"},{"input":2,"output":3,"interpolation":"LINEAR"},{"input":10,"output":11,"interpolation":"LINEAR"}]},{"name":"r_tire_blurred_key","channels":[{"sampler":0,"target":{"node":16,"path":"rotation"}}],"samplers":[{"input":4,"output":5,"interpolation":"LINEAR"}]},{"name":"l_tire_blurred_key","channels":[{"sampler":0,"target":{"node":19,"path":"rotation"}}],"samplers":[{"input":6,"output":7,"interpolation":"LINEAR"}]},{"name":"c_tire_blurred_key","channels":[{"sampler":0,"target":{"node":22,"path":"rotation"}}],"samplers":[{"input":8,"output":9,"interpolation":"LINEAR"}]},{"name":"elevator","channels":[{"sampler":0,"target":{"node":28,"path":"rotation"}}],"samplers":[{"input":12,"output":13,"interpolation":"LINEAR"}]}],"asset":{"generator":"ModelConverterX","version":"2.0","extensions":{"ASOBO_asset_optimized":{"BoundingBoxMax":[5.486660003662109,1.284350037574768,1.7226200103759766],"BoundingBoxMin":[-5.486050128936768,-1.2169899940490723,-4.8091301918029789],"MajorVersion":4,"MinorVersion":4,"UseCheckerboardMaterialForMissingTextures":true,"UseOnlyFilenameForImageURI":true}}},"bufferViews":[{"buffer":0,"byteLength":140,"byteStride":4},{"buffer":0,"byteLength":560,"byteStride":16,"byteOffset":140},{"buffer":0,"byteLength":21096,"byteStride":36,"byteOffset":700,"target":34962,"name":"BufferViewVertexND"},{"buffer":0,"byteLength":3366,"byteOffset":21796,"target":34963,"name":"BufferViewIndex"}],"extensionsRequired":["MSFT_texture_dds"],"materials":[{"name":"material00","occlusionTexture":{"index":1},"emissiveFactor":[0.019607843831181527,0.019607843831181527,0.019607843831181527],"pbrMetallicRoughness":{"baseColorTexture":{"index":0},"metallicRoughnessTexture":{"index":1}}},{"name":"material01","alphaMode":"BLEND","pbrMetallicRoughness":{"baseColorFactor":[0.0,0.0,0.0,0.9803919792175292],"metallicFactor":0.0,"baseColorTexture":{"index":2}}}],"meshes":[{"primitives":[{"attributes":{"COLOR_0":19,"NORMAL":16,"POSITION":14,"TANGENT":15,"TEXCOORD_0":17,"TEXCOORD_1":18},"indices":20,"material":0,"mode":4,"extras":{"ASOBO_primitive":{"PrimitiveCount":397,"VertexType":"VTX","VertexVersion":2}}}],"name":"part000"},{"primitives":[{"attributes":{"COLOR_0":26,"NORMAL":23,"POSITION":21,"TANGENT":22,"TEXCOORD_0":24,"TEXCOORD_1":25},"indices":27,"material":1,"mode":4,"extras":{"ASOBO_primitive":{"PrimitiveCount":32,"VertexType":"VTX","VertexVersion":2}}}],"name":"part001"},{"primitives":[{"attributes":{"COLOR_0":33,"NORMAL":30,"POSITION":28,"TANGENT":29,"TEXCOORD_0":31,"TEXCOORD_1":32},"indices":34,"material":1,"mode":4,"extras":{"ASOBO_primitive":{"PrimitiveCount":32,"VertexType":"VTX","VertexVersion":2}}}],"name":"part002"},{"primitives":[{"attributes":{"COLOR_0":40,"NORMAL":37,"POSITION":35,"TANGENT":36,"TEXCOORD_0":38,"TEXCOORD_1":39},"indices":41,"material":0,"mode":4,"extras":{"ASOBO_primitive":{"PrimitiveCount":20,"VertexType":"VTX","VertexVersion":2}}}],"name":"part003"},{"primitives":[{"attributes":{"COLOR_0":47,"NORMAL":44,"POSITION":42,"TANGENT":43,"TEXCOORD_0":45,"TEXCOORD_1":46},"indices":48,"material":0,"mode":4,"extras":{"ASOBO_primitive":{"PrimitiveCount":20,"VertexType":"VTX","VertexVersion":2}}}],"name":"part004"},{"primitives":[{"attributes":{"COLOR_0":54,"NORMAL":51,"POSITION":49,"TANGENT":50,"TEXCOORD_0":52,"TEXCOORD_1":53},"indices":55,"material":0,"mode":4,"extras":{"ASOBO_primitive":{"PrimitiveCount":16,"VertexType":"VTX","VertexVersion":2}}}],"name":"part005"},{"primitives":[{"attributes":{"COLOR_0":61,"NORMAL":58,"POSITION":56,"TANGENT":57,"TEXCOORD_0":59,"TEXCOORD_1":60},"indices":62,"material":0,"mode":4,"extras":{"ASOBO_primitive":{"PrimitiveCount":24,"VertexType":"VTX","VertexVersion":2}}}],"name":"part006"},{"primitives":[{"attributes":{"COLOR_0":68,"NORMAL":65,"POSITION":63,"TANGENT":64,"TEXCOORD_0":66,"TEXCOORD_1":67},"indices":69,"material":0,"mode":4,"extras":{"ASOBO_primitive":{"PrimitiveCount":20,"VertexType":"VTX","VertexVersion":2}}}],"name":"part007"}],"nodes":[{"name":"node_0","children":[1,2,3,4,5,6,7,8]},{"mesh":0,"name":"node_6"},{"translation":[6.123031769111886e-16,0.0,-5.0],"rotation":[-6.123031769111886e-17,3.061515884555943e-17,1.0,1.874575902277672e-33],"scale":[1.0,1.0,1.0],"name":"contrail1"},{"translation":[4.099999904632568,0.6499999761581421,0.379999995231629],"rotation":[-0.7071067811865475,0.0,0.0,0.7071067811865475],"scale":[1.0,1.0,1.0],"name":"Landing_Light"},{"translation":[3.950000047683716,0.6499999761581421,0.379999995231629],"rotation":[-0.7071067811865475,0.0,0.0,0.7071067811865475],"scale":[1.0,1.0,1.0],"name":"Taxi_Light"},{"translation":[5.878110731922535e-16,-0.3499999940395355,-4.800000190734863],"rotation":[-6.123031769111886e-17,3.061515884555943e-17,1.0,1.874575902277672e-33],"scale":[1.0,1.0,1.0],"name":"c_tire1"},{"translation":[1.2200000286102296,-1.350000023841858,0.2000000029802324],"rotation":[-6.123031769111886e-17,3.061515884555943e-17,1.0,1.874575902277672e-33],"scale":[1.0,1.0,1.0],"name":"l_tire1"},{"translation":[-1.2200000286102296,-1.350000023841858,0.2000000029802321],"rotation":[-6.123031769111886e-17,3.061515884555943e-17,1.0,1.874575902277672e-33],"scale":[1.0,1.0,1.0],"name":"r_tire1"},{"translation":[0.0,0.0,0.0],"rotation":[-4.329637285359677e-17,0.7071067811865475,0.7071067811865475,4.329637285359677e-17],"scale":[1.0,1.0,1.0],"name":"node_24","children":[9,14,17,20,23,26]},{"translation":[0.0,1.6225379705429076,-0.017945999279618264],"rotation":[0.0,0.0,0.0,1.0],"scale":[1.0,1.0,1.0],"name":"node_25","children":[10,12]},{"name":"prop0_slow_VC","children":[11]},{"mesh":1,"name":"engine0_AN_VC"},{"name":"prop0_blurred_VC","children":[13]},{"mesh":2,"name":"ENGINE0_AN_VC_1"},{"translation":[1.2038830518722535,0.2441290020942688,-1.1359169483184815],"rotation":[0.0,0.0,0.0,1.0],"scale":[1.0,1.0,1.0],"name":"node_35","children":[15]},{"name":"node_37","children":[16]},{"mesh":3,"name":"r_tire_blurred_key_AN_37"},{"translation":[-1.2038830518722535,0.2441290020942688,-1.1359169483184815],"rotation":[0.0,0.0,0.0,1.0],"scale":[1.0,1.0,1.0],"name":"node_42","children":[18]},{"name":"node_44","children":[19]},{"mesh":4,"name":"l_tire_blurred_key_AN_44"},{"translation":[0.0,-4.78170108795166,-0.28832200169563296],"rotation":[0.0,0.0,0.0,1.0],"scale":[1.0,1.0,1.0],"name":"node_49","children":[21]},{"name":"node_51","children":[22]},{"mesh":5,"name":"c_tire_blurred_key_AN_51"},{"translation":[0.0,1.622575044631958,-0.016488000750541688],"rotation":[0.0,0.0,0.0,1.0],"scale":[1.0,1.0,1.0],"name":"node_54","children":[24]},{"name":"prop0_still_VC","children":[25]},{"mesh":6,"name":"ENGINE0_AN_VC_2"},{"translation":[0.0,-4.3068528175354,0.14690400660037995],"rotation":[0.0,0.0,0.0,1.0],"scale":[1.0,1.0,1.0],"name":"node_63","children":[27]},{"name":"node_67","children":[28]},{"mesh":7,"name":"elevator_AN_67"}],"scene":0,"scenes":[{"nodes":[0]}],"textures":[{"extensions":{"MSFT_texture_dds":{"source":0}}},{"extensions":{"MSFT_texture_dds":{"source":1}}},{"extensions":{"MSFT_texture_dds":{"source":2}}}],"extensionsUsed":["MSFT_texture_dds","ASOBO_asset_optimized"],"buffers":[{"byteLength":25162,"uri":"HTAI Cessna 140 WP MSFS_LOD2.bin"}],"images":[{"uri":"HTAI_C140.PNG.DDS","extras":"ASOBO_image_converted_meta"},{"uri":"HTAI_C140_C.PNG.DDS","extras":"ASOBO_image_converted_meta"},{"uri":"PROP-HS.PNG.DDS","extras":"ASOBO_image_converted_meta"}]}
