{"accessors":[{"bufferView":0,"componentType":5126,"count":101,"min":[0.0],"max":[3.33333325],"type":"SCALAR","name":"accessorAnimationInput"},{"bufferView":1,"componentType":5126,"count":101,"type":"VEC3","name":"accessorAnimationPositions"},{"bufferView":0,"byteOffset":404,"componentType":5126,"count":101,"min":[0.0],"max":[3.33333325],"type":"SCALAR","name":"accessorAnimationInput"},{"bufferView":2,"componentType":5126,"count":101,"type":"VEC4","name":"accessorAnimationRotations"},{"bufferView":0,"byteOffset":808,"componentType":5126,"count":101,"min":[0.0],"max":[3.33333325],"type":"SCALAR","name":"accessorAnimationInput"},{"bufferView":1,"byteOffset":1212,"componentType":5126,"count":101,"type":"VEC3","name":"accessorAnimationScales"},{"bufferView":0,"byteOffset":1212,"componentType":5126,"count":101,"min":[0.0],"max":[3.33333325],"type":"SCALAR","name":"accessorAnimationInput"},{"bufferView":1,"byteOffset":2424,"componentType":5126,"count":101,"type":"VEC3","name":"accessorAnimationPositions"},{"bufferView":0,"byteOffset":1616,"componentType":5126,"count":101,"min":[0.0],"max":[3.33333325],"type":"SCALAR","name":"accessorAnimationInput"},{"bufferView":2,"byteOffset":1616,"componentType":5126,"count":101,"type":"VEC4","name":"accessorAnimationRotations"},{"bufferView":0,"byteOffset":2020,"componentType":5126,"count":101,"min":[0.0],"max":[3.33333325],"type":"SCALAR","name":"accessorAnimationInput"},{"bufferView":1,"byteOffset":3636,"componentType":5126,"count":101,"type":"VEC3","name":"accessorAnimationPositions"},{"bufferView":0,"byteOffset":2424,"componentType":5126,"count":101,"min":[0.0],"max":[3.33333325],"type":"SCALAR","name":"accessorAnimationInput"},{"bufferView":1,"byteOffset":4848,"componentType":5126,"count":101,"type":"VEC3","name":"accessorAnimationPositions"},{"bufferView":0,"byteOffset":2828,"componentType":5126,"count":101,"min":[0.0],"max":[3.33333325],"type":"SCALAR","name":"accessorAnimationInput"},{"bufferView":2,"byteOffset":3232,"componentType":5126,"count":101,"type":"VEC4","name":"accessorAnimationRotations"},{"bufferView":0,"byteOffset":3232,"componentType":5126,"count":101,"min":[0.0],"max":[3.33333325],"type":"SCALAR","name":"accessorAnimationInput"},{"bufferView":1,"byteOffset":6060,"componentType":5126,"count":101,"type":"VEC3","name":"accessorAnimationPositions"},{"bufferView":0,"byteOffset":3636,"componentType":5126,"count":101,"min":[0.0],"max":[3.33333325],"type":"SCALAR","name":"accessorAnimationInput"},{"bufferView":2,"byteOffset":4848,"componentType":5126,"count":101,"type":"VEC4","name":"accessorAnimationRotations"},{"bufferView":0,"byteOffset":4040,"componentType":5126,"count":101,"min":[0.0],"max":[3.33333325],"type":"SCALAR","name":"accessorAnimationInput"},{"bufferView":1,"byteOffset":7272,"componentType":5126,"count":101,"type":"VEC3","name":"accessorAnimationPositions"},{"bufferView":0,"byteOffset":4444,"componentType":5126,"count":101,"min":[0.0],"max":[3.33333325],"type":"SCALAR","name":"accessorAnimationInput"},{"bufferView":2,"byteOffset":6464,"componentType":5126,"count":101,"type":"VEC4","name":"accessorAnimationRotations"},{"bufferView":0,"byteOffset":4848,"componentType":5126,"count":101,"min":[0.0],"max":[3.33333325],"type":"SCALAR","name":"accessorAnimationInput"},{"bufferView":1,"byteOffset":8484,"componentType":5126,"count":101,"type":"VEC3","name":"accessorAnimationScales"},{"bufferView":3,"componentType":5126,"count":22,"min":[-0.7558720111846924,-0.9946020841598511,-1.3550806045532227],"max":[0.7558720111846924,0.9946021437644959,1.3550796508789063],"type":"VEC3","name":"x0_cargo_door_aft_fake_vertices#0_POSITION"},{"bufferView":3,"byteOffset":12,"componentType":5120,"count":22,"type":"VEC4","name":"x0_cargo_door_aft_fake_vertices#0_TANGENT"},{"bufferView":3,"byteOffset":16,"componentType":5120,"count":22,"type":"VEC4","name":"x0_cargo_door_aft_fake_vertices#0_NORMAL"},{"bufferView":3,"byteOffset":20,"componentType":5122,"count":22,"type":"VEC2","name":"x0_cargo_door_aft_fake_vertices#0_TEXCOORD_0"},{"bufferView":3,"byteOffset":24,"componentType":5122,"count":22,"type":"VEC2","name":"x0_cargo_door_aft_fake_vertices#0_TEXCOORD_1"},{"bufferView":3,"byteOffset":28,"componentType":5123,"count":22,"type":"VEC4","name":"x0_cargo_door_aft_fake_vertices#0_COLOR_0"},{"bufferView":4,"componentType":5123,"count":60,"type":"SCALAR","name":"x0_cargo_door_aft_fake_indices#0"},{"bufferView":3,"byteOffset":792,"componentType":5126,"count":118,"min":[-1.657699704170227,-1.9891300201416016,-2.6262283325195314],"max":[-7.152557373046875e-7,1.564621925354004e-7,0.080841064453125],"type":"VEC3","name":"x0_cargo_door_forward_vertices#0_POSITION"},{"bufferView":3,"byteOffset":804,"componentType":5120,"count":118,"type":"VEC4","name":"x0_cargo_door_forward_vertices#0_TANGENT"},{"bufferView":3,"byteOffset":808,"componentType":5120,"count":118,"type":"VEC4","name":"x0_cargo_door_forward_vertices#0_NORMAL"},{"bufferView":3,"byteOffset":812,"componentType":5122,"count":118,"type":"VEC2","name":"x0_cargo_door_forward_vertices#0_TEXCOORD_0"},{"bufferView":3,"byteOffset":816,"componentType":5122,"count":118,"type":"VEC2","name":"x0_cargo_door_forward_vertices#0_TEXCOORD_1"},{"bufferView":3,"byteOffset":820,"componentType":5123,"count":118,"type":"VEC4","name":"x0_cargo_door_forward_vertices#0_COLOR_0"},{"bufferView":4,"byteOffset":120,"componentType":5123,"count":204,"type":"SCALAR","name":"x0_cargo_door_forward_indices#0"},{"bufferView":3,"byteOffset":5040,"componentType":5126,"count":24,"min":[-0.7711708545684815,-0.9945650696754456,-1.3535346984863282],"max":[0.7711708545684815,0.9945651292800903,1.3535346984863282],"type":"VEC3","name":"x0_cargo_door_forward_fake_vertices#0_POSITION"},{"bufferView":3,"byteOffset":5052,"componentType":5120,"count":24,"type":"VEC4","name":"x0_cargo_door_forward_fake_vertices#0_TANGENT"},{"bufferView":3,"byteOffset":5056,"componentType":5120,"count":24,"type":"VEC4","name":"x0_cargo_door_forward_fake_vertices#0_NORMAL"},{"bufferView":3,"byteOffset":5060,"componentType":5122,"count":24,"type":"VEC2","name":"x0_cargo_door_forward_fake_vertices#0_TEXCOORD_0"},{"bufferView":3,"byteOffset":5064,"componentType":5122,"count":24,"type":"VEC2","name":"x0_cargo_door_forward_fake_vertices#0_TEXCOORD_1"},{"bufferView":3,"byteOffset":5068,"componentType":5123,"count":24,"type":"VEC4","name":"x0_cargo_door_forward_fake_vertices#0_COLOR_0"},{"bufferView":4,"byteOffset":528,"componentType":5123,"count":66,"type":"SCALAR","name":"x0_cargo_door_forward_fake_indices#0"},{"bufferView":3,"byteOffset":5904,"componentType":5126,"count":116,"min":[-1.355424404144287,-3.602473258972168,-0.004371166229248047],"max":[0.1464977264404297,0.0,3.883540153503418],"type":"VEC3","name":"x0_cargo_door_main_vertices#0_POSITION"},{"bufferView":3,"byteOffset":5916,"componentType":5120,"count":116,"type":"VEC4","name":"x0_cargo_door_main_vertices#0_TANGENT"},{"bufferView":3,"byteOffset":5920,"componentType":5120,"count":116,"type":"VEC4","name":"x0_cargo_door_main_vertices#0_NORMAL"},{"bufferView":3,"byteOffset":5924,"componentType":5122,"count":116,"type":"VEC2","name":"x0_cargo_door_main_vertices#0_TEXCOORD_0"},{"bufferView":3,"byteOffset":5928,"componentType":5122,"count":116,"type":"VEC2","name":"x0_cargo_door_main_vertices#0_TEXCOORD_1"},{"bufferView":3,"byteOffset":5932,"componentType":5123,"count":116,"type":"VEC4","name":"x0_cargo_door_main_vertices#0_COLOR_0"},{"bufferView":4,"byteOffset":660,"componentType":5123,"count":204,"type":"SCALAR","name":"x0_cargo_door_main_indices#1"},{"bufferView":3,"byteOffset":10080,"componentType":5126,"count":20,"min":[-0.6777124404907227,-1.8012367486953736,-1.943955898284912],"max":[0.6777122020721436,1.801236629486084,1.943955421447754],"type":"VEC3","name":"x0_cargo_door_main_fake_vertices#0_POSITION"},{"bufferView":3,"byteOffset":10092,"componentType":5120,"count":20,"type":"VEC4","name":"x0_cargo_door_main_fake_vertices#0_TANGENT"},{"bufferView":3,"byteOffset":10096,"componentType":5120,"count":20,"type":"VEC4","name":"x0_cargo_door_main_fake_vertices#0_NORMAL"},{"bufferView":3,"byteOffset":10100,"componentType":5122,"count":20,"type":"VEC2","name":"x0_cargo_door_main_fake_vertices#0_TEXCOORD_0"},{"bufferView":3,"byteOffset":10104,"componentType":5122,"count":20,"type":"VEC2","name":"x0_cargo_door_main_fake_vertices#0_TEXCOORD_1"},{"bufferView":3,"byteOffset":10108,"componentType":5123,"count":20,"type":"VEC4","name":"x0_cargo_door_main_fake_vertices#0_COLOR_0"},{"bufferView":4,"byteOffset":1068,"componentType":5123,"count":54,"type":"SCALAR","name":"x0_cargo_door_main_fake_indices#0"},{"bufferView":3,"byteOffset":10800,"componentType":5126,"count":114,"min":[-1.6287415027618409,-1.9860115051269532,-2.6440486907958986],"max":[0.0021004676818847658,0.0031927600502967836,0.06611156463623047],"type":"VEC3","name":"x0_cargo_door_aft_vertices#0_POSITION"},{"bufferView":3,"byteOffset":10812,"componentType":5120,"count":114,"type":"VEC4","name":"x0_cargo_door_aft_vertices#0_TANGENT"},{"bufferView":3,"byteOffset":10816,"componentType":5120,"count":114,"type":"VEC4","name":"x0_cargo_door_aft_vertices#0_NORMAL"},{"bufferView":3,"byteOffset":10820,"componentType":5122,"count":114,"type":"VEC2","name":"x0_cargo_door_aft_vertices#0_TEXCOORD_0"},{"bufferView":3,"byteOffset":10824,"componentType":5122,"count":114,"type":"VEC2","name":"x0_cargo_door_aft_vertices#0_TEXCOORD_1"},{"bufferView":3,"byteOffset":10828,"componentType":5123,"count":114,"type":"VEC4","name":"x0_cargo_door_aft_vertices#0_COLOR_0"},{"bufferView":4,"byteOffset":1176,"componentType":5123,"count":198,"type":"SCALAR","name":"x0_cargo_door_aft_indices#0"}],"animations":[{"name":"cargo_door_main","channels":[{"sampler":0,"target":{"node":4,"path":"translation","extensions":{"ASOBO_animation_retargeting":{"id":"x0_cargo_door_main_fake"}}}},{"sampler":1,"target":{"node":4,"path":"rotation","extensions":{"ASOBO_animation_retargeting":{"id":"x0_cargo_door_main_fake"}}}},{"sampler":2,"target":{"node":4,"path":"scale","extensions":{"ASOBO_animation_retargeting":{"id":"x0_cargo_door_main_fake"}}}},{"sampler":3,"target":{"node":3,"path":"translation","extensions":{"ASOBO_animation_retargeting":{"id":"x0_cargo_door_main"}}}},{"sampler":4,"target":{"node":3,"path":"rotation","extensions":{"ASOBO_animation_retargeting":{"id":"x0_cargo_door_main"}}}}],"samplers":[{"input":0,"output":1,"interpolation":"LINEAR"},{"input":2,"output":3,"interpolation":"LINEAR"},{"input":4,"output":5,"interpolation":"LINEAR"},{"input":6,"output":7,"interpolation":"LINEAR"},{"input":8,"output":9,"interpolation":"LINEAR"}]},{"name":"cargo_door_forward","channels":[{"sampler":0,"target":{"node":2,"path":"translation","extensions":{"ASOBO_animation_retargeting":{"id":"x0_cargo_door_forward_fake"}}}},{"sampler":1,"target":{"node":1,"path":"translation","extensions":{"ASOBO_animation_retargeting":{"id":"x0_cargo_door_forward"}}}},{"sampler":2,"target":{"node":1,"path":"rotation","extensions":{"ASOBO_animation_retargeting":{"id":"x0_cargo_door_forward"}}}}],"samplers":[{"input":10,"output":11,"interpolation":"LINEAR"},{"input":12,"output":13,"interpolation":"LINEAR"},{"input":14,"output":15,"interpolation":"LINEAR"}]},{"name":"cargo_door_aft","channels":[{"sampler":0,"target":{"node":5,"path":"translation","extensions":{"ASOBO_animation_retargeting":{"id":"x0_cargo_door_aft"}}}},{"sampler":1,"target":{"node":5,"path":"rotation","extensions":{"ASOBO_animation_retargeting":{"id":"x0_cargo_door_aft"}}}},{"sampler":2,"target":{"node":0,"path":"translation","extensions":{"ASOBO_animation_retargeting":{"id":"x0_cargo_door_aft_fake"}}}},{"sampler":3,"target":{"node":0,"path":"rotation","extensions":{"ASOBO_animation_retargeting":{"id":"x0_cargo_door_aft_fake"}}}},{"sampler":4,"target":{"node":0,"path":"scale","extensions":{"ASOBO_animation_retargeting":{"id":"x0_cargo_door_aft_fake"}}}}],"samplers":[{"input":16,"output":17,"interpolation":"LINEAR"},{"input":18,"output":19,"interpolation":"LINEAR"},{"input":20,"output":21,"interpolation":"LINEAR"},{"input":22,"output":23,"interpolation":"LINEAR"},{"input":24,"output":25,"interpolation":"LINEAR"}]}],"asset":{"generator":"babylon.js glTF exporter for 3dsmax 2021 v1.0.8378.27976","version":"2.0","extensions":{"ASOBO_asset_optimized":{"BoundingBoxMax":[0.7711708545684815,1.801236629486084,3.883540153503418],"BoundingBoxMin":[-1.657699704170227,-3.602473258972168,-2.6440486907958986],"MajorVersion":4,"MinorVersion":4,"UseCheckerboardMaterialForMissingTextures":true,"UseOnlyFilenameForImageURI":true},"ASOBO_normal_map_convention":{"tangent_space_convention":"DirectX"}}},"bufferViews":[{"buffer":0,"byteLength":5252,"name":"bufferViewAnimationFloatScalar"},{"buffer":0,"byteLength":9696,"byteOffset":5252,"name":"bufferViewAnimationFloatVec3"},{"buffer":0,"byteLength":8080,"byteOffset":14948,"name":"bufferViewAnimationFloatVec4"},{"buffer":0,"byteLength":14904,"byteStride":36,"byteOffset":23028,"target":34962,"name":"BufferViewVertexND"},{"buffer":0,"byteLength":1572,"byteOffset":37932,"target":34963,"name":"BufferViewIndex"}],"extensionsRequired":["MSFT_texture_dds"],"materials":[{"name":"T2","pbrMetallicRoughness":{"metallicFactor":0.0,"baseColorTexture":{"index":0}}},{"name":"Fuselage","occlusionTexture":{"index":2},"emissiveTexture":{"index":3},"emissiveFactor":[0.15000000596046449,0.15000000596046449,0.15000000596046449],"pbrMetallicRoughness":{"baseColorTexture":{"index":1},"metallicRoughnessTexture":{"index":2}}}],"meshes":[{"primitives":[{"attributes":{"COLOR_0":31,"NORMAL":28,"POSITION":26,"TANGENT":27,"TEXCOORD_0":29,"TEXCOORD_1":30},"indices":32,"material":0,"mode":4,"extras":{"ASOBO_primitive":{"PrimitiveCount":20,"VertexType":"VTX","VertexVersion":2}}}],"name":"x0_cargo_door_aft_fake"},{"primitives":[{"attributes":{"COLOR_0":38,"NORMAL":35,"POSITION":33,"TANGENT":34,"TEXCOORD_0":36,"TEXCOORD_1":37},"indices":39,"material":1,"mode":4,"extras":{"ASOBO_primitive":{"PrimitiveCount":68,"VertexType":"VTX","VertexVersion":2}}}],"name":"x0_cargo_door_forward"},{"primitives":[{"attributes":{"COLOR_0":45,"NORMAL":42,"POSITION":40,"TANGENT":41,"TEXCOORD_0":43,"TEXCOORD_1":44},"indices":46,"material":0,"mode":4,"extras":{"ASOBO_primitive":{"PrimitiveCount":22,"VertexType":"VTX","VertexVersion":2}}}],"name":"x0_cargo_door_forward_fake"},{"primitives":[{"attributes":{"COLOR_0":52,"NORMAL":49,"POSITION":47,"TANGENT":48,"TEXCOORD_0":50,"TEXCOORD_1":51},"indices":53,"material":1,"mode":4,"extras":{"ASOBO_primitive":{"PrimitiveCount":18,"VertexType":"VTX","VertexVersion":2}}},{"attributes":{"COLOR_0":52,"NORMAL":49,"POSITION":47,"TANGENT":48,"TEXCOORD_0":50,"TEXCOORD_1":51},"indices":53,"material":0,"mode":4,"extras":{"ASOBO_primitive":{"PrimitiveCount":50,"StartIndex":54,"VertexType":"VTX","VertexVersion":2}}}],"name":"x0_cargo_door_main"},{"primitives":[{"attributes":{"COLOR_0":59,"NORMAL":56,"POSITION":54,"TANGENT":55,"TEXCOORD_0":57,"TEXCOORD_1":58},"indices":60,"material":0,"mode":4,"extras":{"ASOBO_primitive":{"PrimitiveCount":18,"VertexType":"VTX","VertexVersion":2}}}],"name":"x0_cargo_door_main_fake"},{"primitives":[{"attributes":{"COLOR_0":66,"NORMAL":63,"POSITION":61,"TANGENT":62,"TEXCOORD_0":64,"TEXCOORD_1":65},"indices":67,"material":1,"mode":4,"extras":{"ASOBO_primitive":{"PrimitiveCount":66,"VertexType":"VTX","VertexVersion":2}}}],"name":"x0_cargo_door_aft"}],"nodes":[{"translation":[-2.24388885,-0.925937533,-10.0058432],"rotation":[0.0,-1.0,0.0,7.54978942e-8],"scale":[0.99999994,0.99999994,0.99999994],"mesh":0,"extensions":{"ASOBO_unique_id":{"id":"x0_cargo_door_aft_fake"}},"name":"cargo_door_aft_fake"},{"translation":[-3.02503014,0.06964946,18.5902672],"rotation":[0.0,-1.0,0.0,7.54979e-8],"mesh":1,"extensions":{"ASOBO_unique_id":{"id":"x0_cargo_door_forward"}},"name":"cargo_door_forward"},{"translation":[-2.27094841,-0.9249155,19.86296],"rotation":[0.0,-1.0,0.0,7.54979e-8],"mesh":2,"extensions":{"ASOBO_unique_id":{"id":"x0_cargo_door_forward_fake"}},"name":"cargo_door_forward_fake"},{"translation":[1.65485954,3.41649532,-7.685049],"rotation":[0.0,-1.0,0.0,1.94707184e-7],"mesh":3,"extensions":{"ASOBO_unique_id":{"id":"x0_cargo_door_main"}},"name":"cargo_door_main"},{"translation":[2.42489052,1.61525857,-9.624632],"rotation":[0.0,-1.0,0.0,1.94707184e-7],"scale":[0.99999994,0.99999994,0.99999994],"mesh":4,"extensions":{"ASOBO_unique_id":{"id":"x0_cargo_door_main_fake"}},"name":"cargo_door_main_fake"},{"translation":[-3.01902771,0.06547183,-11.29481],"rotation":[0.0,-1.0,0.0,7.54979e-8],"mesh":5,"extensions":{"ASOBO_unique_id":{"id":"x0_cargo_door_aft"}},"name":"cargo_door_aft"}],"scene":0,"scenes":[{"nodes":[0,1,2,3,4,5]}],"textures":[{"extensions":{"MSFT_texture_dds":{"source":0}}},{"extensions":{"MSFT_texture_dds":{"source":1}}},{"extensions":{"MSFT_texture_dds":{"source":2}}},{"extensions":{"MSFT_texture_dds":{"source":3}}}],"extensionsUsed":["ASOBO_normal_map_convention","ASOBO_unique_id","ASOBO_animation_retargeting","MSFT_texture_dds","ASOBO_asset_optimized"],"buffers":[{"byteLength":39504,"uri":"TFS_B772F_cargo.bin"}],"images":[{"uri":"TFS_B772_T2.PNG.DDS","extras":"ASOBO_image_converted_meta"},{"uri":"TFS_B772LR_T.PNG.DDS","extras":"ASOBO_image_converted_meta"},{"uri":"TFS_B772LR_C.PNG.DDS","extras":"ASOBO_image_converted_meta"},{"uri":"TFS_B772LR_L.PNG.DDS","extras":"ASOBO_image_converted_meta"}]}
