{"accessors":[{"bufferView":0,"componentType":5126,"count":102,"min":[-32.69601058959961,-4.23199987411499,-32.071998596191409],"max":[32.69601058959961,13.36400032043457,11.739999771118164],"type":"VEC3","name":"part000_vertices#0_POSITION"},{"bufferView":0,"byteOffset":12,"componentType":5120,"count":102,"type":"VEC4","name":"part000_vertices#0_TANGENT"},{"bufferView":0,"byteOffset":16,"componentType":5120,"count":102,"type":"VEC4","name":"part000_vertices#0_NORMAL"},{"bufferView":0,"byteOffset":20,"componentType":5122,"count":102,"type":"VEC2","name":"part000_vertices#0_TEXCOORD_0"},{"bufferView":0,"byteOffset":24,"componentType":5122,"count":102,"type":"VEC2","name":"part000_vertices#0_TEXCOORD_1"},{"bufferView":0,"byteOffset":28,"componentType":5123,"count":102,"type":"VEC4","name":"part000_vertices#0_COLOR_0"},{"bufferView":1,"componentType":5123,"count":204,"type":"SCALAR","name":"part000_indices#0"},{"bufferView":0,"byteOffset":3672,"componentType":5126,"count":40,"min":[-2.315999984741211,-2.4000000953674318,-31.34000015258789],"max":[2.315999984741211,4.047999858856201,31.88800048828125],"type":"VEC3","name":"part001_vertices#0_POSITION"},{"bufferView":0,"byteOffset":3684,"componentType":5120,"count":40,"type":"VEC4","name":"part001_vertices#0_TANGENT"},{"bufferView":0,"byteOffset":3688,"componentType":5120,"count":40,"type":"VEC4","name":"part001_vertices#0_NORMAL"},{"bufferView":0,"byteOffset":3692,"componentType":5122,"count":40,"type":"VEC2","name":"part001_vertices#0_TEXCOORD_0"},{"bufferView":0,"byteOffset":3696,"componentType":5122,"count":40,"type":"VEC2","name":"part001_vertices#0_TEXCOORD_1"},{"bufferView":0,"byteOffset":3700,"componentType":5123,"count":40,"type":"VEC4","name":"part001_vertices#0_COLOR_0"},{"bufferView":1,"byteOffset":408,"componentType":5123,"count":78,"type":"SCALAR","name":"part001_indices#0"}],"asset":{"generator":"ModelConverterX","version":"2.0","extensions":{"ASOBO_asset_optimized":{"BoundingBoxMax":[32.69601058959961,13.36400032043457,31.88800048828125],"BoundingBoxMin":[-32.69601058959961,-4.23199987411499,-32.071998596191409],"MajorVersion":4,"MinorVersion":4,"UseCheckerboardMaterialForMissingTextures":true,"UseOnlyFilenameForImageURI":true}}},"bufferViews":[{"buffer":0,"byteLength":5112,"byteStride":36,"target":34962,"name":"BufferViewVertexND"},{"buffer":0,"byteLength":564,"byteOffset":5112,"target":34963,"name":"BufferViewIndex"}],"extensionsRequired":["MSFT_texture_dds"],"materials":[{"name":"material00","emissiveTexture":{"index":1},"emissiveFactor":[0.019607843831181527,0.019607843831181527,0.019607843831181527],"pbrMetallicRoughness":{"metallicFactor":0.0,"baseColorTexture":{"index":0}},"extensions":{"ASOBO_material_day_night_switch":{}}}],"meshes":[{"primitives":[{"attributes":{"COLOR_0":5,"NORMAL":2,"POSITION":0,"TANGENT":1,"TEXCOORD_0":3,"TEXCOORD_1":4},"indices":6,"material":0,"mode":4,"extras":{"ASOBO_primitive":{"PrimitiveCount":68,"VertexType":"VTX","VertexVersion":2}}}],"name":"part000"},{"primitives":[{"attributes":{"COLOR_0":12,"NORMAL":9,"POSITION":7,"TANGENT":8,"TEXCOORD_0":10,"TEXCOORD_1":11},"indices":13,"material":0,"mode":4,"extras":{"ASOBO_primitive":{"PrimitiveCount":26,"VertexType":"VTX","VertexVersion":2}}}],"name":"part001"}],"nodes":[{"name":"node_0","children":[1,2,3,4,5,6,7,8,9,10,11,12,13,14,15,16,17,18,19,20,21,22,23,24,25,26,27]},{"mesh":0,"name":"custom_vis_parts_visible_00_mcx_VC"},{"mesh":1,"name":"custom_vis_parts_visible_01_mcx_VC"},{"translation":[9.720000267028809,-2.0999999046325685,3.2999999523162857],"rotation":[-6.123031769111886e-17,0.0,1.0,0.0],"scale":[1.0,1.0,1.0],"name":"contrail1"},{"translation":[-2.4282572816881185e-15,4.051814079284668,19.828880310058595],"rotation":[0.7071067811865475,-4.329637285359677e-17,4.329637285359677e-17,0.7071067811865475],"scale":[1.0,1.0,1.0],"name":"LIGHT_Beacon_Top"},{"translation":[-3.393679274890559e-16,-2.651186943054199,2.7712409496307375],"rotation":[-0.7071067811865475,-4.329637285359677e-17,-4.329637285359677e-17,0.7071067811865475],"scale":[1.0,1.0,1.0],"name":"LIGHT_Beacon_belly"},{"translation":[3.63162589073181,-0.42018800973892209,10.014479637145996],"rotation":[1.0,0.0,6.123031769111886e-17,0.0],"scale":[1.0,1.0,1.0],"name":"LIGHT_Landing_Left"},{"translation":[3.63162589073181,-0.42018800973892209,10.014479637145996],"rotation":[1.0,0.0,6.123031769111886e-17,0.0],"scale":[1.0,1.0,1.0],"name":"LIGHT_Landing_turnoff_left"},{"translation":[0.2601160109043089,-2.200985908508301,26.161710739135747],"rotation":[1.0,0.0,6.123031769111886e-17,0.0],"scale":[1.0,1.0,1.0],"name":"LIGHT_landing_nose_left"},{"translation":[-0.26011601090431538,-2.200985908508301,26.161710739135747],"rotation":[1.0,0.0,6.123031769111886e-17,0.0],"scale":[1.0,1.0,1.0],"name":"LIGHT_landing_nose_right"},{"translation":[-3.631625890731813,-0.42018800973892209,10.014490127563477],"rotation":[1.0,0.0,6.123031769111886e-17,0.0],"scale":[1.0,1.0,1.0],"name":"LIGHT_Landing_Right"},{"translation":[-0.00017600000137077824,1.4430550336837769,-31.470449447631837],"rotation":[0.0,-6.123031769111886e-17,0.0,1.0],"scale":[1.0,1.0,1.0],"name":"LIGHT_Navwhi_tail"},{"translation":[-0.00015000000712076382,2.5732219219207765,-31.470449447631837],"rotation":[0.0,-6.123031769111886e-17,0.0,1.0],"scale":[1.0,1.0,1.0],"name":"LIGHT_strobe_tail"},{"translation":[0.3101390004157988,-2.4410929679870607,26.11169052124023],"rotation":[1.0,0.0,6.123031769111886e-17,0.0],"scale":[1.0,1.0,1.0],"name":"LIGHT_Taxi_nose_left"},{"translation":[-0.3101390004158052,-2.4410929679870607,26.11169052124023],"rotation":[1.0,0.0,6.123031769111886e-17,0.0],"scale":[1.0,1.0,1.0],"name":"LIGHT_Taxi_nose_right"},{"translation":[-3.631625890731813,-0.42018800973892209,10.014479637145996],"rotation":[1.0,0.0,6.123031769111886e-17,0.0],"scale":[1.0,1.0,1.0],"name":"LIGHT_Landing_turnoff_right"},{"translation":[-30.512910842895509,2.644857883453369,-9.21305084228516],"rotation":[0.866025457881471,0.0,0.4999999063011797,0.0],"scale":[1.0,1.0,1.0],"name":"LIGHT_Nav_Green"},{"translation":[-32.486690521240237,2.812366008758545,-12.56005954742432],"rotation":[-6.123031769111886e-17,0.0,1.0,0.0],"scale":[1.0,1.0,1.0],"name":"LIGHT_Navwhi_right"},{"translation":[-30.86223030090332,2.645456075668335,-9.652438163757328],"rotation":[0.8191519723532099,0.0,0.573576539085976,0.0],"scale":[1.0,1.0,1.0],"name":"LIGHT_Strobe_Right"},{"translation":[30.512920379638673,2.6451199054718019,-9.213059425354],"rotation":[0.866025457881471,0.0,-0.49999990630117949,0.0],"scale":[1.0,1.0,1.0],"name":"LIGHT_Nav_Red"},{"translation":[32.486690521240237,2.8123691082000734,-12.560070037841792],"rotation":[-6.123031769111886e-17,0.0,1.0,0.0],"scale":[1.0,1.0,1.0],"name":"LIGHT_Navwhi_left"},{"translation":[30.86223030090332,2.6451690196990969,-9.65261363983154],"rotation":[0.8191519723532099,0.0,-0.573576539085976,0.0],"scale":[1.0,1.0,1.0],"name":"LIGHT_Strobe_Left"},{"translation":[-5.239875793457028,2.182115077972412,-25.982440948486329],"rotation":[0.6654556637059985,0.29084919429258268,-0.6097778610237586,0.31740611243688246],"scale":[1.0,1.0,1.0],"name":"LIGHT_Logolight_r"},{"translation":[5.239908218383793,2.1820969581604006,-25.982450485229493],"rotation":[0.6654556637059984,-0.29084919429258268,0.6097778610237586,0.3174061124368824],"scale":[1.0,1.0,1.0],"name":"LIGHT_Logolight_l"},{"translation":[-9.720000267028809,-2.0999999046325685,3.299999952316283],"rotation":[-6.123031769111886e-17,0.0,1.0,0.0],"scale":[1.0,1.0,1.0],"name":"contrail2"},{"translation":[5.480000019073486,-4.900000095367432,-2.4000000953674309],"rotation":[-6.123031769111886e-17,0.0,1.0,0.0],"scale":[1.0,1.0,1.0],"name":"l_tire1"},{"translation":[-5.480000019073486,-4.900000095367432,-2.4000000953674327],"rotation":[-6.123031769111886e-17,0.0,1.0,0.0],"scale":[1.0,1.0,1.0],"name":"r_tire1"},{"translation":[-3.122746202247062e-15,-4.699999809265137,25.5],"rotation":[-6.123031769111886e-17,0.0,1.0,0.0],"scale":[1.0,1.0,1.0],"name":"c_tire1"}],"scene":0,"scenes":[{"nodes":[0]}],"textures":[{"extensions":{"MSFT_texture_dds":{"source":0}}},{"extensions":{"MSFT_texture_dds":{"source":1}}}],"extensionsUsed":["ASOBO_material_day_night_switch","MSFT_texture_dds","ASOBO_asset_optimized"],"buffers":[{"byteLength":5676,"uri":"TFS_B772LR_LOD8.bin"}],"images":[{"uri":"TFS_B772LR_T.PNG.DDS","extras":"ASOBO_image_converted_meta"},{"uri":"TFS_B772LR_L.PNG.DDS","extras":"ASOBO_image_converted_meta"}]}
