{"accessors":[{"bufferView":0,"componentType":5126,"count":32,"min":[0.0],"max":[80.0],"type":"SCALAR"},{"bufferView":1,"componentType":5126,"count":32,"type":"VEC4"},{"bufferView":2,"componentType":5126,"count":134,"min":[-22.371999740600587,-4.052000045776367,-30.163999557495118],"max":[22.368000030517579,11.303999900817871,7.556000232696533],"type":"VEC3","name":"part000_vertices#0_POSITION"},{"bufferView":2,"byteOffset":12,"componentType":5120,"count":134,"type":"VEC4","name":"part000_vertices#0_TANGENT"},{"bufferView":2,"byteOffset":16,"componentType":5120,"count":134,"type":"VEC4","name":"part000_vertices#0_NORMAL"},{"bufferView":2,"byteOffset":20,"componentType":5122,"count":134,"type":"VEC2","name":"part000_vertices#0_TEXCOORD_0"},{"bufferView":2,"byteOffset":24,"componentType":5122,"count":134,"type":"VEC2","name":"part000_vertices#0_TEXCOORD_1"},{"bufferView":2,"byteOffset":28,"componentType":5123,"count":134,"type":"VEC4","name":"part000_vertices#0_COLOR_0"},{"bufferView":3,"componentType":5123,"count":222,"type":"SCALAR","name":"part000_indices#0"},{"bufferView":2,"byteOffset":4824,"componentType":5126,"count":48,"min":[-2.4839999675750734,-2.7839999198913576,-29.243999481201173],"max":[2.4839999675750734,2.8399999141693117,23.384000778198243],"type":"VEC3","name":"part001_vertices#0_POSITION"},{"bufferView":2,"byteOffset":4836,"componentType":5120,"count":48,"type":"VEC4","name":"part001_vertices#0_TANGENT"},{"bufferView":2,"byteOffset":4840,"componentType":5120,"count":48,"type":"VEC4","name":"part001_vertices#0_NORMAL"},{"bufferView":2,"byteOffset":4844,"componentType":5122,"count":48,"type":"VEC2","name":"part001_vertices#0_TEXCOORD_0"},{"bufferView":2,"byteOffset":4848,"componentType":5122,"count":48,"type":"VEC2","name":"part001_vertices#0_TEXCOORD_1"},{"bufferView":2,"byteOffset":4852,"componentType":5123,"count":48,"type":"VEC4","name":"part001_vertices#0_COLOR_0"},{"bufferView":3,"byteOffset":444,"componentType":5123,"count":84,"type":"SCALAR","name":"part001_indices#0"}],"animations":[{"name":"c_gear","channels":[{"sampler":0,"target":{"node":16,"path":"rotation"}}],"samplers":[{"input":0,"output":1,"interpolation":"LINEAR"}]}],"asset":{"generator":"ModelConverterX","version":"2.0","extensions":{"ASOBO_asset_optimized":{"BoundingBoxMax":[22.368000030517579,11.303999900817871,23.384000778198243],"BoundingBoxMin":[-22.371999740600587,-4.052000045776367,-30.163999557495118],"MajorVersion":4,"MinorVersion":4,"UseCheckerboardMaterialForMissingTextures":true,"UseOnlyFilenameForImageURI":true}}},"bufferViews":[{"buffer":0,"byteLength":128,"byteStride":4},{"buffer":0,"byteLength":512,"byteStride":16,"byteOffset":128},{"buffer":0,"byteLength":6552,"byteStride":36,"byteOffset":640,"target":34962,"name":"BufferViewVertexND"},{"buffer":0,"byteLength":612,"byteOffset":7192,"target":34963,"name":"BufferViewIndex"}],"extensionsRequired":["MSFT_texture_dds"],"materials":[{"name":"material00","emissiveTexture":{"index":1},"emissiveFactor":[0.019607843831181527,0.019607843831181527,0.019607843831181527],"pbrMetallicRoughness":{"metallicFactor":0.0,"baseColorTexture":{"index":0}},"extensions":{"ASOBO_material_day_night_switch":{}}}],"meshes":[{"primitives":[{"attributes":{"COLOR_0":7,"NORMAL":4,"POSITION":2,"TANGENT":3,"TEXCOORD_0":5,"TEXCOORD_1":6},"indices":8,"material":0,"mode":4,"extras":{"ASOBO_primitive":{"PrimitiveCount":74,"VertexType":"VTX","VertexVersion":2}}}],"name":"part000"},{"primitives":[{"attributes":{"COLOR_0":14,"NORMAL":11,"POSITION":9,"TANGENT":10,"TEXCOORD_0":12,"TEXCOORD_1":13},"indices":15,"material":0,"mode":4,"extras":{"ASOBO_primitive":{"PrimitiveCount":28,"VertexType":"VTX","VertexVersion":2}}}],"name":"part001"}],"nodes":[{"name":"node_0","children":[1,2,3,4,5,6,7,8,9,10,11,12,13]},{"mesh":0,"name":"custom_vis_parts_visible_00_mcx_VC"},{"mesh":1,"name":"custom_vis_parts_visible_01_mcx_VC"},{"translation":[7.949999809265136,-2.700000047683716,9.73562027931277e-16],"rotation":[-6.123031769111886e-17,3.061515884555943e-17,1.0,1.874575902277672e-33],"scale":[1.0,1.0,1.0],"name":"contrail1"},{"translation":[3.519999980926517,2.0299999713897707,-27.049999237060548],"rotation":[0.8712215865235667,0.27718923230744466,0.2114951256293884,-0.34555591226772278],"scale":[1.0,1.0,1.0],"name":"logo_l"},{"translation":[-3.5199999809265107,2.0299999713897707,-27.049999237060548],"rotation":[0.8712215865235669,-0.2771892323074446,-0.21149512562938825,-0.3455559122677228],"scale":[1.0,1.0,1.0],"name":"logo_r"},{"translation":[3.8299999237060544,-1.5499999523162842,-1.1000000238418577],"rotation":[-0.6755902076156602,0.0,0.0,0.737277336810124],"scale":[1.0,1.0,1.0],"name":"landing_l"},{"translation":[-3.8299999237060544,-1.5499999523162842,-1.1000000238418584],"rotation":[-0.6755902076156602,0.0,0.0,0.737277336810124],"scale":[1.0,1.0,1.0],"name":"landing_r"},{"translation":[-7.949999809265136,-2.700000047683716,-9.73562027931277e-16],"rotation":[-6.123031769111886e-17,3.061515884555943e-17,1.0,1.874575902277672e-33],"scale":[1.0,1.0,1.0],"name":"contrail2"},{"translation":[3.594219695183702e-15,2.25,-29.350000381469728],"rotation":[-5.0156939909144446e-17,-0.5735764363510462,0.8191520442889918,-3.5120267417914378e-17],"scale":[1.0,1.0,1.0],"name":"APU"},{"translation":[-1.9838623866223015e-15,-4.699999809265137,16.200000762939454],"rotation":[-6.123031769111886e-17,3.061515884555943e-17,1.0,1.874575902277672e-33],"scale":[1.0,1.0,1.0],"name":"c_tire1"},{"translation":[4.599999904632568,-4.949999809265137,-3.4999999999999997],"rotation":[-6.123031769111886e-17,3.061515884555943e-17,1.0,1.874575902277672e-33],"scale":[1.0,1.0,1.0],"name":"l_tire1"},{"translation":[-4.599999904632568,-4.949999809265137,-3.5000000000000006],"rotation":[-6.123031769111886e-17,3.061515884555943e-17,1.0,1.874575902277672e-33],"scale":[1.0,1.0,1.0],"name":"r_tire1"},{"translation":[0.0,0.0,0.0],"rotation":[-4.329637285359677e-17,0.7071067811865475,0.7071067811865475,4.329637285359677e-17],"scale":[1.0,1.0,1.0],"name":"node_43","children":[14]},{"translation":[9.99999997475243e-7,20.41657066345215,-2.7678990364074709],"rotation":[0.0,0.0,0.0,1.0],"scale":[1.0,1.0,1.0],"name":"node_44","children":[15]},{"translation":[-0.0000019999999949504856,-3.656198978424072,0.5310289859771729],"rotation":[0.0,0.0,0.0,1.0],"scale":[1.0,1.0,1.0],"name":"node_45","children":[16]},{"name":"c_gear_AN_45","children":[17,19,21,23]},{"translation":[0.41312700510025027,-0.2300020009279251,0.3396320044994354],"rotation":[-0.707104306304029,0.707109256051565,-0.0000035355214422265717,2.1212980280370907e-17],"scale":[1.0,1.0,1.0],"name":"node_84","children":[18]},{"translation":[0.0,0.0,0.0],"rotation":[0.7071067811865475,0.0,0.0,0.7071067811865475],"scale":[1.0,1.0,1.0],"name":"landing_nose_r"},{"translation":[0.413129985332489,0.22999800741672517,0.33963000774383547],"rotation":[-0.707104306304029,0.707109256051565,-0.0000035355214422265717,2.1212980280370907e-17],"scale":[1.0,1.0,1.0],"name":"node_86","children":[20]},{"translation":[0.0,0.0,0.0],"rotation":[0.7071067811865475,0.0,0.0,0.7071067811865475],"scale":[1.0,1.0,1.0],"name":"landing_nose_l"},{"translation":[0.41312700510025027,-0.2300020009279251,0.3396320044994354],"rotation":[-0.6929093711371548,0.7049297432216249,0.14097040328047329,0.05547963631520398],"scale":[1.0,1.0,1.0],"name":"node_88","children":[22]},{"translation":[0.0,0.0,0.0],"rotation":[0.7071067811865475,0.0,0.0,0.7071067811865475],"scale":[1.0,1.0,1.0],"name":"taxi_r"},{"translation":[0.413129985332489,0.22999800741672517,0.33963000774383547],"rotation":[0.7049240993513921,-0.6929140791529583,0.05548217124886641,0.14097438145488384],"scale":[1.0,1.0,1.0],"name":"node_90","children":[24]},{"translation":[0.0,0.0,0.0],"rotation":[0.7071067811865475,0.0,0.0,0.7071067811865475],"scale":[1.0,1.0,1.0],"name":"taxi_l"}],"scene":0,"scenes":[{"nodes":[0]}],"textures":[{"extensions":{"MSFT_texture_dds":{"source":0}}},{"extensions":{"MSFT_texture_dds":{"source":1}}}],"extensionsUsed":["ASOBO_material_day_night_switch","MSFT_texture_dds","ASOBO_asset_optimized"],"buffers":[{"byteLength":7804,"uri":"TFS_Airbus_A300B2-B4_GE_MSFS_LOD8.bin"}],"images":[{"uri":"TFS_A300B_GE_T.PNG.DDS","extras":"ASOBO_image_converted_meta"},{"uri":"TFS_A300B_GE_L.PNG.DDS","extras":"ASOBO_image_converted_meta"}]}
