{"accessors":[{"bufferView":0,"componentType":5126,"count":4,"min":[0.0],"max":[200.0],"type":"SCALAR"},{"bufferView":1,"componentType":5126,"count":4,"type":"VEC4"},{"bufferView":2,"componentType":5126,"count":3237,"min":[-11.612560272216797,-17.023239135742189,-1.2641799449920655],"max":[11.612560272216797,15.451359748840332,5.251589775085449],"type":"VEC3","name":"part000_vertices#0_POSITION"},{"bufferView":2,"byteOffset":12,"componentType":5120,"count":3237,"type":"VEC4","name":"part000_vertices#0_TANGENT"},{"bufferView":2,"byteOffset":16,"componentType":5120,"count":3237,"type":"VEC4","name":"part000_vertices#0_NORMAL"},{"bufferView":2,"byteOffset":20,"componentType":5122,"count":3237,"type":"VEC2","name":"part000_vertices#0_TEXCOORD_0"},{"bufferView":2,"byteOffset":24,"componentType":5122,"count":3237,"type":"VEC2","name":"part000_vertices#0_TEXCOORD_1"},{"bufferView":2,"byteOffset":28,"componentType":5123,"count":3237,"type":"VEC4","name":"part000_vertices#0_COLOR_0"},{"bufferView":3,"componentType":5123,"count":11526,"type":"SCALAR","name":"part000_indices#0"}],"animations":[{"name":"c_gear","channels":[{"sampler":0,"target":{"node":18,"path":"rotation"}}],"samplers":[{"input":0,"output":1,"interpolation":"LINEAR"}]}],"asset":{"generator":"ModelConverterX","version":"2.0","extensions":{"ASOBO_asset_optimized":{"BoundingBoxMax":[11.612560272216797,15.451359748840332,5.251589775085449],"BoundingBoxMin":[-11.612560272216797,-17.023239135742189,-1.2641799449920655],"MajorVersion":4,"MinorVersion":4,"UseCheckerboardMaterialForMissingTextures":true,"UseOnlyFilenameForImageURI":true}}},"bufferViews":[{"buffer":0,"byteLength":16,"byteStride":4},{"buffer":0,"byteLength":64,"byteStride":16,"byteOffset":16},{"buffer":0,"byteLength":116532,"byteStride":36,"byteOffset":80,"target":34962,"name":"BufferViewVertexND"},{"buffer":0,"byteLength":23052,"byteOffset":116612,"target":34963,"name":"BufferViewIndex"}],"extensionsRequired":["MSFT_texture_dds"],"materials":[{"name":"material00","emissiveTexture":{"index":1},"pbrMetallicRoughness":{"metallicFactor":0.0,"baseColorTexture":{"index":0}},"extensions":{"ASOBO_material_day_night_switch":{}}}],"meshes":[{"primitives":[{"attributes":{"COLOR_0":7,"NORMAL":4,"POSITION":2,"TANGENT":3,"TEXCOORD_0":5,"TEXCOORD_1":6},"indices":8,"material":0,"mode":4,"extras":{"ASOBO_primitive":{"PrimitiveCount":3842,"VertexType":"VTX","VertexVersion":2}}}],"name":"part000"}],"nodes":[{"name":"node_0","children":[1,2,3,4,5,6,7,8,9,10,11,12,13,14,15]},{"translation":[1.7573101644501365e-15,1.1599999666213988,-14.350000381469729],"rotation":[-5.914394520973615e-17,0.2588190451025207,0.9659258262890685,-1.584757235613936e-17],"scale":[1.0,1.0,1.0],"name":"APU"},{"translation":[-2.059999942779541,-2.119999885559082,-1.8999999761581424],"rotation":[-6.123031769111886e-17,0.0,1.0,0.0],"scale":[1.0,1.0,1.0],"name":"r_tire1"},{"translation":[2.0599999427795416,-2.119999885559082,-1.899999976158142],"rotation":[-6.123031769111886e-17,0.0,1.0,0.0],"scale":[1.0,1.0,1.0],"name":"l_tire1"},{"translation":[-1.6042343702223394e-15,-1.4700000286102296,13.100000381469729],"rotation":[-6.123031769111886e-17,0.0,1.0,0.0],"scale":[1.0,1.0,1.0],"name":"c_tire1"},{"translation":[-2.2599999904632557,1.3200000524520875,-10.5],"rotation":[-6.123031769111886e-17,0.0,1.0,0.0],"scale":[1.0,1.0,1.0],"name":"contrail2"},{"translation":[-1.8999999761581424,-0.6600000262260437,1.639999985694885],"rotation":[4.310703514591596e-17,0.7101855390073976,-0.704014559639765,4.348488617306144e-17],"scale":[1.0,1.0,1.0],"name":"landing_r2"},{"translation":[-1.6684750318527225,-0.6604840159416199,1.7760150432586668],"rotation":[4.310703514591596e-17,0.7101855390073976,-0.704014559639765,4.348488617306144e-17],"scale":[1.0,1.0,1.0],"name":"landing_r1"},{"translation":[1.6683490276336668,-0.6604840159416199,1.7760150432586673],"rotation":[4.310703514591596e-17,0.7101855390073976,-0.704014559639765,4.348488617306144e-17],"scale":[1.0,1.0,1.0],"name":"landing_l1"},{"translation":[-1.3400000333786016,0.6600000262260437,3.309999942779541],"rotation":[0.5867838151448056,0.24883731704198976,-0.28385185633886658,0.7163747593945284],"scale":[1.0,1.0,1.0],"name":"wing_r"},{"translation":[-1.389999985694884,1.4299999475479127,-9.460000038146973],"rotation":[-0.15420800026635876,0.5677510406435739,0.8034343405637396,0.09149812249786189],"scale":[1.0,1.0,1.0],"name":"logo_r"},{"translation":[1.3899999856948864,1.4299999475479127,-9.460000038146973],"rotation":[0.13256038233277879,0.5644437066836842,0.8072884264029233,-0.11007460804108192],"scale":[1.0,1.0,1.0],"name":"logo_l"},{"translation":[1.3400000333786007,0.6600000262260437,3.309999942779541],"rotation":[0.6147863962990774,-0.33327622986005597,0.21662108825115365,0.6812046957973269],"scale":[1.0,1.0,1.0],"name":"wing_l"},{"translation":[1.899999976158142,-0.6600000262260437,1.6399999856948858],"rotation":[4.310703514591596e-17,0.7101855390073976,-0.704014559639765,4.348488617306144e-17],"scale":[1.0,1.0,1.0],"name":"landing_l2"},{"translation":[2.2599999904632588,1.3200000524520875,-10.5],"rotation":[-6.123031769111886e-17,0.0,1.0,0.0],"scale":[1.0,1.0,1.0],"name":"contrail1"},{"translation":[0.0,0.0,0.0],"rotation":[-4.329637285359677e-17,0.7071067811865475,0.7071067811865475,4.329637285359677e-17],"scale":[1.0,1.0,1.0],"name":"node_17","children":[16]},{"mesh":0,"name":"node_18","children":[17]},{"translation":[0.003352999920025468,13.250269889831545,-0.5169410109519959],"rotation":[-0.5519370537884879,0.0,0.0,0.8338857767436042],"scale":[1.0,1.0,1.0],"name":"node_19","children":[18]},{"name":"c_gear_AN_19","children":[19]},{"translation":[-0.003352999920025468,-0.13973001702386279,0.2830590223760924],"rotation":[0.0,1.0,0.0,0.0],"scale":[1.0,1.0,1.0],"name":"landing_nose"}],"scene":0,"scenes":[{"nodes":[0]}],"textures":[{"extensions":{"MSFT_texture_dds":{"source":0}}},{"extensions":{"MSFT_texture_dds":{"source":1}}}],"extensionsUsed":["ASOBO_material_day_night_switch","MSFT_texture_dds","ASOBO_asset_optimized"],"buffers":[{"byteLength":139664,"uri":"RFSL_Bombardier_CRJ-700_MSFS_LOD1.bin"}],"images":[{"uri":"RFSL_CRJ700_T.PNG.DDS","extras":"ASOBO_image_converted_meta"},{"uri":"RFSL_CRJ700_L.PNG.DDS","extras":"ASOBO_image_converted_meta"}]}
