{"accessors":[{"bufferView":0,"componentType":5126,"count":6,"min":[0.0],"max":[100.0],"type":"SCALAR"},{"bufferView":1,"componentType":5126,"count":6,"type":"VEC4"},{"bufferView":2,"componentType":5126,"count":160,"min":[-9.859999656677246,-0.40799999237060549,-10.760000228881836],"max":[9.859999656677246,4.395999908447266,9.204000473022461],"type":"VEC3","name":"part000_vertices#0_POSITION"},{"bufferView":2,"byteOffset":12,"componentType":5120,"count":160,"type":"VEC4","name":"part000_vertices#0_TANGENT"},{"bufferView":2,"byteOffset":16,"componentType":5120,"count":160,"type":"VEC4","name":"part000_vertices#0_NORMAL"},{"bufferView":2,"byteOffset":20,"componentType":5122,"count":160,"type":"VEC2","name":"part000_vertices#0_TEXCOORD_0"},{"bufferView":2,"byteOffset":24,"componentType":5122,"count":160,"type":"VEC2","name":"part000_vertices#0_TEXCOORD_1"},{"bufferView":2,"byteOffset":28,"componentType":5123,"count":160,"type":"VEC4","name":"part000_vertices#0_COLOR_0"},{"bufferView":3,"componentType":5123,"count":384,"type":"SCALAR","name":"part000_indices#0"}],"animations":[{"name":"c_gear","channels":[{"sampler":0,"target":{"node":13,"path":"rotation"}}],"samplers":[{"input":0,"output":1,"interpolation":"LINEAR"}]}],"asset":{"generator":"ModelConverterX","version":"2.0","extensions":{"ASOBO_asset_optimized":{"BoundingBoxMax":[9.859999656677246,4.395999908447266,9.204000473022461],"BoundingBoxMin":[-9.859999656677246,-0.40799999237060549,-10.760000228881836],"MajorVersion":4,"MinorVersion":4,"UseCheckerboardMaterialForMissingTextures":true,"UseOnlyFilenameForImageURI":true}}},"bufferViews":[{"buffer":0,"byteLength":24,"byteStride":4},{"buffer":0,"byteLength":96,"byteStride":16,"byteOffset":24},{"buffer":0,"byteLength":5760,"byteStride":36,"byteOffset":120,"target":34962,"name":"BufferViewVertexND"},{"buffer":0,"byteLength":768,"byteOffset":5880,"target":34963,"name":"BufferViewIndex"}],"extensionsRequired":["MSFT_texture_dds"],"materials":[{"name":"material00","occlusionTexture":{"index":1},"emissiveTexture":{"index":2},"emissiveFactor":[0.019607843831181527,0.019607843831181527,0.019607843831181527],"pbrMetallicRoughness":{"baseColorTexture":{"index":0},"metallicRoughnessTexture":{"index":1}},"extensions":{"ASOBO_material_day_night_switch":{}}}],"meshes":[{"primitives":[{"attributes":{"COLOR_0":7,"NORMAL":4,"POSITION":2,"TANGENT":3,"TEXCOORD_0":5,"TEXCOORD_1":6},"indices":8,"material":0,"mode":4,"extras":{"ASOBO_primitive":{"PrimitiveCount":128,"VertexType":"VTX","VertexVersion":2}}}],"name":"part000"}],"nodes":[{"name":"node_0","children":[1,2,3,4,5,6,7,8,9,10,11]},{"mesh":0,"name":"custom_vis_parts_visible_00_mcx_VC"},{"translation":[3.299999952316284,0.30000001192092898,-0.9999999999999997],"rotation":[-6.123031769111886e-17,3.061515884555943e-17,1.0,1.874575902277672e-33],"scale":[1.0,1.0,1.0],"name":"contrail1"},{"translation":[1.6499999761581433,4.28000020980835,-9.4399995803833],"rotation":[-0.2795890500230421,-0.11936981508586885,-0.36357857051244577,0.880563134259949],"scale":[1.0,1.0,1.0],"name":"logo_l"},{"translation":[-1.649999976158141,4.28000020980835,-9.4399995803833],"rotation":[-0.27958905002304215,0.11936981508586872,0.3635785705124458,0.880563134259949],"scale":[1.0,1.0,1.0],"name":"logo_r"},{"translation":[-4.019999980926514,0.12999999523162843,1.419999957084655],"rotation":[-0.7071067811865475,0.0,0.0,0.7071067811865475],"scale":[1.0,1.0,1.0],"name":"landing_r"},{"translation":[4.019999980926514,0.12999999523162843,1.4199999570846563],"rotation":[-0.7071067811865475,0.0,0.0,0.7071067811865475],"scale":[1.0,1.0,1.0],"name":"landing_l"},{"translation":[-3.299999952316284,0.30000001192092898,-1.0000000000000005],"rotation":[-6.123031769111886e-17,3.061515884555943e-17,1.0,1.874575902277672e-33],"scale":[1.0,1.0,1.0],"name":"contrail2"},{"translation":[-8.449783958161966e-16,-1.5499999523162842,6.900000095367432],"rotation":[-6.123031769111886e-17,3.061515884555943e-17,1.0,1.874575902277672e-33],"scale":[1.0,1.0,1.0],"name":"c_tire1"},{"translation":[3.299999952316284,-1.5499999523162842,0.10000000149011652],"rotation":[-6.123031769111886e-17,3.061515884555943e-17,1.0,1.874575902277672e-33],"scale":[1.0,1.0,1.0],"name":"l_tire1"},{"translation":[-3.299999952316284,-1.5499999523162842,0.10000000149011572],"rotation":[-6.123031769111886e-17,3.061515884555943e-17,1.0,1.874575902277672e-33],"scale":[1.0,1.0,1.0],"name":"r_tire1"},{"translation":[0.0,0.0,0.0],"rotation":[-4.329637285359677e-17,0.7071067811865475,0.7071067811865475,4.329637285359677e-17],"scale":[1.0,1.0,1.0],"name":"node_19","children":[12]},{"translation":[-0.008639000356197358,7.199009895324707,-0.27980199456214907],"rotation":[0.0,0.0,0.0,1.0],"scale":[1.0,1.0,1.0],"name":"node_56","children":[13]},{"name":"c_gear_AN_56","children":[14,16,18,20]},{"translation":[-0.15098600089550019,-0.4602000117301941,0.11135900020599364],"rotation":[-0.031640250989824699,0.7246861566858733,0.030030603499099,0.687696912415217],"scale":[1.0,1.0,1.0],"name":"node_66","children":[15]},{"translation":[0.0,0.0,0.0],"rotation":[0.7071067811865475,0.0,0.0,0.7071067811865475],"scale":[1.0,1.0,1.0],"name":"taxi_l"},{"translation":[-0.15098799765110017,-0.4601979851722718,-0.12864099442958833],"rotation":[-0.03002525856185525,0.6877016244780019,0.03164527614006038,0.7246816649960655],"scale":[1.0,1.0,1.0],"name":"node_68","children":[17]},{"translation":[0.0,0.0,0.0],"rotation":[0.7071067811865475,0.0,0.0,0.7071067811865475],"scale":[1.0,1.0,1.0],"name":"taxi_r"},{"translation":[-0.15098600089550019,-0.4602000117301941,0.11135900020599364],"rotation":[0.0,0.7071092560473224,0.000004949730211990091,0.7071043062997865],"scale":[1.0,1.0,1.0],"name":"node_70","children":[19]},{"translation":[0.0,0.0,0.0],"rotation":[0.7071067811865475,0.0,0.0,0.7071067811865475],"scale":[1.0,1.0,1.0],"name":"landing_nose_l"},{"translation":[-0.15098799765110017,-0.4601979851722718,-0.12864099442958833],"rotation":[0.0,0.7071092560473224,0.000004949730211990091,0.7071043062997865],"scale":[1.0,1.0,1.0],"name":"node_72","children":[21]},{"translation":[0.0,0.0,0.0],"rotation":[0.7071067811865475,0.0,0.0,0.7071067811865475],"scale":[1.0,1.0,1.0],"name":"landing_nose_r"}],"scene":0,"scenes":[{"nodes":[0]}],"textures":[{"extensions":{"MSFT_texture_dds":{"source":0}}},{"extensions":{"MSFT_texture_dds":{"source":1}}},{"extensions":{"MSFT_texture_dds":{"source":2}}}],"extensionsUsed":["ASOBO_material_day_night_switch","MSFT_texture_dds","ASOBO_asset_optimized"],"buffers":[{"byteLength":6648,"uri":"AIA_EMB_120_MSFS_LOD4.bin"}],"images":[{"uri":"AIA_EMB_120_T.PNG.DDS","extras":"ASOBO_image_converted_meta"},{"uri":"AIA_EMB_120_C.PNG.DDS","extras":"ASOBO_image_converted_meta"},{"uri":"AIA_EMB_120_L.PNG.DDS","extras":"ASOBO_image_converted_meta"}]}
