{"accessors":[{"bufferView":0,"componentType":5126,"count":4,"min":[0.0],"max":[200.0],"type":"SCALAR"},{"bufferView":1,"componentType":5126,"count":4,"type":"VEC3"},{"bufferView":0,"byteOffset":16,"componentType":5126,"count":4,"min":[0.0],"max":[200.0],"type":"SCALAR"},{"bufferView":2,"componentType":5126,"count":4,"type":"VEC4"},{"bufferView":0,"byteOffset":32,"componentType":5126,"count":5,"min":[0.0],"max":[200.0],"type":"SCALAR"},{"bufferView":2,"byteOffset":64,"componentType":5126,"count":5,"type":"VEC4"},{"bufferView":0,"byteOffset":52,"componentType":5126,"count":6,"min":[0.0],"max":[200.0],"type":"SCALAR"},{"bufferView":1,"byteOffset":48,"componentType":5126,"count":6,"type":"VEC3"},{"bufferView":0,"byteOffset":76,"componentType":5126,"count":5,"min":[0.0],"max":[100.0],"type":"SCALAR"},{"bufferView":2,"byteOffset":144,"componentType":5126,"count":5,"type":"VEC4"},{"bufferView":0,"byteOffset":96,"componentType":5126,"count":5,"min":[0.0],"max":[200.0],"type":"SCALAR"},{"bufferView":2,"byteOffset":224,"componentType":5126,"count":5,"type":"VEC4"},{"bufferView":0,"byteOffset":116,"componentType":5126,"count":6,"min":[0.0],"max":[200.0],"type":"SCALAR"},{"bufferView":1,"byteOffset":120,"componentType":5126,"count":6,"type":"VEC3"},{"bufferView":0,"byteOffset":140,"componentType":5126,"count":5,"min":[0.0],"max":[100.0],"type":"SCALAR"},{"bufferView":2,"byteOffset":304,"componentType":5126,"count":5,"type":"VEC4"},{"bufferView":0,"byteOffset":160,"componentType":5126,"count":5,"min":[0.0],"max":[200.0],"type":"SCALAR"},{"bufferView":2,"byteOffset":384,"componentType":5126,"count":5,"type":"VEC4"},{"bufferView":0,"byteOffset":180,"componentType":5126,"count":6,"min":[0.0],"max":[200.0],"type":"SCALAR"},{"bufferView":1,"byteOffset":192,"componentType":5126,"count":6,"type":"VEC3"},{"bufferView":0,"byteOffset":204,"componentType":5126,"count":5,"min":[0.0],"max":[100.0],"type":"SCALAR"},{"bufferView":2,"byteOffset":464,"componentType":5126,"count":5,"type":"VEC4"},{"bufferView":3,"componentType":5126,"count":148,"min":[-6.823999881744385,-1.4279999732971192,-7.02400016784668],"max":[6.823999881744385,2.8320000171661379,7.064000129699707],"type":"VEC3","name":"part000_vertices#0_POSITION"},{"bufferView":3,"byteOffset":12,"componentType":5120,"count":148,"type":"VEC4","name":"part000_vertices#0_TANGENT"},{"bufferView":3,"byteOffset":16,"componentType":5120,"count":148,"type":"VEC4","name":"part000_vertices#0_NORMAL"},{"bufferView":3,"byteOffset":20,"componentType":5122,"count":148,"type":"VEC2","name":"part000_vertices#0_TEXCOORD_0"},{"bufferView":3,"byteOffset":24,"componentType":5122,"count":148,"type":"VEC2","name":"part000_vertices#0_TEXCOORD_1"},{"bufferView":3,"byteOffset":28,"componentType":5123,"count":148,"type":"VEC4","name":"part000_vertices#0_COLOR_0"},{"bufferView":4,"componentType":5123,"count":258,"type":"SCALAR","name":"part000_indices#0"},{"bufferView":3,"byteOffset":5328,"componentType":5126,"count":12,"min":[-0.06800000369548798,-0.06958000361919403,-0.3933599889278412],"max":[0.06800000369548798,0.07102999836206436,0.06451000273227692],"type":"VEC3","name":"part001_vertices#0_POSITION"},{"bufferView":3,"byteOffset":5340,"componentType":5120,"count":12,"type":"VEC4","name":"part001_vertices#0_TANGENT"},{"bufferView":3,"byteOffset":5344,"componentType":5120,"count":12,"type":"VEC4","name":"part001_vertices#0_NORMAL"},{"bufferView":3,"byteOffset":5348,"componentType":5122,"count":12,"type":"VEC2","name":"part001_vertices#0_TEXCOORD_0"},{"bufferView":3,"byteOffset":5352,"componentType":5122,"count":12,"type":"VEC2","name":"part001_vertices#0_TEXCOORD_1"},{"bufferView":3,"byteOffset":5356,"componentType":5123,"count":12,"type":"VEC4","name":"part001_vertices#0_COLOR_0"},{"bufferView":4,"byteOffset":516,"componentType":5123,"count":24,"type":"SCALAR","name":"part001_indices#0"},{"bufferView":3,"byteOffset":5760,"componentType":5126,"count":20,"min":[-0.09200000017881394,-0.256630003452301,-0.2584899961948395],"max":[0.07999999821186066,0.256630003452301,0.2584899961948395],"type":"VEC3","name":"part002_vertices#0_POSITION"},{"bufferView":3,"byteOffset":5772,"componentType":5120,"count":20,"type":"VEC4","name":"part002_vertices#0_TANGENT"},{"bufferView":3,"byteOffset":5776,"componentType":5120,"count":20,"type":"VEC4","name":"part002_vertices#0_NORMAL"},{"bufferView":3,"byteOffset":5780,"componentType":5122,"count":20,"type":"VEC2","name":"part002_vertices#0_TEXCOORD_0"},{"bufferView":3,"byteOffset":5784,"componentType":5122,"count":20,"type":"VEC2","name":"part002_vertices#0_TEXCOORD_1"},{"bufferView":3,"byteOffset":5788,"componentType":5123,"count":20,"type":"VEC4","name":"part002_vertices#0_COLOR_0"},{"bufferView":4,"byteOffset":564,"componentType":5123,"count":36,"type":"SCALAR","name":"part002_indices#0"},{"bufferView":3,"byteOffset":6480,"componentType":5126,"count":12,"min":[-0.06400000303983689,-0.06300000101327896,-0.46000000834465029],"max":[0.06400000303983689,0.061000000685453418,-0.00800000037997961],"type":"VEC3","name":"part003_vertices#0_POSITION"},{"bufferView":3,"byteOffset":6492,"componentType":5120,"count":12,"type":"VEC4","name":"part003_vertices#0_TANGENT"},{"bufferView":3,"byteOffset":6496,"componentType":5120,"count":12,"type":"VEC4","name":"part003_vertices#0_NORMAL"},{"bufferView":3,"byteOffset":6500,"componentType":5122,"count":12,"type":"VEC2","name":"part003_vertices#0_TEXCOORD_0"},{"bufferView":3,"byteOffset":6504,"componentType":5122,"count":12,"type":"VEC2","name":"part003_vertices#0_TEXCOORD_1"},{"bufferView":3,"byteOffset":6508,"componentType":5123,"count":12,"type":"VEC4","name":"part003_vertices#0_COLOR_0"},{"bufferView":4,"byteOffset":636,"componentType":5123,"count":24,"type":"SCALAR","name":"part003_indices#0"},{"bufferView":3,"byteOffset":6912,"componentType":5126,"count":20,"min":[-0.10199999809265137,-0.3190000057220459,-0.3179999887943268],"max":[0.10199999809265137,0.32100000977516177,0.3179999887943268],"type":"VEC3","name":"part004_vertices#0_POSITION"},{"bufferView":3,"byteOffset":6924,"componentType":5120,"count":20,"type":"VEC4","name":"part004_vertices#0_TANGENT"},{"bufferView":3,"byteOffset":6928,"componentType":5120,"count":20,"type":"VEC4","name":"part004_vertices#0_NORMAL"},{"bufferView":3,"byteOffset":6932,"componentType":5122,"count":20,"type":"VEC2","name":"part004_vertices#0_TEXCOORD_0"},{"bufferView":3,"byteOffset":6936,"componentType":5122,"count":20,"type":"VEC2","name":"part004_vertices#0_TEXCOORD_1"},{"bufferView":3,"byteOffset":6940,"componentType":5123,"count":20,"type":"VEC4","name":"part004_vertices#0_COLOR_0"},{"bufferView":4,"byteOffset":684,"componentType":5123,"count":36,"type":"SCALAR","name":"part004_indices#0"},{"bufferView":3,"byteOffset":7632,"componentType":5126,"count":12,"min":[-0.06400000303983689,-0.06300000101327896,-0.45983999967575076],"max":[0.06400000303983689,0.061000000685453418,-0.007840000092983246],"type":"VEC3","name":"part005_vertices#0_POSITION"},{"bufferView":3,"byteOffset":7644,"componentType":5120,"count":12,"type":"VEC4","name":"part005_vertices#0_TANGENT"},{"bufferView":3,"byteOffset":7648,"componentType":5120,"count":12,"type":"VEC4","name":"part005_vertices#0_NORMAL"},{"bufferView":3,"byteOffset":7652,"componentType":5122,"count":12,"type":"VEC2","name":"part005_vertices#0_TEXCOORD_0"},{"bufferView":3,"byteOffset":7656,"componentType":5122,"count":12,"type":"VEC2","name":"part005_vertices#0_TEXCOORD_1"},{"bufferView":3,"byteOffset":7660,"componentType":5123,"count":12,"type":"VEC4","name":"part005_vertices#0_COLOR_0"},{"bufferView":4,"byteOffset":756,"componentType":5123,"count":24,"type":"SCALAR","name":"part005_indices#0"},{"bufferView":3,"byteOffset":8064,"componentType":5126,"count":20,"min":[-0.10199999809265137,-0.3190000057220459,-0.3179999887943268],"max":[0.10199999809265137,0.32100000977516177,0.3179999887943268],"type":"VEC3","name":"part006_vertices#0_POSITION"},{"bufferView":3,"byteOffset":8076,"componentType":5120,"count":20,"type":"VEC4","name":"part006_vertices#0_TANGENT"},{"bufferView":3,"byteOffset":8080,"componentType":5120,"count":20,"type":"VEC4","name":"part006_vertices#0_NORMAL"},{"bufferView":3,"byteOffset":8084,"componentType":5122,"count":20,"type":"VEC2","name":"part006_vertices#0_TEXCOORD_0"},{"bufferView":3,"byteOffset":8088,"componentType":5122,"count":20,"type":"VEC2","name":"part006_vertices#0_TEXCOORD_1"},{"bufferView":3,"byteOffset":8092,"componentType":5123,"count":20,"type":"VEC4","name":"part006_vertices#0_COLOR_0"},{"bufferView":4,"byteOffset":804,"componentType":5123,"count":36,"type":"SCALAR","name":"part006_indices#0"}],"animations":[{"name":"custom_anim_C_WHEEL_LR","channels":[{"sampler":0,"target":{"node":14,"path":"translation"}},{"sampler":1,"target":{"node":14,"path":"rotation"}}],"samplers":[{"input":0,"output":1,"interpolation":"LINEAR"},{"input":2,"output":3,"interpolation":"LINEAR"}]},{"name":"c_gear","channels":[{"sampler":0,"target":{"node":16,"path":"rotation"}},{"sampler":1,"target":{"node":18,"path":"translation"}}],"samplers":[{"input":4,"output":5,"interpolation":"LINEAR"},{"input":6,"output":7,"interpolation":"LINEAR"}]},{"name":"c_tire_blurred_key","channels":[{"sampler":0,"target":{"node":21,"path":"rotation"}}],"samplers":[{"input":8,"output":9,"interpolation":"LINEAR"}]},{"name":"l_gear","channels":[{"sampler":0,"target":{"node":24,"path":"rotation"}},{"sampler":1,"target":{"node":26,"path":"translation"}}],"samplers":[{"input":10,"output":11,"interpolation":"LINEAR"},{"input":12,"output":13,"interpolation":"LINEAR"}]},{"name":"l_tire_blurred_key","channels":[{"sampler":0,"target":{"node":29,"path":"rotation"}}],"samplers":[{"input":14,"output":15,"interpolation":"LINEAR"}]},{"name":"r_gear","channels":[{"sampler":0,"target":{"node":32,"path":"rotation"}},{"sampler":1,"target":{"node":34,"path":"translation"}}],"samplers":[{"input":16,"output":17,"interpolation":"LINEAR"},{"input":18,"output":19,"interpolation":"LINEAR"}]},{"name":"r_tire_blurred_key","channels":[{"sampler":0,"target":{"node":37,"path":"rotation"}}],"samplers":[{"input":20,"output":21,"interpolation":"LINEAR"}]}],"asset":{"generator":"ModelConverterX","version":"2.0","extensions":{"ASOBO_asset_optimized":{"BoundingBoxMax":[6.823999881744385,2.8320000171661379,7.064000129699707],"BoundingBoxMin":[-6.823999881744385,-1.4279999732971192,-7.02400016784668],"MajorVersion":4,"MinorVersion":4,"UseCheckerboardMaterialForMissingTextures":true,"UseOnlyFilenameForImageURI":true}}},"bufferViews":[{"buffer":0,"byteLength":224,"byteStride":4},{"buffer":0,"byteLength":264,"byteStride":12,"byteOffset":224},{"buffer":0,"byteLength":544,"byteStride":16,"byteOffset":488},{"buffer":0,"byteLength":8784,"byteStride":36,"byteOffset":1032,"target":34962,"name":"BufferViewVertexND"},{"buffer":0,"byteLength":876,"byteOffset":9816,"target":34963,"name":"BufferViewIndex"}],"extensionsRequired":["MSFT_texture_dds"],"materials":[{"name":"material00","emissiveTexture":{"index":1},"emissiveFactor":[0.019607843831181527,0.019607843831181527,0.019607843831181527],"pbrMetallicRoughness":{"metallicFactor":0.0,"baseColorTexture":{"index":0}},"extensions":{"ASOBO_material_day_night_switch":{}}}],"meshes":[{"primitives":[{"attributes":{"COLOR_0":27,"NORMAL":24,"POSITION":22,"TANGENT":23,"TEXCOORD_0":25,"TEXCOORD_1":26},"indices":28,"material":0,"mode":4,"extras":{"ASOBO_primitive":{"PrimitiveCount":86,"VertexType":"VTX","VertexVersion":2}}}],"name":"part000"},{"primitives":[{"attributes":{"COLOR_0":34,"NORMAL":31,"POSITION":29,"TANGENT":30,"TEXCOORD_0":32,"TEXCOORD_1":33},"indices":35,"material":0,"mode":4,"extras":{"ASOBO_primitive":{"PrimitiveCount":8,"VertexType":"VTX","VertexVersion":2}}}],"name":"part001"},{"primitives":[{"attributes":{"COLOR_0":41,"NORMAL":38,"POSITION":36,"TANGENT":37,"TEXCOORD_0":39,"TEXCOORD_1":40},"indices":42,"material":0,"mode":4,"extras":{"ASOBO_primitive":{"PrimitiveCount":12,"VertexType":"VTX","VertexVersion":2}}}],"name":"part002"},{"primitives":[{"attributes":{"COLOR_0":48,"NORMAL":45,"POSITION":43,"TANGENT":44,"TEXCOORD_0":46,"TEXCOORD_1":47},"indices":49,"material":0,"mode":4,"extras":{"ASOBO_primitive":{"PrimitiveCount":8,"VertexType":"VTX","VertexVersion":2}}}],"name":"part003"},{"primitives":[{"attributes":{"COLOR_0":55,"NORMAL":52,"POSITION":50,"TANGENT":51,"TEXCOORD_0":53,"TEXCOORD_1":54},"indices":56,"material":0,"mode":4,"extras":{"ASOBO_primitive":{"PrimitiveCount":12,"VertexType":"VTX","VertexVersion":2}}}],"name":"part004"},{"primitives":[{"attributes":{"COLOR_0":62,"NORMAL":59,"POSITION":57,"TANGENT":58,"TEXCOORD_0":60,"TEXCOORD_1":61},"indices":63,"material":0,"mode":4,"extras":{"ASOBO_primitive":{"PrimitiveCount":8,"VertexType":"VTX","VertexVersion":2}}}],"name":"part005"},{"primitives":[{"attributes":{"COLOR_0":69,"NORMAL":66,"POSITION":64,"TANGENT":65,"TEXCOORD_0":67,"TEXCOORD_1":68},"indices":70,"material":0,"mode":4,"extras":{"ASOBO_primitive":{"PrimitiveCount":12,"VertexType":"VTX","VertexVersion":2}}}],"name":"part006"}],"nodes":[{"name":"node_0","children":[1,2,3,4,5,6,7,8,9,10,11]},{"mesh":0,"name":"node_1"},{"translation":[1.2300000190734868,0.30000001192092898,-3.5],"rotation":[-6.123031769111886e-17,3.061515884555943e-17,1.0,1.874575902277672e-33],"scale":[1.0,1.0,1.0],"name":"contrail1"},{"translation":[0.28000000119209259,-1.2599999904632569,2.549999952316284],"rotation":[-0.6853918419094086,0.07980382317402005,0.0684112006100593,0.7205479029751791],"scale":[1.0,1.0,1.0],"name":"taxi_l"},{"translation":[-0.28000000119209325,-1.2599999904632569,2.549999952316284],"rotation":[-0.6853918419094086,-0.07980382317402013,-0.06841120061005939,0.7205479029751791],"scale":[1.0,1.0,1.0],"name":"taxi_r"},{"translation":[0.28000000119209259,-1.2599999904632569,2.549999952316284],"rotation":[-0.7071067811865475,0.0,0.0,0.7071067811865475],"scale":[1.0,1.0,1.0],"name":"landing_l"},{"translation":[-0.28000000119209325,-1.2599999904632569,2.549999952316284],"rotation":[-0.7071067811865475,0.0,0.0,0.7071067811865475],"scale":[1.0,1.0,1.0],"name":"landing_r"},{"translation":[-1.230000019073486,0.30000001192092898,-3.5],"rotation":[-6.123031769111886e-17,3.061515884555943e-17,1.0,1.874575902277672e-33],"scale":[1.0,1.0,1.0],"name":"contrail2"},{"translation":[-6.245492287706561e-16,-1.899999976158142,5.099999904632568],"rotation":[-6.123031769111886e-17,3.061515884555943e-17,1.0,1.874575902277672e-33],"scale":[1.0,1.0,1.0],"name":"c_tire1"},{"translation":[1.399999976158142,-1.950000047683716,-0.3000000119209288],"rotation":[-6.123031769111886e-17,3.061515884555943e-17,1.0,1.874575902277672e-33],"scale":[1.0,1.0,1.0],"name":"l_tire1"},{"translation":[-1.399999976158142,-1.950000047683716,-0.3000000119209291],"rotation":[-6.123031769111886e-17,3.061515884555943e-17,1.0,1.874575902277672e-33],"scale":[1.0,1.0,1.0],"name":"r_tire1"},{"translation":[0.0,0.0,0.0],"rotation":[-4.329637285359677e-17,0.7071067811865475,0.7071067811865475,4.329637285359677e-17],"scale":[1.0,1.0,1.0],"name":"node_18","children":[12,22,30]},{"translation":[0.0,5.642910003662109,-0.9185000061988831],"rotation":[0.0,0.0,0.0,1.0],"scale":[1.0,1.0,1.0],"name":"node_19","children":[13]},{"name":"node_26","children":[14]},{"name":"custom_anim_C_WHEEL_LR_AN_26","children":[15]},{"translation":[0.0,-0.5490000247955322,0.039000000804662707],"rotation":[0.0,0.0,0.0,1.0],"scale":[1.0,1.0,1.0],"name":"node_27","children":[16]},{"mesh":1,"name":"c_gear_AN_27","children":[17]},{"name":"node_28","children":[18]},{"name":"c_gear_AN_28","children":[19]},{"translation":[-0.003000000026077032,-0.0010000000474974514,-0.3970000147819519],"rotation":[0.0,0.0,0.0,1.0],"scale":[1.0,1.0,1.0],"name":"node_29","children":[20]},{"translation":[0.0029299999587237837,0.0009769999887794257,-0.12793000042438508],"rotation":[0.0,0.0,0.0,1.0],"scale":[1.0,1.0,1.0],"name":"node_30","children":[21]},{"mesh":2,"name":"c_tire_blurred_key_AN_30"},{"translation":[-0.9900000095367432,-0.11500000208616256,-1.2029999494552613],"rotation":[0.0,0.0,0.0,1.0],"scale":[1.0,1.0,1.0],"name":"node_50","children":[23]},{"translation":[-0.17000000178813935,-0.07000000029802323,0.11100000143051148],"rotation":[0.0,0.0,0.0,1.0],"scale":[1.0,1.0,1.0],"name":"node_51","children":[24]},{"mesh":3,"name":"l_gear_AN_51","children":[25]},{"name":"node_52","children":[26]},{"name":"l_gear_AN_52","children":[27]},{"translation":[0.0,0.0,-0.22499999403953553],"rotation":[0.0,0.0,0.0,1.0],"scale":[1.0,1.0,1.0],"name":"node_53","children":[28]},{"translation":[-0.22168000042438508,0.0,-0.014647999778389933],"rotation":[0.0,0.0,0.0,1.0],"scale":[1.0,1.0,1.0],"name":"node_54","children":[29]},{"mesh":4,"name":"l_tire_blurred_key_AN_54"},{"translation":[0.9900000095367432,-0.11500000208616256,-1.203163981437683],"rotation":[0.0,0.0,0.0,1.0],"scale":[1.0,1.0,1.0],"name":"node_62","children":[31]},{"translation":[0.17000000178813935,-0.07000000029802323,0.11100000143051148],"rotation":[0.0,0.0,0.0,1.0],"scale":[1.0,1.0,1.0],"name":"node_63","children":[32]},{"mesh":5,"name":"r_gear_AN_63","children":[33]},{"name":"node_64","children":[34]},{"name":"r_gear_AN_64","children":[35]},{"translation":[0.0,0.0,-0.22499999403953553],"rotation":[0.0,0.0,0.0,1.0],"scale":[1.0,1.0,1.0],"name":"node_65","children":[36]},{"translation":[0.22168000042438508,0.0,-0.014647999778389933],"rotation":[0.0,0.0,0.0,1.0],"scale":[1.0,1.0,1.0],"name":"node_66","children":[37]},{"mesh":6,"name":"r_tire_blurred_key_AN_66"}],"scene":0,"scenes":[{"nodes":[0]}],"textures":[{"extensions":{"MSFT_texture_dds":{"source":0}}},{"extensions":{"MSFT_texture_dds":{"source":1}}}],"extensionsUsed":["ASOBO_material_day_night_switch","MSFT_texture_dds","ASOBO_asset_optimized"],"buffers":[{"byteLength":10692,"uri":"SBAI_Beechcraft_Premier1A_MSFS_LOD6.bin"}],"images":[{"uri":"SBAI_B_PREMIER_1A_T.PNG.DDS","extras":"ASOBO_image_converted_meta"},{"uri":"SBAI_B_PREMIER_1A_L.PNG.DDS","extras":"ASOBO_image_converted_meta"}]}
