{"accessors":[{"bufferView":0,"componentType":5126,"count":6,"min":[0.0],"max":[100.0],"type":"SCALAR"},{"bufferView":1,"componentType":5126,"count":6,"type":"VEC3"},{"bufferView":0,"byteOffset":24,"componentType":5126,"count":6,"min":[0.0],"max":[100.0],"type":"SCALAR"},{"bufferView":1,"byteOffset":72,"componentType":5126,"count":6,"type":"VEC3"},{"bufferView":2,"componentType":5126,"count":70,"min":[-18.778730392456056,-2.3314099311828615,-23.500389099121095],"max":[18.778730392456056,1.9427900314331055,23.551279067993165],"type":"VEC3","name":"part000_vertices#0_POSITION"},{"bufferView":2,"byteOffset":12,"componentType":5120,"count":70,"type":"VEC4","name":"part000_vertices#0_TANGENT"},{"bufferView":2,"byteOffset":16,"componentType":5120,"count":70,"type":"VEC4","name":"part000_vertices#0_NORMAL"},{"bufferView":2,"byteOffset":20,"componentType":5122,"count":70,"type":"VEC2","name":"part000_vertices#0_TEXCOORD_0"},{"bufferView":2,"byteOffset":24,"componentType":5122,"count":70,"type":"VEC2","name":"part000_vertices#0_TEXCOORD_1"},{"bufferView":2,"byteOffset":28,"componentType":5123,"count":70,"type":"VEC4","name":"part000_vertices#0_COLOR_0"},{"bufferView":3,"componentType":5123,"count":102,"type":"SCALAR","name":"part000_indices#0"},{"bufferView":2,"byteOffset":2520,"componentType":5126,"count":8,"min":[6.496809959411621,-3.666440010070801,1.3301399946212769],"max":[6.568429946899414,-1.1655499935150147,7.155179977416992],"type":"VEC3","name":"part001_vertices#0_POSITION"},{"bufferView":2,"byteOffset":2532,"componentType":5120,"count":8,"type":"VEC4","name":"part001_vertices#0_TANGENT"},{"bufferView":2,"byteOffset":2536,"componentType":5120,"count":8,"type":"VEC4","name":"part001_vertices#0_NORMAL"},{"bufferView":2,"byteOffset":2540,"componentType":5122,"count":8,"type":"VEC2","name":"part001_vertices#0_TEXCOORD_0"},{"bufferView":2,"byteOffset":2544,"componentType":5122,"count":8,"type":"VEC2","name":"part001_vertices#0_TEXCOORD_1"},{"bufferView":2,"byteOffset":2548,"componentType":5123,"count":8,"type":"VEC4","name":"part001_vertices#0_COLOR_0"},{"bufferView":3,"byteOffset":204,"componentType":5123,"count":12,"type":"SCALAR","name":"part001_indices#0"},{"bufferView":2,"byteOffset":2808,"componentType":5126,"count":8,"min":[-6.568439960479736,-3.666440010070801,1.3301500082015992],"max":[-6.496809959411621,-1.1655499935150147,7.155179977416992],"type":"VEC3","name":"part002_vertices#0_POSITION"},{"bufferView":2,"byteOffset":2820,"componentType":5120,"count":8,"type":"VEC4","name":"part002_vertices#0_TANGENT"},{"bufferView":2,"byteOffset":2824,"componentType":5120,"count":8,"type":"VEC4","name":"part002_vertices#0_NORMAL"},{"bufferView":2,"byteOffset":2828,"componentType":5122,"count":8,"type":"VEC2","name":"part002_vertices#0_TEXCOORD_0"},{"bufferView":2,"byteOffset":2832,"componentType":5122,"count":8,"type":"VEC2","name":"part002_vertices#0_TEXCOORD_1"},{"bufferView":2,"byteOffset":2836,"componentType":5123,"count":8,"type":"VEC4","name":"part002_vertices#0_COLOR_0"},{"bufferView":3,"byteOffset":228,"componentType":5123,"count":12,"type":"SCALAR","name":"part002_indices#0"},{"bufferView":2,"byteOffset":3096,"componentType":5126,"count":8,"min":[-0.000910000002477318,1.1753100156784058,-23.849689483642579],"max":[0.0003000000142492354,9.003789901733399,-14.34298038482666],"type":"VEC3","name":"part003_vertices#0_POSITION"},{"bufferView":2,"byteOffset":3108,"componentType":5120,"count":8,"type":"VEC4","name":"part003_vertices#0_TANGENT"},{"bufferView":2,"byteOffset":3112,"componentType":5120,"count":8,"type":"VEC4","name":"part003_vertices#0_NORMAL"},{"bufferView":2,"byteOffset":3116,"componentType":5122,"count":8,"type":"VEC2","name":"part003_vertices#0_TEXCOORD_0"},{"bufferView":2,"byteOffset":3120,"componentType":5122,"count":8,"type":"VEC2","name":"part003_vertices#0_TEXCOORD_1"},{"bufferView":2,"byteOffset":3124,"componentType":5123,"count":8,"type":"VEC4","name":"part003_vertices#0_COLOR_0"},{"bufferView":3,"byteOffset":252,"componentType":5123,"count":12,"type":"SCALAR","name":"part003_indices#0"},{"bufferView":2,"byteOffset":3384,"componentType":5126,"count":4,"min":[-0.00005999999848427251,-1.2762000560760499,-0.9815999865531921],"max":[0.003169999923557043,1.2246899604797364,1.0720900297164918],"type":"VEC3","name":"part004_vertices#0_POSITION"},{"bufferView":2,"byteOffset":3396,"componentType":5120,"count":4,"type":"VEC4","name":"part004_vertices#0_TANGENT"},{"bufferView":2,"byteOffset":3400,"componentType":5120,"count":4,"type":"VEC4","name":"part004_vertices#0_NORMAL"},{"bufferView":2,"byteOffset":3404,"componentType":5122,"count":4,"type":"VEC2","name":"part004_vertices#0_TEXCOORD_0"},{"bufferView":2,"byteOffset":3408,"componentType":5122,"count":4,"type":"VEC2","name":"part004_vertices#0_TEXCOORD_1"},{"bufferView":2,"byteOffset":3412,"componentType":5123,"count":4,"type":"VEC4","name":"part004_vertices#0_COLOR_0"},{"bufferView":3,"byteOffset":276,"componentType":5123,"count":6,"type":"SCALAR","name":"part004_indices#0"},{"bufferView":2,"byteOffset":3528,"componentType":5126,"count":4,"min":[-0.003169999923557043,-1.2762000560760499,-0.9815999865531921],"max":[0.00005999999848427251,1.2246899604797364,1.0720900297164918],"type":"VEC3","name":"part005_vertices#0_POSITION"},{"bufferView":2,"byteOffset":3540,"componentType":5120,"count":4,"type":"VEC4","name":"part005_vertices#0_TANGENT"},{"bufferView":2,"byteOffset":3544,"componentType":5120,"count":4,"type":"VEC4","name":"part005_vertices#0_NORMAL"},{"bufferView":2,"byteOffset":3548,"componentType":5122,"count":4,"type":"VEC2","name":"part005_vertices#0_TEXCOORD_0"},{"bufferView":2,"byteOffset":3552,"componentType":5122,"count":4,"type":"VEC2","name":"part005_vertices#0_TEXCOORD_1"},{"bufferView":2,"byteOffset":3556,"componentType":5123,"count":4,"type":"VEC4","name":"part005_vertices#0_COLOR_0"},{"bufferView":3,"byteOffset":288,"componentType":5123,"count":6,"type":"SCALAR","name":"part005_indices#0"}],"animations":[{"name":"custom_anim_REV_THRUST","channels":[{"sampler":0,"target":{"node":32,"path":"translation"}},{"sampler":1,"target":{"node":35,"path":"translation"}}],"samplers":[{"input":0,"output":1,"interpolation":"LINEAR"},{"input":2,"output":3,"interpolation":"LINEAR"}]}],"asset":{"generator":"ModelConverterX","version":"2.0","extensions":{"ASOBO_asset_optimized":{"BoundingBoxMax":[18.778730392456056,9.003789901733399,23.551279067993165],"BoundingBoxMin":[-18.778730392456056,-3.666440010070801,-23.849689483642579],"MajorVersion":4,"MinorVersion":4,"UseCheckerboardMaterialForMissingTextures":true,"UseOnlyFilenameForImageURI":true}}},"bufferViews":[{"buffer":0,"byteLength":48,"byteStride":4},{"buffer":0,"byteLength":144,"byteStride":12,"byteOffset":48},{"buffer":0,"byteLength":3672,"byteStride":36,"byteOffset":192,"target":34962,"name":"BufferViewVertexND"},{"buffer":0,"byteLength":300,"byteOffset":3864,"target":34963,"name":"BufferViewIndex"}],"extensionsRequired":["MSFT_texture_dds"],"materials":[{"name":"material00","occlusionTexture":{"index":1},"emissiveTexture":{"index":2},"emissiveFactor":[0.019607843831181527,0.019607843831181527,0.019607843831181527],"pbrMetallicRoughness":{"baseColorTexture":{"index":0},"metallicRoughnessTexture":{"index":1}},"extensions":{"ASOBO_material_day_night_switch":{}}}],"meshes":[{"primitives":[{"attributes":{"COLOR_0":9,"NORMAL":6,"POSITION":4,"TANGENT":5,"TEXCOORD_0":7,"TEXCOORD_1":8},"indices":10,"material":0,"mode":4,"extras":{"ASOBO_primitive":{"PrimitiveCount":34,"VertexType":"VTX","VertexVersion":2}}}],"name":"part000"},{"primitives":[{"attributes":{"COLOR_0":16,"NORMAL":13,"POSITION":11,"TANGENT":12,"TEXCOORD_0":14,"TEXCOORD_1":15},"indices":17,"material":0,"mode":4,"extras":{"ASOBO_primitive":{"PrimitiveCount":4,"VertexType":"VTX","VertexVersion":2}}}],"name":"part001"},{"primitives":[{"attributes":{"COLOR_0":23,"NORMAL":20,"POSITION":18,"TANGENT":19,"TEXCOORD_0":21,"TEXCOORD_1":22},"indices":24,"material":0,"mode":4,"extras":{"ASOBO_primitive":{"PrimitiveCount":4,"VertexType":"VTX","VertexVersion":2}}}],"name":"part002"},{"primitives":[{"attributes":{"COLOR_0":30,"NORMAL":27,"POSITION":25,"TANGENT":26,"TEXCOORD_0":28,"TEXCOORD_1":29},"indices":31,"material":0,"mode":4,"extras":{"ASOBO_primitive":{"PrimitiveCount":4,"VertexType":"VTX","VertexVersion":2}}}],"name":"part003"},{"primitives":[{"attributes":{"COLOR_0":37,"NORMAL":34,"POSITION":32,"TANGENT":33,"TEXCOORD_0":35,"TEXCOORD_1":36},"indices":38,"material":0,"mode":4,"extras":{"ASOBO_primitive":{"PrimitiveCount":2,"VertexType":"VTX","VertexVersion":2}}}],"name":"part004"},{"primitives":[{"attributes":{"COLOR_0":44,"NORMAL":41,"POSITION":39,"TANGENT":40,"TEXCOORD_0":42,"TEXCOORD_1":43},"indices":45,"material":0,"mode":4,"extras":{"ASOBO_primitive":{"PrimitiveCount":2,"VertexType":"VTX","VertexVersion":2}}}],"name":"part005"}],"nodes":[{"name":"node_0","children":[1,2,3,4,5,6,7,8,9,10,11,12,13,14,15,16,17,18,19,20,21,22,23,24,25,26,27,28,29]},{"mesh":0,"name":"custom_vis_parts_visible_00_mcx_VC"},{"mesh":1,"name":"custom_vis_parts_visible_01_mcx_VC_0"},{"mesh":2,"name":"custom_vis_parts_visible_02_mcx_VC_0"},{"mesh":3,"name":"custom_vis_parts_visible_03_mcx_VC"},{"translation":[-2.1308150089359115e-15,-4.400000095367432,17.399999618530275],"rotation":[-6.123031769111886e-17,3.061515884555943e-17,1.0,1.874575902277672e-33],"scale":[1.0,1.0,1.0],"name":"c_tire1"},{"translation":[-3.6400001049041745,-4.349999904632568,-1.3999999761581424],"rotation":[-6.123031769111886e-17,3.061515884555943e-17,1.0,1.874575902277672e-33],"scale":[1.0,1.0,1.0],"name":"r_tire1"},{"translation":[3.6400001049041745,-4.349999904632568,-1.3999999761581417],"rotation":[-6.123031769111886e-17,3.061515884555943e-17,1.0,1.874575902277672e-33],"scale":[1.0,1.0,1.0],"name":"l_tire1"},{"translation":[-6.599999904632568,-2.5,1.100000023841857],"rotation":[-6.123031769111886e-17,3.061515884555943e-17,1.0,1.874575902277672e-33],"scale":[1.0,1.0,1.0],"name":"contrail2"},{"translation":[19.029190063476564,0.4241900146007538,-4.544888019561765],"rotation":[-0.5000000000000001,0.5000000000000001,0.5,-0.5],"scale":[1.0,1.0,1.0],"name":"LIGHT_Strobe_Left"},{"translation":[18.932220458984376,0.36437198519706728,-5.294738769531247],"rotation":[0.03463426492754822,-0.014390343060827165,0.9992963283179812,-0.0004836628183467861],"scale":[1.0,1.0,1.0],"name":"LIGHT_Navwhi_l"},{"translation":[19.00027084350586,0.4594700038433075,-3.619728088378904],"rotation":[0.8929041282243176,0.010460774524574217,-0.4497676189929314,0.017940983856712574],"scale":[1.0,1.0,1.0],"name":"LIGHT_Nav_Red"},{"translation":[-18.92844009399414,0.4531230032444,-3.6650168895721459],"rotation":[0.8824795865695675,-0.0030024030391057946,0.4703098875942573,0.005419824265874499],"scale":[1.0,1.0,1.0],"name":"LIGHT_Nav_Green"},{"translation":[-18.93221092224121,0.363768994808197,-5.289494991302493],"rotation":[-0.009599107868527092,-0.003403228666816408,0.9999481357027791,0.00003266965346265165],"scale":[1.0,1.0,1.0],"name":"LIGHT_Navwhi_r"},{"translation":[-19.0548095703125,0.4470089972019195,-4.557437896728518],"rotation":[0.5,0.5,0.5000000000000001,0.5000000000000001],"scale":[1.0,1.0,1.0],"name":"LIGHT_Strobe_Right"},{"translation":[-1.4589776785009832e-16,-2.7380530834198,1.19138503074646],"rotation":[-4.329637285359677e-17,0.7071067811865475,0.7071067811865475,4.329637285359677e-17],"scale":[1.0,1.0,1.0],"name":"LIGHT_Beacon_Belly"},{"translation":[-1.9251913515809537e-15,2.0394809246063234,15.72089958190918],"rotation":[0.7071067811865475,0.0,8.659274570719354e-17,0.7071067811865475],"scale":[1.0,1.0,1.0],"name":"LIGHT_Beacon_Top"},{"translation":[2.2400000095367424,-1.1200000047683716,5.800000190734863],"rotation":[1.0,3.749151804555344e-33,1.224606353822377e-16,-3.061515884555943e-17],"scale":[1.0,1.0,1.0],"name":"LIGHT_Landing_Wing_Left"},{"translation":[-2.240000009536744,-1.1200000047683716,5.800000190734863],"rotation":[1.0,3.749151804555344e-33,1.224606353822377e-16,-3.061515884555943e-17],"scale":[1.0,1.0,1.0],"name":"LIGHT_Landing_Wing_Right"},{"translation":[-3.4100000858306864,0.7699999809265136,-19.65999984741211],"rotation":[0.7087594932875138,0.2544555524467947,-0.6034149419424671,0.26230280277647086],"scale":[1.0,1.0,1.0],"name":"LIGHT_Logolight_r"},{"translation":[0.189999997615812,-2.609999895095825,18.030000686645509],"rotation":[0.9664215911103065,-0.04052311138871865,-0.23380198891352578,-0.09860940958793327],"scale":[1.0,1.0,1.0],"name":"LIGHT_landing_turnoff_l"},{"translation":[-0.12999999523163065,-2.8399999141693117,18.079999923706056],"rotation":[1.0,3.749151804555344e-33,1.224606353822377e-16,-3.061515884555943e-17],"scale":[1.0,1.0,1.0],"name":"LIGHT_landing_nose_gear_r"},{"translation":[-2.1797992163737815e-15,-3.75,17.799999237060548],"rotation":[0.9996573249755572,0.0,0.0,-0.026176948307873227],"scale":[1.0,1.0,1.0],"name":"LIGHT_Taxi_nose"},{"translation":[0.1299999952316262,-2.8399999141693117,18.079999923706056],"rotation":[1.0,3.749151804555344e-33,1.224606353822377e-16,-3.061515884555943e-17],"scale":[1.0,1.0,1.0],"name":"LIGHT_landing_nose_gear_l"},{"translation":[-0.18999999761581644,-2.609999895095825,18.030000686645509],"rotation":[0.9664215911103065,0.04052311138871866,0.23380198891352589,-0.09860940958793327],"scale":[1.0,1.0,1.0],"name":"LIGHT_landing_turnoff_r"},{"translation":[3.4100000858306909,0.7699999809265136,-19.65999984741211],"rotation":[0.7087594932875138,-0.25445555244679476,0.6034149419424673,0.26230280277647086],"scale":[1.0,1.0,1.0],"name":"LIGHT_Logolight_l"},{"translation":[1.830000042915343,-0.4000000059604645,10.949999809265137],"rotation":[-0.3871665031172142,0.0108216063124965,0.9219334305590294,0.004872506384294527],"scale":[1.0,1.0,1.0],"name":"LIGHT_winglight_l"},{"translation":[-1.8300000429153456,-0.4000000059604645,10.949999809265137],"rotation":[0.387166503117214,0.010821606312496504,0.9219334305590294,-0.004872506384294525],"scale":[1.0,1.0,1.0],"name":"LIGHT_winglight_r"},{"translation":[6.599999904632568,-2.5,1.1000000238418589],"rotation":[-6.123031769111886e-17,3.061515884555943e-17,1.0,1.874575902277672e-33],"scale":[1.0,1.0,1.0],"name":"contrail1"},{"translation":[0.0,0.0,0.0],"rotation":[-4.329637285359677e-17,0.7071067811865475,0.7071067811865475,4.329637285359677e-17],"scale":[1.0,1.0,1.0],"name":"node_63","children":[30,34]},{"translation":[-6.558685779571533,3.608222007751465,-2.390242099761963],"rotation":[0.7070798579985406,-0.006170446723180918,-0.006170446723180918,0.7070798579985406],"scale":[1.0,1.0,1.0],"name":"node_64","children":[31]},{"name":"node_65","children":[32]},{"name":"custom_anim_REV_THRUST_AN_65","children":[33]},{"mesh":4,"name":"custom_vis_parts_visible_01_mcx_VC_1"},{"translation":[6.558685779571533,3.608222007751465,-2.390242099761963],"rotation":[0.0,0.0,0.0,1.0],"scale":[1.0,1.0,1.0],"name":"node_143","children":[35]},{"name":"custom_anim_REV_THRUST_AN_143","children":[36]},{"translation":[0.0,0.0,0.0],"rotation":[0.7070798579985406,0.006170446723180918,0.006170446723180918,0.7070798579985406],"scale":[1.0,1.0,1.0],"name":"node_144","children":[37]},{"mesh":5,"name":"custom_vis_parts_visible_02_mcx_VC_1"}],"scene":0,"scenes":[{"nodes":[0]}],"textures":[{"extensions":{"MSFT_texture_dds":{"source":0}}},{"extensions":{"MSFT_texture_dds":{"source":1}}},{"extensions":{"MSFT_texture_dds":{"source":2}}}],"extensionsUsed":["ASOBO_material_day_night_switch","MSFT_texture_dds","ASOBO_asset_optimized"],"buffers":[{"byteLength":4164,"uri":"AIG_B757-200_RR_LOD9.bin"}],"images":[{"uri":"AIG_B752_RR.PNG.DDS","extras":"ASOBO_image_converted_meta"},{"uri":"AIG_B752_RR_C.PNG.DDS","extras":"ASOBO_image_converted_meta"},{"uri":"AIG_B752_RR_L.PNG.DDS","extras":"ASOBO_image_converted_meta"}]}
