{"accessors":[{"bufferView":0,"componentType":5126,"count":3,"min":[0.0],"max":[100.0],"type":"SCALAR"},{"bufferView":1,"componentType":5126,"count":3,"type":"VEC3"},{"bufferView":0,"byteOffset":12,"componentType":5126,"count":42,"min":[0.0],"max":[100.0],"type":"SCALAR"},{"bufferView":2,"componentType":5126,"count":42,"type":"VEC4"},{"bufferView":0,"byteOffset":180,"componentType":5126,"count":3,"min":[0.0],"max":[100.0],"type":"SCALAR"},{"bufferView":1,"byteOffset":36,"componentType":5126,"count":3,"type":"VEC3"},{"bufferView":3,"componentType":5126,"count":128,"min":[-14.35200023651123,-1.8040000200271607,-19.892000198364259],"max":[14.35200023651123,7.679999828338623,16.260000228881837],"type":"VEC3","name":"part000_vertices#0_POSITION"},{"bufferView":3,"byteOffset":12,"componentType":5120,"count":128,"type":"VEC4","name":"part000_vertices#0_TANGENT"},{"bufferView":3,"byteOffset":16,"componentType":5120,"count":128,"type":"VEC4","name":"part000_vertices#0_NORMAL"},{"bufferView":3,"byteOffset":20,"componentType":5122,"count":128,"type":"VEC2","name":"part000_vertices#0_TEXCOORD_0"},{"bufferView":3,"byteOffset":24,"componentType":5122,"count":128,"type":"VEC2","name":"part000_vertices#0_TEXCOORD_1"},{"bufferView":3,"byteOffset":28,"componentType":5123,"count":128,"type":"VEC4","name":"part000_vertices#0_COLOR_0"},{"bufferView":4,"componentType":5123,"count":216,"type":"SCALAR","name":"part000_indices#0"},{"bufferView":3,"byteOffset":4608,"componentType":5126,"count":16,"min":[-4.611999988555908,-0.3302200138568878,-0.8113800287246704],"max":[4.611999988555908,0.5297799706459045,0.9686200022697449],"type":"VEC3","name":"part001_vertices#0_POSITION"},{"bufferView":3,"byteOffset":4620,"componentType":5120,"count":16,"type":"VEC4","name":"part001_vertices#0_TANGENT"},{"bufferView":3,"byteOffset":4624,"componentType":5120,"count":16,"type":"VEC4","name":"part001_vertices#0_NORMAL"},{"bufferView":3,"byteOffset":4628,"componentType":5122,"count":16,"type":"VEC2","name":"part001_vertices#0_TEXCOORD_0"},{"bufferView":3,"byteOffset":4632,"componentType":5122,"count":16,"type":"VEC2","name":"part001_vertices#0_TEXCOORD_1"},{"bufferView":3,"byteOffset":4636,"componentType":5123,"count":16,"type":"VEC4","name":"part001_vertices#0_COLOR_0"},{"bufferView":4,"byteOffset":432,"componentType":5123,"count":24,"type":"SCALAR","name":"part001_indices#0"}],"animations":[{"name":"c_gear","channels":[{"sampler":0,"target":{"node":16,"path":"translation"}},{"sampler":1,"target":{"node":18,"path":"rotation"}}],"samplers":[{"input":0,"output":1,"interpolation":"LINEAR"},{"input":2,"output":3,"interpolation":"LINEAR"}]},{"name":"custom_anim_REV_THRUST","channels":[{"sampler":0,"target":{"node":24,"path":"translation"}}],"samplers":[{"input":4,"output":5,"interpolation":"LINEAR"}]}],"asset":{"generator":"ModelConverterX","version":"2.0","extensions":{"ASOBO_asset_optimized":{"BoundingBoxMax":[14.35200023651123,7.679999828338623,16.260000228881837],"BoundingBoxMin":[-14.35200023651123,-1.8040000200271607,-19.892000198364259],"MajorVersion":4,"MinorVersion":4,"UseCheckerboardMaterialForMissingTextures":true,"UseOnlyFilenameForImageURI":true}}},"bufferViews":[{"buffer":0,"byteLength":192,"byteStride":4},{"buffer":0,"byteLength":72,"byteStride":12,"byteOffset":192},{"buffer":0,"byteLength":672,"byteStride":16,"byteOffset":264},{"buffer":0,"byteLength":5184,"byteStride":36,"byteOffset":936,"target":34962,"name":"BufferViewVertexND"},{"buffer":0,"byteLength":480,"byteOffset":6120,"target":34963,"name":"BufferViewIndex"}],"extensionsRequired":["MSFT_texture_dds"],"materials":[{"name":"material00","occlusionTexture":{"index":1},"emissiveTexture":{"index":2},"pbrMetallicRoughness":{"baseColorTexture":{"index":0},"metallicRoughnessTexture":{"index":1}},"extensions":{"ASOBO_material_day_night_switch":{}}}],"meshes":[{"primitives":[{"attributes":{"COLOR_0":11,"NORMAL":8,"POSITION":6,"TANGENT":7,"TEXCOORD_0":9,"TEXCOORD_1":10},"indices":12,"material":0,"mode":4,"extras":{"ASOBO_primitive":{"PrimitiveCount":72,"VertexType":"VTX","VertexVersion":2}}}],"name":"part000"},{"primitives":[{"attributes":{"COLOR_0":18,"NORMAL":15,"POSITION":13,"TANGENT":14,"TEXCOORD_0":16,"TEXCOORD_1":17},"indices":19,"material":0,"mode":4,"extras":{"ASOBO_primitive":{"PrimitiveCount":8,"VertexType":"VTX","VertexVersion":2}}}],"name":"part001"}],"nodes":[{"name":"node_0","children":[1,2,3,4,5,6,7,8,9,10,11,12,13,14]},{"mesh":0,"name":"cabin_lights_VC"},{"translation":[-1.469527624586853e-15,-1.7799999713897706,12.0],"rotation":[-6.123031769111886e-17,3.061515884555943e-17,1.0,1.874575902277672e-33],"scale":[1.0,1.0,1.0],"name":"c_tire1"},{"translation":[1.610000014305114,0.75,4.75],"rotation":[-0.15948302111167965,0.6072234751282594,0.5652953047495894,0.5350570396306551],"scale":[1.0,1.0,1.0],"name":"wing_l"},{"translation":[-1.6100000143051155,0.75,4.75],"rotation":[0.15948302111167965,0.6072234751282595,0.5652953047495894,-0.535057039630655],"scale":[1.0,1.0,1.0],"name":"wing_r"},{"translation":[1.6100000143051144,-0.14000000059604646,2.6700000762939455],"rotation":[-0.7044160264027587,0.0616284167162193,0.0616284167162193,0.7044160264027587],"scale":[1.0,1.0,1.0],"name":"landing_l"},{"translation":[-1.610000014305115,-0.14000000059604646,2.6700000762939455],"rotation":[-0.7044160264027587,-0.061628416716219377,-0.061628416716219377,0.7044160264027587],"scale":[1.0,1.0,1.0],"name":"landing_r"},{"translation":[2.8599998950958276,1.950000047683716,-17.1299991607666],"rotation":[0.6892248562496819,0.3174671113808461,0.575872767575583,-0.3042273595256434],"scale":[1.0,1.0,1.0],"name":"logo_l"},{"translation":[-2.859999895095823,1.950000047683716,-17.1299991607666],"rotation":[0.689224856249682,-0.3174671113808461,-0.575872767575583,-0.3042273595256435],"scale":[1.0,1.0,1.0],"name":"logo_r"},{"translation":[2.880000114440918,-2.1500000953674318,-1.7999999523162836],"rotation":[-6.123031769111886e-17,3.061515884555943e-17,1.0,1.874575902277672e-33],"scale":[1.0,1.0,1.0],"name":"l_tire1"},{"translation":[-2.880000114440918,-2.1500000953674318,-1.7999999523162847],"rotation":[-6.123031769111886e-17,3.061515884555943e-17,1.0,1.874575902277672e-33],"scale":[1.0,1.0,1.0],"name":"r_tire1"},{"translation":[2.4369665973915058e-15,1.7999999523162842,-19.899999618530275],"rotation":[-5.656943728398847e-17,-0.3826834323650898,0.9238795325112867,-2.3431828138842245e-17],"scale":[1.0,1.0,1.0],"name":"APU"},{"translation":[4.46999979019165,-0.949999988079071,-0.49999999999999947],"rotation":[-6.123031769111886e-17,3.061515884555943e-17,1.0,1.874575902277672e-33],"scale":[1.0,1.0,1.0],"name":"contrail1"},{"translation":[-4.46999979019165,-0.949999988079071,-0.5000000000000006],"rotation":[-6.123031769111886e-17,3.061515884555943e-17,1.0,1.874575902277672e-33],"scale":[1.0,1.0,1.0],"name":"contrail2"},{"translation":[0.0,0.0,0.0],"rotation":[-4.329637285359677e-17,0.7071067811865475,0.7071067811865475,4.329637285359677e-17],"scale":[1.0,1.0,1.0],"name":"node_23","children":[15,23]},{"name":"node_24","children":[16]},{"name":"c_gear_AN_24","children":[17]},{"name":"node_25","children":[18]},{"name":"c_gear_AN_25","children":[19,21]},{"translation":[0.17000000178813935,-0.959999978542328,-0.27000001072883608],"rotation":[0.0,0.0,0.0,1.0],"scale":[1.0,1.0,1.0],"name":"node_47","children":[20]},{"translation":[0.0,0.0,0.0],"rotation":[0.7071067811865475,0.0,0.0,0.7071067811865475],"scale":[1.0,1.0,1.0],"name":"landing_nose"},{"translation":[0.2199999988079071,-0.8199999928474425,-0.25],"rotation":[-0.06975642972202843,0.0,0.0,0.9975640533381481],"scale":[1.0,1.0,1.0],"name":"node_49","children":[22]},{"translation":[0.0,0.0,0.0],"rotation":[0.7071067811865475,0.0,0.0,0.7071067811865475],"scale":[1.0,1.0,1.0],"name":"taxi"},{"name":"node_57","children":[24]},{"mesh":1,"name":"custom_anim_REV_THRUST_AN_57"}],"scene":0,"scenes":[{"nodes":[0]}],"textures":[{"extensions":{"MSFT_texture_dds":{"source":0}}},{"extensions":{"MSFT_texture_dds":{"source":1}}},{"extensions":{"MSFT_texture_dds":{"source":2}}}],"extensionsUsed":["ASOBO_material_day_night_switch","MSFT_texture_dds","ASOBO_asset_optimized"],"buffers":[{"byteLength":6600,"uri":"AIA_EMB190_sat_MSFS_LOD8.bin"}],"images":[{"uri":"AIA_EMB_190_T.PNG.DDS","extras":"ASOBO_image_converted_meta"},{"uri":"AIA_EMB_190_C.PNG.DDS","extras":"ASOBO_image_converted_meta"},{"uri":"AIA_EMB_190_L.PNG.DDS","extras":"ASOBO_image_converted_meta"}]}
