{"accessors":[{"bufferView":0,"componentType":5126,"count":2,"min":[0.0],"max":[100.0],"type":"SCALAR"},{"bufferView":1,"componentType":5126,"count":2,"type":"VEC3"},{"bufferView":0,"byteOffset":8,"componentType":5126,"count":2,"min":[0.0],"max":[100.0],"type":"SCALAR"},{"bufferView":2,"componentType":5126,"count":2,"type":"VEC4"},{"bufferView":3,"componentType":5126,"count":16,"min":[-3.0121099948883058,0.013949999585747719,-8.314860343933106],"max":[3.0121099948883058,1.4297499656677247,-3.1332600116729738],"type":"VEC3","name":"part000_vertices#0_POSITION"},{"bufferView":3,"byteOffset":12,"componentType":5120,"count":16,"type":"VEC4","name":"part000_vertices#0_TANGENT"},{"bufferView":3,"byteOffset":16,"componentType":5120,"count":16,"type":"VEC4","name":"part000_vertices#0_NORMAL"},{"bufferView":3,"byteOffset":20,"componentType":5122,"count":16,"type":"VEC2","name":"part000_vertices#0_TEXCOORD_0"},{"bufferView":3,"byteOffset":24,"componentType":5122,"count":16,"type":"VEC2","name":"part000_vertices#0_TEXCOORD_1"},{"bufferView":3,"byteOffset":28,"componentType":5123,"count":16,"type":"VEC4","name":"part000_vertices#0_COLOR_0"},{"bufferView":4,"componentType":5123,"count":24,"type":"SCALAR","name":"part000_indices#0"},{"bufferView":3,"byteOffset":576,"componentType":5126,"count":116,"min":[-14.359129905700684,-1.6081700325012208,-14.56818962097168],"max":[14.359129905700684,4.659170150756836,15.137590408325196],"type":"VEC3","name":"part001_vertices#0_POSITION"},{"bufferView":3,"byteOffset":588,"componentType":5120,"count":116,"type":"VEC4","name":"part001_vertices#0_TANGENT"},{"bufferView":3,"byteOffset":592,"componentType":5120,"count":116,"type":"VEC4","name":"part001_vertices#0_NORMAL"},{"bufferView":3,"byteOffset":596,"componentType":5122,"count":116,"type":"VEC2","name":"part001_vertices#0_TEXCOORD_0"},{"bufferView":3,"byteOffset":600,"componentType":5122,"count":116,"type":"VEC2","name":"part001_vertices#0_TEXCOORD_1"},{"bufferView":3,"byteOffset":604,"componentType":5123,"count":116,"type":"VEC4","name":"part001_vertices#0_COLOR_0"},{"bufferView":4,"byteOffset":48,"componentType":5123,"count":240,"type":"SCALAR","name":"part001_indices#0"},{"bufferView":3,"byteOffset":4752,"componentType":5126,"count":6,"min":[-0.0428600013256073,0.03317999839782715,-0.7708899974822998],"max":[0.0428600013256073,0.0663599967956543,-0.508840024471283],"type":"VEC3","name":"part002_vertices#0_POSITION"},{"bufferView":3,"byteOffset":4764,"componentType":5120,"count":6,"type":"VEC4","name":"part002_vertices#0_TANGENT"},{"bufferView":3,"byteOffset":4768,"componentType":5120,"count":6,"type":"VEC4","name":"part002_vertices#0_NORMAL"},{"bufferView":3,"byteOffset":4772,"componentType":5122,"count":6,"type":"VEC2","name":"part002_vertices#0_TEXCOORD_0"},{"bufferView":3,"byteOffset":4776,"componentType":5122,"count":6,"type":"VEC2","name":"part002_vertices#0_TEXCOORD_1"},{"bufferView":3,"byteOffset":4780,"componentType":5123,"count":6,"type":"VEC4","name":"part002_vertices#0_COLOR_0"},{"bufferView":4,"byteOffset":528,"componentType":5123,"count":12,"type":"SCALAR","name":"part002_indices#0"}],"animations":[{"name":"c_gear","channels":[{"sampler":0,"target":{"node":14,"path":"translation"}},{"sampler":1,"target":{"node":16,"path":"rotation"}}],"samplers":[{"input":0,"output":1,"interpolation":"LINEAR"},{"input":2,"output":3,"interpolation":"LINEAR"}]}],"asset":{"generator":"ModelConverterX","version":"2.0","extensions":{"ASOBO_asset_optimized":{"BoundingBoxMax":[14.359129905700684,4.659170150756836,15.137590408325196],"BoundingBoxMin":[-14.359129905700684,-1.6081700325012208,-14.56818962097168],"MajorVersion":4,"MinorVersion":4,"UseCheckerboardMaterialForMissingTextures":true,"UseOnlyFilenameForImageURI":true}}},"bufferViews":[{"buffer":0,"byteLength":16,"byteStride":4},{"buffer":0,"byteLength":24,"byteStride":12,"byteOffset":16},{"buffer":0,"byteLength":32,"byteStride":16,"byteOffset":40},{"buffer":0,"byteLength":4968,"byteStride":36,"byteOffset":72,"target":34962,"name":"BufferViewVertexND"},{"buffer":0,"byteLength":552,"byteOffset":5040,"target":34963,"name":"BufferViewIndex"}],"extensionsRequired":["MSFT_texture_dds"],"materials":[{"name":"material00","emissiveTexture":{"index":1},"emissiveFactor":[0.019607843831181527,0.019607843831181527,0.019607843831181527],"pbrMetallicRoughness":{"metallicFactor":0.0,"baseColorTexture":{"index":0}},"extensions":{"ASOBO_material_day_night_switch":{}}},{"name":"material01","pbrMetallicRoughness":{"baseColorFactor":[0.03921600058674812,0.03921600058674812,0.03921600058674812,1.0],"metallicFactor":0.0}}],"meshes":[{"primitives":[{"attributes":{"COLOR_0":9,"NORMAL":6,"POSITION":4,"TANGENT":5,"TEXCOORD_0":7,"TEXCOORD_1":8},"indices":10,"material":1,"mode":4,"extras":{"ASOBO_primitive":{"PrimitiveCount":8,"VertexType":"VTX","VertexVersion":2}}}],"name":"part000"},{"primitives":[{"attributes":{"COLOR_0":16,"NORMAL":13,"POSITION":11,"TANGENT":12,"TEXCOORD_0":14,"TEXCOORD_1":15},"indices":17,"material":0,"mode":4,"extras":{"ASOBO_primitive":{"PrimitiveCount":80,"VertexType":"VTX","VertexVersion":2}}}],"name":"part001"},{"primitives":[{"attributes":{"COLOR_0":23,"NORMAL":20,"POSITION":18,"TANGENT":19,"TEXCOORD_0":21,"TEXCOORD_1":22},"indices":24,"material":0,"mode":4,"extras":{"ASOBO_primitive":{"PrimitiveCount":4,"VertexType":"VTX","VertexVersion":2}}}],"name":"part002"}],"nodes":[{"name":"node_0","children":[1,2,3,4,5,6,7,8,9,10,11,12]},{"mesh":0,"name":"node_1"},{"mesh":1,"name":"node_5"},{"translation":[2.230000019073487,0.699999988079071,-8.899999618530274],"rotation":[-6.123031769111886e-17,3.061515884555943e-17,1.0,1.874575902277672e-33],"scale":[1.0,1.0,1.0],"name":"contrail1"},{"translation":[2.5000000000000015,4.079999923706055,-12.199999809265137],"rotation":[0.5030697429215852,0.5462716612850969,0.09006338079031583,-0.6636239095106876],"scale":[1.0,1.0,1.0],"name":"logo_l"},{"translation":[-2.4999999999999988,4.079999923706055,-12.199999809265137],"rotation":[-0.5030697429215851,0.5462716612850966,0.09006338079031572,0.6636239095106876],"scale":[1.0,1.0,1.0],"name":"logo_r"},{"translation":[1.3600000143051144,-1.2400000095367432,4.099999904632568],"rotation":[-0.7064337722128922,0.030843564597232019,0.030843564597232019,0.7064337722128922],"scale":[1.0,1.0,1.0],"name":"landing_l"},{"translation":[-1.3600000143051153,-1.2400000095367432,4.099999904632568],"rotation":[-0.7064337722128922,-0.030843564597232106,-0.030843564597232106,0.7064337722128922],"scale":[1.0,1.0,1.0],"name":"landing_r"},{"translation":[-2.2300000190734856,0.699999988079071,-8.899999618530274],"rotation":[-6.123031769111886e-17,3.061515884555943e-17,1.0,1.874575902277672e-33],"scale":[1.0,1.0,1.0],"name":"contrail2"},{"translation":[-1.5307579422779716e-15,-2.5,12.5],"rotation":[-6.123031769111886e-17,3.061515884555943e-17,1.0,1.874575902277672e-33],"scale":[1.0,1.0,1.0],"name":"c_tire1"},{"translation":[2.200000047683716,-2.8499999046325685,-1.4999999999999998],"rotation":[-6.123031769111886e-17,3.061515884555943e-17,1.0,1.874575902277672e-33],"scale":[1.0,1.0,1.0],"name":"l_tire1"},{"translation":[-2.200000047683716,-2.8499999046325685,-1.5000000000000003],"rotation":[-6.123031769111886e-17,3.061515884555943e-17,1.0,1.874575902277672e-33],"scale":[1.0,1.0,1.0],"name":"r_tire1"},{"translation":[0.0,0.0,0.0],"rotation":[-4.329637285359677e-17,0.7071067811865475,0.7071067811865475,4.329637285359677e-17],"scale":[1.0,1.0,1.0],"name":"node_41","children":[13]},{"name":"node_64","children":[14]},{"name":"c_gear_AN_64","children":[15]},{"name":"node_65","children":[16]},{"mesh":2,"name":"c_gear_AN_65","children":[17,19,21,23,25,27]},{"translation":[0.10000000149011612,0.1841520071029663,-0.8728820085525512],"rotation":[0.6619891667613094,-0.03266919941646039,-0.028903032529519699,0.7482430634860159],"scale":[1.0,1.0,1.0],"name":"node_113","children":[18]},{"translation":[0.0,0.0,0.0],"rotation":[0.7071067811865475,0.0,0.0,0.7071067811865475],"scale":[1.0,1.0,1.0],"name":"landing_nose_r"},{"translation":[0.0,0.12564300000667573,-0.7750219702720642],"rotation":[0.6494478282615225,0.0,0.0,0.7604061535563688],"scale":[1.0,1.0,1.0],"name":"node_115","children":[20]},{"translation":[0.0,0.0,0.0],"rotation":[0.7071067811865475,0.0,0.0,0.7071067811865475],"scale":[1.0,1.0,1.0],"name":"taxi_nose_c"},{"translation":[0.10000000149011612,0.09482300281524658,-0.8619139790534973],"rotation":[0.6482364832189604,-0.04642137102444124,-0.03964787386089401,0.7589878487961934],"scale":[1.0,1.0,1.0],"name":"node_117","children":[22]},{"translation":[0.0,0.0,0.0],"rotation":[0.7071067811865475,0.0,0.0,0.7071067811865475],"scale":[1.0,1.0,1.0],"name":"taxi_nose_r"},{"translation":[-0.10000000149011612,0.09482300281524658,-0.8619139790534973],"rotation":[0.6482364832189604,0.04642137102444124,0.03964787386089401,0.7589878487961934],"scale":[1.0,1.0,1.0],"name":"node_119","children":[24]},{"translation":[0.0,0.0,0.0],"rotation":[0.7071067811865475,0.0,0.0,0.7071067811865475],"scale":[1.0,1.0,1.0],"name":"taxi_nose_l"},{"translation":[0.0,0.19512100517749784,-0.7835530042648315],"rotation":[0.6626197968957215,0.0,0.0,0.7489559431380948],"scale":[1.0,1.0,1.0],"name":"node_121","children":[26]},{"translation":[0.0,0.0,0.0],"rotation":[0.7071067811865475,0.0,0.0,0.7071067811865475],"scale":[1.0,1.0,1.0],"name":"landing_nose_c"},{"translation":[-0.10000000149011612,0.1841520071029663,-0.8728820085525512],"rotation":[0.6619891667613094,0.03266919941646039,0.028903032529519699,0.7482430634860159],"scale":[1.0,1.0,1.0],"name":"node_123","children":[28]},{"translation":[0.0,0.0,0.0],"rotation":[0.7071067811865475,0.0,0.0,0.7071067811865475],"scale":[1.0,1.0,1.0],"name":"landing_nose_l"}],"scene":0,"scenes":[{"nodes":[0]}],"textures":[{"extensions":{"MSFT_texture_dds":{"source":0}}},{"extensions":{"MSFT_texture_dds":{"source":1}}}],"extensionsUsed":["ASOBO_material_day_night_switch","MSFT_texture_dds","ASOBO_asset_optimized"],"buffers":[{"byteLength":5592,"uri":"HTAI Gulfstream G-V MSFS_LOD8.bin"}],"images":[{"uri":"AIGV.PNG.DDS","extras":"ASOBO_image_converted_meta"},{"uri":"CABIN_LIGHTS.PNG.DDS","extras":"ASOBO_image_converted_meta"}]}
