{"accessors":[{"bufferView":0,"componentType":5126,"count":5,"min":[0.0],"max":[200.0],"type":"SCALAR"},{"bufferView":1,"componentType":5126,"count":5,"type":"VEC4"},{"bufferView":2,"componentType":5126,"count":138,"min":[-16.551410675048829,-1.4173400402069092,-19.699600219726564],"max":[16.551410675048829,9.439519882202149,15.140000343322754],"type":"VEC3","name":"part000_vertices#0_POSITION"},{"bufferView":2,"byteOffset":12,"componentType":5120,"count":138,"type":"VEC4","name":"part000_vertices#0_TANGENT"},{"bufferView":2,"byteOffset":16,"componentType":5120,"count":138,"type":"VEC4","name":"part000_vertices#0_NORMAL"},{"bufferView":2,"byteOffset":20,"componentType":5122,"count":138,"type":"VEC2","name":"part000_vertices#0_TEXCOORD_0"},{"bufferView":2,"byteOffset":24,"componentType":5122,"count":138,"type":"VEC2","name":"part000_vertices#0_TEXCOORD_1"},{"bufferView":2,"byteOffset":28,"componentType":5123,"count":138,"type":"VEC4","name":"part000_vertices#0_COLOR_0"},{"bufferView":3,"componentType":5123,"count":162,"type":"SCALAR","name":"part000_indices#0"}],"animations":[{"name":"c_gear","channels":[{"sampler":0,"target":{"node":16,"path":"rotation"}}],"samplers":[{"input":0,"output":1,"interpolation":"LINEAR"}]}],"asset":{"generator":"ModelConverterX 1.8.250711-devrel","version":"2.0","extensions":{"ASOBO_asset_optimized":{"BoundingBoxMax":[16.551410675048829,9.439519882202149,15.140000343322754],"BoundingBoxMin":[-16.551410675048829,-1.4173400402069092,-19.699600219726564],"MajorVersion":4,"MinorVersion":4,"UseCheckerboardMaterialForMissingTextures":true,"UseOnlyFilenameForImageURI":true}}},"bufferViews":[{"buffer":0,"byteLength":20,"byteStride":4},{"buffer":0,"byteLength":80,"byteStride":16,"byteOffset":20},{"buffer":0,"byteLength":4968,"byteStride":36,"byteOffset":100,"target":34962,"name":"BufferViewVertexND"},{"buffer":0,"byteLength":324,"byteOffset":5068,"target":34963,"name":"BufferViewIndex"}],"extensionsRequired":["MSFT_texture_dds"],"materials":[{"name":"material00","emissiveTexture":{"index":1},"pbrMetallicRoughness":{"metallicFactor":0.0,"baseColorTexture":{"index":0}},"extensions":{"ASOBO_material_day_night_switch":{}}}],"meshes":[{"primitives":[{"attributes":{"COLOR_0":7,"NORMAL":4,"POSITION":2,"TANGENT":3,"TEXCOORD_0":5,"TEXCOORD_1":6},"indices":8,"material":0,"mode":4,"extras":{"ASOBO_primitive":{"PrimitiveCount":54,"VertexType":"VTX","VertexVersion":2}}}],"name":"part000"}],"nodes":[{"name":"node_0","children":[1,2,3,4,5,6,7,8,9,10,11,12,13,14]},{"mesh":0,"name":"node_10"},{"translation":[-2.9999999999999997,-1.9900000095367432,-1.8999999761581424],"rotation":[-6.123233995736766e-17,0.0,1.0,0.0],"scale":[1.0,1.0,1.0],"name":"r_tire1"},{"translation":[3.0000000000000006,-1.9900000095367432,-1.8999999761581417],"rotation":[-6.123233995736766e-17,0.0,1.0,0.0],"scale":[1.0,1.0,1.0],"name":"l_tire1"},{"translation":[-1.4205903337274978e-15,-1.7899999618530272,11.600000381469729],"rotation":[-6.123233995736766e-17,0.0,1.0,0.0],"scale":[1.0,1.0,1.0],"name":"c_tire1"},{"translation":[2.4125542877534219e-15,2.5899999141693117,-19.700000762939454],"rotation":[-5.753957398154815e-17,-0.3420204051211849,0.939692534416832,-2.094270971873701e-17],"scale":[1.0000000772679983,1.0,1.0],"name":"APU"},{"translation":[-5.53000020980835,-0.36000001430511477,-6.772297056225987e-16],"rotation":[-6.123233995736766e-17,0.0,1.0,0.0],"scale":[1.0,1.0,1.0],"name":"contrail2"},{"translation":[0.9800000190734856,-0.3199999928474426,5.369999885559082],"rotation":[-0.7071067811865475,-4.3297802811774667e-17,-4.3297802811774667e-17,0.7071067811865475],"scale":[1.0,1.0,1.0],"name":"landing_l"},{"translation":[-0.980000019073487,-0.3199999928474426,5.369999885559082],"rotation":[-0.7071067811865475,-4.3297802811774667e-17,-4.3297802811774667e-17,0.7071067811865475],"scale":[1.0,1.0,1.0],"name":"landing_r"},{"translation":[-3.11999988555908,2.630000114440918,-16.690000534057618],"rotation":[0.7707594254745543,-0.2890028202482606,-0.46807646343068728,-0.3214211595363105],"scale":[0.9999993174945518,1.0,1.0000001541872517],"name":"logo_r"},{"translation":[3.1199998855590844,2.630000114440918,-16.690000534057618],"rotation":[0.7707594254745543,0.2890028202482606,0.46807646343068728,-0.3214211595363105],"scale":[0.9999993174945516,1.0,1.0000001541872517],"name":"logo_l"},{"translation":[-1.8799999952316294,1.5199999809265137,6.519999980926514],"rotation":[0.22742746949281249,0.6690151249153679,0.6317048685186956,-0.31881747826940556],"scale":[0.9999997009343689,1.0,1.0000004188744403],"name":"wing_r"},{"translation":[1.8799999952316276,1.5199999809265137,6.519999980926514],"rotation":[-0.22742746949281265,0.6690151249153677,0.6317048685186955,0.3188174782694057],"scale":[0.9999997009343689,1.0,1.0000004188744403],"name":"wing_l"},{"translation":[5.53000020980835,-0.36000001430511477,6.772297056225987e-16],"rotation":[-6.123233995736766e-17,0.0,1.0,0.0],"scale":[1.0,1.0,1.0],"name":"contrail1"},{"translation":[0.0,0.0,0.0],"rotation":[-4.3297802811774667e-17,0.7071067811865475,0.7071067811865475,4.3297802811774667e-17],"scale":[1.0,1.0,1.0],"name":"node_23","children":[15]},{"translation":[-0.0000019999999949504856,11.791040420532229,0.16358500719070438],"rotation":[0.08656036771233203,0.0,0.0,0.9962465608484716],"scale":[0.999999626221858,1.0,1.0],"name":"node_242","children":[16]},{"name":"c_gear_AN_242","children":[17,18,19]},{"translation":[0.25000209020091676,0.8835853064611632,0.08896003263381158],"rotation":[-0.7071067811865475,0.0,0.0,0.7071067811865475],"scale":[1.0,1.0,1.0],"name":"landing_nose_r"},{"translation":[-0.2499980966882241,0.8835853064611632,0.08896003263381158],"rotation":[-0.7071067811865475,0.0,0.0,0.7071067811865475],"scale":[1.0,1.0,1.0],"name":"landing_nose_l"},{"translation":[-0.2499980966882241,0.8835853064611632,0.08896003263381158],"rotation":[0.7372773553459292,0.0,0.0,-0.675590177265089],"scale":[0.9999996587936272,1.0,1.0],"name":"taxi"}],"scene":0,"scenes":[{"nodes":[0]}],"textures":[{"extensions":{"MSFT_texture_dds":{"source":0}}},{"extensions":{"MSFT_texture_dds":{"source":1}}}],"extensionsUsed":["ASOBO_material_day_night_switch","MSFT_texture_dds","ASOBO_asset_optimized"],"buffers":[{"byteLength":5392,"uri":"SBAI_Airbus_A220-100_MSFS_LOD5.bin"}],"images":[{"uri":"SBAI_CS100_T.PNG.DDS","extras":"ASOBO_image_converted_meta"},{"uri":"SBAI_CS100_L.PNG.DDS","extras":"ASOBO_image_converted_meta"}]}
