{"accessors":[{"bufferView":0,"componentType":5126,"count":2,"min":[0.0],"max":[100.0],"type":"SCALAR"},{"bufferView":1,"componentType":5126,"count":2,"type":"VEC4"},{"bufferView":0,"byteOffset":8,"componentType":5126,"count":4,"min":[0.0],"max":[100.0],"type":"SCALAR"},{"bufferView":1,"byteOffset":32,"componentType":5126,"count":4,"type":"VEC4"},{"bufferView":0,"byteOffset":24,"componentType":5126,"count":2,"min":[0.0],"max":[20.0],"type":"SCALAR"},{"bufferView":1,"byteOffset":96,"componentType":5126,"count":2,"type":"VEC4"},{"bufferView":0,"byteOffset":32,"componentType":5126,"count":4,"min":[0.0],"max":[200.0],"type":"SCALAR"},{"bufferView":1,"byteOffset":128,"componentType":5126,"count":4,"type":"VEC4"},{"bufferView":0,"byteOffset":48,"componentType":5126,"count":2,"min":[0.0],"max":[100.0],"type":"SCALAR"},{"bufferView":1,"byteOffset":192,"componentType":5126,"count":2,"type":"VEC4"},{"bufferView":2,"componentType":5126,"count":250,"min":[-15.040180206298829,-1.084939956665039,-14.973369598388672],"max":[15.040809631347657,5.332220077514648,14.781160354614258],"type":"VEC3","name":"part000_vertices#0_POSITION"},{"bufferView":2,"byteOffset":12,"componentType":5120,"count":250,"type":"VEC4","name":"part000_vertices#0_TANGENT"},{"bufferView":2,"byteOffset":16,"componentType":5120,"count":250,"type":"VEC4","name":"part000_vertices#0_NORMAL"},{"bufferView":2,"byteOffset":20,"componentType":5122,"count":250,"type":"VEC2","name":"part000_vertices#0_TEXCOORD_0"},{"bufferView":2,"byteOffset":24,"componentType":5122,"count":250,"type":"VEC2","name":"part000_vertices#0_TEXCOORD_1"},{"bufferView":2,"byteOffset":28,"componentType":5123,"count":250,"type":"VEC4","name":"part000_vertices#0_COLOR_0"},{"bufferView":3,"componentType":5123,"count":579,"type":"SCALAR","name":"part000_indices#0"}],"animations":[{"name":"AI_Wingflex","channels":[{"sampler":0,"target":{"node":14,"path":"rotation"}},{"sampler":1,"target":{"node":37,"path":"rotation"}}],"samplers":[{"input":0,"output":1,"interpolation":"LINEAR"},{"input":8,"output":9,"interpolation":"LINEAR"}]},{"name":"c_gear","channels":[{"sampler":0,"target":{"node":21,"path":"rotation"}},{"sampler":1,"target":{"node":24,"path":"rotation"}}],"samplers":[{"input":2,"output":3,"interpolation":"LINEAR"},{"input":4,"output":5,"interpolation":"LINEAR"}]},{"name":"custom_anim_C_WHEEL_LR","channels":[{"sampler":0,"target":{"node":27,"path":"rotation"}}],"samplers":[{"input":6,"output":7,"interpolation":"LINEAR"}]}],"asset":{"generator":"ModelConverterX","version":"2.0","extensions":{"ASOBO_asset_optimized":{"BoundingBoxMax":[15.040809631347657,5.332220077514648,14.781160354614258],"BoundingBoxMin":[-15.040180206298829,-1.084939956665039,-14.973369598388672],"MajorVersion":4,"MinorVersion":4,"UseCheckerboardMaterialForMissingTextures":true,"UseOnlyFilenameForImageURI":true}}},"bufferViews":[{"buffer":0,"byteLength":56,"byteStride":4},{"buffer":0,"byteLength":224,"byteStride":16,"byteOffset":56},{"buffer":0,"byteLength":9000,"byteStride":36,"byteOffset":280,"target":34962,"name":"BufferViewVertexND"},{"buffer":0,"byteLength":1158,"byteOffset":9280,"target":34963,"name":"BufferViewIndex"}],"extensionsRequired":["MSFT_texture_dds"],"materials":[{"name":"material00","emissiveTexture":{"index":1},"emissiveFactor":[0.019607843831181527,0.019607843831181527,0.019607843831181527],"pbrMetallicRoughness":{"metallicFactor":0.0,"baseColorTexture":{"index":0}}}],"meshes":[{"primitives":[{"attributes":{"COLOR_0":15,"NORMAL":12,"POSITION":10,"TANGENT":11,"TEXCOORD_0":13,"TEXCOORD_1":14},"indices":16,"material":0,"mode":4,"extras":{"ASOBO_primitive":{"PrimitiveCount":193,"VertexType":"VTX","VertexVersion":2}}}],"name":"part000"}],"nodes":[{"name":"node_0","children":[1,2,3,4,5,6,7,8,9,10,11]},{"mesh":0,"name":"node_12"},{"translation":[-2.5999999046325668,4.599999904632568,-12.93000030517578],"rotation":[-0.37205648703903768,0.09352984395917076,0.2814861868882769,0.8795405906360856],"scale":[1.0,1.0,1.0],"name":"logo_r"},{"translation":[-2.150000095367431,-2.049999952316284,-2.0000000000000006],"rotation":[-6.123031769111886e-17,0.0,1.0,0.0],"scale":[1.0,1.0,1.0],"name":"r_tire1"},{"translation":[2.150000095367432,-2.049999952316284,-2.0],"rotation":[-6.123031769111886e-17,0.0,1.0,0.0],"scale":[1.0,1.0,1.0],"name":"l_tire1"},{"translation":[-1.469527624586853e-15,-1.899999976158142,12.0],"rotation":[-6.123031769111886e-17,0.0,1.0,0.0],"scale":[1.0,1.0,1.0],"name":"c_tire1"},{"translation":[-2.0999999046325676,1.2999999523162842,-9.0],"rotation":[-6.123031769111886e-17,0.0,1.0,0.0],"scale":[1.0,1.0,1.0],"name":"contrail2"},{"translation":[-1.3339999914169319,-0.9805560111999512,5.05002498626709],"rotation":[-0.694658551384983,-4.404539380454844e-17,-4.253416378815493e-17,0.7193396256204135],"scale":[1.0,1.0,1.0],"name":"landing_r"},{"translation":[1.3335920572280876,-0.9805560111999512,5.05002498626709],"rotation":[-0.694658551384983,-4.404539380454844e-17,-4.253416378815493e-17,0.7193396256204135],"scale":[1.0,1.0,1.0],"name":"landing_l"},{"translation":[2.0999999046325694,1.2999999523162842,-9.0],"rotation":[-6.123031769111886e-17,0.0,1.0,0.0],"scale":[1.0,1.0,1.0],"name":"contrail1"},{"translation":[2.59999990463257,4.599999904632568,-12.93000030517578],"rotation":[-0.37205648703903768,-0.09352984395917084,-0.28148618688827706,0.8795405906360856],"scale":[1.0,1.0,1.0],"name":"logo_l"},{"translation":[0.0,0.0,0.0],"rotation":[-4.329637285359677e-17,0.7071067811865475,0.7071067811865475,4.329637285359677e-17],"scale":[1.0,1.0,1.0],"name":"node_22","children":[12,19,35]},{"translation":[10.02476978302002,-3.1347339153289797,-0.33173298835754397],"rotation":[0.0,0.0,0.0,1.0],"scale":[1.0,1.0,1.0],"name":"node_53","children":[13]},{"translation":[0.0,0.0,0.0],"rotation":[0.0,0.0,0.9983504716621032,0.05741372424826325],"scale":[1.0,1.0,1.0],"name":"node_61","children":[14]},{"name":"AI_Wingflex_AN_61","children":[15,17]},{"translation":[-4.251209807648521,1.2803436001875466,0.41999199986457827],"rotation":[0.681816682114509,-0.18741943043738736,-0.23603726498648396,0.6665481464677929],"scale":[1.0,1.0,1.0],"name":"node_64","children":[16]},{"translation":[0.0,0.0,0.0],"rotation":[-0.7071067811865475,0.0,0.0,0.7071067811865475],"scale":[1.0,1.0,1.0],"name":"strobe_r"},{"translation":[-4.141909706015871,1.2024786205345588,0.42285400629043576],"rotation":[0.6934476418168348,-0.13831288847141288,-0.1921746714868419,0.6804915269011975],"scale":[1.0,1.0,1.0],"name":"node_66","children":[18]},{"translation":[0.0,0.0,0.0],"rotation":[-0.7071067811865475,0.0,0.0,0.7071067811865475],"scale":[1.0,1.0,1.0],"name":"nav_gre"},{"translation":[0.0,11.669529914855956,-0.49758899211883547],"rotation":[0.0,0.0,0.0,1.0],"scale":[1.0,1.0,1.0],"name":"node_161","children":[20]},{"translation":[0.0,0.0,0.0],"rotation":[0.4974771199186784,0.0,0.0,0.8674770977711267],"scale":[1.0,1.0,1.0],"name":"node_201","children":[21]},{"name":"c_gear_AN_201","children":[22]},{"translation":[0.0,0.5084119893127467,-0.5698189576212206],"rotation":[0.0,0.0,0.0,1.0],"scale":[1.0,1.0,1.0],"name":"node_202","children":[23]},{"translation":[0.0,0.0,0.0],"rotation":[0.289619175922396,0.0,0.0,0.9571419607028168],"scale":[1.0,1.0,1.0],"name":"node_203","children":[24]},{"name":"c_gear_AN_203","children":[25]},{"translation":[-0.0000960000033956021,0.20244687787753228,-0.2024288772854166],"rotation":[0.0,0.0,0.0,1.0],"scale":[1.0,1.0,1.0],"name":"node_209","children":[26]},{"translation":[0.0,0.0,0.0],"rotation":[0.056161456674270009,0.03245872532077614,-0.499326957485246,0.8639820162744065],"scale":[1.0,1.0,1.0],"name":"node_210","children":[27]},{"name":"custom_anim_C_WHEEL_LR_AN_210","children":[28,30,32]},{"translation":[0.11599997462908463,0.20988589757193289,0.029020994096168048],"rotation":[0.755704808902226,-0.13703233123631104,0.16753604327194408,-0.6181132320472114],"scale":[1.0,1.0,1.0],"name":"node_218","children":[29]},{"translation":[0.0,0.0,0.0],"rotation":[-0.7071067811865475,0.0,0.0,0.7071067811865475],"scale":[1.0,1.0,1.0],"name":"taxi_r"},{"translation":[-0.11632297958835145,0.20988589757193289,0.029020994096168048],"rotation":[0.7557047960732667,0.1370323335625927,-0.16753566043463373,-0.6181134312227146],"scale":[1.0,1.0,1.0],"name":"node_220","children":[31]},{"translation":[0.0,0.0,0.0],"rotation":[-0.7071067811865475,0.0,0.0,0.7071067811865475],"scale":[1.0,1.0,1.0],"name":"taxi_l"},{"translation":[0.0,0.23463587982329685,0.05579698719203302],"rotation":[0.7740529758264887,0.0,0.0,-0.6331208341337041],"scale":[1.0,1.0,1.0],"name":"node_222","children":[33,34]},{"translation":[0.0,0.0,0.0],"rotation":[-0.7071067811865475,0.0,0.0,0.7071067811865475],"scale":[1.0,1.0,1.0],"name":"landing_nose"},{"translation":[0.0,0.0,0.0],"rotation":[-0.7071067811865475,0.0,0.0,0.7071067811865475],"scale":[1.0,1.0,1.0],"name":"taxi_c"},{"translation":[-10.02476978302002,-3.1347339153289797,-0.33173298835754397],"rotation":[0.0,0.0,0.0,1.0],"scale":[1.0,1.0,1.0],"name":"node_225","children":[36]},{"translation":[0.0,0.0,0.0],"rotation":[0.0,0.0,0.05741372424826325,0.9983504716621032],"scale":[1.0,1.0,1.0],"name":"node_235","children":[37]},{"name":"AI_Wingflex_AN_235","children":[38,40]},{"translation":[-4.141907798667847,-1.2024776668605473,0.42285400629043576],"rotation":[-0.6804914658373608,-0.1921749015042448,0.13831286104691463,0.6934477040432928],"scale":[1.0,1.0,1.0],"name":"node_238","children":[39]},{"translation":[0.0,0.0,0.0],"rotation":[-0.7071067811865475,0.0,0.0,0.7071067811865475],"scale":[1.0,1.0,1.0],"name":"nav_red"},{"translation":[-4.251211714996543,-1.2803436001875466,0.41999199986457827],"rotation":[-0.6665481844897024,-0.2360371591625518,0.18741944403336525,0.6818166432216384],"scale":[1.0,1.0,1.0],"name":"node_240","children":[41]},{"translation":[0.0,0.0,0.0],"rotation":[-0.7071067811865475,0.0,0.0,0.7071067811865475],"scale":[1.0,1.0,1.0],"name":"strobe_l"}],"scene":0,"scenes":[{"nodes":[0]}],"textures":[{"extensions":{"MSFT_texture_dds":{"source":0}}},{"extensions":{"MSFT_texture_dds":{"source":1}}}],"extensionsUsed":["MSFT_texture_dds","ASOBO_asset_optimized"],"buffers":[{"byteLength":10438,"uri":"KCAI_Gulfstream_G650_MSFS_LOD4.bin"}],"images":[{"uri":"AI_G650_T.PNG.DDS","extras":"ASOBO_image_converted_meta"},{"uri":"AI_G650_L.PNG.DDS","extras":"ASOBO_image_converted_meta"}]}
