{"accessors":[{"bufferView":0,"componentType":5126,"count":101,"min":[0.0],"max":[3.33333325],"type":"SCALAR","name":"accessorAnimationInput"},{"bufferView":1,"componentType":5126,"count":101,"type":"VEC3","name":"accessorAnimationPositions"},{"bufferView":0,"byteOffset":404,"componentType":5126,"count":101,"min":[0.0],"max":[3.33333325],"type":"SCALAR","name":"accessorAnimationInput"},{"bufferView":2,"componentType":5126,"count":101,"type":"VEC4","name":"accessorAnimationRotations"},{"bufferView":0,"byteOffset":808,"componentType":5126,"count":101,"min":[0.0],"max":[3.33333325],"type":"SCALAR","name":"accessorAnimationInput"},{"bufferView":1,"byteOffset":1212,"componentType":5126,"count":101,"type":"VEC3","name":"accessorAnimationPositions"},{"bufferView":0,"byteOffset":1212,"componentType":5126,"count":101,"min":[0.0],"max":[3.33333325],"type":"SCALAR","name":"accessorAnimationInput"},{"bufferView":2,"byteOffset":1616,"componentType":5126,"count":101,"type":"VEC4","name":"accessorAnimationRotations"},{"bufferView":0,"byteOffset":1616,"componentType":5126,"count":101,"min":[0.0],"max":[3.33333325],"type":"SCALAR","name":"accessorAnimationInput"},{"bufferView":1,"byteOffset":2424,"componentType":5126,"count":101,"type":"VEC3","name":"accessorAnimationScales"},{"bufferView":3,"componentType":5126,"count":76,"min":[-0.4765561819076538,-1.9039394855499268,-0.10085868835449219],"max":[0.08537489175796509,0.0,3.028964042663574],"type":"VEC3","name":"x0_cargo_door_main_vertices#0_POSITION"},{"bufferView":3,"byteOffset":12,"componentType":5120,"count":76,"type":"VEC4","name":"x0_cargo_door_main_vertices#0_TANGENT"},{"bufferView":3,"byteOffset":16,"componentType":5120,"count":76,"type":"VEC4","name":"x0_cargo_door_main_vertices#0_NORMAL"},{"bufferView":3,"byteOffset":20,"componentType":5122,"count":76,"type":"VEC2","name":"x0_cargo_door_main_vertices#0_TEXCOORD_0"},{"bufferView":3,"byteOffset":24,"componentType":5122,"count":76,"type":"VEC2","name":"x0_cargo_door_main_vertices#0_TEXCOORD_1"},{"bufferView":3,"byteOffset":28,"componentType":5123,"count":76,"type":"VEC4","name":"x0_cargo_door_main_vertices#0_COLOR_0"},{"bufferView":4,"componentType":5123,"count":216,"type":"SCALAR","name":"x0_cargo_door_main_indices#1"},{"bufferView":3,"byteOffset":2736,"componentType":5126,"count":24,"min":[-0.23827815055847169,-0.9519697427749634,-1.5649113655090333],"max":[0.23827826976776124,0.9519697427749634,1.5649113655090333],"type":"VEC3","name":"x0_cargo_door_main_fake_vertices#0_POSITION"},{"bufferView":3,"byteOffset":2748,"componentType":5120,"count":24,"type":"VEC4","name":"x0_cargo_door_main_fake_vertices#0_TANGENT"},{"bufferView":3,"byteOffset":2752,"componentType":5120,"count":24,"type":"VEC4","name":"x0_cargo_door_main_fake_vertices#0_NORMAL"},{"bufferView":3,"byteOffset":2756,"componentType":5122,"count":24,"type":"VEC2","name":"x0_cargo_door_main_fake_vertices#0_TEXCOORD_0"},{"bufferView":3,"byteOffset":2760,"componentType":5122,"count":24,"type":"VEC2","name":"x0_cargo_door_main_fake_vertices#0_TEXCOORD_1"},{"bufferView":3,"byteOffset":2764,"componentType":5123,"count":24,"type":"VEC4","name":"x0_cargo_door_main_fake_vertices#0_COLOR_0"},{"bufferView":4,"byteOffset":432,"componentType":5123,"count":66,"type":"SCALAR","name":"x0_cargo_door_main_fake_indices#0"}],"animations":[{"name":"cargo_door_main","channels":[{"sampler":0,"target":{"node":0,"path":"translation","extensions":{"ASOBO_animation_retargeting":{"id":"x0_cargo_door_main"}}}},{"sampler":1,"target":{"node":0,"path":"rotation","extensions":{"ASOBO_animation_retargeting":{"id":"x0_cargo_door_main"}}}},{"sampler":2,"target":{"node":1,"path":"translation","extensions":{"ASOBO_animation_retargeting":{"id":"x0_cargo_door_main_fake"}}}},{"sampler":3,"target":{"node":1,"path":"rotation","extensions":{"ASOBO_animation_retargeting":{"id":"x0_cargo_door_main_fake"}}}},{"sampler":4,"target":{"node":1,"path":"scale","extensions":{"ASOBO_animation_retargeting":{"id":"x0_cargo_door_main_fake"}}}}],"samplers":[{"input":0,"output":1,"interpolation":"LINEAR"},{"input":2,"output":3,"interpolation":"LINEAR"},{"input":4,"output":5,"interpolation":"LINEAR"},{"input":6,"output":7,"interpolation":"LINEAR"},{"input":8,"output":9,"interpolation":"LINEAR"}]}],"asset":{"generator":"babylon.js glTF exporter for 3dsmax 2021 v1.0.8378.27976","version":"2.0","extensions":{"ASOBO_asset_optimized":{"BoundingBoxMax":[0.23827826976776124,0.9519697427749634,3.028964042663574],"BoundingBoxMin":[-0.4765561819076538,-1.9039394855499268,-1.5649113655090333],"MajorVersion":4,"MinorVersion":4,"UseCheckerboardMaterialForMissingTextures":true,"UseOnlyFilenameForImageURI":true},"ASOBO_normal_map_convention":{"tangent_space_convention":"DirectX"}}},"bufferViews":[{"buffer":0,"byteLength":2020,"name":"bufferViewAnimationFloatScalar"},{"buffer":0,"byteLength":3636,"byteOffset":2020,"name":"bufferViewAnimationFloatVec3"},{"buffer":0,"byteLength":3232,"byteOffset":5656,"name":"bufferViewAnimationFloatVec4"},{"buffer":0,"byteLength":3600,"byteStride":36,"byteOffset":8888,"target":34962,"name":"BufferViewVertexND"},{"buffer":0,"byteLength":564,"byteOffset":12488,"target":34963,"name":"BufferViewIndex"}],"extensionsRequired":["MSFT_texture_dds"],"materials":[{"name":"Fuse","occlusionTexture":{"index":1},"emissiveTexture":{"index":2},"pbrMetallicRoughness":{"baseColorTexture":{"index":0},"metallicRoughnessTexture":{"index":1}}},{"name":"T2","pbrMetallicRoughness":{"metallicFactor":0.0,"baseColorTexture":{"index":3}}}],"meshes":[{"primitives":[{"attributes":{"COLOR_0":15,"NORMAL":12,"POSITION":10,"TANGENT":11,"TEXCOORD_0":13,"TEXCOORD_1":14},"indices":16,"material":0,"mode":4,"extras":{"ASOBO_primitive":{"PrimitiveCount":22,"VertexType":"VTX","VertexVersion":2}}},{"attributes":{"COLOR_0":15,"NORMAL":12,"POSITION":10,"TANGENT":11,"TEXCOORD_0":13,"TEXCOORD_1":14},"indices":16,"material":1,"mode":4,"extras":{"ASOBO_primitive":{"PrimitiveCount":50,"StartIndex":66,"VertexType":"VTX","VertexVersion":2}}}],"name":"x0_cargo_door_main"},{"primitives":[{"attributes":{"COLOR_0":22,"NORMAL":19,"POSITION":17,"TANGENT":18,"TEXCOORD_0":20,"TEXCOORD_1":21},"indices":23,"material":1,"mode":4,"extras":{"ASOBO_primitive":{"PrimitiveCount":22,"VertexType":"VTX","VertexVersion":2}}}],"name":"x0_cargo_door_main_fake"}],"nodes":[{"translation":[0.900345564,1.15035748,8.870842],"rotation":[0.0,-1.0,0.0,7.54979e-8],"mesh":0,"extensions":{"ASOBO_unique_id":{"id":"x0_cargo_door_main"}},"name":"cargo_door_main"},{"translation":[1.14534175,0.198387742,7.4067893],"rotation":[0.0,-1.0,0.0,7.54979e-8],"mesh":1,"extensions":{"ASOBO_unique_id":{"id":"x0_cargo_door_main_fake"}},"name":"cargo_door_main_fake"}],"scene":0,"scenes":[{"nodes":[0,1]}],"textures":[{"extensions":{"MSFT_texture_dds":{"source":0}}},{"extensions":{"MSFT_texture_dds":{"source":1}}},{"extensions":{"MSFT_texture_dds":{"source":2}}},{"extensions":{"MSFT_texture_dds":{"source":3}}}],"extensionsUsed":["ASOBO_normal_map_convention","ASOBO_unique_id","ASOBO_animation_retargeting","MSFT_texture_dds","ASOBO_asset_optimized"],"buffers":[{"byteLength":13052,"uri":"OSP_ATR_72F_cargo.bin"}],"images":[{"uri":"OSP_ATR_72_500_T.PNG.DDS","extras":"ASOBO_image_converted_meta"},{"uri":"OSP_ATR_72_500_C.PNG.DDS","extras":"ASOBO_image_converted_meta"},{"uri":"OSP_ATR_72_500_L.PNG.DDS","extras":"ASOBO_image_converted_meta"},{"uri":"OSP_ATR_72F_T2.PNG.DDS","extras":"ASOBO_image_converted_meta"}]}
