{"accessors":[{"bufferView":0,"componentType":5126,"count":5,"min":[0.0],"max":[100.0],"type":"SCALAR"},{"bufferView":1,"componentType":5126,"count":5,"type":"VEC4"},{"bufferView":0,"byteOffset":20,"componentType":5126,"count":5,"min":[0.0],"max":[100.0],"type":"SCALAR"},{"bufferView":1,"byteOffset":80,"componentType":5126,"count":5,"type":"VEC4"},{"bufferView":2,"componentType":5126,"count":8,"min":[-1.4086300134658814,-0.5442399978637695,-0.9924399852752686],"max":[1.4046299457550049,-0.5442399978637695,-0.6562899947166443],"type":"VEC3","name":"part000_vertices#0_POSITION"},{"bufferView":2,"byteOffset":12,"componentType":5120,"count":8,"type":"VEC4","name":"part000_vertices#0_TANGENT"},{"bufferView":2,"byteOffset":16,"componentType":5120,"count":8,"type":"VEC4","name":"part000_vertices#0_NORMAL"},{"bufferView":2,"byteOffset":20,"componentType":5122,"count":8,"type":"VEC2","name":"part000_vertices#0_TEXCOORD_0"},{"bufferView":2,"byteOffset":24,"componentType":5122,"count":8,"type":"VEC2","name":"part000_vertices#0_TEXCOORD_1"},{"bufferView":2,"byteOffset":28,"componentType":5123,"count":8,"type":"VEC4","name":"part000_vertices#0_COLOR_0"},{"bufferView":3,"componentType":5123,"count":12,"type":"SCALAR","name":"part000_indices#0"},{"bufferView":2,"byteOffset":288,"componentType":5126,"count":469,"min":[-5.278359889984131,-1.36844003200531,-5.1223602294921879],"max":[5.322380065917969,1.4766600131988526,2.1289501190185549],"type":"VEC3","name":"part001_vertices#0_POSITION"},{"bufferView":2,"byteOffset":300,"componentType":5120,"count":469,"type":"VEC4","name":"part001_vertices#0_TANGENT"},{"bufferView":2,"byteOffset":304,"componentType":5120,"count":469,"type":"VEC4","name":"part001_vertices#0_NORMAL"},{"bufferView":2,"byteOffset":308,"componentType":5122,"count":469,"type":"VEC2","name":"part001_vertices#0_TEXCOORD_0"},{"bufferView":2,"byteOffset":312,"componentType":5122,"count":469,"type":"VEC2","name":"part001_vertices#0_TEXCOORD_1"},{"bufferView":2,"byteOffset":316,"componentType":5123,"count":469,"type":"VEC4","name":"part001_vertices#0_COLOR_0"},{"bufferView":3,"byteOffset":24,"componentType":5123,"count":1197,"type":"SCALAR","name":"part001_indices#0"},{"bufferView":2,"byteOffset":17172,"componentType":5126,"count":16,"min":[-0.07524000108242035,-0.9520099759101868,-0.020069999620318414],"max":[0.07346999645233154,0.9507799744606018,0.016090000048279764],"type":"VEC3","name":"part002_vertices#0_POSITION"},{"bufferView":2,"byteOffset":17184,"componentType":5120,"count":16,"type":"VEC4","name":"part002_vertices#0_TANGENT"},{"bufferView":2,"byteOffset":17188,"componentType":5120,"count":16,"type":"VEC4","name":"part002_vertices#0_NORMAL"},{"bufferView":2,"byteOffset":17192,"componentType":5122,"count":16,"type":"VEC2","name":"part002_vertices#0_TEXCOORD_0"},{"bufferView":2,"byteOffset":17196,"componentType":5122,"count":16,"type":"VEC2","name":"part002_vertices#0_TEXCOORD_1"},{"bufferView":2,"byteOffset":17200,"componentType":5123,"count":16,"type":"VEC4","name":"part002_vertices#0_COLOR_0"},{"bufferView":3,"byteOffset":2418,"componentType":5123,"count":36,"type":"SCALAR","name":"part002_indices#0"},{"bufferView":2,"byteOffset":17748,"componentType":5126,"count":16,"min":[-0.0752200037240982,-0.9520099759101868,-0.017839999869465829],"max":[0.07349000126123429,0.9507799744606018,0.018319999799132348],"type":"VEC3","name":"part003_vertices#0_POSITION"},{"bufferView":2,"byteOffset":17760,"componentType":5120,"count":16,"type":"VEC4","name":"part003_vertices#0_TANGENT"},{"bufferView":2,"byteOffset":17764,"componentType":5120,"count":16,"type":"VEC4","name":"part003_vertices#0_NORMAL"},{"bufferView":2,"byteOffset":17768,"componentType":5122,"count":16,"type":"VEC2","name":"part003_vertices#0_TEXCOORD_0"},{"bufferView":2,"byteOffset":17772,"componentType":5122,"count":16,"type":"VEC2","name":"part003_vertices#0_TEXCOORD_1"},{"bufferView":2,"byteOffset":17776,"componentType":5123,"count":16,"type":"VEC4","name":"part003_vertices#0_COLOR_0"},{"bufferView":3,"byteOffset":2490,"componentType":5123,"count":36,"type":"SCALAR","name":"part003_indices#0"}],"animations":[{"name":"engine0","channels":[{"sampler":0,"target":{"node":12,"path":"rotation"}},{"sampler":1,"target":{"node":15,"path":"rotation"}}],"samplers":[{"input":0,"output":1,"interpolation":"LINEAR"},{"input":2,"output":3,"interpolation":"LINEAR"}]}],"asset":{"generator":"ModelConverterX","version":"2.0","extensions":{"ASOBO_asset_optimized":{"BoundingBoxMax":[5.322380065917969,1.4766600131988526,2.1289501190185549],"BoundingBoxMin":[-5.278359889984131,-1.36844003200531,-5.1223602294921879],"MajorVersion":4,"MinorVersion":4,"UseCheckerboardMaterialForMissingTextures":true,"UseOnlyFilenameForImageURI":true}}},"bufferViews":[{"buffer":0,"byteLength":40,"byteStride":4},{"buffer":0,"byteLength":160,"byteStride":16,"byteOffset":40},{"buffer":0,"byteLength":18324,"byteStride":36,"byteOffset":200,"target":34962,"name":"BufferViewVertexND"},{"buffer":0,"byteLength":2562,"byteOffset":18524,"target":34963,"name":"BufferViewIndex"}],"extensionsRequired":["MSFT_texture_dds"],"materials":[{"name":"material00","emissiveTexture":{"index":1},"emissiveFactor":[0.019607843831181527,0.019607843831181527,0.019607843831181527],"pbrMetallicRoughness":{"metallicFactor":0.0,"baseColorTexture":{"index":0}}},{"name":"material01","pbrMetallicRoughness":{"baseColorFactor":[0.800000011920929,0.800000011920929,0.800000011920929,1.0],"metallicFactor":0.0}}],"meshes":[{"primitives":[{"attributes":{"COLOR_0":9,"NORMAL":6,"POSITION":4,"TANGENT":5,"TEXCOORD_0":7,"TEXCOORD_1":8},"indices":10,"material":1,"mode":4,"extras":{"ASOBO_primitive":{"PrimitiveCount":4,"VertexType":"VTX","VertexVersion":2}}}],"name":"part000"},{"primitives":[{"attributes":{"COLOR_0":16,"NORMAL":13,"POSITION":11,"TANGENT":12,"TEXCOORD_0":14,"TEXCOORD_1":15},"indices":17,"material":0,"mode":4,"extras":{"ASOBO_primitive":{"PrimitiveCount":399,"VertexType":"VTX","VertexVersion":2}}}],"name":"part001"},{"primitives":[{"attributes":{"COLOR_0":23,"NORMAL":20,"POSITION":18,"TANGENT":19,"TEXCOORD_0":21,"TEXCOORD_1":22},"indices":24,"material":0,"mode":4,"extras":{"ASOBO_primitive":{"PrimitiveCount":12,"VertexType":"VTX","VertexVersion":2}}}],"name":"part002"},{"primitives":[{"attributes":{"COLOR_0":30,"NORMAL":27,"POSITION":25,"TANGENT":26,"TEXCOORD_0":28,"TEXCOORD_1":29},"indices":31,"material":0,"mode":4,"extras":{"ASOBO_primitive":{"PrimitiveCount":12,"VertexType":"VTX","VertexVersion":2}}}],"name":"part003"}],"nodes":[{"name":"node_0","children":[1,2,3,4,5,6,7,8,9]},{"mesh":0,"name":"node_4"},{"mesh":1,"name":"node_5"},{"translation":[6.123031769111886e-16,0.0,-5.0],"rotation":[-6.123031769111886e-17,3.061515884555943e-17,1.0,1.874575902277672e-33],"scale":[1.0,1.0,1.0],"name":"contrail1"},{"translation":[-2.0695848080323553e-16,-0.44999998807907107,1.690000057220459],"rotation":[-0.7071067811865475,0.0,0.0,0.7071067811865475],"scale":[1.0,1.0,1.0],"name":"Taxi_Light"},{"translation":[-2.0818308598918228e-16,-0.43999999761581429,1.7000000476837159],"rotation":[-0.7071067811865475,0.0,0.0,0.7071067811865475],"scale":[1.0,1.0,1.0],"name":"Landing_Light"},{"translation":[-1.4695276829806339e-16,-1.399999976158142,1.2000000476837159],"rotation":[-6.123031769111886e-17,3.061515884555943e-17,1.0,1.874575902277672e-33],"scale":[1.0,1.0,1.0],"name":"c_tire1"},{"translation":[1.5,-1.25,-0.8000000119209288],"rotation":[-6.123031769111886e-17,3.061515884555943e-17,1.0,1.874575902277672e-33],"scale":[1.0,1.0,1.0],"name":"l_tire1"},{"translation":[-1.5,-1.25,-0.8000000119209291],"rotation":[-6.123031769111886e-17,3.061515884555943e-17,1.0,1.874575902277672e-33],"scale":[1.0,1.0,1.0],"name":"r_tire1"},{"translation":[0.0,0.0,0.0],"rotation":[-4.329637285359677e-17,0.7071067811865475,0.7071067811865475,4.329637285359677e-17],"scale":[1.0,1.0,1.0],"name":"node_21","children":[10,13]},{"translation":[0.029590999707579614,1.792225003242493,-0.1884929984807968],"rotation":[0.7067303965846336,-0.031136687943512557,0.02498054199084195,0.7063710646318276],"scale":[1.0,1.0,1.0],"name":"node_26","children":[11]},{"name":"node_27","children":[12]},{"mesh":2,"name":"engine0_AN_27"},{"translation":[0.029590999707579614,1.7944560050964356,-0.1884929984807968],"rotation":[0.7067303965846336,-0.031136687943512557,0.02498054199084195,0.7063710646318276],"scale":[1.0,1.0,1.0],"name":"node_28","children":[14]},{"name":"node_29","children":[15]},{"mesh":3,"name":"engine0_AN_29"}],"scene":0,"scenes":[{"nodes":[0]}],"textures":[{"extensions":{"MSFT_texture_dds":{"source":0}}},{"extensions":{"MSFT_texture_dds":{"source":1}}}],"extensionsUsed":["MSFT_texture_dds","ASOBO_asset_optimized"],"buffers":[{"byteLength":21086,"uri":"ANAI_Piper_Archer_II_MF_MSFS_LOD4.bin"}],"images":[{"uri":"AI_ARCHER.PNG.DDS","extras":"ASOBO_image_converted_meta"},{"uri":"AI_ARCHER_L.PNG.DDS","extras":"ASOBO_image_converted_meta"}]}
