{"accessors":[{"bufferView":0,"componentType":5126,"count":40,"min":[-2.315999984741211,-2.4000000953674318,-36.444000244140628],"max":[2.315999984741211,4.047999858856201,37.0],"type":"VEC3","name":"part000_vertices#0_POSITION"},{"bufferView":0,"byteOffset":12,"componentType":5120,"count":40,"type":"VEC4","name":"part000_vertices#0_TANGENT"},{"bufferView":0,"byteOffset":16,"componentType":5120,"count":40,"type":"VEC4","name":"part000_vertices#0_NORMAL"},{"bufferView":0,"byteOffset":20,"componentType":5122,"count":40,"type":"VEC2","name":"part000_vertices#0_TEXCOORD_0"},{"bufferView":0,"byteOffset":24,"componentType":5122,"count":40,"type":"VEC2","name":"part000_vertices#0_TEXCOORD_1"},{"bufferView":0,"byteOffset":28,"componentType":5123,"count":40,"type":"VEC4","name":"part000_vertices#0_COLOR_0"},{"bufferView":1,"componentType":5123,"count":78,"type":"SCALAR","name":"part000_indices#0"},{"bufferView":0,"byteOffset":1440,"componentType":5126,"count":94,"min":[-30.091999053955079,-3.6440000534057619,-37.09199905395508],"max":[30.091999053955079,13.36400032043457,11.392000198364258],"type":"VEC3","name":"part001_vertices#0_POSITION"},{"bufferView":0,"byteOffset":1452,"componentType":5120,"count":94,"type":"VEC4","name":"part001_vertices#0_TANGENT"},{"bufferView":0,"byteOffset":1456,"componentType":5120,"count":94,"type":"VEC4","name":"part001_vertices#0_NORMAL"},{"bufferView":0,"byteOffset":1460,"componentType":5122,"count":94,"type":"VEC2","name":"part001_vertices#0_TEXCOORD_0"},{"bufferView":0,"byteOffset":1464,"componentType":5122,"count":94,"type":"VEC2","name":"part001_vertices#0_TEXCOORD_1"},{"bufferView":0,"byteOffset":1468,"componentType":5123,"count":94,"type":"VEC4","name":"part001_vertices#0_COLOR_0"},{"bufferView":1,"byteOffset":156,"componentType":5123,"count":174,"type":"SCALAR","name":"part001_indices#0"},{"bufferView":0,"byteOffset":4824,"componentType":5126,"count":48,"min":[-11.251999855041504,-3.3399999141693117,5.796000003814697],"max":[11.239999771118164,-0.3160000145435333,11.404000282287598],"type":"VEC3","name":"part002_vertices#0_POSITION"},{"bufferView":0,"byteOffset":4836,"componentType":5120,"count":48,"type":"VEC4","name":"part002_vertices#0_TANGENT"},{"bufferView":0,"byteOffset":4840,"componentType":5120,"count":48,"type":"VEC4","name":"part002_vertices#0_NORMAL"},{"bufferView":0,"byteOffset":4844,"componentType":5122,"count":48,"type":"VEC2","name":"part002_vertices#0_TEXCOORD_0"},{"bufferView":0,"byteOffset":4848,"componentType":5122,"count":48,"type":"VEC2","name":"part002_vertices#0_TEXCOORD_1"},{"bufferView":0,"byteOffset":4852,"componentType":5123,"count":48,"type":"VEC4","name":"part002_vertices#0_COLOR_0"},{"bufferView":1,"byteOffset":504,"componentType":5123,"count":72,"type":"SCALAR","name":"part002_indices#0"}],"asset":{"generator":"ModelConverterX","version":"2.0","extensions":{"ASOBO_asset_optimized":{"BoundingBoxMax":[30.091999053955079,13.36400032043457,37.0],"BoundingBoxMin":[-30.091999053955079,-3.6440000534057619,-37.09199905395508],"MajorVersion":4,"MinorVersion":4,"UseCheckerboardMaterialForMissingTextures":true,"UseOnlyFilenameForImageURI":true}}},"bufferViews":[{"buffer":0,"byteLength":6552,"byteStride":36,"target":34962,"name":"BufferViewVertexND"},{"buffer":0,"byteLength":648,"byteOffset":6552,"target":34963,"name":"BufferViewIndex"}],"extensionsRequired":["MSFT_texture_dds"],"materials":[{"name":"material00","emissiveTexture":{"index":1},"emissiveFactor":[0.019607843831181527,0.019607843831181527,0.019607843831181527],"pbrMetallicRoughness":{"metallicFactor":0.0,"baseColorTexture":{"index":0}},"extensions":{"ASOBO_material_day_night_switch":{}}}],"meshes":[{"primitives":[{"attributes":{"COLOR_0":5,"NORMAL":2,"POSITION":0,"TANGENT":1,"TEXCOORD_0":3,"TEXCOORD_1":4},"indices":6,"material":0,"mode":4,"extras":{"ASOBO_primitive":{"PrimitiveCount":26,"VertexType":"VTX","VertexVersion":2}}}],"name":"part000"},{"primitives":[{"attributes":{"COLOR_0":12,"NORMAL":9,"POSITION":7,"TANGENT":8,"TEXCOORD_0":10,"TEXCOORD_1":11},"indices":13,"material":0,"mode":4,"extras":{"ASOBO_primitive":{"PrimitiveCount":58,"VertexType":"VTX","VertexVersion":2}}}],"name":"part001"},{"primitives":[{"attributes":{"COLOR_0":19,"NORMAL":16,"POSITION":14,"TANGENT":15,"TEXCOORD_0":17,"TEXCOORD_1":18},"indices":20,"material":0,"mode":4,"extras":{"ASOBO_primitive":{"PrimitiveCount":24,"VertexType":"VTX","VertexVersion":2}}}],"name":"part002"}],"nodes":[{"name":"node_0","children":[1,2,3,4,5,6,7,8,9,10,11,12,13,14,15,16,17,18,19,20,21,22,23,24,25,26,27,28,29,30]},{"mesh":0,"name":"custom_vis_parts_visible_00_mcx_VC"},{"mesh":1,"name":"custom_vis_parts_visible_01_mcx_VC"},{"mesh":2,"name":"custom_vis_GEAR_ANIMATION_POSITION_2_02_mcx_VC"},{"translation":[-5.480000019073486,-4.900000095367432,-2.4000000953674327],"rotation":[-6.123031769111886e-17,3.061515884555943e-17,1.0,1.874575902277672e-33],"scale":[1.0,1.0,1.0],"name":"r_tire1"},{"translation":[5.480000019073486,-4.900000095367432,-2.4000000953674309],"rotation":[-6.123031769111886e-17,3.061515884555943e-17,1.0,1.874575902277672e-33],"scale":[1.0,1.0,1.0],"name":"l_tire1"},{"translation":[-3.771787476342872e-15,-4.699999809265137,30.799999237060548],"rotation":[-6.123031769111886e-17,3.061515884555943e-17,1.0,1.874575902277672e-33],"scale":[1.0,1.0,1.0],"name":"c_tire1"},{"translation":[-9.770000457763674,-1.8700000047683716,3.299999952316283],"rotation":[-6.123031769111886e-17,3.061515884555943e-17,1.0,1.874575902277672e-33],"scale":[1.0,1.0,1.0],"name":"contrail2"},{"translation":[5.2596058845520059,2.166459083557129,-31.09238052368164],"rotation":[0.6632781490107336,-0.29886681889128277,0.6037483250929309,0.3259274176226677],"scale":[1.0,1.0,1.0],"name":"LIGHT_Logolight_l"},{"translation":[-5.2607188224792449,2.166646957397461,-31.092300415039064],"rotation":[0.6632781490107337,0.29886681889128277,-0.6037483250929309,0.3259274176226678],"scale":[1.0,1.0,1.0],"name":"LIGHT_Logolight_r"},{"translation":[19.30014991760254,0.8529210090637207,-4.591059207916257],"rotation":[0.8594559572566867,0.13225747231871835,0.4704409143779175,-0.15009585147872996],"scale":[1.0,1.0,1.0],"name":"LIGHT_Gearlight_left"},{"translation":[30.811519622802736,2.6622819900512697,-9.648661613464354],"rotation":[0.9399013414532,0.00008986261389064847,-0.3414460422900775,0.00024589353084393257],"scale":[1.0,1.0,1.0],"name":"LIGHT_Strobe_Left"},{"translation":[30.83597946166992,2.642786979675293,-11.430060386657712],"rotation":[0.0011344636624592198,-0.00043633201837165326,0.9999992613028889,-4.950031852675522e-7],"scale":[1.0,1.0,1.0],"name":"LIGHT_Navwhi_left"},{"translation":[30.552379608154298,2.661298990249634,-9.186743736267087],"rotation":[0.9239462530083062,0.00013397561695873547,-0.38252215583538176,0.0003223313466393261],"scale":[1.0,1.0,1.0],"name":"LIGHT_Nav_Red"},{"translation":[-19.300439834594728,0.8533440232276917,-4.591350078582766],"rotation":[0.789079500569811,-0.08029854415823559,-0.5808035280240955,-0.18322922098106893],"scale":[1.0,1.0,1.0],"name":"LIGHT_Gearlight_right"},{"translation":[-30.812070846557618,2.6628971099853517,-9.648627281188969],"rotation":[0.9399013414531998,-0.0000898626138906485,0.34144604229007766,0.00024589353084393257],"scale":[1.0,1.0,1.0],"name":"LIGHT_Strobe_Right"},{"translation":[-30.83736038208008,2.643225908279419,-11.430459976196293],"rotation":[-0.0017453281997554418,-0.0004363322393418464,0.9999983817204906,2.284630471515612e-7],"scale":[1.0,1.0,1.0],"name":"LIGHT_Navwhi_right"},{"translation":[-30.552349090576173,2.661346912384033,-9.18732070922852],"rotation":[0.9239462530083062,-0.00013397561695873553,0.3825221558353819,0.000322331346639326],"scale":[1.0,1.0,1.0],"name":"LIGHT_Nav_Green"},{"translation":[-3.631625890731813,-0.42018800973892209,10.014490127563477],"rotation":[1.0,3.749151804555344e-33,1.224606353822377e-16,-3.061515884555943e-17],"scale":[1.0,1.0,1.0],"name":"LIGHT_Landing_Right"},{"translation":[-2.090114076172572e-15,4.051814079284668,17.06764030456543],"rotation":[0.7071067811865475,0.0,8.659274570719354e-17,0.7071067811865475],"scale":[1.0,1.0,1.0],"name":"LIGHT_Beacon_Top"},{"translation":[-3.393679274890559e-16,-2.651186943054199,2.7712409496307375],"rotation":[-0.7071067811865475,0.0,0.0,0.7071067811865475],"scale":[1.0,1.0,1.0],"name":"LIGHT_Beacon_belly"},{"translation":[3.63162589073181,-0.42018800973892209,10.014479637145996],"rotation":[1.0,3.749151804555344e-33,1.224606353822377e-16,-3.061515884555943e-17],"scale":[1.0,1.0,1.0],"name":"LIGHT_Landing_Left"},{"translation":[0.2601160109043083,-2.200985908508301,31.294010162353517],"rotation":[1.0,3.749151804555344e-33,1.224606353822377e-16,-3.061515884555943e-17],"scale":[1.0,1.0,1.0],"name":"LIGHT_landing_nose_left"},{"translation":[-0.26011601090431599,-2.200985908508301,31.294010162353517],"rotation":[1.0,3.749151804555344e-33,1.224606353822377e-16,-3.061515884555943e-17],"scale":[1.0,1.0,1.0],"name":"LIGHT_landing_nose_right"},{"translation":[-0.00003600000126886917,1.444995999336243,-36.59638977050781],"rotation":[-3.061515884555943e-17,-1.224606353822377e-16,-3.749151804555344e-33,1.0],"scale":[1.0,1.0,1.0],"name":"LIGHT_Navwhi_tail"},{"translation":[-0.000009999999742897135,2.575162887573242,-36.59638977050781],"rotation":[-3.061515884555943e-17,-1.224606353822377e-16,-3.749151804555344e-33,1.0],"scale":[1.0,1.0,1.0],"name":"LIGHT_strobe_tail"},{"translation":[0.31013900041579819,-2.4410929679870607,31.1839599609375],"rotation":[1.0,3.749151804555344e-33,1.224606353822377e-16,-3.061515884555943e-17],"scale":[1.0,1.0,1.0],"name":"LIGHT_Taxi_nose_left"},{"translation":[-0.31013900041580585,-2.4410929679870607,31.1839599609375],"rotation":[1.0,3.749151804555344e-33,1.224606353822377e-16,-3.061515884555943e-17],"scale":[1.0,1.0,1.0],"name":"LIGHT_Taxi_nose_right"},{"translation":[3.63162589073181,-0.42018800973892209,10.014479637145996],"rotation":[1.0,3.749151804555344e-33,1.224606353822377e-16,-3.061515884555943e-17],"scale":[1.0,1.0,1.0],"name":"LIGHT_Landing_turnoff_left"},{"translation":[-3.631625890731813,-0.42018800973892209,10.014479637145996],"rotation":[1.0,3.749151804555344e-33,1.224606353822377e-16,-3.061515884555943e-17],"scale":[1.0,1.0,1.0],"name":"LIGHT_Landing_turnoff_right"},{"translation":[9.770000457763674,-1.8700000047683716,3.2999999523162857],"rotation":[-6.123031769111886e-17,3.061515884555943e-17,1.0,1.874575902277672e-33],"scale":[1.0,1.0,1.0],"name":"contrail1"}],"scene":0,"scenes":[{"nodes":[0]}],"textures":[{"extensions":{"MSFT_texture_dds":{"source":0}}},{"extensions":{"MSFT_texture_dds":{"source":1}}}],"extensionsUsed":["ASOBO_material_day_night_switch","MSFT_texture_dds","ASOBO_asset_optimized"],"buffers":[{"byteLength":7200,"uri":"TFS_B773RR_LOD8.bin"}],"images":[{"uri":"TFS_B773RR_T.PNG.DDS","extras":"ASOBO_image_converted_meta"},{"uri":"TFS_B773RR_L.PNG.DDS","extras":"ASOBO_image_converted_meta"}]}
