{"accessors":[{"bufferView":0,"componentType":5126,"count":5,"min":[0.0],"max":[100.0],"type":"SCALAR"},{"bufferView":1,"componentType":5126,"count":5,"type":"VEC4"},{"bufferView":0,"byteOffset":20,"componentType":5126,"count":5,"min":[0.0],"max":[100.0],"type":"SCALAR"},{"bufferView":1,"byteOffset":80,"componentType":5126,"count":5,"type":"VEC4"},{"bufferView":0,"byteOffset":40,"componentType":5126,"count":5,"min":[0.0],"max":[100.0],"type":"SCALAR"},{"bufferView":1,"byteOffset":160,"componentType":5126,"count":5,"type":"VEC4"},{"bufferView":2,"componentType":5126,"count":351,"min":[-5.102630138397217,-1.1135900020599366,-5.387609958648682],"max":[5.102630138397217,1.3632800579071046,1.9174000024795533],"type":"VEC3","name":"part000_vertices#0_POSITION"},{"bufferView":2,"byteOffset":12,"componentType":5120,"count":351,"type":"VEC4","name":"part000_vertices#0_TANGENT"},{"bufferView":2,"byteOffset":16,"componentType":5120,"count":351,"type":"VEC4","name":"part000_vertices#0_NORMAL"},{"bufferView":2,"byteOffset":20,"componentType":5122,"count":351,"type":"VEC2","name":"part000_vertices#0_TEXCOORD_0"},{"bufferView":2,"byteOffset":24,"componentType":5122,"count":351,"type":"VEC2","name":"part000_vertices#0_TEXCOORD_1"},{"bufferView":2,"byteOffset":28,"componentType":5123,"count":351,"type":"VEC4","name":"part000_vertices#0_COLOR_0"},{"bufferView":3,"componentType":5123,"count":879,"type":"SCALAR","name":"part000_indices#0"},{"bufferView":2,"byteOffset":12636,"componentType":5126,"count":32,"min":[-0.06975000351667404,-0.02329999953508377,-0.9104300141334534],"max":[0.06975000351667404,0.023329999297857286,0.9104300141334534],"type":"VEC3","name":"part001_vertices#0_POSITION"},{"bufferView":2,"byteOffset":12648,"componentType":5120,"count":32,"type":"VEC4","name":"part001_vertices#0_TANGENT"},{"bufferView":2,"byteOffset":12652,"componentType":5120,"count":32,"type":"VEC4","name":"part001_vertices#0_NORMAL"},{"bufferView":2,"byteOffset":12656,"componentType":5122,"count":32,"type":"VEC2","name":"part001_vertices#0_TEXCOORD_0"},{"bufferView":2,"byteOffset":12660,"componentType":5122,"count":32,"type":"VEC2","name":"part001_vertices#0_TEXCOORD_1"},{"bufferView":2,"byteOffset":12664,"componentType":5123,"count":32,"type":"VEC4","name":"part001_vertices#0_COLOR_0"},{"bufferView":3,"byteOffset":1758,"componentType":5123,"count":72,"type":"SCALAR","name":"part001_indices#0"},{"bufferView":2,"byteOffset":13788,"componentType":5126,"count":34,"min":[-0.9078699946403503,0.0,-0.9078699946403503],"max":[0.9078699946403503,0.0,0.9078699946403503],"type":"VEC3","name":"part002_vertices#0_POSITION"},{"bufferView":2,"byteOffset":13800,"componentType":5120,"count":34,"type":"VEC4","name":"part002_vertices#0_TANGENT"},{"bufferView":2,"byteOffset":13804,"componentType":5120,"count":34,"type":"VEC4","name":"part002_vertices#0_NORMAL"},{"bufferView":2,"byteOffset":13808,"componentType":5122,"count":34,"type":"VEC2","name":"part002_vertices#0_TEXCOORD_0"},{"bufferView":2,"byteOffset":13812,"componentType":5122,"count":34,"type":"VEC2","name":"part002_vertices#0_TEXCOORD_1"},{"bufferView":2,"byteOffset":13816,"componentType":5123,"count":34,"type":"VEC4","name":"part002_vertices#0_COLOR_0"},{"bufferView":3,"byteOffset":1902,"componentType":5123,"count":96,"type":"SCALAR","name":"part002_indices#0"},{"bufferView":2,"byteOffset":15012,"componentType":5126,"count":34,"min":[-0.9078699946403503,0.0,-0.9078699946403503],"max":[0.9078699946403503,0.0,0.9078699946403503],"type":"VEC3","name":"part003_vertices#0_POSITION"},{"bufferView":2,"byteOffset":15024,"componentType":5120,"count":34,"type":"VEC4","name":"part003_vertices#0_TANGENT"},{"bufferView":2,"byteOffset":15028,"componentType":5120,"count":34,"type":"VEC4","name":"part003_vertices#0_NORMAL"},{"bufferView":2,"byteOffset":15032,"componentType":5122,"count":34,"type":"VEC2","name":"part003_vertices#0_TEXCOORD_0"},{"bufferView":2,"byteOffset":15036,"componentType":5122,"count":34,"type":"VEC2","name":"part003_vertices#0_TEXCOORD_1"},{"bufferView":2,"byteOffset":15040,"componentType":5123,"count":34,"type":"VEC4","name":"part003_vertices#0_COLOR_0"},{"bufferView":3,"byteOffset":2094,"componentType":5123,"count":96,"type":"SCALAR","name":"part003_indices#0"}],"animations":[{"name":"engine0","channels":[{"sampler":0,"target":{"node":11,"path":"rotation"}},{"sampler":1,"target":{"node":14,"path":"rotation"}},{"sampler":2,"target":{"node":16,"path":"rotation"}}],"samplers":[{"input":0,"output":1,"interpolation":"LINEAR"},{"input":2,"output":3,"interpolation":"LINEAR"},{"input":4,"output":5,"interpolation":"LINEAR"}]}],"asset":{"generator":"ModelConverterX","version":"2.0","extensions":{"ASOBO_asset_optimized":{"BoundingBoxMax":[5.102630138397217,1.3632800579071046,1.9174000024795533],"BoundingBoxMin":[-5.102630138397217,-1.1135900020599366,-5.387609958648682],"MajorVersion":4,"MinorVersion":4,"UseCheckerboardMaterialForMissingTextures":true,"UseOnlyFilenameForImageURI":true}}},"bufferViews":[{"buffer":0,"byteLength":60,"byteStride":4},{"buffer":0,"byteLength":240,"byteStride":16,"byteOffset":60},{"buffer":0,"byteLength":16236,"byteStride":36,"byteOffset":300,"target":34962,"name":"BufferViewVertexND"},{"buffer":0,"byteLength":2286,"byteOffset":16536,"target":34963,"name":"BufferViewIndex"}],"extensionsRequired":["MSFT_texture_dds"],"materials":[{"name":"material00","occlusionTexture":{"index":1},"emissiveFactor":[0.019607843831181527,0.019607843831181527,0.019607843831181527],"pbrMetallicRoughness":{"baseColorTexture":{"index":0},"metallicRoughnessTexture":{"index":1}}},{"name":"material01","alphaMode":"BLEND","pbrMetallicRoughness":{"baseColorFactor":[0.0,0.0,0.0,0.9803919792175292],"metallicFactor":0.0,"baseColorTexture":{"index":2}}}],"meshes":[{"primitives":[{"attributes":{"COLOR_0":11,"NORMAL":8,"POSITION":6,"TANGENT":7,"TEXCOORD_0":9,"TEXCOORD_1":10},"indices":12,"material":0,"mode":4,"extras":{"ASOBO_primitive":{"PrimitiveCount":293,"VertexType":"VTX","VertexVersion":2}}}],"name":"part000"},{"primitives":[{"attributes":{"COLOR_0":18,"NORMAL":15,"POSITION":13,"TANGENT":14,"TEXCOORD_0":16,"TEXCOORD_1":17},"indices":19,"material":0,"mode":4,"extras":{"ASOBO_primitive":{"PrimitiveCount":24,"VertexType":"VTX","VertexVersion":2}}}],"name":"part001"},{"primitives":[{"attributes":{"COLOR_0":25,"NORMAL":22,"POSITION":20,"TANGENT":21,"TEXCOORD_0":23,"TEXCOORD_1":24},"indices":26,"material":1,"mode":4,"extras":{"ASOBO_primitive":{"PrimitiveCount":32,"VertexType":"VTX","VertexVersion":2}}}],"name":"part002"},{"primitives":[{"attributes":{"COLOR_0":32,"NORMAL":29,"POSITION":27,"TANGENT":28,"TEXCOORD_0":30,"TEXCOORD_1":31},"indices":33,"material":1,"mode":4,"extras":{"ASOBO_primitive":{"PrimitiveCount":32,"VertexType":"VTX","VertexVersion":2}}}],"name":"part003"}],"nodes":[{"name":"node_0","children":[1,2,3,4,5,6,7,8]},{"mesh":0,"name":"node_7"},{"translation":[6.123031769111886e-16,0.0,-5.0],"rotation":[-6.123031769111886e-17,3.061515884555943e-17,1.0,1.874575902277672e-33],"scale":[1.0,1.0,1.0],"name":"contrail1"},{"translation":[-0.05000000074505825,-0.18000000715255738,1.5399999618530272],"rotation":[-0.7071067811865475,0.0,0.0,0.7071067811865475],"scale":[1.0,1.0,1.0],"name":"Taxi_Light"},{"translation":[0.05000000074505787,-0.18000000715255738,1.5399999618530272],"rotation":[-0.7071067811865475,0.0,0.0,0.7071067811865475],"scale":[1.0,1.0,1.0],"name":"Landing_Light"},{"translation":[-1.2001142501034423e-16,-1.0499999523162842,0.9800000190734864],"rotation":[-6.123031769111886e-17,3.061515884555943e-17,1.0,1.874575902277672e-33],"scale":[1.0,1.0,1.0],"name":"c_tire1"},{"translation":[1.1799999475479127,-1.100000023841858,-0.49999999999999986],"rotation":[-6.123031769111886e-17,3.061515884555943e-17,1.0,1.874575902277672e-33],"scale":[1.0,1.0,1.0],"name":"l_tire1"},{"translation":[-1.1799999475479127,-1.100000023841858,-0.5000000000000001],"rotation":[-6.123031769111886e-17,3.061515884555943e-17,1.0,1.874575902277672e-33],"scale":[1.0,1.0,1.0],"name":"r_tire1"},{"translation":[0.0,0.0,0.0],"rotation":[-4.329637285359677e-17,0.7071067811865475,0.7071067811865475,4.329637285359677e-17],"scale":[1.0,1.0,1.0],"name":"node_25","children":[9,12]},{"translation":[0.0,1.6794760227203368,0.09506499767303466],"rotation":[0.0,0.0,0.0,1.0],"scale":[1.0,1.0,1.0],"name":"node_26","children":[10]},{"name":"prop0_still_VC","children":[11]},{"mesh":1,"name":"engine0_AN_VC"},{"translation":[0.0,1.6803619861602784,0.103022001683712],"rotation":[0.0,0.0,0.0,1.0],"scale":[1.0,1.0,1.0],"name":"node_31","children":[13,15]},{"name":"prop0_blurred_VC","children":[14]},{"mesh":2,"name":"ENGINE0_AN_VC_1"},{"name":"prop0_slow_VC","children":[16]},{"mesh":3,"name":"ENGINE0_AN_VC_2"}],"scene":0,"scenes":[{"nodes":[0]}],"textures":[{"extensions":{"MSFT_texture_dds":{"source":0}}},{"extensions":{"MSFT_texture_dds":{"source":1}}},{"extensions":{"MSFT_texture_dds":{"source":2}}}],"extensionsUsed":["MSFT_texture_dds","ASOBO_asset_optimized"],"buffers":[{"byteLength":18822,"uri":"HTAI Cessna 152 WP MSFS_LOD3.bin"}],"images":[{"uri":"HTAI_C152.PNG.DDS","extras":"ASOBO_image_converted_meta"},{"uri":"HTAI_C152_C.PNG.DDS","extras":"ASOBO_image_converted_meta"},{"uri":"PROP-HS.PNG.DDS","extras":"ASOBO_image_converted_meta"}]}
