{"accessors":[{"bufferView":0,"componentType":5126,"count":5,"min":[0.0],"max":[100.0],"type":"SCALAR"},{"bufferView":2,"componentType":5126,"count":5,"type":"VEC4"},{"bufferView":0,"byteOffset":20,"componentType":5126,"count":5,"min":[0.0],"max":[100.0],"type":"SCALAR"},{"bufferView":2,"byteOffset":80,"componentType":5126,"count":5,"type":"VEC4"},{"bufferView":0,"byteOffset":40,"componentType":5126,"count":5,"min":[0.0],"max":[100.0],"type":"SCALAR"},{"bufferView":2,"byteOffset":160,"componentType":5126,"count":5,"type":"VEC4"},{"bufferView":0,"byteOffset":60,"componentType":5126,"count":2,"min":[0.0],"max":[100.0],"type":"SCALAR"},{"bufferView":1,"componentType":5126,"count":2,"type":"VEC3"},{"bufferView":0,"byteOffset":68,"componentType":5126,"count":2,"min":[0.0],"max":[100.0],"type":"SCALAR"},{"bufferView":2,"byteOffset":240,"componentType":5126,"count":2,"type":"VEC4"},{"bufferView":0,"byteOffset":76,"componentType":5126,"count":2,"min":[0.0],"max":[100.0],"type":"SCALAR"},{"bufferView":1,"byteOffset":24,"componentType":5126,"count":2,"type":"VEC3"},{"bufferView":0,"byteOffset":84,"componentType":5126,"count":2,"min":[0.0],"max":[100.0],"type":"SCALAR"},{"bufferView":2,"byteOffset":272,"componentType":5126,"count":2,"type":"VEC4"},{"bufferView":3,"componentType":5126,"count":60,"min":[-1.2474299669265748,-1.1135900020599366,-0.6512600183486939],"max":[1.2474299669265748,-0.682919979095459,1.218269944190979],"type":"VEC3","name":"part000_vertices#0_POSITION"},{"bufferView":3,"byteOffset":12,"componentType":5120,"count":60,"type":"VEC4","name":"part000_vertices#0_TANGENT"},{"bufferView":3,"byteOffset":16,"componentType":5120,"count":60,"type":"VEC4","name":"part000_vertices#0_NORMAL"},{"bufferView":3,"byteOffset":20,"componentType":5122,"count":60,"type":"VEC2","name":"part000_vertices#0_TEXCOORD_0"},{"bufferView":3,"byteOffset":24,"componentType":5122,"count":60,"type":"VEC2","name":"part000_vertices#0_TEXCOORD_1"},{"bufferView":3,"byteOffset":28,"componentType":5123,"count":60,"type":"VEC4","name":"part000_vertices#0_COLOR_0"},{"bufferView":4,"componentType":5123,"count":180,"type":"SCALAR","name":"part000_indices#0"},{"bufferView":3,"byteOffset":2160,"componentType":5126,"count":534,"min":[-5.102630138397217,-1.1135900020599366,-5.387609958648682],"max":[5.102630138397217,1.3632800579071046,1.9174000024795533],"type":"VEC3","name":"part001_vertices#0_POSITION"},{"bufferView":3,"byteOffset":2172,"componentType":5120,"count":534,"type":"VEC4","name":"part001_vertices#0_TANGENT"},{"bufferView":3,"byteOffset":2176,"componentType":5120,"count":534,"type":"VEC4","name":"part001_vertices#0_NORMAL"},{"bufferView":3,"byteOffset":2180,"componentType":5122,"count":534,"type":"VEC2","name":"part001_vertices#0_TEXCOORD_0"},{"bufferView":3,"byteOffset":2184,"componentType":5122,"count":534,"type":"VEC2","name":"part001_vertices#0_TEXCOORD_1"},{"bufferView":3,"byteOffset":2188,"componentType":5123,"count":534,"type":"VEC4","name":"part001_vertices#0_COLOR_0"},{"bufferView":4,"byteOffset":360,"componentType":5123,"count":1548,"type":"SCALAR","name":"part001_indices#0"},{"bufferView":3,"byteOffset":21384,"componentType":5126,"count":32,"min":[-0.06975000351667404,-0.02329999953508377,-0.9104300141334534],"max":[0.06975000351667404,0.023329999297857286,0.9104300141334534],"type":"VEC3","name":"part002_vertices#0_POSITION"},{"bufferView":3,"byteOffset":21396,"componentType":5120,"count":32,"type":"VEC4","name":"part002_vertices#0_TANGENT"},{"bufferView":3,"byteOffset":21400,"componentType":5120,"count":32,"type":"VEC4","name":"part002_vertices#0_NORMAL"},{"bufferView":3,"byteOffset":21404,"componentType":5122,"count":32,"type":"VEC2","name":"part002_vertices#0_TEXCOORD_0"},{"bufferView":3,"byteOffset":21408,"componentType":5122,"count":32,"type":"VEC2","name":"part002_vertices#0_TEXCOORD_1"},{"bufferView":3,"byteOffset":21412,"componentType":5123,"count":32,"type":"VEC4","name":"part002_vertices#0_COLOR_0"},{"bufferView":4,"byteOffset":3456,"componentType":5123,"count":72,"type":"SCALAR","name":"part002_indices#0"},{"bufferView":3,"byteOffset":22536,"componentType":5126,"count":34,"min":[-0.9078699946403503,0.0,-0.9078699946403503],"max":[0.9078699946403503,0.0,0.9078699946403503],"type":"VEC3","name":"part003_vertices#0_POSITION"},{"bufferView":3,"byteOffset":22548,"componentType":5120,"count":34,"type":"VEC4","name":"part003_vertices#0_TANGENT"},{"bufferView":3,"byteOffset":22552,"componentType":5120,"count":34,"type":"VEC4","name":"part003_vertices#0_NORMAL"},{"bufferView":3,"byteOffset":22556,"componentType":5122,"count":34,"type":"VEC2","name":"part003_vertices#0_TEXCOORD_0"},{"bufferView":3,"byteOffset":22560,"componentType":5122,"count":34,"type":"VEC2","name":"part003_vertices#0_TEXCOORD_1"},{"bufferView":3,"byteOffset":22564,"componentType":5123,"count":34,"type":"VEC4","name":"part003_vertices#0_COLOR_0"},{"bufferView":4,"byteOffset":3600,"componentType":5123,"count":96,"type":"SCALAR","name":"part003_indices#0"},{"bufferView":3,"byteOffset":23760,"componentType":5126,"count":34,"min":[-0.9078699946403503,0.0,-0.9078699946403503],"max":[0.9078699946403503,0.0,0.9078699946403503],"type":"VEC3","name":"part004_vertices#0_POSITION"},{"bufferView":3,"byteOffset":23772,"componentType":5120,"count":34,"type":"VEC4","name":"part004_vertices#0_TANGENT"},{"bufferView":3,"byteOffset":23776,"componentType":5120,"count":34,"type":"VEC4","name":"part004_vertices#0_NORMAL"},{"bufferView":3,"byteOffset":23780,"componentType":5122,"count":34,"type":"VEC2","name":"part004_vertices#0_TEXCOORD_0"},{"bufferView":3,"byteOffset":23784,"componentType":5122,"count":34,"type":"VEC2","name":"part004_vertices#0_TEXCOORD_1"},{"bufferView":3,"byteOffset":23788,"componentType":5123,"count":34,"type":"VEC4","name":"part004_vertices#0_COLOR_0"},{"bufferView":4,"byteOffset":3792,"componentType":5123,"count":96,"type":"SCALAR","name":"part004_indices#0"},{"bufferView":3,"byteOffset":24984,"componentType":5126,"count":12,"min":[-0.8032100200653076,-0.2599799931049347,-0.05961000174283981],"max":[0.8032100200653076,0.2599799931049347,0.05961000174283981],"type":"VEC3","name":"part005_vertices#0_POSITION"},{"bufferView":3,"byteOffset":24996,"componentType":5120,"count":12,"type":"VEC4","name":"part005_vertices#0_TANGENT"},{"bufferView":3,"byteOffset":25000,"componentType":5120,"count":12,"type":"VEC4","name":"part005_vertices#0_NORMAL"},{"bufferView":3,"byteOffset":25004,"componentType":5122,"count":12,"type":"VEC2","name":"part005_vertices#0_TEXCOORD_0"},{"bufferView":3,"byteOffset":25008,"componentType":5122,"count":12,"type":"VEC2","name":"part005_vertices#0_TEXCOORD_1"},{"bufferView":3,"byteOffset":25012,"componentType":5123,"count":12,"type":"VEC4","name":"part005_vertices#0_COLOR_0"},{"bufferView":4,"byteOffset":3984,"componentType":5123,"count":24,"type":"SCALAR","name":"part005_indices#0"},{"bufferView":3,"byteOffset":25416,"componentType":5126,"count":12,"min":[-0.8032100200653076,-0.2599799931049347,-0.05961000174283981],"max":[0.8032100200653076,0.2599799931049347,0.05961000174283981],"type":"VEC3","name":"part006_vertices#0_POSITION"},{"bufferView":3,"byteOffset":25428,"componentType":5120,"count":12,"type":"VEC4","name":"part006_vertices#0_TANGENT"},{"bufferView":3,"byteOffset":25432,"componentType":5120,"count":12,"type":"VEC4","name":"part006_vertices#0_NORMAL"},{"bufferView":3,"byteOffset":25436,"componentType":5122,"count":12,"type":"VEC2","name":"part006_vertices#0_TEXCOORD_0"},{"bufferView":3,"byteOffset":25440,"componentType":5122,"count":12,"type":"VEC2","name":"part006_vertices#0_TEXCOORD_1"},{"bufferView":3,"byteOffset":25444,"componentType":5123,"count":12,"type":"VEC4","name":"part006_vertices#0_COLOR_0"},{"bufferView":4,"byteOffset":4032,"componentType":5123,"count":24,"type":"SCALAR","name":"part006_indices#0"}],"animations":[{"name":"engine0","channels":[{"sampler":0,"target":{"node":12,"path":"rotation"}},{"sampler":1,"target":{"node":15,"path":"rotation"}},{"sampler":2,"target":{"node":17,"path":"rotation"}}],"samplers":[{"input":0,"output":1,"interpolation":"LINEAR"},{"input":2,"output":3,"interpolation":"LINEAR"},{"input":4,"output":5,"interpolation":"LINEAR"}]},{"name":"custom_anim_FLAPS_SML_GA","channels":[{"sampler":0,"target":{"node":19,"path":"translation"}},{"sampler":1,"target":{"node":21,"path":"rotation"}},{"sampler":2,"target":{"node":23,"path":"translation"}},{"sampler":3,"target":{"node":25,"path":"rotation"}}],"samplers":[{"input":6,"output":7,"interpolation":"LINEAR"},{"input":8,"output":9,"interpolation":"LINEAR"},{"input":10,"output":11,"interpolation":"LINEAR"},{"input":12,"output":13,"interpolation":"LINEAR"}]}],"asset":{"generator":"ModelConverterX","version":"2.0","extensions":{"ASOBO_asset_optimized":{"BoundingBoxMax":[5.102630138397217,1.3632800579071046,1.9174000024795533],"BoundingBoxMin":[-5.102630138397217,-1.1135900020599366,-5.387609958648682],"MajorVersion":4,"MinorVersion":4,"UseCheckerboardMaterialForMissingTextures":true,"UseOnlyFilenameForImageURI":true}}},"bufferViews":[{"buffer":0,"byteLength":92,"byteStride":4},{"buffer":0,"byteLength":48,"byteStride":12,"byteOffset":92},{"buffer":0,"byteLength":304,"byteStride":16,"byteOffset":140},{"buffer":0,"byteLength":25848,"byteStride":36,"byteOffset":444,"target":34962,"name":"BufferViewVertexND"},{"buffer":0,"byteLength":4080,"byteOffset":26292,"target":34963,"name":"BufferViewIndex"}],"extensionsRequired":["MSFT_texture_dds"],"materials":[{"name":"material00","pbrMetallicRoughness":{"baseColorFactor":[0.03921600058674812,0.03921600058674812,0.03921600058674812,1.0],"metallicFactor":0.0}},{"name":"material01","occlusionTexture":{"index":1},"emissiveFactor":[0.019607843831181527,0.019607843831181527,0.019607843831181527],"pbrMetallicRoughness":{"baseColorTexture":{"index":0},"metallicRoughnessTexture":{"index":1}}},{"name":"material02","alphaMode":"BLEND","pbrMetallicRoughness":{"baseColorFactor":[0.0,0.0,0.0,0.9803919792175292],"metallicFactor":0.0,"baseColorTexture":{"index":2}}}],"meshes":[{"primitives":[{"attributes":{"COLOR_0":19,"NORMAL":16,"POSITION":14,"TANGENT":15,"TEXCOORD_0":17,"TEXCOORD_1":18},"indices":20,"material":0,"mode":4,"extras":{"ASOBO_primitive":{"PrimitiveCount":60,"VertexType":"VTX","VertexVersion":2}}}],"name":"part000"},{"primitives":[{"attributes":{"COLOR_0":26,"NORMAL":23,"POSITION":21,"TANGENT":22,"TEXCOORD_0":24,"TEXCOORD_1":25},"indices":27,"material":1,"mode":4,"extras":{"ASOBO_primitive":{"PrimitiveCount":516,"VertexType":"VTX","VertexVersion":2}}}],"name":"part001"},{"primitives":[{"attributes":{"COLOR_0":33,"NORMAL":30,"POSITION":28,"TANGENT":29,"TEXCOORD_0":31,"TEXCOORD_1":32},"indices":34,"material":1,"mode":4,"extras":{"ASOBO_primitive":{"PrimitiveCount":24,"VertexType":"VTX","VertexVersion":2}}}],"name":"part002"},{"primitives":[{"attributes":{"COLOR_0":40,"NORMAL":37,"POSITION":35,"TANGENT":36,"TEXCOORD_0":38,"TEXCOORD_1":39},"indices":41,"material":2,"mode":4,"extras":{"ASOBO_primitive":{"PrimitiveCount":32,"VertexType":"VTX","VertexVersion":2}}}],"name":"part003"},{"primitives":[{"attributes":{"COLOR_0":47,"NORMAL":44,"POSITION":42,"TANGENT":43,"TEXCOORD_0":45,"TEXCOORD_1":46},"indices":48,"material":2,"mode":4,"extras":{"ASOBO_primitive":{"PrimitiveCount":32,"VertexType":"VTX","VertexVersion":2}}}],"name":"part004"},{"primitives":[{"attributes":{"COLOR_0":54,"NORMAL":51,"POSITION":49,"TANGENT":50,"TEXCOORD_0":52,"TEXCOORD_1":53},"indices":55,"material":1,"mode":4,"extras":{"ASOBO_primitive":{"PrimitiveCount":8,"VertexType":"VTX","VertexVersion":2}}}],"name":"part005"},{"primitives":[{"attributes":{"COLOR_0":61,"NORMAL":58,"POSITION":56,"TANGENT":57,"TEXCOORD_0":59,"TEXCOORD_1":60},"indices":62,"material":1,"mode":4,"extras":{"ASOBO_primitive":{"PrimitiveCount":8,"VertexType":"VTX","VertexVersion":2}}}],"name":"part006"}],"nodes":[{"name":"node_0","children":[1,2,3,4,5,6,7,8,9]},{"mesh":0,"name":"node_8"},{"mesh":1,"name":"node_9"},{"translation":[6.123031769111886e-16,0.0,-5.0],"rotation":[-6.123031769111886e-17,3.061515884555943e-17,1.0,1.874575902277672e-33],"scale":[1.0,1.0,1.0],"name":"contrail1"},{"translation":[-0.05000000074505825,-0.18000000715255738,1.5399999618530272],"rotation":[-0.7071067811865475,0.0,0.0,0.7071067811865475],"scale":[1.0,1.0,1.0],"name":"Taxi_Light"},{"translation":[0.05000000074505787,-0.18000000715255738,1.5399999618530272],"rotation":[-0.7071067811865475,0.0,0.0,0.7071067811865475],"scale":[1.0,1.0,1.0],"name":"Landing_Light"},{"translation":[-1.2001142501034423e-16,-1.0499999523162842,0.9800000190734864],"rotation":[-6.123031769111886e-17,3.061515884555943e-17,1.0,1.874575902277672e-33],"scale":[1.0,1.0,1.0],"name":"c_tire1"},{"translation":[1.1799999475479127,-1.100000023841858,-0.49999999999999986],"rotation":[-6.123031769111886e-17,3.061515884555943e-17,1.0,1.874575902277672e-33],"scale":[1.0,1.0,1.0],"name":"l_tire1"},{"translation":[-1.1799999475479127,-1.100000023841858,-0.5000000000000001],"rotation":[-6.123031769111886e-17,3.061515884555943e-17,1.0,1.874575902277672e-33],"scale":[1.0,1.0,1.0],"name":"r_tire1"},{"translation":[0.0,0.0,0.0],"rotation":[-4.329637285359677e-17,0.7071067811865475,0.7071067811865475,4.329637285359677e-17],"scale":[1.0,1.0,1.0],"name":"node_25","children":[10,13,18,22]},{"translation":[0.0,1.6794760227203368,0.09506499767303466],"rotation":[0.0,0.0,0.0,1.0],"scale":[1.0,1.0,1.0],"name":"node_26","children":[11]},{"name":"prop0_still_VC","children":[12]},{"mesh":2,"name":"engine0_AN_VC"},{"translation":[0.0,1.6803619861602784,0.103022001683712],"rotation":[0.0,0.0,0.0,1.0],"scale":[1.0,1.0,1.0],"name":"node_31","children":[14,16]},{"name":"prop0_blurred_VC","children":[15]},{"mesh":3,"name":"ENGINE0_AN_VC_1"},{"name":"prop0_slow_VC","children":[17]},{"mesh":4,"name":"ENGINE0_AN_VC_2"},{"name":"node_40","children":[19]},{"name":"custom_anim_FLAPS_SML_GA_AN_40","children":[20]},{"name":"node_41","children":[21]},{"mesh":5,"name":"custom_anim_FLAPS_SML_GA_AN_41"},{"name":"node_46","children":[23]},{"name":"custom_anim_FLAPS_SML_GA_AN_46","children":[24]},{"name":"node_47","children":[25]},{"mesh":6,"name":"custom_anim_FLAPS_SML_GA_AN_47"}],"scene":0,"scenes":[{"nodes":[0]}],"textures":[{"extensions":{"MSFT_texture_dds":{"source":0}}},{"extensions":{"MSFT_texture_dds":{"source":1}}},{"extensions":{"MSFT_texture_dds":{"source":2}}}],"extensionsUsed":["MSFT_texture_dds","ASOBO_asset_optimized"],"buffers":[{"byteLength":30372,"uri":"HTAI Cessna 152 WP MSFS_LOD2.bin"}],"images":[{"uri":"HTAI_C152.PNG.DDS","extras":"ASOBO_image_converted_meta"},{"uri":"HTAI_C152_C.PNG.DDS","extras":"ASOBO_image_converted_meta"},{"uri":"PROP-HS.PNG.DDS","extras":"ASOBO_image_converted_meta"}]}
