{"accessors":[{"bufferView":0,"componentType":5126,"count":4,"min":[0.0],"max":[100.0],"type":"SCALAR"},{"bufferView":1,"componentType":5126,"count":4,"type":"VEC4"},{"bufferView":0,"byteOffset":16,"componentType":5126,"count":3,"min":[0.0],"max":[100.0],"type":"SCALAR"},{"bufferView":1,"byteOffset":64,"componentType":5126,"count":3,"type":"VEC4"},{"bufferView":2,"componentType":5126,"count":277,"min":[-19.967140197753908,-2.1335999965667726,-19.59712028503418],"max":[19.967750549316408,8.692290306091309,15.154709815979004],"type":"VEC3","name":"part000_vertices#0_POSITION"},{"bufferView":2,"byteOffset":12,"componentType":5120,"count":277,"type":"VEC4","name":"part000_vertices#0_TANGENT"},{"bufferView":2,"byteOffset":16,"componentType":5120,"count":277,"type":"VEC4","name":"part000_vertices#0_NORMAL"},{"bufferView":2,"byteOffset":20,"componentType":5122,"count":277,"type":"VEC2","name":"part000_vertices#0_TEXCOORD_0"},{"bufferView":2,"byteOffset":24,"componentType":5122,"count":277,"type":"VEC2","name":"part000_vertices#0_TEXCOORD_1"},{"bufferView":2,"byteOffset":28,"componentType":5123,"count":277,"type":"VEC4","name":"part000_vertices#0_COLOR_0"},{"bufferView":3,"componentType":5123,"count":687,"type":"SCALAR","name":"part000_indices#0"},{"bufferView":2,"byteOffset":9972,"componentType":5126,"count":44,"min":[-10.594090461730957,0.7336599826812744,3.059890031814575],"max":[10.5939302444458,1.3676400184631348,3.059890031814575],"type":"VEC3","name":"part001_vertices#0_POSITION"},{"bufferView":2,"byteOffset":9984,"componentType":5120,"count":44,"type":"VEC4","name":"part001_vertices#0_TANGENT"},{"bufferView":2,"byteOffset":9988,"componentType":5120,"count":44,"type":"VEC4","name":"part001_vertices#0_NORMAL"},{"bufferView":2,"byteOffset":9992,"componentType":5122,"count":44,"type":"VEC2","name":"part001_vertices#0_TEXCOORD_0"},{"bufferView":2,"byteOffset":9996,"componentType":5122,"count":44,"type":"VEC2","name":"part001_vertices#0_TEXCOORD_1"},{"bufferView":2,"byteOffset":10000,"componentType":5123,"count":44,"type":"VEC4","name":"part001_vertices#0_COLOR_0"},{"bufferView":3,"byteOffset":1374,"componentType":5123,"count":162,"type":"SCALAR","name":"part001_indices#0"},{"bufferView":2,"byteOffset":11556,"componentType":5126,"count":8,"min":[-0.00007000000186963007,-1.6311899423599244,-0.28238001465797427],"max":[0.05042000114917755,1.402899980545044,0.0024399999529123308],"type":"VEC3","name":"part002_vertices#0_POSITION"},{"bufferView":2,"byteOffset":11568,"componentType":5120,"count":8,"type":"VEC4","name":"part002_vertices#0_TANGENT"},{"bufferView":2,"byteOffset":11572,"componentType":5120,"count":8,"type":"VEC4","name":"part002_vertices#0_NORMAL"},{"bufferView":2,"byteOffset":11576,"componentType":5122,"count":8,"type":"VEC2","name":"part002_vertices#0_TEXCOORD_0"},{"bufferView":2,"byteOffset":11580,"componentType":5122,"count":8,"type":"VEC2","name":"part002_vertices#0_TEXCOORD_1"},{"bufferView":2,"byteOffset":11584,"componentType":5123,"count":8,"type":"VEC4","name":"part002_vertices#0_COLOR_0"},{"bufferView":3,"byteOffset":1698,"componentType":5123,"count":12,"type":"SCALAR","name":"part002_indices#0"},{"bufferView":2,"byteOffset":11844,"componentType":5126,"count":10,"min":[-0.05042000114917755,-1.6311899423599244,-0.28238001465797427],"max":[0.00007000000186963007,1.402899980545044,0.0024399999529123308],"type":"VEC3","name":"part003_vertices#0_POSITION"},{"bufferView":2,"byteOffset":11856,"componentType":5120,"count":10,"type":"VEC4","name":"part003_vertices#0_TANGENT"},{"bufferView":2,"byteOffset":11860,"componentType":5120,"count":10,"type":"VEC4","name":"part003_vertices#0_NORMAL"},{"bufferView":2,"byteOffset":11864,"componentType":5122,"count":10,"type":"VEC2","name":"part003_vertices#0_TEXCOORD_0"},{"bufferView":2,"byteOffset":11868,"componentType":5122,"count":10,"type":"VEC2","name":"part003_vertices#0_TEXCOORD_1"},{"bufferView":2,"byteOffset":11872,"componentType":5123,"count":10,"type":"VEC4","name":"part003_vertices#0_COLOR_0"},{"bufferView":3,"byteOffset":1722,"componentType":5123,"count":12,"type":"SCALAR","name":"part003_indices#0"}],"animations":[{"name":"l_gear","channels":[{"sampler":0,"target":{"node":19,"path":"rotation"}}],"samplers":[{"input":0,"output":1,"interpolation":"LINEAR"}]},{"name":"r_gear","channels":[{"sampler":0,"target":{"node":22,"path":"rotation"}}],"samplers":[{"input":2,"output":3,"interpolation":"LINEAR"}]}],"asset":{"generator":"ModelConverterX","version":"2.0","extensions":{"ASOBO_asset_optimized":{"BoundingBoxMax":[19.967750549316408,8.692290306091309,15.154709815979004],"BoundingBoxMin":[-19.967140197753908,-2.1335999965667726,-19.59712028503418],"MajorVersion":4,"MinorVersion":4,"UseCheckerboardMaterialForMissingTextures":true,"UseOnlyFilenameForImageURI":true}}},"bufferViews":[{"buffer":0,"byteLength":28,"byteStride":4},{"buffer":0,"byteLength":112,"byteStride":16,"byteOffset":28},{"buffer":0,"byteLength":12204,"byteStride":36,"byteOffset":140,"target":34962,"name":"BufferViewVertexND"},{"buffer":0,"byteLength":1746,"byteOffset":12344,"target":34963,"name":"BufferViewIndex"}],"extensionsRequired":["MSFT_texture_dds"],"materials":[{"name":"material00","pbrMetallicRoughness":{"baseColorFactor":[0.03921600058674812,0.03921600058674812,0.03921600058674812,1.0],"metallicFactor":0.0}},{"name":"material01","emissiveTexture":{"index":1},"emissiveFactor":[0.019607843831181527,0.019607843831181527,0.019607843831181527],"pbrMetallicRoughness":{"metallicFactor":0.0,"baseColorTexture":{"index":0}},"extensions":{"ASOBO_material_day_night_switch":{}}}],"meshes":[{"primitives":[{"attributes":{"COLOR_0":9,"NORMAL":6,"POSITION":4,"TANGENT":5,"TEXCOORD_0":7,"TEXCOORD_1":8},"indices":10,"material":1,"mode":4,"extras":{"ASOBO_primitive":{"PrimitiveCount":229,"VertexType":"VTX","VertexVersion":2}}}],"name":"part000"},{"primitives":[{"attributes":{"COLOR_0":16,"NORMAL":13,"POSITION":11,"TANGENT":12,"TEXCOORD_0":14,"TEXCOORD_1":15},"indices":17,"material":0,"mode":4,"extras":{"ASOBO_primitive":{"PrimitiveCount":54,"VertexType":"VTX","VertexVersion":2}}}],"name":"part001"},{"primitives":[{"attributes":{"COLOR_0":23,"NORMAL":20,"POSITION":18,"TANGENT":19,"TEXCOORD_0":21,"TEXCOORD_1":22},"indices":24,"material":1,"mode":4,"extras":{"ASOBO_primitive":{"PrimitiveCount":4,"VertexType":"VTX","VertexVersion":2}}}],"name":"part002"},{"primitives":[{"attributes":{"COLOR_0":30,"NORMAL":27,"POSITION":25,"TANGENT":26,"TEXCOORD_0":28,"TEXCOORD_1":29},"indices":31,"material":1,"mode":4,"extras":{"ASOBO_primitive":{"PrimitiveCount":4,"VertexType":"VTX","VertexVersion":2}}}],"name":"part003"}],"nodes":[{"name":"node_0","children":[1,2,3,4,5,6,7,8,9,10,11,12,13,14,15,16]},{"mesh":0,"name":"node_2"},{"mesh":1,"name":"node_3"},{"translation":[10.300000190734864,1.5,-0.9999999999999987],"rotation":[-6.123031769111886e-17,3.061515884555943e-17,1.0,1.874575902277672e-33],"scale":[1.0,1.0,1.0],"name":"contrail1"},{"translation":[2.5,-1.75,0.8700000047683718],"rotation":[-0.7071067811865475,0.0,0.0,0.7071067811865475],"scale":[1.0,1.0,1.0],"name":"port_gear_landing"},{"translation":[2.5,-1.75,0.8700000047683718],"rotation":[-0.7071067811865475,0.0,0.0,0.7071067811865475],"scale":[1.0,1.0,1.0],"name":"port_gear_taxi"},{"translation":[-2.5,-1.75,0.8700000047683713],"rotation":[-0.7071067811865475,0.0,0.0,0.7071067811865475],"scale":[1.0,1.0,1.0],"name":"starboard_gear_landing"},{"translation":[-2.5,-1.75,0.8700000047683713],"rotation":[-0.7071067811865475,0.0,0.0,0.7071067811865475],"scale":[1.0,1.0,1.0],"name":"starboard_gear_taxi"},{"translation":[-6.889999866485596,1.7200000286102296,0.4799999892711631],"rotation":[-0.7071067811865475,0.0,0.0,0.7071067811865475],"scale":[1.0,1.0,1.0],"name":"starboard_wing"},{"translation":[6.889999866485596,1.7200000286102296,0.4799999892711648],"rotation":[-0.7071067811865475,0.0,0.0,0.7071067811865475],"scale":[1.0,1.0,1.0],"name":"port_wing"},{"translation":[-10.300000190734864,1.5,-1.000000000000001],"rotation":[-6.123031769111886e-17,3.061515884555943e-17,1.0,1.874575902277672e-33],"scale":[1.0,1.0,1.0],"name":"contrail4"},{"translation":[5.099999904632568,1.2999999523162842,-0.9999999999999992],"rotation":[-6.123031769111886e-17,3.061515884555943e-17,1.0,1.874575902277672e-33],"scale":[1.0,1.0,1.0],"name":"contrail2"},{"translation":[-5.099999904632568,1.2999999523162842,-1.0000000000000009],"rotation":[-6.123031769111886e-17,3.061515884555943e-17,1.0,1.874575902277672e-33],"scale":[1.0,1.0,1.0],"name":"contrail3"},{"translation":[-1.4082973068957339e-15,-2.5,11.5],"rotation":[-6.123031769111886e-17,3.061515884555943e-17,1.0,1.874575902277672e-33],"scale":[1.0,1.0,1.0],"name":"c_tire1"},{"translation":[2.0999999046325685,-2.5999999046325685,-1.7000000476837157],"rotation":[-6.123031769111886e-17,3.061515884555943e-17,1.0,1.874575902277672e-33],"scale":[1.0,1.0,1.0],"name":"l_tire1"},{"translation":[-2.0999999046325685,-2.5999999046325685,-1.700000047683716],"rotation":[-6.123031769111886e-17,3.061515884555943e-17,1.0,1.874575902277672e-33],"scale":[1.0,1.0,1.0],"name":"r_tire1"},{"translation":[0.0,0.0,0.0],"rotation":[-4.329637285359677e-17,0.7071067811865475,0.7071067811865475,4.329637285359677e-17],"scale":[1.0,1.0,1.0],"name":"node_39","children":[17,20]},{"translation":[-2.416604995727539,-0.532755970954895,-1.3971140384674073],"rotation":[0.0,0.0,0.0,1.0],"scale":[1.0,1.0,1.0],"name":"node_145","children":[18]},{"name":"node_146","children":[19]},{"mesh":2,"name":"l_gear_AN_146"},{"translation":[2.416604995727539,-0.532755970954895,-1.3971140384674073],"rotation":[0.0,0.0,0.0,1.0],"scale":[1.0,1.0,1.0],"name":"node_156","children":[21]},{"name":"node_157","children":[22]},{"mesh":3,"name":"r_gear_AN_157"}],"scene":0,"scenes":[{"nodes":[0]}],"textures":[{"extensions":{"MSFT_texture_dds":{"source":0}}},{"extensions":{"MSFT_texture_dds":{"source":1}}}],"extensionsUsed":["ASOBO_material_day_night_switch","MSFT_texture_dds","ASOBO_asset_optimized"],"buffers":[{"byteLength":14090,"uri":"HTAI_Lockheed_L-100-30_NWT_MSFS_LOD8.bin"}],"images":[{"uri":"L-100-30.PNG.DDS","extras":"ASOBO_image_converted_meta"},{"uri":"L-100-30_L.PNG.DDS","extras":"ASOBO_image_converted_meta"}]}
