{"accessors":[{"bufferView":0,"componentType":5126,"count":87,"min":[-19.967140197753908,-2.1335999965667726,-19.59712028503418],"max":[19.967750549316408,8.692290306091309,15.15466022491455],"type":"VEC3","name":"part000_vertices#0_POSITION"},{"bufferView":0,"byteOffset":12,"componentType":5120,"count":87,"type":"VEC4","name":"part000_vertices#0_TANGENT"},{"bufferView":0,"byteOffset":16,"componentType":5120,"count":87,"type":"VEC4","name":"part000_vertices#0_NORMAL"},{"bufferView":0,"byteOffset":20,"componentType":5122,"count":87,"type":"VEC2","name":"part000_vertices#0_TEXCOORD_0"},{"bufferView":0,"byteOffset":24,"componentType":5122,"count":87,"type":"VEC2","name":"part000_vertices#0_TEXCOORD_1"},{"bufferView":0,"byteOffset":28,"componentType":5123,"count":87,"type":"VEC4","name":"part000_vertices#0_COLOR_0"},{"bufferView":1,"componentType":5123,"count":189,"type":"SCALAR","name":"part000_indices#0"}],"asset":{"generator":"ModelConverterX","version":"2.0","extensions":{"ASOBO_asset_optimized":{"BoundingBoxMax":[19.967750549316408,8.692290306091309,15.15466022491455],"BoundingBoxMin":[-19.967140197753908,-2.1335999965667726,-19.59712028503418],"MajorVersion":4,"MinorVersion":4,"UseCheckerboardMaterialForMissingTextures":true,"UseOnlyFilenameForImageURI":true}}},"bufferViews":[{"buffer":0,"byteLength":3132,"byteStride":36,"target":34962,"name":"BufferViewVertexND"},{"buffer":0,"byteLength":378,"byteOffset":3132,"target":34963,"name":"BufferViewIndex"}],"extensionsRequired":["MSFT_texture_dds"],"materials":[{"name":"material00","emissiveTexture":{"index":1},"emissiveFactor":[0.019607843831181527,0.019607843831181527,0.019607843831181527],"pbrMetallicRoughness":{"metallicFactor":0.0,"baseColorTexture":{"index":0}},"extensions":{"ASOBO_material_day_night_switch":{}}}],"meshes":[{"primitives":[{"attributes":{"COLOR_0":5,"NORMAL":2,"POSITION":0,"TANGENT":1,"TEXCOORD_0":3,"TEXCOORD_1":4},"indices":6,"material":0,"mode":4,"extras":{"ASOBO_primitive":{"PrimitiveCount":63,"VertexType":"VTX","VertexVersion":2}}}],"name":"part000"}],"nodes":[{"name":"node_0","children":[1,2,3,4,5,6,7,8,9,10,11,12,13,14]},{"mesh":0,"name":"node_1"},{"translation":[10.300000190734864,1.5,-0.9999999999999987],"rotation":[-6.123031769111886e-17,3.061515884555943e-17,1.0,1.874575902277672e-33],"scale":[1.0,1.0,1.0],"name":"contrail1"},{"translation":[2.5,-1.75,0.8700000047683718],"rotation":[-0.7071067811865475,0.0,0.0,0.7071067811865475],"scale":[1.0,1.0,1.0],"name":"port_gear_landing"},{"translation":[2.5,-1.75,0.8700000047683718],"rotation":[-0.7071067811865475,0.0,0.0,0.7071067811865475],"scale":[1.0,1.0,1.0],"name":"port_gear_taxi"},{"translation":[-2.5,-1.75,0.8700000047683713],"rotation":[-0.7071067811865475,0.0,0.0,0.7071067811865475],"scale":[1.0,1.0,1.0],"name":"starboard_gear_landing"},{"translation":[-2.5,-1.75,0.8700000047683713],"rotation":[-0.7071067811865475,0.0,0.0,0.7071067811865475],"scale":[1.0,1.0,1.0],"name":"starboard_gear_taxi"},{"translation":[-6.889999866485596,1.7200000286102296,0.4799999892711631],"rotation":[-0.7071067811865475,0.0,0.0,0.7071067811865475],"scale":[1.0,1.0,1.0],"name":"starboard_wing"},{"translation":[6.889999866485596,1.7200000286102296,0.4799999892711648],"rotation":[-0.7071067811865475,0.0,0.0,0.7071067811865475],"scale":[1.0,1.0,1.0],"name":"port_wing"},{"translation":[-10.300000190734864,1.5,-1.000000000000001],"rotation":[-6.123031769111886e-17,3.061515884555943e-17,1.0,1.874575902277672e-33],"scale":[1.0,1.0,1.0],"name":"contrail4"},{"translation":[5.099999904632568,1.2999999523162842,-0.9999999999999992],"rotation":[-6.123031769111886e-17,3.061515884555943e-17,1.0,1.874575902277672e-33],"scale":[1.0,1.0,1.0],"name":"contrail2"},{"translation":[-5.099999904632568,1.2999999523162842,-1.0000000000000009],"rotation":[-6.123031769111886e-17,3.061515884555943e-17,1.0,1.874575902277672e-33],"scale":[1.0,1.0,1.0],"name":"contrail3"},{"translation":[-1.4082973068957339e-15,-2.5,11.5],"rotation":[-6.123031769111886e-17,3.061515884555943e-17,1.0,1.874575902277672e-33],"scale":[1.0,1.0,1.0],"name":"c_tire1"},{"translation":[2.0999999046325685,-2.5999999046325685,-1.7000000476837157],"rotation":[-6.123031769111886e-17,3.061515884555943e-17,1.0,1.874575902277672e-33],"scale":[1.0,1.0,1.0],"name":"l_tire1"},{"translation":[-2.0999999046325685,-2.5999999046325685,-1.700000047683716],"rotation":[-6.123031769111886e-17,3.061515884555943e-17,1.0,1.874575902277672e-33],"scale":[1.0,1.0,1.0],"name":"r_tire1"}],"scene":0,"scenes":[{"nodes":[0]}],"textures":[{"extensions":{"MSFT_texture_dds":{"source":0}}},{"extensions":{"MSFT_texture_dds":{"source":1}}}],"extensionsUsed":["ASOBO_material_day_night_switch","MSFT_texture_dds","ASOBO_asset_optimized"],"buffers":[{"byteLength":3510,"uri":"HTAI_Lockheed_L-100-30_NWT_MSFS_LOD9.bin"}],"images":[{"uri":"L-100-30.PNG.DDS","extras":"ASOBO_image_converted_meta"},{"uri":"L-100-30_L.PNG.DDS","extras":"ASOBO_image_converted_meta"}]}
