{"accessors":[{"bufferView":0,"componentType":5126,"count":3,"min":[0.0],"max":[100.0],"type":"SCALAR"},{"bufferView":1,"componentType":5126,"count":3,"type":"VEC3"},{"bufferView":2,"componentType":5126,"count":60,"min":[-17.191999435424806,-1.0679999589920045,-21.628000259399415],"max":[17.191999435424806,10.076000213623047,17.624000549316408],"type":"VEC3","name":"part000_vertices#0_POSITION"},{"bufferView":2,"byteOffset":12,"componentType":5120,"count":60,"type":"VEC4","name":"part000_vertices#0_TANGENT"},{"bufferView":2,"byteOffset":16,"componentType":5120,"count":60,"type":"VEC4","name":"part000_vertices#0_NORMAL"},{"bufferView":2,"byteOffset":20,"componentType":5122,"count":60,"type":"VEC2","name":"part000_vertices#0_TEXCOORD_0"},{"bufferView":2,"byteOffset":24,"componentType":5122,"count":60,"type":"VEC2","name":"part000_vertices#0_TEXCOORD_1"},{"bufferView":2,"byteOffset":28,"componentType":5123,"count":60,"type":"VEC4","name":"part000_vertices#0_COLOR_0"},{"bufferView":3,"componentType":5123,"count":102,"type":"SCALAR","name":"part000_indices#0"},{"bufferView":2,"byteOffset":2160,"componentType":5126,"count":88,"min":[-17.920000076293947,-1.9199999570846558,-21.983999252319337],"max":[17.920000076293947,3.691999912261963,4.452000141143799],"type":"VEC3","name":"part001_vertices#0_POSITION"},{"bufferView":2,"byteOffset":2172,"componentType":5120,"count":88,"type":"VEC4","name":"part001_vertices#0_TANGENT"},{"bufferView":2,"byteOffset":2176,"componentType":5120,"count":88,"type":"VEC4","name":"part001_vertices#0_NORMAL"},{"bufferView":2,"byteOffset":2180,"componentType":5122,"count":88,"type":"VEC2","name":"part001_vertices#0_TEXCOORD_0"},{"bufferView":2,"byteOffset":2184,"componentType":5122,"count":88,"type":"VEC2","name":"part001_vertices#0_TEXCOORD_1"},{"bufferView":2,"byteOffset":2188,"componentType":5123,"count":88,"type":"VEC4","name":"part001_vertices#0_COLOR_0"},{"bufferView":3,"byteOffset":204,"componentType":5123,"count":120,"type":"SCALAR","name":"part001_indices#0"},{"bufferView":2,"byteOffset":5328,"componentType":5126,"count":16,"min":[-5.288000106811523,-1.4342199563980103,0.05253000184893608],"max":[5.288000106811523,0.4457800090312958,2.5325300693511965],"type":"VEC3","name":"part002_vertices#0_POSITION"},{"bufferView":2,"byteOffset":5340,"componentType":5120,"count":16,"type":"VEC4","name":"part002_vertices#0_TANGENT"},{"bufferView":2,"byteOffset":5344,"componentType":5120,"count":16,"type":"VEC4","name":"part002_vertices#0_NORMAL"},{"bufferView":2,"byteOffset":5348,"componentType":5122,"count":16,"type":"VEC2","name":"part002_vertices#0_TEXCOORD_0"},{"bufferView":2,"byteOffset":5352,"componentType":5122,"count":16,"type":"VEC2","name":"part002_vertices#0_TEXCOORD_1"},{"bufferView":2,"byteOffset":5356,"componentType":5123,"count":16,"type":"VEC4","name":"part002_vertices#0_COLOR_0"},{"bufferView":3,"byteOffset":444,"componentType":5123,"count":24,"type":"SCALAR","name":"part002_indices#0"}],"animations":[{"name":"custom_anim_REV_THRUST","channels":[{"sampler":0,"target":{"node":29,"path":"translation"}}],"samplers":[{"input":0,"output":1,"interpolation":"LINEAR"}]}],"asset":{"generator":"ModelConverterX","version":"2.0","extensions":{"ASOBO_asset_optimized":{"BoundingBoxMax":[17.920000076293947,10.076000213623047,17.624000549316408],"BoundingBoxMin":[-17.920000076293947,-1.9199999570846558,-21.983999252319337],"MajorVersion":4,"MinorVersion":4,"UseCheckerboardMaterialForMissingTextures":true,"UseOnlyFilenameForImageURI":true}}},"bufferViews":[{"buffer":0,"byteLength":12,"byteStride":4},{"buffer":0,"byteLength":36,"byteStride":12,"byteOffset":12},{"buffer":0,"byteLength":5904,"byteStride":36,"byteOffset":48,"target":34962,"name":"BufferViewVertexND"},{"buffer":0,"byteLength":492,"byteOffset":5952,"target":34963,"name":"BufferViewIndex"}],"extensionsRequired":["MSFT_texture_dds"],"materials":[{"name":"material00","occlusionTexture":{"index":1},"emissiveTexture":{"index":2},"emissiveFactor":[0.019607843831181527,0.019607843831181527,0.019607843831181527],"pbrMetallicRoughness":{"baseColorTexture":{"index":0},"metallicRoughnessTexture":{"index":1}},"extensions":{"ASOBO_material_day_night_switch":{}}},{"name":"material01","occlusionTexture":{"index":4},"pbrMetallicRoughness":{"baseColorTexture":{"index":3},"metallicRoughnessTexture":{"index":4}}}],"meshes":[{"primitives":[{"attributes":{"COLOR_0":7,"NORMAL":4,"POSITION":2,"TANGENT":3,"TEXCOORD_0":5,"TEXCOORD_1":6},"indices":8,"material":0,"mode":4,"extras":{"ASOBO_primitive":{"PrimitiveCount":34,"VertexType":"VTX","VertexVersion":2}}}],"name":"part000"},{"primitives":[{"attributes":{"COLOR_0":14,"NORMAL":11,"POSITION":9,"TANGENT":10,"TEXCOORD_0":12,"TEXCOORD_1":13},"indices":15,"material":1,"mode":4,"extras":{"ASOBO_primitive":{"PrimitiveCount":40,"VertexType":"VTX","VertexVersion":2}}}],"name":"part001"},{"primitives":[{"attributes":{"COLOR_0":21,"NORMAL":18,"POSITION":16,"TANGENT":17,"TEXCOORD_0":19,"TEXCOORD_1":20},"indices":22,"material":1,"mode":4,"extras":{"ASOBO_primitive":{"PrimitiveCount":8,"VertexType":"VTX","VertexVersion":2}}}],"name":"part002"}],"nodes":[{"name":"node_0","children":[1,2,3,4,5,6,7,8,9,10,11,12,13,14,15,16,17,18,19,20,21,22,23,24,25,26,27]},{"mesh":0,"name":"cabin_lights_VC"},{"mesh":1,"name":"node_3"},{"translation":[5.039999961853027,-0.800000011920929,-1.2999999523162836],"rotation":[-6.123031769111886e-17,3.061515884555943e-17,1.0,1.874575902277672e-33],"scale":[1.0,1.0,1.0],"name":"contrail1"},{"translation":[1.0531614818053787e-16,-1.1399999856948853,-0.8600000143051148],"rotation":[-0.7071067811865475,0.0,0.0,0.7071067811865475],"scale":[1.0,1.0,1.0],"name":"beacon_belly"},{"translation":[16.43000030517578,1.5499999523162842,-5.429999828338621],"rotation":[-0.7071067811865475,0.0,0.0,0.7071067811865475],"scale":[1.0,1.0,1.0],"name":"wing_l_nav"},{"translation":[-16.43000030517578,1.5499999523162842,-5.429999828338625],"rotation":[-0.7071067811865475,0.0,0.0,0.7071067811865475],"scale":[1.0,1.0,1.0],"name":"wing_r_nav"},{"translation":[0.3600000143051173,2.2300000190734865,-20.739999771118165],"rotation":[-0.2988362387301199,0.6408563820557885,0.6408563820557885,0.2988362387301199],"scale":[1.0,1.0,1.0],"name":"strobe_tail_l"},{"translation":[0.3600000143051173,2.2300000190734865,-20.739999771118165],"rotation":[-0.2988362387301199,0.6408563820557885,0.6408563820557885,0.2988362387301199],"scale":[1.0,1.0,1.0],"name":"navwhi_tail_l"},{"translation":[-0.3600000143051122,2.2300000190734865,-20.739999771118165],"rotation":[0.2988362387301198,0.6408563820557887,0.6408563820557887,-0.2988362387301198],"scale":[1.0,1.0,1.0],"name":"strobe_tail_r"},{"translation":[-0.3600000143051122,2.2300000190734865,-20.739999771118165],"rotation":[0.2988362387301198,0.6408563820557887,0.6408563820557887,-0.2988362387301198],"scale":[1.0,1.0,1.0],"name":"navwhi_tail_r"},{"translation":[16.8700008392334,1.4700000286102296,-6.030000209808348],"rotation":[-0.6830127018922193,0.18301270189221925,0.18301270189221925,0.6830127018922193],"scale":[1.0,1.0,1.0],"name":"strobe_l"},{"translation":[-16.8700008392334,1.4700000286102296,-6.030000209808351],"rotation":[-0.6830127018922193,-0.18301270189221936,-0.18301270189221936,0.6830127018922193],"scale":[1.0,1.0,1.0],"name":"strobe_r"},{"translation":[4.449999809265139,2.75,-20.600000381469728],"rotation":[0.8714510034013414,0.2620402416503613,0.27786413028763187,-0.3077329776382658],"scale":[1.0,1.0,1.0],"name":"logo_l"},{"translation":[-4.449999809265134,2.75,-20.600000381469728],"rotation":[0.8714510034013414,-0.26204024165036129,-0.27786413028763176,-0.3077329776382658],"scale":[1.0,1.0,1.0],"name":"logo_r"},{"translation":[2.1800000667572019,0.15000000596046449,2.9500000476837164],"rotation":[-0.6650323970369657,0.17271192766518957,0.13506063848921499,0.7139055433769425],"scale":[1.0,1.0,1.0],"name":"landing_l2"},{"translation":[2.1300001144409177,0.15000000596046449,3.0000000000000006],"rotation":[-0.6731840915352538,0.08389964853704246,0.06482025543565409,0.7318349283578043],"scale":[1.0,1.0,1.0],"name":"landing_l1"},{"translation":[2.1300001144409177,0.15000000596046449,3.0000000000000006],"rotation":[-0.6731840915352538,0.08389964853704246,0.06482025543565409,0.7318349283578043],"scale":[1.0,1.0,1.0],"name":"taxi_l"},{"translation":[-2.1300001144409186,0.15000000596046449,2.9999999999999997],"rotation":[-0.6731840915352538,-0.08389964853704254,-0.06482025543565416,0.7318349283578043],"scale":[1.0,1.0,1.0],"name":"taxi_r"},{"translation":[-2.1300001144409186,0.15000000596046449,2.9999999999999997],"rotation":[-0.6731840915352538,-0.08389964853704254,-0.06482025543565416,0.7318349283578043],"scale":[1.0,1.0,1.0],"name":"landing_r1"},{"translation":[-2.1800000667572028,0.15000000596046449,2.9500000476837155],"rotation":[-0.6650323970369657,-0.1727119276651896,-0.13506063848921505,0.7139055433769425],"scale":[1.0,1.0,1.0],"name":"landing_r2"},{"translation":[-1.6164804512786976e-16,3.130000114440918,1.3200000524520875],"rotation":[-0.7071067811865475,0.0,0.0,0.7071067811865475],"scale":[1.0,1.0,1.0],"name":"beacon_top"},{"translation":[-5.039999961853027,-0.800000011920929,-1.2999999523162849],"rotation":[-6.123031769111886e-17,3.061515884555943e-17,1.0,1.874575902277672e-33],"scale":[1.0,1.0,1.0],"name":"contrail2"},{"translation":[-1.5797421497158416e-15,-2.2200000286102297,12.899999618530272],"rotation":[-6.123031769111886e-17,3.061515884555943e-17,1.0,1.874575902277672e-33],"scale":[1.0,1.0,1.0],"name":"c_tire1"},{"translation":[2.849999904632569,-2.2200000286102297,-2.900000095367431],"rotation":[-6.123031769111886e-17,3.061515884555943e-17,1.0,1.874575902277672e-33],"scale":[1.0,1.0,1.0],"name":"l_tire1"},{"translation":[-2.849999904632568,-2.2200000286102297,-2.900000095367432],"rotation":[-6.123031769111886e-17,3.061515884555943e-17,1.0,1.874575902277672e-33],"scale":[1.0,1.0,1.0],"name":"r_tire1"},{"translation":[2.657395881224609e-15,2.2899999618530275,-21.700000762939454],"rotation":[-5.656943728398847e-17,-0.3826834323650898,0.9238795325112867,-2.3431828138842245e-17],"scale":[1.0,1.0,1.0],"name":"APU"},{"translation":[0.0,0.0,0.0],"rotation":[-4.329637285359677e-17,0.7071067811865475,0.7071067811865475,4.329637285359677e-17],"scale":[1.0,1.0,1.0],"name":"node_36","children":[28]},{"name":"node_37","children":[29]},{"mesh":2,"name":"custom_anim_REV_THRUST_AN_37"}],"scene":0,"scenes":[{"nodes":[0]}],"textures":[{"extensions":{"MSFT_texture_dds":{"source":0}}},{"extensions":{"MSFT_texture_dds":{"source":1}}},{"extensions":{"MSFT_texture_dds":{"source":2}}},{"extensions":{"MSFT_texture_dds":{"source":3}}},{"extensions":{"MSFT_texture_dds":{"source":4}}}],"extensionsUsed":["ASOBO_material_day_night_switch","MSFT_texture_dds","ASOBO_asset_optimized"],"buffers":[{"byteLength":6444,"uri":"AIA_737-8_MAX_sat_MSFS_LOD4.bin"}],"images":[{"uri":"AIA_737_800_MAX_T.PNG.DDS","extras":"ASOBO_image_converted_meta"},{"uri":"AIA_737_800_MAX_C.PNG.DDS","extras":"ASOBO_image_converted_meta"},{"uri":"AIA_737_800_MAX_L.PNG.DDS","extras":"ASOBO_image_converted_meta"},{"uri":"AIA_737_MAX_T.PNG.DDS","extras":"ASOBO_image_converted_meta"},{"uri":"AIA_737_MAX_C.PNG.DDS","extras":"ASOBO_image_converted_meta"}]}
