{"accessors":[{"bufferView":0,"componentType":5126,"count":5,"min":[0.0],"max":[100.0],"type":"SCALAR"},{"bufferView":2,"componentType":5126,"count":5,"type":"VEC4"},{"bufferView":0,"byteOffset":20,"componentType":5126,"count":5,"min":[0.0],"max":[100.0],"type":"SCALAR"},{"bufferView":2,"byteOffset":80,"componentType":5126,"count":5,"type":"VEC4"},{"bufferView":0,"byteOffset":40,"componentType":5126,"count":5,"min":[0.0],"max":[100.0],"type":"SCALAR"},{"bufferView":2,"byteOffset":160,"componentType":5126,"count":5,"type":"VEC4"},{"bufferView":0,"byteOffset":60,"componentType":5126,"count":5,"min":[0.0],"max":[100.0],"type":"SCALAR"},{"bufferView":2,"byteOffset":240,"componentType":5126,"count":5,"type":"VEC4"},{"bufferView":0,"byteOffset":80,"componentType":5126,"count":5,"min":[0.0],"max":[100.0],"type":"SCALAR"},{"bufferView":2,"byteOffset":320,"componentType":5126,"count":5,"type":"VEC4"},{"bufferView":0,"byteOffset":100,"componentType":5126,"count":5,"min":[0.0],"max":[100.0],"type":"SCALAR"},{"bufferView":2,"byteOffset":400,"componentType":5126,"count":5,"type":"VEC4"},{"bufferView":0,"byteOffset":120,"componentType":5126,"count":5,"min":[0.0],"max":[100.0],"type":"SCALAR"},{"bufferView":2,"byteOffset":480,"componentType":5126,"count":5,"type":"VEC4"},{"bufferView":0,"byteOffset":140,"componentType":5126,"count":5,"min":[0.0],"max":[100.0],"type":"SCALAR"},{"bufferView":2,"byteOffset":560,"componentType":5126,"count":5,"type":"VEC4"},{"bufferView":0,"byteOffset":160,"componentType":5126,"count":5,"min":[0.0],"max":[100.0],"type":"SCALAR"},{"bufferView":2,"byteOffset":640,"componentType":5126,"count":5,"type":"VEC4"},{"bufferView":0,"byteOffset":180,"componentType":5126,"count":2,"min":[0.0],"max":[100.0],"type":"SCALAR"},{"bufferView":1,"componentType":5126,"count":2,"type":"VEC3"},{"bufferView":0,"byteOffset":188,"componentType":5126,"count":2,"min":[0.0],"max":[100.0],"type":"SCALAR"},{"bufferView":2,"byteOffset":720,"componentType":5126,"count":2,"type":"VEC4"},{"bufferView":0,"byteOffset":196,"componentType":5126,"count":2,"min":[0.0],"max":[100.0],"type":"SCALAR"},{"bufferView":1,"byteOffset":24,"componentType":5126,"count":2,"type":"VEC3"},{"bufferView":0,"byteOffset":204,"componentType":5126,"count":2,"min":[0.0],"max":[100.0],"type":"SCALAR"},{"bufferView":2,"byteOffset":752,"componentType":5126,"count":2,"type":"VEC4"},{"bufferView":3,"componentType":5126,"count":430,"min":[-5.483610153198242,-0.9678599834442139,-5.893889904022217],"max":[5.483610153198242,1.4570800065994263,2.317310094833374],"type":"VEC3","name":"part000_vertices#0_POSITION"},{"bufferView":3,"byteOffset":12,"componentType":5120,"count":430,"type":"VEC4","name":"part000_vertices#0_TANGENT"},{"bufferView":3,"byteOffset":16,"componentType":5120,"count":430,"type":"VEC4","name":"part000_vertices#0_NORMAL"},{"bufferView":3,"byteOffset":20,"componentType":5122,"count":430,"type":"VEC2","name":"part000_vertices#0_TEXCOORD_0"},{"bufferView":3,"byteOffset":24,"componentType":5122,"count":430,"type":"VEC2","name":"part000_vertices#0_TEXCOORD_1"},{"bufferView":3,"byteOffset":28,"componentType":5123,"count":430,"type":"VEC4","name":"part000_vertices#0_COLOR_0"},{"bufferView":4,"componentType":5123,"count":1278,"type":"SCALAR","name":"part000_indices#0"},{"bufferView":3,"byteOffset":15480,"componentType":5126,"count":20,"min":[-0.050050001591444018,-0.17250999808311463,-0.1814900040626526],"max":[0.050050001591444018,0.17257000505924226,0.1813499927520752],"type":"VEC3","name":"part001_vertices#0_POSITION"},{"bufferView":3,"byteOffset":15492,"componentType":5120,"count":20,"type":"VEC4","name":"part001_vertices#0_TANGENT"},{"bufferView":3,"byteOffset":15496,"componentType":5120,"count":20,"type":"VEC4","name":"part001_vertices#0_NORMAL"},{"bufferView":3,"byteOffset":15500,"componentType":5122,"count":20,"type":"VEC2","name":"part001_vertices#0_TEXCOORD_0"},{"bufferView":3,"byteOffset":15504,"componentType":5122,"count":20,"type":"VEC2","name":"part001_vertices#0_TEXCOORD_1"},{"bufferView":3,"byteOffset":15508,"componentType":5123,"count":20,"type":"VEC4","name":"part001_vertices#0_COLOR_0"},{"bufferView":4,"byteOffset":2556,"componentType":5123,"count":48,"type":"SCALAR","name":"part001_indices#0"},{"bufferView":3,"byteOffset":16200,"componentType":5126,"count":20,"min":[-0.050050001591444018,-0.17250999808311463,-0.1814900040626526],"max":[0.050050001591444018,0.17257000505924226,0.1813499927520752],"type":"VEC3","name":"part002_vertices#0_POSITION"},{"bufferView":3,"byteOffset":16212,"componentType":5120,"count":20,"type":"VEC4","name":"part002_vertices#0_TANGENT"},{"bufferView":3,"byteOffset":16216,"componentType":5120,"count":20,"type":"VEC4","name":"part002_vertices#0_NORMAL"},{"bufferView":3,"byteOffset":16220,"componentType":5122,"count":20,"type":"VEC2","name":"part002_vertices#0_TEXCOORD_0"},{"bufferView":3,"byteOffset":16224,"componentType":5122,"count":20,"type":"VEC2","name":"part002_vertices#0_TEXCOORD_1"},{"bufferView":3,"byteOffset":16228,"componentType":5123,"count":20,"type":"VEC4","name":"part002_vertices#0_COLOR_0"},{"bufferView":4,"byteOffset":2652,"componentType":5123,"count":60,"type":"SCALAR","name":"part002_indices#0"},{"bufferView":3,"byteOffset":16920,"componentType":5126,"count":20,"min":[-0.06763000041246414,-0.20476000010967256,-0.21539999544620515],"max":[0.06763000041246414,0.20483000576496125,0.21526999771595],"type":"VEC3","name":"part003_vertices#0_POSITION"},{"bufferView":3,"byteOffset":16932,"componentType":5120,"count":20,"type":"VEC4","name":"part003_vertices#0_TANGENT"},{"bufferView":3,"byteOffset":16936,"componentType":5120,"count":20,"type":"VEC4","name":"part003_vertices#0_NORMAL"},{"bufferView":3,"byteOffset":16940,"componentType":5122,"count":20,"type":"VEC2","name":"part003_vertices#0_TEXCOORD_0"},{"bufferView":3,"byteOffset":16944,"componentType":5122,"count":20,"type":"VEC2","name":"part003_vertices#0_TEXCOORD_1"},{"bufferView":3,"byteOffset":16948,"componentType":5123,"count":20,"type":"VEC4","name":"part003_vertices#0_COLOR_0"},{"bufferView":4,"byteOffset":2772,"componentType":5123,"count":48,"type":"SCALAR","name":"part003_indices#0"},{"bufferView":3,"byteOffset":17640,"componentType":5126,"count":20,"min":[-0.06763000041246414,-0.20476000010967256,-0.21539999544620515],"max":[0.06763000041246414,0.20483000576496125,0.21526999771595],"type":"VEC3","name":"part004_vertices#0_POSITION"},{"bufferView":3,"byteOffset":17652,"componentType":5120,"count":20,"type":"VEC4","name":"part004_vertices#0_TANGENT"},{"bufferView":3,"byteOffset":17656,"componentType":5120,"count":20,"type":"VEC4","name":"part004_vertices#0_NORMAL"},{"bufferView":3,"byteOffset":17660,"componentType":5122,"count":20,"type":"VEC2","name":"part004_vertices#0_TEXCOORD_0"},{"bufferView":3,"byteOffset":17664,"componentType":5122,"count":20,"type":"VEC2","name":"part004_vertices#0_TEXCOORD_1"},{"bufferView":3,"byteOffset":17668,"componentType":5123,"count":20,"type":"VEC4","name":"part004_vertices#0_COLOR_0"},{"bufferView":4,"byteOffset":2868,"componentType":5123,"count":60,"type":"SCALAR","name":"part004_indices#0"},{"bufferView":3,"byteOffset":18360,"componentType":5126,"count":20,"min":[-0.06763000041246414,-0.20476000010967256,-0.21539999544620515],"max":[0.06763000041246414,0.20483000576496125,0.21526999771595],"type":"VEC3","name":"part005_vertices#0_POSITION"},{"bufferView":3,"byteOffset":18372,"componentType":5120,"count":20,"type":"VEC4","name":"part005_vertices#0_TANGENT"},{"bufferView":3,"byteOffset":18376,"componentType":5120,"count":20,"type":"VEC4","name":"part005_vertices#0_NORMAL"},{"bufferView":3,"byteOffset":18380,"componentType":5122,"count":20,"type":"VEC2","name":"part005_vertices#0_TEXCOORD_0"},{"bufferView":3,"byteOffset":18384,"componentType":5122,"count":20,"type":"VEC2","name":"part005_vertices#0_TEXCOORD_1"},{"bufferView":3,"byteOffset":18388,"componentType":5123,"count":20,"type":"VEC4","name":"part005_vertices#0_COLOR_0"},{"bufferView":4,"byteOffset":2988,"componentType":5123,"count":48,"type":"SCALAR","name":"part005_indices#0"},{"bufferView":3,"byteOffset":19080,"componentType":5126,"count":20,"min":[-0.06763000041246414,-0.20476000010967256,-0.21539999544620515],"max":[0.06763000041246414,0.20483000576496125,0.21526999771595],"type":"VEC3","name":"part006_vertices#0_POSITION"},{"bufferView":3,"byteOffset":19092,"componentType":5120,"count":20,"type":"VEC4","name":"part006_vertices#0_TANGENT"},{"bufferView":3,"byteOffset":19096,"componentType":5120,"count":20,"type":"VEC4","name":"part006_vertices#0_NORMAL"},{"bufferView":3,"byteOffset":19100,"componentType":5122,"count":20,"type":"VEC2","name":"part006_vertices#0_TEXCOORD_0"},{"bufferView":3,"byteOffset":19104,"componentType":5122,"count":20,"type":"VEC2","name":"part006_vertices#0_TEXCOORD_1"},{"bufferView":3,"byteOffset":19108,"componentType":5123,"count":20,"type":"VEC4","name":"part006_vertices#0_COLOR_0"},{"bufferView":4,"byteOffset":3084,"componentType":5123,"count":60,"type":"SCALAR","name":"part006_indices#0"},{"bufferView":3,"byteOffset":19800,"componentType":5126,"count":28,"min":[-0.0630199983716011,-0.02329999953508377,-0.9865700006484985],"max":[0.0630199983716011,0.023329999297857286,0.9865700006484985],"type":"VEC3","name":"part007_vertices#0_POSITION"},{"bufferView":3,"byteOffset":19812,"componentType":5120,"count":28,"type":"VEC4","name":"part007_vertices#0_TANGENT"},{"bufferView":3,"byteOffset":19816,"componentType":5120,"count":28,"type":"VEC4","name":"part007_vertices#0_NORMAL"},{"bufferView":3,"byteOffset":19820,"componentType":5122,"count":28,"type":"VEC2","name":"part007_vertices#0_TEXCOORD_0"},{"bufferView":3,"byteOffset":19824,"componentType":5122,"count":28,"type":"VEC2","name":"part007_vertices#0_TEXCOORD_1"},{"bufferView":3,"byteOffset":19828,"componentType":5123,"count":28,"type":"VEC4","name":"part007_vertices#0_COLOR_0"},{"bufferView":4,"byteOffset":3204,"componentType":5123,"count":60,"type":"SCALAR","name":"part007_indices#0"},{"bufferView":3,"byteOffset":20808,"componentType":5126,"count":34,"min":[-0.9887300133705139,0.0,-0.9887300133705139],"max":[0.9887300133705139,0.0,0.9887300133705139],"type":"VEC3","name":"part008_vertices#0_POSITION"},{"bufferView":3,"byteOffset":20820,"componentType":5120,"count":34,"type":"VEC4","name":"part008_vertices#0_TANGENT"},{"bufferView":3,"byteOffset":20824,"componentType":5120,"count":34,"type":"VEC4","name":"part008_vertices#0_NORMAL"},{"bufferView":3,"byteOffset":20828,"componentType":5122,"count":34,"type":"VEC2","name":"part008_vertices#0_TEXCOORD_0"},{"bufferView":3,"byteOffset":20832,"componentType":5122,"count":34,"type":"VEC2","name":"part008_vertices#0_TEXCOORD_1"},{"bufferView":3,"byteOffset":20836,"componentType":5123,"count":34,"type":"VEC4","name":"part008_vertices#0_COLOR_0"},{"bufferView":4,"byteOffset":3324,"componentType":5123,"count":96,"type":"SCALAR","name":"part008_indices#0"},{"bufferView":3,"byteOffset":22032,"componentType":5126,"count":34,"min":[-0.9887300133705139,0.0,-0.9887300133705139],"max":[0.9887300133705139,0.0,0.9887300133705139],"type":"VEC3","name":"part009_vertices#0_POSITION"},{"bufferView":3,"byteOffset":22044,"componentType":5120,"count":34,"type":"VEC4","name":"part009_vertices#0_TANGENT"},{"bufferView":3,"byteOffset":22048,"componentType":5120,"count":34,"type":"VEC4","name":"part009_vertices#0_NORMAL"},{"bufferView":3,"byteOffset":22052,"componentType":5122,"count":34,"type":"VEC2","name":"part009_vertices#0_TEXCOORD_0"},{"bufferView":3,"byteOffset":22056,"componentType":5122,"count":34,"type":"VEC2","name":"part009_vertices#0_TEXCOORD_1"},{"bufferView":3,"byteOffset":22060,"componentType":5123,"count":34,"type":"VEC4","name":"part009_vertices#0_COLOR_0"},{"bufferView":4,"byteOffset":3516,"componentType":5123,"count":96,"type":"SCALAR","name":"part009_indices#0"},{"bufferView":3,"byteOffset":23256,"componentType":5126,"count":12,"min":[-0.9935799837112427,-0.227400004863739,-0.10171999782323837],"max":[0.9935100078582764,0.2922999858856201,0.0421300008893013],"type":"VEC3","name":"part010_vertices#0_POSITION"},{"bufferView":3,"byteOffset":23268,"componentType":5120,"count":12,"type":"VEC4","name":"part010_vertices#0_TANGENT"},{"bufferView":3,"byteOffset":23272,"componentType":5120,"count":12,"type":"VEC4","name":"part010_vertices#0_NORMAL"},{"bufferView":3,"byteOffset":23276,"componentType":5122,"count":12,"type":"VEC2","name":"part010_vertices#0_TEXCOORD_0"},{"bufferView":3,"byteOffset":23280,"componentType":5122,"count":12,"type":"VEC2","name":"part010_vertices#0_TEXCOORD_1"},{"bufferView":3,"byteOffset":23284,"componentType":5123,"count":12,"type":"VEC4","name":"part010_vertices#0_COLOR_0"},{"bufferView":4,"byteOffset":3708,"componentType":5123,"count":24,"type":"SCALAR","name":"part010_indices#0"},{"bufferView":3,"byteOffset":23688,"componentType":5126,"count":12,"min":[-0.9935100078582764,-0.22743000090122224,-0.10171999782323837],"max":[0.9935799837112427,0.2922999858856201,0.0421300008893013],"type":"VEC3","name":"part011_vertices#0_POSITION"},{"bufferView":3,"byteOffset":23700,"componentType":5120,"count":12,"type":"VEC4","name":"part011_vertices#0_TANGENT"},{"bufferView":3,"byteOffset":23704,"componentType":5120,"count":12,"type":"VEC4","name":"part011_vertices#0_NORMAL"},{"bufferView":3,"byteOffset":23708,"componentType":5122,"count":12,"type":"VEC2","name":"part011_vertices#0_TEXCOORD_0"},{"bufferView":3,"byteOffset":23712,"componentType":5122,"count":12,"type":"VEC2","name":"part011_vertices#0_TEXCOORD_1"},{"bufferView":3,"byteOffset":23716,"componentType":5123,"count":12,"type":"VEC4","name":"part011_vertices#0_COLOR_0"},{"bufferView":4,"byteOffset":3756,"componentType":5123,"count":24,"type":"SCALAR","name":"part011_indices#0"}],"animations":[{"name":"c_tire_blurred_key","channels":[{"sampler":0,"target":{"node":11,"path":"rotation"}},{"sampler":1,"target":{"node":13,"path":"rotation"}}],"samplers":[{"input":0,"output":1,"interpolation":"LINEAR"},{"input":2,"output":3,"interpolation":"LINEAR"}]},{"name":"l_tire_blurred_key","channels":[{"sampler":0,"target":{"node":16,"path":"rotation"}},{"sampler":1,"target":{"node":18,"path":"rotation"}}],"samplers":[{"input":4,"output":5,"interpolation":"LINEAR"},{"input":6,"output":7,"interpolation":"LINEAR"}]},{"name":"r_tire_blurred_key","channels":[{"sampler":0,"target":{"node":21,"path":"rotation"}},{"sampler":1,"target":{"node":23,"path":"rotation"}}],"samplers":[{"input":8,"output":9,"interpolation":"LINEAR"},{"input":10,"output":11,"interpolation":"LINEAR"}]},{"name":"engine0","channels":[{"sampler":0,"target":{"node":26,"path":"rotation"}},{"sampler":1,"target":{"node":29,"path":"rotation"}},{"sampler":2,"target":{"node":31,"path":"rotation"}}],"samplers":[{"input":12,"output":13,"interpolation":"LINEAR"},{"input":14,"output":15,"interpolation":"LINEAR"},{"input":16,"output":17,"interpolation":"LINEAR"}]},{"name":"custom_anim_FLAPS_SML_GA","channels":[{"sampler":0,"target":{"node":33,"path":"translation"}},{"sampler":1,"target":{"node":35,"path":"rotation"}},{"sampler":2,"target":{"node":37,"path":"translation"}},{"sampler":3,"target":{"node":39,"path":"rotation"}}],"samplers":[{"input":18,"output":19,"interpolation":"LINEAR"},{"input":20,"output":21,"interpolation":"LINEAR"},{"input":22,"output":23,"interpolation":"LINEAR"},{"input":24,"output":25,"interpolation":"LINEAR"}]}],"asset":{"generator":"ModelConverterX","version":"2.0","extensions":{"ASOBO_asset_optimized":{"BoundingBoxMax":[5.483610153198242,1.4570800065994263,2.317310094833374],"BoundingBoxMin":[-5.483610153198242,-0.9678599834442139,-5.893889904022217],"MajorVersion":4,"MinorVersion":4,"UseCheckerboardMaterialForMissingTextures":true,"UseOnlyFilenameForImageURI":true}}},"bufferViews":[{"buffer":0,"byteLength":212,"byteStride":4},{"buffer":0,"byteLength":48,"byteStride":12,"byteOffset":212},{"buffer":0,"byteLength":784,"byteStride":16,"byteOffset":260},{"buffer":0,"byteLength":24120,"byteStride":36,"byteOffset":1044,"target":34962,"name":"BufferViewVertexND"},{"buffer":0,"byteLength":3804,"byteOffset":25164,"target":34963,"name":"BufferViewIndex"}],"extensionsRequired":["MSFT_texture_dds"],"materials":[{"name":"material00","pbrMetallicRoughness":{"baseColorFactor":[0.03921600058674812,0.03921600058674812,0.03921600058674812,1.0],"metallicFactor":0.0}},{"name":"material01","occlusionTexture":{"index":1},"pbrMetallicRoughness":{"baseColorTexture":{"index":0},"metallicRoughnessTexture":{"index":1}}},{"name":"material02","alphaMode":"BLEND","pbrMetallicRoughness":{"baseColorFactor":[0.0,0.0,0.0,1.0],"metallicFactor":0.0,"baseColorTexture":{"index":2}}}],"meshes":[{"primitives":[{"attributes":{"COLOR_0":31,"NORMAL":28,"POSITION":26,"TANGENT":27,"TEXCOORD_0":29,"TEXCOORD_1":30},"indices":32,"material":1,"mode":4,"extras":{"ASOBO_primitive":{"PrimitiveCount":426,"VertexType":"VTX","VertexVersion":2}}}],"name":"part000"},{"primitives":[{"attributes":{"COLOR_0":38,"NORMAL":35,"POSITION":33,"TANGENT":34,"TEXCOORD_0":36,"TEXCOORD_1":37},"indices":39,"material":1,"mode":4,"extras":{"ASOBO_primitive":{"PrimitiveCount":16,"VertexType":"VTX","VertexVersion":2}}}],"name":"part001"},{"primitives":[{"attributes":{"COLOR_0":45,"NORMAL":42,"POSITION":40,"TANGENT":41,"TEXCOORD_0":43,"TEXCOORD_1":44},"indices":46,"material":0,"mode":4,"extras":{"ASOBO_primitive":{"PrimitiveCount":20,"VertexType":"VTX","VertexVersion":2}}}],"name":"part002"},{"primitives":[{"attributes":{"COLOR_0":52,"NORMAL":49,"POSITION":47,"TANGENT":48,"TEXCOORD_0":50,"TEXCOORD_1":51},"indices":53,"material":1,"mode":4,"extras":{"ASOBO_primitive":{"PrimitiveCount":16,"VertexType":"VTX","VertexVersion":2}}}],"name":"part003"},{"primitives":[{"attributes":{"COLOR_0":59,"NORMAL":56,"POSITION":54,"TANGENT":55,"TEXCOORD_0":57,"TEXCOORD_1":58},"indices":60,"material":0,"mode":4,"extras":{"ASOBO_primitive":{"PrimitiveCount":20,"VertexType":"VTX","VertexVersion":2}}}],"name":"part004"},{"primitives":[{"attributes":{"COLOR_0":66,"NORMAL":63,"POSITION":61,"TANGENT":62,"TEXCOORD_0":64,"TEXCOORD_1":65},"indices":67,"material":1,"mode":4,"extras":{"ASOBO_primitive":{"PrimitiveCount":16,"VertexType":"VTX","VertexVersion":2}}}],"name":"part005"},{"primitives":[{"attributes":{"COLOR_0":73,"NORMAL":70,"POSITION":68,"TANGENT":69,"TEXCOORD_0":71,"TEXCOORD_1":72},"indices":74,"material":0,"mode":4,"extras":{"ASOBO_primitive":{"PrimitiveCount":20,"VertexType":"VTX","VertexVersion":2}}}],"name":"part006"},{"primitives":[{"attributes":{"COLOR_0":80,"NORMAL":77,"POSITION":75,"TANGENT":76,"TEXCOORD_0":78,"TEXCOORD_1":79},"indices":81,"material":1,"mode":4,"extras":{"ASOBO_primitive":{"PrimitiveCount":20,"VertexType":"VTX","VertexVersion":2}}}],"name":"part007"},{"primitives":[{"attributes":{"COLOR_0":87,"NORMAL":84,"POSITION":82,"TANGENT":83,"TEXCOORD_0":85,"TEXCOORD_1":86},"indices":88,"material":2,"mode":4,"extras":{"ASOBO_primitive":{"PrimitiveCount":32,"VertexType":"VTX","VertexVersion":2}}}],"name":"part008"},{"primitives":[{"attributes":{"COLOR_0":94,"NORMAL":91,"POSITION":89,"TANGENT":90,"TEXCOORD_0":92,"TEXCOORD_1":93},"indices":95,"material":2,"mode":4,"extras":{"ASOBO_primitive":{"PrimitiveCount":32,"VertexType":"VTX","VertexVersion":2}}}],"name":"part009"},{"primitives":[{"attributes":{"COLOR_0":101,"NORMAL":98,"POSITION":96,"TANGENT":97,"TEXCOORD_0":99,"TEXCOORD_1":100},"indices":102,"material":1,"mode":4,"extras":{"ASOBO_primitive":{"PrimitiveCount":8,"VertexType":"VTX","VertexVersion":2}}}],"name":"part010"},{"primitives":[{"attributes":{"COLOR_0":108,"NORMAL":105,"POSITION":103,"TANGENT":104,"TEXCOORD_0":106,"TEXCOORD_1":107},"indices":109,"material":1,"mode":4,"extras":{"ASOBO_primitive":{"PrimitiveCount":8,"VertexType":"VTX","VertexVersion":2}}}],"name":"part011"}],"nodes":[{"name":"node_0","children":[1,2,3,4,5,6,7,8]},{"mesh":0,"name":"node_8"},{"translation":[7.347638122934264e-16,0.0,-6.0],"rotation":[-6.123031769111886e-17,3.061515884555943e-17,1.0,1.874575902277672e-33],"scale":[1.0,1.0,1.0],"name":"contrail1"},{"translation":[2.8299999237060549,0.8299999833106996,0.340000003576279],"rotation":[-0.7071067811865475,0.0,0.0,0.7071067811865475],"scale":[1.0,1.0,1.0],"name":"Landing_Light"},{"translation":[2.9800000190734865,0.8299999833106996,0.33000001311302226],"rotation":[-0.6427876096865393,0.0,0.0,0.766044443118978],"scale":[1.0,1.0,1.0],"name":"Taxi_Light"},{"translation":[1.2799999713897706,-1.149999976158142,-0.49999999999999986],"rotation":[-6.123031769111886e-17,3.061515884555943e-17,1.0,1.874575902277672e-33],"scale":[1.0,1.0,1.0],"name":"l_tire1"},{"translation":[-1.2799999713897706,-1.149999976158142,-0.5000000000000001],"rotation":[-6.123031769111886e-17,3.061515884555943e-17,1.0,1.874575902277672e-33],"scale":[1.0,1.0,1.0],"name":"r_tire1"},{"translation":[-1.4695276829806339e-16,-1.100000023841858,1.2000000476837159],"rotation":[-6.123031769111886e-17,3.061515884555943e-17,1.0,1.874575902277672e-33],"scale":[1.0,1.0,1.0],"name":"c_tire1"},{"translation":[0.0,0.0,0.0],"rotation":[-4.329637285359677e-17,0.7071067811865475,0.7071067811865475,4.329637285359677e-17],"scale":[1.0,1.0,1.0],"name":"node_24","children":[9,14,19,24,27,32,36]},{"translation":[0.0,1.2569149732589722,-0.9359809756278992],"rotation":[0.0,0.0,0.0,1.0],"scale":[1.0,1.0,1.0],"name":"node_27","children":[10,12]},{"name":"node_30","children":[11]},{"mesh":1,"name":"c_tire_blurred_key_AN_30"},{"name":"node_31","children":[13]},{"mesh":2,"name":"c_tire_blurred_key_AN_31"},{"translation":[-1.2712390422821046,-0.44655001163482668,-0.9395440220832824],"rotation":[0.0,0.0,0.0,1.0],"scale":[1.0,1.0,1.0],"name":"node_34","children":[15,17]},{"name":"node_38","children":[16]},{"mesh":3,"name":"l_tire_blurred_key_AN_38"},{"name":"node_39","children":[18]},{"mesh":4,"name":"l_tire_blurred_key_AN_39"},{"translation":[1.2712390422821046,-0.44650301337242129,-0.9396380186080932],"rotation":[0.0,0.0,0.0,1.0],"scale":[1.0,1.0,1.0],"name":"node_41","children":[20,22]},{"name":"node_45","children":[21]},{"mesh":5,"name":"r_tire_blurred_key_AN_45"},{"name":"node_46","children":[23]},{"mesh":6,"name":"r_tire_blurred_key_AN_46"},{"translation":[0.0,2.0231330394744875,0.17037199437618257],"rotation":[0.0,0.0,0.0,1.0],"scale":[1.0,1.0,1.0],"name":"node_49","children":[25]},{"name":"prop0_still_VC","children":[26]},{"mesh":7,"name":"engine0_AN_VC"},{"translation":[0.0,2.0238358974456789,0.17024199664592744],"rotation":[0.0,0.0,0.0,1.0],"scale":[1.0,1.0,1.0],"name":"node_54","children":[28,30]},{"name":"prop0_slow_VC","children":[29]},{"mesh":8,"name":"ENGINE0_AN_VC_1"},{"name":"prop0_blurred_VC","children":[31]},{"mesh":9,"name":"ENGINE0_AN_VC_2"},{"name":"node_65","children":[33]},{"name":"custom_anim_FLAPS_SML_GA_AN_65","children":[34]},{"name":"node_70","children":[35]},{"mesh":10,"name":"custom_anim_FLAPS_SML_GA_AN_70"},{"name":"node_71","children":[37]},{"name":"custom_anim_FLAPS_SML_GA_AN_71","children":[38]},{"name":"node_76","children":[39]},{"mesh":11,"name":"custom_anim_FLAPS_SML_GA_AN_76"}],"scene":0,"scenes":[{"nodes":[0]}],"textures":[{"extensions":{"MSFT_texture_dds":{"source":0}}},{"extensions":{"MSFT_texture_dds":{"source":1}}},{"extensions":{"MSFT_texture_dds":{"source":2}}}],"extensionsUsed":["MSFT_texture_dds","ASOBO_asset_optimized"],"buffers":[{"byteLength":28968,"uri":"HTAI Cessna 172 Skyhawk MSFS_LOD2.bin"}],"images":[{"uri":"HTAI_C172.PNG.DDS","extras":"ASOBO_image_converted_meta"},{"uri":"HTAI_C172_C.PNG.DDS","extras":"ASOBO_image_converted_meta"},{"uri":"PROP-HS.PNG.DDS","extras":"ASOBO_image_converted_meta"}]}
