{"accessors":[{"bufferView":0,"componentType":5126,"count":51,"min":[0.0],"max":[100.0],"type":"SCALAR"},{"bufferView":1,"componentType":5126,"count":51,"type":"VEC4"},{"bufferView":0,"byteOffset":204,"componentType":5126,"count":51,"min":[0.0],"max":[100.0],"type":"SCALAR"},{"bufferView":1,"byteOffset":816,"componentType":5126,"count":51,"type":"VEC4"},{"bufferView":2,"componentType":5126,"count":56,"min":[-7.260000228881836,-1.1799999475479127,-10.092000007629395],"max":[7.236000061035156,3.187999963760376,9.843999862670899],"type":"VEC3","name":"part000_vertices#0_POSITION"},{"bufferView":2,"byteOffset":12,"componentType":5120,"count":56,"type":"VEC4","name":"part000_vertices#0_TANGENT"},{"bufferView":2,"byteOffset":16,"componentType":5120,"count":56,"type":"VEC4","name":"part000_vertices#0_NORMAL"},{"bufferView":2,"byteOffset":20,"componentType":5122,"count":56,"type":"VEC2","name":"part000_vertices#0_TEXCOORD_0"},{"bufferView":2,"byteOffset":24,"componentType":5122,"count":56,"type":"VEC2","name":"part000_vertices#0_TEXCOORD_1"},{"bufferView":2,"byteOffset":28,"componentType":5123,"count":56,"type":"VEC4","name":"part000_vertices#0_COLOR_0"},{"bufferView":3,"componentType":5123,"count":132,"type":"SCALAR","name":"part000_indices#0"}],"animations":[{"name":"r_gear","channels":[{"sampler":0,"target":{"node":10,"path":"rotation"}}],"samplers":[{"input":0,"output":1,"interpolation":"LINEAR"}]},{"name":"l_gear","channels":[{"sampler":0,"target":{"node":15,"path":"rotation"}}],"samplers":[{"input":2,"output":3,"interpolation":"LINEAR"}]}],"asset":{"generator":"ModelConverterX","version":"2.0","extensions":{"ASOBO_asset_optimized":{"BoundingBoxMax":[7.236000061035156,3.187999963760376,9.843999862670899],"BoundingBoxMin":[-7.260000228881836,-1.1799999475479127,-10.092000007629395],"MajorVersion":4,"MinorVersion":4,"UseCheckerboardMaterialForMissingTextures":true,"UseOnlyFilenameForImageURI":true}}},"bufferViews":[{"buffer":0,"byteLength":408,"byteStride":4},{"buffer":0,"byteLength":1632,"byteStride":16,"byteOffset":408},{"buffer":0,"byteLength":2016,"byteStride":36,"byteOffset":2040,"target":34962,"name":"BufferViewVertexND"},{"buffer":0,"byteLength":264,"byteOffset":4056,"target":34963,"name":"BufferViewIndex"}],"extensionsRequired":["MSFT_texture_dds"],"materials":[{"name":"material00","emissiveTexture":{"index":1},"emissiveFactor":[0.019607843831181527,0.019607843831181527,0.019607843831181527],"pbrMetallicRoughness":{"metallicFactor":0.0,"baseColorTexture":{"index":0}},"extensions":{"ASOBO_material_day_night_switch":{}}}],"meshes":[{"primitives":[{"attributes":{"COLOR_0":9,"NORMAL":6,"POSITION":4,"TANGENT":5,"TEXCOORD_0":7,"TEXCOORD_1":8},"indices":10,"material":0,"mode":4,"extras":{"ASOBO_primitive":{"PrimitiveCount":44,"VertexType":"VTX","VertexVersion":2}}}],"name":"part000"}],"nodes":[{"name":"node_0","children":[1,2,3,4,5,6,7]},{"mesh":0,"name":"node_1"},{"translation":[1.3999999761581428,0.6000000238418579,-6.0],"rotation":[-6.123031769111886e-17,3.061515884555943e-17,1.0,1.874575902277672e-33],"scale":[1.0,1.0,1.0],"name":"contrail1"},{"translation":[-1.3999999761581415,0.6000000238418579,-6.0],"rotation":[-6.123031769111886e-17,3.061515884555943e-17,1.0,1.874575902277672e-33],"scale":[1.0,1.0,1.0],"name":"contrail2"},{"translation":[-9.18454765366783e-16,-1.899999976158142,7.5],"rotation":[-6.123031769111886e-17,3.061515884555943e-17,1.0,1.874575902277672e-33],"scale":[1.0,1.0,1.0],"name":"c_tire1"},{"translation":[1.4299999475479127,-1.899999976158142,-0.8999999761581419],"rotation":[-6.123031769111886e-17,3.061515884555943e-17,1.0,1.874575902277672e-33],"scale":[1.0,1.0,1.0],"name":"l_tire1"},{"translation":[-1.4299999475479127,-1.899999976158142,-0.8999999761581422],"rotation":[-6.123031769111886e-17,3.061515884555943e-17,1.0,1.874575902277672e-33],"scale":[1.0,1.0,1.0],"name":"r_tire1"},{"translation":[0.0,0.0,0.0],"rotation":[-4.329637285359677e-17,0.7071067811865475,0.7071067811865475,4.329637285359677e-17],"scale":[1.0,1.0,1.0],"name":"node_32","children":[8,13]},{"translation":[0.29812100529670718,-0.7344779968261719,0.3640109896659851],"rotation":[0.0,0.0,0.0,1.0],"scale":[1.0,1.0,1.0],"name":"node_68","children":[9]},{"translation":[1.0355050563812256,-0.10733100026845932,-1.113860011100769],"rotation":[0.0,0.0,0.0,1.0],"scale":[1.0,1.0,1.0],"name":"node_82","children":[10]},{"name":"r_gear_AN_82","children":[11,12]},{"translation":[0.0963739976286888,0.0918089970946312,-0.3301509916782379],"rotation":[0.0,0.0,1.0,-6.123031769111886e-17],"scale":[1.0,1.0,1.0],"name":"Right_Taxi"},{"translation":[0.0963739976286888,0.0918089970946312,-0.3301509916782379],"rotation":[0.0,0.0,1.0,-6.123031769111886e-17],"scale":[1.0,1.0,1.0],"name":"Right_Landing"},{"translation":[-0.44562399387359616,-0.7494069933891296,0.3630419969558716],"rotation":[0.0,0.0,0.0,1.0],"scale":[1.0,1.0,1.0],"name":"node_104","children":[14]},{"translation":[-0.8974149823188783,-0.09240099787712096,-1.1149909496307374],"rotation":[0.0,0.0,0.0,1.0],"scale":[1.0,1.0,1.0],"name":"node_123","children":[15]},{"name":"l_gear_AN_123","children":[16,17]},{"translation":[-0.3272790014743805,-0.0898210033774376,0.09181000292301178],"rotation":[0.7071067811865475,-1.5307579422779717e-17,-1.5307579422779717e-17,-0.7071067811865475],"scale":[1.0,1.0,1.0],"name":"Left_Taxi"},{"translation":[-0.3272790014743805,-0.0898210033774376,0.09181000292301178],"rotation":[0.7071067811865475,-1.5307579422779717e-17,-1.5307579422779717e-17,-0.7071067811865475],"scale":[1.0,1.0,1.0],"name":"Left_Landing"}],"scene":0,"scenes":[{"nodes":[0]}],"textures":[{"extensions":{"MSFT_texture_dds":{"source":0}}},{"extensions":{"MSFT_texture_dds":{"source":1}}}],"extensionsUsed":["ASOBO_material_day_night_switch","MSFT_texture_dds","ASOBO_asset_optimized"],"buffers":[{"byteLength":4320,"uri":"JBAI Learjet 60 MSFS_LOD6.bin"}],"images":[{"uri":"JBS_LJ60_T.PNG.DDS","extras":"ASOBO_image_converted_meta"},{"uri":"JBS_LJ60_L.PNG.DDS","extras":"ASOBO_image_converted_meta"}]}
