{"accessors":[{"bufferView":0,"componentType":5126,"count":3165,"min":[-10.594710350036621,-0.8834599852561951,-15.470919609069825],"max":[10.594710350036621,4.582640171051025,11.256939888000489],"type":"VEC3","name":"part000_vertices#0_POSITION"},{"bufferView":0,"byteOffset":12,"componentType":5120,"count":3165,"type":"VEC4","name":"part000_vertices#0_TANGENT"},{"bufferView":0,"byteOffset":16,"componentType":5120,"count":3165,"type":"VEC4","name":"part000_vertices#0_NORMAL"},{"bufferView":0,"byteOffset":20,"componentType":5122,"count":3165,"type":"VEC2","name":"part000_vertices#0_TEXCOORD_0"},{"bufferView":0,"byteOffset":24,"componentType":5122,"count":3165,"type":"VEC2","name":"part000_vertices#0_TEXCOORD_1"},{"bufferView":0,"byteOffset":28,"componentType":5123,"count":3165,"type":"VEC4","name":"part000_vertices#0_COLOR_0"},{"bufferView":1,"componentType":5123,"count":11754,"type":"SCALAR","name":"part000_indices#0"}],"asset":{"generator":"ModelConverterX","version":"2.0","extensions":{"ASOBO_asset_optimized":{"BoundingBoxMax":[10.594710350036621,4.582640171051025,11.256939888000489],"BoundingBoxMin":[-10.594710350036621,-0.8834599852561951,-15.470919609069825],"MajorVersion":4,"MinorVersion":4,"UseCheckerboardMaterialForMissingTextures":true,"UseOnlyFilenameForImageURI":true}}},"bufferViews":[{"buffer":0,"byteLength":113940,"byteStride":36,"target":34962,"name":"BufferViewVertexND"},{"buffer":0,"byteLength":23508,"byteOffset":113940,"target":34963,"name":"BufferViewIndex"}],"extensionsRequired":["MSFT_texture_dds"],"materials":[{"name":"material00","emissiveTexture":{"index":1},"emissiveFactor":[0.019607843831181527,0.019607843831181527,0.019607843831181527],"pbrMetallicRoughness":{"metallicFactor":0.0,"baseColorTexture":{"index":0}},"extensions":{"ASOBO_material_day_night_switch":{}}}],"meshes":[{"primitives":[{"attributes":{"COLOR_0":5,"NORMAL":2,"POSITION":0,"TANGENT":1,"TEXCOORD_0":3,"TEXCOORD_1":4},"indices":6,"material":0,"mode":4,"extras":{"ASOBO_primitive":{"PrimitiveCount":3918,"VertexType":"VTX","VertexVersion":2}}}],"name":"part000"}],"nodes":[{"name":"node_0","children":[1,2,3,4,5,6,7,8,9,10,11,12,13,14,15,16,17,18,19]},{"mesh":0,"name":"node_1"},{"translation":[2.079999923706056,1.2000000476837159,-9.5],"rotation":[-6.123031769111886e-17,3.061515884555943e-17,1.0,1.874575902277672e-33],"scale":[1.0,1.0,1.0],"name":"contrail1"},{"translation":[1.4999999999999998,-0.5099999904632568,1.200000047683716],"rotation":[-0.7044160264027587,0.0616284167162193,0.0616284167162193,0.7044160264027587],"scale":[1.0,1.0,1.0],"name":"landing_l1"},{"translation":[-1.5000000000000003,-0.5099999904632568,1.2000000476837157],"rotation":[-0.7044160264027587,-0.061628416716219377,-0.061628416716219377,0.7044160264027587],"scale":[1.0,1.0,1.0],"name":"landing_r1"},{"translation":[-0.12161599844694268,-0.34696099162101748,10.79238986968994],"rotation":[-4.329637285359677e-17,-0.7071067811865475,0.7071067811865475,4.329637285359677e-17],"scale":[1.0,1.0,1.0],"name":"landing_nose_r"},{"translation":[-1.3400000333786014,0.5299999713897705,1.4199999570846556],"rotation":[0.5401253396155863,0.315660065960819,-0.3330024650965505,0.7055017352936699],"scale":[1.0,1.0,1.0],"name":"wing_r"},{"translation":[1.3441679477691649,0.5065600275993347,1.4203679561614993],"rotation":[0.5401253396155864,-0.31566006596081916,0.3330024650965506,0.7055017352936699],"scale":[1.0,1.0,1.0],"name":"wing_l"},{"translation":[1.2926939725875866,1.2405359745025638,-9.161678314208985],"rotation":[0.8125083687585822,0.05557907087441577,-0.2097507589687349,0.5410598272742528],"scale":[1.0,1.0,1.0],"name":"logo_l"},{"translation":[-1.2926570177078237,1.2405359745025638,-9.161678314208985],"rotation":[0.8125083687585821,-0.05557907087441583,0.209750758968735,0.5410598272742528],"scale":[1.0,1.0,1.0],"name":"logo_r"},{"translation":[0.12161500006914009,-0.34696099162101748,10.792360305786133],"rotation":[-4.329637285359677e-17,-0.7071067811865475,0.7071067811865475,4.329637285359677e-17],"scale":[1.0,1.0,1.0],"name":"taxi_r"},{"translation":[0.11999999731778968,-0.3499999940395355,10.789999961853028],"rotation":[-4.329637285359677e-17,-0.7071067811865475,0.7071067811865475,4.329637285359677e-17],"scale":[1.0,1.0,1.0],"name":"landing_nose_l"},{"translation":[-0.1199999973177923,-0.3499999940395355,10.789999961853028],"rotation":[-4.329637285359677e-17,-0.7071067811865475,0.7071067811865475,4.329637285359677e-17],"scale":[1.0,1.0,1.0],"name":"taxi_l"},{"translation":[1.639999985694885,-0.5099999904632568,1.1299999952316287],"rotation":[-0.6941152380128942,0.13492233454214748,0.13492233454214748,0.6941152380128942],"scale":[1.0,1.0,1.0],"name":"landing_l2"},{"translation":[-1.6399999856948858,-0.5099999904632568,1.1299999952316283],"rotation":[-0.6941152380128942,-0.13492233454214754,-0.13492233454214754,0.6941152380128942],"scale":[1.0,1.0,1.0],"name":"landing_r2"},{"translation":[-2.079999923706054,1.2000000476837159,-9.5],"rotation":[-6.123031769111886e-17,3.061515884555943e-17,1.0,1.874575902277672e-33],"scale":[1.0,1.0,1.0],"name":"contrail2"},{"translation":[-1.0776536147212046e-15,-1.5,8.800000190734864],"rotation":[-6.123031769111886e-17,3.061515884555943e-17,1.0,1.874575902277672e-33],"scale":[1.0,1.0,1.0],"name":"c_tire1"},{"translation":[1.5900000333786014,-1.3799999952316285,-2.1600000858306886],"rotation":[-6.123031769111886e-17,3.061515884555943e-17,1.0,1.874575902277672e-33],"scale":[1.0,1.0,1.0],"name":"l_tire1"},{"translation":[-1.5900000333786009,-1.3799999952316285,-2.1600000858306886],"rotation":[-6.123031769111886e-17,3.061515884555943e-17,1.0,1.874575902277672e-33],"scale":[1.0,1.0,1.0],"name":"r_tire1"},{"translation":[-1.1299999952316276,0.6499999761581421,-7.96999979019165],"rotation":[0.11258307471823836,-0.10385653921986436,0.9881289650920522,0.01183295797211894],"scale":[1.0,1.0,1.0],"name":"APU"}],"scene":0,"scenes":[{"nodes":[0]}],"textures":[{"extensions":{"MSFT_texture_dds":{"source":0}}},{"extensions":{"MSFT_texture_dds":{"source":1}}}],"extensionsUsed":["ASOBO_material_day_night_switch","MSFT_texture_dds","ASOBO_asset_optimized"],"buffers":[{"byteLength":137448,"uri":"RFSL_Bombardier_CL850_MSFS_LOD1.bin"}],"images":[{"uri":"RFSL_CRJ850V3_T.PNG.DDS","extras":"ASOBO_image_converted_meta"},{"uri":"RFSL_CRJ850V3_L.PNG.DDS","extras":"ASOBO_image_converted_meta"}]}
