{"accessors":[{"bufferView":0,"componentType":5126,"count":5,"min":[0.0],"max":[100.0],"type":"SCALAR"},{"bufferView":2,"componentType":5126,"count":5,"type":"VEC4"},{"bufferView":0,"byteOffset":20,"componentType":5126,"count":5,"min":[0.0],"max":[100.0],"type":"SCALAR"},{"bufferView":2,"byteOffset":80,"componentType":5126,"count":5,"type":"VEC4"},{"bufferView":0,"byteOffset":40,"componentType":5126,"count":5,"min":[0.0],"max":[100.0],"type":"SCALAR"},{"bufferView":2,"byteOffset":160,"componentType":5126,"count":5,"type":"VEC4"},{"bufferView":0,"byteOffset":60,"componentType":5126,"count":5,"min":[0.0],"max":[100.0],"type":"SCALAR"},{"bufferView":2,"byteOffset":240,"componentType":5126,"count":5,"type":"VEC4"},{"bufferView":0,"byteOffset":80,"componentType":5126,"count":3,"min":[0.0],"max":[100.0],"type":"SCALAR"},{"bufferView":2,"byteOffset":320,"componentType":5126,"count":3,"type":"VEC4"},{"bufferView":0,"byteOffset":92,"componentType":5126,"count":3,"min":[0.0],"max":[100.0],"type":"SCALAR"},{"bufferView":2,"byteOffset":368,"componentType":5126,"count":3,"type":"VEC4"},{"bufferView":0,"byteOffset":104,"componentType":5126,"count":5,"min":[0.0],"max":[100.0],"type":"SCALAR"},{"bufferView":2,"byteOffset":416,"componentType":5126,"count":5,"type":"VEC4"},{"bufferView":0,"byteOffset":124,"componentType":5126,"count":5,"min":[0.0],"max":[100.0],"type":"SCALAR"},{"bufferView":2,"byteOffset":496,"componentType":5126,"count":5,"type":"VEC4"},{"bufferView":0,"byteOffset":144,"componentType":5126,"count":5,"min":[0.0],"max":[100.0],"type":"SCALAR"},{"bufferView":2,"byteOffset":576,"componentType":5126,"count":5,"type":"VEC4"},{"bufferView":0,"byteOffset":164,"componentType":5126,"count":5,"min":[0.0],"max":[100.0],"type":"SCALAR"},{"bufferView":2,"byteOffset":656,"componentType":5126,"count":5,"type":"VEC4"},{"bufferView":0,"byteOffset":184,"componentType":5126,"count":3,"min":[0.0],"max":[100.0],"type":"SCALAR"},{"bufferView":1,"componentType":5126,"count":3,"type":"VEC3"},{"bufferView":0,"byteOffset":196,"componentType":5126,"count":3,"min":[0.0],"max":[100.0],"type":"SCALAR"},{"bufferView":2,"byteOffset":736,"componentType":5126,"count":3,"type":"VEC4"},{"bufferView":3,"componentType":5126,"count":801,"min":[-5.342390060424805,-1.360610008239746,-4.990560054779053],"max":[5.322380065917969,1.4606499671936036,2.1929800510406496],"type":"VEC3","name":"part000_vertices#0_POSITION"},{"bufferView":3,"byteOffset":12,"componentType":5120,"count":801,"type":"VEC4","name":"part000_vertices#0_TANGENT"},{"bufferView":3,"byteOffset":16,"componentType":5120,"count":801,"type":"VEC4","name":"part000_vertices#0_NORMAL"},{"bufferView":3,"byteOffset":20,"componentType":5122,"count":801,"type":"VEC2","name":"part000_vertices#0_TEXCOORD_0"},{"bufferView":3,"byteOffset":24,"componentType":5122,"count":801,"type":"VEC2","name":"part000_vertices#0_TEXCOORD_1"},{"bufferView":3,"byteOffset":28,"componentType":5123,"count":801,"type":"VEC4","name":"part000_vertices#0_COLOR_0"},{"bufferView":4,"componentType":5123,"count":2706,"type":"SCALAR","name":"part000_indices#0"},{"bufferView":3,"byteOffset":28836,"componentType":5126,"count":6,"min":[-0.020320000126957895,0.08557000011205673,-0.01816999912261963],"max":[0.1379999965429306,0.9729599952697754,0.015010000206530095],"type":"VEC3","name":"part001_vertices#0_POSITION"},{"bufferView":3,"byteOffset":28848,"componentType":5120,"count":6,"type":"VEC4","name":"part001_vertices#0_TANGENT"},{"bufferView":3,"byteOffset":28852,"componentType":5120,"count":6,"type":"VEC4","name":"part001_vertices#0_NORMAL"},{"bufferView":3,"byteOffset":28856,"componentType":5122,"count":6,"type":"VEC2","name":"part001_vertices#0_TEXCOORD_0"},{"bufferView":3,"byteOffset":28860,"componentType":5122,"count":6,"type":"VEC2","name":"part001_vertices#0_TEXCOORD_1"},{"bufferView":3,"byteOffset":28864,"componentType":5123,"count":6,"type":"VEC4","name":"part001_vertices#0_COLOR_0"},{"bufferView":4,"byteOffset":5412,"componentType":5123,"count":12,"type":"SCALAR","name":"part001_indices#0"},{"bufferView":3,"byteOffset":29052,"componentType":5126,"count":6,"min":[-0.0703900009393692,0.08997999876737595,-0.017000000923871995],"max":[0.06406000256538391,0.9714699983596802,0.015010000206530095],"type":"VEC3","name":"part002_vertices#0_POSITION"},{"bufferView":3,"byteOffset":29064,"componentType":5120,"count":6,"type":"VEC4","name":"part002_vertices#0_TANGENT"},{"bufferView":3,"byteOffset":29068,"componentType":5120,"count":6,"type":"VEC4","name":"part002_vertices#0_NORMAL"},{"bufferView":3,"byteOffset":29072,"componentType":5122,"count":6,"type":"VEC2","name":"part002_vertices#0_TEXCOORD_0"},{"bufferView":3,"byteOffset":29076,"componentType":5122,"count":6,"type":"VEC2","name":"part002_vertices#0_TEXCOORD_1"},{"bufferView":3,"byteOffset":29080,"componentType":5123,"count":6,"type":"VEC4","name":"part002_vertices#0_COLOR_0"},{"bufferView":4,"byteOffset":5436,"componentType":5123,"count":12,"type":"SCALAR","name":"part002_indices#0"},{"bufferView":3,"byteOffset":29268,"componentType":5126,"count":6,"min":[-0.02111000008881092,0.08415000140666962,-0.018200000748038293],"max":[0.13753999769687653,0.9722200036048889,0.015030000358819962],"type":"VEC3","name":"part003_vertices#0_POSITION"},{"bufferView":3,"byteOffset":29280,"componentType":5120,"count":6,"type":"VEC4","name":"part003_vertices#0_TANGENT"},{"bufferView":3,"byteOffset":29284,"componentType":5120,"count":6,"type":"VEC4","name":"part003_vertices#0_NORMAL"},{"bufferView":3,"byteOffset":29288,"componentType":5122,"count":6,"type":"VEC2","name":"part003_vertices#0_TEXCOORD_0"},{"bufferView":3,"byteOffset":29292,"componentType":5122,"count":6,"type":"VEC2","name":"part003_vertices#0_TEXCOORD_1"},{"bufferView":3,"byteOffset":29296,"componentType":5123,"count":6,"type":"VEC4","name":"part003_vertices#0_COLOR_0"},{"bufferView":4,"byteOffset":5460,"componentType":5123,"count":12,"type":"SCALAR","name":"part003_indices#0"},{"bufferView":3,"byteOffset":29484,"componentType":5126,"count":6,"min":[-0.0749099999666214,0.08386000245809555,-0.017000000923871995],"max":[0.060430001467466357,0.9664400219917297,0.015010000206530095],"type":"VEC3","name":"part004_vertices#0_POSITION"},{"bufferView":3,"byteOffset":29496,"componentType":5120,"count":6,"type":"VEC4","name":"part004_vertices#0_TANGENT"},{"bufferView":3,"byteOffset":29500,"componentType":5120,"count":6,"type":"VEC4","name":"part004_vertices#0_NORMAL"},{"bufferView":3,"byteOffset":29504,"componentType":5122,"count":6,"type":"VEC2","name":"part004_vertices#0_TEXCOORD_0"},{"bufferView":3,"byteOffset":29508,"componentType":5122,"count":6,"type":"VEC2","name":"part004_vertices#0_TEXCOORD_1"},{"bufferView":3,"byteOffset":29512,"componentType":5123,"count":6,"type":"VEC4","name":"part004_vertices#0_COLOR_0"},{"bufferView":4,"byteOffset":5484,"componentType":5123,"count":12,"type":"SCALAR","name":"part004_indices#0"},{"bufferView":3,"byteOffset":29700,"componentType":5126,"count":20,"min":[-0.9616900086402893,-0.08767999708652497,-0.0028699999675154688],"max":[1.2690099477767945,0.00977999996393919,0.29725998640060427],"type":"VEC3","name":"part005_vertices#0_POSITION"},{"bufferView":3,"byteOffset":29712,"componentType":5120,"count":20,"type":"VEC4","name":"part005_vertices#0_TANGENT"},{"bufferView":3,"byteOffset":29716,"componentType":5120,"count":20,"type":"VEC4","name":"part005_vertices#0_NORMAL"},{"bufferView":3,"byteOffset":29720,"componentType":5122,"count":20,"type":"VEC2","name":"part005_vertices#0_TEXCOORD_0"},{"bufferView":3,"byteOffset":29724,"componentType":5122,"count":20,"type":"VEC2","name":"part005_vertices#0_TEXCOORD_1"},{"bufferView":3,"byteOffset":29728,"componentType":5123,"count":20,"type":"VEC4","name":"part005_vertices#0_COLOR_0"},{"bufferView":4,"byteOffset":5508,"componentType":5123,"count":24,"type":"SCALAR","name":"part005_indices#0"},{"bufferView":3,"byteOffset":30420,"componentType":5126,"count":22,"min":[-1.0531799793243409,-0.12060000002384186,-0.003969999961555004],"max":[1.169600009918213,0.027079999446868898,0.2961600124835968],"type":"VEC3","name":"part006_vertices#0_POSITION"},{"bufferView":3,"byteOffset":30432,"componentType":5120,"count":22,"type":"VEC4","name":"part006_vertices#0_TANGENT"},{"bufferView":3,"byteOffset":30436,"componentType":5120,"count":22,"type":"VEC4","name":"part006_vertices#0_NORMAL"},{"bufferView":3,"byteOffset":30440,"componentType":5122,"count":22,"type":"VEC2","name":"part006_vertices#0_TEXCOORD_0"},{"bufferView":3,"byteOffset":30444,"componentType":5122,"count":22,"type":"VEC2","name":"part006_vertices#0_TEXCOORD_1"},{"bufferView":3,"byteOffset":30448,"componentType":5123,"count":22,"type":"VEC4","name":"part006_vertices#0_COLOR_0"},{"bufferView":4,"byteOffset":5556,"componentType":5123,"count":24,"type":"SCALAR","name":"part006_indices#0"},{"bufferView":3,"byteOffset":31212,"componentType":5126,"count":4,"min":[-0.9734399914741516,-0.9751799702644348,-0.0009800000116229058],"max":[0.9754400253295898,0.9742500185966492,0.001019999966956675],"type":"VEC3","name":"part007_vertices#0_POSITION"},{"bufferView":3,"byteOffset":31224,"componentType":5120,"count":4,"type":"VEC4","name":"part007_vertices#0_TANGENT"},{"bufferView":3,"byteOffset":31228,"componentType":5120,"count":4,"type":"VEC4","name":"part007_vertices#0_NORMAL"},{"bufferView":3,"byteOffset":31232,"componentType":5122,"count":4,"type":"VEC2","name":"part007_vertices#0_TEXCOORD_0"},{"bufferView":3,"byteOffset":31236,"componentType":5122,"count":4,"type":"VEC2","name":"part007_vertices#0_TEXCOORD_1"},{"bufferView":3,"byteOffset":31240,"componentType":5123,"count":4,"type":"VEC4","name":"part007_vertices#0_COLOR_0"},{"bufferView":4,"byteOffset":5604,"componentType":5123,"count":6,"type":"SCALAR","name":"part007_indices#0"},{"bufferView":3,"byteOffset":31356,"componentType":5126,"count":4,"min":[-0.9734399914741516,-0.9751799702644348,-0.0009800000116229058],"max":[0.9754400253295898,0.9742500185966492,0.001019999966956675],"type":"VEC3","name":"part008_vertices#0_POSITION"},{"bufferView":3,"byteOffset":31368,"componentType":5120,"count":4,"type":"VEC4","name":"part008_vertices#0_TANGENT"},{"bufferView":3,"byteOffset":31372,"componentType":5120,"count":4,"type":"VEC4","name":"part008_vertices#0_NORMAL"},{"bufferView":3,"byteOffset":31376,"componentType":5122,"count":4,"type":"VEC2","name":"part008_vertices#0_TEXCOORD_0"},{"bufferView":3,"byteOffset":31380,"componentType":5122,"count":4,"type":"VEC2","name":"part008_vertices#0_TEXCOORD_1"},{"bufferView":3,"byteOffset":31384,"componentType":5123,"count":4,"type":"VEC4","name":"part008_vertices#0_COLOR_0"},{"bufferView":4,"byteOffset":5616,"componentType":5123,"count":6,"type":"SCALAR","name":"part008_indices#0"},{"bufferView":3,"byteOffset":31500,"componentType":5126,"count":4,"min":[-0.9734399914741516,-0.9747700095176697,0.0],"max":[0.9754400253295898,0.9747300148010254,0.0020000000949949028],"type":"VEC3","name":"part009_vertices#0_POSITION"},{"bufferView":3,"byteOffset":31512,"componentType":5120,"count":4,"type":"VEC4","name":"part009_vertices#0_TANGENT"},{"bufferView":3,"byteOffset":31516,"componentType":5120,"count":4,"type":"VEC4","name":"part009_vertices#0_NORMAL"},{"bufferView":3,"byteOffset":31520,"componentType":5122,"count":4,"type":"VEC2","name":"part009_vertices#0_TEXCOORD_0"},{"bufferView":3,"byteOffset":31524,"componentType":5122,"count":4,"type":"VEC2","name":"part009_vertices#0_TEXCOORD_1"},{"bufferView":3,"byteOffset":31528,"componentType":5123,"count":4,"type":"VEC4","name":"part009_vertices#0_COLOR_0"},{"bufferView":4,"byteOffset":5628,"componentType":5123,"count":6,"type":"SCALAR","name":"part009_indices#0"},{"bufferView":3,"byteOffset":31644,"componentType":5126,"count":4,"min":[-0.9734399914741516,-0.9747700095176697,0.0],"max":[0.9754400253295898,0.9747300148010254,0.0020000000949949028],"type":"VEC3","name":"part010_vertices#0_POSITION"},{"bufferView":3,"byteOffset":31656,"componentType":5120,"count":4,"type":"VEC4","name":"part010_vertices#0_TANGENT"},{"bufferView":3,"byteOffset":31660,"componentType":5120,"count":4,"type":"VEC4","name":"part010_vertices#0_NORMAL"},{"bufferView":3,"byteOffset":31664,"componentType":5122,"count":4,"type":"VEC2","name":"part010_vertices#0_TEXCOORD_0"},{"bufferView":3,"byteOffset":31668,"componentType":5122,"count":4,"type":"VEC2","name":"part010_vertices#0_TEXCOORD_1"},{"bufferView":3,"byteOffset":31672,"componentType":5123,"count":4,"type":"VEC4","name":"part010_vertices#0_COLOR_0"},{"bufferView":4,"byteOffset":5640,"componentType":5123,"count":6,"type":"SCALAR","name":"part010_indices#0"},{"bufferView":3,"byteOffset":31788,"componentType":5126,"count":28,"min":[-1.8008099794387818,-0.652649998664856,-0.05623999983072281],"max":[1.9048500061035157,0.11486999690532685,0.027950000017881395],"type":"VEC3","name":"part011_vertices#0_POSITION"},{"bufferView":3,"byteOffset":31800,"componentType":5120,"count":28,"type":"VEC4","name":"part011_vertices#0_TANGENT"},{"bufferView":3,"byteOffset":31804,"componentType":5120,"count":28,"type":"VEC4","name":"part011_vertices#0_NORMAL"},{"bufferView":3,"byteOffset":31808,"componentType":5122,"count":28,"type":"VEC2","name":"part011_vertices#0_TEXCOORD_0"},{"bufferView":3,"byteOffset":31812,"componentType":5122,"count":28,"type":"VEC2","name":"part011_vertices#0_TEXCOORD_1"},{"bufferView":3,"byteOffset":31816,"componentType":5123,"count":28,"type":"VEC4","name":"part011_vertices#0_COLOR_0"},{"bufferView":4,"byteOffset":5652,"componentType":5123,"count":90,"type":"SCALAR","name":"part011_indices#0"}],"animations":[{"name":"engine0","channels":[{"sampler":0,"target":{"node":11,"path":"rotation"}},{"sampler":1,"target":{"node":14,"path":"rotation"}},{"sampler":2,"target":{"node":17,"path":"rotation"}},{"sampler":3,"target":{"node":20,"path":"rotation"}},{"sampler":4,"target":{"node":29,"path":"rotation"}},{"sampler":5,"target":{"node":31,"path":"rotation"}},{"sampler":6,"target":{"node":34,"path":"rotation"}},{"sampler":7,"target":{"node":36,"path":"rotation"}}],"samplers":[{"input":0,"output":1,"interpolation":"LINEAR"},{"input":2,"output":3,"interpolation":"LINEAR"},{"input":4,"output":5,"interpolation":"LINEAR"},{"input":6,"output":7,"interpolation":"LINEAR"},{"input":12,"output":13,"interpolation":"LINEAR"},{"input":14,"output":15,"interpolation":"LINEAR"},{"input":16,"output":17,"interpolation":"LINEAR"},{"input":18,"output":19,"interpolation":"LINEAR"}]},{"name":"custom_anim_FLAPS_SML_GA","channels":[{"sampler":0,"target":{"node":23,"path":"rotation"}},{"sampler":1,"target":{"node":26,"path":"rotation"}}],"samplers":[{"input":8,"output":9,"interpolation":"LINEAR"},{"input":10,"output":11,"interpolation":"LINEAR"}]},{"name":"elevator","channels":[{"sampler":0,"target":{"node":38,"path":"translation"}},{"sampler":1,"target":{"node":40,"path":"rotation"}}],"samplers":[{"input":20,"output":21,"interpolation":"LINEAR"},{"input":22,"output":23,"interpolation":"LINEAR"}]}],"asset":{"generator":"ModelConverterX","version":"2.0","extensions":{"ASOBO_asset_optimized":{"BoundingBoxMax":[5.322380065917969,1.4606499671936036,2.1929800510406496],"BoundingBoxMin":[-5.342390060424805,-1.360610008239746,-4.990560054779053],"MajorVersion":4,"MinorVersion":4,"UseCheckerboardMaterialForMissingTextures":true,"UseOnlyFilenameForImageURI":true}}},"bufferViews":[{"buffer":0,"byteLength":208,"byteStride":4},{"buffer":0,"byteLength":36,"byteStride":12,"byteOffset":208},{"buffer":0,"byteLength":784,"byteStride":16,"byteOffset":244},{"buffer":0,"byteLength":32796,"byteStride":36,"byteOffset":1028,"target":34962,"name":"BufferViewVertexND"},{"buffer":0,"byteLength":5832,"byteOffset":33824,"target":34963,"name":"BufferViewIndex"}],"extensionsRequired":["MSFT_texture_dds"],"materials":[{"name":"material00","alphaMode":"BLEND","pbrMetallicRoughness":{"baseColorFactor":[0.0,0.0,0.0,1.0],"metallicFactor":0.0,"baseColorTexture":{"index":0}}},{"name":"material01","occlusionTexture":{"index":2},"emissiveTexture":{"index":3},"emissiveFactor":[0.019607843831181527,0.019607843831181527,0.019607843831181527],"pbrMetallicRoughness":{"baseColorTexture":{"index":1},"metallicRoughnessTexture":{"index":2}}},{"name":"material02","alphaMode":"BLEND","pbrMetallicRoughness":{"baseColorFactor":[0.0,0.0,0.0,1.0],"metallicFactor":0.0,"baseColorTexture":{"index":4}}}],"meshes":[{"primitives":[{"attributes":{"COLOR_0":29,"NORMAL":26,"POSITION":24,"TANGENT":25,"TEXCOORD_0":27,"TEXCOORD_1":28},"indices":30,"material":1,"mode":4,"extras":{"ASOBO_primitive":{"PrimitiveCount":902,"VertexType":"VTX","VertexVersion":2}}}],"name":"part000"},{"primitives":[{"attributes":{"COLOR_0":36,"NORMAL":33,"POSITION":31,"TANGENT":32,"TEXCOORD_0":34,"TEXCOORD_1":35},"indices":37,"material":1,"mode":4,"extras":{"ASOBO_primitive":{"PrimitiveCount":4,"VertexType":"VTX","VertexVersion":2}}}],"name":"part001"},{"primitives":[{"attributes":{"COLOR_0":43,"NORMAL":40,"POSITION":38,"TANGENT":39,"TEXCOORD_0":41,"TEXCOORD_1":42},"indices":44,"material":1,"mode":4,"extras":{"ASOBO_primitive":{"PrimitiveCount":4,"VertexType":"VTX","VertexVersion":2}}}],"name":"part002"},{"primitives":[{"attributes":{"COLOR_0":50,"NORMAL":47,"POSITION":45,"TANGENT":46,"TEXCOORD_0":48,"TEXCOORD_1":49},"indices":51,"material":1,"mode":4,"extras":{"ASOBO_primitive":{"PrimitiveCount":4,"VertexType":"VTX","VertexVersion":2}}}],"name":"part003"},{"primitives":[{"attributes":{"COLOR_0":57,"NORMAL":54,"POSITION":52,"TANGENT":53,"TEXCOORD_0":55,"TEXCOORD_1":56},"indices":58,"material":1,"mode":4,"extras":{"ASOBO_primitive":{"PrimitiveCount":4,"VertexType":"VTX","VertexVersion":2}}}],"name":"part004"},{"primitives":[{"attributes":{"COLOR_0":64,"NORMAL":61,"POSITION":59,"TANGENT":60,"TEXCOORD_0":62,"TEXCOORD_1":63},"indices":65,"material":1,"mode":4,"extras":{"ASOBO_primitive":{"PrimitiveCount":8,"VertexType":"VTX","VertexVersion":2}}}],"name":"part005"},{"primitives":[{"attributes":{"COLOR_0":71,"NORMAL":68,"POSITION":66,"TANGENT":67,"TEXCOORD_0":69,"TEXCOORD_1":70},"indices":72,"material":1,"mode":4,"extras":{"ASOBO_primitive":{"PrimitiveCount":8,"VertexType":"VTX","VertexVersion":2}}}],"name":"part006"},{"primitives":[{"attributes":{"COLOR_0":78,"NORMAL":75,"POSITION":73,"TANGENT":74,"TEXCOORD_0":76,"TEXCOORD_1":77},"indices":79,"material":2,"mode":4,"extras":{"ASOBO_primitive":{"PrimitiveCount":2,"VertexType":"VTX","VertexVersion":2}}}],"name":"part007"},{"primitives":[{"attributes":{"COLOR_0":85,"NORMAL":82,"POSITION":80,"TANGENT":81,"TEXCOORD_0":83,"TEXCOORD_1":84},"indices":86,"material":2,"mode":4,"extras":{"ASOBO_primitive":{"PrimitiveCount":2,"VertexType":"VTX","VertexVersion":2}}}],"name":"part008"},{"primitives":[{"attributes":{"COLOR_0":92,"NORMAL":89,"POSITION":87,"TANGENT":88,"TEXCOORD_0":90,"TEXCOORD_1":91},"indices":93,"material":0,"mode":4,"extras":{"ASOBO_primitive":{"PrimitiveCount":2,"VertexType":"VTX","VertexVersion":2}}}],"name":"part009"},{"primitives":[{"attributes":{"COLOR_0":99,"NORMAL":96,"POSITION":94,"TANGENT":95,"TEXCOORD_0":97,"TEXCOORD_1":98},"indices":100,"material":0,"mode":4,"extras":{"ASOBO_primitive":{"PrimitiveCount":2,"VertexType":"VTX","VertexVersion":2}}}],"name":"part010"},{"primitives":[{"attributes":{"COLOR_0":106,"NORMAL":103,"POSITION":101,"TANGENT":102,"TEXCOORD_0":104,"TEXCOORD_1":105},"indices":107,"material":1,"mode":4,"extras":{"ASOBO_primitive":{"PrimitiveCount":30,"VertexType":"VTX","VertexVersion":2}}}],"name":"part011"}],"nodes":[{"name":"node_0","children":[1,2,3,4,5,6,7,8]},{"mesh":0,"name":"node_5"},{"translation":[6.123031769111886e-16,0.0,-5.0],"rotation":[-6.123031769111886e-17,3.061515884555943e-17,1.0,1.874575902277672e-33],"scale":[1.0,1.0,1.0],"name":"contrail1"},{"translation":[-2.1797992747675628e-16,-0.43999999761581429,1.7799999713897706],"rotation":[-0.7071067811865475,0.0,0.0,0.7071067811865475],"scale":[1.0,1.0,1.0],"name":"Landing_Light"},{"translation":[-2.1675532229080953e-16,-0.43999999761581429,1.7699999809265137],"rotation":[-0.7071067811865475,0.0,0.0,0.7071067811865475],"scale":[1.0,1.0,1.0],"name":"Taxi_Light"},{"translation":[-1.3470670184015055e-16,-1.350000023841858,1.100000023841858],"rotation":[-6.123031769111886e-17,3.061515884555943e-17,1.0,1.874575902277672e-33],"scale":[1.0,1.0,1.0],"name":"c_tire1"},{"translation":[1.5,-1.25,-0.7499999999999999],"rotation":[-6.123031769111886e-17,3.061515884555943e-17,1.0,1.874575902277672e-33],"scale":[1.0,1.0,1.0],"name":"l_tire1"},{"translation":[-1.5,-1.25,-0.7500000000000001],"rotation":[-6.123031769111886e-17,3.061515884555943e-17,1.0,1.874575902277672e-33],"scale":[1.0,1.0,1.0],"name":"r_tire1"},{"translation":[0.0,0.0,0.0],"rotation":[-4.329637285359677e-17,0.7071067811865475,0.7071067811865475,4.329637285359677e-17],"scale":[1.0,1.0,1.0],"name":"node_19","children":[9,12,15,18,21,24,27,32,37]},{"translation":[-0.008812000043690205,1.8797990083694456,-0.15196500718593596],"rotation":[-0.16531465653819328,0.6890015310984574,-0.6875146246600237,-0.1589935654233251],"scale":[1.0,1.0,1.0],"name":"node_20","children":[10]},{"name":"prop0_still_VC_0","children":[11]},{"mesh":1,"name":"engine0_AN_0"},{"translation":[-0.0067170001566410069,1.8798480033874512,-0.14739400148391725],"rotation":[0.6813830101014666,0.1889899297451179,-0.1889899297451179,0.6813830101014666],"scale":[1.0,1.0,1.0],"name":"node_26","children":[13]},{"name":"prop0_still_VC_1","children":[14]},{"mesh":2,"name":"engine0_AN_1"},{"translation":[-0.006856999825686216,1.8797990083694456,-0.14634700119495393],"rotation":[0.6911341379164488,0.14374571557047448,-0.15003480509912038,0.6922430444775176],"scale":[1.0,1.0,1.0],"name":"node_32","children":[16]},{"name":"prop0_still_VC_2","children":[17]},{"mesh":3,"name":"engine0_AN_2"},{"translation":[-0.004885000176727772,1.8798480033874512,-0.14849300682544709],"rotation":[0.2008684853874897,-0.6779762913097595,0.6779762913097595,0.2008684853874897],"scale":[1.0,1.0,1.0],"name":"node_38","children":[19]},{"name":"prop0_still_VC_3","children":[20]},{"mesh":4,"name":"engine0_AN_3"},{"translation":[1.4481170177459717,-1.1273750066757203,-0.43469300866127016],"rotation":[0.7057900885503876,-0.043131785310093827,0.043131785310093827,0.7057900885503876],"scale":[1.0,1.0,1.0],"name":"node_44","children":[22]},{"name":"node_45","children":[23]},{"mesh":5,"name":"custom_anim_FLAPS_SML_GA_AN_45"},{"translation":[-1.631203055381775,-1.1284739971160889,-0.4141370058059693],"rotation":[0.7064357638213512,0.030797915418810816,-0.030797915418810816,0.7064357638213512],"scale":[1.0,1.0,1.0],"name":"node_49","children":[25]},{"name":"node_50","children":[26]},{"mesh":6,"name":"custom_anim_FLAPS_SML_GA_AN_50"},{"translation":[0.017007999122142793,1.880871057510376,-0.17761200666427613],"rotation":[0.7009286721248718,0.0,0.0,0.7132313766186005],"scale":[1.0,1.0,1.0],"name":"node_54","children":[28,30]},{"name":"prop0_slow_VC_0","children":[29]},{"mesh":7,"name":"ENGINE0_AN_0_1"},{"name":"prop0_blurred_VC_0","children":[31]},{"mesh":8,"name":"ENGINE0_AN_0_2"},{"translation":[0.017007999122142793,1.8638349771499632,-0.1780800074338913],"rotation":[0.7009286721248718,0.0,0.0,0.7132313766186005],"scale":[1.0,1.0,1.0],"name":"node_63","children":[33,35]},{"name":"prop0_slow_VC_1","children":[34]},{"mesh":9,"name":"ENGINE0_AN_1_1"},{"name":"prop0_blurred_VC_1","children":[36]},{"mesh":10,"name":"ENGINE0_AN_1_2"},{"name":"node_73","children":[38]},{"name":"elevator_AN_73","children":[39]},{"name":"node_74","children":[40]},{"mesh":11,"name":"elevator_AN_74"}],"scene":0,"scenes":[{"nodes":[0]}],"textures":[{"extensions":{"MSFT_texture_dds":{"source":0}}},{"extensions":{"MSFT_texture_dds":{"source":1}}},{"extensions":{"MSFT_texture_dds":{"source":2}}},{"extensions":{"MSFT_texture_dds":{"source":3}}},{"extensions":{"MSFT_texture_dds":{"source":4}}}],"extensionsUsed":["MSFT_texture_dds","ASOBO_asset_optimized"],"buffers":[{"byteLength":39656,"uri":"ANAI_Piper_Warrior_F_MSFS_LOD3.bin"}],"images":[{"uri":"AI_PROP_BLACK_BACK.PNG.DDS","extras":"ASOBO_image_converted_meta"},{"uri":"AI_WARRIOR_T.PNG.DDS","extras":"ASOBO_image_converted_meta"},{"uri":"AI_WARRIOR_C.PNG.DDS","extras":"ASOBO_image_converted_meta"},{"uri":"AI_WARRIOR_L.PNG.DDS","extras":"ASOBO_image_converted_meta"},{"uri":"PROP GREY FRONT.PNG.DDS","extras":"ASOBO_image_converted_meta"}]}
