{"accessors":[{"bufferView":0,"componentType":5126,"count":5,"min":[0.0],"max":[100.0],"type":"SCALAR"},{"bufferView":1,"componentType":5126,"count":5,"type":"VEC4"},{"bufferView":0,"byteOffset":20,"componentType":5126,"count":5,"min":[0.0],"max":[100.0],"type":"SCALAR"},{"bufferView":1,"byteOffset":80,"componentType":5126,"count":5,"type":"VEC4"},{"bufferView":0,"byteOffset":40,"componentType":5126,"count":5,"min":[0.0],"max":[100.0],"type":"SCALAR"},{"bufferView":1,"byteOffset":160,"componentType":5126,"count":5,"type":"VEC4"},{"bufferView":0,"byteOffset":60,"componentType":5126,"count":5,"min":[0.0],"max":[100.0],"type":"SCALAR"},{"bufferView":1,"byteOffset":240,"componentType":5126,"count":5,"type":"VEC4"},{"bufferView":0,"byteOffset":80,"componentType":5126,"count":3,"min":[0.0],"max":[100.0],"type":"SCALAR"},{"bufferView":1,"byteOffset":320,"componentType":5126,"count":3,"type":"VEC4"},{"bufferView":2,"componentType":5126,"count":453,"min":[-5.278359889984131,-1.3165899515151978,-4.98622989654541],"max":[5.322380065917969,1.4606499671936036,2.1289501190185549],"type":"VEC3","name":"part000_vertices#0_POSITION"},{"bufferView":2,"byteOffset":12,"componentType":5120,"count":453,"type":"VEC4","name":"part000_vertices#0_TANGENT"},{"bufferView":2,"byteOffset":16,"componentType":5120,"count":453,"type":"VEC4","name":"part000_vertices#0_NORMAL"},{"bufferView":2,"byteOffset":20,"componentType":5122,"count":453,"type":"VEC2","name":"part000_vertices#0_TEXCOORD_0"},{"bufferView":2,"byteOffset":24,"componentType":5122,"count":453,"type":"VEC2","name":"part000_vertices#0_TEXCOORD_1"},{"bufferView":2,"byteOffset":28,"componentType":5123,"count":453,"type":"VEC4","name":"part000_vertices#0_COLOR_0"},{"bufferView":3,"componentType":5123,"count":1191,"type":"SCALAR","name":"part000_indices#0"},{"bufferView":2,"byteOffset":16308,"componentType":5126,"count":6,"min":[-0.020320000126957895,0.08557000011205673,-0.01816999912261963],"max":[0.1379999965429306,0.9729599952697754,0.015010000206530095],"type":"VEC3","name":"part001_vertices#0_POSITION"},{"bufferView":2,"byteOffset":16320,"componentType":5120,"count":6,"type":"VEC4","name":"part001_vertices#0_TANGENT"},{"bufferView":2,"byteOffset":16324,"componentType":5120,"count":6,"type":"VEC4","name":"part001_vertices#0_NORMAL"},{"bufferView":2,"byteOffset":16328,"componentType":5122,"count":6,"type":"VEC2","name":"part001_vertices#0_TEXCOORD_0"},{"bufferView":2,"byteOffset":16332,"componentType":5122,"count":6,"type":"VEC2","name":"part001_vertices#0_TEXCOORD_1"},{"bufferView":2,"byteOffset":16336,"componentType":5123,"count":6,"type":"VEC4","name":"part001_vertices#0_COLOR_0"},{"bufferView":3,"byteOffset":2382,"componentType":5123,"count":12,"type":"SCALAR","name":"part001_indices#0"},{"bufferView":2,"byteOffset":16524,"componentType":5126,"count":6,"min":[-0.0703900009393692,0.08997999876737595,-0.017000000923871995],"max":[0.06406000256538391,0.9714699983596802,0.015010000206530095],"type":"VEC3","name":"part002_vertices#0_POSITION"},{"bufferView":2,"byteOffset":16536,"componentType":5120,"count":6,"type":"VEC4","name":"part002_vertices#0_TANGENT"},{"bufferView":2,"byteOffset":16540,"componentType":5120,"count":6,"type":"VEC4","name":"part002_vertices#0_NORMAL"},{"bufferView":2,"byteOffset":16544,"componentType":5122,"count":6,"type":"VEC2","name":"part002_vertices#0_TEXCOORD_0"},{"bufferView":2,"byteOffset":16548,"componentType":5122,"count":6,"type":"VEC2","name":"part002_vertices#0_TEXCOORD_1"},{"bufferView":2,"byteOffset":16552,"componentType":5123,"count":6,"type":"VEC4","name":"part002_vertices#0_COLOR_0"},{"bufferView":3,"byteOffset":2406,"componentType":5123,"count":12,"type":"SCALAR","name":"part002_indices#0"},{"bufferView":2,"byteOffset":16740,"componentType":5126,"count":6,"min":[-0.02111000008881092,0.08415000140666962,-0.018200000748038293],"max":[0.13753999769687653,0.9722200036048889,0.015030000358819962],"type":"VEC3","name":"part003_vertices#0_POSITION"},{"bufferView":2,"byteOffset":16752,"componentType":5120,"count":6,"type":"VEC4","name":"part003_vertices#0_TANGENT"},{"bufferView":2,"byteOffset":16756,"componentType":5120,"count":6,"type":"VEC4","name":"part003_vertices#0_NORMAL"},{"bufferView":2,"byteOffset":16760,"componentType":5122,"count":6,"type":"VEC2","name":"part003_vertices#0_TEXCOORD_0"},{"bufferView":2,"byteOffset":16764,"componentType":5122,"count":6,"type":"VEC2","name":"part003_vertices#0_TEXCOORD_1"},{"bufferView":2,"byteOffset":16768,"componentType":5123,"count":6,"type":"VEC4","name":"part003_vertices#0_COLOR_0"},{"bufferView":3,"byteOffset":2430,"componentType":5123,"count":12,"type":"SCALAR","name":"part003_indices#0"},{"bufferView":2,"byteOffset":16956,"componentType":5126,"count":6,"min":[-0.0749099999666214,0.08386000245809555,-0.017000000923871995],"max":[0.060430001467466357,0.9664400219917297,0.015010000206530095],"type":"VEC3","name":"part004_vertices#0_POSITION"},{"bufferView":2,"byteOffset":16968,"componentType":5120,"count":6,"type":"VEC4","name":"part004_vertices#0_TANGENT"},{"bufferView":2,"byteOffset":16972,"componentType":5120,"count":6,"type":"VEC4","name":"part004_vertices#0_NORMAL"},{"bufferView":2,"byteOffset":16976,"componentType":5122,"count":6,"type":"VEC2","name":"part004_vertices#0_TEXCOORD_0"},{"bufferView":2,"byteOffset":16980,"componentType":5122,"count":6,"type":"VEC2","name":"part004_vertices#0_TEXCOORD_1"},{"bufferView":2,"byteOffset":16984,"componentType":5123,"count":6,"type":"VEC4","name":"part004_vertices#0_COLOR_0"},{"bufferView":3,"byteOffset":2454,"componentType":5123,"count":12,"type":"SCALAR","name":"part004_indices#0"},{"bufferView":2,"byteOffset":17172,"componentType":5126,"count":26,"min":[-1.9338699579238892,-0.5867199897766113,-0.02889999933540821],"max":[1.835819959640503,0.22663000226020814,0.023509999737143518],"type":"VEC3","name":"part005_vertices#0_POSITION"},{"bufferView":2,"byteOffset":17184,"componentType":5120,"count":26,"type":"VEC4","name":"part005_vertices#0_TANGENT"},{"bufferView":2,"byteOffset":17188,"componentType":5120,"count":26,"type":"VEC4","name":"part005_vertices#0_NORMAL"},{"bufferView":2,"byteOffset":17192,"componentType":5122,"count":26,"type":"VEC2","name":"part005_vertices#0_TEXCOORD_0"},{"bufferView":2,"byteOffset":17196,"componentType":5122,"count":26,"type":"VEC2","name":"part005_vertices#0_TEXCOORD_1"},{"bufferView":2,"byteOffset":17200,"componentType":5123,"count":26,"type":"VEC4","name":"part005_vertices#0_COLOR_0"},{"bufferView":3,"byteOffset":2478,"componentType":5123,"count":36,"type":"SCALAR","name":"part005_indices#0"}],"animations":[{"name":"engine0","channels":[{"sampler":0,"target":{"node":11,"path":"rotation"}},{"sampler":1,"target":{"node":14,"path":"rotation"}},{"sampler":2,"target":{"node":17,"path":"rotation"}},{"sampler":3,"target":{"node":20,"path":"rotation"}}],"samplers":[{"input":0,"output":1,"interpolation":"LINEAR"},{"input":2,"output":3,"interpolation":"LINEAR"},{"input":4,"output":5,"interpolation":"LINEAR"},{"input":6,"output":7,"interpolation":"LINEAR"}]},{"name":"elevator","channels":[{"sampler":0,"target":{"node":22,"path":"rotation"}}],"samplers":[{"input":8,"output":9,"interpolation":"LINEAR"}]}],"asset":{"generator":"ModelConverterX","version":"2.0","extensions":{"ASOBO_asset_optimized":{"BoundingBoxMax":[5.322380065917969,1.4606499671936036,2.1289501190185549],"BoundingBoxMin":[-5.278359889984131,-1.3165899515151978,-4.98622989654541],"MajorVersion":4,"MinorVersion":4,"UseCheckerboardMaterialForMissingTextures":true,"UseOnlyFilenameForImageURI":true}}},"bufferViews":[{"buffer":0,"byteLength":92,"byteStride":4},{"buffer":0,"byteLength":368,"byteStride":16,"byteOffset":92},{"buffer":0,"byteLength":18108,"byteStride":36,"byteOffset":460,"target":34962,"name":"BufferViewVertexND"},{"buffer":0,"byteLength":2550,"byteOffset":18568,"target":34963,"name":"BufferViewIndex"}],"extensionsRequired":["MSFT_texture_dds"],"materials":[{"name":"material00","emissiveTexture":{"index":1},"emissiveFactor":[0.019607843831181527,0.019607843831181527,0.019607843831181527],"pbrMetallicRoughness":{"metallicFactor":0.0,"baseColorTexture":{"index":0}}}],"meshes":[{"primitives":[{"attributes":{"COLOR_0":15,"NORMAL":12,"POSITION":10,"TANGENT":11,"TEXCOORD_0":13,"TEXCOORD_1":14},"indices":16,"material":0,"mode":4,"extras":{"ASOBO_primitive":{"PrimitiveCount":397,"VertexType":"VTX","VertexVersion":2}}}],"name":"part000"},{"primitives":[{"attributes":{"COLOR_0":22,"NORMAL":19,"POSITION":17,"TANGENT":18,"TEXCOORD_0":20,"TEXCOORD_1":21},"indices":23,"material":0,"mode":4,"extras":{"ASOBO_primitive":{"PrimitiveCount":4,"VertexType":"VTX","VertexVersion":2}}}],"name":"part001"},{"primitives":[{"attributes":{"COLOR_0":29,"NORMAL":26,"POSITION":24,"TANGENT":25,"TEXCOORD_0":27,"TEXCOORD_1":28},"indices":30,"material":0,"mode":4,"extras":{"ASOBO_primitive":{"PrimitiveCount":4,"VertexType":"VTX","VertexVersion":2}}}],"name":"part002"},{"primitives":[{"attributes":{"COLOR_0":36,"NORMAL":33,"POSITION":31,"TANGENT":32,"TEXCOORD_0":34,"TEXCOORD_1":35},"indices":37,"material":0,"mode":4,"extras":{"ASOBO_primitive":{"PrimitiveCount":4,"VertexType":"VTX","VertexVersion":2}}}],"name":"part003"},{"primitives":[{"attributes":{"COLOR_0":43,"NORMAL":40,"POSITION":38,"TANGENT":39,"TEXCOORD_0":41,"TEXCOORD_1":42},"indices":44,"material":0,"mode":4,"extras":{"ASOBO_primitive":{"PrimitiveCount":4,"VertexType":"VTX","VertexVersion":2}}}],"name":"part004"},{"primitives":[{"attributes":{"COLOR_0":50,"NORMAL":47,"POSITION":45,"TANGENT":46,"TEXCOORD_0":48,"TEXCOORD_1":49},"indices":51,"material":0,"mode":4,"extras":{"ASOBO_primitive":{"PrimitiveCount":12,"VertexType":"VTX","VertexVersion":2}}}],"name":"part005"}],"nodes":[{"name":"node_0","children":[1,2,3,4,5,6,7,8]},{"mesh":0,"name":"node_4"},{"translation":[6.123031769111886e-16,0.0,-5.0],"rotation":[-6.123031769111886e-17,3.061515884555943e-17,1.0,1.874575902277672e-33],"scale":[1.0,1.0,1.0],"name":"contrail1"},{"translation":[-2.1797992747675628e-16,-0.43999999761581429,1.7799999713897706],"rotation":[-0.7071067811865475,0.0,0.0,0.7071067811865475],"scale":[1.0,1.0,1.0],"name":"Landing_Light"},{"translation":[-2.1675532229080953e-16,-0.43999999761581429,1.7699999809265137],"rotation":[-0.7071067811865475,0.0,0.0,0.7071067811865475],"scale":[1.0,1.0,1.0],"name":"Taxi_Light"},{"translation":[-1.3470670184015055e-16,-1.350000023841858,1.100000023841858],"rotation":[-6.123031769111886e-17,3.061515884555943e-17,1.0,1.874575902277672e-33],"scale":[1.0,1.0,1.0],"name":"c_tire1"},{"translation":[1.5,-1.25,-0.7499999999999999],"rotation":[-6.123031769111886e-17,3.061515884555943e-17,1.0,1.874575902277672e-33],"scale":[1.0,1.0,1.0],"name":"l_tire1"},{"translation":[-1.5,-1.25,-0.7500000000000001],"rotation":[-6.123031769111886e-17,3.061515884555943e-17,1.0,1.874575902277672e-33],"scale":[1.0,1.0,1.0],"name":"r_tire1"},{"translation":[0.0,0.0,0.0],"rotation":[-4.329637285359677e-17,0.7071067811865475,0.7071067811865475,4.329637285359677e-17],"scale":[1.0,1.0,1.0],"name":"node_19","children":[9,12,15,18,21]},{"translation":[-0.008812000043690205,1.8797990083694456,-0.15196500718593596],"rotation":[-0.16531465653819328,0.6890015310984574,-0.6875146246600237,-0.1589935654233251],"scale":[1.0,1.0,1.0],"name":"node_20","children":[10]},{"name":"node_21","children":[11]},{"mesh":1,"name":"engine0_AN_21"},{"translation":[-0.0067170001566410069,1.8798480033874512,-0.14739400148391725],"rotation":[0.6813830101014666,0.1889899297451179,-0.1889899297451179,0.6813830101014666],"scale":[1.0,1.0,1.0],"name":"node_26","children":[13]},{"name":"node_27","children":[14]},{"mesh":2,"name":"engine0_AN_27"},{"translation":[-0.006856999825686216,1.8797990083694456,-0.14634700119495393],"rotation":[0.6911341379164488,0.14374571557047448,-0.15003480509912038,0.6922430444775176],"scale":[1.0,1.0,1.0],"name":"node_32","children":[16]},{"name":"node_33","children":[17]},{"mesh":3,"name":"engine0_AN_33"},{"translation":[-0.004885000176727772,1.8798480033874512,-0.14849300682544709],"rotation":[0.2008684853874897,-0.6779762913097595,0.6779762913097595,0.2008684853874897],"scale":[1.0,1.0,1.0],"name":"node_38","children":[19]},{"name":"node_39","children":[20]},{"mesh":4,"name":"engine0_AN_39"},{"translation":[0.06102700158953667,-4.535030841827393,-0.03801700100302696],"rotation":[0.0,0.0,0.0,1.0],"scale":[1.0,1.0,1.0],"name":"node_72","children":[22]},{"mesh":5,"name":"elevator_AN_72"}],"scene":0,"scenes":[{"nodes":[0]}],"textures":[{"extensions":{"MSFT_texture_dds":{"source":0}}},{"extensions":{"MSFT_texture_dds":{"source":1}}}],"extensionsUsed":["MSFT_texture_dds","ASOBO_asset_optimized"],"buffers":[{"byteLength":21118,"uri":"ANAI_Piper_Warrior_F_MSFS_LOD4.bin"}],"images":[{"uri":"AI_WARRIOR_T.PNG.DDS","extras":"ASOBO_image_converted_meta"},{"uri":"AI_WARRIOR_L.PNG.DDS","extras":"ASOBO_image_converted_meta"}]}
