{"accessors":[{"bufferView":0,"componentType":5126,"count":2,"min":[0.0],"max":[100.0],"type":"SCALAR"},{"bufferView":1,"componentType":5126,"count":2,"type":"VEC4"},{"bufferView":2,"componentType":5126,"count":228,"min":[-7.554780006408691,-0.4657000005245209,-7.217130184173584],"max":[7.554780006408691,3.114490032196045,3.631730079650879],"type":"VEC3","name":"part000_vertices#0_POSITION"},{"bufferView":2,"byteOffset":12,"componentType":5120,"count":228,"type":"VEC4","name":"part000_vertices#0_TANGENT"},{"bufferView":2,"byteOffset":16,"componentType":5120,"count":228,"type":"VEC4","name":"part000_vertices#0_NORMAL"},{"bufferView":2,"byteOffset":20,"componentType":5122,"count":228,"type":"VEC2","name":"part000_vertices#0_TEXCOORD_0"},{"bufferView":2,"byteOffset":24,"componentType":5122,"count":228,"type":"VEC2","name":"part000_vertices#0_TEXCOORD_1"},{"bufferView":2,"byteOffset":28,"componentType":5123,"count":228,"type":"VEC4","name":"part000_vertices#0_COLOR_0"},{"bufferView":3,"componentType":5123,"count":660,"type":"SCALAR","name":"part000_indices#0"},{"bufferView":2,"byteOffset":8208,"componentType":5126,"count":36,"min":[-2.911259889602661,-0.5291000008583069,1.963089942932129],"max":[2.911259889602661,-0.017069999128580095,2.4713099002838136],"type":"VEC3","name":"part001_vertices#0_POSITION"},{"bufferView":2,"byteOffset":8220,"componentType":5120,"count":36,"type":"VEC4","name":"part001_vertices#0_TANGENT"},{"bufferView":2,"byteOffset":8224,"componentType":5120,"count":36,"type":"VEC4","name":"part001_vertices#0_NORMAL"},{"bufferView":2,"byteOffset":8228,"componentType":5122,"count":36,"type":"VEC2","name":"part001_vertices#0_TEXCOORD_0"},{"bufferView":2,"byteOffset":8232,"componentType":5122,"count":36,"type":"VEC2","name":"part001_vertices#0_TEXCOORD_1"},{"bufferView":2,"byteOffset":8236,"componentType":5123,"count":36,"type":"VEC4","name":"part001_vertices#0_COLOR_0"},{"bufferView":3,"byteOffset":1320,"componentType":5123,"count":84,"type":"SCALAR","name":"part001_indices#0"},{"bufferView":2,"byteOffset":9504,"componentType":5126,"count":8,"min":[-0.04267000034451485,-0.022509999573230745,-0.6944299936294556],"max":[0.04267000034451485,0.026559999212622644,-0.07664000242948532],"type":"VEC3","name":"part002_vertices#0_POSITION"},{"bufferView":2,"byteOffset":9516,"componentType":5120,"count":8,"type":"VEC4","name":"part002_vertices#0_TANGENT"},{"bufferView":2,"byteOffset":9520,"componentType":5120,"count":8,"type":"VEC4","name":"part002_vertices#0_NORMAL"},{"bufferView":2,"byteOffset":9524,"componentType":5122,"count":8,"type":"VEC2","name":"part002_vertices#0_TEXCOORD_0"},{"bufferView":2,"byteOffset":9528,"componentType":5122,"count":8,"type":"VEC2","name":"part002_vertices#0_TEXCOORD_1"},{"bufferView":2,"byteOffset":9532,"componentType":5123,"count":8,"type":"VEC4","name":"part002_vertices#0_COLOR_0"},{"bufferView":3,"byteOffset":1488,"componentType":5123,"count":12,"type":"SCALAR","name":"part002_indices#0"}],"animations":[{"name":"c_gear","channels":[{"sampler":0,"target":{"node":11,"path":"rotation"}}],"samplers":[{"input":0,"output":1,"interpolation":"LINEAR"}]}],"asset":{"generator":"ModelConverterX","version":"2.0","extensions":{"ASOBO_asset_optimized":{"BoundingBoxMax":[7.554780006408691,3.114490032196045,3.631730079650879],"BoundingBoxMin":[-7.554780006408691,-0.5291000008583069,-7.217130184173584],"MajorVersion":4,"MinorVersion":4,"UseCheckerboardMaterialForMissingTextures":true,"UseOnlyFilenameForImageURI":true}}},"bufferViews":[{"buffer":0,"byteLength":8,"byteStride":4},{"buffer":0,"byteLength":32,"byteStride":16,"byteOffset":8},{"buffer":0,"byteLength":9792,"byteStride":36,"byteOffset":40,"target":34962,"name":"BufferViewVertexND"},{"buffer":0,"byteLength":1512,"byteOffset":9832,"target":34963,"name":"BufferViewIndex"}],"extensionsRequired":["MSFT_texture_dds"],"materials":[{"name":"material00","emissiveTexture":{"index":1},"emissiveFactor":[0.019607843831181527,0.019607843831181527,0.019607843831181527],"pbrMetallicRoughness":{"metallicFactor":0.0,"baseColorTexture":{"index":0}},"extensions":{"ASOBO_material_day_night_switch":{}}},{"name":"material01","occlusionTexture":{"index":2},"emissiveTexture":{"index":1},"emissiveFactor":[0.019607843831181527,0.019607843831181527,0.019607843831181527],"pbrMetallicRoughness":{"baseColorTexture":{"index":0},"metallicRoughnessTexture":{"index":2}},"extensions":{"ASOBO_material_day_night_switch":{}}},{"name":"material02","pbrMetallicRoughness":{"baseColorFactor":[0.03921600058674812,0.03921600058674812,0.03921600058674812,1.0],"metallicFactor":0.0}}],"meshes":[{"primitives":[{"attributes":{"COLOR_0":7,"NORMAL":4,"POSITION":2,"TANGENT":3,"TEXCOORD_0":5,"TEXCOORD_1":6},"indices":8,"material":0,"mode":4,"extras":{"ASOBO_primitive":{"PrimitiveCount":220,"VertexType":"VTX","VertexVersion":2}}}],"name":"part000"},{"primitives":[{"attributes":{"COLOR_0":14,"NORMAL":11,"POSITION":9,"TANGENT":10,"TEXCOORD_0":12,"TEXCOORD_1":13},"indices":15,"material":2,"mode":4,"extras":{"ASOBO_primitive":{"PrimitiveCount":28,"VertexType":"VTX","VertexVersion":2}}}],"name":"part001"},{"primitives":[{"attributes":{"COLOR_0":21,"NORMAL":18,"POSITION":16,"TANGENT":17,"TEXCOORD_0":19,"TEXCOORD_1":20},"indices":22,"material":1,"mode":4,"extras":{"ASOBO_primitive":{"PrimitiveCount":4,"VertexType":"VTX","VertexVersion":2}}}],"name":"part002"}],"nodes":[{"name":"node_0","children":[1,2,3,4,5,6,7,8]},{"mesh":0,"name":"node_1"},{"mesh":1,"name":"node_2"},{"translation":[2.599999904632569,0.0,-2.0],"rotation":[-6.123031769111886e-17,3.061515884555943e-17,1.0,1.874575902277672e-33],"scale":[1.0,1.0,1.0],"name":"contrail1"},{"translation":[-2.599999904632568,0.0,-2.0000000000000006],"rotation":[-6.123031769111886e-17,3.061515884555943e-17,1.0,1.874575902277672e-33],"scale":[1.0,1.0,1.0],"name":"contrail2"},{"translation":[-3.9187403906253888e-16,-1.2999999523162842,3.200000047683716],"rotation":[-6.123031769111886e-17,3.061515884555943e-17,1.0,1.874575902277672e-33],"scale":[1.0,1.0,1.0],"name":"c_tire1"},{"translation":[2.5999999046325685,-1.25,-0.6999999880790707],"rotation":[-6.123031769111886e-17,3.061515884555943e-17,1.0,1.874575902277672e-33],"scale":[1.0,1.0,1.0],"name":"l_tire1"},{"translation":[-2.5999999046325685,-1.25,-0.6999999880790714],"rotation":[-6.123031769111886e-17,3.061515884555943e-17,1.0,1.874575902277672e-33],"scale":[1.0,1.0,1.0],"name":"r_tire1"},{"translation":[0.0,0.0,0.0],"rotation":[-4.329637285359677e-17,0.7071067811865475,0.7071067811865475,4.329637285359677e-17],"scale":[1.0,1.0,1.0],"name":"node_28","children":[9]},{"translation":[0.0,3.1465539932250978,0.1673250049352646],"rotation":[0.0,0.0,0.0,1.0],"scale":[1.0,1.0,1.0],"name":"node_61","children":[10]},{"name":"node_62","children":[11]},{"mesh":2,"name":"c_gear_AN_62","children":[12,14,17]},{"translation":[0.09000000357627869,0.130963996052742,-0.4132780134677887],"rotation":[0.669130410826882,0.0,0.0,0.74314500153513],"scale":[1.0,1.0,1.0],"name":"node_66","children":[13]},{"translation":[0.0,0.0,0.0],"rotation":[0.7071067811865475,0.0,0.0,0.7071067811865475],"scale":[1.0,1.0,1.0],"name":"landing_r"},{"translation":[0.0,0.11632999777793884,-0.552511990070343],"rotation":[0.669130410826882,0.0,0.0,0.74314500153513],"scale":[1.0,1.0,1.0],"name":"node_68","children":[15,16]},{"translation":[0.0,0.0,0.0],"rotation":[0.7071067811865475,0.0,0.0,0.7071067811865475],"scale":[1.0,1.0,1.0],"name":"landing_c"},{"translation":[0.0,0.0,0.0],"rotation":[0.7071067811865475,0.0,0.0,0.7071067811865475],"scale":[1.0,1.0,1.0],"name":"taxi"},{"translation":[-0.09000000357627869,0.130963996052742,-0.4132780134677887],"rotation":[0.669130410826882,0.0,0.0,0.74314500153513],"scale":[1.0,1.0,1.0],"name":"node_71","children":[18]},{"translation":[0.0,0.0,0.0],"rotation":[0.7071067811865475,0.0,0.0,0.7071067811865475],"scale":[1.0,1.0,1.0],"name":"landing_l"}],"scene":0,"scenes":[{"nodes":[0]}],"textures":[{"extensions":{"MSFT_texture_dds":{"source":0}}},{"extensions":{"MSFT_texture_dds":{"source":1}}},{"extensions":{"MSFT_texture_dds":{"source":2}}}],"extensionsUsed":["ASOBO_material_day_night_switch","MSFT_texture_dds","ASOBO_asset_optimized"],"buffers":[{"byteLength":11344,"uri":"HTAI Beechcraft King Air C90 3Blade20Fin MSFS_LOD7.bin"}],"images":[{"uri":"C90.PNG.DDS","extras":"ASOBO_image_converted_meta"},{"uri":"CABIN_LIGHTS.PNG.DDS","extras":"ASOBO_image_converted_meta"},{"uri":"C90_C.PNG.DDS","extras":"ASOBO_image_converted_meta"}]}
