{"accessors":[{"bufferView":0,"componentType":5126,"count":100,"min":[-9.400030136108399,-0.7354900240898132,-9.768839836120606],"max":[9.387840270996094,4.727439880371094,10.7920503616333],"type":"VEC3","name":"part000_vertices#0_POSITION"},{"bufferView":0,"byteOffset":12,"componentType":5120,"count":100,"type":"VEC4","name":"part000_vertices#0_TANGENT"},{"bufferView":0,"byteOffset":16,"componentType":5120,"count":100,"type":"VEC4","name":"part000_vertices#0_NORMAL"},{"bufferView":0,"byteOffset":20,"componentType":5122,"count":100,"type":"VEC2","name":"part000_vertices#0_TEXCOORD_0"},{"bufferView":0,"byteOffset":24,"componentType":5122,"count":100,"type":"VEC2","name":"part000_vertices#0_TEXCOORD_1"},{"bufferView":0,"byteOffset":28,"componentType":5123,"count":100,"type":"VEC4","name":"part000_vertices#0_COLOR_0"},{"bufferView":1,"componentType":5123,"count":132,"type":"SCALAR","name":"part000_indices#0"}],"asset":{"generator":"ModelConverterX","version":"2.0","extensions":{"ASOBO_asset_optimized":{"BoundingBoxMax":[9.387840270996094,4.727439880371094,10.7920503616333],"BoundingBoxMin":[-9.400030136108399,-0.7354900240898132,-9.768839836120606],"MajorVersion":4,"MinorVersion":4,"UseCheckerboardMaterialForMissingTextures":true,"UseOnlyFilenameForImageURI":true}}},"bufferViews":[{"buffer":0,"byteLength":3600,"byteStride":36,"target":34962,"name":"BufferViewVertexND"},{"buffer":0,"byteLength":264,"byteOffset":3600,"target":34963,"name":"BufferViewIndex"}],"extensionsRequired":["MSFT_texture_dds"],"materials":[{"name":"material00","emissiveTexture":{"index":1},"emissiveFactor":[0.019607843831181527,0.019607843831181527,0.019607843831181527],"pbrMetallicRoughness":{"metallicFactor":0.0,"baseColorTexture":{"index":0}},"extensions":{"ASOBO_material_day_night_switch":{}}}],"meshes":[{"primitives":[{"attributes":{"COLOR_0":5,"NORMAL":2,"POSITION":0,"TANGENT":1,"TEXCOORD_0":3,"TEXCOORD_1":4},"indices":6,"material":0,"mode":4,"extras":{"ASOBO_primitive":{"PrimitiveCount":44,"VertexType":"VTX","VertexVersion":2}}}],"name":"part000"}],"nodes":[{"name":"node_0","children":[1,2,3,4,5,6,7,8,9,10,11,12,13,14,15]},{"mesh":0,"name":"custom_vis_parts_visible_00_mcx_VC"},{"translation":[-0.9999999999999997,0.5799999833106995,-2.6600000858306886],"rotation":[0.10442916752099184,-0.043380456371793638,0.9935753090542984,0.004559542343761672],"scale":[1.0,1.0,1.0],"name":"APU"},{"translation":[-1.6299999952316285,-1.6200000047683716,0.4999999999999998],"rotation":[-6.123031769111886e-17,0.0,1.0,0.0],"scale":[1.0,1.0,1.0],"name":"r_tire1"},{"translation":[1.6299999952316285,-1.6200000047683716,0.5000000000000002],"rotation":[-6.123031769111886e-17,0.0,1.0,0.0],"scale":[1.0,1.0,1.0],"name":"l_tire1"},{"translation":[-1.0409154007490209e-15,-1.6200000047683716,8.5],"rotation":[-6.123031769111886e-17,0.0,1.0,0.0],"scale":[1.0,1.0,1.0],"name":"c_tire1"},{"translation":[-2.1199998855590818,1.2200000286102296,-4.300000190734863],"rotation":[-6.123031769111886e-17,0.0,1.0,0.0],"scale":[1.0,1.0,1.0],"name":"contrail2"},{"translation":[0.1500000059604632,-0.3499999940395355,10.4399995803833],"rotation":[-0.7071067811865475,-4.329637285359677e-17,-4.329637285359677e-17,0.7071067811865475],"scale":[1.0,1.0,1.0],"name":"landing_nose_l"},{"translation":[-0.15000000596046576,-0.3499999940395355,10.4399995803833],"rotation":[-0.7071067811865475,-4.329637285359677e-17,-4.329637285359677e-17,0.7071067811865475],"scale":[1.0,1.0,1.0],"name":"landing_nose_r"},{"translation":[1.830000042915344,-0.5600000023841858,3.599999904632569],"rotation":[-0.7071067811865475,-4.329637285359677e-17,-4.329637285359677e-17,0.7071067811865475],"scale":[1.0,1.0,1.0],"name":"landing_l"},{"translation":[-1.779999971389771,-0.5600000023841858,3.5999999046325685],"rotation":[-0.7071067811865475,-4.329637285359677e-17,-4.329637285359677e-17,0.7071067811865475],"scale":[1.0,1.0,1.0],"name":"landing_r"},{"translation":[-1.3500000238418577,1.0900000333786014,-3.0999999046325685],"rotation":[0.10557434728503372,0.4108438048937349,0.8573598061765391,0.2915400280042267],"scale":[1.0000000000000003,1.0,1.0],"name":"logo_r"},{"translation":[-0.15000000596046576,-0.3499999940395355,10.4399995803833],"rotation":[-0.6631584054460153,-0.14241244450414076,-0.10527128192078528,0.72722594708341],"scale":[1.0,1.0,1.0],"name":"taxi_r"},{"translation":[0.1500000059604632,-0.3499999940395355,10.4399995803833],"rotation":[-0.6631584054460153,0.14241244450414068,0.1052712819207852,0.72722594708341],"scale":[1.0,1.0,1.0],"name":"taxi_l"},{"translation":[1.3500000238418584,1.0900000333786014,-3.0999999046325685],"rotation":[-0.10564904962952168,0.41081825180499989,0.8573506808483872,-0.29157575548385269],"scale":[1.0,1.0,1.0],"name":"logo_l"},{"translation":[2.1199998855590826,1.2200000286102296,-4.300000190734863],"rotation":[-6.123031769111886e-17,0.0,1.0,0.0],"scale":[1.0,1.0,1.0],"name":"contrail1"}],"scene":0,"scenes":[{"nodes":[0]}],"textures":[{"extensions":{"MSFT_texture_dds":{"source":0}}},{"extensions":{"MSFT_texture_dds":{"source":1}}}],"extensionsUsed":["ASOBO_material_day_night_switch","MSFT_texture_dds","ASOBO_asset_optimized"],"buffers":[{"byteLength":3864,"uri":"JBAI Challenger 601 Standard Tail MSFS_LOD7.bin"}],"images":[{"uri":"JBAI_CL6.PNG.DDS","extras":"ASOBO_image_converted_meta"},{"uri":"JBAI_CL6_L.PNG.DDS","extras":"ASOBO_image_converted_meta"}]}
