{"accessors":[{"bufferView":0,"componentType":5126,"count":51,"min":[0.0],"max":[100.0],"type":"SCALAR"},{"bufferView":2,"componentType":5126,"count":51,"type":"VEC4"},{"bufferView":0,"byteOffset":204,"componentType":5126,"count":51,"min":[0.0],"max":[100.0],"type":"SCALAR"},{"bufferView":2,"byteOffset":816,"componentType":5126,"count":51,"type":"VEC4"},{"bufferView":0,"byteOffset":408,"componentType":5126,"count":2,"min":[0.0],"max":[100.0],"type":"SCALAR"},{"bufferView":1,"componentType":5126,"count":2,"type":"VEC3"},{"bufferView":0,"byteOffset":416,"componentType":5126,"count":42,"min":[0.0],"max":[100.0],"type":"SCALAR"},{"bufferView":2,"byteOffset":1632,"componentType":5126,"count":42,"type":"VEC4"},{"bufferView":0,"byteOffset":584,"componentType":5126,"count":42,"min":[0.0],"max":[100.0],"type":"SCALAR"},{"bufferView":2,"byteOffset":2304,"componentType":5126,"count":42,"type":"VEC4"},{"bufferView":3,"componentType":5126,"count":126,"min":[-14.064000129699707,-1.1360000371932984,-19.840009689331056],"max":[14.064000129699707,5.964000225067139,15.62399959564209],"type":"VEC3","name":"part000_vertices#0_POSITION"},{"bufferView":3,"byteOffset":12,"componentType":5120,"count":126,"type":"VEC4","name":"part000_vertices#0_TANGENT"},{"bufferView":3,"byteOffset":16,"componentType":5120,"count":126,"type":"VEC4","name":"part000_vertices#0_NORMAL"},{"bufferView":3,"byteOffset":20,"componentType":5122,"count":126,"type":"VEC2","name":"part000_vertices#0_TEXCOORD_0"},{"bufferView":3,"byteOffset":24,"componentType":5122,"count":126,"type":"VEC2","name":"part000_vertices#0_TEXCOORD_1"},{"bufferView":3,"byteOffset":28,"componentType":5123,"count":126,"type":"VEC4","name":"part000_vertices#0_COLOR_0"},{"bufferView":4,"componentType":5123,"count":216,"type":"SCALAR","name":"part000_indices#0"},{"bufferView":3,"byteOffset":4536,"componentType":5126,"count":8,"min":[0.0867300033569336,-2.2730801105499269,0.786270022392273],"max":[0.610729992389679,-0.4330799877643585,2.262279987335205],"type":"VEC3","name":"part001_vertices#0_POSITION"},{"bufferView":3,"byteOffset":4548,"componentType":5120,"count":8,"type":"VEC4","name":"part001_vertices#0_TANGENT"},{"bufferView":3,"byteOffset":4552,"componentType":5120,"count":8,"type":"VEC4","name":"part001_vertices#0_NORMAL"},{"bufferView":3,"byteOffset":4556,"componentType":5122,"count":8,"type":"VEC2","name":"part001_vertices#0_TEXCOORD_0"},{"bufferView":3,"byteOffset":4560,"componentType":5122,"count":8,"type":"VEC2","name":"part001_vertices#0_TEXCOORD_1"},{"bufferView":3,"byteOffset":4564,"componentType":5123,"count":8,"type":"VEC4","name":"part001_vertices#0_COLOR_0"},{"bufferView":4,"byteOffset":432,"componentType":5123,"count":12,"type":"SCALAR","name":"part001_indices#0"},{"bufferView":3,"byteOffset":4824,"componentType":5126,"count":8,"min":[-0.6094499826431274,-2.2730801105499269,0.786270022392273],"max":[-0.08545000106096268,-0.4330799877643585,2.262279987335205],"type":"VEC3","name":"part002_vertices#0_POSITION"},{"bufferView":3,"byteOffset":4836,"componentType":5120,"count":8,"type":"VEC4","name":"part002_vertices#0_TANGENT"},{"bufferView":3,"byteOffset":4840,"componentType":5120,"count":8,"type":"VEC4","name":"part002_vertices#0_NORMAL"},{"bufferView":3,"byteOffset":4844,"componentType":5122,"count":8,"type":"VEC2","name":"part002_vertices#0_TEXCOORD_0"},{"bufferView":3,"byteOffset":4848,"componentType":5122,"count":8,"type":"VEC2","name":"part002_vertices#0_TEXCOORD_1"},{"bufferView":3,"byteOffset":4852,"componentType":5123,"count":8,"type":"VEC4","name":"part002_vertices#0_COLOR_0"},{"bufferView":4,"byteOffset":456,"componentType":5123,"count":12,"type":"SCALAR","name":"part002_indices#0"},{"bufferView":3,"byteOffset":5112,"componentType":5126,"count":22,"min":[-3.131999969482422,-0.007449999917298555,-0.917389988899231],"max":[3.131999969482422,0.6405500173568726,0.13061000406742097],"type":"VEC3","name":"part003_vertices#0_POSITION"},{"bufferView":3,"byteOffset":5124,"componentType":5120,"count":22,"type":"VEC4","name":"part003_vertices#0_TANGENT"},{"bufferView":3,"byteOffset":5128,"componentType":5120,"count":22,"type":"VEC4","name":"part003_vertices#0_NORMAL"},{"bufferView":3,"byteOffset":5132,"componentType":5122,"count":22,"type":"VEC2","name":"part003_vertices#0_TEXCOORD_0"},{"bufferView":3,"byteOffset":5136,"componentType":5122,"count":22,"type":"VEC2","name":"part003_vertices#0_TEXCOORD_1"},{"bufferView":3,"byteOffset":5140,"componentType":5123,"count":22,"type":"VEC4","name":"part003_vertices#0_COLOR_0"},{"bufferView":4,"byteOffset":480,"componentType":5123,"count":30,"type":"SCALAR","name":"part003_indices#0"},{"bufferView":3,"byteOffset":5904,"componentType":5126,"count":22,"min":[-3.131999969482422,-0.714900016784668,-0.9165999889373779],"max":[3.131999969482422,-0.006899999920278788,0.131400004029274],"type":"VEC3","name":"part004_vertices#0_POSITION"},{"bufferView":3,"byteOffset":5916,"componentType":5120,"count":22,"type":"VEC4","name":"part004_vertices#0_TANGENT"},{"bufferView":3,"byteOffset":5920,"componentType":5120,"count":22,"type":"VEC4","name":"part004_vertices#0_NORMAL"},{"bufferView":3,"byteOffset":5924,"componentType":5122,"count":22,"type":"VEC2","name":"part004_vertices#0_TEXCOORD_0"},{"bufferView":3,"byteOffset":5928,"componentType":5122,"count":22,"type":"VEC2","name":"part004_vertices#0_TEXCOORD_1"},{"bufferView":3,"byteOffset":5932,"componentType":5123,"count":22,"type":"VEC4","name":"part004_vertices#0_COLOR_0"},{"bufferView":4,"byteOffset":540,"componentType":5123,"count":30,"type":"SCALAR","name":"part004_indices#0"}],"animations":[{"name":"AIA_Fokker_TailSpeedBrake","channels":[{"sampler":0,"target":{"node":16,"path":"rotation"}},{"sampler":1,"target":{"node":18,"path":"rotation"}}],"samplers":[{"input":0,"output":1,"interpolation":"LINEAR"},{"input":2,"output":3,"interpolation":"LINEAR"}]},{"name":"custom_anim_REV_THRUST","channels":[{"sampler":0,"target":{"node":20,"path":"translation"}},{"sampler":1,"target":{"node":22,"path":"rotation"}},{"sampler":2,"target":{"node":24,"path":"rotation"}}],"samplers":[{"input":4,"output":5,"interpolation":"LINEAR"},{"input":6,"output":7,"interpolation":"LINEAR"},{"input":8,"output":9,"interpolation":"LINEAR"}]}],"asset":{"generator":"ModelConverterX","version":"2.0","extensions":{"ASOBO_asset_optimized":{"BoundingBoxMax":[14.064000129699707,5.964000225067139,15.62399959564209],"BoundingBoxMin":[-14.064000129699707,-2.2730801105499269,-19.840009689331056],"MajorVersion":4,"MinorVersion":4,"UseCheckerboardMaterialForMissingTextures":true,"UseOnlyFilenameForImageURI":true}}},"bufferViews":[{"buffer":0,"byteLength":752,"byteStride":4},{"buffer":0,"byteLength":24,"byteStride":12,"byteOffset":752},{"buffer":0,"byteLength":2976,"byteStride":16,"byteOffset":776},{"buffer":0,"byteLength":6696,"byteStride":36,"byteOffset":3752,"target":34962,"name":"BufferViewVertexND"},{"buffer":0,"byteLength":600,"byteOffset":10448,"target":34963,"name":"BufferViewIndex"}],"extensionsRequired":["MSFT_texture_dds"],"materials":[{"name":"material00","emissiveTexture":{"index":1},"emissiveFactor":[0.019607843831181527,0.019607843831181527,0.019607843831181527],"pbrMetallicRoughness":{"metallicFactor":0.0,"baseColorTexture":{"index":0}},"extensions":{"ASOBO_material_day_night_switch":{}}}],"meshes":[{"primitives":[{"attributes":{"COLOR_0":15,"NORMAL":12,"POSITION":10,"TANGENT":11,"TEXCOORD_0":13,"TEXCOORD_1":14},"indices":16,"material":0,"mode":4,"extras":{"ASOBO_primitive":{"PrimitiveCount":72,"VertexType":"VTX","VertexVersion":2}}}],"name":"part000"},{"primitives":[{"attributes":{"COLOR_0":22,"NORMAL":19,"POSITION":17,"TANGENT":18,"TEXCOORD_0":20,"TEXCOORD_1":21},"indices":23,"material":0,"mode":4,"extras":{"ASOBO_primitive":{"PrimitiveCount":4,"VertexType":"VTX","VertexVersion":2}}}],"name":"part001"},{"primitives":[{"attributes":{"COLOR_0":29,"NORMAL":26,"POSITION":24,"TANGENT":25,"TEXCOORD_0":27,"TEXCOORD_1":28},"indices":30,"material":0,"mode":4,"extras":{"ASOBO_primitive":{"PrimitiveCount":4,"VertexType":"VTX","VertexVersion":2}}}],"name":"part002"},{"primitives":[{"attributes":{"COLOR_0":36,"NORMAL":33,"POSITION":31,"TANGENT":32,"TEXCOORD_0":34,"TEXCOORD_1":35},"indices":37,"material":0,"mode":4,"extras":{"ASOBO_primitive":{"PrimitiveCount":10,"VertexType":"VTX","VertexVersion":2}}}],"name":"part003"},{"primitives":[{"attributes":{"COLOR_0":43,"NORMAL":40,"POSITION":38,"TANGENT":39,"TEXCOORD_0":41,"TEXCOORD_1":42},"indices":44,"material":0,"mode":4,"extras":{"ASOBO_primitive":{"PrimitiveCount":10,"VertexType":"VTX","VertexVersion":2}}}],"name":"part004"}],"nodes":[{"name":"node_0","children":[1,2,3,4,5,6,7,8,9,10,11,12,13,14]},{"mesh":0,"name":"node_6"},{"translation":[13.300000190734864,0.4000000059604645,-4.630000114440916],"rotation":[-0.6878263757499649,-0.03334527809919384,-0.028527813022017666,0.7245475373762149],"scale":[1.0,1.0,1.0],"name":"landing_wing_l"},{"translation":[-13.300000190734864,0.4000000059604645,-4.63000011444092],"rotation":[-0.6878263757499649,0.03334527809919375,0.028527813022017586,0.7245475373762149],"scale":[1.0,1.0,1.0],"name":"landing_wing_r"},{"translation":[0.1400000005960447,-0.5899999737739563,14.359999656677246],"rotation":[-0.7071067811865475,-4.329637285359677e-17,-4.329637285359677e-17,0.7071067811865475],"scale":[1.0,1.0,1.0],"name":"landing_nose_l"},{"translation":[0.1400000005960447,-0.5899999737739563,14.359999656677246],"rotation":[-0.6883545684682917,-4.441490360191629e-17,-4.214816891144653e-17,0.7253743778689952],"scale":[1.0,1.0,1.0],"name":"taxi_nose"},{"translation":[-8.15999984741211,0.119999997317791,-4.929999828338624],"rotation":[-0.1731494973368118,0.5408620536483307,0.7695776539955808,0.2919549408864621],"scale":[1.0,1.0,1.0],"name":"logo_r"},{"translation":[-2.4999999999999988,1.2000000476837159,-11.949999809265137],"rotation":[-6.123031769111886e-17,0.0,1.0,0.0],"scale":[1.0,1.0,1.0],"name":"contrail2"},{"translation":[2.5000000000000015,1.2000000476837159,-11.949999809265137],"rotation":[-6.123031769111886e-17,0.0,1.0,0.0],"scale":[1.0,1.0,1.0],"name":"contrail1"},{"translation":[-1.1000000238418564,1.7999999523162842,-11.899999618530272],"rotation":[0.12448500045173666,-0.2981330951303904,0.945557802924395,0.03925011602459079],"scale":[1.0,1.0,1.0],"name":"APU"},{"translation":[-2.400000095367431,-1.75,-3.099999904632569],"rotation":[-6.123031769111886e-17,0.0,1.0,0.0],"scale":[1.0,1.0,1.0],"name":"r_tire1"},{"translation":[2.400000095367432,-1.75,-3.099999904632568],"rotation":[-6.123031769111886e-17,0.0,1.0,0.0],"scale":[1.0,1.0,1.0],"name":"l_tire1"},{"translation":[-1.396051196642485e-15,-1.7000000476837159,11.399999618530272],"rotation":[-6.123031769111886e-17,0.0,1.0,0.0],"scale":[1.0,1.0,1.0],"name":"c_tire1"},{"translation":[8.15999984741211,0.119999997317791,-4.929999828338622],"rotation":[0.1731494973368117,0.5408620536483307,0.7695776539955808,-0.291954940886462],"scale":[1.0,1.0,1.0],"name":"logo_l"},{"translation":[0.0,0.0,0.0],"rotation":[-4.329637285359677e-17,0.7071067811865475,0.7071067811865475,4.329637285359677e-17],"scale":[1.0,1.0,1.0],"name":"node_19","children":[15,17,19,23]},{"translation":[-0.610729992389679,-14.666919708251952,-0.07027500122785568],"rotation":[0.0,0.0,0.0,1.0],"scale":[1.0,1.0,1.0],"name":"node_20","children":[16]},{"mesh":1,"name":"AIA_Fokker_TailSpeedBrake_AN_20"},{"translation":[0.609453022480011,-14.666919708251952,-0.07027500122785568],"rotation":[0.0,0.0,0.0,1.0],"scale":[1.0,1.0,1.0],"name":"node_25","children":[18]},{"mesh":2,"name":"AIA_Fokker_TailSpeedBrake_AN_25"},{"translation":[0.0,-11.517379760742188,1.1914459466934205],"rotation":[0.0,0.0,0.0,1.0],"scale":[1.0,1.0,1.0],"name":"node_30","children":[20]},{"name":"custom_anim_REV_THRUST_AN_30","children":[21]},{"name":"node_31","children":[22]},{"mesh":3,"name":"custom_anim_REV_THRUST_AN_31"},{"translation":[0.0,-11.516599655151368,1.1909019947052003],"rotation":[0.0,0.0,0.0,1.0],"scale":[1.0,1.0,1.0],"name":"node_36","children":[24]},{"mesh":4,"name":"custom_anim_REV_THRUST_AN_36"}],"scene":0,"scenes":[{"nodes":[0]}],"textures":[{"extensions":{"MSFT_texture_dds":{"source":0}}},{"extensions":{"MSFT_texture_dds":{"source":1}}}],"extensionsUsed":["ASOBO_material_day_night_switch","MSFT_texture_dds","ASOBO_asset_optimized"],"buffers":[{"byteLength":11048,"uri":"AIA_Fokker_100_MSFS_LOD4.bin"}],"images":[{"uri":"AIA_FOKKER_100_T.PNG.DDS","extras":"ASOBO_image_converted_meta"},{"uri":"AIA_FOKKER_100_L.PNG.DDS","extras":"ASOBO_image_converted_meta"}]}
