{"accessors":[{"bufferView":0,"componentType":5126,"count":2,"min":[0.0],"max":[100.0],"type":"SCALAR"},{"bufferView":2,"componentType":5126,"count":2,"type":"VEC4"},{"bufferView":0,"byteOffset":8,"componentType":5126,"count":5,"min":[0.0],"max":[100.0],"type":"SCALAR"},{"bufferView":2,"byteOffset":32,"componentType":5126,"count":5,"type":"VEC4"},{"bufferView":0,"byteOffset":28,"componentType":5126,"count":4,"min":[0.0],"max":[100.0],"type":"SCALAR"},{"bufferView":1,"componentType":5126,"count":4,"type":"VEC3"},{"bufferView":0,"byteOffset":44,"componentType":5126,"count":4,"min":[0.0],"max":[100.0],"type":"SCALAR"},{"bufferView":2,"byteOffset":112,"componentType":5126,"count":4,"type":"VEC4"},{"bufferView":0,"byteOffset":60,"componentType":5126,"count":5,"min":[0.0],"max":[100.0],"type":"SCALAR"},{"bufferView":2,"byteOffset":176,"componentType":5126,"count":5,"type":"VEC4"},{"bufferView":0,"byteOffset":80,"componentType":5126,"count":3,"min":[0.0],"max":[100.0],"type":"SCALAR"},{"bufferView":1,"byteOffset":48,"componentType":5126,"count":3,"type":"VEC3"},{"bufferView":0,"byteOffset":92,"componentType":5126,"count":3,"min":[0.0],"max":[100.0],"type":"SCALAR"},{"bufferView":2,"byteOffset":256,"componentType":5126,"count":3,"type":"VEC4"},{"bufferView":0,"byteOffset":104,"componentType":5126,"count":3,"min":[0.0],"max":[100.0],"type":"SCALAR"},{"bufferView":1,"byteOffset":84,"componentType":5126,"count":3,"type":"VEC3"},{"bufferView":0,"byteOffset":116,"componentType":5126,"count":3,"min":[0.0],"max":[100.0],"type":"SCALAR"},{"bufferView":2,"byteOffset":304,"componentType":5126,"count":3,"type":"VEC4"},{"bufferView":0,"byteOffset":128,"componentType":5126,"count":3,"min":[0.0],"max":[100.0],"type":"SCALAR"},{"bufferView":1,"byteOffset":120,"componentType":5126,"count":3,"type":"VEC3"},{"bufferView":0,"byteOffset":140,"componentType":5126,"count":3,"min":[0.0],"max":[100.0],"type":"SCALAR"},{"bufferView":2,"byteOffset":352,"componentType":5126,"count":3,"type":"VEC4"},{"bufferView":0,"byteOffset":152,"componentType":5126,"count":3,"min":[0.0],"max":[100.0],"type":"SCALAR"},{"bufferView":1,"byteOffset":156,"componentType":5126,"count":3,"type":"VEC3"},{"bufferView":0,"byteOffset":164,"componentType":5126,"count":3,"min":[0.0],"max":[100.0],"type":"SCALAR"},{"bufferView":2,"byteOffset":400,"componentType":5126,"count":3,"type":"VEC4"},{"bufferView":0,"byteOffset":176,"componentType":5126,"count":4,"min":[0.0],"max":[100.0],"type":"SCALAR"},{"bufferView":1,"byteOffset":192,"componentType":5126,"count":4,"type":"VEC3"},{"bufferView":0,"byteOffset":192,"componentType":5126,"count":4,"min":[0.0],"max":[100.0],"type":"SCALAR"},{"bufferView":2,"byteOffset":448,"componentType":5126,"count":4,"type":"VEC4"},{"bufferView":0,"byteOffset":208,"componentType":5126,"count":5,"min":[0.0],"max":[100.0],"type":"SCALAR"},{"bufferView":2,"byteOffset":512,"componentType":5126,"count":5,"type":"VEC4"},{"bufferView":3,"componentType":5126,"count":154,"min":[-5.482999801635742,-0.6095600128173828,-6.120910167694092],"max":[5.482999801635742,1.504699945449829,1.9368799924850464],"type":"VEC3","name":"part000_vertices#0_POSITION"},{"bufferView":3,"byteOffset":12,"componentType":5120,"count":154,"type":"VEC4","name":"part000_vertices#0_TANGENT"},{"bufferView":3,"byteOffset":16,"componentType":5120,"count":154,"type":"VEC4","name":"part000_vertices#0_NORMAL"},{"bufferView":3,"byteOffset":20,"componentType":5122,"count":154,"type":"VEC2","name":"part000_vertices#0_TEXCOORD_0"},{"bufferView":3,"byteOffset":24,"componentType":5122,"count":154,"type":"VEC2","name":"part000_vertices#0_TEXCOORD_1"},{"bufferView":3,"byteOffset":28,"componentType":5123,"count":154,"type":"VEC4","name":"part000_vertices#0_COLOR_0"},{"bufferView":4,"componentType":5123,"count":381,"type":"SCALAR","name":"part000_indices#0"},{"bufferView":3,"byteOffset":5544,"componentType":5126,"count":20,"min":[-0.07649999856948853,-0.03596000000834465,-0.4766800105571747],"max":[0.07649999856948853,0.03627000004053116,-0.050289999693632129],"type":"VEC3","name":"part001_vertices#0_POSITION"},{"bufferView":3,"byteOffset":5556,"componentType":5120,"count":20,"type":"VEC4","name":"part001_vertices#0_TANGENT"},{"bufferView":3,"byteOffset":5560,"componentType":5120,"count":20,"type":"VEC4","name":"part001_vertices#0_NORMAL"},{"bufferView":3,"byteOffset":5564,"componentType":5122,"count":20,"type":"VEC2","name":"part001_vertices#0_TEXCOORD_0"},{"bufferView":3,"byteOffset":5568,"componentType":5122,"count":20,"type":"VEC2","name":"part001_vertices#0_TEXCOORD_1"},{"bufferView":3,"byteOffset":5572,"componentType":5123,"count":20,"type":"VEC4","name":"part001_vertices#0_COLOR_0"},{"bufferView":4,"byteOffset":762,"componentType":5123,"count":36,"type":"SCALAR","name":"part001_indices#0"},{"bufferView":3,"byteOffset":6264,"componentType":5126,"count":20,"min":[-0.050050001591444018,-0.17250999808311463,-0.1814900040626526],"max":[0.050050001591444018,0.17257000505924226,0.1813499927520752],"type":"VEC3","name":"part002_vertices#0_POSITION"},{"bufferView":3,"byteOffset":6276,"componentType":5120,"count":20,"type":"VEC4","name":"part002_vertices#0_TANGENT"},{"bufferView":3,"byteOffset":6280,"componentType":5120,"count":20,"type":"VEC4","name":"part002_vertices#0_NORMAL"},{"bufferView":3,"byteOffset":6284,"componentType":5122,"count":20,"type":"VEC2","name":"part002_vertices#0_TEXCOORD_0"},{"bufferView":3,"byteOffset":6288,"componentType":5122,"count":20,"type":"VEC2","name":"part002_vertices#0_TEXCOORD_1"},{"bufferView":3,"byteOffset":6292,"componentType":5123,"count":20,"type":"VEC4","name":"part002_vertices#0_COLOR_0"},{"bufferView":4,"byteOffset":834,"componentType":5123,"count":48,"type":"SCALAR","name":"part002_indices#0"},{"bufferView":3,"byteOffset":6984,"componentType":5126,"count":16,"min":[-0.8131300210952759,-0.04380999878048897,-0.5210800170898438],"max":[0.13515999913215638,0.3597699999809265,-0.06996999680995941],"type":"VEC3","name":"part003_vertices#0_POSITION"},{"bufferView":3,"byteOffset":6996,"componentType":5120,"count":16,"type":"VEC4","name":"part003_vertices#0_TANGENT"},{"bufferView":3,"byteOffset":7000,"componentType":5120,"count":16,"type":"VEC4","name":"part003_vertices#0_NORMAL"},{"bufferView":3,"byteOffset":7004,"componentType":5122,"count":16,"type":"VEC2","name":"part003_vertices#0_TEXCOORD_0"},{"bufferView":3,"byteOffset":7008,"componentType":5122,"count":16,"type":"VEC2","name":"part003_vertices#0_TEXCOORD_1"},{"bufferView":3,"byteOffset":7012,"componentType":5123,"count":16,"type":"VEC4","name":"part003_vertices#0_COLOR_0"},{"bufferView":4,"byteOffset":930,"componentType":5123,"count":30,"type":"SCALAR","name":"part003_indices#0"},{"bufferView":3,"byteOffset":7560,"componentType":5126,"count":10,"min":[-0.06763000041246414,-0.20476000010967256,-0.21539999544620515],"max":[-0.06763000041246414,0.20483000576496125,0.21526999771595],"type":"VEC3","name":"part004_vertices#0_POSITION"},{"bufferView":3,"byteOffset":7572,"componentType":5120,"count":10,"type":"VEC4","name":"part004_vertices#0_TANGENT"},{"bufferView":3,"byteOffset":7576,"componentType":5120,"count":10,"type":"VEC4","name":"part004_vertices#0_NORMAL"},{"bufferView":3,"byteOffset":7580,"componentType":5122,"count":10,"type":"VEC2","name":"part004_vertices#0_TEXCOORD_0"},{"bufferView":3,"byteOffset":7584,"componentType":5122,"count":10,"type":"VEC2","name":"part004_vertices#0_TEXCOORD_1"},{"bufferView":3,"byteOffset":7588,"componentType":5123,"count":10,"type":"VEC4","name":"part004_vertices#0_COLOR_0"},{"bufferView":4,"byteOffset":990,"componentType":5123,"count":24,"type":"SCALAR","name":"part004_indices#0"},{"bufferView":3,"byteOffset":7920,"componentType":5126,"count":4,"min":[-0.029260000213980676,-0.21457000076770783,-0.052730001509189609],"max":[0.09081999957561493,0.21091000735759736,0.044190000742673877],"type":"VEC3","name":"part005_vertices#0_POSITION"},{"bufferView":3,"byteOffset":7932,"componentType":5120,"count":4,"type":"VEC4","name":"part005_vertices#0_TANGENT"},{"bufferView":3,"byteOffset":7936,"componentType":5120,"count":4,"type":"VEC4","name":"part005_vertices#0_NORMAL"},{"bufferView":3,"byteOffset":7940,"componentType":5122,"count":4,"type":"VEC2","name":"part005_vertices#0_TEXCOORD_0"},{"bufferView":3,"byteOffset":7944,"componentType":5122,"count":4,"type":"VEC2","name":"part005_vertices#0_TEXCOORD_1"},{"bufferView":3,"byteOffset":7948,"componentType":5123,"count":4,"type":"VEC4","name":"part005_vertices#0_COLOR_0"},{"bufferView":4,"byteOffset":1038,"componentType":5123,"count":6,"type":"SCALAR","name":"part005_indices#0"},{"bufferView":3,"byteOffset":8064,"componentType":5126,"count":8,"min":[-0.001930000027641654,-0.22148999571800233,-0.06830000132322312],"max":[0.11824999749660492,0.3349500000476837,0.22644999623298646],"type":"VEC3","name":"part006_vertices#0_POSITION"},{"bufferView":3,"byteOffset":8076,"componentType":5120,"count":8,"type":"VEC4","name":"part006_vertices#0_TANGENT"},{"bufferView":3,"byteOffset":8080,"componentType":5120,"count":8,"type":"VEC4","name":"part006_vertices#0_NORMAL"},{"bufferView":3,"byteOffset":8084,"componentType":5122,"count":8,"type":"VEC2","name":"part006_vertices#0_TEXCOORD_0"},{"bufferView":3,"byteOffset":8088,"componentType":5122,"count":8,"type":"VEC2","name":"part006_vertices#0_TEXCOORD_1"},{"bufferView":3,"byteOffset":8092,"componentType":5123,"count":8,"type":"VEC4","name":"part006_vertices#0_COLOR_0"},{"bufferView":4,"byteOffset":1050,"componentType":5123,"count":18,"type":"SCALAR","name":"part006_indices#0"},{"bufferView":3,"byteOffset":8352,"componentType":5126,"count":8,"min":[-0.11824999749660492,-0.22148999571800233,-0.06830000132322312],"max":[0.001930000027641654,0.3349500000476837,0.22644999623298646],"type":"VEC3","name":"part007_vertices#0_POSITION"},{"bufferView":3,"byteOffset":8364,"componentType":5120,"count":8,"type":"VEC4","name":"part007_vertices#0_TANGENT"},{"bufferView":3,"byteOffset":8368,"componentType":5120,"count":8,"type":"VEC4","name":"part007_vertices#0_NORMAL"},{"bufferView":3,"byteOffset":8372,"componentType":5122,"count":8,"type":"VEC2","name":"part007_vertices#0_TEXCOORD_0"},{"bufferView":3,"byteOffset":8376,"componentType":5122,"count":8,"type":"VEC2","name":"part007_vertices#0_TEXCOORD_1"},{"bufferView":3,"byteOffset":8380,"componentType":5123,"count":8,"type":"VEC4","name":"part007_vertices#0_COLOR_0"},{"bufferView":4,"byteOffset":1086,"componentType":5123,"count":18,"type":"SCALAR","name":"part007_indices#0"},{"bufferView":3,"byteOffset":8640,"componentType":5126,"count":4,"min":[-0.09081999957561493,-0.21457000076770783,-0.052730001509189609],"max":[0.029260000213980676,0.21091000735759736,0.044190000742673877],"type":"VEC3","name":"part008_vertices#0_POSITION"},{"bufferView":3,"byteOffset":8652,"componentType":5120,"count":4,"type":"VEC4","name":"part008_vertices#0_TANGENT"},{"bufferView":3,"byteOffset":8656,"componentType":5120,"count":4,"type":"VEC4","name":"part008_vertices#0_NORMAL"},{"bufferView":3,"byteOffset":8660,"componentType":5122,"count":4,"type":"VEC2","name":"part008_vertices#0_TEXCOORD_0"},{"bufferView":3,"byteOffset":8664,"componentType":5122,"count":4,"type":"VEC2","name":"part008_vertices#0_TEXCOORD_1"},{"bufferView":3,"byteOffset":8668,"componentType":5123,"count":4,"type":"VEC4","name":"part008_vertices#0_COLOR_0"},{"bufferView":4,"byteOffset":1122,"componentType":5123,"count":6,"type":"SCALAR","name":"part008_indices#0"},{"bufferView":3,"byteOffset":8784,"componentType":5126,"count":16,"min":[-0.13515999913215638,-0.04380999878048897,-0.5210800170898438],"max":[0.8131300210952759,0.358240008354187,-0.06996999680995941],"type":"VEC3","name":"part009_vertices#0_POSITION"},{"bufferView":3,"byteOffset":8796,"componentType":5120,"count":16,"type":"VEC4","name":"part009_vertices#0_TANGENT"},{"bufferView":3,"byteOffset":8800,"componentType":5120,"count":16,"type":"VEC4","name":"part009_vertices#0_NORMAL"},{"bufferView":3,"byteOffset":8804,"componentType":5122,"count":16,"type":"VEC2","name":"part009_vertices#0_TEXCOORD_0"},{"bufferView":3,"byteOffset":8808,"componentType":5122,"count":16,"type":"VEC2","name":"part009_vertices#0_TEXCOORD_1"},{"bufferView":3,"byteOffset":8812,"componentType":5123,"count":16,"type":"VEC4","name":"part009_vertices#0_COLOR_0"},{"bufferView":4,"byteOffset":1134,"componentType":5123,"count":30,"type":"SCALAR","name":"part009_indices#0"},{"bufferView":3,"byteOffset":9360,"componentType":5126,"count":10,"min":[0.06763000041246414,-0.20476000010967256,-0.21539999544620515],"max":[0.06763000041246414,0.20483000576496125,0.21526999771595],"type":"VEC3","name":"part010_vertices#0_POSITION"},{"bufferView":3,"byteOffset":9372,"componentType":5120,"count":10,"type":"VEC4","name":"part010_vertices#0_TANGENT"},{"bufferView":3,"byteOffset":9376,"componentType":5120,"count":10,"type":"VEC4","name":"part010_vertices#0_NORMAL"},{"bufferView":3,"byteOffset":9380,"componentType":5122,"count":10,"type":"VEC2","name":"part010_vertices#0_TEXCOORD_0"},{"bufferView":3,"byteOffset":9384,"componentType":5122,"count":10,"type":"VEC2","name":"part010_vertices#0_TEXCOORD_1"},{"bufferView":3,"byteOffset":9388,"componentType":5123,"count":10,"type":"VEC4","name":"part010_vertices#0_COLOR_0"},{"bufferView":4,"byteOffset":1194,"componentType":5123,"count":24,"type":"SCALAR","name":"part010_indices#0"}],"animations":[{"name":"c_gear","channels":[{"sampler":0,"target":{"node":11,"path":"rotation"}},{"sampler":1,"target":{"node":23,"path":"translation"}},{"sampler":2,"target":{"node":25,"path":"rotation"}},{"sampler":3,"target":{"node":27,"path":"translation"}},{"sampler":4,"target":{"node":29,"path":"rotation"}},{"sampler":5,"target":{"node":31,"path":"translation"}},{"sampler":6,"target":{"node":33,"path":"rotation"}},{"sampler":7,"target":{"node":35,"path":"translation"}},{"sampler":8,"target":{"node":37,"path":"rotation"}}],"samplers":[{"input":0,"output":1,"interpolation":"LINEAR"},{"input":10,"output":11,"interpolation":"LINEAR"},{"input":12,"output":13,"interpolation":"LINEAR"},{"input":14,"output":15,"interpolation":"LINEAR"},{"input":16,"output":17,"interpolation":"LINEAR"},{"input":18,"output":19,"interpolation":"LINEAR"},{"input":20,"output":21,"interpolation":"LINEAR"},{"input":22,"output":23,"interpolation":"LINEAR"},{"input":24,"output":25,"interpolation":"LINEAR"}]},{"name":"c_tire_blurred_key","channels":[{"sampler":0,"target":{"node":14,"path":"rotation"}}],"samplers":[{"input":2,"output":3,"interpolation":"LINEAR"}]},{"name":"l_gear","channels":[{"sampler":0,"target":{"node":16,"path":"translation"}},{"sampler":1,"target":{"node":18,"path":"rotation"}}],"samplers":[{"input":4,"output":5,"interpolation":"LINEAR"},{"input":6,"output":7,"interpolation":"LINEAR"}]},{"name":"l_tire_blurred_key","channels":[{"sampler":0,"target":{"node":21,"path":"rotation"}}],"samplers":[{"input":8,"output":9,"interpolation":"LINEAR"}]},{"name":"r_gear","channels":[{"sampler":0,"target":{"node":39,"path":"translation"}},{"sampler":1,"target":{"node":41,"path":"rotation"}}],"samplers":[{"input":26,"output":27,"interpolation":"LINEAR"},{"input":28,"output":29,"interpolation":"LINEAR"}]},{"name":"r_tire_blurred_key","channels":[{"sampler":0,"target":{"node":44,"path":"rotation"}}],"samplers":[{"input":30,"output":31,"interpolation":"LINEAR"}]}],"asset":{"generator":"ModelConverterX","version":"2.0","extensions":{"ASOBO_asset_optimized":{"BoundingBoxMax":[5.482999801635742,1.504699945449829,1.9368799924850464],"BoundingBoxMin":[-5.482999801635742,-0.6095600128173828,-6.120910167694092],"MajorVersion":4,"MinorVersion":4,"UseCheckerboardMaterialForMissingTextures":true,"UseOnlyFilenameForImageURI":true}}},"bufferViews":[{"buffer":0,"byteLength":228,"byteStride":4},{"buffer":0,"byteLength":240,"byteStride":12,"byteOffset":228},{"buffer":0,"byteLength":592,"byteStride":16,"byteOffset":468},{"buffer":0,"byteLength":9720,"byteStride":36,"byteOffset":1060,"target":34962,"name":"BufferViewVertexND"},{"buffer":0,"byteLength":1242,"byteOffset":10780,"target":34963,"name":"BufferViewIndex"}],"extensionsRequired":["MSFT_texture_dds"],"materials":[{"name":"material00","pbrMetallicRoughness":{"metallicFactor":0.0,"baseColorTexture":{"index":0}}}],"meshes":[{"primitives":[{"attributes":{"COLOR_0":37,"NORMAL":34,"POSITION":32,"TANGENT":33,"TEXCOORD_0":35,"TEXCOORD_1":36},"indices":38,"material":0,"mode":4,"extras":{"ASOBO_primitive":{"PrimitiveCount":127,"VertexType":"VTX","VertexVersion":2}}}],"name":"part000"},{"primitives":[{"attributes":{"COLOR_0":44,"NORMAL":41,"POSITION":39,"TANGENT":40,"TEXCOORD_0":42,"TEXCOORD_1":43},"indices":45,"material":0,"mode":4,"extras":{"ASOBO_primitive":{"PrimitiveCount":12,"VertexType":"VTX","VertexVersion":2}}}],"name":"part001"},{"primitives":[{"attributes":{"COLOR_0":51,"NORMAL":48,"POSITION":46,"TANGENT":47,"TEXCOORD_0":49,"TEXCOORD_1":50},"indices":52,"material":0,"mode":4,"extras":{"ASOBO_primitive":{"PrimitiveCount":16,"VertexType":"VTX","VertexVersion":2}}}],"name":"part002"},{"primitives":[{"attributes":{"COLOR_0":58,"NORMAL":55,"POSITION":53,"TANGENT":54,"TEXCOORD_0":56,"TEXCOORD_1":57},"indices":59,"material":0,"mode":4,"extras":{"ASOBO_primitive":{"PrimitiveCount":10,"VertexType":"VTX","VertexVersion":2}}}],"name":"part003"},{"primitives":[{"attributes":{"COLOR_0":65,"NORMAL":62,"POSITION":60,"TANGENT":61,"TEXCOORD_0":63,"TEXCOORD_1":64},"indices":66,"material":0,"mode":4,"extras":{"ASOBO_primitive":{"PrimitiveCount":8,"VertexType":"VTX","VertexVersion":2}}}],"name":"part004"},{"primitives":[{"attributes":{"COLOR_0":72,"NORMAL":69,"POSITION":67,"TANGENT":68,"TEXCOORD_0":70,"TEXCOORD_1":71},"indices":73,"material":0,"mode":4,"extras":{"ASOBO_primitive":{"PrimitiveCount":2,"VertexType":"VTX","VertexVersion":2}}}],"name":"part005"},{"primitives":[{"attributes":{"COLOR_0":79,"NORMAL":76,"POSITION":74,"TANGENT":75,"TEXCOORD_0":77,"TEXCOORD_1":78},"indices":80,"material":0,"mode":4,"extras":{"ASOBO_primitive":{"PrimitiveCount":6,"VertexType":"VTX","VertexVersion":2}}}],"name":"part006"},{"primitives":[{"attributes":{"COLOR_0":86,"NORMAL":83,"POSITION":81,"TANGENT":82,"TEXCOORD_0":84,"TEXCOORD_1":85},"indices":87,"material":0,"mode":4,"extras":{"ASOBO_primitive":{"PrimitiveCount":6,"VertexType":"VTX","VertexVersion":2}}}],"name":"part007"},{"primitives":[{"attributes":{"COLOR_0":93,"NORMAL":90,"POSITION":88,"TANGENT":89,"TEXCOORD_0":91,"TEXCOORD_1":92},"indices":94,"material":0,"mode":4,"extras":{"ASOBO_primitive":{"PrimitiveCount":2,"VertexType":"VTX","VertexVersion":2}}}],"name":"part008"},{"primitives":[{"attributes":{"COLOR_0":100,"NORMAL":97,"POSITION":95,"TANGENT":96,"TEXCOORD_0":98,"TEXCOORD_1":99},"indices":101,"material":0,"mode":4,"extras":{"ASOBO_primitive":{"PrimitiveCount":10,"VertexType":"VTX","VertexVersion":2}}}],"name":"part009"},{"primitives":[{"attributes":{"COLOR_0":107,"NORMAL":104,"POSITION":102,"TANGENT":103,"TEXCOORD_0":105,"TEXCOORD_1":106},"indices":108,"material":0,"mode":4,"extras":{"ASOBO_primitive":{"PrimitiveCount":8,"VertexType":"VTX","VertexVersion":2}}}],"name":"part010"}],"nodes":[{"name":"node_0","children":[1,2,3,4,5,6,7,8]},{"mesh":0,"name":"node_6"},{"translation":[7.347638122934264e-16,0.0,-6.0],"rotation":[-6.123031769111886e-17,3.061515884555943e-17,1.0,1.874575902277672e-33],"scale":[1.0,1.0,1.0],"name":"contrail1"},{"translation":[0.05999999865889527,-0.17000000178813935,1.830000042915344],"rotation":[-0.7071067811865475,0.0,0.0,0.7071067811865475],"scale":[1.0,1.0,1.0],"name":"Taxi_Light"},{"translation":[-0.059999998658895718,-0.17000000178813935,1.830000042915344],"rotation":[-0.7071067811865475,0.0,0.0,0.7071067811865475],"scale":[1.0,1.0,1.0],"name":"Landing_Light"},{"translation":[-1.4695276829806339e-16,-1.100000023841858,1.2000000476837159],"rotation":[-6.123031769111886e-17,3.061515884555943e-17,1.0,1.874575902277672e-33],"scale":[1.0,1.0,1.0],"name":"c_tire1"},{"translation":[1.3700000047683716,-1.0800000429153443,-0.49999999999999986],"rotation":[-6.123031769111886e-17,3.061515884555943e-17,1.0,1.874575902277672e-33],"scale":[1.0,1.0,1.0],"name":"l_tire1"},{"translation":[-1.3700000047683716,-1.0800000429153443,-0.5000000000000002],"rotation":[-6.123031769111886e-17,3.061515884555943e-17,1.0,1.874575902277672e-33],"scale":[1.0,1.0,1.0],"name":"r_tire1"},{"translation":[0.0,0.0,0.0],"rotation":[-4.329637285359677e-17,0.7071067811865475,0.7071067811865475,4.329637285359677e-17],"scale":[1.0,1.0,1.0],"name":"node_24","children":[9,15,22,26,30,34,38]},{"translation":[0.0,1.0911140441894532,-0.4980109930038452],"rotation":[0.0,0.0,0.0,1.0],"scale":[1.0,1.0,1.0],"name":"node_39","children":[10]},{"name":"node_40","children":[11]},{"mesh":1,"name":"c_gear_AN_40","children":[12]},{"translation":[0.0,0.0009139999747276305,-0.4449799954891205],"rotation":[0.0,0.0,0.0,1.0],"scale":[1.0,1.0,1.0],"name":"node_41","children":[13]},{"name":"node_42","children":[14]},{"mesh":2,"name":"c_tire_blurred_key_AN_42"},{"name":"node_61","children":[16]},{"name":"l_gear_AN_61","children":[17]},{"name":"node_62","children":[18]},{"mesh":3,"name":"l_gear_AN_62","children":[19]},{"translation":[-0.92500901222229,0.27704599499702456,-0.4382739961147308],"rotation":[0.0,0.0,0.0,1.0],"scale":[1.0,1.0,1.0],"name":"node_63","children":[20]},{"name":"node_64","children":[21]},{"mesh":4,"name":"l_tire_blurred_key_AN_64"},{"name":"node_79","children":[23]},{"name":"c_gear_AN_79","children":[24]},{"name":"node_80","children":[25]},{"mesh":5,"name":"c_gear_AN_80"},{"name":"node_85","children":[27]},{"name":"c_gear_AN_85","children":[28]},{"name":"node_86","children":[29]},{"mesh":6,"name":"c_gear_AN_86"},{"name":"node_91","children":[31]},{"name":"c_gear_AN_91","children":[32]},{"name":"node_92","children":[33]},{"mesh":7,"name":"c_gear_AN_92"},{"name":"node_97","children":[35]},{"name":"c_gear_AN_97","children":[36]},{"name":"node_98","children":[37]},{"mesh":8,"name":"c_gear_AN_98"},{"name":"node_103","children":[39]},{"name":"r_gear_AN_103","children":[40]},{"name":"node_104","children":[41]},{"mesh":9,"name":"r_gear_AN_104","children":[42]},{"translation":[0.92500901222229,0.2739979922771454,-0.4382739961147308],"rotation":[0.0,0.0,0.0,1.0],"scale":[1.0,1.0,1.0],"name":"node_105","children":[43]},{"name":"node_106","children":[44]},{"mesh":10,"name":"r_tire_blurred_key_AN_106"}],"scene":0,"scenes":[{"nodes":[0]}],"textures":[{"extensions":{"MSFT_texture_dds":{"source":0}}}],"extensionsUsed":["MSFT_texture_dds","ASOBO_asset_optimized"],"buffers":[{"byteLength":12022,"uri":"HTAI Cessna 210 Centurion MSFS_LOD4.bin"}],"images":[{"uri":"HTAI_C210.PNG.DDS","extras":"ASOBO_image_converted_meta"}]}
