{"accessors":[{"bufferView":0,"componentType":5126,"count":2,"min":[0.0],"max":[100.0],"type":"SCALAR"},{"bufferView":2,"componentType":5126,"count":2,"type":"VEC4"},{"bufferView":0,"byteOffset":8,"componentType":5126,"count":2,"min":[0.0],"max":[100.0],"type":"SCALAR"},{"bufferView":2,"byteOffset":32,"componentType":5126,"count":2,"type":"VEC4"},{"bufferView":0,"byteOffset":16,"componentType":5126,"count":2,"min":[0.0],"max":[100.0],"type":"SCALAR"},{"bufferView":2,"byteOffset":64,"componentType":5126,"count":2,"type":"VEC4"},{"bufferView":0,"byteOffset":24,"componentType":5126,"count":2,"min":[0.0],"max":[100.0],"type":"SCALAR"},{"bufferView":2,"byteOffset":96,"componentType":5126,"count":2,"type":"VEC4"},{"bufferView":0,"byteOffset":32,"componentType":5126,"count":2,"min":[0.0],"max":[100.0],"type":"SCALAR"},{"bufferView":2,"byteOffset":128,"componentType":5126,"count":2,"type":"VEC4"},{"bufferView":0,"byteOffset":40,"componentType":5126,"count":2,"min":[0.0],"max":[100.0],"type":"SCALAR"},{"bufferView":2,"byteOffset":160,"componentType":5126,"count":2,"type":"VEC4"},{"bufferView":0,"byteOffset":48,"componentType":5126,"count":3,"min":[0.0],"max":[200.0],"type":"SCALAR"},{"bufferView":1,"componentType":5126,"count":3,"type":"VEC3"},{"bufferView":0,"byteOffset":60,"componentType":5126,"count":3,"min":[0.0],"max":[200.0],"type":"SCALAR"},{"bufferView":2,"byteOffset":192,"componentType":5126,"count":3,"type":"VEC4"},{"bufferView":0,"byteOffset":72,"componentType":5126,"count":3,"min":[0.0],"max":[200.0],"type":"SCALAR"},{"bufferView":2,"byteOffset":240,"componentType":5126,"count":3,"type":"VEC4"},{"bufferView":3,"componentType":5126,"count":327,"min":[-7.105599880218506,-0.4874899983406067,-7.7309699058532719],"max":[7.1056599617004398,2.85014009475708,4.169919967651367],"type":"VEC3","name":"part000_vertices#0_POSITION"},{"bufferView":3,"byteOffset":12,"componentType":5120,"count":327,"type":"VEC4","name":"part000_vertices#0_TANGENT"},{"bufferView":3,"byteOffset":16,"componentType":5120,"count":327,"type":"VEC4","name":"part000_vertices#0_NORMAL"},{"bufferView":3,"byteOffset":20,"componentType":5122,"count":327,"type":"VEC2","name":"part000_vertices#0_TEXCOORD_0"},{"bufferView":3,"byteOffset":24,"componentType":5122,"count":327,"type":"VEC2","name":"part000_vertices#0_TEXCOORD_1"},{"bufferView":3,"byteOffset":28,"componentType":5123,"count":327,"type":"VEC4","name":"part000_vertices#0_COLOR_0"},{"bufferView":4,"componentType":5123,"count":750,"type":"SCALAR","name":"part000_indices#0"},{"bufferView":3,"byteOffset":11772,"componentType":5126,"count":16,"min":[0.027130000293254854,-0.26802998781204226,-1.0035200119018555],"max":[0.027130000293254854,0.27656999230384829,-0.4589099884033203],"type":"VEC3","name":"part001_vertices#0_POSITION"},{"bufferView":3,"byteOffset":11784,"componentType":5120,"count":16,"type":"VEC4","name":"part001_vertices#0_TANGENT"},{"bufferView":3,"byteOffset":11788,"componentType":5120,"count":16,"type":"VEC4","name":"part001_vertices#0_NORMAL"},{"bufferView":3,"byteOffset":11792,"componentType":5122,"count":16,"type":"VEC2","name":"part001_vertices#0_TEXCOORD_0"},{"bufferView":3,"byteOffset":11796,"componentType":5122,"count":16,"type":"VEC2","name":"part001_vertices#0_TEXCOORD_1"},{"bufferView":3,"byteOffset":11800,"componentType":5123,"count":16,"type":"VEC4","name":"part001_vertices#0_COLOR_0"},{"bufferView":4,"byteOffset":1500,"componentType":5123,"count":108,"type":"SCALAR","name":"part001_indices#0"},{"bufferView":3,"byteOffset":12348,"componentType":5126,"count":4,"min":[-0.05366000160574913,-0.011540000326931477,-0.6317700147628784],"max":[-0.05366000160574913,0.40250998735427859,-0.057920001447200778],"type":"VEC3","name":"part002_vertices#0_POSITION"},{"bufferView":3,"byteOffset":12360,"componentType":5120,"count":4,"type":"VEC4","name":"part002_vertices#0_TANGENT"},{"bufferView":3,"byteOffset":12364,"componentType":5120,"count":4,"type":"VEC4","name":"part002_vertices#0_NORMAL"},{"bufferView":3,"byteOffset":12368,"componentType":5122,"count":4,"type":"VEC2","name":"part002_vertices#0_TEXCOORD_0"},{"bufferView":3,"byteOffset":12372,"componentType":5122,"count":4,"type":"VEC2","name":"part002_vertices#0_TEXCOORD_1"},{"bufferView":3,"byteOffset":12376,"componentType":5123,"count":4,"type":"VEC4","name":"part002_vertices#0_COLOR_0"},{"bufferView":4,"byteOffset":1716,"componentType":5123,"count":6,"type":"SCALAR","name":"part002_indices#0"},{"bufferView":3,"byteOffset":12492,"componentType":5126,"count":12,"min":[0.0022700000554323198,-0.3023200035095215,-0.700659990310669],"max":[0.2627300024032593,0.22125999629497529,-0.012009999714791775],"type":"VEC3","name":"part003_vertices#0_POSITION"},{"bufferView":3,"byteOffset":12504,"componentType":5120,"count":12,"type":"VEC4","name":"part003_vertices#0_TANGENT"},{"bufferView":3,"byteOffset":12508,"componentType":5120,"count":12,"type":"VEC4","name":"part003_vertices#0_NORMAL"},{"bufferView":3,"byteOffset":12512,"componentType":5122,"count":12,"type":"VEC2","name":"part003_vertices#0_TEXCOORD_0"},{"bufferView":3,"byteOffset":12516,"componentType":5122,"count":12,"type":"VEC2","name":"part003_vertices#0_TEXCOORD_1"},{"bufferView":3,"byteOffset":12520,"componentType":5123,"count":12,"type":"VEC4","name":"part003_vertices#0_COLOR_0"},{"bufferView":4,"byteOffset":1728,"componentType":5123,"count":12,"type":"SCALAR","name":"part003_indices#0"},{"bufferView":3,"byteOffset":12924,"componentType":5126,"count":12,"min":[-0.2627300024032593,-0.3023200035095215,-0.700659990310669],"max":[-0.0022700000554323198,0.22125999629497529,-0.012009999714791775],"type":"VEC3","name":"part004_vertices#0_POSITION"},{"bufferView":3,"byteOffset":12936,"componentType":5120,"count":12,"type":"VEC4","name":"part004_vertices#0_TANGENT"},{"bufferView":3,"byteOffset":12940,"componentType":5120,"count":12,"type":"VEC4","name":"part004_vertices#0_NORMAL"},{"bufferView":3,"byteOffset":12944,"componentType":5122,"count":12,"type":"VEC2","name":"part004_vertices#0_TEXCOORD_0"},{"bufferView":3,"byteOffset":12948,"componentType":5122,"count":12,"type":"VEC2","name":"part004_vertices#0_TEXCOORD_1"},{"bufferView":3,"byteOffset":12952,"componentType":5123,"count":12,"type":"VEC4","name":"part004_vertices#0_COLOR_0"},{"bufferView":4,"byteOffset":1752,"componentType":5123,"count":12,"type":"SCALAR","name":"part004_indices#0"},{"bufferView":3,"byteOffset":13356,"componentType":5126,"count":16,"min":[-0.027130000293254854,-0.26802998781204226,-1.0035200119018555],"max":[-0.027130000293254854,0.27656999230384829,-0.4589099884033203],"type":"VEC3","name":"part005_vertices#0_POSITION"},{"bufferView":3,"byteOffset":13368,"componentType":5120,"count":16,"type":"VEC4","name":"part005_vertices#0_TANGENT"},{"bufferView":3,"byteOffset":13372,"componentType":5120,"count":16,"type":"VEC4","name":"part005_vertices#0_NORMAL"},{"bufferView":3,"byteOffset":13376,"componentType":5122,"count":16,"type":"VEC2","name":"part005_vertices#0_TEXCOORD_0"},{"bufferView":3,"byteOffset":13380,"componentType":5122,"count":16,"type":"VEC2","name":"part005_vertices#0_TEXCOORD_1"},{"bufferView":3,"byteOffset":13384,"componentType":5123,"count":16,"type":"VEC4","name":"part005_vertices#0_COLOR_0"},{"bufferView":4,"byteOffset":1776,"componentType":5123,"count":108,"type":"SCALAR","name":"part005_indices#0"},{"bufferView":3,"byteOffset":13932,"componentType":5126,"count":4,"min":[0.05366000160574913,-0.011610000394284726,-0.632889986038208],"max":[0.05366000160574913,0.40244001150131228,-0.059050001204013827],"type":"VEC3","name":"part006_vertices#0_POSITION"},{"bufferView":3,"byteOffset":13944,"componentType":5120,"count":4,"type":"VEC4","name":"part006_vertices#0_TANGENT"},{"bufferView":3,"byteOffset":13948,"componentType":5120,"count":4,"type":"VEC4","name":"part006_vertices#0_NORMAL"},{"bufferView":3,"byteOffset":13952,"componentType":5122,"count":4,"type":"VEC2","name":"part006_vertices#0_TEXCOORD_0"},{"bufferView":3,"byteOffset":13956,"componentType":5122,"count":4,"type":"VEC2","name":"part006_vertices#0_TEXCOORD_1"},{"bufferView":3,"byteOffset":13960,"componentType":5123,"count":4,"type":"VEC4","name":"part006_vertices#0_COLOR_0"},{"bufferView":4,"byteOffset":1992,"componentType":5123,"count":6,"type":"SCALAR","name":"part006_indices#0"},{"bufferView":3,"byteOffset":14076,"componentType":5126,"count":16,"min":[0.0,-0.2219499945640564,-1.0442999601364136],"max":[0.0,0.20975999534130097,-0.6125900149345398],"type":"VEC3","name":"part007_vertices#0_POSITION"},{"bufferView":3,"byteOffset":14088,"componentType":5120,"count":16,"type":"VEC4","name":"part007_vertices#0_TANGENT"},{"bufferView":3,"byteOffset":14092,"componentType":5120,"count":16,"type":"VEC4","name":"part007_vertices#0_NORMAL"},{"bufferView":3,"byteOffset":14096,"componentType":5122,"count":16,"type":"VEC2","name":"part007_vertices#0_TEXCOORD_0"},{"bufferView":3,"byteOffset":14100,"componentType":5122,"count":16,"type":"VEC2","name":"part007_vertices#0_TEXCOORD_1"},{"bufferView":3,"byteOffset":14104,"componentType":5123,"count":16,"type":"VEC4","name":"part007_vertices#0_COLOR_0"},{"bufferView":4,"byteOffset":2004,"componentType":5123,"count":108,"type":"SCALAR","name":"part007_indices#0"},{"bufferView":3,"byteOffset":14652,"componentType":5126,"count":8,"min":[-0.02800000086426735,-0.04588000103831291,-0.5166900157928467],"max":[0.0313199982047081,-0.0017999999690800906,-0.4113300144672394],"type":"VEC3","name":"part008_vertices#0_POSITION"},{"bufferView":3,"byteOffset":14664,"componentType":5120,"count":8,"type":"VEC4","name":"part008_vertices#0_TANGENT"},{"bufferView":3,"byteOffset":14668,"componentType":5120,"count":8,"type":"VEC4","name":"part008_vertices#0_NORMAL"},{"bufferView":3,"byteOffset":14672,"componentType":5122,"count":8,"type":"VEC2","name":"part008_vertices#0_TEXCOORD_0"},{"bufferView":3,"byteOffset":14676,"componentType":5122,"count":8,"type":"VEC2","name":"part008_vertices#0_TEXCOORD_1"},{"bufferView":3,"byteOffset":14680,"componentType":5123,"count":8,"type":"VEC4","name":"part008_vertices#0_COLOR_0"},{"bufferView":4,"byteOffset":2220,"componentType":5123,"count":12,"type":"SCALAR","name":"part008_indices#0"}],"animations":[{"name":"r_gear","channels":[{"sampler":0,"target":{"node":13,"path":"rotation"}},{"sampler":1,"target":{"node":15,"path":"rotation"}},{"sampler":2,"target":{"node":18,"path":"rotation"}}],"samplers":[{"input":0,"output":1,"interpolation":"LINEAR"},{"input":2,"output":3,"interpolation":"LINEAR"},{"input":4,"output":5,"interpolation":"LINEAR"}]},{"name":"l_gear","channels":[{"sampler":0,"target":{"node":21,"path":"rotation"}},{"sampler":1,"target":{"node":24,"path":"rotation"}},{"sampler":2,"target":{"node":26,"path":"rotation"}}],"samplers":[{"input":6,"output":7,"interpolation":"LINEAR"},{"input":8,"output":9,"interpolation":"LINEAR"},{"input":10,"output":11,"interpolation":"LINEAR"}]},{"name":"c_gear","channels":[{"sampler":0,"target":{"node":28,"path":"translation"}},{"sampler":1,"target":{"node":30,"path":"rotation"}},{"sampler":2,"target":{"node":34,"path":"rotation"}}],"samplers":[{"input":12,"output":13,"interpolation":"LINEAR"},{"input":14,"output":15,"interpolation":"LINEAR"},{"input":16,"output":17,"interpolation":"LINEAR"}]}],"asset":{"generator":"ModelConverterX","version":"2.0","extensions":{"ASOBO_asset_optimized":{"BoundingBoxMax":[7.1056599617004398,2.85014009475708,4.169919967651367],"BoundingBoxMin":[-7.105599880218506,-0.4874899983406067,-7.7309699058532719],"MajorVersion":4,"MinorVersion":4,"UseCheckerboardMaterialForMissingTextures":true,"UseOnlyFilenameForImageURI":true}}},"bufferViews":[{"buffer":0,"byteLength":84,"byteStride":4},{"buffer":0,"byteLength":36,"byteStride":12,"byteOffset":84},{"buffer":0,"byteLength":288,"byteStride":16,"byteOffset":120},{"buffer":0,"byteLength":14940,"byteStride":36,"byteOffset":408,"target":34962,"name":"BufferViewVertexND"},{"buffer":0,"byteLength":2244,"byteOffset":15348,"target":34963,"name":"BufferViewIndex"}],"extensionsRequired":["MSFT_texture_dds"],"materials":[{"name":"material00","occlusionTexture":{"index":1},"emissiveTexture":{"index":2},"pbrMetallicRoughness":{"baseColorTexture":{"index":0},"metallicRoughnessTexture":{"index":1}},"extensions":{"ASOBO_material_day_night_switch":{}}},{"name":"material01","emissiveTexture":{"index":2},"pbrMetallicRoughness":{"metallicFactor":0.0,"baseColorTexture":{"index":0}},"extensions":{"ASOBO_material_day_night_switch":{}}},{"name":"material02","pbrMetallicRoughness":{"baseColorFactor":[0.4392159879207611,0.4392159879207611,0.4392159879207611,1.0],"metallicFactor":0.0}},{"name":"material03","pbrMetallicRoughness":{"metallicFactor":0.0}}],"meshes":[{"primitives":[{"attributes":{"COLOR_0":23,"NORMAL":20,"POSITION":18,"TANGENT":19,"TEXCOORD_0":21,"TEXCOORD_1":22},"indices":24,"material":0,"mode":4,"extras":{"ASOBO_primitive":{"PrimitiveCount":250,"VertexType":"VTX","VertexVersion":2}}}],"name":"part000"},{"primitives":[{"attributes":{"COLOR_0":30,"NORMAL":27,"POSITION":25,"TANGENT":26,"TEXCOORD_0":28,"TEXCOORD_1":29},"indices":31,"material":1,"mode":4,"extras":{"ASOBO_primitive":{"PrimitiveCount":36,"VertexType":"VTX","VertexVersion":2}}}],"name":"part001"},{"primitives":[{"attributes":{"COLOR_0":37,"NORMAL":34,"POSITION":32,"TANGENT":33,"TEXCOORD_0":35,"TEXCOORD_1":36},"indices":38,"material":3,"mode":4,"extras":{"ASOBO_primitive":{"PrimitiveCount":2,"VertexType":"VTX","VertexVersion":2}}}],"name":"part002"},{"primitives":[{"attributes":{"COLOR_0":44,"NORMAL":41,"POSITION":39,"TANGENT":40,"TEXCOORD_0":42,"TEXCOORD_1":43},"indices":45,"material":1,"mode":4,"extras":{"ASOBO_primitive":{"PrimitiveCount":4,"VertexType":"VTX","VertexVersion":2}}}],"name":"part003"},{"primitives":[{"attributes":{"COLOR_0":51,"NORMAL":48,"POSITION":46,"TANGENT":47,"TEXCOORD_0":49,"TEXCOORD_1":50},"indices":52,"material":1,"mode":4,"extras":{"ASOBO_primitive":{"PrimitiveCount":4,"VertexType":"VTX","VertexVersion":2}}}],"name":"part004"},{"primitives":[{"attributes":{"COLOR_0":58,"NORMAL":55,"POSITION":53,"TANGENT":54,"TEXCOORD_0":56,"TEXCOORD_1":57},"indices":59,"material":1,"mode":4,"extras":{"ASOBO_primitive":{"PrimitiveCount":36,"VertexType":"VTX","VertexVersion":2}}}],"name":"part005"},{"primitives":[{"attributes":{"COLOR_0":65,"NORMAL":62,"POSITION":60,"TANGENT":61,"TEXCOORD_0":63,"TEXCOORD_1":64},"indices":66,"material":3,"mode":4,"extras":{"ASOBO_primitive":{"PrimitiveCount":2,"VertexType":"VTX","VertexVersion":2}}}],"name":"part006"},{"primitives":[{"attributes":{"COLOR_0":72,"NORMAL":69,"POSITION":67,"TANGENT":68,"TEXCOORD_0":70,"TEXCOORD_1":71},"indices":73,"material":1,"mode":4,"extras":{"ASOBO_primitive":{"PrimitiveCount":36,"VertexType":"VTX","VertexVersion":2}}}],"name":"part007"},{"primitives":[{"attributes":{"COLOR_0":79,"NORMAL":76,"POSITION":74,"TANGENT":75,"TEXCOORD_0":77,"TEXCOORD_1":78},"indices":80,"material":2,"mode":4,"extras":{"ASOBO_primitive":{"PrimitiveCount":4,"VertexType":"VTX","VertexVersion":2}}}],"name":"part008"}],"nodes":[{"name":"node_0","children":[1,2,3,4,5,6,7,8,9]},{"mesh":0,"name":"node_1"},{"translation":[2.5000000000000006,-0.25,-2.400000095367431],"rotation":[-6.123031769111886e-17,0.0,1.0,0.0],"scale":[1.0,1.0,1.0],"name":"contrail1"},{"translation":[6.840000152587891,-0.029999999329447744,-0.4000000059604637],"rotation":[-0.7071067811865475,-4.329637285359677e-17,-4.329637285359677e-17,0.7071067811865475],"scale":[1.0,1.0,1.0],"name":"landing_l"},{"translation":[-6.840000152587891,-0.029999999329447744,-0.40000000596046528],"rotation":[-0.7071067811865475,-4.329637285359677e-17,-4.329637285359677e-17,0.7071067811865475],"scale":[1.0,1.0,1.0],"name":"landing_r"},{"translation":[-2.4999999999999997,-0.25,-2.400000095367432],"rotation":[-6.123031769111886e-17,0.0,1.0,0.0],"scale":[1.0,1.0,1.0],"name":"contrail2"},{"translation":[-3.428897732308875e-16,-1.25,2.799999952316284],"rotation":[-6.123031769111886e-17,0.0,1.0,0.0],"scale":[1.0,1.0,1.0],"name":"c_tire1"},{"translation":[2.0199999809265138,-1.2999999523162842,-0.9999999999999997],"rotation":[-6.123031769111886e-17,0.0,1.0,0.0],"scale":[1.0,1.0,1.0],"name":"l_tire1"},{"translation":[-2.0199999809265138,-1.2999999523162842,-1.0000000000000003],"rotation":[-6.123031769111886e-17,0.0,1.0,0.0],"scale":[1.0,1.0,1.0],"name":"r_tire1"},{"translation":[0.0,0.0,0.0],"rotation":[-4.329637285359677e-17,0.7071067811865475,0.7071067811865475,4.329637285359677e-17],"scale":[1.0,1.0,1.0],"name":"node_21","children":[10]},{"name":"node_22","children":[11,16,19,22,27]},{"translation":[1.9958300590515137,-0.8784340023994447,-0.3322319984436035],"rotation":[0.0,0.0,0.0,1.0],"scale":[1.0,1.0,1.0],"name":"node_23","children":[12,14]},{"name":"node_24","children":[13]},{"mesh":1,"name":"r_gear_AN_24"},{"name":"node_28","children":[15]},{"mesh":2,"name":"r_gear_AN_28"},{"translation":[2.043073892593384,-0.6102100014686585,-0.28285399079322817],"rotation":[0.0,0.0,0.0,1.0],"scale":[1.0,1.0,1.0],"name":"node_40","children":[17]},{"name":"node_41","children":[18]},{"mesh":3,"name":"r_gear_AN_41"},{"translation":[-2.043073892593384,-0.6102100014686585,-0.28285399079322817],"rotation":[0.0,0.0,0.0,1.0],"scale":[1.0,1.0,1.0],"name":"node_46","children":[20]},{"name":"node_47","children":[21]},{"mesh":4,"name":"l_gear_AN_47"},{"translation":[-1.9958300590515137,-0.8784340023994447,-0.3322319984436035],"rotation":[0.0,0.0,0.0,1.0],"scale":[1.0,1.0,1.0],"name":"node_52","children":[23,25]},{"name":"node_53","children":[24]},{"mesh":5,"name":"l_gear_AN_53"},{"name":"node_57","children":[26]},{"mesh":6,"name":"l_gear_AN_57"},{"translation":[-0.002133999951183796,2.903525114059448,-0.23578399419784544],"rotation":[0.0,0.0,0.0,1.0],"scale":[1.0,1.0,1.0],"name":"node_79","children":[28]},{"name":"c_gear_AN_79","children":[29,33]},{"name":"node_80","children":[30]},{"mesh":7,"name":"c_gear_AN_80","children":[31,32]},{"translation":[0.002133999951183796,0.09647499769926073,-0.324084997177124],"rotation":[0.0,0.0,1.0,0.0],"scale":[1.0,1.0,1.0],"name":"taxi"},{"translation":[0.002133999951183796,0.09647499769926073,-0.324084997177124],"rotation":[0.0,0.0,1.0,0.0],"scale":[1.0,1.0,1.0],"name":"landing_nose"},{"name":"node_86","children":[34]},{"mesh":8,"name":"c_gear_AN_86"}],"scene":0,"scenes":[{"nodes":[0]}],"textures":[{"extensions":{"MSFT_texture_dds":{"source":0}}},{"extensions":{"MSFT_texture_dds":{"source":1}}},{"extensions":{"MSFT_texture_dds":{"source":2}}}],"extensionsUsed":["ASOBO_material_day_night_switch","MSFT_texture_dds","ASOBO_asset_optimized"],"buffers":[{"byteLength":17592,"uri":"HTAI_Cessna_441_Conquest_4blade_MSFS_LOD4.bin"}],"images":[{"uri":"AI441.PNG.DDS","extras":"ASOBO_image_converted_meta"},{"uri":"AI441_C.PNG.DDS","extras":"ASOBO_image_converted_meta"},{"uri":"AI441_L.PNG.DDS","extras":"ASOBO_image_converted_meta"}]}
