{"accessors":[{"bufferView":0,"componentType":5126,"count":5,"min":[0.0],"max":[100.0],"type":"SCALAR"},{"bufferView":2,"componentType":5126,"count":5,"type":"VEC4"},{"bufferView":0,"byteOffset":20,"componentType":5126,"count":5,"min":[0.0],"max":[100.0],"type":"SCALAR"},{"bufferView":2,"byteOffset":80,"componentType":5126,"count":5,"type":"VEC4"},{"bufferView":0,"byteOffset":40,"componentType":5126,"count":5,"min":[0.0],"max":[100.0],"type":"SCALAR"},{"bufferView":2,"byteOffset":160,"componentType":5126,"count":5,"type":"VEC4"},{"bufferView":0,"byteOffset":60,"componentType":5126,"count":5,"min":[0.0],"max":[100.0],"type":"SCALAR"},{"bufferView":2,"byteOffset":240,"componentType":5126,"count":5,"type":"VEC4"},{"bufferView":0,"byteOffset":80,"componentType":5126,"count":5,"min":[0.0],"max":[100.0],"type":"SCALAR"},{"bufferView":2,"byteOffset":320,"componentType":5126,"count":5,"type":"VEC4"},{"bufferView":0,"byteOffset":100,"componentType":5126,"count":5,"min":[0.0],"max":[100.0],"type":"SCALAR"},{"bufferView":2,"byteOffset":400,"componentType":5126,"count":5,"type":"VEC4"},{"bufferView":0,"byteOffset":120,"componentType":5126,"count":5,"min":[0.0],"max":[100.0],"type":"SCALAR"},{"bufferView":2,"byteOffset":480,"componentType":5126,"count":5,"type":"VEC4"},{"bufferView":0,"byteOffset":140,"componentType":5126,"count":5,"min":[0.0],"max":[100.0],"type":"SCALAR"},{"bufferView":2,"byteOffset":560,"componentType":5126,"count":5,"type":"VEC4"},{"bufferView":0,"byteOffset":160,"componentType":5126,"count":5,"min":[0.0],"max":[100.0],"type":"SCALAR"},{"bufferView":2,"byteOffset":640,"componentType":5126,"count":5,"type":"VEC4"},{"bufferView":0,"byteOffset":180,"componentType":5126,"count":2,"min":[0.0],"max":[100.0],"type":"SCALAR"},{"bufferView":1,"componentType":5126,"count":2,"type":"VEC3"},{"bufferView":0,"byteOffset":188,"componentType":5126,"count":2,"min":[0.0],"max":[100.0],"type":"SCALAR"},{"bufferView":2,"byteOffset":720,"componentType":5126,"count":2,"type":"VEC4"},{"bufferView":0,"byteOffset":196,"componentType":5126,"count":2,"min":[0.0],"max":[100.0],"type":"SCALAR"},{"bufferView":1,"byteOffset":24,"componentType":5126,"count":2,"type":"VEC3"},{"bufferView":0,"byteOffset":204,"componentType":5126,"count":2,"min":[0.0],"max":[100.0],"type":"SCALAR"},{"bufferView":2,"byteOffset":752,"componentType":5126,"count":2,"type":"VEC4"},{"bufferView":3,"componentType":5126,"count":468,"min":[-5.483610153198242,-1.0240600109100342,-6.120910167694092],"max":[5.483610153198242,1.504699945449829,2.306879997253418],"type":"VEC3","name":"part000_vertices#0_POSITION"},{"bufferView":3,"byteOffset":12,"componentType":5120,"count":468,"type":"VEC4","name":"part000_vertices#0_TANGENT"},{"bufferView":3,"byteOffset":16,"componentType":5120,"count":468,"type":"VEC4","name":"part000_vertices#0_NORMAL"},{"bufferView":3,"byteOffset":20,"componentType":5122,"count":468,"type":"VEC2","name":"part000_vertices#0_TEXCOORD_0"},{"bufferView":3,"byteOffset":24,"componentType":5122,"count":468,"type":"VEC2","name":"part000_vertices#0_TEXCOORD_1"},{"bufferView":3,"byteOffset":28,"componentType":5123,"count":468,"type":"VEC4","name":"part000_vertices#0_COLOR_0"},{"bufferView":4,"componentType":5123,"count":1500,"type":"SCALAR","name":"part000_indices#0"},{"bufferView":3,"byteOffset":16848,"componentType":5126,"count":34,"min":[-0.9887300133705139,0.0,-0.9887300133705139],"max":[0.9887300133705139,0.0,0.9887300133705139],"type":"VEC3","name":"part001_vertices#0_POSITION"},{"bufferView":3,"byteOffset":16860,"componentType":5120,"count":34,"type":"VEC4","name":"part001_vertices#0_TANGENT"},{"bufferView":3,"byteOffset":16864,"componentType":5120,"count":34,"type":"VEC4","name":"part001_vertices#0_NORMAL"},{"bufferView":3,"byteOffset":16868,"componentType":5122,"count":34,"type":"VEC2","name":"part001_vertices#0_TEXCOORD_0"},{"bufferView":3,"byteOffset":16872,"componentType":5122,"count":34,"type":"VEC2","name":"part001_vertices#0_TEXCOORD_1"},{"bufferView":3,"byteOffset":16876,"componentType":5123,"count":34,"type":"VEC4","name":"part001_vertices#0_COLOR_0"},{"bufferView":4,"byteOffset":3000,"componentType":5123,"count":96,"type":"SCALAR","name":"part001_indices#0"},{"bufferView":3,"byteOffset":18072,"componentType":5126,"count":34,"min":[-0.9887300133705139,0.0,-0.9887300133705139],"max":[0.9887300133705139,0.0,0.9887300133705139],"type":"VEC3","name":"part002_vertices#0_POSITION"},{"bufferView":3,"byteOffset":18084,"componentType":5120,"count":34,"type":"VEC4","name":"part002_vertices#0_TANGENT"},{"bufferView":3,"byteOffset":18088,"componentType":5120,"count":34,"type":"VEC4","name":"part002_vertices#0_NORMAL"},{"bufferView":3,"byteOffset":18092,"componentType":5122,"count":34,"type":"VEC2","name":"part002_vertices#0_TEXCOORD_0"},{"bufferView":3,"byteOffset":18096,"componentType":5122,"count":34,"type":"VEC2","name":"part002_vertices#0_TEXCOORD_1"},{"bufferView":3,"byteOffset":18100,"componentType":5123,"count":34,"type":"VEC4","name":"part002_vertices#0_COLOR_0"},{"bufferView":4,"byteOffset":3192,"componentType":5123,"count":96,"type":"SCALAR","name":"part002_indices#0"},{"bufferView":3,"byteOffset":19296,"componentType":5126,"count":42,"min":[-0.8695399761199951,-0.023159999400377275,-0.9865700006484985],"max":[0.8683199882507324,0.023469999432563783,0.5196499824523926],"type":"VEC3","name":"part003_vertices#0_POSITION"},{"bufferView":3,"byteOffset":19308,"componentType":5120,"count":42,"type":"VEC4","name":"part003_vertices#0_TANGENT"},{"bufferView":3,"byteOffset":19312,"componentType":5120,"count":42,"type":"VEC4","name":"part003_vertices#0_NORMAL"},{"bufferView":3,"byteOffset":19316,"componentType":5122,"count":42,"type":"VEC2","name":"part003_vertices#0_TEXCOORD_0"},{"bufferView":3,"byteOffset":19320,"componentType":5122,"count":42,"type":"VEC2","name":"part003_vertices#0_TEXCOORD_1"},{"bufferView":3,"byteOffset":19324,"componentType":5123,"count":42,"type":"VEC4","name":"part003_vertices#0_COLOR_0"},{"bufferView":4,"byteOffset":3384,"componentType":5123,"count":90,"type":"SCALAR","name":"part003_indices#0"},{"bufferView":3,"byteOffset":20808,"componentType":5126,"count":20,"min":[-0.050050001591444018,-0.17570999264717103,-0.182669997215271],"max":[0.050050001591444018,0.16936999559402467,0.1801699995994568],"type":"VEC3","name":"part004_vertices#0_POSITION"},{"bufferView":3,"byteOffset":20820,"componentType":5120,"count":20,"type":"VEC4","name":"part004_vertices#0_TANGENT"},{"bufferView":3,"byteOffset":20824,"componentType":5120,"count":20,"type":"VEC4","name":"part004_vertices#0_NORMAL"},{"bufferView":3,"byteOffset":20828,"componentType":5122,"count":20,"type":"VEC2","name":"part004_vertices#0_TEXCOORD_0"},{"bufferView":3,"byteOffset":20832,"componentType":5122,"count":20,"type":"VEC2","name":"part004_vertices#0_TEXCOORD_1"},{"bufferView":3,"byteOffset":20836,"componentType":5123,"count":20,"type":"VEC4","name":"part004_vertices#0_COLOR_0"},{"bufferView":4,"byteOffset":3564,"componentType":5123,"count":48,"type":"SCALAR","name":"part004_indices#0"},{"bufferView":3,"byteOffset":21528,"componentType":5126,"count":20,"min":[-0.050050001591444018,-0.17570999264717103,-0.182669997215271],"max":[0.050050001591444018,0.16936999559402467,0.1801699995994568],"type":"VEC3","name":"part005_vertices#0_POSITION"},{"bufferView":3,"byteOffset":21540,"componentType":5120,"count":20,"type":"VEC4","name":"part005_vertices#0_TANGENT"},{"bufferView":3,"byteOffset":21544,"componentType":5120,"count":20,"type":"VEC4","name":"part005_vertices#0_NORMAL"},{"bufferView":3,"byteOffset":21548,"componentType":5122,"count":20,"type":"VEC2","name":"part005_vertices#0_TEXCOORD_0"},{"bufferView":3,"byteOffset":21552,"componentType":5122,"count":20,"type":"VEC2","name":"part005_vertices#0_TEXCOORD_1"},{"bufferView":3,"byteOffset":21556,"componentType":5123,"count":20,"type":"VEC4","name":"part005_vertices#0_COLOR_0"},{"bufferView":4,"byteOffset":3660,"componentType":5123,"count":60,"type":"SCALAR","name":"part005_indices#0"},{"bufferView":3,"byteOffset":22248,"componentType":5126,"count":20,"min":[-0.06763000041246414,-0.20572000741958619,-0.21438999474048615],"max":[0.06763000041246414,0.20385999977588654,0.21626999974250794],"type":"VEC3","name":"part006_vertices#0_POSITION"},{"bufferView":3,"byteOffset":22260,"componentType":5120,"count":20,"type":"VEC4","name":"part006_vertices#0_TANGENT"},{"bufferView":3,"byteOffset":22264,"componentType":5120,"count":20,"type":"VEC4","name":"part006_vertices#0_NORMAL"},{"bufferView":3,"byteOffset":22268,"componentType":5122,"count":20,"type":"VEC2","name":"part006_vertices#0_TEXCOORD_0"},{"bufferView":3,"byteOffset":22272,"componentType":5122,"count":20,"type":"VEC2","name":"part006_vertices#0_TEXCOORD_1"},{"bufferView":3,"byteOffset":22276,"componentType":5123,"count":20,"type":"VEC4","name":"part006_vertices#0_COLOR_0"},{"bufferView":4,"byteOffset":3780,"componentType":5123,"count":48,"type":"SCALAR","name":"part006_indices#0"},{"bufferView":3,"byteOffset":22968,"componentType":5126,"count":20,"min":[-0.06763000041246414,-0.20572000741958619,-0.21438999474048615],"max":[0.06763000041246414,0.20385999977588654,0.21626999974250794],"type":"VEC3","name":"part007_vertices#0_POSITION"},{"bufferView":3,"byteOffset":22980,"componentType":5120,"count":20,"type":"VEC4","name":"part007_vertices#0_TANGENT"},{"bufferView":3,"byteOffset":22984,"componentType":5120,"count":20,"type":"VEC4","name":"part007_vertices#0_NORMAL"},{"bufferView":3,"byteOffset":22988,"componentType":5122,"count":20,"type":"VEC2","name":"part007_vertices#0_TEXCOORD_0"},{"bufferView":3,"byteOffset":22992,"componentType":5122,"count":20,"type":"VEC2","name":"part007_vertices#0_TEXCOORD_1"},{"bufferView":3,"byteOffset":22996,"componentType":5123,"count":20,"type":"VEC4","name":"part007_vertices#0_COLOR_0"},{"bufferView":4,"byteOffset":3876,"componentType":5123,"count":60,"type":"SCALAR","name":"part007_indices#0"},{"bufferView":3,"byteOffset":23688,"componentType":5126,"count":20,"min":[-0.06763000041246414,-0.20566999912261964,-0.21447999775409699],"max":[0.06763000041246414,0.2039099931716919,0.2161799967288971],"type":"VEC3","name":"part008_vertices#0_POSITION"},{"bufferView":3,"byteOffset":23700,"componentType":5120,"count":20,"type":"VEC4","name":"part008_vertices#0_TANGENT"},{"bufferView":3,"byteOffset":23704,"componentType":5120,"count":20,"type":"VEC4","name":"part008_vertices#0_NORMAL"},{"bufferView":3,"byteOffset":23708,"componentType":5122,"count":20,"type":"VEC2","name":"part008_vertices#0_TEXCOORD_0"},{"bufferView":3,"byteOffset":23712,"componentType":5122,"count":20,"type":"VEC2","name":"part008_vertices#0_TEXCOORD_1"},{"bufferView":3,"byteOffset":23716,"componentType":5123,"count":20,"type":"VEC4","name":"part008_vertices#0_COLOR_0"},{"bufferView":4,"byteOffset":3996,"componentType":5123,"count":48,"type":"SCALAR","name":"part008_indices#0"},{"bufferView":3,"byteOffset":24408,"componentType":5126,"count":20,"min":[-0.06763000041246414,-0.20566999912261964,-0.21447999775409699],"max":[0.06763000041246414,0.2039099931716919,0.2161799967288971],"type":"VEC3","name":"part009_vertices#0_POSITION"},{"bufferView":3,"byteOffset":24420,"componentType":5120,"count":20,"type":"VEC4","name":"part009_vertices#0_TANGENT"},{"bufferView":3,"byteOffset":24424,"componentType":5120,"count":20,"type":"VEC4","name":"part009_vertices#0_NORMAL"},{"bufferView":3,"byteOffset":24428,"componentType":5122,"count":20,"type":"VEC2","name":"part009_vertices#0_TEXCOORD_0"},{"bufferView":3,"byteOffset":24432,"componentType":5122,"count":20,"type":"VEC2","name":"part009_vertices#0_TEXCOORD_1"},{"bufferView":3,"byteOffset":24436,"componentType":5123,"count":20,"type":"VEC4","name":"part009_vertices#0_COLOR_0"},{"bufferView":4,"byteOffset":4092,"componentType":5123,"count":60,"type":"SCALAR","name":"part009_indices#0"},{"bufferView":3,"byteOffset":25128,"componentType":5126,"count":12,"min":[-0.994189977645874,-0.227060005068779,-0.10148999840021134],"max":[0.9929699897766113,0.2925899922847748,0.041749998927116397],"type":"VEC3","name":"part010_vertices#0_POSITION"},{"bufferView":3,"byteOffset":25140,"componentType":5120,"count":12,"type":"VEC4","name":"part010_vertices#0_TANGENT"},{"bufferView":3,"byteOffset":25144,"componentType":5120,"count":12,"type":"VEC4","name":"part010_vertices#0_NORMAL"},{"bufferView":3,"byteOffset":25148,"componentType":5122,"count":12,"type":"VEC2","name":"part010_vertices#0_TEXCOORD_0"},{"bufferView":3,"byteOffset":25152,"componentType":5122,"count":12,"type":"VEC2","name":"part010_vertices#0_TEXCOORD_1"},{"bufferView":3,"byteOffset":25156,"componentType":5123,"count":12,"type":"VEC4","name":"part010_vertices#0_COLOR_0"},{"bufferView":4,"byteOffset":4212,"componentType":5123,"count":24,"type":"SCALAR","name":"part010_indices#0"},{"bufferView":3,"byteOffset":25560,"componentType":5126,"count":12,"min":[-0.9929699897766113,-0.227060005068779,-0.10148999840021134],"max":[0.994189977645874,0.2925899922847748,0.041749998927116397],"type":"VEC3","name":"part011_vertices#0_POSITION"},{"bufferView":3,"byteOffset":25572,"componentType":5120,"count":12,"type":"VEC4","name":"part011_vertices#0_TANGENT"},{"bufferView":3,"byteOffset":25576,"componentType":5120,"count":12,"type":"VEC4","name":"part011_vertices#0_NORMAL"},{"bufferView":3,"byteOffset":25580,"componentType":5122,"count":12,"type":"VEC2","name":"part011_vertices#0_TEXCOORD_0"},{"bufferView":3,"byteOffset":25584,"componentType":5122,"count":12,"type":"VEC2","name":"part011_vertices#0_TEXCOORD_1"},{"bufferView":3,"byteOffset":25588,"componentType":5123,"count":12,"type":"VEC4","name":"part011_vertices#0_COLOR_0"},{"bufferView":4,"byteOffset":4260,"componentType":5123,"count":24,"type":"SCALAR","name":"part011_indices#0"}],"animations":[{"name":"engine0","channels":[{"sampler":0,"target":{"node":11,"path":"rotation"}},{"sampler":1,"target":{"node":13,"path":"rotation"}},{"sampler":2,"target":{"node":16,"path":"rotation"}}],"samplers":[{"input":0,"output":1,"interpolation":"LINEAR"},{"input":2,"output":3,"interpolation":"LINEAR"},{"input":4,"output":5,"interpolation":"LINEAR"}]},{"name":"c_tire_blurred_key","channels":[{"sampler":0,"target":{"node":19,"path":"rotation"}},{"sampler":1,"target":{"node":21,"path":"rotation"}}],"samplers":[{"input":6,"output":7,"interpolation":"LINEAR"},{"input":8,"output":9,"interpolation":"LINEAR"}]},{"name":"l_tire_blurred_key","channels":[{"sampler":0,"target":{"node":24,"path":"rotation"}},{"sampler":1,"target":{"node":26,"path":"rotation"}}],"samplers":[{"input":10,"output":11,"interpolation":"LINEAR"},{"input":12,"output":13,"interpolation":"LINEAR"}]},{"name":"r_tire_blurred_key","channels":[{"sampler":0,"target":{"node":29,"path":"rotation"}},{"sampler":1,"target":{"node":31,"path":"rotation"}}],"samplers":[{"input":14,"output":15,"interpolation":"LINEAR"},{"input":16,"output":17,"interpolation":"LINEAR"}]},{"name":"custom_anim_FLAPS_SML_GA","channels":[{"sampler":0,"target":{"node":33,"path":"translation"}},{"sampler":1,"target":{"node":35,"path":"rotation"}},{"sampler":2,"target":{"node":37,"path":"translation"}},{"sampler":3,"target":{"node":39,"path":"rotation"}}],"samplers":[{"input":18,"output":19,"interpolation":"LINEAR"},{"input":20,"output":21,"interpolation":"LINEAR"},{"input":22,"output":23,"interpolation":"LINEAR"},{"input":24,"output":25,"interpolation":"LINEAR"}]}],"asset":{"generator":"ModelConverterX","version":"2.0","extensions":{"ASOBO_asset_optimized":{"BoundingBoxMax":[5.483610153198242,1.504699945449829,2.306879997253418],"BoundingBoxMin":[-5.483610153198242,-1.0240600109100342,-6.120910167694092],"MajorVersion":4,"MinorVersion":4,"UseCheckerboardMaterialForMissingTextures":true,"UseOnlyFilenameForImageURI":true}}},"bufferViews":[{"buffer":0,"byteLength":212,"byteStride":4},{"buffer":0,"byteLength":48,"byteStride":12,"byteOffset":212},{"buffer":0,"byteLength":784,"byteStride":16,"byteOffset":260},{"buffer":0,"byteLength":25992,"byteStride":36,"byteOffset":1044,"target":34962,"name":"BufferViewVertexND"},{"buffer":0,"byteLength":4308,"byteOffset":27036,"target":34963,"name":"BufferViewIndex"}],"extensionsRequired":["MSFT_texture_dds"],"materials":[{"name":"material00","pbrMetallicRoughness":{"baseColorFactor":[0.043136999011039737,0.043136999011039737,0.043136999011039737,1.0],"metallicFactor":0.0}},{"name":"material01","occlusionTexture":{"index":1},"emissiveTexture":{"index":2},"emissiveFactor":[0.019607843831181527,0.019607843831181527,0.019607843831181527],"pbrMetallicRoughness":{"baseColorTexture":{"index":0},"metallicRoughnessTexture":{"index":1}},"extensions":{"ASOBO_material_day_night_switch":{}}},{"name":"material02","alphaMode":"BLEND","pbrMetallicRoughness":{"baseColorFactor":[0.0,0.0,0.0,1.0],"metallicFactor":0.0,"baseColorTexture":{"index":3}}}],"meshes":[{"primitives":[{"attributes":{"COLOR_0":31,"NORMAL":28,"POSITION":26,"TANGENT":27,"TEXCOORD_0":29,"TEXCOORD_1":30},"indices":32,"material":1,"mode":4,"extras":{"ASOBO_primitive":{"PrimitiveCount":500,"VertexType":"VTX","VertexVersion":2}}}],"name":"part000"},{"primitives":[{"attributes":{"COLOR_0":38,"NORMAL":35,"POSITION":33,"TANGENT":34,"TEXCOORD_0":36,"TEXCOORD_1":37},"indices":39,"material":2,"mode":4,"extras":{"ASOBO_primitive":{"PrimitiveCount":32,"VertexType":"VTX","VertexVersion":2}}}],"name":"part001"},{"primitives":[{"attributes":{"COLOR_0":45,"NORMAL":42,"POSITION":40,"TANGENT":41,"TEXCOORD_0":43,"TEXCOORD_1":44},"indices":46,"material":2,"mode":4,"extras":{"ASOBO_primitive":{"PrimitiveCount":32,"VertexType":"VTX","VertexVersion":2}}}],"name":"part002"},{"primitives":[{"attributes":{"COLOR_0":52,"NORMAL":49,"POSITION":47,"TANGENT":48,"TEXCOORD_0":50,"TEXCOORD_1":51},"indices":53,"material":1,"mode":4,"extras":{"ASOBO_primitive":{"PrimitiveCount":30,"VertexType":"VTX","VertexVersion":2}}}],"name":"part003"},{"primitives":[{"attributes":{"COLOR_0":59,"NORMAL":56,"POSITION":54,"TANGENT":55,"TEXCOORD_0":57,"TEXCOORD_1":58},"indices":60,"material":1,"mode":4,"extras":{"ASOBO_primitive":{"PrimitiveCount":16,"VertexType":"VTX","VertexVersion":2}}}],"name":"part004"},{"primitives":[{"attributes":{"COLOR_0":66,"NORMAL":63,"POSITION":61,"TANGENT":62,"TEXCOORD_0":64,"TEXCOORD_1":65},"indices":67,"material":0,"mode":4,"extras":{"ASOBO_primitive":{"PrimitiveCount":20,"VertexType":"VTX","VertexVersion":2}}}],"name":"part005"},{"primitives":[{"attributes":{"COLOR_0":73,"NORMAL":70,"POSITION":68,"TANGENT":69,"TEXCOORD_0":71,"TEXCOORD_1":72},"indices":74,"material":1,"mode":4,"extras":{"ASOBO_primitive":{"PrimitiveCount":16,"VertexType":"VTX","VertexVersion":2}}}],"name":"part006"},{"primitives":[{"attributes":{"COLOR_0":80,"NORMAL":77,"POSITION":75,"TANGENT":76,"TEXCOORD_0":78,"TEXCOORD_1":79},"indices":81,"material":0,"mode":4,"extras":{"ASOBO_primitive":{"PrimitiveCount":20,"VertexType":"VTX","VertexVersion":2}}}],"name":"part007"},{"primitives":[{"attributes":{"COLOR_0":87,"NORMAL":84,"POSITION":82,"TANGENT":83,"TEXCOORD_0":85,"TEXCOORD_1":86},"indices":88,"material":1,"mode":4,"extras":{"ASOBO_primitive":{"PrimitiveCount":16,"VertexType":"VTX","VertexVersion":2}}}],"name":"part008"},{"primitives":[{"attributes":{"COLOR_0":94,"NORMAL":91,"POSITION":89,"TANGENT":90,"TEXCOORD_0":92,"TEXCOORD_1":93},"indices":95,"material":0,"mode":4,"extras":{"ASOBO_primitive":{"PrimitiveCount":20,"VertexType":"VTX","VertexVersion":2}}}],"name":"part009"},{"primitives":[{"attributes":{"COLOR_0":101,"NORMAL":98,"POSITION":96,"TANGENT":97,"TEXCOORD_0":99,"TEXCOORD_1":100},"indices":102,"material":1,"mode":4,"extras":{"ASOBO_primitive":{"PrimitiveCount":8,"VertexType":"VTX","VertexVersion":2}}}],"name":"part010"},{"primitives":[{"attributes":{"COLOR_0":108,"NORMAL":105,"POSITION":103,"TANGENT":104,"TEXCOORD_0":106,"TEXCOORD_1":107},"indices":109,"material":1,"mode":4,"extras":{"ASOBO_primitive":{"PrimitiveCount":8,"VertexType":"VTX","VertexVersion":2}}}],"name":"part011"}],"nodes":[{"name":"node_0","children":[1,2,3,4,5,6,7,8]},{"mesh":0,"name":"node_10"},{"translation":[7.347638122934264e-16,0.0,-6.0],"rotation":[-6.123031769111886e-17,3.061515884555943e-17,1.0,1.874575902277672e-33],"scale":[1.0,1.0,1.0],"name":"contrail1"},{"translation":[2.8299999237060549,0.8199999928474425,0.340000003576279],"rotation":[-0.6427876096865393,0.0,0.0,0.766044443118978],"scale":[1.0,1.0,1.0],"name":"Taxi_Light"},{"translation":[2.9800000190734865,0.8299999833106996,0.33000001311302226],"rotation":[-0.7071067811865475,0.0,0.0,0.7071067811865475],"scale":[1.0,1.0,1.0],"name":"Landing_Light"},{"translation":[-1.4695276829806339e-16,-1.100000023841858,1.2000000476837159],"rotation":[-6.123031769111886e-17,3.061515884555943e-17,1.0,1.874575902277672e-33],"scale":[1.0,1.0,1.0],"name":"c_tire1"},{"translation":[1.2799999713897706,-1.149999976158142,-0.49999999999999986],"rotation":[-6.123031769111886e-17,3.061515884555943e-17,1.0,1.874575902277672e-33],"scale":[1.0,1.0,1.0],"name":"l_tire1"},{"translation":[-1.2799999713897706,-1.149999976158142,-0.5000000000000001],"rotation":[-6.123031769111886e-17,3.061515884555943e-17,1.0,1.874575902277672e-33],"scale":[1.0,1.0,1.0],"name":"r_tire1"},{"translation":[0.0,0.0,0.0],"rotation":[-4.329637285359677e-17,0.7071067811865475,0.7071067811865475,4.329637285359677e-17],"scale":[1.0,1.0,1.0],"name":"node_26","children":[9,14,17,22,27,32,36]},{"translation":[0.0,2.026479005813598,0.15636800229549409],"rotation":[0.0,0.0,0.0,1.0],"scale":[1.0,1.0,1.0],"name":"node_27","children":[10,12]},{"name":"prop0_blurred_VC","children":[11]},{"mesh":1,"name":"engine0_AN_VC"},{"name":"prop0_slow_VC","children":[13]},{"mesh":2,"name":"ENGINE0_AN_VC_1"},{"translation":[0.0,2.0231330394744875,0.17037199437618257],"rotation":[0.0,0.0,0.0,1.0],"scale":[1.0,1.0,1.0],"name":"node_45","children":[15]},{"name":"prop0_still_VC","children":[16]},{"mesh":3,"name":"ENGINE0_AN_VC_2"},{"translation":[0.0,1.25996196269989,-0.9347620010375976],"rotation":[0.0,0.0,0.0,1.0],"scale":[1.0,1.0,1.0],"name":"node_50","children":[18,20]},{"name":"node_51","children":[19]},{"mesh":4,"name":"c_tire_blurred_key_AN_51"},{"name":"node_52","children":[21]},{"mesh":5,"name":"c_tire_blurred_key_AN_52"},{"translation":[-1.2712390422821046,-0.44558900594711306,-0.9405530095100403],"rotation":[0.0,0.0,0.0,1.0],"scale":[1.0,1.0,1.0],"name":"node_55","children":[23,25]},{"name":"node_56","children":[24]},{"mesh":6,"name":"l_tire_blurred_key_AN_56"},{"name":"node_57","children":[26]},{"mesh":7,"name":"l_tire_blurred_key_AN_57"},{"translation":[1.2712390422821046,-0.44558900594711306,-0.9405530095100403],"rotation":[0.0,0.0,0.0,1.0],"scale":[1.0,1.0,1.0],"name":"node_60","children":[28,30]},{"name":"node_61","children":[29]},{"mesh":8,"name":"r_tire_blurred_key_AN_61"},{"name":"node_62","children":[31]},{"mesh":9,"name":"r_tire_blurred_key_AN_62"},{"name":"node_74","children":[33]},{"name":"custom_anim_FLAPS_SML_GA_AN_74","children":[34]},{"name":"node_75","children":[35]},{"mesh":10,"name":"custom_anim_FLAPS_SML_GA_AN_75"},{"name":"node_80","children":[37]},{"name":"custom_anim_FLAPS_SML_GA_AN_80","children":[38]},{"name":"node_81","children":[39]},{"mesh":11,"name":"custom_anim_FLAPS_SML_GA_AN_81"}],"scene":0,"scenes":[{"nodes":[0]}],"textures":[{"extensions":{"MSFT_texture_dds":{"source":0}}},{"extensions":{"MSFT_texture_dds":{"source":1}}},{"extensions":{"MSFT_texture_dds":{"source":2}}},{"extensions":{"MSFT_texture_dds":{"source":3}}}],"extensionsUsed":["ASOBO_material_day_night_switch","MSFT_texture_dds","ASOBO_asset_optimized"],"buffers":[{"byteLength":31344,"uri":"HTAI Cessna 182 Skylane Late WP MSFS_LOD2.bin"}],"images":[{"uri":"HTAI_C182.PNG.DDS","extras":"ASOBO_image_converted_meta"},{"uri":"HTAI_C182_C.PNG.DDS","extras":"ASOBO_image_converted_meta"},{"uri":"HTAI_C182_L.PNG.DDS","extras":"ASOBO_image_converted_meta"},{"uri":"PROP-HS.PNG.DDS","extras":"ASOBO_image_converted_meta"}]}
