{"accessors":[{"bufferView":0,"componentType":5126,"count":3,"min":[0.0],"max":[770.0],"type":"SCALAR"},{"bufferView":1,"componentType":5126,"count":3,"type":"VEC4"},{"bufferView":0,"byteOffset":12,"componentType":5126,"count":2,"min":[0.0],"max":[500.0],"type":"SCALAR"},{"bufferView":1,"byteOffset":48,"componentType":5126,"count":2,"type":"VEC4"},{"bufferView":0,"byteOffset":20,"componentType":5126,"count":3,"min":[0.0],"max":[770.0],"type":"SCALAR"},{"bufferView":1,"byteOffset":80,"componentType":5126,"count":3,"type":"VEC4"},{"bufferView":0,"byteOffset":32,"componentType":5126,"count":2,"min":[0.0],"max":[100.0],"type":"SCALAR"},{"bufferView":1,"byteOffset":128,"componentType":5126,"count":2,"type":"VEC4"},{"bufferView":0,"byteOffset":40,"componentType":5126,"count":2,"min":[0.0],"max":[100.0],"type":"SCALAR"},{"bufferView":1,"byteOffset":160,"componentType":5126,"count":2,"type":"VEC4"},{"bufferView":0,"byteOffset":48,"componentType":5126,"count":2,"min":[0.0],"max":[500.0],"type":"SCALAR"},{"bufferView":1,"byteOffset":192,"componentType":5126,"count":2,"type":"VEC4"},{"bufferView":0,"byteOffset":56,"componentType":5126,"count":2,"min":[0.0],"max":[100.0],"type":"SCALAR"},{"bufferView":1,"byteOffset":224,"componentType":5126,"count":2,"type":"VEC4"},{"bufferView":0,"byteOffset":64,"componentType":5126,"count":2,"min":[0.0],"max":[100.0],"type":"SCALAR"},{"bufferView":1,"byteOffset":256,"componentType":5126,"count":2,"type":"VEC4"},{"bufferView":2,"componentType":5126,"count":84,"min":[-36.62799835205078,-34.528011322021487,-4.808000087738037],"max":[36.62799835205078,26.776010513305665,14.956009864807129],"type":"VEC3","name":"part000_vertices#0_POSITION"},{"bufferView":2,"byteOffset":12,"componentType":5120,"count":84,"type":"VEC4","name":"part000_vertices#0_TANGENT"},{"bufferView":2,"byteOffset":16,"componentType":5120,"count":84,"type":"VEC4","name":"part000_vertices#0_NORMAL"},{"bufferView":2,"byteOffset":20,"componentType":5122,"count":84,"type":"VEC2","name":"part000_vertices#0_TEXCOORD_0"},{"bufferView":2,"byteOffset":24,"componentType":5122,"count":84,"type":"VEC2","name":"part000_vertices#0_TEXCOORD_1"},{"bufferView":2,"byteOffset":28,"componentType":5123,"count":84,"type":"VEC4","name":"part000_vertices#0_COLOR_0"},{"bufferView":3,"componentType":5123,"count":138,"type":"SCALAR","name":"part000_indices#0"},{"bufferView":2,"byteOffset":3024,"componentType":5126,"count":10,"min":[-3.5880000591278078,-2.0880000591278078,-6.304999828338623],"max":[3.5880000591278078,7.995999813079834,1.746999979019165],"type":"VEC3","name":"part001_vertices#0_POSITION"},{"bufferView":2,"byteOffset":3036,"componentType":5120,"count":10,"type":"VEC4","name":"part001_vertices#0_TANGENT"},{"bufferView":2,"byteOffset":3040,"componentType":5120,"count":10,"type":"VEC4","name":"part001_vertices#0_NORMAL"},{"bufferView":2,"byteOffset":3044,"componentType":5122,"count":10,"type":"VEC2","name":"part001_vertices#0_TEXCOORD_0"},{"bufferView":2,"byteOffset":3048,"componentType":5122,"count":10,"type":"VEC2","name":"part001_vertices#0_TEXCOORD_1"},{"bufferView":2,"byteOffset":3052,"componentType":5123,"count":10,"type":"VEC4","name":"part001_vertices#0_COLOR_0"},{"bufferView":3,"byteOffset":276,"componentType":5123,"count":18,"type":"SCALAR","name":"part001_indices#0"}],"animations":[{"name":"AN124_nose","channels":[{"sampler":0,"target":{"node":10,"path":"rotation"}},{"sampler":1,"target":{"node":12,"path":"rotation"}},{"sampler":2,"target":{"node":16,"path":"rotation"}},{"sampler":3,"target":{"node":25,"path":"rotation"}}],"samplers":[{"input":0,"output":1,"interpolation":"LINEAR"},{"input":2,"output":3,"interpolation":"LINEAR"},{"input":4,"output":5,"interpolation":"LINEAR"},{"input":10,"output":11,"interpolation":"LINEAR"}]},{"name":"landing_light","channels":[{"sampler":0,"target":{"node":18,"path":"rotation"}},{"sampler":1,"target":{"node":21,"path":"rotation"}},{"sampler":2,"target":{"node":27,"path":"rotation"}},{"sampler":3,"target":{"node":32,"path":"rotation"}}],"samplers":[{"input":6,"output":7,"interpolation":"LINEAR"},{"input":8,"output":9,"interpolation":"LINEAR"},{"input":12,"output":13,"interpolation":"LINEAR"},{"input":14,"output":15,"interpolation":"LINEAR"}]}],"asset":{"generator":"ModelConverterX","version":"2.0","extensions":{"ASOBO_asset_optimized":{"BoundingBoxMax":[36.62799835205078,26.776010513305665,14.956009864807129],"BoundingBoxMin":[-36.62799835205078,-34.528011322021487,-6.304999828338623],"MajorVersion":4,"MinorVersion":4,"UseCheckerboardMaterialForMissingTextures":true,"UseOnlyFilenameForImageURI":true}}},"bufferViews":[{"buffer":0,"byteLength":72,"byteStride":4},{"buffer":0,"byteLength":288,"byteStride":16,"byteOffset":72},{"buffer":0,"byteLength":3384,"byteStride":36,"byteOffset":360,"target":34962,"name":"BufferViewVertexND"},{"buffer":0,"byteLength":312,"byteOffset":3744,"target":34963,"name":"BufferViewIndex"}],"extensionsRequired":["MSFT_texture_dds"],"materials":[{"name":"material00","occlusionTexture":{"index":1},"emissiveTexture":{"index":2},"emissiveFactor":[0.019607843831181527,0.019607843831181527,0.019607843831181527],"pbrMetallicRoughness":{"baseColorTexture":{"index":0},"metallicRoughnessTexture":{"index":1}},"extensions":{"ASOBO_material_day_night_switch":{}}}],"meshes":[{"primitives":[{"attributes":{"COLOR_0":21,"NORMAL":18,"POSITION":16,"TANGENT":17,"TEXCOORD_0":19,"TEXCOORD_1":20},"indices":22,"material":0,"mode":4,"extras":{"ASOBO_primitive":{"PrimitiveCount":46,"VertexType":"VTX","VertexVersion":2}}}],"name":"part000"},{"primitives":[{"attributes":{"COLOR_0":28,"NORMAL":25,"POSITION":23,"TANGENT":24,"TEXCOORD_0":26,"TEXCOORD_1":27},"indices":29,"material":0,"mode":4,"extras":{"ASOBO_primitive":{"PrimitiveCount":6,"VertexType":"VTX","VertexVersion":2}}}],"name":"part001"}],"nodes":[{"name":"node_0","children":[1,2,3,4,5,6,7,8]},{"translation":[-4.0,-5.5,-2.2000000476837164],"rotation":[-6.123031769111886e-17,0.0,1.0,0.0],"scale":[1.0,1.0,1.0],"name":"r_tire1"},{"translation":[4.0,-5.5,-2.2000000476837155],"rotation":[-6.123031769111886e-17,0.0,1.0,0.0],"scale":[1.0,1.0,1.0],"name":"l_tire1"},{"translation":[-17.43000030517578,-1.5,3.7000000476837138],"rotation":[-6.123031769111886e-17,0.0,1.0,0.0],"scale":[1.0,1.0,1.0],"name":"contrail4"},{"translation":[17.43000030517578,-1.5,3.700000047683718],"rotation":[-6.123031769111886e-17,0.0,1.0,0.0],"scale":[1.0,1.0,1.0],"name":"contrail1"},{"translation":[-9.850000381469729,-1.0,7.999999999999998],"rotation":[-6.123031769111886e-17,0.0,1.0,0.0],"scale":[1.0,1.0,1.0],"name":"contrail3"},{"translation":[9.850000381469725,-1.0,8.000000000000002],"rotation":[-6.123031769111886e-17,0.0,1.0,0.0],"scale":[1.0,1.0,1.0],"name":"contrail2"},{"translation":[-2.939055249173706e-15,-5.5,24.0],"rotation":[-6.123031769111886e-17,0.0,1.0,0.0],"scale":[1.0,1.0,1.0],"name":"c_tire1"},{"translation":[0.0,0.0,0.0],"rotation":[-4.329637285359677e-17,0.7071067811865475,0.7071067811865475,4.329637285359677e-17],"scale":[1.0,1.0,1.0],"name":"node_9","children":[9,15]},{"name":"node_10","children":[10]},{"mesh":0,"name":"AN124_nose_AN_10","children":[11,13,14]},{"translation":[0.0,26.552000045776368,2.3610000610351564],"rotation":[0.0,0.0,0.0,1.0],"scale":[1.0,1.0,1.0],"name":"node_11","children":[12]},{"mesh":1,"name":"AN124_nose_AN_11"},{"translation":[12.5,-32.29999923706055,2.299999952316284],"rotation":[0.657904109574971,0.2591556087068023,0.5295918481263003,-0.4685429023278454],"scale":[1.0,1.0,1.0],"name":"logo_r"},{"translation":[-12.5,-32.29999923706055,2.299999952316284],"rotation":[-0.657904109574971,0.2591556087068023,0.5295918481263003,0.4685429023278454],"scale":[1.0,1.0,1.0],"name":"logo_l"},{"name":"node_1340","children":[16]},{"name":"AN124_nose_AN_1340","children":[17,20,24,36,37,38,39,40,41,42,43,44,45]},{"translation":[13.694000244140624,0.18637500703334809,1.1591449975967408],"rotation":[0.0,0.0,0.0,1.0],"scale":[1.0,1.0,1.0],"name":"node_1424","children":[18]},{"name":"landing_light_AN_1424","children":[19]},{"translation":[0.013815999962389468,0.11362499743700028,-0.12662799656391145],"rotation":[0.6625207443167117,-0.014813946074459036,0.748585149107895,0.021612102106951186],"scale":[1.0,1.0,1.0],"name":"landing_wing_r"},{"translation":[-13.694000244140624,0.18637500703334809,1.1591449975967408],"rotation":[0.0,0.0,0.0,1.0],"scale":[1.0,1.0,1.0],"name":"node_1426","children":[21]},{"name":"landing_light_AN_1426","children":[22]},{"translation":[0.0014649999793618916,0.04808000102639198,-0.1247519999742508],"rotation":[-0.5282034286874756,0.4697680327352368,0.4673147351153534,0.5309764618406552],"scale":[1.0,1.0,1.0],"name":"node_1427","children":[23]},{"translation":[0.0,0.0,0.0],"rotation":[-0.7071067811865475,0.0,0.0,0.7071067811865475],"scale":[1.0,1.0,1.0],"name":"landing_wing_l"},{"translation":[0.0,26.552000045776368,2.3610000610351564],"rotation":[0.0,0.0,0.0,1.0],"scale":[1.0,1.0,1.0],"name":"node_1504","children":[25]},{"name":"AN124_nose_AN_1504","children":[26,31]},{"translation":[2.178999900817871,2.8469998836517336,-5.183000087738037],"rotation":[0.0,0.0,0.0,1.0],"scale":[1.0,1.0,1.0],"name":"node_1506","children":[27]},{"name":"landing_light_AN_1506","children":[28]},{"translation":[0.0,0.05999999865889549,-0.12999999523162843],"rotation":[0.0,0.7071067811865475,0.7071067811865475,0.0],"scale":[1.0,1.0,1.0],"name":"node_1507","children":[29,30]},{"translation":[0.0,0.0,0.0],"rotation":[-0.7071067811865475,0.0,0.0,0.7071067811865475],"scale":[1.0,1.0,1.0],"name":"taxi_nose_r"},{"translation":[0.0,0.0,0.0],"rotation":[-0.7071067811865475,0.0,0.0,0.7071067811865475],"scale":[1.0,1.0,1.0],"name":"landing_nose_r"},{"translation":[-2.178999900817871,2.8469998836517336,-5.183000087738037],"rotation":[0.0,0.0,0.0,1.0],"scale":[1.0,1.0,1.0],"name":"node_1510","children":[32]},{"name":"landing_light_AN_1510","children":[33]},{"translation":[0.0,0.05999999865889549,-0.12999999523162843],"rotation":[0.0,0.7071067811865475,0.7071067811865475,0.0],"scale":[1.0,1.0,1.0],"name":"node_1511","children":[34,35]},{"translation":[0.0,0.0,0.0],"rotation":[-0.7071067811865475,0.0,0.0,0.7071067811865475],"scale":[1.0,1.0,1.0],"name":"taxi_nose_l"},{"translation":[0.0,0.0,0.0],"rotation":[-0.7071067811865475,0.0,0.0,0.7071067811865475],"scale":[1.0,1.0,1.0],"name":"landing_nose_l"},{"translation":[-1.899999976158142,20.0,2.0],"rotation":[0.7071067811865475,0.0,0.0,0.7071067811865475],"scale":[1.0,1.0,1.0],"name":"interior5l"},{"translation":[1.899999976158142,20.0,2.0],"rotation":[0.7071067811865475,0.0,0.0,0.7071067811865475],"scale":[1.0,1.0,1.0],"name":"interior5r"},{"translation":[-1.899999976158142,15.0,2.0],"rotation":[0.7071067811865475,0.0,0.0,0.7071067811865475],"scale":[1.0,1.0,1.0],"name":"interior4l"},{"translation":[1.899999976158142,15.0,2.0],"rotation":[0.7071067811865475,0.0,0.0,0.7071067811865475],"scale":[1.0,1.0,1.0],"name":"interior4r"},{"translation":[1.899999976158142,10.0,2.0],"rotation":[0.7071067811865475,0.0,0.0,0.7071067811865475],"scale":[1.0,1.0,1.0],"name":"interior3r"},{"translation":[-1.899999976158142,5.0,2.0],"rotation":[0.7071067811865475,0.0,0.0,0.7071067811865475],"scale":[1.0,1.0,1.0],"name":"interior2l"},{"translation":[-1.850000023841858,-5.0,2.0],"rotation":[0.7071067811865475,0.0,0.0,0.7071067811865475],"scale":[1.0,1.0,1.0],"name":"interior1l"},{"translation":[-1.899999976158142,10.0,2.0],"rotation":[0.7071067811865475,0.0,0.0,0.7071067811865475],"scale":[1.0,1.0,1.0],"name":"interior3l"},{"translation":[1.899999976158142,5.0,2.0],"rotation":[0.7071067811865475,0.0,0.0,0.7071067811865475],"scale":[1.0,1.0,1.0],"name":"interior2r"},{"translation":[1.850000023841858,-5.0,2.0],"rotation":[0.7071067811865475,0.0,0.0,0.7071067811865475],"scale":[1.0,1.0,1.0],"name":"interior1r"}],"scene":0,"scenes":[{"nodes":[0]}],"textures":[{"extensions":{"MSFT_texture_dds":{"source":0}}},{"extensions":{"MSFT_texture_dds":{"source":1}}},{"extensions":{"MSFT_texture_dds":{"source":2}}}],"extensionsUsed":["ASOBO_material_day_night_switch","MSFT_texture_dds","ASOBO_asset_optimized"],"buffers":[{"byteLength":4056,"uri":"AIG_An-124-100_TL_ON_MSFS_LOD10.bin"}],"images":[{"uri":"AIG_AN124.PNG.DDS","extras":"ASOBO_image_converted_meta"},{"uri":"AIG_AN124_C.PNG.DDS","extras":"ASOBO_image_converted_meta"},{"uri":"AIG_AN124_L.PNG.DDS","extras":"ASOBO_image_converted_meta"}]}
