{"accessors":[{"bufferView":0,"componentType":5126,"count":3,"min":[0.0],"max":[770.0],"type":"SCALAR"},{"bufferView":1,"componentType":5126,"count":3,"type":"VEC4"},{"bufferView":0,"byteOffset":12,"componentType":5126,"count":2,"min":[0.0],"max":[500.0],"type":"SCALAR"},{"bufferView":1,"byteOffset":48,"componentType":5126,"count":2,"type":"VEC4"},{"bufferView":0,"byteOffset":20,"componentType":5126,"count":4,"min":[0.0],"max":[1024.0],"type":"SCALAR"},{"bufferView":1,"byteOffset":80,"componentType":5126,"count":4,"type":"VEC4"},{"bufferView":0,"byteOffset":36,"componentType":5126,"count":4,"min":[0.0],"max":[1024.0],"type":"SCALAR"},{"bufferView":1,"byteOffset":144,"componentType":5126,"count":4,"type":"VEC4"},{"bufferView":0,"byteOffset":52,"componentType":5126,"count":5,"min":[0.0],"max":[1024.0],"type":"SCALAR"},{"bufferView":1,"byteOffset":208,"componentType":5126,"count":5,"type":"VEC4"},{"bufferView":0,"byteOffset":72,"componentType":5126,"count":3,"min":[0.0],"max":[770.0],"type":"SCALAR"},{"bufferView":1,"byteOffset":288,"componentType":5126,"count":3,"type":"VEC4"},{"bufferView":0,"byteOffset":84,"componentType":5126,"count":3,"min":[0.0],"max":[770.0],"type":"SCALAR"},{"bufferView":1,"byteOffset":336,"componentType":5126,"count":3,"type":"VEC4"},{"bufferView":0,"byteOffset":96,"componentType":5126,"count":3,"min":[0.0],"max":[770.0],"type":"SCALAR"},{"bufferView":1,"byteOffset":384,"componentType":5126,"count":3,"type":"VEC4"},{"bufferView":0,"byteOffset":108,"componentType":5126,"count":2,"min":[0.0],"max":[100.0],"type":"SCALAR"},{"bufferView":1,"byteOffset":432,"componentType":5126,"count":2,"type":"VEC4"},{"bufferView":0,"byteOffset":116,"componentType":5126,"count":2,"min":[0.0],"max":[100.0],"type":"SCALAR"},{"bufferView":1,"byteOffset":464,"componentType":5126,"count":2,"type":"VEC4"},{"bufferView":0,"byteOffset":124,"componentType":5126,"count":2,"min":[0.0],"max":[500.0],"type":"SCALAR"},{"bufferView":1,"byteOffset":496,"componentType":5126,"count":2,"type":"VEC4"},{"bufferView":0,"byteOffset":132,"componentType":5126,"count":2,"min":[0.0],"max":[100.0],"type":"SCALAR"},{"bufferView":1,"byteOffset":528,"componentType":5126,"count":2,"type":"VEC4"},{"bufferView":0,"byteOffset":140,"componentType":5126,"count":2,"min":[0.0],"max":[100.0],"type":"SCALAR"},{"bufferView":1,"byteOffset":560,"componentType":5126,"count":2,"type":"VEC4"},{"bufferView":2,"componentType":5126,"count":18,"min":[-3.5880000591278078,-2.0880000591278078,-6.304999828338623],"max":[3.5880000591278078,7.995999813079834,0.17900000512599946],"type":"VEC3","name":"part000_vertices#0_POSITION"},{"bufferView":2,"byteOffset":12,"componentType":5120,"count":18,"type":"VEC4","name":"part000_vertices#0_TANGENT"},{"bufferView":2,"byteOffset":16,"componentType":5120,"count":18,"type":"VEC4","name":"part000_vertices#0_NORMAL"},{"bufferView":2,"byteOffset":20,"componentType":5122,"count":18,"type":"VEC2","name":"part000_vertices#0_TEXCOORD_0"},{"bufferView":2,"byteOffset":24,"componentType":5122,"count":18,"type":"VEC2","name":"part000_vertices#0_TEXCOORD_1"},{"bufferView":2,"byteOffset":28,"componentType":5123,"count":18,"type":"VEC4","name":"part000_vertices#0_COLOR_0"},{"bufferView":3,"componentType":5123,"count":48,"type":"SCALAR","name":"part000_indices#0"},{"bufferView":2,"byteOffset":648,"componentType":5126,"count":4,"min":[-3.111999988555908,-0.0016499999910593033,0.1151600033044815],"max":[3.111999988555908,3.767210006713867,0.11720000207424164],"type":"VEC3","name":"part001_vertices#0_POSITION"},{"bufferView":2,"byteOffset":660,"componentType":5120,"count":4,"type":"VEC4","name":"part001_vertices#0_TANGENT"},{"bufferView":2,"byteOffset":664,"componentType":5120,"count":4,"type":"VEC4","name":"part001_vertices#0_NORMAL"},{"bufferView":2,"byteOffset":668,"componentType":5122,"count":4,"type":"VEC2","name":"part001_vertices#0_TEXCOORD_0"},{"bufferView":2,"byteOffset":672,"componentType":5122,"count":4,"type":"VEC2","name":"part001_vertices#0_TEXCOORD_1"},{"bufferView":2,"byteOffset":676,"componentType":5123,"count":4,"type":"VEC4","name":"part001_vertices#0_COLOR_0"},{"bufferView":3,"byteOffset":96,"componentType":5123,"count":6,"type":"SCALAR","name":"part001_indices#0"},{"bufferView":2,"byteOffset":792,"componentType":5126,"count":4,"min":[-3.111999988555908,-0.0033199999015778305,0.039820000529289249],"max":[3.111999988555908,2.75531005859375,0.04131999984383583],"type":"VEC3","name":"part002_vertices#0_POSITION"},{"bufferView":2,"byteOffset":804,"componentType":5120,"count":4,"type":"VEC4","name":"part002_vertices#0_TANGENT"},{"bufferView":2,"byteOffset":808,"componentType":5120,"count":4,"type":"VEC4","name":"part002_vertices#0_NORMAL"},{"bufferView":2,"byteOffset":812,"componentType":5122,"count":4,"type":"VEC2","name":"part002_vertices#0_TEXCOORD_0"},{"bufferView":2,"byteOffset":816,"componentType":5122,"count":4,"type":"VEC2","name":"part002_vertices#0_TEXCOORD_1"},{"bufferView":2,"byteOffset":820,"componentType":5123,"count":4,"type":"VEC4","name":"part002_vertices#0_COLOR_0"},{"bufferView":3,"byteOffset":108,"componentType":5123,"count":6,"type":"SCALAR","name":"part002_indices#0"},{"bufferView":2,"byteOffset":936,"componentType":5126,"count":4,"min":[-3.111999988555908,0.0007099999929778278,-0.0544699989259243],"max":[3.111999988555908,2.6311099529266359,0.03488000109791756],"type":"VEC3","name":"part003_vertices#0_POSITION"},{"bufferView":2,"byteOffset":948,"componentType":5120,"count":4,"type":"VEC4","name":"part003_vertices#0_TANGENT"},{"bufferView":2,"byteOffset":952,"componentType":5120,"count":4,"type":"VEC4","name":"part003_vertices#0_NORMAL"},{"bufferView":2,"byteOffset":956,"componentType":5122,"count":4,"type":"VEC2","name":"part003_vertices#0_TEXCOORD_0"},{"bufferView":2,"byteOffset":960,"componentType":5122,"count":4,"type":"VEC2","name":"part003_vertices#0_TEXCOORD_1"},{"bufferView":2,"byteOffset":964,"componentType":5123,"count":4,"type":"VEC4","name":"part003_vertices#0_COLOR_0"},{"bufferView":3,"byteOffset":120,"componentType":5123,"count":6,"type":"SCALAR","name":"part003_indices#0"},{"bufferView":2,"byteOffset":1080,"componentType":5126,"count":352,"min":[-36.62799835205078,-34.528011322021487,-4.808000087738037],"max":[36.62799835205078,28.923999786376954,14.947999954223633],"type":"VEC3","name":"part004_vertices#0_POSITION"},{"bufferView":2,"byteOffset":1092,"componentType":5120,"count":352,"type":"VEC4","name":"part004_vertices#0_TANGENT"},{"bufferView":2,"byteOffset":1096,"componentType":5120,"count":352,"type":"VEC4","name":"part004_vertices#0_NORMAL"},{"bufferView":2,"byteOffset":1100,"componentType":5122,"count":352,"type":"VEC2","name":"part004_vertices#0_TEXCOORD_0"},{"bufferView":2,"byteOffset":1104,"componentType":5122,"count":352,"type":"VEC2","name":"part004_vertices#0_TEXCOORD_1"},{"bufferView":2,"byteOffset":1108,"componentType":5123,"count":352,"type":"VEC4","name":"part004_vertices#0_COLOR_0"},{"bufferView":3,"byteOffset":132,"componentType":5123,"count":834,"type":"SCALAR","name":"part004_indices#0"},{"bufferView":2,"byteOffset":13752,"componentType":5126,"count":9,"min":[-2.9719998836517336,-6.828000068664551,-2.7160000801086427],"max":[2.9719998836517336,26.55600929260254,2.364000082015991],"type":"VEC3","name":"part005_vertices#0_POSITION"},{"bufferView":2,"byteOffset":13764,"componentType":5120,"count":9,"type":"VEC4","name":"part005_vertices#0_TANGENT"},{"bufferView":2,"byteOffset":13768,"componentType":5120,"count":9,"type":"VEC4","name":"part005_vertices#0_NORMAL"},{"bufferView":2,"byteOffset":13772,"componentType":5122,"count":9,"type":"VEC2","name":"part005_vertices#0_TEXCOORD_0"},{"bufferView":2,"byteOffset":13776,"componentType":5122,"count":9,"type":"VEC2","name":"part005_vertices#0_TEXCOORD_1"},{"bufferView":2,"byteOffset":13780,"componentType":5123,"count":9,"type":"VEC4","name":"part005_vertices#0_COLOR_0"},{"bufferView":3,"byteOffset":1800,"componentType":5123,"count":9,"type":"SCALAR","name":"part005_indices#0"}],"animations":[{"name":"AN124_nose","channels":[{"sampler":0,"target":{"node":10,"path":"rotation"}},{"sampler":1,"target":{"node":12,"path":"rotation"}},{"sampler":2,"target":{"node":14,"path":"rotation"}},{"sampler":3,"target":{"node":16,"path":"rotation"}},{"sampler":4,"target":{"node":18,"path":"rotation"}},{"sampler":5,"target":{"node":22,"path":"rotation"}},{"sampler":6,"target":{"node":24,"path":"rotation"}},{"sampler":7,"target":{"node":26,"path":"rotation"}},{"sampler":8,"target":{"node":35,"path":"rotation"}}],"samplers":[{"input":0,"output":1,"interpolation":"LINEAR"},{"input":2,"output":3,"interpolation":"LINEAR"},{"input":4,"output":5,"interpolation":"LINEAR"},{"input":6,"output":7,"interpolation":"LINEAR"},{"input":8,"output":9,"interpolation":"LINEAR"},{"input":10,"output":11,"interpolation":"LINEAR"},{"input":12,"output":13,"interpolation":"LINEAR"},{"input":14,"output":15,"interpolation":"LINEAR"},{"input":20,"output":21,"interpolation":"LINEAR"}]},{"name":"landing_light","channels":[{"sampler":0,"target":{"node":28,"path":"rotation"}},{"sampler":1,"target":{"node":31,"path":"rotation"}},{"sampler":2,"target":{"node":37,"path":"rotation"}},{"sampler":3,"target":{"node":42,"path":"rotation"}}],"samplers":[{"input":16,"output":17,"interpolation":"LINEAR"},{"input":18,"output":19,"interpolation":"LINEAR"},{"input":22,"output":23,"interpolation":"LINEAR"},{"input":24,"output":25,"interpolation":"LINEAR"}]}],"asset":{"generator":"ModelConverterX","version":"2.0","extensions":{"ASOBO_asset_optimized":{"BoundingBoxMax":[36.62799835205078,28.923999786376954,14.947999954223633],"BoundingBoxMin":[-36.62799835205078,-34.528011322021487,-6.304999828338623],"MajorVersion":4,"MinorVersion":4,"UseCheckerboardMaterialForMissingTextures":true,"UseOnlyFilenameForImageURI":true}}},"bufferViews":[{"buffer":0,"byteLength":148,"byteStride":4},{"buffer":0,"byteLength":592,"byteStride":16,"byteOffset":148},{"buffer":0,"byteLength":14076,"byteStride":36,"byteOffset":740,"target":34962,"name":"BufferViewVertexND"},{"buffer":0,"byteLength":1818,"byteOffset":14816,"target":34963,"name":"BufferViewIndex"}],"extensionsRequired":["MSFT_texture_dds"],"materials":[{"name":"material00","occlusionTexture":{"index":1},"emissiveTexture":{"index":2},"emissiveFactor":[0.019607843831181527,0.019607843831181527,0.019607843831181527],"pbrMetallicRoughness":{"baseColorTexture":{"index":0},"metallicRoughnessTexture":{"index":1}},"extensions":{"ASOBO_material_day_night_switch":{}}},{"name":"material01","occlusionTexture":{"index":4},"pbrMetallicRoughness":{"baseColorTexture":{"index":3},"metallicRoughnessTexture":{"index":4}}}],"meshes":[{"primitives":[{"attributes":{"COLOR_0":31,"NORMAL":28,"POSITION":26,"TANGENT":27,"TEXCOORD_0":29,"TEXCOORD_1":30},"indices":32,"material":0,"mode":4,"extras":{"ASOBO_primitive":{"PrimitiveCount":16,"VertexType":"VTX","VertexVersion":2}}}],"name":"part000"},{"primitives":[{"attributes":{"COLOR_0":38,"NORMAL":35,"POSITION":33,"TANGENT":34,"TEXCOORD_0":36,"TEXCOORD_1":37},"indices":39,"material":1,"mode":4,"extras":{"ASOBO_primitive":{"PrimitiveCount":2,"VertexType":"VTX","VertexVersion":2}}}],"name":"part001"},{"primitives":[{"attributes":{"COLOR_0":45,"NORMAL":42,"POSITION":40,"TANGENT":41,"TEXCOORD_0":43,"TEXCOORD_1":44},"indices":46,"material":1,"mode":4,"extras":{"ASOBO_primitive":{"PrimitiveCount":2,"VertexType":"VTX","VertexVersion":2}}}],"name":"part002"},{"primitives":[{"attributes":{"COLOR_0":52,"NORMAL":49,"POSITION":47,"TANGENT":48,"TEXCOORD_0":50,"TEXCOORD_1":51},"indices":53,"material":1,"mode":4,"extras":{"ASOBO_primitive":{"PrimitiveCount":2,"VertexType":"VTX","VertexVersion":2}}}],"name":"part003"},{"primitives":[{"attributes":{"COLOR_0":59,"NORMAL":56,"POSITION":54,"TANGENT":55,"TEXCOORD_0":57,"TEXCOORD_1":58},"indices":60,"material":0,"mode":4,"extras":{"ASOBO_primitive":{"PrimitiveCount":278,"VertexType":"VTX","VertexVersion":2}}}],"name":"part004"},{"primitives":[{"attributes":{"COLOR_0":66,"NORMAL":63,"POSITION":61,"TANGENT":62,"TEXCOORD_0":64,"TEXCOORD_1":65},"indices":67,"material":1,"mode":4,"extras":{"ASOBO_primitive":{"PrimitiveCount":3,"VertexType":"VTX","VertexVersion":2}}}],"name":"part005"}],"nodes":[{"name":"node_0","children":[1,2,3,4,5,6,7,8]},{"translation":[-4.0,-5.5,-2.2000000476837164],"rotation":[-6.123031769111886e-17,0.0,1.0,0.0],"scale":[1.0,1.0,1.0],"name":"r_tire1"},{"translation":[4.0,-5.5,-2.2000000476837155],"rotation":[-6.123031769111886e-17,0.0,1.0,0.0],"scale":[1.0,1.0,1.0],"name":"l_tire1"},{"translation":[-17.43000030517578,-1.5,3.7000000476837138],"rotation":[-6.123031769111886e-17,0.0,1.0,0.0],"scale":[1.0,1.0,1.0],"name":"contrail4"},{"translation":[17.43000030517578,-1.5,3.700000047683718],"rotation":[-6.123031769111886e-17,0.0,1.0,0.0],"scale":[1.0,1.0,1.0],"name":"contrail1"},{"translation":[-9.850000381469729,-1.0,7.999999999999998],"rotation":[-6.123031769111886e-17,0.0,1.0,0.0],"scale":[1.0,1.0,1.0],"name":"contrail3"},{"translation":[9.850000381469725,-1.0,8.000000000000002],"rotation":[-6.123031769111886e-17,0.0,1.0,0.0],"scale":[1.0,1.0,1.0],"name":"contrail2"},{"translation":[-2.939055249173706e-15,-5.5,24.0],"rotation":[-6.123031769111886e-17,0.0,1.0,0.0],"scale":[1.0,1.0,1.0],"name":"c_tire1"},{"translation":[0.0,0.0,0.0],"rotation":[-4.329637285359677e-17,0.7071067811865475,0.7071067811865475,4.329637285359677e-17],"scale":[1.0,1.0,1.0],"name":"node_9","children":[9,21,23,25]},{"name":"node_10","children":[10]},{"name":"AN124_nose_AN_10","children":[11,13,19,20]},{"translation":[0.0,26.552000045776368,2.3610000610351564],"rotation":[0.0,0.0,0.0,1.0],"scale":[1.0,1.0,1.0],"name":"node_43","children":[12]},{"mesh":0,"name":"AN124_nose_AN_43"},{"translation":[0.0,24.459999084472658,-3.0280001163482668],"rotation":[0.0,0.0,0.0,1.0],"scale":[1.0,1.0,1.0],"name":"node_56","children":[14]},{"mesh":1,"name":"AN124_nose_AN_56","children":[15]},{"translation":[0.0,3.7720000743865969,0.07500000298023224],"rotation":[0.0,0.0,0.0,1.0],"scale":[1.0,1.0,1.0],"name":"node_57","children":[16]},{"mesh":2,"name":"AN124_nose_AN_57","children":[17]},{"translation":[0.0,2.756999969482422,0.004999999888241291],"rotation":[0.0,0.0,0.0,1.0],"scale":[1.0,1.0,1.0],"name":"node_58","children":[18]},{"mesh":3,"name":"AN124_nose_AN_58"},{"translation":[12.5,-32.29999923706055,2.299999952316284],"rotation":[0.657904109574971,0.2591556087068023,0.5295918481263003,-0.4685429023278454],"scale":[1.0,1.0,1.0],"name":"logo_r"},{"translation":[-12.5,-32.29999923706055,2.299999952316284],"rotation":[-0.657904109574971,0.2591556087068023,0.5295918481263003,0.4685429023278454],"scale":[1.0,1.0,1.0],"name":"logo_l"},{"name":"node_866","children":[22]},{"mesh":4,"name":"AN124_nose_AN_866"},{"name":"node_867","children":[24]},{"mesh":5,"name":"AN124_nose_AN_867"},{"name":"node_1340","children":[26]},{"name":"AN124_nose_AN_1340","children":[27,30,34,46,47,48,49,50,51,52,53,54,55]},{"translation":[13.694000244140624,0.18637500703334809,1.1591449975967408],"rotation":[0.0,0.0,0.0,1.0],"scale":[1.0,1.0,1.0],"name":"node_1424","children":[28]},{"name":"landing_light_AN_1424","children":[29]},{"translation":[0.013815999962389468,0.11362499743700028,-0.12662799656391145],"rotation":[0.6625207443167117,-0.014813946074459036,0.748585149107895,0.021612102106951186],"scale":[1.0,1.0,1.0],"name":"landing_wing_r"},{"translation":[-13.694000244140624,0.18637500703334809,1.1591449975967408],"rotation":[0.0,0.0,0.0,1.0],"scale":[1.0,1.0,1.0],"name":"node_1426","children":[31]},{"name":"landing_light_AN_1426","children":[32]},{"translation":[0.0014649999793618916,0.04808000102639198,-0.1247519999742508],"rotation":[-0.5282034286874756,0.4697680327352368,0.4673147351153534,0.5309764618406552],"scale":[1.0,1.0,1.0],"name":"node_1427","children":[33]},{"translation":[0.0,0.0,0.0],"rotation":[-0.7071067811865475,0.0,0.0,0.7071067811865475],"scale":[1.0,1.0,1.0],"name":"landing_wing_l"},{"translation":[0.0,26.552000045776368,2.3610000610351564],"rotation":[0.0,0.0,0.0,1.0],"scale":[1.0,1.0,1.0],"name":"node_1504","children":[35]},{"name":"AN124_nose_AN_1504","children":[36,41]},{"translation":[2.178999900817871,2.8469998836517336,-5.183000087738037],"rotation":[0.0,0.0,0.0,1.0],"scale":[1.0,1.0,1.0],"name":"node_1506","children":[37]},{"name":"landing_light_AN_1506","children":[38]},{"translation":[0.0,0.05999999865889549,-0.12999999523162843],"rotation":[0.0,0.7071067811865475,0.7071067811865475,0.0],"scale":[1.0,1.0,1.0],"name":"node_1507","children":[39,40]},{"translation":[0.0,0.0,0.0],"rotation":[-0.7071067811865475,0.0,0.0,0.7071067811865475],"scale":[1.0,1.0,1.0],"name":"taxi_nose_r"},{"translation":[0.0,0.0,0.0],"rotation":[-0.7071067811865475,0.0,0.0,0.7071067811865475],"scale":[1.0,1.0,1.0],"name":"landing_nose_r"},{"translation":[-2.178999900817871,2.8469998836517336,-5.183000087738037],"rotation":[0.0,0.0,0.0,1.0],"scale":[1.0,1.0,1.0],"name":"node_1510","children":[42]},{"name":"landing_light_AN_1510","children":[43]},{"translation":[0.0,0.05999999865889549,-0.12999999523162843],"rotation":[0.0,0.7071067811865475,0.7071067811865475,0.0],"scale":[1.0,1.0,1.0],"name":"node_1511","children":[44,45]},{"translation":[0.0,0.0,0.0],"rotation":[-0.7071067811865475,0.0,0.0,0.7071067811865475],"scale":[1.0,1.0,1.0],"name":"taxi_nose_l"},{"translation":[0.0,0.0,0.0],"rotation":[-0.7071067811865475,0.0,0.0,0.7071067811865475],"scale":[1.0,1.0,1.0],"name":"landing_nose_l"},{"translation":[-1.899999976158142,20.0,2.0],"rotation":[0.7071067811865475,0.0,0.0,0.7071067811865475],"scale":[1.0,1.0,1.0],"name":"interior5l"},{"translation":[1.899999976158142,20.0,2.0],"rotation":[0.7071067811865475,0.0,0.0,0.7071067811865475],"scale":[1.0,1.0,1.0],"name":"interior5r"},{"translation":[-1.899999976158142,15.0,2.0],"rotation":[0.7071067811865475,0.0,0.0,0.7071067811865475],"scale":[1.0,1.0,1.0],"name":"interior4l"},{"translation":[1.899999976158142,15.0,2.0],"rotation":[0.7071067811865475,0.0,0.0,0.7071067811865475],"scale":[1.0,1.0,1.0],"name":"interior4r"},{"translation":[1.899999976158142,10.0,2.0],"rotation":[0.7071067811865475,0.0,0.0,0.7071067811865475],"scale":[1.0,1.0,1.0],"name":"interior3r"},{"translation":[-1.899999976158142,5.0,2.0],"rotation":[0.7071067811865475,0.0,0.0,0.7071067811865475],"scale":[1.0,1.0,1.0],"name":"interior2l"},{"translation":[-1.850000023841858,-5.0,2.0],"rotation":[0.7071067811865475,0.0,0.0,0.7071067811865475],"scale":[1.0,1.0,1.0],"name":"interior1l"},{"translation":[-1.899999976158142,10.0,2.0],"rotation":[0.7071067811865475,0.0,0.0,0.7071067811865475],"scale":[1.0,1.0,1.0],"name":"interior3l"},{"translation":[1.899999976158142,5.0,2.0],"rotation":[0.7071067811865475,0.0,0.0,0.7071067811865475],"scale":[1.0,1.0,1.0],"name":"interior2r"},{"translation":[1.850000023841858,-5.0,2.0],"rotation":[0.7071067811865475,0.0,0.0,0.7071067811865475],"scale":[1.0,1.0,1.0],"name":"interior1r"}],"scene":0,"scenes":[{"nodes":[0]}],"textures":[{"extensions":{"MSFT_texture_dds":{"source":0}}},{"extensions":{"MSFT_texture_dds":{"source":1}}},{"extensions":{"MSFT_texture_dds":{"source":2}}},{"extensions":{"MSFT_texture_dds":{"source":3}}},{"extensions":{"MSFT_texture_dds":{"source":4}}}],"extensionsUsed":["ASOBO_material_day_night_switch","MSFT_texture_dds","ASOBO_asset_optimized"],"buffers":[{"byteLength":16634,"uri":"AIG_An-124-100_TL_ON_MSFS_LOD9.bin"}],"images":[{"uri":"AIG_AN124.PNG.DDS","extras":"ASOBO_image_converted_meta"},{"uri":"AIG_AN124_C.PNG.DDS","extras":"ASOBO_image_converted_meta"},{"uri":"AIG_AN124_L.PNG.DDS","extras":"ASOBO_image_converted_meta"},{"uri":"AIG_AN124_INTERIOR.PNG.DDS","extras":"ASOBO_image_converted_meta"},{"uri":"AIG_AN124_INTERIOR_C.PNG.DDS","extras":"ASOBO_image_converted_meta"}]}
