{"accessors":[{"bufferView":0,"componentType":5126,"count":130,"min":[-39.74399948120117,-3.507999897003174,-36.608001708984378],"max":[39.74399948120117,19.256000518798829,16.79199981689453],"type":"VEC3","name":"part000_vertices#0_POSITION"},{"bufferView":0,"byteOffset":12,"componentType":5120,"count":130,"type":"VEC4","name":"part000_vertices#0_TANGENT"},{"bufferView":0,"byteOffset":16,"componentType":5120,"count":130,"type":"VEC4","name":"part000_vertices#0_NORMAL"},{"bufferView":0,"byteOffset":20,"componentType":5122,"count":130,"type":"VEC2","name":"part000_vertices#0_TEXCOORD_0"},{"bufferView":0,"byteOffset":24,"componentType":5122,"count":130,"type":"VEC2","name":"part000_vertices#0_TEXCOORD_1"},{"bufferView":0,"byteOffset":28,"componentType":5123,"count":130,"type":"VEC4","name":"part000_vertices#0_COLOR_0"},{"bufferView":1,"componentType":5123,"count":180,"type":"SCALAR","name":"part000_indices#0"},{"bufferView":0,"byteOffset":4680,"componentType":5126,"count":32,"min":[-3.5160000324249269,-2.48799991607666,-34.20399856567383],"max":[3.5160000324249269,5.980000019073486,36.608001708984378],"type":"VEC3","name":"part001_vertices#0_POSITION"},{"bufferView":0,"byteOffset":4692,"componentType":5120,"count":32,"type":"VEC4","name":"part001_vertices#0_TANGENT"},{"bufferView":0,"byteOffset":4696,"componentType":5120,"count":32,"type":"VEC4","name":"part001_vertices#0_NORMAL"},{"bufferView":0,"byteOffset":4700,"componentType":5122,"count":32,"type":"VEC2","name":"part001_vertices#0_TEXCOORD_0"},{"bufferView":0,"byteOffset":4704,"componentType":5122,"count":32,"type":"VEC2","name":"part001_vertices#0_TEXCOORD_1"},{"bufferView":0,"byteOffset":4708,"componentType":5123,"count":32,"type":"VEC4","name":"part001_vertices#0_COLOR_0"},{"bufferView":1,"byteOffset":360,"componentType":5123,"count":60,"type":"SCALAR","name":"part001_indices#0"}],"asset":{"generator":"ModelConverterX","version":"2.0","extensions":{"ASOBO_asset_optimized":{"BoundingBoxMax":[39.74399948120117,19.256000518798829,36.608001708984378],"BoundingBoxMin":[-39.74399948120117,-3.507999897003174,-36.608001708984378],"MajorVersion":4,"MinorVersion":4,"UseCheckerboardMaterialForMissingTextures":true,"UseOnlyFilenameForImageURI":true}}},"bufferViews":[{"buffer":0,"byteLength":5832,"byteStride":36,"target":34962,"name":"BufferViewVertexND"},{"buffer":0,"byteLength":480,"byteOffset":5832,"target":34963,"name":"BufferViewIndex"}],"extensionsRequired":["MSFT_texture_dds"],"materials":[{"name":"material00","emissiveTexture":{"index":1},"emissiveFactor":[0.019607843831181527,0.019607843831181527,0.019607843831181527],"pbrMetallicRoughness":{"metallicFactor":0.0,"baseColorTexture":{"index":0}},"extensions":{"ASOBO_material_day_night_switch":{}}},{"name":"material01","pbrMetallicRoughness":{"metallicFactor":0.0,"baseColorTexture":{"index":2}}}],"meshes":[{"primitives":[{"attributes":{"COLOR_0":5,"NORMAL":2,"POSITION":0,"TANGENT":1,"TEXCOORD_0":3,"TEXCOORD_1":4},"indices":6,"material":1,"mode":4,"extras":{"ASOBO_primitive":{"PrimitiveCount":60,"VertexType":"VTX","VertexVersion":2}}}],"name":"part000"},{"primitives":[{"attributes":{"COLOR_0":12,"NORMAL":9,"POSITION":7,"TANGENT":8,"TEXCOORD_0":10,"TEXCOORD_1":11},"indices":13,"material":0,"mode":4,"extras":{"ASOBO_primitive":{"PrimitiveCount":20,"VertexType":"VTX","VertexVersion":2}}}],"name":"part001"}],"nodes":[{"name":"node_0","children":[1,2,3,4,5,6,7,8,9,10,11,12,13,14,15,16,17,18,19,20,21,22,23,24,25,26,27,28,29,30,31,32,33,34,35,36,37,38,39]},{"mesh":0,"name":"custom_vis_parts_visible_00_mcx_VC"},{"mesh":1,"name":"custom_vis_parts_visible_01_mcx_VC"},{"translation":[25.5,-0.9200000166893004,-2.999999999999997],"rotation":[-6.123031769111886e-17,0.0,1.0,0.0],"scale":[1.0,1.0,1.0],"name":"contrail1"},{"translation":[0.11217100173234906,-3.071374893188477,2.711214065551758],"rotation":[0.5,0.5000000000000001,0.5000000000000001,-0.5],"scale":[1.0,1.0,1.0],"name":"LIGHT_Beacon_belly"},{"translation":[0.4602060019969922,6.002687931060791,15.486929893493653],"rotation":[-0.5,0.5,0.5,0.5],"scale":[1.0,1.0,1.0],"name":"LIGHT_Beacon_Top1"},{"translation":[-0.4602060019969959,6.002687931060791,15.486929893493653],"rotation":[-0.5,0.5,0.5,0.5],"scale":[1.0,1.0,1.0],"name":"LIGHT_Beacon_Top2"},{"translation":[3.1814250946044888,0.6302819848060608,28.562789916992189],"rotation":[-0.3583133683707907,-0.016293225045121704,0.933438237676348,-0.006254383109560513],"scale":[1.0,1.0,1.0],"name":"LIGHT_engine_left"},{"translation":[-3.1814250946044959,0.6302819848060608,28.562789916992189],"rotation":[0.35831336837079039,-0.0162932250451217,0.933438237676348,0.006254383109560512],"scale":[1.0,1.0,1.0],"name":"LIGHT_engine_right"},{"translation":[5.042257785797117,-0.7203230261802673,15.907119750976565],"rotation":[1.0,3.749151804555344e-33,1.224606353822377e-16,-3.061515884555943e-17],"scale":[1.0,1.0,1.0],"name":"LIGHT_Landing_Left"},{"translation":[0.1600719988346061,-2.200985908508301,31.814239501953126],"rotation":[1.0,3.749151804555344e-33,1.224606353822377e-16,-3.061515884555943e-17],"scale":[1.0,1.0,1.0],"name":"LIGHT_Landing_nose_l1"},{"translation":[-0.16007199883461388,-2.200985908508301,31.814239501953126],"rotation":[1.0,3.749151804555344e-33,1.224606353822377e-16,-3.061515884555943e-17],"scale":[1.0,1.0,1.0],"name":"LIGHT_Landing_nose_R1"},{"translation":[-5.042257785797121,-0.7203230261802673,15.907119750976565],"rotation":[1.0,3.749151804555344e-33,1.224606353822377e-16,-3.061515884555943e-17],"scale":[1.0,1.0,1.0],"name":"LIGHT_Landing_Right"},{"translation":[7.21323108673096,3.7516798973083498,-30.53367042541504],"rotation":[0.8137976813493736,0.1710100716628344,0.29619813272602399,0.4698463103929542],"scale":[1.0,1.0,1.0],"name":"LIGHT_Logo_left"},{"translation":[-7.2132310867309539,3.7516798973083498,-30.53367042541504],"rotation":[0.8137976813493736,-0.1710100716628345,-0.29619813272602388,0.4698463103929542],"scale":[1.0000000000000003,1.0,1.0],"name":"LIGHT_Logo_Right"},{"translation":[4.1934340227889479e-15,3.0013439655303957,-34.24311828613281],"rotation":[-6.123031769111886e-17,3.061515884555943e-17,1.0,1.874575902277672e-33],"scale":[1.0,1.0,1.0],"name":"LIGHT_Nav_tail"},{"translation":[4.193459716052749e-15,2.911303997039795,-34.24332809448242],"rotation":[-6.123031769111886e-17,3.061515884555943e-17,1.0,1.874575902277672e-33],"scale":[1.0,1.0,1.0],"name":"LIGHT_strobe_tail"},{"translation":[5.042257785797117,-0.39017501473426816,15.937140464782717],"rotation":[0.9908408999522052,-0.004555298414973713,-0.13044667919045092,-0.03460092667022692],"scale":[1.0,1.0,1.0],"name":"LIGHT_Taxi_left"},{"translation":[-3.922945618790563e-15,-2.981334924697876,32.034339904785159],"rotation":[0.9993908270190957,0.0,0.0,-0.03489949670250105],"scale":[1.0,1.0,1.0],"name":"LIGHT_Taxi1"},{"translation":[0.23010300099849313,-2.6011650562286379,31.694189071655275],"rotation":[0.9291424630413712,-0.019181192164828058,-0.36599894953066555,-0.04869429312557346],"scale":[1.0,1.0,1.0],"name":"LIGHT_Taxi_nose_l2"},{"translation":[-0.2301030009985009,-2.6011650562286379,31.694189071655275],"rotation":[0.9291424630413712,0.019181192164828065,0.3659989495306656,-0.04869429312557344],"scale":[1.0,1.0,1.0],"name":"LIGHT_Taxi_nose_r2"},{"translation":[-5.042257785797121,-0.39017501473426816,15.937140464782717],"rotation":[0.9908408999522052,0.004555298414973716,0.13044667919045106,-0.03460092667022692],"scale":[1.0,1.0,1.0],"name":"LIGHT_Taxi_Right"},{"translation":[3.4315369129180879,2.0809319019317629,25.961620330810548],"rotation":[-0.3004195942140948,0.04160054911157397,0.9528092235374883,0.013116602751579948],"scale":[1.0,1.0,1.0],"name":"LIGHT_wing_left"},{"translation":[-3.431536912918094,2.0809319019317629,25.961620330810548],"rotation":[0.3004195942140947,0.041600549111573969,0.9528092235374883,-0.013116602751579944],"scale":[1.0,1.0,1.0],"name":"LIGHT_wing_right"},{"translation":[38.614219665527347,2.5636210441589357,-9.854816436767571],"rotation":[0.8191520442889918,-1.7560133708957189e-17,-0.5735764363510462,-2.5078469954572223e-17],"scale":[1.0,1.0,1.0],"name":"LIGHT_Strobe_Left"},{"translation":[38.54924011230469,2.560394048690796,-9.77382087707519],"rotation":[0.8191520442889918,-1.7560133708957189e-17,-0.5735764363510462,-2.5078469954572223e-17],"scale":[1.0,1.0,1.0],"name":"LIGHT_Nav_Red"},{"translation":[39.81631088256836,2.698754072189331,-13.405300140380854],"rotation":[-6.123031769111886e-17,3.061515884555943e-17,1.0,1.874575902277672e-33],"scale":[1.0,1.0,1.0],"name":"LIGHT_Navwhi_left"},{"translation":[19.995649337768556,0.3143010139465332,-1.5945800542831397],"rotation":[0.24184476264797526,0.6644630243886748,0.6644630243886748,0.24184476264797534],"scale":[1.0,1.0,1.0],"name":"LIGHT_Taxi_gearlight_left"},{"translation":[-39.812358856201168,2.6994690895080568,-13.41256999969483],"rotation":[-6.123031769111886e-17,3.061515884555943e-17,1.0,1.874575902277672e-33],"scale":[1.0,1.0,1.0],"name":"LIGHT_Navwhi_right"},{"translation":[-38.54605865478515,2.561161994934082,-9.780738830566414],"rotation":[0.8191520442889917,1.7560133708957189e-17,0.5735764363510462,-2.5078469954572226e-17],"scale":[1.0,1.0,1.0],"name":"LIGHT_Nav_Green"},{"translation":[-38.61119842529297,2.5643930435180666,-9.86174869537354],"rotation":[0.8191520442889917,1.7560133708957189e-17,0.5735764363510462,-2.5078469954572226e-17],"scale":[1.0,1.0,1.0],"name":"LIGHT_Strobe_Right"},{"translation":[-20.008270263671876,0.935800015926361,-1.6018979549407984],"rotation":[-0.24184476264797534,0.6644630243886748,0.6644630243886748,-0.24184476264797526],"scale":[1.0,1.0,1.0],"name":"LIGHT_Taxi_gearlight_right"},{"translation":[-25.5,-0.9200000166893004,-3.000000000000003],"rotation":[-6.123031769111886e-17,0.0,1.0,0.0],"scale":[1.0,1.0,1.0],"name":"contrail4"},{"translation":[-14.5,-1.919999957084656,4.999999999999998],"rotation":[-6.123031769111886e-17,0.0,1.0,0.0],"scale":[1.0,1.0,1.0],"name":"contrail3"},{"translation":[14.5,-1.919999957084656,5.000000000000002],"rotation":[-6.123031769111886e-17,0.0,1.0,0.0],"scale":[1.0,1.0,1.0],"name":"contrail2"},{"translation":[-3.7962796968493698e-15,-4.519999980926514,31.0],"rotation":[-6.123031769111886e-17,3.061515884555943e-17,1.0,1.874575902277672e-33],"scale":[1.0,1.0,1.0],"name":"c_tire1"},{"translation":[6.5,-4.71999979019165,1.2000000476837168],"rotation":[-6.123031769111886e-17,3.061515884555943e-17,1.0,1.874575902277672e-33],"scale":[1.0,1.0,1.0],"name":"l_tire1"},{"translation":[-6.5,-4.71999979019165,1.2000000476837148],"rotation":[-6.123031769111886e-17,3.061515884555943e-17,1.0,1.874575902277672e-33],"scale":[1.0,1.0,1.0],"name":"r_tire1"},{"translation":[2.5000000000000006,-4.71999979019165,-2.7999999523162839],"rotation":[-6.123031769111886e-17,3.061515884555943e-17,1.0,1.874575902277672e-33],"scale":[1.0,1.0,1.0],"name":"l_tire2"},{"translation":[-2.4999999999999997,-4.71999979019165,-2.7999999523162848],"rotation":[-6.123031769111886e-17,3.061515884555943e-17,1.0,1.874575902277672e-33],"scale":[1.0,1.0,1.0],"name":"r_tire2"}],"scene":0,"scenes":[{"nodes":[0]}],"textures":[{"extensions":{"MSFT_texture_dds":{"source":0}}},{"extensions":{"MSFT_texture_dds":{"source":1}}},{"extensions":{"MSFT_texture_dds":{"source":2}}}],"extensionsUsed":["ASOBO_material_day_night_switch","MSFT_texture_dds","ASOBO_asset_optimized"],"buffers":[{"byteLength":6312,"uri":"TFS_Airbus_A380_EA_LOD5.bin"}],"images":[{"uri":"TFS_A380_EA_A_T.PNG.DDS","extras":"ASOBO_image_converted_meta"},{"uri":"TFS_A380_EA_A_L.PNG.DDS","extras":"ASOBO_image_converted_meta"},{"uri":"TFS_A380_EA_B_T.PNG.DDS","extras":"ASOBO_image_converted_meta"}]}
