{"accessors":[{"bufferView":0,"componentType":5126,"count":101,"min":[0.0],"max":[3.33333325],"type":"SCALAR","name":"accessorAnimationInput"},{"bufferView":1,"componentType":5126,"count":101,"type":"VEC3","name":"accessorAnimationPositions"},{"bufferView":0,"byteOffset":404,"componentType":5126,"count":101,"min":[0.0],"max":[3.33333325],"type":"SCALAR","name":"accessorAnimationInput"},{"bufferView":2,"componentType":5126,"count":101,"type":"VEC4","name":"accessorAnimationRotations"},{"bufferView":0,"byteOffset":808,"componentType":5126,"count":101,"min":[0.0],"max":[3.33333325],"type":"SCALAR","name":"accessorAnimationInput"},{"bufferView":1,"byteOffset":1212,"componentType":5126,"count":101,"type":"VEC3","name":"accessorAnimationScales"},{"bufferView":0,"byteOffset":1212,"componentType":5126,"count":101,"min":[0.0],"max":[3.33333325],"type":"SCALAR","name":"accessorAnimationInput"},{"bufferView":1,"byteOffset":2424,"componentType":5126,"count":101,"type":"VEC3","name":"accessorAnimationPositions"},{"bufferView":0,"byteOffset":1616,"componentType":5126,"count":101,"min":[0.0],"max":[3.33333325],"type":"SCALAR","name":"accessorAnimationInput"},{"bufferView":2,"byteOffset":1616,"componentType":5126,"count":101,"type":"VEC4","name":"accessorAnimationRotations"},{"bufferView":0,"byteOffset":2020,"componentType":5126,"count":101,"min":[0.0],"max":[3.33333325],"type":"SCALAR","name":"accessorAnimationInput"},{"bufferView":1,"byteOffset":3636,"componentType":5126,"count":101,"type":"VEC3","name":"accessorAnimationScales"},{"bufferView":0,"byteOffset":2424,"componentType":5126,"count":101,"min":[0.0],"max":[3.33333325],"type":"SCALAR","name":"accessorAnimationInput"},{"bufferView":1,"byteOffset":4848,"componentType":5126,"count":101,"type":"VEC3","name":"accessorAnimationPositions"},{"bufferView":0,"byteOffset":2828,"componentType":5126,"count":101,"min":[0.0],"max":[3.33333325],"type":"SCALAR","name":"accessorAnimationInput"},{"bufferView":2,"byteOffset":3232,"componentType":5126,"count":101,"type":"VEC4","name":"accessorAnimationRotations"},{"bufferView":0,"byteOffset":3232,"componentType":5126,"count":101,"min":[0.0],"max":[3.33333325],"type":"SCALAR","name":"accessorAnimationInput"},{"bufferView":1,"byteOffset":6060,"componentType":5126,"count":101,"type":"VEC3","name":"accessorAnimationPositions"},{"bufferView":0,"byteOffset":3636,"componentType":5126,"count":101,"min":[0.0],"max":[3.33333325],"type":"SCALAR","name":"accessorAnimationInput"},{"bufferView":2,"byteOffset":4848,"componentType":5126,"count":101,"type":"VEC4","name":"accessorAnimationRotations"},{"bufferView":0,"byteOffset":4040,"componentType":5126,"count":101,"min":[0.0],"max":[3.33333325],"type":"SCALAR","name":"accessorAnimationInput"},{"bufferView":1,"byteOffset":7272,"componentType":5126,"count":101,"type":"VEC3","name":"accessorAnimationScales"},{"bufferView":3,"componentType":5126,"count":46,"min":[-0.862785816192627,-1.114084005355835,-1.4729337692260743],"max":[0.862785816192627,1.114084005355835,1.4729337692260743],"type":"VEC3","name":"x0_cargo_door_aft_fake_vertices#0_POSITION"},{"bufferView":3,"byteOffset":12,"componentType":5120,"count":46,"type":"VEC4","name":"x0_cargo_door_aft_fake_vertices#0_TANGENT"},{"bufferView":3,"byteOffset":16,"componentType":5120,"count":46,"type":"VEC4","name":"x0_cargo_door_aft_fake_vertices#0_NORMAL"},{"bufferView":3,"byteOffset":20,"componentType":5122,"count":46,"type":"VEC2","name":"x0_cargo_door_aft_fake_vertices#0_TEXCOORD_0"},{"bufferView":3,"byteOffset":24,"componentType":5122,"count":46,"type":"VEC2","name":"x0_cargo_door_aft_fake_vertices#0_TEXCOORD_1"},{"bufferView":3,"byteOffset":28,"componentType":5123,"count":46,"type":"VEC4","name":"x0_cargo_door_aft_fake_vertices#0_COLOR_0"},{"bufferView":4,"componentType":5123,"count":126,"type":"SCALAR","name":"x0_cargo_door_aft_fake_indices#0"},{"bufferView":3,"byteOffset":1656,"componentType":5126,"count":150,"min":[-1.7108376026153565,-2.3001129627227785,-2.8887672424316408],"max":[0.18111562728881837,0.0013158917427062989,0.16124725341796876],"type":"VEC3","name":"x0_cargo_door_forward_vertices#0_POSITION"},{"bufferView":3,"byteOffset":1668,"componentType":5120,"count":150,"type":"VEC4","name":"x0_cargo_door_forward_vertices#0_TANGENT"},{"bufferView":3,"byteOffset":1672,"componentType":5120,"count":150,"type":"VEC4","name":"x0_cargo_door_forward_vertices#0_NORMAL"},{"bufferView":3,"byteOffset":1676,"componentType":5122,"count":150,"type":"VEC2","name":"x0_cargo_door_forward_vertices#0_TEXCOORD_0"},{"bufferView":3,"byteOffset":1680,"componentType":5122,"count":150,"type":"VEC2","name":"x0_cargo_door_forward_vertices#0_TEXCOORD_1"},{"bufferView":3,"byteOffset":1684,"componentType":5123,"count":150,"type":"VEC4","name":"x0_cargo_door_forward_vertices#0_COLOR_0"},{"bufferView":4,"byteOffset":252,"componentType":5123,"count":288,"type":"SCALAR","name":"x0_cargo_door_forward_indices#0"},{"bufferView":3,"byteOffset":7056,"componentType":5126,"count":32,"min":[-0.9186654090881348,-1.1422083377838135,-1.5250072479248047],"max":[0.9186654090881348,1.1422083377838135,1.5250072479248047],"type":"VEC3","name":"x0_cargo_door_forward_fake_vertices#0_POSITION"},{"bufferView":3,"byteOffset":7068,"componentType":5120,"count":32,"type":"VEC4","name":"x0_cargo_door_forward_fake_vertices#0_TANGENT"},{"bufferView":3,"byteOffset":7072,"componentType":5120,"count":32,"type":"VEC4","name":"x0_cargo_door_forward_fake_vertices#0_NORMAL"},{"bufferView":3,"byteOffset":7076,"componentType":5122,"count":32,"type":"VEC2","name":"x0_cargo_door_forward_fake_vertices#0_TEXCOORD_0"},{"bufferView":3,"byteOffset":7080,"componentType":5122,"count":32,"type":"VEC2","name":"x0_cargo_door_forward_fake_vertices#0_TEXCOORD_1"},{"bufferView":3,"byteOffset":7084,"componentType":5123,"count":32,"type":"VEC4","name":"x0_cargo_door_forward_fake_vertices#0_COLOR_0"},{"bufferView":4,"byteOffset":828,"componentType":5123,"count":96,"type":"SCALAR","name":"x0_cargo_door_forward_fake_indices#0"},{"bufferView":3,"byteOffset":8208,"componentType":5126,"count":200,"min":[-1.6249016523361207,-2.3047266006469728,-2.4596595764160158],"max":[0.2159726619720459,0.0015409290790557862,0.4862079620361328],"type":"VEC3","name":"x0_cargo_door_aft_vertices#0_POSITION"},{"bufferView":3,"byteOffset":8220,"componentType":5120,"count":200,"type":"VEC4","name":"x0_cargo_door_aft_vertices#0_TANGENT"},{"bufferView":3,"byteOffset":8224,"componentType":5120,"count":200,"type":"VEC4","name":"x0_cargo_door_aft_vertices#0_NORMAL"},{"bufferView":3,"byteOffset":8228,"componentType":5122,"count":200,"type":"VEC2","name":"x0_cargo_door_aft_vertices#0_TEXCOORD_0"},{"bufferView":3,"byteOffset":8232,"componentType":5122,"count":200,"type":"VEC2","name":"x0_cargo_door_aft_vertices#0_TEXCOORD_1"},{"bufferView":3,"byteOffset":8236,"componentType":5123,"count":200,"type":"VEC4","name":"x0_cargo_door_aft_vertices#0_COLOR_0"},{"bufferView":4,"byteOffset":1020,"componentType":5123,"count":432,"type":"SCALAR","name":"x0_cargo_door_aft_indices#0"}],"animations":[{"name":"Cargo_Door_forward","channels":[{"sampler":0,"target":{"node":1,"path":"translation","extensions":{"ASOBO_animation_retargeting":{"id":"x0_cargo_door_forward"}}}},{"sampler":1,"target":{"node":1,"path":"rotation","extensions":{"ASOBO_animation_retargeting":{"id":"x0_cargo_door_forward"}}}},{"sampler":2,"target":{"node":1,"path":"scale","extensions":{"ASOBO_animation_retargeting":{"id":"x0_cargo_door_forward"}}}},{"sampler":3,"target":{"node":2,"path":"translation","extensions":{"ASOBO_animation_retargeting":{"id":"x0_cargo_door_forward_fake"}}}},{"sampler":4,"target":{"node":2,"path":"rotation","extensions":{"ASOBO_animation_retargeting":{"id":"x0_cargo_door_forward_fake"}}}},{"sampler":5,"target":{"node":2,"path":"scale","extensions":{"ASOBO_animation_retargeting":{"id":"x0_cargo_door_forward_fake"}}}}],"samplers":[{"input":0,"output":1,"interpolation":"LINEAR"},{"input":2,"output":3,"interpolation":"LINEAR"},{"input":4,"output":5,"interpolation":"LINEAR"},{"input":6,"output":7,"interpolation":"LINEAR"},{"input":8,"output":9,"interpolation":"LINEAR"},{"input":10,"output":11,"interpolation":"LINEAR"}]},{"name":"Cargo_Door_aft","channels":[{"sampler":0,"target":{"node":3,"path":"translation","extensions":{"ASOBO_animation_retargeting":{"id":"x0_cargo_door_aft"}}}},{"sampler":1,"target":{"node":3,"path":"rotation","extensions":{"ASOBO_animation_retargeting":{"id":"x0_cargo_door_aft"}}}},{"sampler":2,"target":{"node":0,"path":"translation","extensions":{"ASOBO_animation_retargeting":{"id":"x0_cargo_door_aft_fake"}}}},{"sampler":3,"target":{"node":0,"path":"rotation","extensions":{"ASOBO_animation_retargeting":{"id":"x0_cargo_door_aft_fake"}}}},{"sampler":4,"target":{"node":0,"path":"scale","extensions":{"ASOBO_animation_retargeting":{"id":"x0_cargo_door_aft_fake"}}}}],"samplers":[{"input":12,"output":13,"interpolation":"LINEAR"},{"input":14,"output":15,"interpolation":"LINEAR"},{"input":16,"output":17,"interpolation":"LINEAR"},{"input":18,"output":19,"interpolation":"LINEAR"},{"input":20,"output":21,"interpolation":"LINEAR"}]}],"asset":{"generator":"babylon.js glTF exporter for 3dsmax 2021 v1.0.8378.27976","version":"2.0","extensions":{"ASOBO_asset_optimized":{"BoundingBoxMax":[0.9186654090881348,1.1422083377838135,1.5250072479248047],"BoundingBoxMin":[-1.7108376026153565,-2.3047266006469728,-2.8887672424316408],"MajorVersion":4,"MinorVersion":4,"UseCheckerboardMaterialForMissingTextures":true,"UseOnlyFilenameForImageURI":true},"ASOBO_normal_map_convention":{"tangent_space_convention":"DirectX"}}},"bufferViews":[{"buffer":0,"byteLength":4444,"name":"bufferViewAnimationFloatScalar"},{"buffer":0,"byteLength":8484,"byteOffset":4444,"name":"bufferViewAnimationFloatVec3"},{"buffer":0,"byteLength":6464,"byteOffset":12928,"name":"bufferViewAnimationFloatVec4"},{"buffer":0,"byteLength":15408,"byteStride":36,"byteOffset":19392,"target":34962,"name":"BufferViewVertexND"},{"buffer":0,"byteLength":1884,"byteOffset":34800,"target":34963,"name":"BufferViewIndex"}],"extensionsRequired":["MSFT_texture_dds"],"materials":[{"name":"Fuselage T2","pbrMetallicRoughness":{"metallicFactor":0.0,"baseColorTexture":{"index":0}}},{"name":"Fuselage A","occlusionTexture":{"index":2},"emissiveTexture":{"index":3},"emissiveFactor":[0.15000000596046449,0.15000000596046449,0.15000000596046449],"pbrMetallicRoughness":{"baseColorTexture":{"index":1},"metallicRoughnessTexture":{"index":2}}}],"meshes":[{"primitives":[{"attributes":{"COLOR_0":27,"NORMAL":24,"POSITION":22,"TANGENT":23,"TEXCOORD_0":25,"TEXCOORD_1":26},"indices":28,"material":0,"mode":4,"extras":{"ASOBO_primitive":{"PrimitiveCount":42,"VertexType":"VTX","VertexVersion":2}}}],"name":"x0_cargo_door_aft_fake"},{"primitives":[{"attributes":{"COLOR_0":34,"NORMAL":31,"POSITION":29,"TANGENT":30,"TEXCOORD_0":32,"TEXCOORD_1":33},"indices":35,"material":1,"mode":4,"extras":{"ASOBO_primitive":{"PrimitiveCount":96,"VertexType":"VTX","VertexVersion":2}}}],"name":"x0_cargo_door_forward"},{"primitives":[{"attributes":{"COLOR_0":41,"NORMAL":38,"POSITION":36,"TANGENT":37,"TEXCOORD_0":39,"TEXCOORD_1":40},"indices":42,"material":0,"mode":4,"extras":{"ASOBO_primitive":{"PrimitiveCount":32,"VertexType":"VTX","VertexVersion":2}}}],"name":"x0_cargo_door_forward_fake"},{"primitives":[{"attributes":{"COLOR_0":48,"NORMAL":45,"POSITION":43,"TANGENT":44,"TEXCOORD_0":46,"TEXCOORD_1":47},"indices":49,"material":1,"mode":4,"extras":{"ASOBO_primitive":{"PrimitiveCount":144,"VertexType":"VTX","VertexVersion":2}}}],"name":"x0_cargo_door_aft"}],"nodes":[{"translation":[-2.28222251,-0.846034765,-12.0911789],"rotation":[0.0,-1.0,0.0,-2.82129974e-7],"mesh":0,"extensions":{"ASOBO_unique_id":{"id":"x0_cargo_door_aft_fake"}},"name":"cargo_door_aft_fake"},{"translation":[-3.10366154,0.26570195,23.2656536],"rotation":[0.0,-1.0,0.0,-4.371139e-8],"mesh":1,"extensions":{"ASOBO_unique_id":{"id":"x0_cargo_door_forward"}},"name":"cargo_door_forward"},{"translation":[-2.322655,-0.892202556,24.6294136],"rotation":[0.0,-1.0,0.0,-4.371139e-8],"mesh":2,"extensions":{"ASOBO_unique_id":{"id":"x0_cargo_door_forward_fake"}},"name":"cargo_door_forward_fake"},{"translation":[-2.9704175,0.34460783,-13.0779057],"rotation":[0.0,-1.0,0.0,-2.82129974e-7],"mesh":3,"extensions":{"ASOBO_unique_id":{"id":"x0_cargo_door_aft"}},"name":"cargo_door_aft"}],"scene":0,"scenes":[{"nodes":[0,1,2,3]}],"textures":[{"extensions":{"MSFT_texture_dds":{"source":0}}},{"extensions":{"MSFT_texture_dds":{"source":1}}},{"extensions":{"MSFT_texture_dds":{"source":2}}},{"extensions":{"MSFT_texture_dds":{"source":3}}}],"extensionsUsed":["ASOBO_normal_map_convention","ASOBO_unique_id","ASOBO_animation_retargeting","MSFT_texture_dds","ASOBO_asset_optimized"],"buffers":[{"byteLength":36684,"uri":"TFS_Airbus_A380_cargo.bin"}],"images":[{"uri":"TFS_A380_T2.PNG.DDS","extras":"ASOBO_image_converted_meta"},{"uri":"TFS_A380_EA_A_T.PNG.DDS","extras":"ASOBO_image_converted_meta"},{"uri":"TFS_A380_EA_A_C.PNG.DDS","extras":"ASOBO_image_converted_meta"},{"uri":"TFS_A380_EA_A_L.PNG.DDS","extras":"ASOBO_image_converted_meta"}]}
