{"accessors":[{"bufferView":0,"componentType":5126,"count":3,"min":[0.0],"max":[100.0],"type":"SCALAR"},{"bufferView":1,"componentType":5126,"count":3,"type":"VEC4"},{"bufferView":0,"byteOffset":12,"componentType":5126,"count":4,"min":[0.0],"max":[100.0],"type":"SCALAR"},{"bufferView":1,"byteOffset":48,"componentType":5126,"count":4,"type":"VEC4"},{"bufferView":2,"componentType":5126,"count":81,"min":[-19.967140197753908,-2.1335999965667726,-17.61591911315918],"max":[19.967750549316408,8.692290306091309,12.564009666442871],"type":"VEC3","name":"part000_vertices#0_POSITION"},{"bufferView":2,"byteOffset":12,"componentType":5120,"count":81,"type":"VEC4","name":"part000_vertices#0_TANGENT"},{"bufferView":2,"byteOffset":16,"componentType":5120,"count":81,"type":"VEC4","name":"part000_vertices#0_NORMAL"},{"bufferView":2,"byteOffset":20,"componentType":5122,"count":81,"type":"VEC2","name":"part000_vertices#0_TEXCOORD_0"},{"bufferView":2,"byteOffset":24,"componentType":5122,"count":81,"type":"VEC2","name":"part000_vertices#0_TEXCOORD_1"},{"bufferView":2,"byteOffset":28,"componentType":5123,"count":81,"type":"VEC4","name":"part000_vertices#0_COLOR_0"},{"bufferView":3,"componentType":5123,"count":141,"type":"SCALAR","name":"part000_indices#0"}],"animations":[{"name":"r_gear","channels":[{"sampler":0,"target":{"node":14,"path":"rotation"}}],"samplers":[{"input":0,"output":1,"interpolation":"LINEAR"}]},{"name":"l_gear","channels":[{"sampler":0,"target":{"node":20,"path":"rotation"}}],"samplers":[{"input":2,"output":3,"interpolation":"LINEAR"}]}],"asset":{"generator":"ModelConverterX","version":"2.0","extensions":{"ASOBO_asset_optimized":{"BoundingBoxMax":[19.967750549316408,8.692290306091309,12.564009666442871],"BoundingBoxMin":[-19.967140197753908,-2.1335999965667726,-17.61591911315918],"MajorVersion":4,"MinorVersion":4,"UseCheckerboardMaterialForMissingTextures":true,"UseOnlyFilenameForImageURI":true}}},"bufferViews":[{"buffer":0,"byteLength":28,"byteStride":4},{"buffer":0,"byteLength":112,"byteStride":16,"byteOffset":28},{"buffer":0,"byteLength":2916,"byteStride":36,"byteOffset":140,"target":34962,"name":"BufferViewVertexND"},{"buffer":0,"byteLength":282,"byteOffset":3056,"target":34963,"name":"BufferViewIndex"}],"extensionsRequired":["MSFT_texture_dds"],"materials":[{"name":"material00","emissiveTexture":{"index":1},"emissiveFactor":[0.019607843831181527,0.019607843831181527,0.019607843831181527],"pbrMetallicRoughness":{"metallicFactor":0.0,"baseColorTexture":{"index":0}},"extensions":{"ASOBO_material_day_night_switch":{}}}],"meshes":[{"primitives":[{"attributes":{"COLOR_0":9,"NORMAL":6,"POSITION":4,"TANGENT":5,"TEXCOORD_0":7,"TEXCOORD_1":8},"indices":10,"material":0,"mode":4,"extras":{"ASOBO_primitive":{"PrimitiveCount":47,"VertexType":"VTX","VertexVersion":2}}}],"name":"part000"}],"nodes":[{"name":"node_0","children":[1,2,3,4,5,6,7,8,9,10,11]},{"mesh":0,"name":"node_1"},{"translation":[-2.0999999046325685,-2.5999999046325685,-1.700000047683716],"rotation":[-6.123031769111886e-17,3.061515884555943e-17,1.0,1.874575902277672e-33],"scale":[1.0,1.0,1.0],"name":"r_tire1"},{"translation":[2.0999999046325685,-2.5999999046325685,-1.7000000476837157],"rotation":[-6.123031769111886e-17,3.061515884555943e-17,1.0,1.874575902277672e-33],"scale":[1.0,1.0,1.0],"name":"l_tire1"},{"translation":[-5.099999904632568,1.2999999523162842,-1.0000000000000009],"rotation":[-6.123031769111886e-17,3.061515884555943e-17,1.0,1.874575902277672e-33],"scale":[1.0,1.0,1.0],"name":"contrail3"},{"translation":[-1.1021457184401398e-15,-2.5,9.0],"rotation":[-6.123031769111886e-17,3.061515884555943e-17,1.0,1.874575902277672e-33],"scale":[1.0,1.0,1.0],"name":"c_tire1"},{"translation":[5.099999904632568,1.2999999523162842,-0.9999999999999992],"rotation":[-6.123031769111886e-17,3.061515884555943e-17,1.0,1.874575902277672e-33],"scale":[1.0,1.0,1.0],"name":"contrail2"},{"translation":[-10.300000190734864,1.5,-1.000000000000001],"rotation":[-6.123031769111886e-17,3.061515884555943e-17,1.0,1.874575902277672e-33],"scale":[1.0,1.0,1.0],"name":"contrail4"},{"translation":[-6.889999866485596,1.7200000286102296,0.4799999892711631],"rotation":[-6.123031769111886e-17,3.061515884555943e-17,1.0,1.874575902277672e-33],"scale":[1.0,1.0,1.0],"name":"starboard_wing"},{"translation":[6.889999866485596,1.7200000286102296,0.4799999892711648],"rotation":[-6.123031769111886e-17,3.061515884555943e-17,1.0,1.874575902277672e-33],"scale":[1.0,1.0,1.0],"name":"port_wing"},{"translation":[10.300000190734864,1.5,-0.9999999999999987],"rotation":[-6.123031769111886e-17,3.061515884555943e-17,1.0,1.874575902277672e-33],"scale":[1.0,1.0,1.0],"name":"contrail1"},{"translation":[0.0,0.0,0.0],"rotation":[-4.329637285359677e-17,0.7071067811865475,0.7071067811865475,4.329637285359677e-17],"scale":[1.0,1.0,1.0],"name":"node_38","children":[12,18]},{"translation":[2.416604995727539,-0.532755970954895,-1.3971140384674073],"rotation":[0.0,0.0,0.0,1.0],"scale":[1.0,1.0,1.0],"name":"node_59","children":[13]},{"name":"node_69","children":[14]},{"name":"r_gear_AN_69","children":[15]},{"translation":[-0.1905589997768402,1.4027559757232667,-0.30849799513816836],"rotation":[0.3826827704088216,0.0,0.923879806702273,0.0],"scale":[1.0,1.0,1.0],"name":"node_70","children":[16,17]},{"translation":[0.0,0.0,0.0],"rotation":[-0.7071067811865475,0.0,0.0,0.7071067811865475],"scale":[1.0,1.0,1.0],"name":"starboard_gear_taxi"},{"translation":[0.0,0.0,0.0],"rotation":[-0.7071067811865475,0.0,0.0,0.7071067811865475],"scale":[1.0,1.0,1.0],"name":"starboard_gear_landing"},{"translation":[-2.416604995727539,-0.532755970954895,-1.3971140384674073],"rotation":[0.0,0.0,0.0,1.0],"scale":[1.0,1.0,1.0],"name":"node_73","children":[19]},{"name":"node_83","children":[20]},{"name":"l_gear_AN_83","children":[21]},{"translation":[0.1905589997768402,1.4027559757232667,-0.30849799513816836],"rotation":[-0.3826827704088216,0.0,0.923879806702273,0.0],"scale":[1.0,1.0,1.0],"name":"node_84","children":[22,23]},{"translation":[0.0,0.0,0.0],"rotation":[-0.7071067811865475,0.0,0.0,0.7071067811865475],"scale":[1.0,1.0,1.0],"name":"port_gear_landing"},{"translation":[0.0,0.0,0.0],"rotation":[-0.7071067811865475,0.0,0.0,0.7071067811865475],"scale":[1.0,1.0,1.0],"name":"port_gear_taxi"}],"scene":0,"scenes":[{"nodes":[0]}],"textures":[{"extensions":{"MSFT_texture_dds":{"source":0}}},{"extensions":{"MSFT_texture_dds":{"source":1}}}],"extensionsUsed":["ASOBO_material_day_night_switch","MSFT_texture_dds","ASOBO_asset_optimized"],"buffers":[{"byteLength":3338,"uri":"HTAI_Lockheed_C-130H_WT_MSFS_LOD9.bin"}],"images":[{"uri":"C130H.PNG.DDS","extras":"ASOBO_image_converted_meta"},{"uri":"C130H_L.PNG.DDS","extras":"ASOBO_image_converted_meta"}]}
