{"accessors":[{"bufferView":0,"componentType":5126,"count":3,"min":[0.0],"max":[200.0],"type":"SCALAR"},{"bufferView":1,"componentType":5126,"count":3,"type":"VEC3"},{"bufferView":0,"byteOffset":12,"componentType":5126,"count":3,"min":[0.0],"max":[200.0],"type":"SCALAR"},{"bufferView":2,"componentType":5126,"count":3,"type":"VEC4"},{"bufferView":0,"byteOffset":24,"componentType":5126,"count":3,"min":[0.0],"max":[200.0],"type":"SCALAR"},{"bufferView":2,"byteOffset":48,"componentType":5126,"count":3,"type":"VEC4"},{"bufferView":0,"byteOffset":36,"componentType":5126,"count":3,"min":[0.0],"max":[200.0],"type":"SCALAR"},{"bufferView":2,"byteOffset":96,"componentType":5126,"count":3,"type":"VEC4"},{"bufferView":0,"byteOffset":48,"componentType":5126,"count":3,"min":[0.0],"max":[200.0],"type":"SCALAR"},{"bufferView":2,"byteOffset":144,"componentType":5126,"count":3,"type":"VEC4"},{"bufferView":0,"byteOffset":60,"componentType":5126,"count":3,"min":[0.0],"max":[200.0],"type":"SCALAR"},{"bufferView":2,"byteOffset":192,"componentType":5126,"count":3,"type":"VEC4"},{"bufferView":0,"byteOffset":72,"componentType":5126,"count":3,"min":[0.0],"max":[200.0],"type":"SCALAR"},{"bufferView":2,"byteOffset":240,"componentType":5126,"count":3,"type":"VEC4"},{"bufferView":3,"componentType":5126,"count":12,"min":[-0.030619999393820764,-0.02322000078856945,-6.0960001945495609],"max":[0.030619999393820764,0.34711000323295596,4.169919967651367],"type":"VEC3","name":"part000_vertices#0_POSITION"},{"bufferView":3,"byteOffset":12,"componentType":5120,"count":12,"type":"VEC4","name":"part000_vertices#0_TANGENT"},{"bufferView":3,"byteOffset":16,"componentType":5120,"count":12,"type":"VEC4","name":"part000_vertices#0_NORMAL"},{"bufferView":3,"byteOffset":20,"componentType":5122,"count":12,"type":"VEC2","name":"part000_vertices#0_TEXCOORD_0"},{"bufferView":3,"byteOffset":24,"componentType":5122,"count":12,"type":"VEC2","name":"part000_vertices#0_TEXCOORD_1"},{"bufferView":3,"byteOffset":28,"componentType":5123,"count":12,"type":"VEC4","name":"part000_vertices#0_COLOR_0"},{"bufferView":4,"componentType":5123,"count":24,"type":"SCALAR","name":"part000_indices#0"},{"bufferView":3,"byteOffset":432,"componentType":5126,"count":306,"min":[-6.72907018661499,-0.4874899983406067,-6.934599876403809],"max":[6.72907018661499,2.5514800548553469,4.169919967651367],"type":"VEC3","name":"part001_vertices#0_POSITION"},{"bufferView":3,"byteOffset":444,"componentType":5120,"count":306,"type":"VEC4","name":"part001_vertices#0_TANGENT"},{"bufferView":3,"byteOffset":448,"componentType":5120,"count":306,"type":"VEC4","name":"part001_vertices#0_NORMAL"},{"bufferView":3,"byteOffset":452,"componentType":5122,"count":306,"type":"VEC2","name":"part001_vertices#0_TEXCOORD_0"},{"bufferView":3,"byteOffset":456,"componentType":5122,"count":306,"type":"VEC2","name":"part001_vertices#0_TEXCOORD_1"},{"bufferView":3,"byteOffset":460,"componentType":5123,"count":306,"type":"VEC4","name":"part001_vertices#0_COLOR_0"},{"bufferView":4,"byteOffset":48,"componentType":5123,"count":756,"type":"SCALAR","name":"part001_indices#0"},{"bufferView":3,"byteOffset":11448,"componentType":5126,"count":16,"min":[0.0,-0.2219499945640564,-1.0442999601364136],"max":[0.0,0.20975999534130097,-0.6125900149345398],"type":"VEC3","name":"part002_vertices#0_POSITION"},{"bufferView":3,"byteOffset":11460,"componentType":5120,"count":16,"type":"VEC4","name":"part002_vertices#0_TANGENT"},{"bufferView":3,"byteOffset":11464,"componentType":5120,"count":16,"type":"VEC4","name":"part002_vertices#0_NORMAL"},{"bufferView":3,"byteOffset":11468,"componentType":5122,"count":16,"type":"VEC2","name":"part002_vertices#0_TEXCOORD_0"},{"bufferView":3,"byteOffset":11472,"componentType":5122,"count":16,"type":"VEC2","name":"part002_vertices#0_TEXCOORD_1"},{"bufferView":3,"byteOffset":11476,"componentType":5123,"count":16,"type":"VEC4","name":"part002_vertices#0_COLOR_0"},{"bufferView":4,"byteOffset":1560,"componentType":5123,"count":108,"type":"SCALAR","name":"part002_indices#0"},{"bufferView":3,"byteOffset":12024,"componentType":5126,"count":8,"min":[-0.02800000086426735,-0.04588000103831291,-0.5166900157928467],"max":[0.0313199982047081,-0.0017999999690800906,-0.4113300144672394],"type":"VEC3","name":"part003_vertices#0_POSITION"},{"bufferView":3,"byteOffset":12036,"componentType":5120,"count":8,"type":"VEC4","name":"part003_vertices#0_TANGENT"},{"bufferView":3,"byteOffset":12040,"componentType":5120,"count":8,"type":"VEC4","name":"part003_vertices#0_NORMAL"},{"bufferView":3,"byteOffset":12044,"componentType":5122,"count":8,"type":"VEC2","name":"part003_vertices#0_TEXCOORD_0"},{"bufferView":3,"byteOffset":12048,"componentType":5122,"count":8,"type":"VEC2","name":"part003_vertices#0_TEXCOORD_1"},{"bufferView":3,"byteOffset":12052,"componentType":5123,"count":8,"type":"VEC4","name":"part003_vertices#0_COLOR_0"},{"bufferView":4,"byteOffset":1776,"componentType":5123,"count":12,"type":"SCALAR","name":"part003_indices#0"},{"bufferView":3,"byteOffset":12312,"componentType":5126,"count":16,"min":[0.09662000089883805,-0.26802998781204226,-0.9529200196266174],"max":[0.09662000089883805,0.27656999230384829,-0.40832000970840456],"type":"VEC3","name":"part004_vertices#0_POSITION"},{"bufferView":3,"byteOffset":12324,"componentType":5120,"count":16,"type":"VEC4","name":"part004_vertices#0_TANGENT"},{"bufferView":3,"byteOffset":12328,"componentType":5120,"count":16,"type":"VEC4","name":"part004_vertices#0_NORMAL"},{"bufferView":3,"byteOffset":12332,"componentType":5122,"count":16,"type":"VEC2","name":"part004_vertices#0_TEXCOORD_0"},{"bufferView":3,"byteOffset":12336,"componentType":5122,"count":16,"type":"VEC2","name":"part004_vertices#0_TEXCOORD_1"},{"bufferView":3,"byteOffset":12340,"componentType":5123,"count":16,"type":"VEC4","name":"part004_vertices#0_COLOR_0"},{"bufferView":4,"byteOffset":1800,"componentType":5123,"count":108,"type":"SCALAR","name":"part004_indices#0"},{"bufferView":3,"byteOffset":12888,"componentType":5126,"count":4,"min":[-0.020419999957084657,0.001979999942705035,-0.634880006313324],"max":[-0.020419999957084657,0.028189999982714654,-0.39013001322746279],"type":"VEC3","name":"part005_vertices#0_POSITION"},{"bufferView":3,"byteOffset":12900,"componentType":5120,"count":4,"type":"VEC4","name":"part005_vertices#0_TANGENT"},{"bufferView":3,"byteOffset":12904,"componentType":5120,"count":4,"type":"VEC4","name":"part005_vertices#0_NORMAL"},{"bufferView":3,"byteOffset":12908,"componentType":5122,"count":4,"type":"VEC2","name":"part005_vertices#0_TEXCOORD_0"},{"bufferView":3,"byteOffset":12912,"componentType":5122,"count":4,"type":"VEC2","name":"part005_vertices#0_TEXCOORD_1"},{"bufferView":3,"byteOffset":12916,"componentType":5123,"count":4,"type":"VEC4","name":"part005_vertices#0_COLOR_0"},{"bufferView":4,"byteOffset":2016,"componentType":5123,"count":6,"type":"SCALAR","name":"part005_indices#0"},{"bufferView":3,"byteOffset":13032,"componentType":5126,"count":16,"min":[-0.09662000089883805,-0.2930299937725067,-0.9541400074958801],"max":[-0.09662000089883805,0.2515699863433838,-0.40953999757766726],"type":"VEC3","name":"part006_vertices#0_POSITION"},{"bufferView":3,"byteOffset":13044,"componentType":5120,"count":16,"type":"VEC4","name":"part006_vertices#0_TANGENT"},{"bufferView":3,"byteOffset":13048,"componentType":5120,"count":16,"type":"VEC4","name":"part006_vertices#0_NORMAL"},{"bufferView":3,"byteOffset":13052,"componentType":5122,"count":16,"type":"VEC2","name":"part006_vertices#0_TEXCOORD_0"},{"bufferView":3,"byteOffset":13056,"componentType":5122,"count":16,"type":"VEC2","name":"part006_vertices#0_TEXCOORD_1"},{"bufferView":3,"byteOffset":13060,"componentType":5123,"count":16,"type":"VEC4","name":"part006_vertices#0_COLOR_0"},{"bufferView":4,"byteOffset":2028,"componentType":5123,"count":108,"type":"SCALAR","name":"part006_indices#0"},{"bufferView":3,"byteOffset":13608,"componentType":5126,"count":4,"min":[0.020419999957084657,0.001979999942705035,-0.634880006313324],"max":[0.020419999957084657,0.028189999982714654,-0.39013001322746279],"type":"VEC3","name":"part007_vertices#0_POSITION"},{"bufferView":3,"byteOffset":13620,"componentType":5120,"count":4,"type":"VEC4","name":"part007_vertices#0_TANGENT"},{"bufferView":3,"byteOffset":13624,"componentType":5120,"count":4,"type":"VEC4","name":"part007_vertices#0_NORMAL"},{"bufferView":3,"byteOffset":13628,"componentType":5122,"count":4,"type":"VEC2","name":"part007_vertices#0_TEXCOORD_0"},{"bufferView":3,"byteOffset":13632,"componentType":5122,"count":4,"type":"VEC2","name":"part007_vertices#0_TEXCOORD_1"},{"bufferView":3,"byteOffset":13636,"componentType":5123,"count":4,"type":"VEC4","name":"part007_vertices#0_COLOR_0"},{"bufferView":4,"byteOffset":2244,"componentType":5123,"count":6,"type":"SCALAR","name":"part007_indices#0"}],"animations":[{"name":"c_gear","channels":[{"sampler":0,"target":{"node":12,"path":"translation"}},{"sampler":1,"target":{"node":14,"path":"rotation"}},{"sampler":2,"target":{"node":18,"path":"rotation"}}],"samplers":[{"input":0,"output":1,"interpolation":"LINEAR"},{"input":2,"output":3,"interpolation":"LINEAR"},{"input":4,"output":5,"interpolation":"LINEAR"}]},{"name":"r_gear","channels":[{"sampler":0,"target":{"node":21,"path":"rotation"}},{"sampler":1,"target":{"node":23,"path":"rotation"}}],"samplers":[{"input":6,"output":7,"interpolation":"LINEAR"},{"input":8,"output":9,"interpolation":"LINEAR"}]},{"name":"l_gear","channels":[{"sampler":0,"target":{"node":26,"path":"rotation"}},{"sampler":1,"target":{"node":28,"path":"rotation"}}],"samplers":[{"input":10,"output":11,"interpolation":"LINEAR"},{"input":12,"output":13,"interpolation":"LINEAR"}]}],"asset":{"generator":"ModelConverterX","version":"2.0","extensions":{"ASOBO_asset_optimized":{"BoundingBoxMax":[6.72907018661499,2.5514800548553469,4.169919967651367],"BoundingBoxMin":[-6.72907018661499,-0.4874899983406067,-6.934599876403809],"MajorVersion":4,"MinorVersion":4,"UseCheckerboardMaterialForMissingTextures":true,"UseOnlyFilenameForImageURI":true}}},"bufferViews":[{"buffer":0,"byteLength":84,"byteStride":4},{"buffer":0,"byteLength":36,"byteStride":12,"byteOffset":84},{"buffer":0,"byteLength":288,"byteStride":16,"byteOffset":120},{"buffer":0,"byteLength":13752,"byteStride":36,"byteOffset":408,"target":34962,"name":"BufferViewVertexND"},{"buffer":0,"byteLength":2256,"byteOffset":14160,"target":34963,"name":"BufferViewIndex"}],"extensionsRequired":["MSFT_texture_dds"],"materials":[{"name":"material00","occlusionTexture":{"index":1},"emissiveTexture":{"index":2},"emissiveFactor":[0.019607843831181527,0.019607843831181527,0.019607843831181527],"pbrMetallicRoughness":{"baseColorTexture":{"index":0},"metallicRoughnessTexture":{"index":1}},"extensions":{"ASOBO_material_day_night_switch":{}}},{"name":"material01","pbrMetallicRoughness":{"baseColorFactor":[0.4392159879207611,0.4392159879207611,0.4392159879207611,1.0],"roughnessFactor":0.19999998807907105}},{"name":"material02","pbrMetallicRoughness":{"baseColorFactor":[0.7960780262947084,0.7960780262947084,0.7960780262947084,1.0],"metallicFactor":0.0}}],"meshes":[{"primitives":[{"attributes":{"COLOR_0":19,"NORMAL":16,"POSITION":14,"TANGENT":15,"TEXCOORD_0":17,"TEXCOORD_1":18},"indices":20,"material":2,"mode":4,"extras":{"ASOBO_primitive":{"PrimitiveCount":8,"VertexType":"VTX","VertexVersion":2}}}],"name":"part000"},{"primitives":[{"attributes":{"COLOR_0":26,"NORMAL":23,"POSITION":21,"TANGENT":22,"TEXCOORD_0":24,"TEXCOORD_1":25},"indices":27,"material":0,"mode":4,"extras":{"ASOBO_primitive":{"PrimitiveCount":252,"VertexType":"VTX","VertexVersion":2}}}],"name":"part001"},{"primitives":[{"attributes":{"COLOR_0":33,"NORMAL":30,"POSITION":28,"TANGENT":29,"TEXCOORD_0":31,"TEXCOORD_1":32},"indices":34,"material":0,"mode":4,"extras":{"ASOBO_primitive":{"PrimitiveCount":36,"VertexType":"VTX","VertexVersion":2}}}],"name":"part002"},{"primitives":[{"attributes":{"COLOR_0":40,"NORMAL":37,"POSITION":35,"TANGENT":36,"TEXCOORD_0":38,"TEXCOORD_1":39},"indices":41,"material":1,"mode":4,"extras":{"ASOBO_primitive":{"PrimitiveCount":4,"VertexType":"VTX","VertexVersion":2}}}],"name":"part003"},{"primitives":[{"attributes":{"COLOR_0":47,"NORMAL":44,"POSITION":42,"TANGENT":43,"TEXCOORD_0":45,"TEXCOORD_1":46},"indices":48,"material":0,"mode":4,"extras":{"ASOBO_primitive":{"PrimitiveCount":36,"VertexType":"VTX","VertexVersion":2}}}],"name":"part004"},{"primitives":[{"attributes":{"COLOR_0":54,"NORMAL":51,"POSITION":49,"TANGENT":50,"TEXCOORD_0":52,"TEXCOORD_1":53},"indices":55,"material":1,"mode":4,"extras":{"ASOBO_primitive":{"PrimitiveCount":2,"VertexType":"VTX","VertexVersion":2}}}],"name":"part005"},{"primitives":[{"attributes":{"COLOR_0":61,"NORMAL":58,"POSITION":56,"TANGENT":57,"TEXCOORD_0":59,"TEXCOORD_1":60},"indices":62,"material":0,"mode":4,"extras":{"ASOBO_primitive":{"PrimitiveCount":36,"VertexType":"VTX","VertexVersion":2}}}],"name":"part006"},{"primitives":[{"attributes":{"COLOR_0":68,"NORMAL":65,"POSITION":63,"TANGENT":64,"TEXCOORD_0":66,"TEXCOORD_1":67},"indices":69,"material":1,"mode":4,"extras":{"ASOBO_primitive":{"PrimitiveCount":2,"VertexType":"VTX","VertexVersion":2}}}],"name":"part007"}],"nodes":[{"name":"node_0","children":[1,2,3,4,5,6,7,8,9,10]},{"mesh":0,"name":"node_3"},{"mesh":1,"name":"node_4"},{"translation":[2.4500000476837164,-0.20000000298023225,-2.2000000476837155],"rotation":[-6.123031769111886e-17,3.061515884555943e-17,1.0,1.874575902277672e-33],"scale":[1.0,1.0,1.0],"name":"contrail1"},{"translation":[-6.650000095367432,0.019999999552965165,0.05000000074505725],"rotation":[-0.7071067811865475,0.0,0.0,0.7071067811865475],"scale":[1.0,1.0,1.0],"name":"landing_r"},{"translation":[6.650000095367432,0.019999999552965165,0.05000000074505887],"rotation":[-0.7071067811865475,0.0,0.0,0.7071067811865475],"scale":[1.0,1.0,1.0],"name":"landing_l"},{"translation":[-2.4500000476837155,-0.20000000298023225,-2.2000000476837164],"rotation":[-6.123031769111886e-17,3.061515884555943e-17,1.0,1.874575902277672e-33],"scale":[1.0,1.0,1.0],"name":"contrail2"},{"translation":[-3.428897732308875e-16,-1.25,2.799999952316284],"rotation":[-6.123031769111886e-17,3.061515884555943e-17,1.0,1.874575902277672e-33],"scale":[1.0,1.0,1.0],"name":"c_tire1"},{"translation":[2.5999999046325685,-1.149999976158142,-0.40000000596046417],"rotation":[-6.123031769111886e-17,3.061515884555943e-17,1.0,1.874575902277672e-33],"scale":[1.0,1.0,1.0],"name":"l_tire1"},{"translation":[-2.5999999046325685,-1.149999976158142,-0.4000000059604648],"rotation":[-6.123031769111886e-17,3.061515884555943e-17,1.0,1.874575902277672e-33],"scale":[1.0,1.0,1.0],"name":"r_tire1"},{"translation":[0.0,0.0,0.0],"rotation":[-4.329637285359677e-17,0.7071067811865475,0.7071067811865475,4.329637285359677e-17],"scale":[1.0,1.0,1.0],"name":"node_24","children":[11,19,24]},{"name":"node_45","children":[12]},{"name":"c_gear_AN_45","children":[13,17]},{"name":"node_46","children":[14]},{"mesh":2,"name":"c_gear_AN_46","children":[15,16]},{"translation":[0.002133999951183796,0.09647499769926073,-0.33408498764038088],"rotation":[0.0,0.0,1.0,-6.123031769111886e-17],"scale":[1.0,1.0,1.0],"name":"taxi"},{"translation":[0.002133999951183796,0.09647499769926073,-0.33408498764038088],"rotation":[0.0,0.0,1.0,-6.123031769111886e-17],"scale":[1.0,1.0,1.0],"name":"landing_nose"},{"name":"node_52","children":[18]},{"mesh":3,"name":"c_gear_AN_52"},{"translation":[2.487168073654175,-0.2990089952945709,-0.25207000970840456],"rotation":[0.0,0.0,0.0,1.0],"scale":[1.0,1.0,1.0],"name":"node_64","children":[20,22]},{"name":"node_65","children":[21]},{"mesh":4,"name":"r_gear_AN_65"},{"name":"node_69","children":[23]},{"mesh":5,"name":"r_gear_AN_69"},{"translation":[-2.487168073654175,-0.2990089952945709,-0.25207000970840456],"rotation":[0.0,0.0,0.0,1.0],"scale":[1.0,1.0,1.0],"name":"node_80","children":[25,27]},{"name":"node_81","children":[26]},{"mesh":6,"name":"l_gear_AN_81"},{"name":"node_85","children":[28]},{"mesh":7,"name":"l_gear_AN_85"}],"scene":0,"scenes":[{"nodes":[0]}],"textures":[{"extensions":{"MSFT_texture_dds":{"source":0}}},{"extensions":{"MSFT_texture_dds":{"source":1}}},{"extensions":{"MSFT_texture_dds":{"source":2}}}],"extensionsUsed":["ASOBO_material_day_night_switch","MSFT_texture_dds","ASOBO_asset_optimized"],"buffers":[{"byteLength":16416,"uri":"HTAI_Cessna_414A_MSFS_LOD4.bin"}],"images":[{"uri":"AI414.PNG.DDS","extras":"ASOBO_image_converted_meta"},{"uri":"AI414_C.PNG.DDS","extras":"ASOBO_image_converted_meta"},{"uri":"CABIN_LIGHTS.PNG.DDS","extras":"ASOBO_image_converted_meta"}]}
