{"accessors":[{"bufferView":0,"componentType":5126,"count":18,"min":[-0.22534185647964478,-0.004760752432048321,-0.12008775770664215],"max":[0.15737459063529969,0.004760746844112873,0.1554211527109146],"type":"VEC3","name":"antenna1_vertices#0_POSITION"},{"bufferView":0,"byteOffset":12,"componentType":5120,"count":18,"type":"VEC4","name":"antenna1_vertices#0_TANGENT"},{"bufferView":0,"byteOffset":16,"componentType":5120,"count":18,"type":"VEC4","name":"antenna1_vertices#0_NORMAL"},{"bufferView":0,"byteOffset":20,"componentType":5122,"count":18,"type":"VEC2","name":"antenna1_vertices#0_TEXCOORD_0"},{"bufferView":0,"byteOffset":24,"componentType":5122,"count":18,"type":"VEC2","name":"antenna1_vertices#0_TEXCOORD_1"},{"bufferView":0,"byteOffset":28,"componentType":5123,"count":18,"type":"VEC4","name":"antenna1_vertices#0_COLOR_0"},{"bufferView":1,"componentType":5123,"count":30,"type":"SCALAR","name":"antenna1_indices#0"},{"bufferView":0,"byteOffset":648,"componentType":5126,"count":18,"min":[-0.2131941318511963,-0.004760753363370895,-0.15542112290859223],"max":[0.2131938934326172,0.004760752897709608,0.1554211676120758],"type":"VEC3","name":"antenna2_vertices#0_POSITION"},{"bufferView":0,"byteOffset":660,"componentType":5120,"count":18,"type":"VEC4","name":"antenna2_vertices#0_TANGENT"},{"bufferView":0,"byteOffset":664,"componentType":5120,"count":18,"type":"VEC4","name":"antenna2_vertices#0_NORMAL"},{"bufferView":0,"byteOffset":668,"componentType":5122,"count":18,"type":"VEC2","name":"antenna2_vertices#0_TEXCOORD_0"},{"bufferView":0,"byteOffset":672,"componentType":5122,"count":18,"type":"VEC2","name":"antenna2_vertices#0_TEXCOORD_1"},{"bufferView":0,"byteOffset":676,"componentType":5123,"count":18,"type":"VEC4","name":"antenna2_vertices#0_COLOR_0"},{"bufferView":1,"byteOffset":60,"componentType":5123,"count":30,"type":"SCALAR","name":"antenna2_indices#0"},{"bufferView":0,"byteOffset":1296,"componentType":5126,"count":45,"min":[-0.14000000059604646,-0.019304990768432618,-0.14000000059604646],"max":[0.14000000059604646,0.07000000029802323,0.14000000059604646],"type":"VEC3","name":"antenna3_vertices#0_POSITION"},{"bufferView":0,"byteOffset":1308,"componentType":5120,"count":45,"type":"VEC4","name":"antenna3_vertices#0_TANGENT"},{"bufferView":0,"byteOffset":1312,"componentType":5120,"count":45,"type":"VEC4","name":"antenna3_vertices#0_NORMAL"},{"bufferView":0,"byteOffset":1316,"componentType":5122,"count":45,"type":"VEC2","name":"antenna3_vertices#0_TEXCOORD_0"},{"bufferView":0,"byteOffset":1320,"componentType":5122,"count":45,"type":"VEC2","name":"antenna3_vertices#0_TEXCOORD_1"},{"bufferView":0,"byteOffset":1324,"componentType":5123,"count":45,"type":"VEC4","name":"antenna3_vertices#0_COLOR_0"},{"bufferView":1,"byteOffset":120,"componentType":5123,"count":120,"type":"SCALAR","name":"antenna3_indices#0"},{"bufferView":0,"byteOffset":2916,"componentType":5126,"count":36,"min":[-0.25382187962532046,-0.1326579451560974,-0.03837345540523529],"max":[0.25382187962532046,0.1326579451560974,0.01058282796293497],"type":"VEC3","name":"antenna4_vertices#0_POSITION"},{"bufferView":0,"byteOffset":2928,"componentType":5120,"count":36,"type":"VEC4","name":"antenna4_vertices#0_TANGENT"},{"bufferView":0,"byteOffset":2932,"componentType":5120,"count":36,"type":"VEC4","name":"antenna4_vertices#0_NORMAL"},{"bufferView":0,"byteOffset":2936,"componentType":5122,"count":36,"type":"VEC2","name":"antenna4_vertices#0_TEXCOORD_0"},{"bufferView":0,"byteOffset":2940,"componentType":5122,"count":36,"type":"VEC2","name":"antenna4_vertices#0_TEXCOORD_1"},{"bufferView":0,"byteOffset":2944,"componentType":5123,"count":36,"type":"VEC4","name":"antenna4_vertices#0_COLOR_0"},{"bufferView":1,"byteOffset":360,"componentType":5123,"count":120,"type":"SCALAR","name":"antenna4_indices#0"}],"asset":{"generator":"babylon.js glTF exporter for 3dsmax 2021 v1.0.8378.27976","version":"2.0","extensions":{"ASOBO_asset_optimized":{"BoundingBoxMax":[0.25382187962532046,0.1326579451560974,0.1554211676120758],"BoundingBoxMin":[-0.25382187962532046,-0.1326579451560974,-0.15542112290859223],"MajorVersion":4,"MinorVersion":4,"UseCheckerboardMaterialForMissingTextures":true,"UseOnlyFilenameForImageURI":true},"ASOBO_normal_map_convention":{"tangent_space_convention":"DirectX"}}},"bufferViews":[{"buffer":0,"byteLength":4212,"byteStride":36,"target":34962,"name":"BufferViewVertexND"},{"buffer":0,"byteLength":600,"byteOffset":4212,"target":34963,"name":"BufferViewIndex"}],"extensionsRequired":["MSFT_texture_dds"],"materials":[{"name":"Antenna","alphaMode":"MASK","pbrMetallicRoughness":{"metallicFactor":0.0,"baseColorTexture":{"index":0}}}],"meshes":[{"primitives":[{"attributes":{"COLOR_0":5,"NORMAL":2,"POSITION":0,"TANGENT":1,"TEXCOORD_0":3,"TEXCOORD_1":4},"indices":6,"material":0,"mode":4,"extras":{"ASOBO_primitive":{"PrimitiveCount":10,"VertexType":"VTX","VertexVersion":2}}}],"name":"antenna1"},{"primitives":[{"attributes":{"COLOR_0":12,"NORMAL":9,"POSITION":7,"TANGENT":8,"TEXCOORD_0":10,"TEXCOORD_1":11},"indices":13,"material":0,"mode":4,"extras":{"ASOBO_primitive":{"PrimitiveCount":10,"VertexType":"VTX","VertexVersion":2}}}],"name":"antenna2"},{"primitives":[{"attributes":{"COLOR_0":19,"NORMAL":16,"POSITION":14,"TANGENT":15,"TEXCOORD_0":17,"TEXCOORD_1":18},"indices":20,"material":0,"mode":4,"extras":{"ASOBO_primitive":{"PrimitiveCount":40,"VertexType":"VTX","VertexVersion":2}}}],"name":"antenna3"},{"primitives":[{"attributes":{"COLOR_0":26,"NORMAL":23,"POSITION":21,"TANGENT":22,"TEXCOORD_0":24,"TEXCOORD_1":25},"indices":27,"material":0,"mode":4,"extras":{"ASOBO_primitive":{"PrimitiveCount":40,"VertexType":"VTX","VertexVersion":2}}}],"name":"antenna4"}],"nodes":[{"translation":[-4.17343472e-7,0.0,-2.04499769],"rotation":[-0.49999997,-0.5000001,0.49999997,-0.49999997],"extensions":{"ASOBO_unique_id":{"id":"antenna_dummy"}},"name":"antenna_dummy","children":[1,2,3,4]},{"translation":[-5.09511375,-0.06116289,-1.92213213],"rotation":[0.0,0.0,8.881786e-16,1.0],"mesh":0,"extensions":{"ASOBO_unique_id":{"id":"antenna1"}},"name":"antenna1"},{"translation":[-6.76012135,0.019866975,0.8935159],"rotation":[-1.0,-5.21540642e-8,-3.7252903e-8,3.7252903e-8],"mesh":1,"extensions":{"ASOBO_unique_id":{"id":"antenna2"}},"name":"antenna2"},{"translation":[-7.08204842,2.38564041e-7,-1.7772398],"rotation":[0.7071068,-8.370426e-8,-8.48831547e-8,0.7071068],"mesh":2,"extensions":{"ASOBO_unique_id":{"id":"antenna3"}},"name":"antenna3"},{"translation":[-2.71001959,4.29671559e-7,0.7641269],"rotation":[0.0,0.0,8.881786e-16,1.0],"mesh":3,"extensions":{"ASOBO_unique_id":{"id":"antenna4"}},"name":"antenna4"}],"scene":0,"scenes":[{"nodes":[0]}],"textures":[{"extensions":{"MSFT_texture_dds":{"source":0}}}],"extensionsUsed":["ASOBO_normal_map_convention","ASOBO_unique_id","MSFT_texture_dds","ASOBO_asset_optimized"],"buffers":[{"byteLength":4812,"uri":"AIG_DHC-Dash-8-200_Antenna.bin"}],"images":[{"uri":"AIG_DASH-8-200_ANTENNA.PNG.DDS","extras":"ASOBO_image_converted_meta"}]}
