{"accessors":[{"bufferView":0,"componentType":5126,"count":3,"min":[0.0],"max":[200.0],"type":"SCALAR"},{"bufferView":1,"componentType":5126,"count":3,"type":"VEC3"},{"bufferView":0,"byteOffset":12,"componentType":5126,"count":4,"min":[0.0],"max":[200.0],"type":"SCALAR"},{"bufferView":2,"componentType":5126,"count":4,"type":"VEC4"},{"bufferView":0,"byteOffset":28,"componentType":5126,"count":3,"min":[0.0],"max":[200.0],"type":"SCALAR"},{"bufferView":2,"byteOffset":64,"componentType":5126,"count":3,"type":"VEC4"},{"bufferView":0,"byteOffset":40,"componentType":5126,"count":5,"min":[0.0],"max":[100.0],"type":"SCALAR"},{"bufferView":2,"byteOffset":112,"componentType":5126,"count":5,"type":"VEC4"},{"bufferView":0,"byteOffset":60,"componentType":5126,"count":3,"min":[0.0],"max":[200.0],"type":"SCALAR"},{"bufferView":2,"byteOffset":192,"componentType":5126,"count":3,"type":"VEC4"},{"bufferView":0,"byteOffset":72,"componentType":5126,"count":5,"min":[0.0],"max":[100.0],"type":"SCALAR"},{"bufferView":2,"byteOffset":240,"componentType":5126,"count":5,"type":"VEC4"},{"bufferView":0,"byteOffset":92,"componentType":5126,"count":3,"min":[0.0],"max":[200.0],"type":"SCALAR"},{"bufferView":2,"byteOffset":320,"componentType":5126,"count":3,"type":"VEC4"},{"bufferView":0,"byteOffset":104,"componentType":5126,"count":5,"min":[0.0],"max":[100.0],"type":"SCALAR"},{"bufferView":2,"byteOffset":368,"componentType":5126,"count":5,"type":"VEC4"},{"bufferView":3,"componentType":5126,"count":10,"min":[-5.940839767456055,0.05034000054001808,1.018530011177063],"max":[5.940839767456055,0.25870999693870547,1.3823399543762208],"type":"VEC3","name":"part000_vertices#0_POSITION"},{"bufferView":3,"byteOffset":12,"componentType":5120,"count":10,"type":"VEC4","name":"part000_vertices#0_TANGENT"},{"bufferView":3,"byteOffset":16,"componentType":5120,"count":10,"type":"VEC4","name":"part000_vertices#0_NORMAL"},{"bufferView":3,"byteOffset":20,"componentType":5122,"count":10,"type":"VEC2","name":"part000_vertices#0_TEXCOORD_0"},{"bufferView":3,"byteOffset":24,"componentType":5122,"count":10,"type":"VEC2","name":"part000_vertices#0_TEXCOORD_1"},{"bufferView":3,"byteOffset":28,"componentType":5123,"count":10,"type":"VEC4","name":"part000_vertices#0_COLOR_0"},{"bufferView":4,"componentType":5123,"count":18,"type":"SCALAR","name":"part000_indices#0"},{"bufferView":3,"byteOffset":360,"componentType":5126,"count":44,"min":[-6.08204984664917,-0.031539998948574069,-6.0960001945495609],"max":[6.08204984664917,0.38023000955581667,4.169919967651367],"type":"VEC3","name":"part001_vertices#0_POSITION"},{"bufferView":3,"byteOffset":372,"componentType":5120,"count":44,"type":"VEC4","name":"part001_vertices#0_TANGENT"},{"bufferView":3,"byteOffset":376,"componentType":5120,"count":44,"type":"VEC4","name":"part001_vertices#0_NORMAL"},{"bufferView":3,"byteOffset":380,"componentType":5122,"count":44,"type":"VEC2","name":"part001_vertices#0_TEXCOORD_0"},{"bufferView":3,"byteOffset":384,"componentType":5122,"count":44,"type":"VEC2","name":"part001_vertices#0_TEXCOORD_1"},{"bufferView":3,"byteOffset":388,"componentType":5123,"count":44,"type":"VEC4","name":"part001_vertices#0_COLOR_0"},{"bufferView":4,"byteOffset":36,"componentType":5123,"count":108,"type":"SCALAR","name":"part001_indices#0"},{"bufferView":3,"byteOffset":1944,"componentType":5126,"count":238,"min":[-5.608069896697998,-0.4874899983406067,-6.934599876403809],"max":[5.608119964599609,2.5514800548553469,4.169919967651367],"type":"VEC3","name":"part002_vertices#0_POSITION"},{"bufferView":3,"byteOffset":1956,"componentType":5120,"count":238,"type":"VEC4","name":"part002_vertices#0_TANGENT"},{"bufferView":3,"byteOffset":1960,"componentType":5120,"count":238,"type":"VEC4","name":"part002_vertices#0_NORMAL"},{"bufferView":3,"byteOffset":1964,"componentType":5122,"count":238,"type":"VEC2","name":"part002_vertices#0_TEXCOORD_0"},{"bufferView":3,"byteOffset":1968,"componentType":5122,"count":238,"type":"VEC2","name":"part002_vertices#0_TEXCOORD_1"},{"bufferView":3,"byteOffset":1972,"componentType":5123,"count":238,"type":"VEC4","name":"part002_vertices#0_COLOR_0"},{"bufferView":4,"byteOffset":252,"componentType":5123,"count":600,"type":"SCALAR","name":"part002_indices#0"},{"bufferView":3,"byteOffset":10512,"componentType":5126,"count":8,"min":[-0.02800000086426735,-0.04588000103831291,-0.5166900157928467],"max":[0.0313199982047081,-0.0017999999690800906,-0.4113300144672394],"type":"VEC3","name":"part003_vertices#0_POSITION"},{"bufferView":3,"byteOffset":10524,"componentType":5120,"count":8,"type":"VEC4","name":"part003_vertices#0_TANGENT"},{"bufferView":3,"byteOffset":10528,"componentType":5120,"count":8,"type":"VEC4","name":"part003_vertices#0_NORMAL"},{"bufferView":3,"byteOffset":10532,"componentType":5122,"count":8,"type":"VEC2","name":"part003_vertices#0_TEXCOORD_0"},{"bufferView":3,"byteOffset":10536,"componentType":5122,"count":8,"type":"VEC2","name":"part003_vertices#0_TEXCOORD_1"},{"bufferView":3,"byteOffset":10540,"componentType":5123,"count":8,"type":"VEC4","name":"part003_vertices#0_COLOR_0"},{"bufferView":4,"byteOffset":1452,"componentType":5123,"count":12,"type":"SCALAR","name":"part003_indices#0"},{"bufferView":3,"byteOffset":10800,"componentType":5126,"count":16,"min":[0.0,-0.21585999429225923,-0.21585999429225923],"max":[0.0,0.21585999429225923,0.21585999429225923],"type":"VEC3","name":"part004_vertices#0_POSITION"},{"bufferView":3,"byteOffset":10812,"componentType":5120,"count":16,"type":"VEC4","name":"part004_vertices#0_TANGENT"},{"bufferView":3,"byteOffset":10816,"componentType":5120,"count":16,"type":"VEC4","name":"part004_vertices#0_NORMAL"},{"bufferView":3,"byteOffset":10820,"componentType":5122,"count":16,"type":"VEC2","name":"part004_vertices#0_TEXCOORD_0"},{"bufferView":3,"byteOffset":10824,"componentType":5122,"count":16,"type":"VEC2","name":"part004_vertices#0_TEXCOORD_1"},{"bufferView":3,"byteOffset":10828,"componentType":5123,"count":16,"type":"VEC4","name":"part004_vertices#0_COLOR_0"},{"bufferView":4,"byteOffset":1476,"componentType":5123,"count":108,"type":"SCALAR","name":"part004_indices#0"},{"bufferView":3,"byteOffset":11376,"componentType":5126,"count":4,"min":[-0.020419999957084657,0.001979999942705035,-0.634880006313324],"max":[-0.020419999957084657,0.028189999982714654,-0.39013001322746279],"type":"VEC3","name":"part005_vertices#0_POSITION"},{"bufferView":3,"byteOffset":11388,"componentType":5120,"count":4,"type":"VEC4","name":"part005_vertices#0_TANGENT"},{"bufferView":3,"byteOffset":11392,"componentType":5120,"count":4,"type":"VEC4","name":"part005_vertices#0_NORMAL"},{"bufferView":3,"byteOffset":11396,"componentType":5122,"count":4,"type":"VEC2","name":"part005_vertices#0_TEXCOORD_0"},{"bufferView":3,"byteOffset":11400,"componentType":5122,"count":4,"type":"VEC2","name":"part005_vertices#0_TEXCOORD_1"},{"bufferView":3,"byteOffset":11404,"componentType":5123,"count":4,"type":"VEC4","name":"part005_vertices#0_COLOR_0"},{"bufferView":4,"byteOffset":1692,"componentType":5123,"count":6,"type":"SCALAR","name":"part005_indices#0"},{"bufferView":3,"byteOffset":11520,"componentType":5126,"count":16,"min":[0.0,-0.27230000495910647,-0.27230000495910647],"max":[0.0,0.27230000495910647,0.27230000495910647],"type":"VEC3","name":"part006_vertices#0_POSITION"},{"bufferView":3,"byteOffset":11532,"componentType":5120,"count":16,"type":"VEC4","name":"part006_vertices#0_TANGENT"},{"bufferView":3,"byteOffset":11536,"componentType":5120,"count":16,"type":"VEC4","name":"part006_vertices#0_NORMAL"},{"bufferView":3,"byteOffset":11540,"componentType":5122,"count":16,"type":"VEC2","name":"part006_vertices#0_TEXCOORD_0"},{"bufferView":3,"byteOffset":11544,"componentType":5122,"count":16,"type":"VEC2","name":"part006_vertices#0_TEXCOORD_1"},{"bufferView":3,"byteOffset":11548,"componentType":5123,"count":16,"type":"VEC4","name":"part006_vertices#0_COLOR_0"},{"bufferView":4,"byteOffset":1704,"componentType":5123,"count":108,"type":"SCALAR","name":"part006_indices#0"},{"bufferView":3,"byteOffset":12096,"componentType":5126,"count":4,"min":[0.020419999957084657,0.001979999942705035,-0.634880006313324],"max":[0.020419999957084657,0.028189999982714654,-0.39013001322746279],"type":"VEC3","name":"part007_vertices#0_POSITION"},{"bufferView":3,"byteOffset":12108,"componentType":5120,"count":4,"type":"VEC4","name":"part007_vertices#0_TANGENT"},{"bufferView":3,"byteOffset":12112,"componentType":5120,"count":4,"type":"VEC4","name":"part007_vertices#0_NORMAL"},{"bufferView":3,"byteOffset":12116,"componentType":5122,"count":4,"type":"VEC2","name":"part007_vertices#0_TEXCOORD_0"},{"bufferView":3,"byteOffset":12120,"componentType":5122,"count":4,"type":"VEC2","name":"part007_vertices#0_TEXCOORD_1"},{"bufferView":3,"byteOffset":12124,"componentType":5123,"count":4,"type":"VEC4","name":"part007_vertices#0_COLOR_0"},{"bufferView":4,"byteOffset":1920,"componentType":5123,"count":6,"type":"SCALAR","name":"part007_indices#0"},{"bufferView":3,"byteOffset":12240,"componentType":5126,"count":16,"min":[0.0,-0.27230000495910647,-0.27230000495910647],"max":[0.0,0.27230000495910647,0.27230000495910647],"type":"VEC3","name":"part008_vertices#0_POSITION"},{"bufferView":3,"byteOffset":12252,"componentType":5120,"count":16,"type":"VEC4","name":"part008_vertices#0_TANGENT"},{"bufferView":3,"byteOffset":12256,"componentType":5120,"count":16,"type":"VEC4","name":"part008_vertices#0_NORMAL"},{"bufferView":3,"byteOffset":12260,"componentType":5122,"count":16,"type":"VEC2","name":"part008_vertices#0_TEXCOORD_0"},{"bufferView":3,"byteOffset":12264,"componentType":5122,"count":16,"type":"VEC2","name":"part008_vertices#0_TEXCOORD_1"},{"bufferView":3,"byteOffset":12268,"componentType":5123,"count":16,"type":"VEC4","name":"part008_vertices#0_COLOR_0"},{"bufferView":4,"byteOffset":1932,"componentType":5123,"count":108,"type":"SCALAR","name":"part008_indices#0"}],"animations":[{"name":"c_gear","channels":[{"sampler":0,"target":{"node":13,"path":"translation"}},{"sampler":1,"target":{"node":17,"path":"rotation"}}],"samplers":[{"input":0,"output":1,"interpolation":"LINEAR"},{"input":4,"output":5,"interpolation":"LINEAR"}]},{"name":"custom_anim_C_WHEEL_LR","channels":[{"sampler":0,"target":{"node":15,"path":"rotation"}}],"samplers":[{"input":2,"output":3,"interpolation":"LINEAR"}]},{"name":"c_tire_blurred_key","channels":[{"sampler":0,"target":{"node":20,"path":"rotation"}}],"samplers":[{"input":6,"output":7,"interpolation":"LINEAR"}]},{"name":"r_gear","channels":[{"sampler":0,"target":{"node":25,"path":"rotation"}}],"samplers":[{"input":8,"output":9,"interpolation":"LINEAR"}]},{"name":"r_tire_blurred_key","channels":[{"sampler":0,"target":{"node":28,"path":"rotation"}}],"samplers":[{"input":10,"output":11,"interpolation":"LINEAR"}]},{"name":"l_gear","channels":[{"sampler":0,"target":{"node":31,"path":"rotation"}}],"samplers":[{"input":12,"output":13,"interpolation":"LINEAR"}]},{"name":"l_tire_blurred_key","channels":[{"sampler":0,"target":{"node":34,"path":"rotation"}}],"samplers":[{"input":14,"output":15,"interpolation":"LINEAR"}]}],"asset":{"generator":"ModelConverterX","version":"2.0","extensions":{"ASOBO_asset_optimized":{"BoundingBoxMax":[6.08204984664917,2.5514800548553469,4.169919967651367],"BoundingBoxMin":[-6.08204984664917,-0.4874899983406067,-6.934599876403809],"MajorVersion":4,"MinorVersion":4,"UseCheckerboardMaterialForMissingTextures":true,"UseOnlyFilenameForImageURI":true}}},"bufferViews":[{"buffer":0,"byteLength":124,"byteStride":4},{"buffer":0,"byteLength":36,"byteStride":12,"byteOffset":124},{"buffer":0,"byteLength":448,"byteStride":16,"byteOffset":160},{"buffer":0,"byteLength":12816,"byteStride":36,"byteOffset":608,"target":34962,"name":"BufferViewVertexND"},{"buffer":0,"byteLength":2148,"byteOffset":13424,"target":34963,"name":"BufferViewIndex"}],"extensionsRequired":["MSFT_texture_dds"],"materials":[{"name":"material00","emissiveTexture":{"index":1},"emissiveFactor":[0.019607843831181527,0.019607843831181527,0.019607843831181527],"pbrMetallicRoughness":{"metallicFactor":0.0,"baseColorTexture":{"index":0}},"extensions":{"ASOBO_material_day_night_switch":{}}},{"name":"material01","pbrMetallicRoughness":{"baseColorFactor":[0.03921600058674812,0.03921600058674812,0.03921600058674812,1.0],"metallicFactor":0.0}},{"name":"material02","pbrMetallicRoughness":{"baseColorFactor":[0.4392159879207611,0.4392159879207611,0.4392159879207611,1.0],"roughnessFactor":0.30000001192092898}},{"name":"material03","pbrMetallicRoughness":{"baseColorFactor":[0.7960780262947084,0.7960780262947084,0.7960780262947084,1.0],"metallicFactor":0.0}}],"meshes":[{"primitives":[{"attributes":{"COLOR_0":21,"NORMAL":18,"POSITION":16,"TANGENT":17,"TEXCOORD_0":19,"TEXCOORD_1":20},"indices":22,"material":1,"mode":4,"extras":{"ASOBO_primitive":{"PrimitiveCount":6,"VertexType":"VTX","VertexVersion":2}}}],"name":"part000"},{"primitives":[{"attributes":{"COLOR_0":28,"NORMAL":25,"POSITION":23,"TANGENT":24,"TEXCOORD_0":26,"TEXCOORD_1":27},"indices":29,"material":3,"mode":4,"extras":{"ASOBO_primitive":{"PrimitiveCount":36,"VertexType":"VTX","VertexVersion":2}}}],"name":"part001"},{"primitives":[{"attributes":{"COLOR_0":35,"NORMAL":32,"POSITION":30,"TANGENT":31,"TEXCOORD_0":33,"TEXCOORD_1":34},"indices":36,"material":0,"mode":4,"extras":{"ASOBO_primitive":{"PrimitiveCount":200,"VertexType":"VTX","VertexVersion":2}}}],"name":"part002"},{"primitives":[{"attributes":{"COLOR_0":42,"NORMAL":39,"POSITION":37,"TANGENT":38,"TEXCOORD_0":40,"TEXCOORD_1":41},"indices":43,"material":2,"mode":4,"extras":{"ASOBO_primitive":{"PrimitiveCount":4,"VertexType":"VTX","VertexVersion":2}}}],"name":"part003"},{"primitives":[{"attributes":{"COLOR_0":49,"NORMAL":46,"POSITION":44,"TANGENT":45,"TEXCOORD_0":47,"TEXCOORD_1":48},"indices":50,"material":0,"mode":4,"extras":{"ASOBO_primitive":{"PrimitiveCount":36,"VertexType":"VTX","VertexVersion":2}}}],"name":"part004"},{"primitives":[{"attributes":{"COLOR_0":56,"NORMAL":53,"POSITION":51,"TANGENT":52,"TEXCOORD_0":54,"TEXCOORD_1":55},"indices":57,"material":2,"mode":4,"extras":{"ASOBO_primitive":{"PrimitiveCount":2,"VertexType":"VTX","VertexVersion":2}}}],"name":"part005"},{"primitives":[{"attributes":{"COLOR_0":63,"NORMAL":60,"POSITION":58,"TANGENT":59,"TEXCOORD_0":61,"TEXCOORD_1":62},"indices":64,"material":0,"mode":4,"extras":{"ASOBO_primitive":{"PrimitiveCount":36,"VertexType":"VTX","VertexVersion":2}}}],"name":"part006"},{"primitives":[{"attributes":{"COLOR_0":70,"NORMAL":67,"POSITION":65,"TANGENT":66,"TEXCOORD_0":68,"TEXCOORD_1":69},"indices":71,"material":2,"mode":4,"extras":{"ASOBO_primitive":{"PrimitiveCount":2,"VertexType":"VTX","VertexVersion":2}}}],"name":"part007"},{"primitives":[{"attributes":{"COLOR_0":77,"NORMAL":74,"POSITION":72,"TANGENT":73,"TEXCOORD_0":75,"TEXCOORD_1":76},"indices":78,"material":0,"mode":4,"extras":{"ASOBO_primitive":{"PrimitiveCount":36,"VertexType":"VTX","VertexVersion":2}}}],"name":"part008"}],"nodes":[{"name":"node_0","children":[1,2,3,4,5,6,7,8,9,10,11]},{"mesh":0,"name":"node_4"},{"mesh":1,"name":"node_5"},{"mesh":2,"name":"node_6"},{"translation":[5.71999979019165,-0.05000000074505806,-0.5500000119209283],"rotation":[-0.7071067811865475,0.0,0.0,0.7071067811865475],"scale":[1.0,1.0,1.0],"name":"landing_l"},{"translation":[2.4500000476837164,-0.20000000298023225,-2.2000000476837155],"rotation":[-6.123031769111886e-17,3.061515884555943e-17,1.0,1.874575902277672e-33],"scale":[1.0,1.0,1.0],"name":"contrail1"},{"translation":[-2.4500000476837155,-0.20000000298023225,-2.2000000476837164],"rotation":[-6.123031769111886e-17,3.061515884555943e-17,1.0,1.874575902277672e-33],"scale":[1.0,1.0,1.0],"name":"contrail2"},{"translation":[-3.428897732308875e-16,-1.25,2.799999952316284],"rotation":[-6.123031769111886e-17,3.061515884555943e-17,1.0,1.874575902277672e-33],"scale":[1.0,1.0,1.0],"name":"c_tire1"},{"translation":[2.5999999046325685,-1.149999976158142,-0.40000000596046417],"rotation":[-6.123031769111886e-17,3.061515884555943e-17,1.0,1.874575902277672e-33],"scale":[1.0,1.0,1.0],"name":"l_tire1"},{"translation":[-2.5999999046325685,-1.149999976158142,-0.4000000059604648],"rotation":[-6.123031769111886e-17,3.061515884555943e-17,1.0,1.874575902277672e-33],"scale":[1.0,1.0,1.0],"name":"r_tire1"},{"translation":[-5.71999979019165,-0.05000000074505806,-0.5500000119209296],"rotation":[-0.7071067811865475,0.0,0.0,0.7071067811865475],"scale":[1.0,1.0,1.0],"name":"landing_r"},{"translation":[0.0,0.0,0.0],"rotation":[-4.329637285359677e-17,0.7071067811865475,0.7071067811865475,4.329637285359677e-17],"scale":[1.0,1.0,1.0],"name":"node_30","children":[12,23,29]},{"name":"node_55","children":[13]},{"name":"c_gear_AN_55","children":[14]},{"name":"node_56","children":[15]},{"name":"custom_anim_C_WHEEL_LR_AN_56","children":[16]},{"name":"node_70","children":[17]},{"mesh":3,"name":"c_gear_AN_70","children":[18,21,22]},{"translation":[0.0,-0.006095999851822853,-0.8284459710121155],"rotation":[0.0,0.0,0.0,1.0],"scale":[1.0,1.0,1.0],"name":"node_71","children":[19]},{"name":"node_72","children":[20]},{"mesh":4,"name":"c_tire_blurred_key_AN_72"},{"translation":[0.002133999951183796,0.09647499769926073,-0.3440850079059601],"rotation":[0.0,0.0,1.0,-6.123031769111886e-17],"scale":[1.0,1.0,1.0],"name":"taxi"},{"translation":[0.002133999951183796,0.09647499769926073,-0.3440850079059601],"rotation":[0.0,0.0,1.0,-6.123031769111886e-17],"scale":[1.0,1.0,1.0],"name":"landing_nose"},{"translation":[2.487168073654175,-0.2990089952945709,-0.25207000970840456],"rotation":[0.0,0.0,0.0,1.0],"scale":[1.0,1.0,1.0],"name":"node_78","children":[24]},{"name":"node_79","children":[25]},{"mesh":5,"name":"r_gear_AN_79","children":[26]},{"translation":[0.09662199765443802,0.004267000127583742,-0.6806179881095886],"rotation":[0.0,0.0,0.0,1.0],"scale":[1.0,1.0,1.0],"name":"node_80","children":[27]},{"name":"node_81","children":[28]},{"mesh":6,"name":"r_tire_blurred_key_AN_81"},{"translation":[-2.487168073654175,-0.2990089952945709,-0.25207000970840456],"rotation":[0.0,0.0,0.0,1.0],"scale":[1.0,1.0,1.0],"name":"node_98","children":[30]},{"name":"node_99","children":[31]},{"mesh":7,"name":"l_gear_AN_99","children":[32]},{"translation":[-0.09662199765443802,-0.020726000890135766,-0.6818379759788513],"rotation":[0.0,0.0,0.0,1.0],"scale":[1.0,1.0,1.0],"name":"node_100","children":[33]},{"name":"node_101","children":[34]},{"mesh":8,"name":"l_tire_blurred_key_AN_101"}],"scene":0,"scenes":[{"nodes":[0]}],"textures":[{"extensions":{"MSFT_texture_dds":{"source":0}}},{"extensions":{"MSFT_texture_dds":{"source":1}}}],"extensionsUsed":["ASOBO_material_day_night_switch","MSFT_texture_dds","ASOBO_asset_optimized"],"buffers":[{"byteLength":15572,"uri":"HTAI_Cessna_402B_MSFS_LOD5.bin"}],"images":[{"uri":"AI402.PNG.DDS","extras":"ASOBO_image_converted_meta"},{"uri":"CABIN_LIGHTS.PNG.DDS","extras":"ASOBO_image_converted_meta"}]}
