{"accessors":[{"bufferView":0,"componentType":5126,"count":3,"min":[0.0],"max":[200.0],"type":"SCALAR"},{"bufferView":1,"componentType":5126,"count":3,"type":"VEC4"},{"bufferView":2,"componentType":5126,"count":1014,"min":[-7.92710018157959,-0.5565000176429749,-9.04010009765625],"max":[7.929329872131348,3.9195098876953127,7.947120189666748],"type":"VEC3","name":"part000_vertices#0_POSITION"},{"bufferView":2,"byteOffset":12,"componentType":5120,"count":1014,"type":"VEC4","name":"part000_vertices#0_TANGENT"},{"bufferView":2,"byteOffset":16,"componentType":5120,"count":1014,"type":"VEC4","name":"part000_vertices#0_NORMAL"},{"bufferView":2,"byteOffset":20,"componentType":5122,"count":1014,"type":"VEC2","name":"part000_vertices#0_TEXCOORD_0"},{"bufferView":2,"byteOffset":24,"componentType":5122,"count":1014,"type":"VEC2","name":"part000_vertices#0_TEXCOORD_1"},{"bufferView":2,"byteOffset":28,"componentType":5123,"count":1014,"type":"VEC4","name":"part000_vertices#0_COLOR_0"},{"bufferView":3,"componentType":5123,"count":2571,"type":"SCALAR","name":"part000_indices#0"}],"animations":[{"name":"c_gear","channels":[{"sampler":0,"target":{"node":11,"path":"rotation"}}],"samplers":[{"input":0,"output":1,"interpolation":"LINEAR"}]}],"asset":{"generator":"ModelConverterX","version":"2.0","extensions":{"ASOBO_asset_optimized":{"BoundingBoxMax":[7.929329872131348,3.9195098876953127,7.947120189666748],"BoundingBoxMin":[-7.92710018157959,-0.5565000176429749,-9.04010009765625],"MajorVersion":4,"MinorVersion":4,"UseCheckerboardMaterialForMissingTextures":true,"UseOnlyFilenameForImageURI":true}}},"bufferViews":[{"buffer":0,"byteLength":12,"byteStride":4},{"buffer":0,"byteLength":48,"byteStride":16,"byteOffset":12},{"buffer":0,"byteLength":36504,"byteStride":36,"byteOffset":60,"target":34962,"name":"BufferViewVertexND"},{"buffer":0,"byteLength":5142,"byteOffset":36564,"target":34963,"name":"BufferViewIndex"}],"extensionsRequired":["MSFT_texture_dds"],"materials":[{"name":"material00","emissiveTexture":{"index":1},"emissiveFactor":[0.019607843831181527,0.019607843831181527,0.019607843831181527],"pbrMetallicRoughness":{"metallicFactor":0.0,"baseColorTexture":{"index":0}},"extensions":{"ASOBO_material_day_night_switch":{}}}],"meshes":[{"primitives":[{"attributes":{"COLOR_0":7,"NORMAL":4,"POSITION":2,"TANGENT":3,"TEXCOORD_0":5,"TEXCOORD_1":6},"indices":8,"material":0,"mode":4,"extras":{"ASOBO_primitive":{"PrimitiveCount":857,"VertexType":"VTX","VertexVersion":2}}}],"name":"part000"}],"nodes":[{"name":"node_0","children":[1,2,3,4,5,6,7,8,9]},{"mesh":0,"name":"node_1"},{"translation":[-6.000571250517211e-16,-1.2000000476837159,4.900000095367432],"rotation":[-6.123031769111886e-17,3.061515884555943e-17,1.0,1.874575902277672e-33],"scale":[1.0,1.0,1.0],"name":"c_tire1"},{"translation":[1.7500000000000009,0.699999988079071,-5.0],"rotation":[-6.123031769111886e-17,3.061515884555943e-17,1.0,1.874575902277672e-33],"scale":[1.0,1.0,1.0],"name":"contrail1"},{"translation":[0.9999999999999997,-0.25,2.0],"rotation":[-0.7071067811865475,0.0,0.0,0.7071067811865475],"scale":[1.0,1.0,1.0],"name":"landing_l"},{"translation":[-1.0000000000000003,-0.25,2.0],"rotation":[-0.7071067811865475,0.0,0.0,0.7071067811865475],"scale":[1.0,1.0,1.0],"name":"landing_r"},{"translation":[-1.7499999999999992,0.699999988079071,-5.0],"rotation":[-6.123031769111886e-17,3.061515884555943e-17,1.0,1.874575902277672e-33],"scale":[1.0,1.0,1.0],"name":"contrail2"},{"translation":[1.6799999475479127,-1.2000000476837159,-0.8999999761581419],"rotation":[-6.123031769111886e-17,3.061515884555943e-17,1.0,1.874575902277672e-33],"scale":[1.0,1.0,1.0],"name":"l_tire1"},{"translation":[-1.6799999475479127,-1.2000000476837159,-0.8999999761581422],"rotation":[-6.123031769111886e-17,3.061515884555943e-17,1.0,1.874575902277672e-33],"scale":[1.0,1.0,1.0],"name":"r_tire1"},{"translation":[0.0,0.0,0.0],"rotation":[-4.329637285359677e-17,0.7071067811865475,0.7071067811865475,4.329637285359677e-17],"scale":[1.0,1.0,1.0],"name":"node_12","children":[10]},{"translation":[0.002001000102609396,5.190474033355713,-0.43817898631095889],"rotation":[0.8386707059854435,0.0,0.0,0.5446388224519786],"scale":[1.0,1.0,1.0],"name":"node_70","children":[11]},{"name":"c_gear_AN_70","children":[12]},{"translation":[0.07799900323152542,0.029525993118183097,-0.44182089333629628],"rotation":[0.0,0.0,0.0,1.0],"scale":[1.0,1.0,1.0],"name":"node_74","children":[13]},{"translation":[0.0,0.0,0.0],"rotation":[0.0,0.0,1.0,-6.123031769111886e-17],"scale":[1.0,1.0,1.0],"name":"taxi"}],"scene":0,"scenes":[{"nodes":[0]}],"textures":[{"extensions":{"MSFT_texture_dds":{"source":0}}},{"extensions":{"MSFT_texture_dds":{"source":1}}}],"extensionsUsed":["ASOBO_material_day_night_switch","MSFT_texture_dds","ASOBO_asset_optimized"],"buffers":[{"byteLength":41706,"uri":"SGAI_Dassault_Falcon_20F-5LWF_MSFS_LOD1.bin"}],"images":[{"uri":"FALCON20C_T.PNG.DDS","extras":"ASOBO_image_converted_meta"},{"uri":"FALCON20C_L.PNG.DDS","extras":"ASOBO_image_converted_meta"}]}
