{"accessors":[{"bufferView":0,"componentType":5126,"count":2,"min":[0.0],"max":[100.0],"type":"SCALAR"},{"bufferView":1,"componentType":5126,"count":2,"type":"VEC3"},{"bufferView":0,"byteOffset":8,"componentType":5126,"count":2,"min":[0.0],"max":[100.0],"type":"SCALAR"},{"bufferView":1,"byteOffset":24,"componentType":5126,"count":2,"type":"VEC3"},{"bufferView":0,"byteOffset":16,"componentType":5126,"count":2,"min":[0.0],"max":[100.0],"type":"SCALAR"},{"bufferView":1,"byteOffset":48,"componentType":5126,"count":2,"type":"VEC3"},{"bufferView":0,"byteOffset":24,"componentType":5126,"count":2,"min":[0.0],"max":[100.0],"type":"SCALAR"},{"bufferView":1,"byteOffset":72,"componentType":5126,"count":2,"type":"VEC3"},{"bufferView":2,"componentType":5126,"count":32,"min":[-1.5398499965667725,0.46147000789642336,-3.68641996383667],"max":[1.5398499965667725,1.08542001247406,-1.4034899473190308],"type":"VEC3","name":"part000_vertices#0_POSITION"},{"bufferView":2,"byteOffset":12,"componentType":5120,"count":32,"type":"VEC4","name":"part000_vertices#0_TANGENT"},{"bufferView":2,"byteOffset":16,"componentType":5120,"count":32,"type":"VEC4","name":"part000_vertices#0_NORMAL"},{"bufferView":2,"byteOffset":20,"componentType":5122,"count":32,"type":"VEC2","name":"part000_vertices#0_TEXCOORD_0"},{"bufferView":2,"byteOffset":24,"componentType":5122,"count":32,"type":"VEC2","name":"part000_vertices#0_TEXCOORD_1"},{"bufferView":2,"byteOffset":28,"componentType":5123,"count":32,"type":"VEC4","name":"part000_vertices#0_COLOR_0"},{"bufferView":3,"componentType":5123,"count":48,"type":"SCALAR","name":"part000_indices#0"},{"bufferView":2,"byteOffset":1152,"componentType":5126,"count":342,"min":[-6.6034698486328129,-0.5181599855422974,-8.043760299682618],"max":[6.603489875793457,3.140049934387207,6.524400234222412],"type":"VEC3","name":"part001_vertices#0_POSITION"},{"bufferView":2,"byteOffset":1164,"componentType":5120,"count":342,"type":"VEC4","name":"part001_vertices#0_TANGENT"},{"bufferView":2,"byteOffset":1168,"componentType":5120,"count":342,"type":"VEC4","name":"part001_vertices#0_NORMAL"},{"bufferView":2,"byteOffset":1172,"componentType":5122,"count":342,"type":"VEC2","name":"part001_vertices#0_TEXCOORD_0"},{"bufferView":2,"byteOffset":1176,"componentType":5122,"count":342,"type":"VEC2","name":"part001_vertices#0_TEXCOORD_1"},{"bufferView":2,"byteOffset":1180,"componentType":5123,"count":342,"type":"VEC4","name":"part001_vertices#0_COLOR_0"},{"bufferView":3,"byteOffset":96,"componentType":5123,"count":1236,"type":"SCALAR","name":"part001_indices#0"},{"bufferView":2,"byteOffset":13464,"componentType":5126,"count":8,"min":[-0.06804999709129334,0.0,-0.06763000041246414],"max":[0.06804999709129334,0.0,0.06763000041246414],"type":"VEC3","name":"part002_vertices#0_POSITION"},{"bufferView":2,"byteOffset":13476,"componentType":5120,"count":8,"type":"VEC4","name":"part002_vertices#0_TANGENT"},{"bufferView":2,"byteOffset":13480,"componentType":5120,"count":8,"type":"VEC4","name":"part002_vertices#0_NORMAL"},{"bufferView":2,"byteOffset":13484,"componentType":5122,"count":8,"type":"VEC2","name":"part002_vertices#0_TEXCOORD_0"},{"bufferView":2,"byteOffset":13488,"componentType":5122,"count":8,"type":"VEC2","name":"part002_vertices#0_TEXCOORD_1"},{"bufferView":2,"byteOffset":13492,"componentType":5123,"count":8,"type":"VEC4","name":"part002_vertices#0_COLOR_0"},{"bufferView":3,"byteOffset":2568,"componentType":5123,"count":18,"type":"SCALAR","name":"part002_indices#0"},{"bufferView":2,"byteOffset":13752,"componentType":5126,"count":8,"min":[-0.06804999709129334,0.0,-0.06763000041246414],"max":[0.06804999709129334,0.0,0.06763000041246414],"type":"VEC3","name":"part003_vertices#0_POSITION"},{"bufferView":2,"byteOffset":13764,"componentType":5120,"count":8,"type":"VEC4","name":"part003_vertices#0_TANGENT"},{"bufferView":2,"byteOffset":13768,"componentType":5120,"count":8,"type":"VEC4","name":"part003_vertices#0_NORMAL"},{"bufferView":2,"byteOffset":13772,"componentType":5122,"count":8,"type":"VEC2","name":"part003_vertices#0_TEXCOORD_0"},{"bufferView":2,"byteOffset":13776,"componentType":5122,"count":8,"type":"VEC2","name":"part003_vertices#0_TEXCOORD_1"},{"bufferView":2,"byteOffset":13780,"componentType":5123,"count":8,"type":"VEC4","name":"part003_vertices#0_COLOR_0"},{"bufferView":3,"byteOffset":2604,"componentType":5123,"count":18,"type":"SCALAR","name":"part003_indices#0"}],"animations":[{"name":"l_gear","channels":[{"sampler":0,"target":{"node":10,"path":"translation"}}],"samplers":[{"input":0,"output":1,"interpolation":"LINEAR"}]},{"name":"r_gear","channels":[{"sampler":0,"target":{"node":12,"path":"translation"}}],"samplers":[{"input":2,"output":3,"interpolation":"LINEAR"}]},{"name":"beechjet_lights_v2","channels":[{"sampler":0,"target":{"node":14,"path":"translation"}},{"sampler":1,"target":{"node":18,"path":"translation"}}],"samplers":[{"input":4,"output":5,"interpolation":"LINEAR"},{"input":6,"output":7,"interpolation":"LINEAR"}]}],"asset":{"generator":"ModelConverterX","version":"2.0","extensions":{"ASOBO_asset_optimized":{"BoundingBoxMax":[6.603489875793457,3.140049934387207,6.524400234222412],"BoundingBoxMin":[-6.6034698486328129,-0.5181599855422974,-8.043760299682618],"MajorVersion":4,"MinorVersion":4,"UseCheckerboardMaterialForMissingTextures":true,"UseOnlyFilenameForImageURI":true}}},"bufferViews":[{"buffer":0,"byteLength":32,"byteStride":4},{"buffer":0,"byteLength":96,"byteStride":12,"byteOffset":32},{"buffer":0,"byteLength":14040,"byteStride":36,"byteOffset":128,"target":34962,"name":"BufferViewVertexND"},{"buffer":0,"byteLength":2640,"byteOffset":14168,"target":34963,"name":"BufferViewIndex"}],"extensionsRequired":["MSFT_texture_dds"],"materials":[{"name":"material00","emissiveTexture":{"index":1},"pbrMetallicRoughness":{"metallicFactor":0.0,"baseColorTexture":{"index":0}},"extensions":{"ASOBO_material_day_night_switch":{}}},{"name":"material01","pbrMetallicRoughness":{"baseColorFactor":[0.03921600058674812,0.03921600058674812,0.03921600058674812,1.0],"metallicFactor":0.0}},{"name":"material02","pbrMetallicRoughness":{"metallicFactor":0.0}}],"meshes":[{"primitives":[{"attributes":{"COLOR_0":13,"NORMAL":10,"POSITION":8,"TANGENT":9,"TEXCOORD_0":11,"TEXCOORD_1":12},"indices":14,"material":1,"mode":4,"extras":{"ASOBO_primitive":{"PrimitiveCount":16,"VertexType":"VTX","VertexVersion":2}}}],"name":"part000"},{"primitives":[{"attributes":{"COLOR_0":20,"NORMAL":17,"POSITION":15,"TANGENT":16,"TEXCOORD_0":18,"TEXCOORD_1":19},"indices":21,"material":0,"mode":4,"extras":{"ASOBO_primitive":{"PrimitiveCount":412,"VertexType":"VTX","VertexVersion":2}}}],"name":"part001"},{"primitives":[{"attributes":{"COLOR_0":27,"NORMAL":24,"POSITION":22,"TANGENT":23,"TEXCOORD_0":25,"TEXCOORD_1":26},"indices":28,"material":2,"mode":4,"extras":{"ASOBO_primitive":{"PrimitiveCount":6,"VertexType":"VTX","VertexVersion":2}}}],"name":"part002"},{"primitives":[{"attributes":{"COLOR_0":34,"NORMAL":31,"POSITION":29,"TANGENT":30,"TEXCOORD_0":32,"TEXCOORD_1":33},"indices":35,"material":2,"mode":4,"extras":{"ASOBO_primitive":{"PrimitiveCount":6,"VertexType":"VTX","VertexVersion":2}}}],"name":"part003"}],"nodes":[{"name":"node_0","children":[1,2,3,4,5,6,7,8]},{"mesh":0,"name":"node_5"},{"mesh":1,"name":"node_27"},{"translation":[1.269999980926514,0.6700000166893005,-4.0],"rotation":[-6.123031769111886e-17,0.0,1.0,0.0],"scale":[1.0,1.0,1.0],"name":"contrail1"},{"translation":[-1.2699999809265133,0.6700000166893005,-4.0],"rotation":[-6.123031769111886e-17,0.0,1.0,0.0],"scale":[1.0,1.0,1.0],"name":"contrail2"},{"translation":[-6.000571250517211e-16,-0.9900000095367432,4.900000095367432],"rotation":[-6.123031769111886e-17,0.0,1.0,0.0],"scale":[1.0,1.0,1.0],"name":"c_tire1"},{"translation":[1.3799999952316285,-1.0499999523162842,-0.8999999761581419],"rotation":[-6.123031769111886e-17,0.0,1.0,0.0],"scale":[1.0,1.0,1.0],"name":"l_tire1"},{"translation":[-1.3799999952316285,-1.0499999523162842,-0.8999999761581422],"rotation":[-6.123031769111886e-17,0.0,1.0,0.0],"scale":[1.0,1.0,1.0],"name":"r_tire1"},{"translation":[0.0,0.0,0.0],"rotation":[-4.329637285359677e-17,0.7071067811865475,0.7071067811865475,4.329637285359677e-17],"scale":[1.0,1.0,1.0],"name":"node_33","children":[9,11,13,17]},{"translation":[-0.281156986951828,6.031198978424072,-0.16618800163269044],"rotation":[0.0,0.0,0.0,1.0],"scale":[1.0,1.0,1.0],"name":"node_146","children":[10]},{"mesh":2,"name":"l_gear_AN_146"},{"translation":[0.2810260057449341,6.031077861785889,-0.16611599922180177],"rotation":[0.0,0.0,0.0,1.0],"scale":[1.0,1.0,1.0],"name":"node_148","children":[12]},{"mesh":3,"name":"r_gear_AN_148"},{"translation":[-0.281156986951828,6.02906608581543,-0.16618800163269044],"rotation":[0.0,0.0,0.0,1.0],"scale":[1.0,1.0,1.0],"name":"node_185","children":[14]},{"name":"beechjet_lights_v2_AN_185","children":[15,16]},{"translation":[0.008286000229418278,0.0409340001642704,-0.0033080000430345537],"rotation":[0.0,0.0,1.0,0.0],"scale":[1.0,1.0,1.0],"name":"landing_l"},{"translation":[0.008286000229418278,0.0409340001642704,-0.0033080000430345537],"rotation":[0.0,0.0,1.0,0.0],"scale":[1.0,1.0,1.0],"name":"taxi_l"},{"translation":[0.2810260057449341,6.028943061828613,-0.16611599922180177],"rotation":[0.0,0.0,0.0,1.0],"scale":[1.0,1.0,1.0],"name":"node_197","children":[18]},{"name":"beechjet_lights_v2_AN_197","children":[19,20]},{"translation":[-0.008186000399291516,0.041057001799345019,-0.003416999941691756],"rotation":[0.0,0.0,1.0,0.0],"scale":[1.0,1.0,1.0],"name":"landing_r"},{"translation":[-0.008186000399291516,0.041057001799345019,-0.003416999941691756],"rotation":[0.0,0.0,1.0,0.0],"scale":[1.0,1.0,1.0],"name":"taxi_r"}],"scene":0,"scenes":[{"nodes":[0]}],"textures":[{"extensions":{"MSFT_texture_dds":{"source":0}}},{"extensions":{"MSFT_texture_dds":{"source":1}}}],"extensionsUsed":["ASOBO_material_day_night_switch","MSFT_texture_dds","ASOBO_asset_optimized"],"buffers":[{"byteLength":16808,"uri":"HTAI Beechjet 400A MSFS_LOD6.bin"}],"images":[{"uri":"400A.PNG.DDS","extras":"ASOBO_image_converted_meta"},{"uri":"CABIN_LIGHTS.PNG.DDS","extras":"ASOBO_image_converted_meta"}]}
