{"accessors":[{"bufferView":0,"componentType":5126,"count":116,"min":[-0.45083001255989077,2.136899948120117,3.1617300510406496],"max":[0.4508199989795685,2.3511500358581545,7.994190216064453],"type":"VEC3","name":"part000_vertices#0_POSITION"},{"bufferView":0,"byteOffset":12,"componentType":5120,"count":116,"type":"VEC4","name":"part000_vertices#0_TANGENT"},{"bufferView":0,"byteOffset":16,"componentType":5120,"count":116,"type":"VEC4","name":"part000_vertices#0_NORMAL"},{"bufferView":0,"byteOffset":20,"componentType":5122,"count":116,"type":"VEC2","name":"part000_vertices#0_TEXCOORD_0"},{"bufferView":0,"byteOffset":24,"componentType":5122,"count":116,"type":"VEC2","name":"part000_vertices#0_TEXCOORD_1"},{"bufferView":0,"byteOffset":28,"componentType":5123,"count":116,"type":"VEC4","name":"part000_vertices#0_COLOR_0"},{"bufferView":1,"componentType":5123,"count":372,"type":"SCALAR","name":"part000_indices#0"}],"asset":{"generator":"ModelConverterX 1.8.250711-devrel","version":"2.0","extensions":{"ASOBO_asset_optimized":{"BoundingBoxMax":[0.4508199989795685,2.3511500358581545,7.994190216064453],"BoundingBoxMin":[-0.45083001255989077,2.136899948120117,3.1617300510406496],"MajorVersion":4,"MinorVersion":4,"UseCheckerboardMaterialForMissingTextures":true,"UseOnlyFilenameForImageURI":true}}},"bufferViews":[{"buffer":0,"byteLength":4176,"byteStride":36,"target":34962,"name":"BufferViewVertexND"},{"buffer":0,"byteLength":744,"byteOffset":4176,"target":34963,"name":"BufferViewIndex"}],"extensionsRequired":["MSFT_texture_dds"],"materials":[{"name":"Wifi","alphaCutoff":0.5019607843137255,"alphaMode":"MASK","pbrMetallicRoughness":{"metallicFactor":0.0,"roughnessFactor":0.30000000000000007,"baseColorTexture":{"index":0}}}],"meshes":[{"primitives":[{"attributes":{"COLOR_0":5,"NORMAL":2,"POSITION":0,"TANGENT":1,"TEXCOORD_0":3,"TEXCOORD_1":4},"indices":6,"material":0,"mode":4,"extras":{"ASOBO_primitive":{"PrimitiveCount":124,"VertexType":"VTX","VertexVersion":2}}}],"name":"part000"}],"nodes":[{"name":"node_0","children":[1]},{"mesh":0,"name":"node_1"}],"scene":0,"scenes":[{"nodes":[0]}],"textures":[{"extensions":{"MSFT_texture_dds":{"source":0}}}],"extensionsUsed":["MSFT_texture_dds","ASOBO_asset_optimized"],"buffers":[{"byteLength":4920,"uri":"RFSL_Bombardier_CRJ-700_antenna.bin"}],"images":[{"uri":"RFSL_CRJ700_ANTENNA.PNG.DDS","extras":"ASOBO_image_converted_meta"}]}
