{"accessors":[{"bufferView":0,"componentType":5126,"count":5,"min":[0.0],"max":[100.0],"type":"SCALAR"},{"bufferView":1,"componentType":5126,"count":5,"type":"VEC4"},{"bufferView":0,"byteOffset":20,"componentType":5126,"count":5,"min":[0.0],"max":[100.0],"type":"SCALAR"},{"bufferView":1,"byteOffset":80,"componentType":5126,"count":5,"type":"VEC4"},{"bufferView":0,"byteOffset":40,"componentType":5126,"count":5,"min":[0.0],"max":[100.0],"type":"SCALAR"},{"bufferView":1,"byteOffset":160,"componentType":5126,"count":5,"type":"VEC4"},{"bufferView":0,"byteOffset":60,"componentType":5126,"count":5,"min":[0.0],"max":[100.0],"type":"SCALAR"},{"bufferView":1,"byteOffset":240,"componentType":5126,"count":5,"type":"VEC4"},{"bufferView":0,"byteOffset":80,"componentType":5126,"count":5,"min":[0.0],"max":[100.0],"type":"SCALAR"},{"bufferView":1,"byteOffset":320,"componentType":5126,"count":5,"type":"VEC4"},{"bufferView":0,"byteOffset":100,"componentType":5126,"count":3,"min":[0.0],"max":[100.0],"type":"SCALAR"},{"bufferView":1,"byteOffset":400,"componentType":5126,"count":3,"type":"VEC4"},{"bufferView":0,"byteOffset":112,"componentType":5126,"count":5,"min":[0.0],"max":[100.0],"type":"SCALAR"},{"bufferView":1,"byteOffset":448,"componentType":5126,"count":5,"type":"VEC4"},{"bufferView":0,"byteOffset":132,"componentType":5126,"count":5,"min":[0.0],"max":[100.0],"type":"SCALAR"},{"bufferView":1,"byteOffset":528,"componentType":5126,"count":5,"type":"VEC4"},{"bufferView":2,"componentType":5126,"count":277,"min":[-5.278359889984131,-0.9644299745559692,-4.98622989654541],"max":[5.322380065917969,1.4606499671936036,2.1289501190185549],"type":"VEC3","name":"part000_vertices#0_POSITION"},{"bufferView":2,"byteOffset":12,"componentType":5120,"count":277,"type":"VEC4","name":"part000_vertices#0_TANGENT"},{"bufferView":2,"byteOffset":16,"componentType":5120,"count":277,"type":"VEC4","name":"part000_vertices#0_NORMAL"},{"bufferView":2,"byteOffset":20,"componentType":5122,"count":277,"type":"VEC2","name":"part000_vertices#0_TEXCOORD_0"},{"bufferView":2,"byteOffset":24,"componentType":5122,"count":277,"type":"VEC2","name":"part000_vertices#0_TEXCOORD_1"},{"bufferView":2,"byteOffset":28,"componentType":5123,"count":277,"type":"VEC4","name":"part000_vertices#0_COLOR_0"},{"bufferView":3,"componentType":5123,"count":777,"type":"SCALAR","name":"part000_indices#0"},{"bufferView":2,"byteOffset":9972,"componentType":5126,"count":6,"min":[-0.07645999640226364,0.08343999832868576,-0.017000000923871995],"max":[0.05967000126838684,0.9677199721336365,0.015010000206530095],"type":"VEC3","name":"part001_vertices#0_POSITION"},{"bufferView":2,"byteOffset":9984,"componentType":5120,"count":6,"type":"VEC4","name":"part001_vertices#0_TANGENT"},{"bufferView":2,"byteOffset":9988,"componentType":5120,"count":6,"type":"VEC4","name":"part001_vertices#0_NORMAL"},{"bufferView":2,"byteOffset":9992,"componentType":5122,"count":6,"type":"VEC2","name":"part001_vertices#0_TEXCOORD_0"},{"bufferView":2,"byteOffset":9996,"componentType":5122,"count":6,"type":"VEC2","name":"part001_vertices#0_TEXCOORD_1"},{"bufferView":2,"byteOffset":10000,"componentType":5123,"count":6,"type":"VEC4","name":"part001_vertices#0_COLOR_0"},{"bufferView":3,"byteOffset":1554,"componentType":5123,"count":12,"type":"SCALAR","name":"part001_indices#0"},{"bufferView":2,"byteOffset":10188,"componentType":5126,"count":6,"min":[-0.01988999918103218,0.08659999817609787,-0.018160000443458558],"max":[0.13809999823570252,0.9741100072860718,0.014999999664723874],"type":"VEC3","name":"part002_vertices#0_POSITION"},{"bufferView":2,"byteOffset":10200,"componentType":5120,"count":6,"type":"VEC4","name":"part002_vertices#0_TANGENT"},{"bufferView":2,"byteOffset":10204,"componentType":5120,"count":6,"type":"VEC4","name":"part002_vertices#0_NORMAL"},{"bufferView":2,"byteOffset":10208,"componentType":5122,"count":6,"type":"VEC2","name":"part002_vertices#0_TEXCOORD_0"},{"bufferView":2,"byteOffset":10212,"componentType":5122,"count":6,"type":"VEC2","name":"part002_vertices#0_TEXCOORD_1"},{"bufferView":2,"byteOffset":10216,"componentType":5123,"count":6,"type":"VEC4","name":"part002_vertices#0_COLOR_0"},{"bufferView":3,"byteOffset":1578,"componentType":5123,"count":12,"type":"SCALAR","name":"part002_indices#0"},{"bufferView":2,"byteOffset":10404,"componentType":5126,"count":6,"min":[-0.06978999823331833,0.08759000152349472,-0.017000000923871995],"max":[0.06283000111579895,0.9724500179290772,0.015010000206530095],"type":"VEC3","name":"part003_vertices#0_POSITION"},{"bufferView":2,"byteOffset":10416,"componentType":5120,"count":6,"type":"VEC4","name":"part003_vertices#0_TANGENT"},{"bufferView":2,"byteOffset":10420,"componentType":5120,"count":6,"type":"VEC4","name":"part003_vertices#0_NORMAL"},{"bufferView":2,"byteOffset":10424,"componentType":5122,"count":6,"type":"VEC2","name":"part003_vertices#0_TEXCOORD_0"},{"bufferView":2,"byteOffset":10428,"componentType":5122,"count":6,"type":"VEC2","name":"part003_vertices#0_TEXCOORD_1"},{"bufferView":2,"byteOffset":10432,"componentType":5123,"count":6,"type":"VEC4","name":"part003_vertices#0_COLOR_0"},{"bufferView":3,"byteOffset":1602,"componentType":5123,"count":12,"type":"SCALAR","name":"part003_indices#0"},{"bufferView":2,"byteOffset":10620,"componentType":5126,"count":6,"min":[-0.019689999520778657,0.08498000353574753,-0.018149999901652337],"max":[0.13940000534057618,0.9719499945640564,0.01501999981701374],"type":"VEC3","name":"part004_vertices#0_POSITION"},{"bufferView":2,"byteOffset":10632,"componentType":5120,"count":6,"type":"VEC4","name":"part004_vertices#0_TANGENT"},{"bufferView":2,"byteOffset":10636,"componentType":5120,"count":6,"type":"VEC4","name":"part004_vertices#0_NORMAL"},{"bufferView":2,"byteOffset":10640,"componentType":5122,"count":6,"type":"VEC2","name":"part004_vertices#0_TEXCOORD_0"},{"bufferView":2,"byteOffset":10644,"componentType":5122,"count":6,"type":"VEC2","name":"part004_vertices#0_TEXCOORD_1"},{"bufferView":2,"byteOffset":10648,"componentType":5123,"count":6,"type":"VEC4","name":"part004_vertices#0_COLOR_0"},{"bufferView":3,"byteOffset":1626,"componentType":5123,"count":12,"type":"SCALAR","name":"part004_indices#0"},{"bufferView":2,"byteOffset":10836,"componentType":5126,"count":20,"min":[-0.05570000037550926,-0.177279993891716,-0.16868999600410462],"max":[0.05592000111937523,0.17730000615119935,0.16978999972343446],"type":"VEC3","name":"part005_vertices#0_POSITION"},{"bufferView":2,"byteOffset":10848,"componentType":5120,"count":20,"type":"VEC4","name":"part005_vertices#0_TANGENT"},{"bufferView":2,"byteOffset":10852,"componentType":5120,"count":20,"type":"VEC4","name":"part005_vertices#0_NORMAL"},{"bufferView":2,"byteOffset":10856,"componentType":5122,"count":20,"type":"VEC2","name":"part005_vertices#0_TEXCOORD_0"},{"bufferView":2,"byteOffset":10860,"componentType":5122,"count":20,"type":"VEC2","name":"part005_vertices#0_TEXCOORD_1"},{"bufferView":2,"byteOffset":10864,"componentType":5123,"count":20,"type":"VEC4","name":"part005_vertices#0_COLOR_0"},{"bufferView":3,"byteOffset":1650,"componentType":5123,"count":48,"type":"SCALAR","name":"part005_indices#0"},{"bufferView":2,"byteOffset":11556,"componentType":5126,"count":26,"min":[-1.9338699579238892,-0.5867199897766113,-0.02889999933540821],"max":[1.835819959640503,0.22663000226020814,0.023509999737143518],"type":"VEC3","name":"part006_vertices#0_POSITION"},{"bufferView":2,"byteOffset":11568,"componentType":5120,"count":26,"type":"VEC4","name":"part006_vertices#0_TANGENT"},{"bufferView":2,"byteOffset":11572,"componentType":5120,"count":26,"type":"VEC4","name":"part006_vertices#0_NORMAL"},{"bufferView":2,"byteOffset":11576,"componentType":5122,"count":26,"type":"VEC2","name":"part006_vertices#0_TEXCOORD_0"},{"bufferView":2,"byteOffset":11580,"componentType":5122,"count":26,"type":"VEC2","name":"part006_vertices#0_TEXCOORD_1"},{"bufferView":2,"byteOffset":11584,"componentType":5123,"count":26,"type":"VEC4","name":"part006_vertices#0_COLOR_0"},{"bufferView":3,"byteOffset":1746,"componentType":5123,"count":36,"type":"SCALAR","name":"part006_indices#0"},{"bufferView":2,"byteOffset":12492,"componentType":5126,"count":16,"min":[-0.05502000078558922,-0.20695999264717103,-0.20709000527858735],"max":[0.057029999792575839,0.2052299976348877,0.2050900012254715],"type":"VEC3","name":"part007_vertices#0_POSITION"},{"bufferView":2,"byteOffset":12504,"componentType":5120,"count":16,"type":"VEC4","name":"part007_vertices#0_TANGENT"},{"bufferView":2,"byteOffset":12508,"componentType":5120,"count":16,"type":"VEC4","name":"part007_vertices#0_NORMAL"},{"bufferView":2,"byteOffset":12512,"componentType":5122,"count":16,"type":"VEC2","name":"part007_vertices#0_TEXCOORD_0"},{"bufferView":2,"byteOffset":12516,"componentType":5122,"count":16,"type":"VEC2","name":"part007_vertices#0_TEXCOORD_1"},{"bufferView":2,"byteOffset":12520,"componentType":5123,"count":16,"type":"VEC4","name":"part007_vertices#0_COLOR_0"},{"bufferView":3,"byteOffset":1818,"componentType":5123,"count":36,"type":"SCALAR","name":"part007_indices#0"},{"bufferView":2,"byteOffset":13068,"componentType":5126,"count":16,"min":[-0.05803000181913376,-0.20695999264717103,-0.20709000527858735],"max":[0.05803000181913376,0.2052299976348877,0.2050900012254715],"type":"VEC3","name":"part008_vertices#0_POSITION"},{"bufferView":2,"byteOffset":13080,"componentType":5120,"count":16,"type":"VEC4","name":"part008_vertices#0_TANGENT"},{"bufferView":2,"byteOffset":13084,"componentType":5120,"count":16,"type":"VEC4","name":"part008_vertices#0_NORMAL"},{"bufferView":2,"byteOffset":13088,"componentType":5122,"count":16,"type":"VEC2","name":"part008_vertices#0_TEXCOORD_0"},{"bufferView":2,"byteOffset":13092,"componentType":5122,"count":16,"type":"VEC2","name":"part008_vertices#0_TEXCOORD_1"},{"bufferView":2,"byteOffset":13096,"componentType":5123,"count":16,"type":"VEC4","name":"part008_vertices#0_COLOR_0"},{"bufferView":3,"byteOffset":1890,"componentType":5123,"count":36,"type":"SCALAR","name":"part008_indices#0"}],"animations":[{"name":"engine0","channels":[{"sampler":0,"target":{"node":11,"path":"rotation"}},{"sampler":1,"target":{"node":14,"path":"rotation"}},{"sampler":2,"target":{"node":17,"path":"rotation"}},{"sampler":3,"target":{"node":20,"path":"rotation"}}],"samplers":[{"input":0,"output":1,"interpolation":"LINEAR"},{"input":2,"output":3,"interpolation":"LINEAR"},{"input":4,"output":5,"interpolation":"LINEAR"},{"input":6,"output":7,"interpolation":"LINEAR"}]},{"name":"c_tire_blurred_key","channels":[{"sampler":0,"target":{"node":23,"path":"rotation"}}],"samplers":[{"input":8,"output":9,"interpolation":"LINEAR"}]},{"name":"elevator","channels":[{"sampler":0,"target":{"node":25,"path":"rotation"}}],"samplers":[{"input":10,"output":11,"interpolation":"LINEAR"}]},{"name":"l_tire_blurred_key","channels":[{"sampler":0,"target":{"node":27,"path":"rotation"}}],"samplers":[{"input":12,"output":13,"interpolation":"LINEAR"}]},{"name":"r_tire_blurred_key","channels":[{"sampler":0,"target":{"node":29,"path":"rotation"}}],"samplers":[{"input":14,"output":15,"interpolation":"LINEAR"}]}],"asset":{"generator":"ModelConverterX","version":"2.0","extensions":{"ASOBO_asset_optimized":{"BoundingBoxMax":[5.322380065917969,1.4606499671936036,2.1289501190185549],"BoundingBoxMin":[-5.278359889984131,-0.9644299745559692,-4.98622989654541],"MajorVersion":4,"MinorVersion":4,"UseCheckerboardMaterialForMissingTextures":true,"UseOnlyFilenameForImageURI":true}}},"bufferViews":[{"buffer":0,"byteLength":152,"byteStride":4},{"buffer":0,"byteLength":608,"byteStride":16,"byteOffset":152},{"buffer":0,"byteLength":13644,"byteStride":36,"byteOffset":760,"target":34962,"name":"BufferViewVertexND"},{"buffer":0,"byteLength":1962,"byteOffset":14404,"target":34963,"name":"BufferViewIndex"}],"extensionsRequired":["MSFT_texture_dds"],"materials":[{"name":"material00","emissiveTexture":{"index":1},"emissiveFactor":[0.019607843831181527,0.019607843831181527,0.019607843831181527],"pbrMetallicRoughness":{"metallicFactor":0.0,"baseColorTexture":{"index":0}}}],"meshes":[{"primitives":[{"attributes":{"COLOR_0":21,"NORMAL":18,"POSITION":16,"TANGENT":17,"TEXCOORD_0":19,"TEXCOORD_1":20},"indices":22,"material":0,"mode":4,"extras":{"ASOBO_primitive":{"PrimitiveCount":259,"VertexType":"VTX","VertexVersion":2}}}],"name":"part000"},{"primitives":[{"attributes":{"COLOR_0":28,"NORMAL":25,"POSITION":23,"TANGENT":24,"TEXCOORD_0":26,"TEXCOORD_1":27},"indices":29,"material":0,"mode":4,"extras":{"ASOBO_primitive":{"PrimitiveCount":4,"VertexType":"VTX","VertexVersion":2}}}],"name":"part001"},{"primitives":[{"attributes":{"COLOR_0":35,"NORMAL":32,"POSITION":30,"TANGENT":31,"TEXCOORD_0":33,"TEXCOORD_1":34},"indices":36,"material":0,"mode":4,"extras":{"ASOBO_primitive":{"PrimitiveCount":4,"VertexType":"VTX","VertexVersion":2}}}],"name":"part002"},{"primitives":[{"attributes":{"COLOR_0":42,"NORMAL":39,"POSITION":37,"TANGENT":38,"TEXCOORD_0":40,"TEXCOORD_1":41},"indices":43,"material":0,"mode":4,"extras":{"ASOBO_primitive":{"PrimitiveCount":4,"VertexType":"VTX","VertexVersion":2}}}],"name":"part003"},{"primitives":[{"attributes":{"COLOR_0":49,"NORMAL":46,"POSITION":44,"TANGENT":45,"TEXCOORD_0":47,"TEXCOORD_1":48},"indices":50,"material":0,"mode":4,"extras":{"ASOBO_primitive":{"PrimitiveCount":4,"VertexType":"VTX","VertexVersion":2}}}],"name":"part004"},{"primitives":[{"attributes":{"COLOR_0":56,"NORMAL":53,"POSITION":51,"TANGENT":52,"TEXCOORD_0":54,"TEXCOORD_1":55},"indices":57,"material":0,"mode":4,"extras":{"ASOBO_primitive":{"PrimitiveCount":16,"VertexType":"VTX","VertexVersion":2}}}],"name":"part005"},{"primitives":[{"attributes":{"COLOR_0":63,"NORMAL":60,"POSITION":58,"TANGENT":59,"TEXCOORD_0":61,"TEXCOORD_1":62},"indices":64,"material":0,"mode":4,"extras":{"ASOBO_primitive":{"PrimitiveCount":12,"VertexType":"VTX","VertexVersion":2}}}],"name":"part006"},{"primitives":[{"attributes":{"COLOR_0":70,"NORMAL":67,"POSITION":65,"TANGENT":66,"TEXCOORD_0":68,"TEXCOORD_1":69},"indices":71,"material":0,"mode":4,"extras":{"ASOBO_primitive":{"PrimitiveCount":12,"VertexType":"VTX","VertexVersion":2}}}],"name":"part007"},{"primitives":[{"attributes":{"COLOR_0":77,"NORMAL":74,"POSITION":72,"TANGENT":73,"TEXCOORD_0":75,"TEXCOORD_1":76},"indices":78,"material":0,"mode":4,"extras":{"ASOBO_primitive":{"PrimitiveCount":12,"VertexType":"VTX","VertexVersion":2}}}],"name":"part008"}],"nodes":[{"name":"node_0","children":[1,2,3,4,5,6,7,8]},{"mesh":0,"name":"node_4"},{"translation":[6.123031769111886e-16,0.0,-5.0],"rotation":[-6.123031769111886e-17,3.061515884555943e-17,1.0,1.874575902277672e-33],"scale":[1.0,1.0,1.0],"name":"contrail1"},{"translation":[-2.1675532229080953e-16,-0.43999999761581429,1.7699999809265137],"rotation":[-0.7071067811865475,0.0,0.0,0.7071067811865475],"scale":[1.0,1.0,1.0],"name":"Taxi_Light"},{"translation":[-2.1797992747675628e-16,-0.43999999761581429,1.7799999713897706],"rotation":[-0.7071067811865475,0.0,0.0,0.7071067811865475],"scale":[1.0,1.0,1.0],"name":"Landing_Light"},{"translation":[-1.3470670184015055e-16,-1.350000023841858,1.100000023841858],"rotation":[-6.123031769111886e-17,3.061515884555943e-17,1.0,1.874575902277672e-33],"scale":[1.0,1.0,1.0],"name":"c_tire1"},{"translation":[1.5,-1.25,-0.7499999999999999],"rotation":[-6.123031769111886e-17,3.061515884555943e-17,1.0,1.874575902277672e-33],"scale":[1.0,1.0,1.0],"name":"l_tire1"},{"translation":[-1.5,-1.25,-0.7500000000000001],"rotation":[-6.123031769111886e-17,3.061515884555943e-17,1.0,1.874575902277672e-33],"scale":[1.0,1.0,1.0],"name":"r_tire1"},{"translation":[0.0,0.0,0.0],"rotation":[-4.329637285359677e-17,0.7071067811865475,0.7071067811865475,4.329637285359677e-17],"scale":[1.0,1.0,1.0],"name":"node_19","children":[9,12,15,18,21,24,26,28]},{"translation":[-0.004885000176727772,1.8798480033874512,-0.14849300682544709],"rotation":[0.3694062543139394,-0.602941970071536,0.602941970071536,0.3694062543139394],"scale":[1.0,1.0,1.0],"name":"node_25","children":[10]},{"name":"node_26","children":[11]},{"mesh":1,"name":"engine0_AN_26"},{"translation":[-0.006856999825686216,1.8797990083694456,-0.14634700119495393],"rotation":[0.6286136357101179,0.3182523742774486,-0.3239410434704392,0.6314559154148698],"scale":[1.0,1.0,1.0],"name":"node_31","children":[13]},{"name":"node_32","children":[14]},{"mesh":2,"name":"engine0_AN_32"},{"translation":[-0.0067170001566410069,1.8798480033874512,-0.14739400148391725],"rotation":[0.6092743815438328,0.35886589137779575,-0.35886589137779575,0.6092743815438328],"scale":[1.0,1.0,1.0],"name":"node_37","children":[16]},{"name":"node_38","children":[17]},{"mesh":3,"name":"engine0_AN_38"},{"translation":[-0.008812000043690205,1.8797990083694456,-0.15196500718593596],"rotation":[-0.3377241230824642,0.6242531491212275,-0.6213775275145386,-0.33197187457488738],"scale":[1.0,1.0,1.0],"name":"node_43","children":[19]},{"name":"node_44","children":[20]},{"mesh":4,"name":"engine0_AN_44"},{"translation":[0.0012309999438002706,1.2173149585723878,-1.1726709604263306],"rotation":[0.7459187812311952,0.013383497727282616,0.011321275621670924,0.6658049227042233],"scale":[1.0,1.0,1.0],"name":"node_49","children":[22]},{"name":"node_50","children":[23]},{"mesh":5,"name":"c_tire_blurred_key_AN_50"},{"translation":[0.06102700158953667,-4.535030841827393,-0.03801700100302696],"rotation":[0.0,0.0,0.0,1.0],"scale":[1.0,1.0,1.0],"name":"node_84","children":[25]},{"mesh":6,"name":"elevator_AN_84"},{"translation":[-1.501649022102356,-0.6418889760971069,-1.0375740528106688],"rotation":[0.0,0.0,0.0,1.0],"scale":[1.0,1.0,1.0],"name":"node_85","children":[27]},{"mesh":7,"name":"l_tire_blurred_key_AN_85"},{"translation":[1.5143500566482545,-0.6418889760971069,-1.0375740528106688],"rotation":[0.0,0.0,0.0,1.0],"scale":[1.0,1.0,1.0],"name":"node_87","children":[29]},{"mesh":8,"name":"r_tire_blurred_key_AN_87"}],"scene":0,"scenes":[{"nodes":[0]}],"textures":[{"extensions":{"MSFT_texture_dds":{"source":0}}},{"extensions":{"MSFT_texture_dds":{"source":1}}}],"extensionsUsed":["MSFT_texture_dds","ASOBO_asset_optimized"],"buffers":[{"byteLength":16366,"uri":"ANAI_Piper_Warrior_NoF_MSFS_LOD4.bin"}],"images":[{"uri":"AI_WARRIOR_T.PNG.DDS","extras":"ASOBO_image_converted_meta"},{"uri":"AI_WARRIOR_L.PNG.DDS","extras":"ASOBO_image_converted_meta"}]}
