{"accessors":[{"bufferView":0,"componentType":5126,"count":2,"min":[0.0],"max":[100.0],"type":"SCALAR"},{"bufferView":1,"componentType":5126,"count":2,"type":"VEC3"},{"bufferView":0,"byteOffset":8,"componentType":5126,"count":2,"min":[0.0],"max":[100.0],"type":"SCALAR"},{"bufferView":2,"componentType":5126,"count":2,"type":"VEC4"},{"bufferView":0,"byteOffset":16,"componentType":5126,"count":5,"min":[0.0],"max":[200.0],"type":"SCALAR"},{"bufferView":2,"byteOffset":32,"componentType":5126,"count":5,"type":"VEC4"},{"bufferView":0,"byteOffset":36,"componentType":5126,"count":5,"min":[0.0],"max":[100.0],"type":"SCALAR"},{"bufferView":2,"byteOffset":112,"componentType":5126,"count":5,"type":"VEC4"},{"bufferView":0,"byteOffset":56,"componentType":5126,"count":3,"min":[0.0],"max":[100.0],"type":"SCALAR"},{"bufferView":1,"byteOffset":24,"componentType":5126,"count":3,"type":"VEC3"},{"bufferView":0,"byteOffset":68,"componentType":5126,"count":3,"min":[0.0],"max":[100.0],"type":"SCALAR"},{"bufferView":2,"byteOffset":192,"componentType":5126,"count":3,"type":"VEC4"},{"bufferView":0,"byteOffset":80,"componentType":5126,"count":4,"min":[0.0],"max":[100.0],"type":"SCALAR"},{"bufferView":1,"byteOffset":60,"componentType":5126,"count":4,"type":"VEC3"},{"bufferView":0,"byteOffset":96,"componentType":5126,"count":4,"min":[0.0],"max":[100.0],"type":"SCALAR"},{"bufferView":2,"byteOffset":240,"componentType":5126,"count":4,"type":"VEC4"},{"bufferView":0,"byteOffset":112,"componentType":5126,"count":5,"min":[0.0],"max":[100.0],"type":"SCALAR"},{"bufferView":2,"byteOffset":304,"componentType":5126,"count":5,"type":"VEC4"},{"bufferView":0,"byteOffset":132,"componentType":5126,"count":3,"min":[0.0],"max":[100.0],"type":"SCALAR"},{"bufferView":1,"byteOffset":108,"componentType":5126,"count":3,"type":"VEC3"},{"bufferView":0,"byteOffset":144,"componentType":5126,"count":3,"min":[0.0],"max":[100.0],"type":"SCALAR"},{"bufferView":2,"byteOffset":384,"componentType":5126,"count":3,"type":"VEC4"},{"bufferView":0,"byteOffset":156,"componentType":5126,"count":4,"min":[0.0],"max":[100.0],"type":"SCALAR"},{"bufferView":1,"byteOffset":144,"componentType":5126,"count":4,"type":"VEC3"},{"bufferView":0,"byteOffset":172,"componentType":5126,"count":4,"min":[0.0],"max":[100.0],"type":"SCALAR"},{"bufferView":2,"byteOffset":432,"componentType":5126,"count":4,"type":"VEC4"},{"bufferView":0,"byteOffset":188,"componentType":5126,"count":5,"min":[0.0],"max":[100.0],"type":"SCALAR"},{"bufferView":2,"byteOffset":496,"componentType":5126,"count":5,"type":"VEC4"},{"bufferView":3,"componentType":5126,"count":130,"min":[-5.483610153198242,-0.6095600128173828,-6.120910167694092],"max":[5.483610153198242,1.504699945449829,1.937190055847168],"type":"VEC3","name":"part000_vertices#0_POSITION"},{"bufferView":3,"byteOffset":12,"componentType":5120,"count":130,"type":"VEC4","name":"part000_vertices#0_TANGENT"},{"bufferView":3,"byteOffset":16,"componentType":5120,"count":130,"type":"VEC4","name":"part000_vertices#0_NORMAL"},{"bufferView":3,"byteOffset":20,"componentType":5122,"count":130,"type":"VEC2","name":"part000_vertices#0_TEXCOORD_0"},{"bufferView":3,"byteOffset":24,"componentType":5122,"count":130,"type":"VEC2","name":"part000_vertices#0_TEXCOORD_1"},{"bufferView":3,"byteOffset":28,"componentType":5123,"count":130,"type":"VEC4","name":"part000_vertices#0_COLOR_0"},{"bufferView":4,"componentType":5123,"count":264,"type":"SCALAR","name":"part000_indices#0"},{"bufferView":3,"byteOffset":4680,"componentType":5126,"count":20,"min":[-0.07649999856948853,-0.035909999161958697,-0.4771000146865845],"max":[0.07649999856948853,0.036320000886917117,-0.05071999877691269],"type":"VEC3","name":"part001_vertices#0_POSITION"},{"bufferView":3,"byteOffset":4692,"componentType":5120,"count":20,"type":"VEC4","name":"part001_vertices#0_TANGENT"},{"bufferView":3,"byteOffset":4696,"componentType":5120,"count":20,"type":"VEC4","name":"part001_vertices#0_NORMAL"},{"bufferView":3,"byteOffset":4700,"componentType":5122,"count":20,"type":"VEC2","name":"part001_vertices#0_TEXCOORD_0"},{"bufferView":3,"byteOffset":4704,"componentType":5122,"count":20,"type":"VEC2","name":"part001_vertices#0_TEXCOORD_1"},{"bufferView":3,"byteOffset":4708,"componentType":5123,"count":20,"type":"VEC4","name":"part001_vertices#0_COLOR_0"},{"bufferView":4,"byteOffset":528,"componentType":5123,"count":36,"type":"SCALAR","name":"part001_indices#0"},{"bufferView":3,"byteOffset":5400,"componentType":5126,"count":20,"min":[-0.050050001591444018,-0.17250999808311463,-0.1814900040626526],"max":[0.050050001591444018,0.17257000505924226,0.1813499927520752],"type":"VEC3","name":"part002_vertices#0_POSITION"},{"bufferView":3,"byteOffset":5412,"componentType":5120,"count":20,"type":"VEC4","name":"part002_vertices#0_TANGENT"},{"bufferView":3,"byteOffset":5416,"componentType":5120,"count":20,"type":"VEC4","name":"part002_vertices#0_NORMAL"},{"bufferView":3,"byteOffset":5420,"componentType":5122,"count":20,"type":"VEC2","name":"part002_vertices#0_TEXCOORD_0"},{"bufferView":3,"byteOffset":5424,"componentType":5122,"count":20,"type":"VEC2","name":"part002_vertices#0_TEXCOORD_1"},{"bufferView":3,"byteOffset":5428,"componentType":5123,"count":20,"type":"VEC4","name":"part002_vertices#0_COLOR_0"},{"bufferView":4,"byteOffset":600,"componentType":5123,"count":48,"type":"SCALAR","name":"part002_indices#0"},{"bufferView":3,"byteOffset":6120,"componentType":5126,"count":8,"min":[-0.001829999964684248,-0.3949599862098694,-0.1384900063276291],"max":[0.1181500032544136,0.3347899913787842,0.22633999586105348],"type":"VEC3","name":"part003_vertices#0_POSITION"},{"bufferView":3,"byteOffset":6132,"componentType":5120,"count":8,"type":"VEC4","name":"part003_vertices#0_TANGENT"},{"bufferView":3,"byteOffset":6136,"componentType":5120,"count":8,"type":"VEC4","name":"part003_vertices#0_NORMAL"},{"bufferView":3,"byteOffset":6140,"componentType":5122,"count":8,"type":"VEC2","name":"part003_vertices#0_TEXCOORD_0"},{"bufferView":3,"byteOffset":6144,"componentType":5122,"count":8,"type":"VEC2","name":"part003_vertices#0_TEXCOORD_1"},{"bufferView":3,"byteOffset":6148,"componentType":5123,"count":8,"type":"VEC4","name":"part003_vertices#0_COLOR_0"},{"bufferView":4,"byteOffset":696,"componentType":5123,"count":18,"type":"SCALAR","name":"part003_indices#0"},{"bufferView":3,"byteOffset":6408,"componentType":5126,"count":15,"min":[-0.8549100160598755,-0.046560000628232959,-0.43887999653816225],"max":[0.14521999657154084,0.2773500084877014,-0.06996999680995941],"type":"VEC3","name":"part004_vertices#0_POSITION"},{"bufferView":3,"byteOffset":6420,"componentType":5120,"count":15,"type":"VEC4","name":"part004_vertices#0_TANGENT"},{"bufferView":3,"byteOffset":6424,"componentType":5120,"count":15,"type":"VEC4","name":"part004_vertices#0_NORMAL"},{"bufferView":3,"byteOffset":6428,"componentType":5122,"count":15,"type":"VEC2","name":"part004_vertices#0_TEXCOORD_0"},{"bufferView":3,"byteOffset":6432,"componentType":5122,"count":15,"type":"VEC2","name":"part004_vertices#0_TEXCOORD_1"},{"bufferView":3,"byteOffset":6436,"componentType":5123,"count":15,"type":"VEC4","name":"part004_vertices#0_COLOR_0"},{"bufferView":4,"byteOffset":732,"componentType":5123,"count":27,"type":"SCALAR","name":"part004_indices#0"},{"bufferView":3,"byteOffset":6948,"componentType":5126,"count":20,"min":[-0.06763000041246414,-0.20476000010967256,-0.2153100073337555],"max":[0.06763000041246414,0.20483000576496125,0.21535000205039979],"type":"VEC3","name":"part005_vertices#0_POSITION"},{"bufferView":3,"byteOffset":6960,"componentType":5120,"count":20,"type":"VEC4","name":"part005_vertices#0_TANGENT"},{"bufferView":3,"byteOffset":6964,"componentType":5120,"count":20,"type":"VEC4","name":"part005_vertices#0_NORMAL"},{"bufferView":3,"byteOffset":6968,"componentType":5122,"count":20,"type":"VEC2","name":"part005_vertices#0_TEXCOORD_0"},{"bufferView":3,"byteOffset":6972,"componentType":5122,"count":20,"type":"VEC2","name":"part005_vertices#0_TEXCOORD_1"},{"bufferView":3,"byteOffset":6976,"componentType":5123,"count":20,"type":"VEC4","name":"part005_vertices#0_COLOR_0"},{"bufferView":4,"byteOffset":786,"componentType":5123,"count":48,"type":"SCALAR","name":"part005_indices#0"},{"bufferView":3,"byteOffset":7668,"componentType":5126,"count":8,"min":[-0.1183599978685379,-0.3949599862098694,-0.1384900063276291],"max":[0.001930000027641654,0.3347899913787842,0.22633999586105348],"type":"VEC3","name":"part006_vertices#0_POSITION"},{"bufferView":3,"byteOffset":7680,"componentType":5120,"count":8,"type":"VEC4","name":"part006_vertices#0_TANGENT"},{"bufferView":3,"byteOffset":7684,"componentType":5120,"count":8,"type":"VEC4","name":"part006_vertices#0_NORMAL"},{"bufferView":3,"byteOffset":7688,"componentType":5122,"count":8,"type":"VEC2","name":"part006_vertices#0_TEXCOORD_0"},{"bufferView":3,"byteOffset":7692,"componentType":5122,"count":8,"type":"VEC2","name":"part006_vertices#0_TEXCOORD_1"},{"bufferView":3,"byteOffset":7696,"componentType":5123,"count":8,"type":"VEC4","name":"part006_vertices#0_COLOR_0"},{"bufferView":4,"byteOffset":882,"componentType":5123,"count":18,"type":"SCALAR","name":"part006_indices#0"},{"bufferView":3,"byteOffset":7956,"componentType":5126,"count":15,"min":[-0.14521999657154084,-0.046560000628232959,-0.43887999653816225],"max":[0.8549100160598755,0.2773500084877014,-0.06996999680995941],"type":"VEC3","name":"part007_vertices#0_POSITION"},{"bufferView":3,"byteOffset":7968,"componentType":5120,"count":15,"type":"VEC4","name":"part007_vertices#0_TANGENT"},{"bufferView":3,"byteOffset":7972,"componentType":5120,"count":15,"type":"VEC4","name":"part007_vertices#0_NORMAL"},{"bufferView":3,"byteOffset":7976,"componentType":5122,"count":15,"type":"VEC2","name":"part007_vertices#0_TEXCOORD_0"},{"bufferView":3,"byteOffset":7980,"componentType":5122,"count":15,"type":"VEC2","name":"part007_vertices#0_TEXCOORD_1"},{"bufferView":3,"byteOffset":7984,"componentType":5123,"count":15,"type":"VEC4","name":"part007_vertices#0_COLOR_0"},{"bufferView":4,"byteOffset":918,"componentType":5123,"count":27,"type":"SCALAR","name":"part007_indices#0"},{"bufferView":3,"byteOffset":8496,"componentType":5126,"count":10,"min":[0.06763000041246414,-0.20476000010967256,-0.2153100073337555],"max":[0.06763000041246414,0.20483000576496125,0.21535000205039979],"type":"VEC3","name":"part008_vertices#0_POSITION"},{"bufferView":3,"byteOffset":8508,"componentType":5120,"count":10,"type":"VEC4","name":"part008_vertices#0_TANGENT"},{"bufferView":3,"byteOffset":8512,"componentType":5120,"count":10,"type":"VEC4","name":"part008_vertices#0_NORMAL"},{"bufferView":3,"byteOffset":8516,"componentType":5122,"count":10,"type":"VEC2","name":"part008_vertices#0_TEXCOORD_0"},{"bufferView":3,"byteOffset":8520,"componentType":5122,"count":10,"type":"VEC2","name":"part008_vertices#0_TEXCOORD_1"},{"bufferView":3,"byteOffset":8524,"componentType":5123,"count":10,"type":"VEC4","name":"part008_vertices#0_COLOR_0"},{"bufferView":4,"byteOffset":972,"componentType":5123,"count":24,"type":"SCALAR","name":"part008_indices#0"}],"animations":[{"name":"c_gear","channels":[{"sampler":0,"target":{"node":10,"path":"translation"}},{"sampler":1,"target":{"node":12,"path":"rotation"}},{"sampler":2,"target":{"node":18,"path":"translation"}},{"sampler":3,"target":{"node":20,"path":"rotation"}},{"sampler":4,"target":{"node":29,"path":"translation"}},{"sampler":5,"target":{"node":31,"path":"rotation"}}],"samplers":[{"input":0,"output":1,"interpolation":"LINEAR"},{"input":2,"output":3,"interpolation":"LINEAR"},{"input":8,"output":9,"interpolation":"LINEAR"},{"input":10,"output":11,"interpolation":"LINEAR"},{"input":18,"output":19,"interpolation":"LINEAR"},{"input":20,"output":21,"interpolation":"LINEAR"}]},{"name":"custom_anim_C_WHEEL_LR","channels":[{"sampler":0,"target":{"node":14,"path":"rotation"}}],"samplers":[{"input":4,"output":5,"interpolation":"LINEAR"}]},{"name":"c_tire_blurred_key","channels":[{"sampler":0,"target":{"node":16,"path":"rotation"}}],"samplers":[{"input":6,"output":7,"interpolation":"LINEAR"}]},{"name":"l_gear","channels":[{"sampler":0,"target":{"node":22,"path":"translation"}},{"sampler":1,"target":{"node":24,"path":"rotation"}}],"samplers":[{"input":12,"output":13,"interpolation":"LINEAR"},{"input":14,"output":15,"interpolation":"LINEAR"}]},{"name":"l_tire_blurred_key","channels":[{"sampler":0,"target":{"node":27,"path":"rotation"}}],"samplers":[{"input":16,"output":17,"interpolation":"LINEAR"}]},{"name":"r_gear","channels":[{"sampler":0,"target":{"node":33,"path":"translation"}},{"sampler":1,"target":{"node":35,"path":"rotation"}}],"samplers":[{"input":22,"output":23,"interpolation":"LINEAR"},{"input":24,"output":25,"interpolation":"LINEAR"}]},{"name":"r_tire_blurred_key","channels":[{"sampler":0,"target":{"node":38,"path":"rotation"}}],"samplers":[{"input":26,"output":27,"interpolation":"LINEAR"}]}],"asset":{"generator":"ModelConverterX","version":"2.0","extensions":{"ASOBO_asset_optimized":{"BoundingBoxMax":[5.483610153198242,1.504699945449829,1.937190055847168],"BoundingBoxMin":[-5.483610153198242,-0.6095600128173828,-6.120910167694092],"MajorVersion":4,"MinorVersion":4,"UseCheckerboardMaterialForMissingTextures":true,"UseOnlyFilenameForImageURI":true}}},"bufferViews":[{"buffer":0,"byteLength":208,"byteStride":4},{"buffer":0,"byteLength":192,"byteStride":12,"byteOffset":208},{"buffer":0,"byteLength":576,"byteStride":16,"byteOffset":400},{"buffer":0,"byteLength":8856,"byteStride":36,"byteOffset":976,"target":34962,"name":"BufferViewVertexND"},{"buffer":0,"byteLength":1020,"byteOffset":9832,"target":34963,"name":"BufferViewIndex"}],"extensionsRequired":["MSFT_texture_dds"],"materials":[{"name":"material00","emissiveTexture":{"index":1},"emissiveFactor":[0.019607843831181527,0.019607843831181527,0.019607843831181527],"pbrMetallicRoughness":{"metallicFactor":0.0,"baseColorTexture":{"index":0}},"extensions":{"ASOBO_material_day_night_switch":{}}}],"meshes":[{"primitives":[{"attributes":{"COLOR_0":33,"NORMAL":30,"POSITION":28,"TANGENT":29,"TEXCOORD_0":31,"TEXCOORD_1":32},"indices":34,"material":0,"mode":4,"extras":{"ASOBO_primitive":{"PrimitiveCount":88,"VertexType":"VTX","VertexVersion":2}}}],"name":"part000"},{"primitives":[{"attributes":{"COLOR_0":40,"NORMAL":37,"POSITION":35,"TANGENT":36,"TEXCOORD_0":38,"TEXCOORD_1":39},"indices":41,"material":0,"mode":4,"extras":{"ASOBO_primitive":{"PrimitiveCount":12,"VertexType":"VTX","VertexVersion":2}}}],"name":"part001"},{"primitives":[{"attributes":{"COLOR_0":47,"NORMAL":44,"POSITION":42,"TANGENT":43,"TEXCOORD_0":45,"TEXCOORD_1":46},"indices":48,"material":0,"mode":4,"extras":{"ASOBO_primitive":{"PrimitiveCount":16,"VertexType":"VTX","VertexVersion":2}}}],"name":"part002"},{"primitives":[{"attributes":{"COLOR_0":54,"NORMAL":51,"POSITION":49,"TANGENT":50,"TEXCOORD_0":52,"TEXCOORD_1":53},"indices":55,"material":0,"mode":4,"extras":{"ASOBO_primitive":{"PrimitiveCount":6,"VertexType":"VTX","VertexVersion":2}}}],"name":"part003"},{"primitives":[{"attributes":{"COLOR_0":61,"NORMAL":58,"POSITION":56,"TANGENT":57,"TEXCOORD_0":59,"TEXCOORD_1":60},"indices":62,"material":0,"mode":4,"extras":{"ASOBO_primitive":{"PrimitiveCount":9,"VertexType":"VTX","VertexVersion":2}}}],"name":"part004"},{"primitives":[{"attributes":{"COLOR_0":68,"NORMAL":65,"POSITION":63,"TANGENT":64,"TEXCOORD_0":66,"TEXCOORD_1":67},"indices":69,"material":0,"mode":4,"extras":{"ASOBO_primitive":{"PrimitiveCount":16,"VertexType":"VTX","VertexVersion":2}}}],"name":"part005"},{"primitives":[{"attributes":{"COLOR_0":75,"NORMAL":72,"POSITION":70,"TANGENT":71,"TEXCOORD_0":73,"TEXCOORD_1":74},"indices":76,"material":0,"mode":4,"extras":{"ASOBO_primitive":{"PrimitiveCount":6,"VertexType":"VTX","VertexVersion":2}}}],"name":"part006"},{"primitives":[{"attributes":{"COLOR_0":82,"NORMAL":79,"POSITION":77,"TANGENT":78,"TEXCOORD_0":80,"TEXCOORD_1":81},"indices":83,"material":0,"mode":4,"extras":{"ASOBO_primitive":{"PrimitiveCount":9,"VertexType":"VTX","VertexVersion":2}}}],"name":"part007"},{"primitives":[{"attributes":{"COLOR_0":89,"NORMAL":86,"POSITION":84,"TANGENT":85,"TEXCOORD_0":87,"TEXCOORD_1":88},"indices":90,"material":0,"mode":4,"extras":{"ASOBO_primitive":{"PrimitiveCount":8,"VertexType":"VTX","VertexVersion":2}}}],"name":"part008"}],"nodes":[{"name":"node_0","children":[1,2,3,4,5,6,7,8]},{"mesh":0,"name":"node_6"},{"translation":[7.347638122934264e-16,0.0,-6.0],"rotation":[-6.123031769111886e-17,3.061515884555943e-17,1.0,1.874575902277672e-33],"scale":[1.0,1.0,1.0],"name":"contrail1"},{"translation":[-0.2000000029802325,-0.1599999964237213,1.8400000333786014],"rotation":[-0.6691306063588584,0.0,0.0,0.7431448254773942],"scale":[1.0,1.0,1.0],"name":"Taxi_Light"},{"translation":[0.200000002980232,-0.1599999964237213,1.8400000333786014],"rotation":[-0.7071067811865475,0.0,0.0,0.7071067811865475],"scale":[1.0,1.0,1.0],"name":"Landing_Light"},{"translation":[-1.4695276829806339e-16,-1.100000023841858,1.2000000476837159],"rotation":[-6.123031769111886e-17,3.061515884555943e-17,1.0,1.874575902277672e-33],"scale":[1.0,1.0,1.0],"name":"c_tire1"},{"translation":[1.3700000047683716,-1.0800000429153443,-0.49999999999999986],"rotation":[-6.123031769111886e-17,3.061515884555943e-17,1.0,1.874575902277672e-33],"scale":[1.0,1.0,1.0],"name":"l_tire1"},{"translation":[-1.3700000047683716,-1.0800000429153443,-0.5000000000000002],"rotation":[-6.123031769111886e-17,3.061515884555943e-17,1.0,1.874575902277672e-33],"scale":[1.0,1.0,1.0],"name":"r_tire1"},{"translation":[0.0,0.0,0.0],"rotation":[-4.329637285359677e-17,0.7071067811865475,0.7071067811865475,4.329637285359677e-17],"scale":[1.0,1.0,1.0],"name":"node_24","children":[9,17,21,28,32]},{"name":"node_37","children":[10]},{"name":"c_gear_AN_37","children":[11]},{"name":"node_38","children":[12]},{"mesh":1,"name":"c_gear_AN_38","children":[13]},{"translation":[0.0,0.0009139999747276305,-0.4449799954891205],"rotation":[0.0,0.0,0.0,1.0],"scale":[1.0,1.0,1.0],"name":"node_39","children":[14]},{"name":"custom_anim_C_WHEEL_LR_AN_39","children":[15]},{"name":"node_40","children":[16]},{"mesh":2,"name":"c_tire_blurred_key_AN_40"},{"name":"node_54","children":[18]},{"name":"c_gear_AN_54","children":[19]},{"name":"node_55","children":[20]},{"mesh":3,"name":"c_gear_AN_55"},{"name":"node_60","children":[22]},{"name":"l_gear_AN_60","children":[23]},{"name":"node_61","children":[24]},{"mesh":4,"name":"l_gear_AN_61","children":[25]},{"translation":[-0.92500901222229,0.27704599499702456,-0.4382739961147308],"rotation":[0.0,0.0,0.0,1.0],"scale":[1.0,1.0,1.0],"name":"node_64","children":[26]},{"name":"node_65","children":[27]},{"mesh":5,"name":"l_tire_blurred_key_AN_65"},{"name":"node_75","children":[29]},{"name":"c_gear_AN_75","children":[30]},{"name":"node_76","children":[31]},{"mesh":6,"name":"c_gear_AN_76"},{"name":"node_81","children":[33]},{"name":"r_gear_AN_81","children":[34]},{"name":"node_82","children":[35]},{"mesh":7,"name":"r_gear_AN_82","children":[36]},{"translation":[0.92500901222229,0.27704599499702456,-0.4382739961147308],"rotation":[0.0,0.0,0.0,1.0],"scale":[1.0,1.0,1.0],"name":"node_85","children":[37]},{"name":"node_86","children":[38]},{"mesh":8,"name":"r_tire_blurred_key_AN_86"}],"scene":0,"scenes":[{"nodes":[0]}],"textures":[{"extensions":{"MSFT_texture_dds":{"source":0}}},{"extensions":{"MSFT_texture_dds":{"source":1}}}],"extensionsUsed":["ASOBO_material_day_night_switch","MSFT_texture_dds","ASOBO_asset_optimized"],"buffers":[{"byteLength":10852,"uri":"HTAI Cessna R182 Skylane RG MSFS_LOD4.bin"}],"images":[{"uri":"HTAI_C182RG.PNG.DDS","extras":"ASOBO_image_converted_meta"},{"uri":"HTAI_C182RG_L.PNG.DDS","extras":"ASOBO_image_converted_meta"}]}
