{"accessors":[{"bufferView":0,"componentType":5126,"count":5,"min":[0.0],"max":[100.0],"type":"SCALAR"},{"bufferView":2,"componentType":5126,"count":5,"type":"VEC4"},{"bufferView":0,"byteOffset":20,"componentType":5126,"count":2,"min":[0.0],"max":[100.0],"type":"SCALAR"},{"bufferView":1,"componentType":5126,"count":2,"type":"VEC3"},{"bufferView":0,"byteOffset":28,"componentType":5126,"count":2,"min":[0.0],"max":[100.0],"type":"SCALAR"},{"bufferView":2,"byteOffset":80,"componentType":5126,"count":2,"type":"VEC4"},{"bufferView":0,"byteOffset":36,"componentType":5126,"count":5,"min":[0.0],"max":[200.0],"type":"SCALAR"},{"bufferView":2,"byteOffset":112,"componentType":5126,"count":5,"type":"VEC4"},{"bufferView":0,"byteOffset":56,"componentType":5126,"count":5,"min":[0.0],"max":[100.0],"type":"SCALAR"},{"bufferView":2,"byteOffset":192,"componentType":5126,"count":5,"type":"VEC4"},{"bufferView":0,"byteOffset":76,"componentType":5126,"count":2,"min":[0.0],"max":[100.0],"type":"SCALAR"},{"bufferView":2,"byteOffset":272,"componentType":5126,"count":2,"type":"VEC4"},{"bufferView":0,"byteOffset":84,"componentType":5126,"count":3,"min":[0.0],"max":[100.0],"type":"SCALAR"},{"bufferView":1,"byteOffset":24,"componentType":5126,"count":3,"type":"VEC3"},{"bufferView":0,"byteOffset":96,"componentType":5126,"count":3,"min":[0.0],"max":[100.0],"type":"SCALAR"},{"bufferView":2,"byteOffset":304,"componentType":5126,"count":3,"type":"VEC4"},{"bufferView":0,"byteOffset":108,"componentType":5126,"count":4,"min":[0.0],"max":[100.0],"type":"SCALAR"},{"bufferView":1,"byteOffset":60,"componentType":5126,"count":4,"type":"VEC3"},{"bufferView":0,"byteOffset":124,"componentType":5126,"count":4,"min":[0.0],"max":[100.0],"type":"SCALAR"},{"bufferView":2,"byteOffset":352,"componentType":5126,"count":4,"type":"VEC4"},{"bufferView":0,"byteOffset":140,"componentType":5126,"count":5,"min":[0.0],"max":[100.0],"type":"SCALAR"},{"bufferView":2,"byteOffset":416,"componentType":5126,"count":5,"type":"VEC4"},{"bufferView":0,"byteOffset":160,"componentType":5126,"count":4,"min":[0.0],"max":[100.0],"type":"SCALAR"},{"bufferView":2,"byteOffset":496,"componentType":5126,"count":4,"type":"VEC4"},{"bufferView":0,"byteOffset":176,"componentType":5126,"count":3,"min":[0.0],"max":[100.0],"type":"SCALAR"},{"bufferView":1,"byteOffset":108,"componentType":5126,"count":3,"type":"VEC3"},{"bufferView":0,"byteOffset":188,"componentType":5126,"count":3,"min":[0.0],"max":[100.0],"type":"SCALAR"},{"bufferView":2,"byteOffset":560,"componentType":5126,"count":3,"type":"VEC4"},{"bufferView":0,"byteOffset":200,"componentType":5126,"count":4,"min":[0.0],"max":[100.0],"type":"SCALAR"},{"bufferView":1,"byteOffset":144,"componentType":5126,"count":4,"type":"VEC3"},{"bufferView":0,"byteOffset":216,"componentType":5126,"count":4,"min":[0.0],"max":[100.0],"type":"SCALAR"},{"bufferView":2,"byteOffset":608,"componentType":5126,"count":4,"type":"VEC4"},{"bufferView":0,"byteOffset":232,"componentType":5126,"count":5,"min":[0.0],"max":[100.0],"type":"SCALAR"},{"bufferView":2,"byteOffset":672,"componentType":5126,"count":5,"type":"VEC4"},{"bufferView":0,"byteOffset":252,"componentType":5126,"count":4,"min":[0.0],"max":[100.0],"type":"SCALAR"},{"bufferView":2,"byteOffset":752,"componentType":5126,"count":4,"type":"VEC4"},{"bufferView":3,"componentType":5126,"count":195,"min":[-5.483610153198242,-0.6095600128173828,-6.120910167694092],"max":[5.483610153198242,1.504699945449829,2.306879997253418],"type":"VEC3","name":"part000_vertices#0_POSITION"},{"bufferView":3,"byteOffset":12,"componentType":5120,"count":195,"type":"VEC4","name":"part000_vertices#0_TANGENT"},{"bufferView":3,"byteOffset":16,"componentType":5120,"count":195,"type":"VEC4","name":"part000_vertices#0_NORMAL"},{"bufferView":3,"byteOffset":20,"componentType":5122,"count":195,"type":"VEC2","name":"part000_vertices#0_TEXCOORD_0"},{"bufferView":3,"byteOffset":24,"componentType":5122,"count":195,"type":"VEC2","name":"part000_vertices#0_TEXCOORD_1"},{"bufferView":3,"byteOffset":28,"componentType":5123,"count":195,"type":"VEC4","name":"part000_vertices#0_COLOR_0"},{"bufferView":4,"componentType":5123,"count":525,"type":"SCALAR","name":"part000_indices#0"},{"bufferView":3,"byteOffset":7020,"componentType":5126,"count":42,"min":[-0.8695399761199951,-0.023159999400377275,-0.9865700006484985],"max":[0.8683199882507324,0.023469999432563783,0.5196499824523926],"type":"VEC3","name":"part001_vertices#0_POSITION"},{"bufferView":3,"byteOffset":7032,"componentType":5120,"count":42,"type":"VEC4","name":"part001_vertices#0_TANGENT"},{"bufferView":3,"byteOffset":7036,"componentType":5120,"count":42,"type":"VEC4","name":"part001_vertices#0_NORMAL"},{"bufferView":3,"byteOffset":7040,"componentType":5122,"count":42,"type":"VEC2","name":"part001_vertices#0_TEXCOORD_0"},{"bufferView":3,"byteOffset":7044,"componentType":5122,"count":42,"type":"VEC2","name":"part001_vertices#0_TEXCOORD_1"},{"bufferView":3,"byteOffset":7048,"componentType":5123,"count":42,"type":"VEC4","name":"part001_vertices#0_COLOR_0"},{"bufferView":4,"byteOffset":1050,"componentType":5123,"count":90,"type":"SCALAR","name":"part001_indices#0"},{"bufferView":3,"byteOffset":8532,"componentType":5126,"count":20,"min":[-0.050050001591444018,-0.17250999808311463,-0.1814900040626526],"max":[0.050050001591444018,0.17257000505924226,0.1813499927520752],"type":"VEC3","name":"part002_vertices#0_POSITION"},{"bufferView":3,"byteOffset":8544,"componentType":5120,"count":20,"type":"VEC4","name":"part002_vertices#0_TANGENT"},{"bufferView":3,"byteOffset":8548,"componentType":5120,"count":20,"type":"VEC4","name":"part002_vertices#0_NORMAL"},{"bufferView":3,"byteOffset":8552,"componentType":5122,"count":20,"type":"VEC2","name":"part002_vertices#0_TEXCOORD_0"},{"bufferView":3,"byteOffset":8556,"componentType":5122,"count":20,"type":"VEC2","name":"part002_vertices#0_TEXCOORD_1"},{"bufferView":3,"byteOffset":8560,"componentType":5123,"count":20,"type":"VEC4","name":"part002_vertices#0_COLOR_0"},{"bufferView":4,"byteOffset":1230,"componentType":5123,"count":48,"type":"SCALAR","name":"part002_indices#0"},{"bufferView":3,"byteOffset":9252,"componentType":5126,"count":72,"min":[-0.07649999856948853,-0.035909999161958697,-0.4771000146865845],"max":[0.07649999856948853,0.036320000886917117,0.03675999864935875],"type":"VEC3","name":"part003_vertices#0_POSITION"},{"bufferView":3,"byteOffset":9264,"componentType":5120,"count":72,"type":"VEC4","name":"part003_vertices#0_TANGENT"},{"bufferView":3,"byteOffset":9268,"componentType":5120,"count":72,"type":"VEC4","name":"part003_vertices#0_NORMAL"},{"bufferView":3,"byteOffset":9272,"componentType":5122,"count":72,"type":"VEC2","name":"part003_vertices#0_TEXCOORD_0"},{"bufferView":3,"byteOffset":9276,"componentType":5122,"count":72,"type":"VEC2","name":"part003_vertices#0_TEXCOORD_1"},{"bufferView":3,"byteOffset":9280,"componentType":5123,"count":72,"type":"VEC4","name":"part003_vertices#0_COLOR_0"},{"bufferView":4,"byteOffset":1326,"componentType":5123,"count":180,"type":"SCALAR","name":"part003_indices#0"},{"bufferView":3,"byteOffset":11844,"componentType":5126,"count":16,"min":[-0.001829999964684248,-0.3949599862098694,-0.1384900063276291],"max":[0.1181500032544136,0.3347899913787842,0.22633999586105348],"type":"VEC3","name":"part004_vertices#0_POSITION"},{"bufferView":3,"byteOffset":11856,"componentType":5120,"count":16,"type":"VEC4","name":"part004_vertices#0_TANGENT"},{"bufferView":3,"byteOffset":11860,"componentType":5120,"count":16,"type":"VEC4","name":"part004_vertices#0_NORMAL"},{"bufferView":3,"byteOffset":11864,"componentType":5122,"count":16,"type":"VEC2","name":"part004_vertices#0_TEXCOORD_0"},{"bufferView":3,"byteOffset":11868,"componentType":5122,"count":16,"type":"VEC2","name":"part004_vertices#0_TEXCOORD_1"},{"bufferView":3,"byteOffset":11872,"componentType":5123,"count":16,"type":"VEC4","name":"part004_vertices#0_COLOR_0"},{"bufferView":4,"byteOffset":1686,"componentType":5123,"count":36,"type":"SCALAR","name":"part004_indices#0"},{"bufferView":3,"byteOffset":12420,"componentType":5126,"count":20,"min":[-0.06763000041246414,-0.20476000010967256,-0.2153100073337555],"max":[0.06763000041246414,0.20483000576496125,0.21535000205039979],"type":"VEC3","name":"part005_vertices#0_POSITION"},{"bufferView":3,"byteOffset":12432,"componentType":5120,"count":20,"type":"VEC4","name":"part005_vertices#0_TANGENT"},{"bufferView":3,"byteOffset":12436,"componentType":5120,"count":20,"type":"VEC4","name":"part005_vertices#0_NORMAL"},{"bufferView":3,"byteOffset":12440,"componentType":5122,"count":20,"type":"VEC2","name":"part005_vertices#0_TEXCOORD_0"},{"bufferView":3,"byteOffset":12444,"componentType":5122,"count":20,"type":"VEC2","name":"part005_vertices#0_TEXCOORD_1"},{"bufferView":3,"byteOffset":12448,"componentType":5123,"count":20,"type":"VEC4","name":"part005_vertices#0_COLOR_0"},{"bufferView":4,"byteOffset":1758,"componentType":5123,"count":48,"type":"SCALAR","name":"part005_indices#0"},{"bufferView":3,"byteOffset":13140,"componentType":5126,"count":27,"min":[-0.8549100160598755,-0.046560000628232959,-0.43887999653816225],"max":[0.14521999657154084,0.2773500084877014,-0.06996999680995941],"type":"VEC3","name":"part006_vertices#0_POSITION"},{"bufferView":3,"byteOffset":13152,"componentType":5120,"count":27,"type":"VEC4","name":"part006_vertices#0_TANGENT"},{"bufferView":3,"byteOffset":13156,"componentType":5120,"count":27,"type":"VEC4","name":"part006_vertices#0_NORMAL"},{"bufferView":3,"byteOffset":13160,"componentType":5122,"count":27,"type":"VEC2","name":"part006_vertices#0_TEXCOORD_0"},{"bufferView":3,"byteOffset":13164,"componentType":5122,"count":27,"type":"VEC2","name":"part006_vertices#0_TEXCOORD_1"},{"bufferView":3,"byteOffset":13168,"componentType":5123,"count":27,"type":"VEC4","name":"part006_vertices#0_COLOR_0"},{"bufferView":4,"byteOffset":1854,"componentType":5123,"count":75,"type":"SCALAR","name":"part006_indices#0"},{"bufferView":3,"byteOffset":14112,"componentType":5126,"count":16,"min":[-0.1183599978685379,-0.3949599862098694,-0.1384900063276291],"max":[0.001930000027641654,0.3347899913787842,0.22633999586105348],"type":"VEC3","name":"part007_vertices#0_POSITION"},{"bufferView":3,"byteOffset":14124,"componentType":5120,"count":16,"type":"VEC4","name":"part007_vertices#0_TANGENT"},{"bufferView":3,"byteOffset":14128,"componentType":5120,"count":16,"type":"VEC4","name":"part007_vertices#0_NORMAL"},{"bufferView":3,"byteOffset":14132,"componentType":5122,"count":16,"type":"VEC2","name":"part007_vertices#0_TEXCOORD_0"},{"bufferView":3,"byteOffset":14136,"componentType":5122,"count":16,"type":"VEC2","name":"part007_vertices#0_TEXCOORD_1"},{"bufferView":3,"byteOffset":14140,"componentType":5123,"count":16,"type":"VEC4","name":"part007_vertices#0_COLOR_0"},{"bufferView":4,"byteOffset":2004,"componentType":5123,"count":36,"type":"SCALAR","name":"part007_indices#0"},{"bufferView":3,"byteOffset":14688,"componentType":5126,"count":20,"min":[-0.06763000041246414,-0.20476000010967256,-0.2153100073337555],"max":[0.06763000041246414,0.20483000576496125,0.21535000205039979],"type":"VEC3","name":"part008_vertices#0_POSITION"},{"bufferView":3,"byteOffset":14700,"componentType":5120,"count":20,"type":"VEC4","name":"part008_vertices#0_TANGENT"},{"bufferView":3,"byteOffset":14704,"componentType":5120,"count":20,"type":"VEC4","name":"part008_vertices#0_NORMAL"},{"bufferView":3,"byteOffset":14708,"componentType":5122,"count":20,"type":"VEC2","name":"part008_vertices#0_TEXCOORD_0"},{"bufferView":3,"byteOffset":14712,"componentType":5122,"count":20,"type":"VEC2","name":"part008_vertices#0_TEXCOORD_1"},{"bufferView":3,"byteOffset":14716,"componentType":5123,"count":20,"type":"VEC4","name":"part008_vertices#0_COLOR_0"},{"bufferView":4,"byteOffset":2076,"componentType":5123,"count":48,"type":"SCALAR","name":"part008_indices#0"},{"bufferView":3,"byteOffset":15408,"componentType":5126,"count":27,"min":[-0.14521999657154084,-0.046560000628232959,-0.43887999653816225],"max":[0.8549100160598755,0.2773500084877014,-0.06996999680995941],"type":"VEC3","name":"part009_vertices#0_POSITION"},{"bufferView":3,"byteOffset":15420,"componentType":5120,"count":27,"type":"VEC4","name":"part009_vertices#0_TANGENT"},{"bufferView":3,"byteOffset":15424,"componentType":5120,"count":27,"type":"VEC4","name":"part009_vertices#0_NORMAL"},{"bufferView":3,"byteOffset":15428,"componentType":5122,"count":27,"type":"VEC2","name":"part009_vertices#0_TEXCOORD_0"},{"bufferView":3,"byteOffset":15432,"componentType":5122,"count":27,"type":"VEC2","name":"part009_vertices#0_TEXCOORD_1"},{"bufferView":3,"byteOffset":15436,"componentType":5123,"count":27,"type":"VEC4","name":"part009_vertices#0_COLOR_0"},{"bufferView":4,"byteOffset":2172,"componentType":5123,"count":75,"type":"SCALAR","name":"part009_indices#0"}],"animations":[{"name":"engine0","channels":[{"sampler":0,"target":{"node":11,"path":"rotation"}}],"samplers":[{"input":0,"output":1,"interpolation":"LINEAR"}]},{"name":"c_gear","channels":[{"sampler":0,"target":{"node":13,"path":"translation"}},{"sampler":1,"target":{"node":15,"path":"rotation"}},{"sampler":2,"target":{"node":21,"path":"rotation"}},{"sampler":3,"target":{"node":23,"path":"translation"}},{"sampler":4,"target":{"node":25,"path":"rotation"}},{"sampler":5,"target":{"node":36,"path":"translation"}},{"sampler":6,"target":{"node":38,"path":"rotation"}}],"samplers":[{"input":2,"output":3,"interpolation":"LINEAR"},{"input":4,"output":5,"interpolation":"LINEAR"},{"input":10,"output":11,"interpolation":"LINEAR"},{"input":12,"output":13,"interpolation":"LINEAR"},{"input":14,"output":15,"interpolation":"LINEAR"},{"input":24,"output":25,"interpolation":"LINEAR"},{"input":26,"output":27,"interpolation":"LINEAR"}]},{"name":"custom_anim_C_WHEEL_LR","channels":[{"sampler":0,"target":{"node":17,"path":"rotation"}}],"samplers":[{"input":6,"output":7,"interpolation":"LINEAR"}]},{"name":"c_tire_blurred_key","channels":[{"sampler":0,"target":{"node":19,"path":"rotation"}}],"samplers":[{"input":8,"output":9,"interpolation":"LINEAR"}]},{"name":"l_gear","channels":[{"sampler":0,"target":{"node":27,"path":"translation"}},{"sampler":1,"target":{"node":29,"path":"rotation"}},{"sampler":2,"target":{"node":34,"path":"rotation"}}],"samplers":[{"input":16,"output":17,"interpolation":"LINEAR"},{"input":18,"output":19,"interpolation":"LINEAR"},{"input":22,"output":23,"interpolation":"LINEAR"}]},{"name":"l_tire_blurred_key","channels":[{"sampler":0,"target":{"node":32,"path":"rotation"}}],"samplers":[{"input":20,"output":21,"interpolation":"LINEAR"}]},{"name":"r_gear","channels":[{"sampler":0,"target":{"node":40,"path":"translation"}},{"sampler":1,"target":{"node":42,"path":"rotation"}},{"sampler":2,"target":{"node":47,"path":"rotation"}}],"samplers":[{"input":28,"output":29,"interpolation":"LINEAR"},{"input":30,"output":31,"interpolation":"LINEAR"},{"input":34,"output":35,"interpolation":"LINEAR"}]},{"name":"r_tire_blurred_key","channels":[{"sampler":0,"target":{"node":45,"path":"rotation"}}],"samplers":[{"input":32,"output":33,"interpolation":"LINEAR"}]}],"asset":{"generator":"ModelConverterX","version":"2.0","extensions":{"ASOBO_asset_optimized":{"BoundingBoxMax":[5.483610153198242,1.504699945449829,2.306879997253418],"BoundingBoxMin":[-5.483610153198242,-0.6095600128173828,-6.120910167694092],"MajorVersion":4,"MinorVersion":4,"UseCheckerboardMaterialForMissingTextures":true,"UseOnlyFilenameForImageURI":true}}},"bufferViews":[{"buffer":0,"byteLength":268,"byteStride":4},{"buffer":0,"byteLength":192,"byteStride":12,"byteOffset":268},{"buffer":0,"byteLength":816,"byteStride":16,"byteOffset":460},{"buffer":0,"byteLength":16380,"byteStride":36,"byteOffset":1276,"target":34962,"name":"BufferViewVertexND"},{"buffer":0,"byteLength":2322,"byteOffset":17656,"target":34963,"name":"BufferViewIndex"}],"extensionsRequired":["MSFT_texture_dds"],"materials":[{"name":"material00","occlusionTexture":{"index":1},"emissiveTexture":{"index":2},"emissiveFactor":[0.019607843831181527,0.019607843831181527,0.019607843831181527],"pbrMetallicRoughness":{"baseColorTexture":{"index":0},"metallicRoughnessTexture":{"index":1}},"extensions":{"ASOBO_material_day_night_switch":{}}}],"meshes":[{"primitives":[{"attributes":{"COLOR_0":41,"NORMAL":38,"POSITION":36,"TANGENT":37,"TEXCOORD_0":39,"TEXCOORD_1":40},"indices":42,"material":0,"mode":4,"extras":{"ASOBO_primitive":{"PrimitiveCount":175,"VertexType":"VTX","VertexVersion":2}}}],"name":"part000"},{"primitives":[{"attributes":{"COLOR_0":48,"NORMAL":45,"POSITION":43,"TANGENT":44,"TEXCOORD_0":46,"TEXCOORD_1":47},"indices":49,"material":0,"mode":4,"extras":{"ASOBO_primitive":{"PrimitiveCount":30,"VertexType":"VTX","VertexVersion":2}}}],"name":"part001"},{"primitives":[{"attributes":{"COLOR_0":55,"NORMAL":52,"POSITION":50,"TANGENT":51,"TEXCOORD_0":53,"TEXCOORD_1":54},"indices":56,"material":0,"mode":4,"extras":{"ASOBO_primitive":{"PrimitiveCount":16,"VertexType":"VTX","VertexVersion":2}}}],"name":"part002"},{"primitives":[{"attributes":{"COLOR_0":62,"NORMAL":59,"POSITION":57,"TANGENT":58,"TEXCOORD_0":60,"TEXCOORD_1":61},"indices":63,"material":0,"mode":4,"extras":{"ASOBO_primitive":{"PrimitiveCount":60,"VertexType":"VTX","VertexVersion":2}}}],"name":"part003"},{"primitives":[{"attributes":{"COLOR_0":69,"NORMAL":66,"POSITION":64,"TANGENT":65,"TEXCOORD_0":67,"TEXCOORD_1":68},"indices":70,"material":0,"mode":4,"extras":{"ASOBO_primitive":{"PrimitiveCount":12,"VertexType":"VTX","VertexVersion":2}}}],"name":"part004"},{"primitives":[{"attributes":{"COLOR_0":76,"NORMAL":73,"POSITION":71,"TANGENT":72,"TEXCOORD_0":74,"TEXCOORD_1":75},"indices":77,"material":0,"mode":4,"extras":{"ASOBO_primitive":{"PrimitiveCount":16,"VertexType":"VTX","VertexVersion":2}}}],"name":"part005"},{"primitives":[{"attributes":{"COLOR_0":83,"NORMAL":80,"POSITION":78,"TANGENT":79,"TEXCOORD_0":81,"TEXCOORD_1":82},"indices":84,"material":0,"mode":4,"extras":{"ASOBO_primitive":{"PrimitiveCount":25,"VertexType":"VTX","VertexVersion":2}}}],"name":"part006"},{"primitives":[{"attributes":{"COLOR_0":90,"NORMAL":87,"POSITION":85,"TANGENT":86,"TEXCOORD_0":88,"TEXCOORD_1":89},"indices":91,"material":0,"mode":4,"extras":{"ASOBO_primitive":{"PrimitiveCount":12,"VertexType":"VTX","VertexVersion":2}}}],"name":"part007"},{"primitives":[{"attributes":{"COLOR_0":97,"NORMAL":94,"POSITION":92,"TANGENT":93,"TEXCOORD_0":95,"TEXCOORD_1":96},"indices":98,"material":0,"mode":4,"extras":{"ASOBO_primitive":{"PrimitiveCount":16,"VertexType":"VTX","VertexVersion":2}}}],"name":"part008"},{"primitives":[{"attributes":{"COLOR_0":104,"NORMAL":101,"POSITION":99,"TANGENT":100,"TEXCOORD_0":102,"TEXCOORD_1":103},"indices":105,"material":0,"mode":4,"extras":{"ASOBO_primitive":{"PrimitiveCount":25,"VertexType":"VTX","VertexVersion":2}}}],"name":"part009"}],"nodes":[{"name":"node_0","children":[1,2,3,4,5,6,7,8]},{"mesh":0,"name":"node_7"},{"translation":[7.347638122934264e-16,0.0,-6.0],"rotation":[-6.123031769111886e-17,3.061515884555943e-17,1.0,1.874575902277672e-33],"scale":[1.0,1.0,1.0],"name":"contrail1"},{"translation":[-0.2000000029802325,-0.1599999964237213,1.8400000333786014],"rotation":[-0.6691306063588584,0.0,0.0,0.7431448254773942],"scale":[1.0,1.0,1.0],"name":"Taxi_Light"},{"translation":[0.200000002980232,-0.1599999964237213,1.8400000333786014],"rotation":[-0.7071067811865475,0.0,0.0,0.7071067811865475],"scale":[1.0,1.0,1.0],"name":"Landing_Light"},{"translation":[-1.4695276829806339e-16,-1.100000023841858,1.2000000476837159],"rotation":[-6.123031769111886e-17,3.061515884555943e-17,1.0,1.874575902277672e-33],"scale":[1.0,1.0,1.0],"name":"c_tire1"},{"translation":[1.3700000047683716,-1.0800000429153443,-0.49999999999999986],"rotation":[-6.123031769111886e-17,3.061515884555943e-17,1.0,1.874575902277672e-33],"scale":[1.0,1.0,1.0],"name":"l_tire1"},{"translation":[-1.3700000047683716,-1.0800000429153443,-0.5000000000000002],"rotation":[-6.123031769111886e-17,3.061515884555943e-17,1.0,1.874575902277672e-33],"scale":[1.0,1.0,1.0],"name":"r_tire1"},{"translation":[0.0,0.0,0.0],"rotation":[-4.329637285359677e-17,0.7071067811865475,0.7071067811865475,4.329637285359677e-17],"scale":[1.0,1.0,1.0],"name":"node_24","children":[9,12,22,26,35,39]},{"translation":[0.0,2.0231330394744875,0.17037199437618257],"rotation":[0.0,0.0,0.0,1.0],"scale":[1.0,1.0,1.0],"name":"node_32","children":[10]},{"name":"node_33","children":[11]},{"mesh":1,"name":"engine0_AN_33"},{"name":"node_37","children":[13]},{"name":"c_gear_AN_37","children":[14,20]},{"name":"node_38","children":[15]},{"name":"c_gear_AN_38","children":[16]},{"translation":[0.0,0.0009139999747276305,-0.4449799954891205],"rotation":[0.0,0.0,0.0,1.0],"scale":[1.0,1.0,1.0],"name":"node_39","children":[17]},{"name":"custom_anim_C_WHEEL_LR_AN_39","children":[18]},{"name":"node_41","children":[19]},{"mesh":2,"name":"c_tire_blurred_key_AN_41"},{"name":"node_50","children":[21]},{"mesh":3,"name":"c_gear_AN_50"},{"name":"node_54","children":[23]},{"name":"c_gear_AN_54","children":[24]},{"name":"node_56","children":[25]},{"mesh":4,"name":"c_gear_AN_56"},{"name":"node_60","children":[27]},{"name":"l_gear_AN_60","children":[28,33]},{"name":"node_61","children":[29]},{"name":"l_gear_AN_61","children":[30]},{"translation":[-0.92500901222229,0.27704599499702456,-0.4382739961147308],"rotation":[0.0,0.0,0.0,1.0],"scale":[1.0,1.0,1.0],"name":"node_64","children":[31]},{"name":"node_66","children":[32]},{"mesh":5,"name":"l_tire_blurred_key_AN_66"},{"name":"node_71","children":[34]},{"mesh":6,"name":"l_gear_AN_71"},{"name":"node_75","children":[36]},{"name":"c_gear_AN_75","children":[37]},{"name":"node_77","children":[38]},{"mesh":7,"name":"c_gear_AN_77"},{"name":"node_81","children":[40]},{"name":"r_gear_AN_81","children":[41,46]},{"name":"node_82","children":[42]},{"name":"r_gear_AN_82","children":[43]},{"translation":[0.92500901222229,0.27704599499702456,-0.4382739961147308],"rotation":[0.0,0.0,0.0,1.0],"scale":[1.0,1.0,1.0],"name":"node_85","children":[44]},{"name":"node_87","children":[45]},{"mesh":8,"name":"r_tire_blurred_key_AN_87"},{"name":"node_92","children":[47]},{"mesh":9,"name":"r_gear_AN_92"}],"scene":0,"scenes":[{"nodes":[0]}],"textures":[{"extensions":{"MSFT_texture_dds":{"source":0}}},{"extensions":{"MSFT_texture_dds":{"source":1}}},{"extensions":{"MSFT_texture_dds":{"source":2}}}],"extensionsUsed":["ASOBO_material_day_night_switch","MSFT_texture_dds","ASOBO_asset_optimized"],"buffers":[{"byteLength":19978,"uri":"HTAI Cessna R182 Skylane RG MSFS_LOD3.bin"}],"images":[{"uri":"HTAI_C182RG.PNG.DDS","extras":"ASOBO_image_converted_meta"},{"uri":"HTAI_C182RG_C.PNG.DDS","extras":"ASOBO_image_converted_meta"},{"uri":"HTAI_C182RG_L.PNG.DDS","extras":"ASOBO_image_converted_meta"}]}
