{"accessors":[{"bufferView":0,"componentType":5126,"count":5,"min":[0.0],"max":[100.0],"type":"SCALAR"},{"bufferView":2,"componentType":5126,"count":5,"type":"VEC4"},{"bufferView":0,"byteOffset":20,"componentType":5126,"count":5,"min":[0.0],"max":[100.0],"type":"SCALAR"},{"bufferView":2,"byteOffset":80,"componentType":5126,"count":5,"type":"VEC4"},{"bufferView":0,"byteOffset":40,"componentType":5126,"count":5,"min":[0.0],"max":[100.0],"type":"SCALAR"},{"bufferView":2,"byteOffset":160,"componentType":5126,"count":5,"type":"VEC4"},{"bufferView":0,"byteOffset":60,"componentType":5126,"count":5,"min":[0.0],"max":[100.0],"type":"SCALAR"},{"bufferView":2,"byteOffset":240,"componentType":5126,"count":5,"type":"VEC4"},{"bufferView":0,"byteOffset":80,"componentType":5126,"count":5,"min":[0.0],"max":[100.0],"type":"SCALAR"},{"bufferView":2,"byteOffset":320,"componentType":5126,"count":5,"type":"VEC4"},{"bufferView":0,"byteOffset":100,"componentType":5126,"count":5,"min":[0.0],"max":[100.0],"type":"SCALAR"},{"bufferView":2,"byteOffset":400,"componentType":5126,"count":5,"type":"VEC4"},{"bufferView":0,"byteOffset":120,"componentType":5126,"count":2,"min":[0.0],"max":[100.0],"type":"SCALAR"},{"bufferView":1,"componentType":5126,"count":2,"type":"VEC3"},{"bufferView":0,"byteOffset":128,"componentType":5126,"count":2,"min":[0.0],"max":[100.0],"type":"SCALAR"},{"bufferView":2,"byteOffset":480,"componentType":5126,"count":2,"type":"VEC4"},{"bufferView":3,"componentType":5126,"count":16,"min":[-4.544340133666992,-0.5782600045204163,-2.59158992767334],"max":[4.544340133666992,0.9467700123786926,3.412450075149536],"type":"VEC3","name":"part000_vertices#0_POSITION"},{"bufferView":3,"byteOffset":12,"componentType":5120,"count":16,"type":"VEC4","name":"part000_vertices#0_TANGENT"},{"bufferView":3,"byteOffset":16,"componentType":5120,"count":16,"type":"VEC4","name":"part000_vertices#0_NORMAL"},{"bufferView":3,"byteOffset":20,"componentType":5122,"count":16,"type":"VEC2","name":"part000_vertices#0_TEXCOORD_0"},{"bufferView":3,"byteOffset":24,"componentType":5122,"count":16,"type":"VEC2","name":"part000_vertices#0_TEXCOORD_1"},{"bufferView":3,"byteOffset":28,"componentType":5123,"count":16,"type":"VEC4","name":"part000_vertices#0_COLOR_0"},{"bufferView":4,"componentType":5123,"count":24,"type":"SCALAR","name":"part000_indices#0"},{"bufferView":3,"byteOffset":576,"componentType":5126,"count":48,"min":[-4.370220184326172,-0.4172700047492981,3.3982200622558595],"max":[4.370220184326172,0.39836999773979189,4.327859878540039],"type":"VEC3","name":"part001_vertices#0_POSITION"},{"bufferView":3,"byteOffset":588,"componentType":5120,"count":48,"type":"VEC4","name":"part001_vertices#0_TANGENT"},{"bufferView":3,"byteOffset":592,"componentType":5120,"count":48,"type":"VEC4","name":"part001_vertices#0_NORMAL"},{"bufferView":3,"byteOffset":596,"componentType":5122,"count":48,"type":"VEC2","name":"part001_vertices#0_TEXCOORD_0"},{"bufferView":3,"byteOffset":600,"componentType":5122,"count":48,"type":"VEC2","name":"part001_vertices#0_TEXCOORD_1"},{"bufferView":3,"byteOffset":604,"componentType":5123,"count":48,"type":"VEC4","name":"part001_vertices#0_COLOR_0"},{"bufferView":4,"byteOffset":48,"componentType":5123,"count":144,"type":"SCALAR","name":"part001_indices#0"},{"bufferView":3,"byteOffset":2304,"componentType":5126,"count":406,"min":[-16.088869094848634,-2.2543399333953859,-14.316149711608887],"max":[16.088869094848634,6.84276008605957,10.525050163269043],"type":"VEC3","name":"part002_vertices#0_POSITION"},{"bufferView":3,"byteOffset":2316,"componentType":5120,"count":406,"type":"VEC4","name":"part002_vertices#0_TANGENT"},{"bufferView":3,"byteOffset":2320,"componentType":5120,"count":406,"type":"VEC4","name":"part002_vertices#0_NORMAL"},{"bufferView":3,"byteOffset":2324,"componentType":5122,"count":406,"type":"VEC2","name":"part002_vertices#0_TEXCOORD_0"},{"bufferView":3,"byteOffset":2328,"componentType":5122,"count":406,"type":"VEC2","name":"part002_vertices#0_TEXCOORD_1"},{"bufferView":3,"byteOffset":2332,"componentType":5123,"count":406,"type":"VEC4","name":"part002_vertices#0_COLOR_0"},{"bufferView":4,"byteOffset":336,"componentType":5123,"count":1146,"type":"SCALAR","name":"part002_indices#0"},{"bufferView":3,"byteOffset":16920,"componentType":5126,"count":96,"min":[-2.015510082244873,-0.12190999835729599,-2.015510082244873],"max":[2.015510082244873,0.12190999835729599,2.015510082244873],"type":"VEC3","name":"part003_vertices#0_POSITION"},{"bufferView":3,"byteOffset":16932,"componentType":5120,"count":96,"type":"VEC4","name":"part003_vertices#0_TANGENT"},{"bufferView":3,"byteOffset":16936,"componentType":5120,"count":96,"type":"VEC4","name":"part003_vertices#0_NORMAL"},{"bufferView":3,"byteOffset":16940,"componentType":5122,"count":96,"type":"VEC2","name":"part003_vertices#0_TEXCOORD_0"},{"bufferView":3,"byteOffset":16944,"componentType":5122,"count":96,"type":"VEC2","name":"part003_vertices#0_TEXCOORD_1"},{"bufferView":3,"byteOffset":16948,"componentType":5123,"count":96,"type":"VEC4","name":"part003_vertices#0_COLOR_0"},{"bufferView":4,"byteOffset":2628,"componentType":5123,"count":96,"type":"SCALAR","name":"part003_indices#0"},{"bufferView":3,"byteOffset":20376,"componentType":5126,"count":96,"min":[-2.015510082244873,-0.12190999835729599,-2.015510082244873],"max":[2.015510082244873,0.12190999835729599,2.015510082244873],"type":"VEC3","name":"part004_vertices#0_POSITION"},{"bufferView":3,"byteOffset":20388,"componentType":5120,"count":96,"type":"VEC4","name":"part004_vertices#0_TANGENT"},{"bufferView":3,"byteOffset":20392,"componentType":5120,"count":96,"type":"VEC4","name":"part004_vertices#0_NORMAL"},{"bufferView":3,"byteOffset":20396,"componentType":5122,"count":96,"type":"VEC2","name":"part004_vertices#0_TEXCOORD_0"},{"bufferView":3,"byteOffset":20400,"componentType":5122,"count":96,"type":"VEC2","name":"part004_vertices#0_TEXCOORD_1"},{"bufferView":3,"byteOffset":20404,"componentType":5123,"count":96,"type":"VEC4","name":"part004_vertices#0_COLOR_0"},{"bufferView":4,"byteOffset":2820,"componentType":5123,"count":96,"type":"SCALAR","name":"part004_indices#0"},{"bufferView":3,"byteOffset":23832,"componentType":5126,"count":96,"min":[-2.015510082244873,-0.12190999835729599,-2.015510082244873],"max":[2.015510082244873,0.12190999835729599,2.015510082244873],"type":"VEC3","name":"part005_vertices#0_POSITION"},{"bufferView":3,"byteOffset":23844,"componentType":5120,"count":96,"type":"VEC4","name":"part005_vertices#0_TANGENT"},{"bufferView":3,"byteOffset":23848,"componentType":5120,"count":96,"type":"VEC4","name":"part005_vertices#0_NORMAL"},{"bufferView":3,"byteOffset":23852,"componentType":5122,"count":96,"type":"VEC2","name":"part005_vertices#0_TEXCOORD_0"},{"bufferView":3,"byteOffset":23856,"componentType":5122,"count":96,"type":"VEC2","name":"part005_vertices#0_TEXCOORD_1"},{"bufferView":3,"byteOffset":23860,"componentType":5123,"count":96,"type":"VEC4","name":"part005_vertices#0_COLOR_0"},{"bufferView":4,"byteOffset":3012,"componentType":5123,"count":96,"type":"SCALAR","name":"part005_indices#0"},{"bufferView":3,"byteOffset":27288,"componentType":5126,"count":96,"min":[-2.015510082244873,-0.12190999835729599,-2.015510082244873],"max":[2.015510082244873,0.12190999835729599,2.015510082244873],"type":"VEC3","name":"part006_vertices#0_POSITION"},{"bufferView":3,"byteOffset":27300,"componentType":5120,"count":96,"type":"VEC4","name":"part006_vertices#0_TANGENT"},{"bufferView":3,"byteOffset":27304,"componentType":5120,"count":96,"type":"VEC4","name":"part006_vertices#0_NORMAL"},{"bufferView":3,"byteOffset":27308,"componentType":5122,"count":96,"type":"VEC2","name":"part006_vertices#0_TEXCOORD_0"},{"bufferView":3,"byteOffset":27312,"componentType":5122,"count":96,"type":"VEC2","name":"part006_vertices#0_TEXCOORD_1"},{"bufferView":3,"byteOffset":27316,"componentType":5123,"count":96,"type":"VEC4","name":"part006_vertices#0_COLOR_0"},{"bufferView":4,"byteOffset":3204,"componentType":5123,"count":96,"type":"SCALAR","name":"part006_indices#0"},{"bufferView":3,"byteOffset":30744,"componentType":5126,"count":72,"min":[-1.9101699590682984,-0.0313900001347065,-1.916659951210022],"max":[1.9060300588607789,0.030479999259114267,1.8960399627685547],"type":"VEC3","name":"part007_vertices#0_POSITION"},{"bufferView":3,"byteOffset":30756,"componentType":5120,"count":72,"type":"VEC4","name":"part007_vertices#0_TANGENT"},{"bufferView":3,"byteOffset":30760,"componentType":5120,"count":72,"type":"VEC4","name":"part007_vertices#0_NORMAL"},{"bufferView":3,"byteOffset":30764,"componentType":5122,"count":72,"type":"VEC2","name":"part007_vertices#0_TEXCOORD_0"},{"bufferView":3,"byteOffset":30768,"componentType":5122,"count":72,"type":"VEC2","name":"part007_vertices#0_TEXCOORD_1"},{"bufferView":3,"byteOffset":30772,"componentType":5123,"count":72,"type":"VEC4","name":"part007_vertices#0_COLOR_0"},{"bufferView":4,"byteOffset":3396,"componentType":5123,"count":192,"type":"SCALAR","name":"part007_indices#0"},{"bufferView":3,"byteOffset":33336,"componentType":5126,"count":72,"min":[-1.9101699590682984,-0.0313900001347065,-1.916659951210022],"max":[1.9060300588607789,0.030479999259114267,1.8960399627685547],"type":"VEC3","name":"part008_vertices#0_POSITION"},{"bufferView":3,"byteOffset":33348,"componentType":5120,"count":72,"type":"VEC4","name":"part008_vertices#0_TANGENT"},{"bufferView":3,"byteOffset":33352,"componentType":5120,"count":72,"type":"VEC4","name":"part008_vertices#0_NORMAL"},{"bufferView":3,"byteOffset":33356,"componentType":5122,"count":72,"type":"VEC2","name":"part008_vertices#0_TEXCOORD_0"},{"bufferView":3,"byteOffset":33360,"componentType":5122,"count":72,"type":"VEC2","name":"part008_vertices#0_TEXCOORD_1"},{"bufferView":3,"byteOffset":33364,"componentType":5123,"count":72,"type":"VEC4","name":"part008_vertices#0_COLOR_0"},{"bufferView":4,"byteOffset":3780,"componentType":5123,"count":192,"type":"SCALAR","name":"part008_indices#0"}],"animations":[{"name":"engine0","channels":[{"sampler":0,"target":{"node":14,"path":"rotation"}},{"sampler":1,"target":{"node":16,"path":"rotation"}},{"sampler":2,"target":{"node":24,"path":"rotation"}}],"samplers":[{"input":0,"output":1,"interpolation":"LINEAR"},{"input":2,"output":3,"interpolation":"LINEAR"},{"input":8,"output":9,"interpolation":"LINEAR"}]},{"name":"engine1","channels":[{"sampler":0,"target":{"node":19,"path":"rotation"}},{"sampler":1,"target":{"node":21,"path":"rotation"}},{"sampler":2,"target":{"node":27,"path":"rotation"}}],"samplers":[{"input":4,"output":5,"interpolation":"LINEAR"},{"input":6,"output":7,"interpolation":"LINEAR"},{"input":10,"output":11,"interpolation":"LINEAR"}]},{"name":"c_gear","channels":[{"sampler":0,"target":{"node":30,"path":"translation"}},{"sampler":1,"target":{"node":32,"path":"rotation"}}],"samplers":[{"input":12,"output":13,"interpolation":"LINEAR"},{"input":14,"output":15,"interpolation":"LINEAR"}]}],"asset":{"generator":"ModelConverterX","version":"2.0","extensions":{"ASOBO_asset_optimized":{"BoundingBoxMax":[16.088869094848634,6.84276008605957,10.525050163269043],"BoundingBoxMin":[-16.088869094848634,-2.2543399333953859,-14.316149711608887],"MajorVersion":4,"MinorVersion":4,"UseCheckerboardMaterialForMissingTextures":true,"UseOnlyFilenameForImageURI":true}}},"bufferViews":[{"buffer":0,"byteLength":136,"byteStride":4},{"buffer":0,"byteLength":24,"byteStride":12,"byteOffset":136},{"buffer":0,"byteLength":512,"byteStride":16,"byteOffset":160},{"buffer":0,"byteLength":35928,"byteStride":36,"byteOffset":672,"target":34962,"name":"BufferViewVertexND"},{"buffer":0,"byteLength":4164,"byteOffset":36600,"target":34963,"name":"BufferViewIndex"}],"extensionsRequired":["MSFT_texture_dds"],"materials":[{"name":"material00","pbrMetallicRoughness":{"baseColorFactor":[0.07843100279569626,0.07843100279569626,0.07843100279569626,1.0],"metallicFactor":0.0}},{"name":"material01","pbrMetallicRoughness":{"baseColorFactor":[0.7960780262947084,0.7960780262947084,0.7960780262947084,1.0],"roughnessFactor":0.0}},{"name":"material02","emissiveTexture":{"index":1},"emissiveFactor":[0.019607843831181527,0.019607843831181527,0.019607843831181527],"pbrMetallicRoughness":{"metallicFactor":0.0,"baseColorTexture":{"index":0}},"extensions":{"ASOBO_material_day_night_switch":{}}},{"name":"material03","alphaMode":"BLEND","pbrMetallicRoughness":{"baseColorFactor":[0.0,0.0,0.0,0.980392156862745],"metallicFactor":0.0,"baseColorTexture":{"index":2}}}],"meshes":[{"primitives":[{"attributes":{"COLOR_0":21,"NORMAL":18,"POSITION":16,"TANGENT":17,"TEXCOORD_0":19,"TEXCOORD_1":20},"indices":22,"material":0,"mode":4,"extras":{"ASOBO_primitive":{"PrimitiveCount":8,"VertexType":"VTX","VertexVersion":2}}}],"name":"part000"},{"primitives":[{"attributes":{"COLOR_0":28,"NORMAL":25,"POSITION":23,"TANGENT":24,"TEXCOORD_0":26,"TEXCOORD_1":27},"indices":29,"material":1,"mode":4,"extras":{"ASOBO_primitive":{"PrimitiveCount":48,"VertexType":"VTX","VertexVersion":2}}}],"name":"part001"},{"primitives":[{"attributes":{"COLOR_0":35,"NORMAL":32,"POSITION":30,"TANGENT":31,"TEXCOORD_0":33,"TEXCOORD_1":34},"indices":36,"material":2,"mode":4,"extras":{"ASOBO_primitive":{"PrimitiveCount":382,"VertexType":"VTX","VertexVersion":2}}}],"name":"part002"},{"primitives":[{"attributes":{"COLOR_0":42,"NORMAL":39,"POSITION":37,"TANGENT":38,"TEXCOORD_0":40,"TEXCOORD_1":41},"indices":43,"material":3,"mode":4,"extras":{"ASOBO_primitive":{"PrimitiveCount":32,"VertexType":"VTX","VertexVersion":2}}}],"name":"part003"},{"primitives":[{"attributes":{"COLOR_0":49,"NORMAL":46,"POSITION":44,"TANGENT":45,"TEXCOORD_0":47,"TEXCOORD_1":48},"indices":50,"material":3,"mode":4,"extras":{"ASOBO_primitive":{"PrimitiveCount":32,"VertexType":"VTX","VertexVersion":2}}}],"name":"part004"},{"primitives":[{"attributes":{"COLOR_0":56,"NORMAL":53,"POSITION":51,"TANGENT":52,"TEXCOORD_0":54,"TEXCOORD_1":55},"indices":57,"material":3,"mode":4,"extras":{"ASOBO_primitive":{"PrimitiveCount":32,"VertexType":"VTX","VertexVersion":2}}}],"name":"part005"},{"primitives":[{"attributes":{"COLOR_0":63,"NORMAL":60,"POSITION":58,"TANGENT":59,"TEXCOORD_0":61,"TEXCOORD_1":62},"indices":64,"material":3,"mode":4,"extras":{"ASOBO_primitive":{"PrimitiveCount":32,"VertexType":"VTX","VertexVersion":2}}}],"name":"part006"},{"primitives":[{"attributes":{"COLOR_0":70,"NORMAL":67,"POSITION":65,"TANGENT":66,"TEXCOORD_0":68,"TEXCOORD_1":69},"indices":71,"material":2,"mode":4,"extras":{"ASOBO_primitive":{"PrimitiveCount":64,"VertexType":"VTX","VertexVersion":2}}}],"name":"part007"},{"primitives":[{"attributes":{"COLOR_0":77,"NORMAL":74,"POSITION":72,"TANGENT":73,"TEXCOORD_0":75,"TEXCOORD_1":76},"indices":78,"material":2,"mode":4,"extras":{"ASOBO_primitive":{"PrimitiveCount":64,"VertexType":"VTX","VertexVersion":2}}}],"name":"part008"}],"nodes":[{"name":"node_0","children":[1,2,3,4,5,6,7,8,9,10,11]},{"mesh":0,"name":"node_6"},{"mesh":1,"name":"node_7"},{"mesh":2,"name":"node_8"},{"translation":[-8.81716551394599e-16,-2.0999999046325685,7.199999809265137],"rotation":[-6.123031769111886e-17,0.0,1.0,0.0],"scale":[1.0,1.0,1.0],"name":"c_tire1"},{"translation":[-3.950000047683716,-2.0999999046325685,-0.8000000119209294],"rotation":[-6.123031769111886e-17,0.0,1.0,0.0],"scale":[1.0,1.0,1.0],"name":"r_tire1"},{"translation":[3.950000047683716,-2.0999999046325685,-0.8000000119209285],"rotation":[-6.123031769111886e-17,0.0,1.0,0.0],"scale":[1.0,1.0,1.0],"name":"l_tire1"},{"translation":[-4.0,0.0,-3.0000000000000006],"rotation":[-6.123031769111886e-17,0.0,1.0,0.0],"scale":[1.0,1.0,1.0],"name":"contrail2"},{"translation":[-7.0,0.2800000011920929,0.8700000047683707],"rotation":[-0.7071067811865475,-4.329637285359677e-17,-4.329637285359677e-17,0.7071067811865475],"scale":[1.0,1.0,1.0],"name":"Right_Landing_Light"},{"translation":[7.0,0.2800000011920929,0.8700000047683725],"rotation":[-0.7071067811865475,-4.329637285359677e-17,-4.329637285359677e-17,0.7071067811865475],"scale":[1.0,1.0,1.0],"name":"Left_Landing_Light"},{"translation":[4.0,0.0,-2.9999999999999997],"rotation":[-6.123031769111886e-17,0.0,1.0,0.0],"scale":[1.0,1.0,1.0],"name":"contrail1"},{"translation":[0.0,0.0,0.0],"rotation":[-4.329637285359677e-17,0.7071067811865475,0.7071067811865475,4.329637285359677e-17],"scale":[1.0,1.0,1.0],"name":"node_29","children":[12,17,22,25,28]},{"translation":[-3.9316680431365969,3.62749695777893,0.0],"rotation":[0.0,0.0,0.0,1.0],"scale":[1.0,1.0,1.0],"name":"node_36","children":[13,15]},{"name":"prop0_blurred_VC","children":[14]},{"mesh":3,"name":"engine0_AN_VC"},{"name":"prop0_slow_VC","children":[16]},{"mesh":4,"name":"ENGINE0_AN_VC_1"},{"translation":[3.9316680431365969,3.62749695777893,0.0],"rotation":[0.0,0.0,0.0,1.0],"scale":[1.0,1.0,1.0],"name":"node_45","children":[18,20]},{"name":"prop1_blurred_VC","children":[19]},{"mesh":5,"name":"engine1_AN_VC"},{"name":"prop1_slow_VC","children":[21]},{"mesh":6,"name":"ENGINE1_AN_VC_1"},{"translation":[-3.962399959564209,3.627729892730713,0.0],"rotation":[0.0,0.0,0.0,1.0],"scale":[1.0,1.0,1.0],"name":"node_54","children":[23]},{"name":"prop0_still_VC","children":[24]},{"mesh":7,"name":"ENGINE0_AN_VC_2"},{"translation":[3.962399959564209,3.627729892730713,0.0],"rotation":[0.0,0.0,0.0,1.0],"scale":[1.0,1.0,1.0],"name":"node_58","children":[26]},{"name":"prop1_still_VC","children":[27]},{"mesh":8,"name":"ENGINE1_AN_VC_2"},{"translation":[0.0,7.510880947113037,-0.4526279866695404],"rotation":[0.0,0.0,0.0,1.0],"scale":[1.0,1.0,1.0],"name":"node_62","children":[29]},{"translation":[0.0,-0.33528000116348269,0.14782799780368806],"rotation":[0.0,0.0,0.0,1.0],"scale":[1.0,1.0,1.0],"name":"node_66","children":[30]},{"name":"c_gear_AN_66","children":[31]},{"name":"node_67","children":[32]},{"name":"c_gear_AN_67","children":[33,34]},{"translation":[0.0,0.13966499269008637,-0.8452000021934509],"rotation":[0.0,0.0,1.0,0.0],"scale":[1.0,1.0,1.0],"name":"Nose_landing_light"},{"translation":[0.0,0.13966499269008637,-0.8452000021934509],"rotation":[0.0,0.0,1.0,-6.123031769111886e-17],"scale":[1.0,1.0,1.0],"name":"Nose_taxi"}],"scene":0,"scenes":[{"nodes":[0]}],"textures":[{"extensions":{"MSFT_texture_dds":{"source":0}}},{"extensions":{"MSFT_texture_dds":{"source":1}}},{"extensions":{"MSFT_texture_dds":{"source":2}}}],"extensionsUsed":["ASOBO_material_day_night_switch","MSFT_texture_dds","ASOBO_asset_optimized"],"buffers":[{"byteLength":40764,"uri":"DWAI_CV580_MSFS_LOD3.bin"}],"images":[{"uri":"CV580.PNG.DDS","extras":"ASOBO_image_converted_meta"},{"uri":"CABIN_LIGHTS.PNG.DDS","extras":"ASOBO_image_converted_meta"},{"uri":"PROP-HS.PNG.DDS","extras":"ASOBO_image_converted_meta"}]}
