{"accessors":[{"bufferView":0,"componentType":5126,"count":5,"min":[0.0],"max":[100.0],"type":"SCALAR"},{"bufferView":1,"componentType":5126,"count":5,"type":"VEC4"},{"bufferView":0,"byteOffset":20,"componentType":5126,"count":5,"min":[0.0],"max":[100.0],"type":"SCALAR"},{"bufferView":1,"byteOffset":80,"componentType":5126,"count":5,"type":"VEC4"},{"bufferView":0,"byteOffset":40,"componentType":5126,"count":5,"min":[0.0],"max":[100.0],"type":"SCALAR"},{"bufferView":1,"byteOffset":160,"componentType":5126,"count":5,"type":"VEC4"},{"bufferView":0,"byteOffset":60,"componentType":5126,"count":5,"min":[0.0],"max":[100.0],"type":"SCALAR"},{"bufferView":1,"byteOffset":240,"componentType":5126,"count":5,"type":"VEC4"},{"bufferView":0,"byteOffset":80,"componentType":5126,"count":5,"min":[0.0],"max":[100.0],"type":"SCALAR"},{"bufferView":1,"byteOffset":320,"componentType":5126,"count":5,"type":"VEC4"},{"bufferView":0,"byteOffset":100,"componentType":5126,"count":5,"min":[0.0],"max":[100.0],"type":"SCALAR"},{"bufferView":1,"byteOffset":400,"componentType":5126,"count":5,"type":"VEC4"},{"bufferView":0,"byteOffset":120,"componentType":5126,"count":5,"min":[0.0],"max":[100.0],"type":"SCALAR"},{"bufferView":1,"byteOffset":480,"componentType":5126,"count":5,"type":"VEC4"},{"bufferView":0,"byteOffset":140,"componentType":5126,"count":5,"min":[0.0],"max":[200.0],"type":"SCALAR"},{"bufferView":1,"byteOffset":560,"componentType":5126,"count":5,"type":"VEC4"},{"bufferView":0,"byteOffset":160,"componentType":5126,"count":5,"min":[0.0],"max":[100.0],"type":"SCALAR"},{"bufferView":1,"byteOffset":640,"componentType":5126,"count":5,"type":"VEC4"},{"bufferView":0,"byteOffset":180,"componentType":5126,"count":5,"min":[0.0],"max":[100.0],"type":"SCALAR"},{"bufferView":1,"byteOffset":720,"componentType":5126,"count":5,"type":"VEC4"},{"bufferView":2,"componentType":5126,"count":3,"min":[-0.1029599979519844,-0.7710199952125549,3.3538599014282228],"max":[0.1029599979519844,-0.7710199952125549,3.5305700302124025],"type":"VEC3","name":"part000_vertices#0_POSITION"},{"bufferView":2,"byteOffset":12,"componentType":5120,"count":3,"type":"VEC4","name":"part000_vertices#0_TANGENT"},{"bufferView":2,"byteOffset":16,"componentType":5120,"count":3,"type":"VEC4","name":"part000_vertices#0_NORMAL"},{"bufferView":2,"byteOffset":20,"componentType":5122,"count":3,"type":"VEC2","name":"part000_vertices#0_TEXCOORD_0"},{"bufferView":2,"byteOffset":24,"componentType":5122,"count":3,"type":"VEC2","name":"part000_vertices#0_TEXCOORD_1"},{"bufferView":2,"byteOffset":28,"componentType":5123,"count":3,"type":"VEC4","name":"part000_vertices#0_COLOR_0"},{"bufferView":3,"componentType":5123,"count":3,"type":"SCALAR","name":"part000_indices#0"},{"bufferView":2,"byteOffset":108,"componentType":5126,"count":6,"min":[-0.03627000004053116,-1.0055899620056153,3.314189910888672],"max":[0.03840000182390213,0.13120000064373017,3.4347400665283205],"type":"VEC3","name":"part001_vertices#0_POSITION"},{"bufferView":2,"byteOffset":120,"componentType":5120,"count":6,"type":"VEC4","name":"part001_vertices#0_TANGENT"},{"bufferView":2,"byteOffset":124,"componentType":5120,"count":6,"type":"VEC4","name":"part001_vertices#0_NORMAL"},{"bufferView":2,"byteOffset":128,"componentType":5122,"count":6,"type":"VEC2","name":"part001_vertices#0_TEXCOORD_0"},{"bufferView":2,"byteOffset":132,"componentType":5122,"count":6,"type":"VEC2","name":"part001_vertices#0_TEXCOORD_1"},{"bufferView":2,"byteOffset":136,"componentType":5123,"count":6,"type":"VEC4","name":"part001_vertices#0_COLOR_0"},{"bufferView":3,"byteOffset":6,"componentType":5123,"count":6,"type":"SCALAR","name":"part001_indices#0"},{"bufferView":2,"byteOffset":324,"componentType":5126,"count":26,"min":[-0.10241000354290009,-1.3481899499893189,3.3515501022338869],"max":[0.10241000354290009,-0.9419900178909302,3.4855198860168459],"type":"VEC3","name":"part002_vertices#0_POSITION"},{"bufferView":2,"byteOffset":336,"componentType":5120,"count":26,"type":"VEC4","name":"part002_vertices#0_TANGENT"},{"bufferView":2,"byteOffset":340,"componentType":5120,"count":26,"type":"VEC4","name":"part002_vertices#0_NORMAL"},{"bufferView":2,"byteOffset":344,"componentType":5122,"count":26,"type":"VEC2","name":"part002_vertices#0_TEXCOORD_0"},{"bufferView":2,"byteOffset":348,"componentType":5122,"count":26,"type":"VEC2","name":"part002_vertices#0_TEXCOORD_1"},{"bufferView":2,"byteOffset":352,"componentType":5123,"count":26,"type":"VEC4","name":"part002_vertices#0_COLOR_0"},{"bufferView":3,"byteOffset":18,"componentType":5123,"count":60,"type":"SCALAR","name":"part002_indices#0"},{"bufferView":2,"byteOffset":1260,"componentType":5126,"count":457,"min":[-7.872179985046387,-1.3114700317382813,-6.879199981689453],"max":[7.872179985046387,3.0346999168395998,4.620339870452881],"type":"VEC3","name":"part003_vertices#0_POSITION"},{"bufferView":2,"byteOffset":1272,"componentType":5120,"count":457,"type":"VEC4","name":"part003_vertices#0_TANGENT"},{"bufferView":2,"byteOffset":1276,"componentType":5120,"count":457,"type":"VEC4","name":"part003_vertices#0_NORMAL"},{"bufferView":2,"byteOffset":1280,"componentType":5122,"count":457,"type":"VEC2","name":"part003_vertices#0_TEXCOORD_0"},{"bufferView":2,"byteOffset":1284,"componentType":5122,"count":457,"type":"VEC2","name":"part003_vertices#0_TEXCOORD_1"},{"bufferView":2,"byteOffset":1288,"componentType":5123,"count":457,"type":"VEC4","name":"part003_vertices#0_COLOR_0"},{"bufferView":3,"byteOffset":138,"componentType":5123,"count":1527,"type":"SCALAR","name":"part003_indices#0"},{"bufferView":2,"byteOffset":17712,"componentType":5126,"count":20,"min":[-0.08242999762296677,-0.2898600101470947,-0.3047800064086914],"max":[0.08242999762296677,0.2898600101470947,0.3047800064086914],"type":"VEC3","name":"part004_vertices#0_POSITION"},{"bufferView":2,"byteOffset":17724,"componentType":5120,"count":20,"type":"VEC4","name":"part004_vertices#0_TANGENT"},{"bufferView":2,"byteOffset":17728,"componentType":5120,"count":20,"type":"VEC4","name":"part004_vertices#0_NORMAL"},{"bufferView":2,"byteOffset":17732,"componentType":5122,"count":20,"type":"VEC2","name":"part004_vertices#0_TEXCOORD_0"},{"bufferView":2,"byteOffset":17736,"componentType":5122,"count":20,"type":"VEC2","name":"part004_vertices#0_TEXCOORD_1"},{"bufferView":2,"byteOffset":17740,"componentType":5123,"count":20,"type":"VEC4","name":"part004_vertices#0_COLOR_0"},{"bufferView":3,"byteOffset":3192,"componentType":5123,"count":48,"type":"SCALAR","name":"part004_indices#0"},{"bufferView":2,"byteOffset":18432,"componentType":5126,"count":20,"min":[-0.08242999762296677,-0.2898600101470947,-0.3047800064086914],"max":[0.08242999762296677,0.2898600101470947,0.3047800064086914],"type":"VEC3","name":"part005_vertices#0_POSITION"},{"bufferView":2,"byteOffset":18444,"componentType":5120,"count":20,"type":"VEC4","name":"part005_vertices#0_TANGENT"},{"bufferView":2,"byteOffset":18448,"componentType":5120,"count":20,"type":"VEC4","name":"part005_vertices#0_NORMAL"},{"bufferView":2,"byteOffset":18452,"componentType":5122,"count":20,"type":"VEC2","name":"part005_vertices#0_TEXCOORD_0"},{"bufferView":2,"byteOffset":18456,"componentType":5122,"count":20,"type":"VEC2","name":"part005_vertices#0_TEXCOORD_1"},{"bufferView":2,"byteOffset":18460,"componentType":5123,"count":20,"type":"VEC4","name":"part005_vertices#0_COLOR_0"},{"bufferView":3,"byteOffset":3288,"componentType":5123,"count":60,"type":"SCALAR","name":"part005_indices#0"},{"bufferView":2,"byteOffset":19152,"componentType":5126,"count":20,"min":[-0.08242999762296677,-0.2898600101470947,-0.3047800064086914],"max":[0.08242999762296677,0.2898600101470947,0.3047800064086914],"type":"VEC3","name":"part006_vertices#0_POSITION"},{"bufferView":2,"byteOffset":19164,"componentType":5120,"count":20,"type":"VEC4","name":"part006_vertices#0_TANGENT"},{"bufferView":2,"byteOffset":19168,"componentType":5120,"count":20,"type":"VEC4","name":"part006_vertices#0_NORMAL"},{"bufferView":2,"byteOffset":19172,"componentType":5122,"count":20,"type":"VEC2","name":"part006_vertices#0_TEXCOORD_0"},{"bufferView":2,"byteOffset":19176,"componentType":5122,"count":20,"type":"VEC2","name":"part006_vertices#0_TEXCOORD_1"},{"bufferView":2,"byteOffset":19180,"componentType":5123,"count":20,"type":"VEC4","name":"part006_vertices#0_COLOR_0"},{"bufferView":3,"byteOffset":3408,"componentType":5123,"count":48,"type":"SCALAR","name":"part006_indices#0"},{"bufferView":2,"byteOffset":19872,"componentType":5126,"count":20,"min":[-0.08242999762296677,-0.2898600101470947,-0.3047800064086914],"max":[0.08242999762296677,0.2898600101470947,0.3047800064086914],"type":"VEC3","name":"part007_vertices#0_POSITION"},{"bufferView":2,"byteOffset":19884,"componentType":5120,"count":20,"type":"VEC4","name":"part007_vertices#0_TANGENT"},{"bufferView":2,"byteOffset":19888,"componentType":5120,"count":20,"type":"VEC4","name":"part007_vertices#0_NORMAL"},{"bufferView":2,"byteOffset":19892,"componentType":5122,"count":20,"type":"VEC2","name":"part007_vertices#0_TEXCOORD_0"},{"bufferView":2,"byteOffset":19896,"componentType":5122,"count":20,"type":"VEC2","name":"part007_vertices#0_TEXCOORD_1"},{"bufferView":2,"byteOffset":19900,"componentType":5123,"count":20,"type":"VEC4","name":"part007_vertices#0_COLOR_0"},{"bufferView":3,"byteOffset":3504,"componentType":5123,"count":60,"type":"SCALAR","name":"part007_indices#0"},{"bufferView":2,"byteOffset":20592,"componentType":5126,"count":48,"min":[-1.0950599908828736,-0.08438999950885773,-1.2644699811935425],"max":[1.0950599908828736,0.09040000289678574,0.6322399973869324],"type":"VEC3","name":"part008_vertices#0_POSITION"},{"bufferView":2,"byteOffset":20604,"componentType":5120,"count":48,"type":"VEC4","name":"part008_vertices#0_TANGENT"},{"bufferView":2,"byteOffset":20608,"componentType":5120,"count":48,"type":"VEC4","name":"part008_vertices#0_NORMAL"},{"bufferView":2,"byteOffset":20612,"componentType":5122,"count":48,"type":"VEC2","name":"part008_vertices#0_TEXCOORD_0"},{"bufferView":2,"byteOffset":20616,"componentType":5122,"count":48,"type":"VEC2","name":"part008_vertices#0_TEXCOORD_1"},{"bufferView":2,"byteOffset":20620,"componentType":5123,"count":48,"type":"VEC4","name":"part008_vertices#0_COLOR_0"},{"bufferView":3,"byteOffset":3624,"componentType":5123,"count":108,"type":"SCALAR","name":"part008_indices#0"},{"bufferView":2,"byteOffset":22320,"componentType":5126,"count":34,"min":[-1.2671799659729005,0.0,-1.2671799659729005],"max":[1.2671799659729005,0.0,1.2671799659729005],"type":"VEC3","name":"part009_vertices#0_POSITION"},{"bufferView":2,"byteOffset":22332,"componentType":5120,"count":34,"type":"VEC4","name":"part009_vertices#0_TANGENT"},{"bufferView":2,"byteOffset":22336,"componentType":5120,"count":34,"type":"VEC4","name":"part009_vertices#0_NORMAL"},{"bufferView":2,"byteOffset":22340,"componentType":5122,"count":34,"type":"VEC2","name":"part009_vertices#0_TEXCOORD_0"},{"bufferView":2,"byteOffset":22344,"componentType":5122,"count":34,"type":"VEC2","name":"part009_vertices#0_TEXCOORD_1"},{"bufferView":2,"byteOffset":22348,"componentType":5123,"count":34,"type":"VEC4","name":"part009_vertices#0_COLOR_0"},{"bufferView":3,"byteOffset":3840,"componentType":5123,"count":96,"type":"SCALAR","name":"part009_indices#0"},{"bufferView":2,"byteOffset":23544,"componentType":5126,"count":34,"min":[-1.2671799659729005,0.0,-1.2671799659729005],"max":[1.2671799659729005,0.0,1.2671799659729005],"type":"VEC3","name":"part010_vertices#0_POSITION"},{"bufferView":2,"byteOffset":23556,"componentType":5120,"count":34,"type":"VEC4","name":"part010_vertices#0_TANGENT"},{"bufferView":2,"byteOffset":23560,"componentType":5120,"count":34,"type":"VEC4","name":"part010_vertices#0_NORMAL"},{"bufferView":2,"byteOffset":23564,"componentType":5122,"count":34,"type":"VEC2","name":"part010_vertices#0_TEXCOORD_0"},{"bufferView":2,"byteOffset":23568,"componentType":5122,"count":34,"type":"VEC2","name":"part010_vertices#0_TEXCOORD_1"},{"bufferView":2,"byteOffset":23572,"componentType":5123,"count":34,"type":"VEC4","name":"part010_vertices#0_COLOR_0"},{"bufferView":3,"byteOffset":4032,"componentType":5123,"count":96,"type":"SCALAR","name":"part010_indices#0"},{"bufferView":2,"byteOffset":24768,"componentType":5126,"count":20,"min":[-0.06609000265598297,-0.24187999963760377,-0.25433000922203066],"max":[0.06609000265598297,0.24187999963760377,0.25433000922203066],"type":"VEC3","name":"part011_vertices#0_POSITION"},{"bufferView":2,"byteOffset":24780,"componentType":5120,"count":20,"type":"VEC4","name":"part011_vertices#0_TANGENT"},{"bufferView":2,"byteOffset":24784,"componentType":5120,"count":20,"type":"VEC4","name":"part011_vertices#0_NORMAL"},{"bufferView":2,"byteOffset":24788,"componentType":5122,"count":20,"type":"VEC2","name":"part011_vertices#0_TEXCOORD_0"},{"bufferView":2,"byteOffset":24792,"componentType":5122,"count":20,"type":"VEC2","name":"part011_vertices#0_TEXCOORD_1"},{"bufferView":2,"byteOffset":24796,"componentType":5123,"count":20,"type":"VEC4","name":"part011_vertices#0_COLOR_0"},{"bufferView":3,"byteOffset":4224,"componentType":5123,"count":48,"type":"SCALAR","name":"part011_indices#0"},{"bufferView":2,"byteOffset":25488,"componentType":5126,"count":20,"min":[-0.06609000265598297,-0.24187999963760377,-0.25433000922203066],"max":[0.06609000265598297,0.24187999963760377,0.25433000922203066],"type":"VEC3","name":"part012_vertices#0_POSITION"},{"bufferView":2,"byteOffset":25500,"componentType":5120,"count":20,"type":"VEC4","name":"part012_vertices#0_TANGENT"},{"bufferView":2,"byteOffset":25504,"componentType":5120,"count":20,"type":"VEC4","name":"part012_vertices#0_NORMAL"},{"bufferView":2,"byteOffset":25508,"componentType":5122,"count":20,"type":"VEC2","name":"part012_vertices#0_TEXCOORD_0"},{"bufferView":2,"byteOffset":25512,"componentType":5122,"count":20,"type":"VEC2","name":"part012_vertices#0_TEXCOORD_1"},{"bufferView":2,"byteOffset":25516,"componentType":5123,"count":20,"type":"VEC4","name":"part012_vertices#0_COLOR_0"},{"bufferView":3,"byteOffset":4320,"componentType":5123,"count":60,"type":"SCALAR","name":"part012_indices#0"}],"animations":[{"name":"r_tire_blurred_key","channels":[{"sampler":0,"target":{"node":16,"path":"rotation"}},{"sampler":1,"target":{"node":18,"path":"rotation"}}],"samplers":[{"input":0,"output":1,"interpolation":"LINEAR"},{"input":2,"output":3,"interpolation":"LINEAR"}]},{"name":"l_tire_blurred_key","channels":[{"sampler":0,"target":{"node":21,"path":"rotation"}},{"sampler":1,"target":{"node":23,"path":"rotation"}}],"samplers":[{"input":4,"output":5,"interpolation":"LINEAR"},{"input":6,"output":7,"interpolation":"LINEAR"}]},{"name":"engine0","channels":[{"sampler":0,"target":{"node":26,"path":"rotation"}},{"sampler":1,"target":{"node":29,"path":"rotation"}},{"sampler":2,"target":{"node":31,"path":"rotation"}}],"samplers":[{"input":8,"output":9,"interpolation":"LINEAR"},{"input":10,"output":11,"interpolation":"LINEAR"},{"input":12,"output":13,"interpolation":"LINEAR"}]},{"name":"custom_anim_C_WHEEL_LR","channels":[{"sampler":0,"target":{"node":33,"path":"rotation"}}],"samplers":[{"input":14,"output":15,"interpolation":"LINEAR"}]},{"name":"c_tire_blurred_key","channels":[{"sampler":0,"target":{"node":35,"path":"rotation"}},{"sampler":1,"target":{"node":37,"path":"rotation"}}],"samplers":[{"input":16,"output":17,"interpolation":"LINEAR"},{"input":18,"output":19,"interpolation":"LINEAR"}]}],"asset":{"generator":"ModelConverterX","version":"2.0","extensions":{"ASOBO_asset_optimized":{"BoundingBoxMax":[7.872179985046387,3.0346999168395998,4.620339870452881],"BoundingBoxMin":[-7.872179985046387,-1.3481899499893189,-6.879199981689453],"MajorVersion":4,"MinorVersion":4,"UseCheckerboardMaterialForMissingTextures":true,"UseOnlyFilenameForImageURI":true}}},"bufferViews":[{"buffer":0,"byteLength":200,"byteStride":4},{"buffer":0,"byteLength":800,"byteStride":16,"byteOffset":200},{"buffer":0,"byteLength":26208,"byteStride":36,"byteOffset":1000,"target":34962,"name":"BufferViewVertexND"},{"buffer":0,"byteLength":4440,"byteOffset":27208,"target":34963,"name":"BufferViewIndex"}],"extensionsRequired":["MSFT_texture_dds"],"materials":[{"name":"material00","pbrMetallicRoughness":{"baseColorFactor":[0.03921600058674812,0.03921600058674812,0.03921600058674812,1.0],"metallicFactor":0.0}},{"name":"material01","pbrMetallicRoughness":{"baseColorFactor":[0.2901960015296936,0.2901960015296936,0.2901960015296936,1.0],"metallicFactor":0.5,"roughnessFactor":0.5}},{"name":"material02","pbrMetallicRoughness":{"baseColorFactor":[0.764706015586853,0.764706015586853,0.764706015586853,1.0],"metallicFactor":0.0}},{"name":"material03","occlusionTexture":{"index":1},"pbrMetallicRoughness":{"baseColorTexture":{"index":0},"metallicRoughnessTexture":{"index":1}}},{"name":"material04","alphaMode":"BLEND","pbrMetallicRoughness":{"baseColorFactor":[0.0,0.0,0.0,1.0],"metallicFactor":0.0,"baseColorTexture":{"index":2}}}],"meshes":[{"primitives":[{"attributes":{"COLOR_0":25,"NORMAL":22,"POSITION":20,"TANGENT":21,"TEXCOORD_0":23,"TEXCOORD_1":24},"indices":26,"material":0,"mode":4,"extras":{"ASOBO_primitive":{"PrimitiveCount":1,"VertexType":"VTX","VertexVersion":2}}}],"name":"part000"},{"primitives":[{"attributes":{"COLOR_0":32,"NORMAL":29,"POSITION":27,"TANGENT":28,"TEXCOORD_0":30,"TEXCOORD_1":31},"indices":33,"material":1,"mode":4,"extras":{"ASOBO_primitive":{"PrimitiveCount":2,"VertexType":"VTX","VertexVersion":2}}}],"name":"part001"},{"primitives":[{"attributes":{"COLOR_0":39,"NORMAL":36,"POSITION":34,"TANGENT":35,"TEXCOORD_0":37,"TEXCOORD_1":38},"indices":40,"material":2,"mode":4,"extras":{"ASOBO_primitive":{"PrimitiveCount":20,"VertexType":"VTX","VertexVersion":2}}}],"name":"part002"},{"primitives":[{"attributes":{"COLOR_0":46,"NORMAL":43,"POSITION":41,"TANGENT":42,"TEXCOORD_0":44,"TEXCOORD_1":45},"indices":47,"material":3,"mode":4,"extras":{"ASOBO_primitive":{"PrimitiveCount":509,"VertexType":"VTX","VertexVersion":2}}}],"name":"part003"},{"primitives":[{"attributes":{"COLOR_0":53,"NORMAL":50,"POSITION":48,"TANGENT":49,"TEXCOORD_0":51,"TEXCOORD_1":52},"indices":54,"material":3,"mode":4,"extras":{"ASOBO_primitive":{"PrimitiveCount":16,"VertexType":"VTX","VertexVersion":2}}}],"name":"part004"},{"primitives":[{"attributes":{"COLOR_0":60,"NORMAL":57,"POSITION":55,"TANGENT":56,"TEXCOORD_0":58,"TEXCOORD_1":59},"indices":61,"material":0,"mode":4,"extras":{"ASOBO_primitive":{"PrimitiveCount":20,"VertexType":"VTX","VertexVersion":2}}}],"name":"part005"},{"primitives":[{"attributes":{"COLOR_0":67,"NORMAL":64,"POSITION":62,"TANGENT":63,"TEXCOORD_0":65,"TEXCOORD_1":66},"indices":68,"material":3,"mode":4,"extras":{"ASOBO_primitive":{"PrimitiveCount":16,"VertexType":"VTX","VertexVersion":2}}}],"name":"part006"},{"primitives":[{"attributes":{"COLOR_0":74,"NORMAL":71,"POSITION":69,"TANGENT":70,"TEXCOORD_0":72,"TEXCOORD_1":73},"indices":75,"material":0,"mode":4,"extras":{"ASOBO_primitive":{"PrimitiveCount":20,"VertexType":"VTX","VertexVersion":2}}}],"name":"part007"},{"primitives":[{"attributes":{"COLOR_0":81,"NORMAL":78,"POSITION":76,"TANGENT":77,"TEXCOORD_0":79,"TEXCOORD_1":80},"indices":82,"material":3,"mode":4,"extras":{"ASOBO_primitive":{"PrimitiveCount":36,"VertexType":"VTX","VertexVersion":2}}}],"name":"part008"},{"primitives":[{"attributes":{"COLOR_0":88,"NORMAL":85,"POSITION":83,"TANGENT":84,"TEXCOORD_0":86,"TEXCOORD_1":87},"indices":89,"material":4,"mode":4,"extras":{"ASOBO_primitive":{"PrimitiveCount":32,"VertexType":"VTX","VertexVersion":2}}}],"name":"part009"},{"primitives":[{"attributes":{"COLOR_0":95,"NORMAL":92,"POSITION":90,"TANGENT":91,"TEXCOORD_0":93,"TEXCOORD_1":94},"indices":96,"material":4,"mode":4,"extras":{"ASOBO_primitive":{"PrimitiveCount":32,"VertexType":"VTX","VertexVersion":2}}}],"name":"part010"},{"primitives":[{"attributes":{"COLOR_0":102,"NORMAL":99,"POSITION":97,"TANGENT":98,"TEXCOORD_0":100,"TEXCOORD_1":101},"indices":103,"material":3,"mode":4,"extras":{"ASOBO_primitive":{"PrimitiveCount":16,"VertexType":"VTX","VertexVersion":2}}}],"name":"part011"},{"primitives":[{"attributes":{"COLOR_0":109,"NORMAL":106,"POSITION":104,"TANGENT":105,"TEXCOORD_0":107,"TEXCOORD_1":108},"indices":110,"material":0,"mode":4,"extras":{"ASOBO_primitive":{"PrimitiveCount":20,"VertexType":"VTX","VertexVersion":2}}}],"name":"part012"}],"nodes":[{"name":"node_0","children":[1,2,3,4,5,6,7,8,9,10,11,12,13]},{"mesh":0,"name":"node_7"},{"mesh":1,"name":"node_8"},{"mesh":2,"name":"node_9"},{"mesh":3,"name":"node_10"},{"translation":[9.796850830579017e-16,0.0,-8.0],"rotation":[-6.123031769111886e-17,3.061515884555943e-17,1.0,1.874575902277672e-33],"scale":[1.0,1.0,1.0],"name":"contrail1"},{"translation":[-4.800000190734863,1.0,0.8000000119209284],"rotation":[-0.6626200482157375,0.0,0.0,0.7489557207890022],"scale":[1.0,1.0,1.0],"name":"taxi_r"},{"translation":[-5.0,1.0,0.8000000119209283],"rotation":[-0.7071067811865475,0.0,0.0,0.7071067811865475],"scale":[1.0,1.0,1.0],"name":"landing_r"},{"translation":[4.800000190734863,1.0,0.8000000119209294],"rotation":[-0.6626200482157375,0.0,0.0,0.7489557207890022],"scale":[1.0,1.0,1.0],"name":"taxi_l"},{"translation":[5.0,1.0,0.8000000119209296],"rotation":[-0.7071067811865475,0.0,0.0,0.7071067811865475],"scale":[1.0,1.0,1.0],"name":"landing_l"},{"translation":[-4.1636617197836456e-16,-1.5,3.4000000953674318],"rotation":[-6.123031769111886e-17,3.061515884555943e-17,1.0,1.874575902277672e-33],"scale":[1.0,1.0,1.0],"name":"c_tire1"},{"translation":[1.7999999523162842,-1.5,-0.30000001192092876],"rotation":[-6.123031769111886e-17,3.061515884555943e-17,1.0,1.874575902277672e-33],"scale":[1.0,1.0,1.0],"name":"l_tire1"},{"translation":[-1.7999999523162842,-1.5,-0.3000000119209292],"rotation":[-6.123031769111886e-17,3.061515884555943e-17,1.0,1.874575902277672e-33],"scale":[1.0,1.0,1.0],"name":"r_tire1"},{"translation":[0.0,0.0,0.0],"rotation":[-4.329637285359677e-17,0.7071067811865475,0.7071067811865475,4.329637285359677e-17],"scale":[1.0,1.0,1.0],"name":"node_30","children":[14,19,24,27,32]},{"translation":[1.809177041053772,-0.296550989151001,-1.2273509502410889],"rotation":[0.0,0.0,0.0,1.0],"scale":[1.0,1.0,1.0],"name":"node_35","children":[15,17]},{"name":"node_36","children":[16]},{"mesh":4,"name":"r_tire_blurred_key_AN_36"},{"name":"node_37","children":[18]},{"mesh":5,"name":"r_tire_blurred_key_AN_37"},{"translation":[-1.809177041053772,-0.296550989151001,-1.2273509502410889],"rotation":[0.0,0.0,0.0,1.0],"scale":[1.0,1.0,1.0],"name":"node_40","children":[20,22]},{"name":"node_41","children":[21]},{"mesh":6,"name":"l_tire_blurred_key_AN_41"},{"name":"node_42","children":[23]},{"mesh":7,"name":"l_tire_blurred_key_AN_42"},{"translation":[0.0,4.224256992340088,0.04266899824142456],"rotation":[0.0,0.0,0.0,1.0],"scale":[1.0,1.0,1.0],"name":"node_45","children":[25]},{"name":"prop0_still_VC","children":[26]},{"mesh":8,"name":"engine0_AN_VC"},{"translation":[0.0,4.224563121795654,0.04266899824142456],"rotation":[0.0,0.0,0.0,1.0],"scale":[1.0,1.0,1.0],"name":"node_50","children":[28,30]},{"name":"prop0_slow_VC","children":[29]},{"mesh":9,"name":"ENGINE0_AN_VC_1"},{"name":"prop0_blurred_VC","children":[31]},{"mesh":10,"name":"ENGINE0_AN_VC_2"},{"translation":[0.0,3.4397530555725099,-1.3004980087280272],"rotation":[0.0,0.0,0.0,1.0],"scale":[1.0,1.0,1.0],"name":"node_57","children":[33]},{"name":"custom_anim_C_WHEEL_LR_AN_57","children":[34,36]},{"name":"node_58","children":[35]},{"mesh":11,"name":"c_tire_blurred_key_AN_58"},{"name":"node_59","children":[37]},{"mesh":12,"name":"c_tire_blurred_key_AN_59"}],"scene":0,"scenes":[{"nodes":[0]}],"textures":[{"extensions":{"MSFT_texture_dds":{"source":0}}},{"extensions":{"MSFT_texture_dds":{"source":1}}},{"extensions":{"MSFT_texture_dds":{"source":2}}}],"extensionsUsed":["MSFT_texture_dds","ASOBO_asset_optimized"],"buffers":[{"byteLength":31648,"uri":"HTAI Cessna 208 MSFS_LOD2.bin"}],"images":[{"uri":"HTAI_C208.PNG.DDS","extras":"ASOBO_image_converted_meta"},{"uri":"HTAI_C208_C.PNG.DDS","extras":"ASOBO_image_converted_meta"},{"uri":"PROP-HS.PNG.DDS","extras":"ASOBO_image_converted_meta"}]}
