{"accessors":[{"bufferView":0,"componentType":5126,"count":5,"min":[0.0],"max":[100.0],"type":"SCALAR"},{"bufferView":1,"componentType":5126,"count":5,"type":"VEC4"},{"bufferView":0,"byteOffset":20,"componentType":5126,"count":5,"min":[0.0],"max":[100.0],"type":"SCALAR"},{"bufferView":1,"byteOffset":80,"componentType":5126,"count":5,"type":"VEC4"},{"bufferView":0,"byteOffset":40,"componentType":5126,"count":5,"min":[0.0],"max":[100.0],"type":"SCALAR"},{"bufferView":1,"byteOffset":160,"componentType":5126,"count":5,"type":"VEC4"},{"bufferView":0,"byteOffset":60,"componentType":5126,"count":5,"min":[0.0],"max":[100.0],"type":"SCALAR"},{"bufferView":1,"byteOffset":240,"componentType":5126,"count":5,"type":"VEC4"},{"bufferView":0,"byteOffset":80,"componentType":5126,"count":5,"min":[0.0],"max":[100.0],"type":"SCALAR"},{"bufferView":1,"byteOffset":320,"componentType":5126,"count":5,"type":"VEC4"},{"bufferView":2,"componentType":5126,"count":217,"min":[-5.486050128936768,-1.1798100471496583,-4.8091301918029789],"max":[5.486660003662109,1.284350037574768,1.590649962425232],"type":"VEC3","name":"part000_vertices#0_POSITION"},{"bufferView":2,"byteOffset":12,"componentType":5120,"count":217,"type":"VEC4","name":"part000_vertices#0_TANGENT"},{"bufferView":2,"byteOffset":16,"componentType":5120,"count":217,"type":"VEC4","name":"part000_vertices#0_NORMAL"},{"bufferView":2,"byteOffset":20,"componentType":5122,"count":217,"type":"VEC2","name":"part000_vertices#0_TEXCOORD_0"},{"bufferView":2,"byteOffset":24,"componentType":5122,"count":217,"type":"VEC2","name":"part000_vertices#0_TEXCOORD_1"},{"bufferView":2,"byteOffset":28,"componentType":5123,"count":217,"type":"VEC4","name":"part000_vertices#0_COLOR_0"},{"bufferView":3,"componentType":5123,"count":555,"type":"SCALAR","name":"part000_indices#0"},{"bufferView":2,"byteOffset":7812,"componentType":5126,"count":20,"min":[-0.025019999593496324,-0.07700999826192856,-0.08093000203371048],"max":[0.025019999593496324,0.07699000090360642,0.08099000155925751],"type":"VEC3","name":"part001_vertices#0_POSITION"},{"bufferView":2,"byteOffset":7824,"componentType":5120,"count":20,"type":"VEC4","name":"part001_vertices#0_TANGENT"},{"bufferView":2,"byteOffset":7828,"componentType":5120,"count":20,"type":"VEC4","name":"part001_vertices#0_NORMAL"},{"bufferView":2,"byteOffset":7832,"componentType":5122,"count":20,"type":"VEC2","name":"part001_vertices#0_TEXCOORD_0"},{"bufferView":2,"byteOffset":7836,"componentType":5122,"count":20,"type":"VEC2","name":"part001_vertices#0_TEXCOORD_1"},{"bufferView":2,"byteOffset":7840,"componentType":5123,"count":20,"type":"VEC4","name":"part001_vertices#0_COLOR_0"},{"bufferView":3,"byteOffset":1110,"componentType":5123,"count":48,"type":"SCALAR","name":"part001_indices#0"},{"bufferView":2,"byteOffset":8532,"componentType":5126,"count":32,"min":[-0.049070000648498538,-0.01882000081241131,-0.8963599801063538],"max":[0.049070000648498538,0.01867000013589859,0.8963599801063538],"type":"VEC3","name":"part002_vertices#0_POSITION"},{"bufferView":2,"byteOffset":8544,"componentType":5120,"count":32,"type":"VEC4","name":"part002_vertices#0_TANGENT"},{"bufferView":2,"byteOffset":8548,"componentType":5120,"count":32,"type":"VEC4","name":"part002_vertices#0_NORMAL"},{"bufferView":2,"byteOffset":8552,"componentType":5122,"count":32,"type":"VEC2","name":"part002_vertices#0_TEXCOORD_0"},{"bufferView":2,"byteOffset":8556,"componentType":5122,"count":32,"type":"VEC2","name":"part002_vertices#0_TEXCOORD_1"},{"bufferView":2,"byteOffset":8560,"componentType":5123,"count":32,"type":"VEC4","name":"part002_vertices#0_COLOR_0"},{"bufferView":3,"byteOffset":1206,"componentType":5123,"count":72,"type":"SCALAR","name":"part002_indices#0"},{"bufferView":2,"byteOffset":9684,"componentType":5126,"count":20,"min":[-0.06703999638557434,-0.21219000220298768,-0.22301000356674195],"max":[0.06703999638557434,0.2121499925851822,0.22316999733448029],"type":"VEC3","name":"part003_vertices#0_POSITION"},{"bufferView":2,"byteOffset":9696,"componentType":5120,"count":20,"type":"VEC4","name":"part003_vertices#0_TANGENT"},{"bufferView":2,"byteOffset":9700,"componentType":5120,"count":20,"type":"VEC4","name":"part003_vertices#0_NORMAL"},{"bufferView":2,"byteOffset":9704,"componentType":5122,"count":20,"type":"VEC2","name":"part003_vertices#0_TEXCOORD_0"},{"bufferView":2,"byteOffset":9708,"componentType":5122,"count":20,"type":"VEC2","name":"part003_vertices#0_TEXCOORD_1"},{"bufferView":2,"byteOffset":9712,"componentType":5123,"count":20,"type":"VEC4","name":"part003_vertices#0_COLOR_0"},{"bufferView":3,"byteOffset":1350,"componentType":5123,"count":48,"type":"SCALAR","name":"part003_indices#0"},{"bufferView":2,"byteOffset":10404,"componentType":5126,"count":20,"min":[-0.06703999638557434,-0.21219000220298768,-0.22301000356674195],"max":[0.06703999638557434,0.2121499925851822,0.22316999733448029],"type":"VEC3","name":"part004_vertices#0_POSITION"},{"bufferView":2,"byteOffset":10416,"componentType":5120,"count":20,"type":"VEC4","name":"part004_vertices#0_TANGENT"},{"bufferView":2,"byteOffset":10420,"componentType":5120,"count":20,"type":"VEC4","name":"part004_vertices#0_NORMAL"},{"bufferView":2,"byteOffset":10424,"componentType":5122,"count":20,"type":"VEC2","name":"part004_vertices#0_TEXCOORD_0"},{"bufferView":2,"byteOffset":10428,"componentType":5122,"count":20,"type":"VEC2","name":"part004_vertices#0_TEXCOORD_1"},{"bufferView":2,"byteOffset":10432,"componentType":5123,"count":20,"type":"VEC4","name":"part004_vertices#0_COLOR_0"},{"bufferView":3,"byteOffset":1446,"componentType":5123,"count":48,"type":"SCALAR","name":"part004_indices#0"},{"bufferView":2,"byteOffset":11124,"componentType":5126,"count":28,"min":[-1.3151299953460694,-0.46022000908851626,0.0],"max":[1.3151299953460694,0.007619999814778566,0.001829999964684248],"type":"VEC3","name":"part005_vertices#0_POSITION"},{"bufferView":2,"byteOffset":11136,"componentType":5120,"count":28,"type":"VEC4","name":"part005_vertices#0_TANGENT"},{"bufferView":2,"byteOffset":11140,"componentType":5120,"count":28,"type":"VEC4","name":"part005_vertices#0_NORMAL"},{"bufferView":2,"byteOffset":11144,"componentType":5122,"count":28,"type":"VEC2","name":"part005_vertices#0_TEXCOORD_0"},{"bufferView":2,"byteOffset":11148,"componentType":5122,"count":28,"type":"VEC2","name":"part005_vertices#0_TEXCOORD_1"},{"bufferView":2,"byteOffset":11152,"componentType":5123,"count":28,"type":"VEC4","name":"part005_vertices#0_COLOR_0"},{"bufferView":3,"byteOffset":1542,"componentType":5123,"count":60,"type":"SCALAR","name":"part005_indices#0"}],"animations":[{"name":"c_tire_blurred_key","channels":[{"sampler":0,"target":{"node":11,"path":"rotation"}}],"samplers":[{"input":0,"output":1,"interpolation":"LINEAR"}]},{"name":"engine0","channels":[{"sampler":0,"target":{"node":14,"path":"rotation"}}],"samplers":[{"input":2,"output":3,"interpolation":"LINEAR"}]},{"name":"r_tire_blurred_key","channels":[{"sampler":0,"target":{"node":17,"path":"rotation"}}],"samplers":[{"input":4,"output":5,"interpolation":"LINEAR"}]},{"name":"l_tire_blurred_key","channels":[{"sampler":0,"target":{"node":20,"path":"rotation"}}],"samplers":[{"input":6,"output":7,"interpolation":"LINEAR"}]},{"name":"elevator","channels":[{"sampler":0,"target":{"node":23,"path":"rotation"}}],"samplers":[{"input":8,"output":9,"interpolation":"LINEAR"}]}],"asset":{"generator":"ModelConverterX","version":"2.0","extensions":{"ASOBO_asset_optimized":{"BoundingBoxMax":[5.486660003662109,1.284350037574768,1.590649962425232],"BoundingBoxMin":[-5.486050128936768,-1.1798100471496583,-4.8091301918029789],"MajorVersion":4,"MinorVersion":4,"UseCheckerboardMaterialForMissingTextures":true,"UseOnlyFilenameForImageURI":true}}},"bufferViews":[{"buffer":0,"byteLength":100,"byteStride":4},{"buffer":0,"byteLength":400,"byteStride":16,"byteOffset":100},{"buffer":0,"byteLength":12132,"byteStride":36,"byteOffset":500,"target":34962,"name":"BufferViewVertexND"},{"buffer":0,"byteLength":1662,"byteOffset":12632,"target":34963,"name":"BufferViewIndex"}],"extensionsRequired":["MSFT_texture_dds"],"materials":[{"name":"material00","occlusionTexture":{"index":1},"emissiveFactor":[0.019607843831181527,0.019607843831181527,0.019607843831181527],"pbrMetallicRoughness":{"baseColorTexture":{"index":0},"metallicRoughnessTexture":{"index":1}}}],"meshes":[{"primitives":[{"attributes":{"COLOR_0":15,"NORMAL":12,"POSITION":10,"TANGENT":11,"TEXCOORD_0":13,"TEXCOORD_1":14},"indices":16,"material":0,"mode":4,"extras":{"ASOBO_primitive":{"PrimitiveCount":185,"VertexType":"VTX","VertexVersion":2}}}],"name":"part000"},{"primitives":[{"attributes":{"COLOR_0":22,"NORMAL":19,"POSITION":17,"TANGENT":18,"TEXCOORD_0":20,"TEXCOORD_1":21},"indices":23,"material":0,"mode":4,"extras":{"ASOBO_primitive":{"PrimitiveCount":16,"VertexType":"VTX","VertexVersion":2}}}],"name":"part001"},{"primitives":[{"attributes":{"COLOR_0":29,"NORMAL":26,"POSITION":24,"TANGENT":25,"TEXCOORD_0":27,"TEXCOORD_1":28},"indices":30,"material":0,"mode":4,"extras":{"ASOBO_primitive":{"PrimitiveCount":24,"VertexType":"VTX","VertexVersion":2}}}],"name":"part002"},{"primitives":[{"attributes":{"COLOR_0":36,"NORMAL":33,"POSITION":31,"TANGENT":32,"TEXCOORD_0":34,"TEXCOORD_1":35},"indices":37,"material":0,"mode":4,"extras":{"ASOBO_primitive":{"PrimitiveCount":16,"VertexType":"VTX","VertexVersion":2}}}],"name":"part003"},{"primitives":[{"attributes":{"COLOR_0":43,"NORMAL":40,"POSITION":38,"TANGENT":39,"TEXCOORD_0":41,"TEXCOORD_1":42},"indices":44,"material":0,"mode":4,"extras":{"ASOBO_primitive":{"PrimitiveCount":16,"VertexType":"VTX","VertexVersion":2}}}],"name":"part004"},{"primitives":[{"attributes":{"COLOR_0":50,"NORMAL":47,"POSITION":45,"TANGENT":46,"TEXCOORD_0":48,"TEXCOORD_1":49},"indices":51,"material":0,"mode":4,"extras":{"ASOBO_primitive":{"PrimitiveCount":20,"VertexType":"VTX","VertexVersion":2}}}],"name":"part005"}],"nodes":[{"name":"node_0","children":[1,2,3,4,5,6,7,8]},{"mesh":0,"name":"node_5"},{"translation":[4.099999904632568,0.6499999761581421,0.379999995231629],"rotation":[-0.7071067811865475,0.0,0.0,0.7071067811865475],"scale":[1.0,1.0,1.0],"name":"Landing_Light"},{"translation":[6.123031769111886e-16,0.0,-5.0],"rotation":[-6.123031769111886e-17,3.061515884555943e-17,1.0,1.874575902277672e-33],"scale":[1.0,1.0,1.0],"name":"contrail1"},{"translation":[3.950000047683716,0.6499999761581421,0.379999995231629],"rotation":[-0.7071067811865475,0.0,0.0,0.7071067811865475],"scale":[1.0,1.0,1.0],"name":"Taxi_Light"},{"translation":[5.878110731922535e-16,-0.3499999940395355,-4.800000190734863],"rotation":[-6.123031769111886e-17,3.061515884555943e-17,1.0,1.874575902277672e-33],"scale":[1.0,1.0,1.0],"name":"c_tire1"},{"translation":[1.2200000286102296,-1.350000023841858,0.2000000029802324],"rotation":[-6.123031769111886e-17,3.061515884555943e-17,1.0,1.874575902277672e-33],"scale":[1.0,1.0,1.0],"name":"l_tire1"},{"translation":[-1.2200000286102296,-1.350000023841858,0.2000000029802321],"rotation":[-6.123031769111886e-17,3.061515884555943e-17,1.0,1.874575902277672e-33],"scale":[1.0,1.0,1.0],"name":"r_tire1"},{"translation":[0.0,0.0,0.0],"rotation":[-4.329637285359677e-17,0.7071067811865475,0.7071067811865475,4.329637285359677e-17],"scale":[1.0,1.0,1.0],"name":"node_24","children":[9,12,15,18,21]},{"translation":[0.0,-4.78170108795166,-0.28832200169563296],"rotation":[0.0,0.0,0.0,1.0],"scale":[1.0,1.0,1.0],"name":"node_37","children":[10]},{"name":"node_38","children":[11]},{"mesh":1,"name":"c_tire_blurred_key_AN_38"},{"translation":[0.0,1.622575044631958,-0.016488000750541688],"rotation":[0.0,0.0,0.0,1.0],"scale":[1.0,1.0,1.0],"name":"node_44","children":[13]},{"name":"node_45","children":[14]},{"mesh":2,"name":"engine0_AN_45"},{"translation":[1.219122052192688,0.24352000653743745,-1.13530695438385],"rotation":[0.0,0.0,0.0,1.0],"scale":[1.0,1.0,1.0],"name":"node_49","children":[16]},{"name":"node_51","children":[17]},{"mesh":3,"name":"r_tire_blurred_key_AN_51"},{"translation":[-1.219122052192688,0.24352000653743745,-1.13530695438385],"rotation":[0.0,0.0,0.0,1.0],"scale":[1.0,1.0,1.0],"name":"node_57","children":[19]},{"name":"node_59","children":[20]},{"mesh":4,"name":"l_tire_blurred_key_AN_59"},{"translation":[0.0,-4.3068528175354,0.14690400660037995],"rotation":[0.0,0.0,0.0,1.0],"scale":[1.0,1.0,1.0],"name":"node_64","children":[22]},{"name":"node_67","children":[23]},{"mesh":5,"name":"elevator_AN_67"}],"scene":0,"scenes":[{"nodes":[0]}],"textures":[{"extensions":{"MSFT_texture_dds":{"source":0}}},{"extensions":{"MSFT_texture_dds":{"source":1}}}],"extensionsUsed":["MSFT_texture_dds","ASOBO_asset_optimized"],"buffers":[{"byteLength":14294,"uri":"HTAI Cessna 140 MSFS_LOD3.bin"}],"images":[{"uri":"HTAI_C140.PNG.DDS","extras":"ASOBO_image_converted_meta"},{"uri":"HTAI_C140_C.PNG.DDS","extras":"ASOBO_image_converted_meta"}]}
