{"accessors":[{"bufferView":0,"componentType":5126,"count":101,"min":[0.0],"max":[3.33333325],"type":"SCALAR","name":"accessorAnimationInput"},{"bufferView":1,"componentType":5126,"count":101,"type":"VEC3","name":"accessorAnimationPositions"},{"bufferView":0,"byteOffset":404,"componentType":5126,"count":101,"min":[0.0],"max":[3.33333325],"type":"SCALAR","name":"accessorAnimationInput"},{"bufferView":2,"componentType":5126,"count":101,"type":"VEC4","name":"accessorAnimationRotations"},{"bufferView":0,"byteOffset":808,"componentType":5126,"count":101,"min":[0.0],"max":[3.33333325],"type":"SCALAR","name":"accessorAnimationInput"},{"bufferView":1,"byteOffset":1212,"componentType":5126,"count":101,"type":"VEC3","name":"accessorAnimationPositions"},{"bufferView":0,"byteOffset":1212,"componentType":5126,"count":101,"min":[0.0],"max":[3.33333325],"type":"SCALAR","name":"accessorAnimationInput"},{"bufferView":2,"byteOffset":1616,"componentType":5126,"count":101,"type":"VEC4","name":"accessorAnimationRotations"},{"bufferView":0,"byteOffset":1616,"componentType":5126,"count":101,"min":[0.0],"max":[3.33333325],"type":"SCALAR","name":"accessorAnimationInput"},{"bufferView":1,"byteOffset":2424,"componentType":5126,"count":101,"type":"VEC3","name":"accessorAnimationPositions"},{"bufferView":0,"byteOffset":2020,"componentType":5126,"count":101,"min":[0.0],"max":[3.33333325],"type":"SCALAR","name":"accessorAnimationInput"},{"bufferView":2,"byteOffset":3232,"componentType":5126,"count":101,"type":"VEC4","name":"accessorAnimationRotations"},{"bufferView":0,"byteOffset":2424,"componentType":5126,"count":101,"min":[0.0],"max":[3.33333325],"type":"SCALAR","name":"accessorAnimationInput"},{"bufferView":1,"byteOffset":3636,"componentType":5126,"count":101,"type":"VEC3","name":"accessorAnimationPositions"},{"bufferView":0,"byteOffset":2828,"componentType":5126,"count":101,"min":[0.0],"max":[3.33333325],"type":"SCALAR","name":"accessorAnimationInput"},{"bufferView":2,"byteOffset":4848,"componentType":5126,"count":101,"type":"VEC4","name":"accessorAnimationRotations"},{"bufferView":3,"componentType":5126,"count":120,"min":[3.2212166786193849,-2.3631484508514406,10.977221488952637],"max":[4.270360469818115,-0.5936487913131714,13.669647216796875],"type":"VEC3","name":"x0_cargo_door_aft_vertices#0_POSITION"},{"bufferView":3,"byteOffset":12,"componentType":5120,"count":120,"type":"VEC4","name":"x0_cargo_door_aft_vertices#0_TANGENT"},{"bufferView":3,"byteOffset":16,"componentType":5120,"count":120,"type":"VEC4","name":"x0_cargo_door_aft_vertices#0_NORMAL"},{"bufferView":3,"byteOffset":20,"componentType":5122,"count":120,"type":"VEC2","name":"x0_cargo_door_aft_vertices#0_TEXCOORD_0"},{"bufferView":3,"byteOffset":24,"componentType":5122,"count":120,"type":"VEC2","name":"x0_cargo_door_aft_vertices#0_TEXCOORD_1"},{"bufferView":3,"byteOffset":28,"componentType":5123,"count":120,"type":"VEC4","name":"x0_cargo_door_aft_vertices#0_COLOR_0"},{"bufferView":4,"componentType":5123,"count":348,"type":"SCALAR","name":"x0_cargo_door_aft_indices#0"},{"bufferView":3,"byteOffset":4320,"componentType":5126,"count":30,"min":[-0.48490118980407717,-0.8508977890014648,-1.3461990356445313],"max":[0.48490118980407717,0.8508976697921753,1.3461999893188477],"type":"VEC3","name":"x0_cargo_door_aft_fake_vertices#0_POSITION"},{"bufferView":3,"byteOffset":4332,"componentType":5120,"count":30,"type":"VEC4","name":"x0_cargo_door_aft_fake_vertices#0_TANGENT"},{"bufferView":3,"byteOffset":4336,"componentType":5120,"count":30,"type":"VEC4","name":"x0_cargo_door_aft_fake_vertices#0_NORMAL"},{"bufferView":3,"byteOffset":4340,"componentType":5122,"count":30,"type":"VEC2","name":"x0_cargo_door_aft_fake_vertices#0_TEXCOORD_0"},{"bufferView":3,"byteOffset":4344,"componentType":5122,"count":30,"type":"VEC2","name":"x0_cargo_door_aft_fake_vertices#0_TEXCOORD_1"},{"bufferView":3,"byteOffset":4348,"componentType":5123,"count":30,"type":"VEC4","name":"x0_cargo_door_aft_fake_vertices#0_COLOR_0"},{"bufferView":4,"byteOffset":696,"componentType":5123,"count":84,"type":"SCALAR","name":"x0_cargo_door_aft_fake_indices#0"},{"bufferView":3,"byteOffset":5400,"componentType":5126,"count":166,"min":[3.2247142791748049,-2.362569808959961,-24.37479591369629],"max":[4.2792816162109379,-0.5936113595962524,-21.682281494140626],"type":"VEC3","name":"x0_cargo_door_forward_vertices#0_POSITION"},{"bufferView":3,"byteOffset":5412,"componentType":5120,"count":166,"type":"VEC4","name":"x0_cargo_door_forward_vertices#0_TANGENT"},{"bufferView":3,"byteOffset":5416,"componentType":5120,"count":166,"type":"VEC4","name":"x0_cargo_door_forward_vertices#0_NORMAL"},{"bufferView":3,"byteOffset":5420,"componentType":5122,"count":166,"type":"VEC2","name":"x0_cargo_door_forward_vertices#0_TEXCOORD_0"},{"bufferView":3,"byteOffset":5424,"componentType":5122,"count":166,"type":"VEC2","name":"x0_cargo_door_forward_vertices#0_TEXCOORD_1"},{"bufferView":3,"byteOffset":5428,"componentType":5123,"count":166,"type":"VEC4","name":"x0_cargo_door_forward_vertices#0_COLOR_0"},{"bufferView":4,"byteOffset":864,"componentType":5123,"count":432,"type":"SCALAR","name":"x0_cargo_door_forward_indices#0"},{"bufferView":3,"byteOffset":11376,"componentType":5126,"count":37,"min":[-0.4879450798034668,-0.8509039878845215,-1.3462047576904297],"max":[0.487945556640625,0.8509039282798767,1.3462028503417969],"type":"VEC3","name":"x0_cargo_door_forward_fake_vertices#0_POSITION"},{"bufferView":3,"byteOffset":11388,"componentType":5120,"count":37,"type":"VEC4","name":"x0_cargo_door_forward_fake_vertices#0_TANGENT"},{"bufferView":3,"byteOffset":11392,"componentType":5120,"count":37,"type":"VEC4","name":"x0_cargo_door_forward_fake_vertices#0_NORMAL"},{"bufferView":3,"byteOffset":11396,"componentType":5122,"count":37,"type":"VEC2","name":"x0_cargo_door_forward_fake_vertices#0_TEXCOORD_0"},{"bufferView":3,"byteOffset":11400,"componentType":5122,"count":37,"type":"VEC2","name":"x0_cargo_door_forward_fake_vertices#0_TEXCOORD_1"},{"bufferView":3,"byteOffset":11404,"componentType":5123,"count":37,"type":"VEC4","name":"x0_cargo_door_forward_fake_vertices#0_COLOR_0"},{"bufferView":4,"byteOffset":1728,"componentType":5123,"count":99,"type":"SCALAR","name":"x0_cargo_door_forward_fake_indices#0"}],"animations":[{"name":"Cargo_Door_forward","channels":[{"sampler":0,"target":{"node":5,"path":"translation","extensions":{"ASOBO_animation_retargeting":{"id":"x0_cargo_door_dummy_forward"}}}},{"sampler":1,"target":{"node":5,"path":"rotation","extensions":{"ASOBO_animation_retargeting":{"id":"x0_cargo_door_dummy_forward"}}}},{"sampler":2,"target":{"node":7,"path":"translation","extensions":{"ASOBO_animation_retargeting":{"id":"x0_cargo_door_forward_fake_dummy"}}}},{"sampler":3,"target":{"node":7,"path":"rotation","extensions":{"ASOBO_animation_retargeting":{"id":"x0_cargo_door_forward_fake_dummy"}}}}],"samplers":[{"input":0,"output":1,"interpolation":"LINEAR"},{"input":2,"output":3,"interpolation":"LINEAR"},{"input":4,"output":5,"interpolation":"LINEAR"},{"input":6,"output":7,"interpolation":"LINEAR"}]},{"name":"Cargo_Door_aft","channels":[{"sampler":0,"target":{"node":1,"path":"translation","extensions":{"ASOBO_animation_retargeting":{"id":"x0_cargo_door_dummy_aft"}}}},{"sampler":1,"target":{"node":1,"path":"rotation","extensions":{"ASOBO_animation_retargeting":{"id":"x0_cargo_door_dummy_aft"}}}},{"sampler":2,"target":{"node":3,"path":"translation","extensions":{"ASOBO_animation_retargeting":{"id":"x0_cargo_door_aft_fake_dummy"}}}},{"sampler":3,"target":{"node":3,"path":"rotation","extensions":{"ASOBO_animation_retargeting":{"id":"x0_cargo_door_aft_fake_dummy"}}}}],"samplers":[{"input":8,"output":9,"interpolation":"LINEAR"},{"input":10,"output":11,"interpolation":"LINEAR"},{"input":12,"output":13,"interpolation":"LINEAR"},{"input":14,"output":15,"interpolation":"LINEAR"}]}],"asset":{"generator":"babylon.js glTF exporter for 3dsmax 2021 v1.0.8378.27976","version":"2.0","extensions":{"ASOBO_asset_optimized":{"BoundingBoxMax":[4.2792816162109379,0.8509039282798767,13.669647216796875],"BoundingBoxMin":[-0.4879450798034668,-2.3631484508514406,-24.37479591369629],"MajorVersion":4,"MinorVersion":4,"UseCheckerboardMaterialForMissingTextures":true,"UseOnlyFilenameForImageURI":true},"ASOBO_normal_map_convention":{"tangent_space_convention":"DirectX"}}},"bufferViews":[{"buffer":0,"byteLength":3232,"name":"bufferViewAnimationFloatScalar"},{"buffer":0,"byteLength":4848,"byteOffset":3232,"name":"bufferViewAnimationFloatVec3"},{"buffer":0,"byteLength":6464,"byteOffset":8080,"name":"bufferViewAnimationFloatVec4"},{"buffer":0,"byteLength":12708,"byteStride":36,"byteOffset":14544,"target":34962,"name":"BufferViewVertexND"},{"buffer":0,"byteLength":1926,"byteOffset":27252,"target":34963,"name":"BufferViewIndex"}],"extensionsRequired":["MSFT_texture_dds"],"materials":[{"name":"B787-10","occlusionTexture":{"index":1},"emissiveTexture":{"index":2},"emissiveFactor":[0.10000000149011612,0.10000000149011612,0.10000000149011612],"pbrMetallicRoughness":{"baseColorTexture":{"index":0},"metallicRoughnessTexture":{"index":1}}},{"name":"B787-10_2","occlusionTexture":{"index":4},"pbrMetallicRoughness":{"baseColorTexture":{"index":3},"metallicRoughnessTexture":{"index":4}}}],"meshes":[{"primitives":[{"attributes":{"COLOR_0":21,"NORMAL":18,"POSITION":16,"TANGENT":17,"TEXCOORD_0":19,"TEXCOORD_1":20},"indices":22,"material":0,"mode":4,"extras":{"ASOBO_primitive":{"PrimitiveCount":116,"VertexType":"VTX","VertexVersion":2}}}],"name":"x0_cargo_door_aft"},{"primitives":[{"attributes":{"COLOR_0":28,"NORMAL":25,"POSITION":23,"TANGENT":24,"TEXCOORD_0":26,"TEXCOORD_1":27},"indices":29,"material":1,"mode":4,"extras":{"ASOBO_primitive":{"PrimitiveCount":28,"VertexType":"VTX","VertexVersion":2}}}],"name":"x0_cargo_door_aft_fake"},{"primitives":[{"attributes":{"COLOR_0":35,"NORMAL":32,"POSITION":30,"TANGENT":31,"TEXCOORD_0":33,"TEXCOORD_1":34},"indices":36,"material":0,"mode":4,"extras":{"ASOBO_primitive":{"PrimitiveCount":144,"VertexType":"VTX","VertexVersion":2}}}],"name":"x0_cargo_door_forward"},{"primitives":[{"attributes":{"COLOR_0":42,"NORMAL":39,"POSITION":37,"TANGENT":38,"TEXCOORD_0":40,"TEXCOORD_1":41},"indices":43,"material":1,"mode":4,"extras":{"ASOBO_primitive":{"PrimitiveCount":33,"VertexType":"VTX","VertexVersion":2}}}],"name":"x0_cargo_door_forward_fake"}],"nodes":[{"rotation":[0.0,-1.0,0.0,7.54979e-8],"extensions":{"ASOBO_unique_id":{"id":"Shared_Cargp_Doors"}},"name":"Shared_Cargp_Doors","children":[1,3,5,7]},{"translation":[2.639905,0.2230556,10.6766634],"rotation":[-2.22261525e-16,1.86628313e-9,5.972105e-8,1.0],"scale":[1.00000012,1.00000012,1.0],"extensions":{"ASOBO_unique_id":{"id":"x0_cargo_door_dummy_aft"}},"name":"cargo_door_aft_dummy","children":[2]},{"translation":[-4.27036047,0.6038931,-11.1296492],"rotation":[-5.046010189999999e-17,-1.866276e-9,0.0,1.0],"mesh":0,"extensions":{"ASOBO_unique_id":{"id":"x0_cargo_door_aft"}},"name":"cargo_door_aft"},{"translation":[1.95417571,-0.619,-5.80600071],"rotation":[-2.5849394100000003e-26,1.86628313e-9,1.16415336e-10,1.0],"extensions":{"ASOBO_unique_id":{"id":"x0_cargo_door_aft_fake_dummy"}},"name":"cargo_door_aft_fake_dummy","children":[4]},{"translation":[0.00471484661,-0.000263690948,17.6764565],"rotation":[-3.74816215e-25,-1.86628313e-9,-1.16415322e-10,1.0],"mesh":1,"extensions":{"ASOBO_unique_id":{"id":"x0_cargo_door_aft_fake"}},"name":"cargo_door_aft_fake"},{"translation":[2.68447161,0.218845963,-22.2877],"rotation":[-5.5402730000000008e-17,1.86628313e-9,-2.96859088e-8,1.0],"extensions":{"ASOBO_unique_id":{"id":"x0_cargo_door_dummy_forward"}},"name":"cargo_door_forward_dummy","children":[6]},{"translation":[-4.279282,0.6081026,21.834713],"rotation":[0.0,-1.86628313e-9,-1.16413545e-10,1.0],"mesh":2,"extensions":{"ASOBO_unique_id":{"id":"x0_cargo_door_forward"}},"name":"cargo_door_forward"},{"translation":[1.95417571,-0.619,-5.80600071],"rotation":[-2.5849394100000003e-26,1.86628313e-9,1.16415336e-10,1.0],"extensions":{"ASOBO_unique_id":{"id":"x0_cargo_door_forward_fake_dummy"}},"name":"cargo_door_forward_fake_dummy","children":[8]},{"translation":[0.00563454628,-0.000232458115,-17.6754723],"rotation":[-2.45569244e-25,-1.86628313e-9,-1.16415322e-10,1.0],"mesh":3,"extensions":{"ASOBO_unique_id":{"id":"x0_cargo_door_forward_fake"}},"name":"cargo_door_forward_fake"}],"scene":0,"scenes":[{"nodes":[0]}],"textures":[{"extensions":{"MSFT_texture_dds":{"source":0}}},{"extensions":{"MSFT_texture_dds":{"source":1}}},{"extensions":{"MSFT_texture_dds":{"source":2}}},{"extensions":{"MSFT_texture_dds":{"source":3}}},{"extensions":{"MSFT_texture_dds":{"source":4}}}],"extensionsUsed":["ASOBO_normal_map_convention","ASOBO_unique_id","ASOBO_animation_retargeting","MSFT_texture_dds","ASOBO_asset_optimized"],"buffers":[{"byteLength":29178,"uri":"AIG_Boeing_787-10_cargo.bin"}],"images":[{"uri":"AIG_B78X_T.PNG.DDS","extras":"ASOBO_image_converted_meta"},{"uri":"AIG_B78X_C.PNG.DDS","extras":"ASOBO_image_converted_meta"},{"uri":"AIG_B78X_L.PNG.DDS","extras":"ASOBO_image_converted_meta"},{"uri":"AIG_B78X_T2.PNG.DDS","extras":"ASOBO_image_converted_meta"},{"uri":"AIG_B78X_GE_C2.PNG.DDS","extras":"ASOBO_image_converted_meta"}]}
