{"accessors":[{"bufferView":0,"componentType":5126,"count":2,"min":[0.0],"max":[100.0],"type":"SCALAR"},{"bufferView":1,"componentType":5126,"count":2,"type":"VEC3"},{"bufferView":0,"byteOffset":8,"componentType":5126,"count":51,"min":[0.0],"max":[100.0],"type":"SCALAR"},{"bufferView":2,"componentType":5126,"count":51,"type":"VEC4"},{"bufferView":0,"byteOffset":212,"componentType":5126,"count":2,"min":[0.0],"max":[100.0],"type":"SCALAR"},{"bufferView":1,"byteOffset":24,"componentType":5126,"count":2,"type":"VEC3"},{"bufferView":0,"byteOffset":220,"componentType":5126,"count":51,"min":[0.0],"max":[100.0],"type":"SCALAR"},{"bufferView":2,"byteOffset":816,"componentType":5126,"count":51,"type":"VEC4"},{"bufferView":0,"byteOffset":424,"componentType":5126,"count":43,"min":[0.0],"max":[79.0],"type":"SCALAR"},{"bufferView":2,"byteOffset":1632,"componentType":5126,"count":43,"type":"VEC4"},{"bufferView":3,"componentType":5126,"count":130,"min":[-14.196009635925293,-0.7440000176429749,-18.115999221801759],"max":[14.196009635925293,6.915999889373779,20.21600914001465],"type":"VEC3","name":"part000_vertices#0_POSITION"},{"bufferView":3,"byteOffset":12,"componentType":5120,"count":130,"type":"VEC4","name":"part000_vertices#0_TANGENT"},{"bufferView":3,"byteOffset":16,"componentType":5120,"count":130,"type":"VEC4","name":"part000_vertices#0_NORMAL"},{"bufferView":3,"byteOffset":20,"componentType":5122,"count":130,"type":"VEC2","name":"part000_vertices#0_TEXCOORD_0"},{"bufferView":3,"byteOffset":24,"componentType":5122,"count":130,"type":"VEC2","name":"part000_vertices#0_TEXCOORD_1"},{"bufferView":3,"byteOffset":28,"componentType":5123,"count":130,"type":"VEC4","name":"part000_vertices#0_COLOR_0"},{"bufferView":4,"componentType":5123,"count":246,"type":"SCALAR","name":"part000_indices#0"},{"bufferView":3,"byteOffset":4680,"componentType":5126,"count":18,"min":[-3.110869884490967,-0.18540999293327332,0.038440000265836719],"max":[4.614640235900879,0.25936999917030337,1.2827399969100953],"type":"VEC3","name":"part001_vertices#0_POSITION"},{"bufferView":3,"byteOffset":4692,"componentType":5120,"count":18,"type":"VEC4","name":"part001_vertices#0_TANGENT"},{"bufferView":3,"byteOffset":4696,"componentType":5120,"count":18,"type":"VEC4","name":"part001_vertices#0_NORMAL"},{"bufferView":3,"byteOffset":4700,"componentType":5122,"count":18,"type":"VEC2","name":"part001_vertices#0_TEXCOORD_0"},{"bufferView":3,"byteOffset":4704,"componentType":5122,"count":18,"type":"VEC2","name":"part001_vertices#0_TEXCOORD_1"},{"bufferView":3,"byteOffset":4708,"componentType":5123,"count":18,"type":"VEC4","name":"part001_vertices#0_COLOR_0"},{"bufferView":4,"byteOffset":492,"componentType":5123,"count":24,"type":"SCALAR","name":"part001_indices#0"},{"bufferView":3,"byteOffset":5328,"componentType":5126,"count":18,"min":[-4.61575984954834,-0.16965000331401826,0.038189999759197238],"max":[3.111140012741089,0.25317999720573428,1.2882699966430665],"type":"VEC3","name":"part002_vertices#0_POSITION"},{"bufferView":3,"byteOffset":5340,"componentType":5120,"count":18,"type":"VEC4","name":"part002_vertices#0_TANGENT"},{"bufferView":3,"byteOffset":5344,"componentType":5120,"count":18,"type":"VEC4","name":"part002_vertices#0_NORMAL"},{"bufferView":3,"byteOffset":5348,"componentType":5122,"count":18,"type":"VEC2","name":"part002_vertices#0_TEXCOORD_0"},{"bufferView":3,"byteOffset":5352,"componentType":5122,"count":18,"type":"VEC2","name":"part002_vertices#0_TEXCOORD_1"},{"bufferView":3,"byteOffset":5356,"componentType":5123,"count":18,"type":"VEC4","name":"part002_vertices#0_COLOR_0"},{"bufferView":4,"byteOffset":540,"componentType":5123,"count":24,"type":"SCALAR","name":"part002_indices#0"}],"animations":[{"name":"custom_anim_FLAPS_AIRLINER","channels":[{"sampler":0,"target":{"node":16,"path":"translation"}},{"sampler":1,"target":{"node":18,"path":"rotation"}},{"sampler":2,"target":{"node":21,"path":"translation"}},{"sampler":3,"target":{"node":23,"path":"rotation"}}],"samplers":[{"input":0,"output":1,"interpolation":"LINEAR"},{"input":2,"output":3,"interpolation":"LINEAR"},{"input":4,"output":5,"interpolation":"LINEAR"},{"input":6,"output":7,"interpolation":"LINEAR"}]},{"name":"c_gear","channels":[{"sampler":0,"target":{"node":26,"path":"rotation"}}],"samplers":[{"input":8,"output":9,"interpolation":"LINEAR"}]}],"asset":{"generator":"ModelConverterX","version":"2.0","extensions":{"ASOBO_asset_optimized":{"BoundingBoxMax":[14.196009635925293,6.915999889373779,20.21600914001465],"BoundingBoxMin":[-14.196009635925293,-0.7440000176429749,-18.115999221801759],"MajorVersion":4,"MinorVersion":4,"UseCheckerboardMaterialForMissingTextures":true,"UseOnlyFilenameForImageURI":true}}},"bufferViews":[{"buffer":0,"byteLength":596,"byteStride":4},{"buffer":0,"byteLength":48,"byteStride":12,"byteOffset":596},{"buffer":0,"byteLength":2320,"byteStride":16,"byteOffset":644},{"buffer":0,"byteLength":5976,"byteStride":36,"byteOffset":2964,"target":34962,"name":"BufferViewVertexND"},{"buffer":0,"byteLength":588,"byteOffset":8940,"target":34963,"name":"BufferViewIndex"}],"extensionsRequired":["MSFT_texture_dds"],"materials":[{"name":"LowPoly","emissiveTexture":{"index":1},"emissiveFactor":[0.019607843831181527,0.019607843831181527,0.019607843831181527],"pbrMetallicRoughness":{"baseColorTexture":{"index":0}},"extensions":{"ASOBO_material_day_night_switch":{}}}],"meshes":[{"primitives":[{"attributes":{"COLOR_0":15,"NORMAL":12,"POSITION":10,"TANGENT":11,"TEXCOORD_0":13,"TEXCOORD_1":14},"indices":16,"material":0,"mode":4,"extras":{"ASOBO_primitive":{"PrimitiveCount":82,"VertexType":"VTX","VertexVersion":2}}}],"name":"part000"},{"primitives":[{"attributes":{"COLOR_0":22,"NORMAL":19,"POSITION":17,"TANGENT":18,"TEXCOORD_0":20,"TEXCOORD_1":21},"indices":23,"material":0,"mode":4,"extras":{"ASOBO_primitive":{"PrimitiveCount":8,"VertexType":"VTX","VertexVersion":2}}}],"name":"part001"},{"primitives":[{"attributes":{"COLOR_0":29,"NORMAL":26,"POSITION":24,"TANGENT":25,"TEXCOORD_0":27,"TEXCOORD_1":28},"indices":30,"material":0,"mode":4,"extras":{"ASOBO_primitive":{"PrimitiveCount":8,"VertexType":"VTX","VertexVersion":2}}}],"name":"part002"}],"nodes":[{"name":"node_0","children":[1,2,3,4,5,6,7,8,9,10,11,12,13,14]},{"mesh":0,"name":"cabin_lights_VC"},{"translation":[2.900000095367433,1.0,-10.0],"rotation":[-6.123031769111886e-17,3.061515884555943e-17,1.0,1.874575902277672e-33],"scale":[1.0,1.0,1.0],"name":"contrail1"},{"translation":[13.710000038146973,0.20000000298023225,-2.5399999618530257],"rotation":[-0.7056169294378611,0.045877542334835128,0.045877542334835128,0.7056169294378611],"scale":[1.0,1.0,1.0],"name":"landing_wing_l1"},{"translation":[1.519999980926512,0.119999997317791,12.5],"rotation":[-0.4777144171082609,0.5213338044735969,0.4777144171082609,0.5213338044735969],"scale":[1.0,1.0,1.0],"name":"landing_l"},{"translation":[-1.5199999809265153,0.119999997317791,12.5],"rotation":[0.4777144171082609,0.521333804473597,0.47771441710826098,-0.5213338044735969],"scale":[1.0,1.0,1.0],"name":"landing_r"},{"translation":[-13.710000038146973,0.20000000298023225,-2.539999961853029],"rotation":[-0.7056169294378611,-0.04587754233483521,-0.04587754233483521,0.7056169294378611],"scale":[1.0,1.0,1.0],"name":"landing_wing_r1"},{"translation":[14.109999656677246,0.20000000298023225,-3.140000104904173],"rotation":[0.47618904075508397,0.5911441474718839,0.6170063939274846,-0.2075950486574626],"scale":[1.0,1.0,1.0],"name":"logo_l"},{"translation":[-14.109999656677246,0.20000000298023225,-3.1400001049041768],"rotation":[-0.47618904075508408,0.5911441474718839,0.6170063939274845,0.20759504865746268],"scale":[1.0,1.0,1.0],"name":"logo_r"},{"translation":[-2.9000000953674305,1.0,-10.0],"rotation":[-6.123031769111886e-17,3.061515884555943e-17,1.0,1.874575902277672e-33],"scale":[1.0,1.0,1.0],"name":"contrail2"},{"translation":[-2.1185688986826626e-15,-1.600000023841858,17.299999237060548],"rotation":[-6.123031769111886e-17,3.061515884555943e-17,1.0,1.874575902277672e-33],"scale":[1.0,1.0,1.0],"name":"c_tire1"},{"translation":[2.4000000953674318,-1.600000023841858,2.9390553659612679e-16],"rotation":[-6.123031769111886e-17,3.061515884555943e-17,1.0,1.874575902277672e-33],"scale":[1.0,1.0,1.0],"name":"l_tire1"},{"translation":[-2.4000000953674318,-1.600000023841858,-2.9390553659612679e-16],"rotation":[-6.123031769111886e-17,3.061515884555943e-17,1.0,1.874575902277672e-33],"scale":[1.0,1.0,1.0],"name":"r_tire1"},{"translation":[-1.149999976158141,1.8799999952316285,-9.779999732971192],"rotation":[0.45315389351832499,-0.3659981507706668,0.7848855672213958,0.2113091308703497],"scale":[1.0,1.0,1.0],"name":"APU"},{"translation":[0.0,0.0,0.0],"rotation":[-4.329637285359677e-17,0.7071067811865475,0.7071067811865475,4.329637285359677e-17],"scale":[1.0,1.0,1.0],"name":"node_27","children":[15,20,25]},{"name":"node_28","children":[16]},{"name":"custom_anim_FLAPS_AIRLINER_AN_28","children":[17]},{"name":"node_29","children":[18]},{"name":"custom_anim_FLAPS_AIRLINER_AN_29","children":[19]},{"mesh":1,"name":"custom_vis_parts_visible_00_mcx_VC_0"},{"name":"node_38","children":[21]},{"name":"custom_anim_FLAPS_AIRLINER_AN_38","children":[22]},{"name":"node_39","children":[23]},{"name":"custom_anim_FLAPS_AIRLINER_AN_39","children":[24]},{"mesh":2,"name":"custom_vis_parts_visible_00_mcx_VC_1"},{"translation":[9.99999997475243e-7,17.618419647216798,-0.4828499853610992],"rotation":[0.0,0.0,0.0,1.0],"scale":[1.0,1.0,1.0],"name":"node_48","children":[26]},{"name":"c_gear_AN_48","children":[27,29,31]},{"translation":[0.1499989926815033,-0.2471500039100647,-0.2615799903869629],"rotation":[0.0,0.0,0.0,1.0],"scale":[1.0,1.0,1.0],"name":"node_71","children":[28]},{"translation":[0.0,0.0,0.0],"rotation":[0.7071067811865475,0.0,0.0,0.7071067811865475],"scale":[1.0,1.0,1.0],"name":"landing_nose"},{"translation":[-0.1500010043382645,-0.2471500039100647,-0.2615799903869629],"rotation":[-0.02612816355933271,0.06102745363852288,-0.0015980275154508324,0.997792771768462],"scale":[1.0,1.0,1.0],"name":"node_73","children":[30]},{"translation":[0.0,0.0,0.0],"rotation":[0.7071067811865475,0.0,0.0,0.7071067811865475],"scale":[1.0,1.0,1.0],"name":"taxi_l"},{"translation":[0.1499989926815033,-0.2471500039100647,-0.2615799903869629],"rotation":[-0.02612816355933271,-0.06102745363852288,0.0015980275154508324,0.997792771768462],"scale":[1.0,1.0,1.0],"name":"node_75","children":[32]},{"translation":[0.0,0.0,0.0],"rotation":[0.7071067811865475,0.0,0.0,0.7071067811865475],"scale":[1.0,1.0,1.0],"name":"taxi_r"}],"scene":0,"scenes":[{"nodes":[0]}],"textures":[{"extensions":{"MSFT_texture_dds":{"source":0}}},{"extensions":{"MSFT_texture_dds":{"source":1}}}],"extensionsUsed":["ASOBO_material_day_night_switch","MSFT_texture_dds","ASOBO_asset_optimized"],"buffers":[{"byteLength":9528,"uri":"AIA_Boeing_717_MSFS_LOD7.bin"}],"images":[{"uri":"AIA_B717_T.PNG.DDS","extras":"ASOBO_image_converted_meta"},{"uri":"AIA_B717_L.PNG.DDS","extras":"ASOBO_image_converted_meta"}]}
