{"accessors":[{"bufferView":0,"componentType":5126,"count":3,"min":[0.0],"max":[100.0],"type":"SCALAR"},{"bufferView":1,"componentType":5126,"count":3,"type":"VEC4"},{"bufferView":0,"byteOffset":12,"componentType":5126,"count":3,"min":[0.0],"max":[100.0],"type":"SCALAR"},{"bufferView":1,"byteOffset":48,"componentType":5126,"count":3,"type":"VEC4"},{"bufferView":0,"byteOffset":24,"componentType":5126,"count":5,"min":[0.0],"max":[100.0],"type":"SCALAR"},{"bufferView":1,"byteOffset":96,"componentType":5126,"count":5,"type":"VEC4"},{"bufferView":0,"byteOffset":44,"componentType":5126,"count":5,"min":[0.0],"max":[100.0],"type":"SCALAR"},{"bufferView":1,"byteOffset":176,"componentType":5126,"count":5,"type":"VEC4"},{"bufferView":0,"byteOffset":64,"componentType":5126,"count":5,"min":[0.0],"max":[100.0],"type":"SCALAR"},{"bufferView":1,"byteOffset":256,"componentType":5126,"count":5,"type":"VEC4"},{"bufferView":0,"byteOffset":84,"componentType":5126,"count":5,"min":[0.0],"max":[100.0],"type":"SCALAR"},{"bufferView":1,"byteOffset":336,"componentType":5126,"count":5,"type":"VEC4"},{"bufferView":0,"byteOffset":104,"componentType":5126,"count":5,"min":[0.0],"max":[100.0],"type":"SCALAR"},{"bufferView":1,"byteOffset":416,"componentType":5126,"count":5,"type":"VEC4"},{"bufferView":2,"componentType":5126,"count":932,"min":[-5.322380065917969,-1.3729300498962403,-5.086750030517578],"max":[5.354400157928467,1.3515199422836304,2.305030107498169],"type":"VEC3","name":"part000_vertices#0_POSITION"},{"bufferView":2,"byteOffset":12,"componentType":5120,"count":932,"type":"VEC4","name":"part000_vertices#0_TANGENT"},{"bufferView":2,"byteOffset":16,"componentType":5120,"count":932,"type":"VEC4","name":"part000_vertices#0_NORMAL"},{"bufferView":2,"byteOffset":20,"componentType":5122,"count":932,"type":"VEC2","name":"part000_vertices#0_TEXCOORD_0"},{"bufferView":2,"byteOffset":24,"componentType":5122,"count":932,"type":"VEC2","name":"part000_vertices#0_TEXCOORD_1"},{"bufferView":2,"byteOffset":28,"componentType":5123,"count":932,"type":"VEC4","name":"part000_vertices#0_COLOR_0"},{"bufferView":3,"componentType":5123,"count":2844,"type":"SCALAR","name":"part000_indices#0"},{"bufferView":2,"byteOffset":33552,"componentType":5126,"count":8,"min":[-1.0572999715805054,-0.1102600023150444,-0.0018599999602884055],"max":[1.300719976425171,0.018650000914931299,0.3382900059223175],"type":"VEC3","name":"part001_vertices#0_POSITION"},{"bufferView":2,"byteOffset":33564,"componentType":5120,"count":8,"type":"VEC4","name":"part001_vertices#0_TANGENT"},{"bufferView":2,"byteOffset":33568,"componentType":5120,"count":8,"type":"VEC4","name":"part001_vertices#0_NORMAL"},{"bufferView":2,"byteOffset":33572,"componentType":5122,"count":8,"type":"VEC2","name":"part001_vertices#0_TEXCOORD_0"},{"bufferView":2,"byteOffset":33576,"componentType":5122,"count":8,"type":"VEC2","name":"part001_vertices#0_TEXCOORD_1"},{"bufferView":2,"byteOffset":33580,"componentType":5123,"count":8,"type":"VEC4","name":"part001_vertices#0_COLOR_0"},{"bufferView":3,"byteOffset":5688,"componentType":5123,"count":12,"type":"SCALAR","name":"part001_indices#0"},{"bufferView":2,"byteOffset":33840,"componentType":5126,"count":8,"min":[-1.2361400127410889,-0.10041999816894531,-0.0076299998909235],"max":[1.0780600309371949,0.04611999914050102,0.3285300135612488],"type":"VEC3","name":"part002_vertices#0_POSITION"},{"bufferView":2,"byteOffset":33852,"componentType":5120,"count":8,"type":"VEC4","name":"part002_vertices#0_TANGENT"},{"bufferView":2,"byteOffset":33856,"componentType":5120,"count":8,"type":"VEC4","name":"part002_vertices#0_NORMAL"},{"bufferView":2,"byteOffset":33860,"componentType":5122,"count":8,"type":"VEC2","name":"part002_vertices#0_TEXCOORD_0"},{"bufferView":2,"byteOffset":33864,"componentType":5122,"count":8,"type":"VEC2","name":"part002_vertices#0_TEXCOORD_1"},{"bufferView":2,"byteOffset":33868,"componentType":5123,"count":8,"type":"VEC4","name":"part002_vertices#0_COLOR_0"},{"bufferView":3,"byteOffset":5712,"componentType":5123,"count":12,"type":"SCALAR","name":"part002_indices#0"},{"bufferView":2,"byteOffset":34128,"componentType":5126,"count":6,"min":[-0.07565999776124954,0.08557000011205673,-0.016340000554919244],"max":[0.061080001294612887,0.9654899835586548,0.01566999964416027],"type":"VEC3","name":"part003_vertices#0_POSITION"},{"bufferView":2,"byteOffset":34140,"componentType":5120,"count":6,"type":"VEC4","name":"part003_vertices#0_TANGENT"},{"bufferView":2,"byteOffset":34144,"componentType":5120,"count":6,"type":"VEC4","name":"part003_vertices#0_NORMAL"},{"bufferView":2,"byteOffset":34148,"componentType":5122,"count":6,"type":"VEC2","name":"part003_vertices#0_TEXCOORD_0"},{"bufferView":2,"byteOffset":34152,"componentType":5122,"count":6,"type":"VEC2","name":"part003_vertices#0_TEXCOORD_1"},{"bufferView":2,"byteOffset":34156,"componentType":5123,"count":6,"type":"VEC4","name":"part003_vertices#0_COLOR_0"},{"bufferView":3,"byteOffset":5736,"componentType":5123,"count":12,"type":"SCALAR","name":"part003_indices#0"},{"bufferView":2,"byteOffset":34344,"componentType":5126,"count":6,"min":[-0.021640000864863397,0.08692999929189682,-0.0175199992954731],"max":[0.13872000575065614,0.971750020980835,0.015690000727772714],"type":"VEC3","name":"part004_vertices#0_POSITION"},{"bufferView":2,"byteOffset":34356,"componentType":5120,"count":6,"type":"VEC4","name":"part004_vertices#0_TANGENT"},{"bufferView":2,"byteOffset":34360,"componentType":5120,"count":6,"type":"VEC4","name":"part004_vertices#0_NORMAL"},{"bufferView":2,"byteOffset":34364,"componentType":5122,"count":6,"type":"VEC2","name":"part004_vertices#0_TEXCOORD_0"},{"bufferView":2,"byteOffset":34368,"componentType":5122,"count":6,"type":"VEC2","name":"part004_vertices#0_TEXCOORD_1"},{"bufferView":2,"byteOffset":34372,"componentType":5123,"count":6,"type":"VEC4","name":"part004_vertices#0_COLOR_0"},{"bufferView":3,"byteOffset":5760,"componentType":5123,"count":12,"type":"SCALAR","name":"part004_indices#0"},{"bufferView":2,"byteOffset":34560,"componentType":5126,"count":6,"min":[-0.07195000350475311,0.09059999883174896,-0.016340000554919244],"max":[0.0662899985909462,0.9696300029754639,0.01566999964416027],"type":"VEC3","name":"part005_vertices#0_POSITION"},{"bufferView":2,"byteOffset":34572,"componentType":5120,"count":6,"type":"VEC4","name":"part005_vertices#0_TANGENT"},{"bufferView":2,"byteOffset":34576,"componentType":5120,"count":6,"type":"VEC4","name":"part005_vertices#0_NORMAL"},{"bufferView":2,"byteOffset":34580,"componentType":5122,"count":6,"type":"VEC2","name":"part005_vertices#0_TEXCOORD_0"},{"bufferView":2,"byteOffset":34584,"componentType":5122,"count":6,"type":"VEC2","name":"part005_vertices#0_TEXCOORD_1"},{"bufferView":2,"byteOffset":34588,"componentType":5123,"count":6,"type":"VEC4","name":"part005_vertices#0_COLOR_0"},{"bufferView":3,"byteOffset":5784,"componentType":5123,"count":12,"type":"SCALAR","name":"part005_indices#0"},{"bufferView":2,"byteOffset":34776,"componentType":5126,"count":6,"min":[-0.022609999403357507,0.08457999676465988,-0.0175199992954731],"max":[0.13736000657081605,0.9702200293540955,0.015690000727772714],"type":"VEC3","name":"part006_vertices#0_POSITION"},{"bufferView":2,"byteOffset":34788,"componentType":5120,"count":6,"type":"VEC4","name":"part006_vertices#0_TANGENT"},{"bufferView":2,"byteOffset":34792,"componentType":5120,"count":6,"type":"VEC4","name":"part006_vertices#0_NORMAL"},{"bufferView":2,"byteOffset":34796,"componentType":5122,"count":6,"type":"VEC2","name":"part006_vertices#0_TEXCOORD_0"},{"bufferView":2,"byteOffset":34800,"componentType":5122,"count":6,"type":"VEC2","name":"part006_vertices#0_TEXCOORD_1"},{"bufferView":2,"byteOffset":34804,"componentType":5123,"count":6,"type":"VEC4","name":"part006_vertices#0_COLOR_0"},{"bufferView":3,"byteOffset":5808,"componentType":5123,"count":12,"type":"SCALAR","name":"part006_indices#0"},{"bufferView":2,"byteOffset":34992,"componentType":5126,"count":46,"min":[-1.9348700046539307,-0.601419985294342,-0.03728000074625015],"max":[1.9348700046539307,0.20294000208377839,0.030750000849366189],"type":"VEC3","name":"part007_vertices#0_POSITION"},{"bufferView":2,"byteOffset":35004,"componentType":5120,"count":46,"type":"VEC4","name":"part007_vertices#0_TANGENT"},{"bufferView":2,"byteOffset":35008,"componentType":5120,"count":46,"type":"VEC4","name":"part007_vertices#0_NORMAL"},{"bufferView":2,"byteOffset":35012,"componentType":5122,"count":46,"type":"VEC2","name":"part007_vertices#0_TEXCOORD_0"},{"bufferView":2,"byteOffset":35016,"componentType":5122,"count":46,"type":"VEC2","name":"part007_vertices#0_TEXCOORD_1"},{"bufferView":2,"byteOffset":35020,"componentType":5123,"count":46,"type":"VEC4","name":"part007_vertices#0_COLOR_0"},{"bufferView":3,"byteOffset":5832,"componentType":5123,"count":120,"type":"SCALAR","name":"part007_indices#0"}],"animations":[{"name":"custom_anim_FLAPS_SML_GA","channels":[{"sampler":0,"target":{"node":13,"path":"rotation"}},{"sampler":1,"target":{"node":16,"path":"rotation"}}],"samplers":[{"input":0,"output":1,"interpolation":"LINEAR"},{"input":2,"output":3,"interpolation":"LINEAR"}]},{"name":"engine0","channels":[{"sampler":0,"target":{"node":19,"path":"rotation"}},{"sampler":1,"target":{"node":22,"path":"rotation"}},{"sampler":2,"target":{"node":25,"path":"rotation"}},{"sampler":3,"target":{"node":28,"path":"rotation"}}],"samplers":[{"input":4,"output":5,"interpolation":"LINEAR"},{"input":6,"output":7,"interpolation":"LINEAR"},{"input":8,"output":9,"interpolation":"LINEAR"},{"input":10,"output":11,"interpolation":"LINEAR"}]},{"name":"elevator","channels":[{"sampler":0,"target":{"node":30,"path":"rotation"}}],"samplers":[{"input":12,"output":13,"interpolation":"LINEAR"}]}],"asset":{"generator":"ModelConverterX","version":"2.0","extensions":{"ASOBO_asset_optimized":{"BoundingBoxMax":[5.354400157928467,1.3515199422836304,2.305030107498169],"BoundingBoxMin":[-5.322380065917969,-1.3729300498962403,-5.086750030517578],"MajorVersion":4,"MinorVersion":4,"UseCheckerboardMaterialForMissingTextures":true,"UseOnlyFilenameForImageURI":true}}},"bufferViews":[{"buffer":0,"byteLength":124,"byteStride":4},{"buffer":0,"byteLength":496,"byteStride":16,"byteOffset":124},{"buffer":0,"byteLength":36648,"byteStride":36,"byteOffset":620,"target":34962,"name":"BufferViewVertexND"},{"buffer":0,"byteLength":6072,"byteOffset":37268,"target":34963,"name":"BufferViewIndex"}],"extensionsRequired":["MSFT_texture_dds"],"materials":[{"name":"material00","occlusionTexture":{"index":1},"emissiveTexture":{"index":2},"emissiveFactor":[0.019607843831181527,0.019607843831181527,0.019607843831181527],"pbrMetallicRoughness":{"baseColorTexture":{"index":0},"metallicRoughnessTexture":{"index":1}}}],"meshes":[{"primitives":[{"attributes":{"COLOR_0":19,"NORMAL":16,"POSITION":14,"TANGENT":15,"TEXCOORD_0":17,"TEXCOORD_1":18},"indices":20,"material":0,"mode":4,"extras":{"ASOBO_primitive":{"PrimitiveCount":948,"VertexType":"VTX","VertexVersion":2}}}],"name":"part000"},{"primitives":[{"attributes":{"COLOR_0":26,"NORMAL":23,"POSITION":21,"TANGENT":22,"TEXCOORD_0":24,"TEXCOORD_1":25},"indices":27,"material":0,"mode":4,"extras":{"ASOBO_primitive":{"PrimitiveCount":4,"VertexType":"VTX","VertexVersion":2}}}],"name":"part001"},{"primitives":[{"attributes":{"COLOR_0":33,"NORMAL":30,"POSITION":28,"TANGENT":29,"TEXCOORD_0":31,"TEXCOORD_1":32},"indices":34,"material":0,"mode":4,"extras":{"ASOBO_primitive":{"PrimitiveCount":4,"VertexType":"VTX","VertexVersion":2}}}],"name":"part002"},{"primitives":[{"attributes":{"COLOR_0":40,"NORMAL":37,"POSITION":35,"TANGENT":36,"TEXCOORD_0":38,"TEXCOORD_1":39},"indices":41,"material":0,"mode":4,"extras":{"ASOBO_primitive":{"PrimitiveCount":4,"VertexType":"VTX","VertexVersion":2}}}],"name":"part003"},{"primitives":[{"attributes":{"COLOR_0":47,"NORMAL":44,"POSITION":42,"TANGENT":43,"TEXCOORD_0":45,"TEXCOORD_1":46},"indices":48,"material":0,"mode":4,"extras":{"ASOBO_primitive":{"PrimitiveCount":4,"VertexType":"VTX","VertexVersion":2}}}],"name":"part004"},{"primitives":[{"attributes":{"COLOR_0":54,"NORMAL":51,"POSITION":49,"TANGENT":50,"TEXCOORD_0":52,"TEXCOORD_1":53},"indices":55,"material":0,"mode":4,"extras":{"ASOBO_primitive":{"PrimitiveCount":4,"VertexType":"VTX","VertexVersion":2}}}],"name":"part005"},{"primitives":[{"attributes":{"COLOR_0":61,"NORMAL":58,"POSITION":56,"TANGENT":57,"TEXCOORD_0":59,"TEXCOORD_1":60},"indices":62,"material":0,"mode":4,"extras":{"ASOBO_primitive":{"PrimitiveCount":4,"VertexType":"VTX","VertexVersion":2}}}],"name":"part006"},{"primitives":[{"attributes":{"COLOR_0":68,"NORMAL":65,"POSITION":63,"TANGENT":64,"TEXCOORD_0":66,"TEXCOORD_1":67},"indices":69,"material":0,"mode":4,"extras":{"ASOBO_primitive":{"PrimitiveCount":40,"VertexType":"VTX","VertexVersion":2}}}],"name":"part007"}],"nodes":[{"name":"node_0","children":[1,2,3,4,5,6,7,8,9,10]},{"mesh":0,"name":"node_4"},{"translation":[-1.5,-1.2999999523162842,-0.8000000119209291],"rotation":[-6.123031769111886e-17,0.0,1.0,0.0],"scale":[1.0,1.0,1.0],"name":"r_tire1"},{"translation":[1.5,-1.2999999523162842,-0.8000000119209288],"rotation":[-6.123031769111886e-17,0.0,1.0,0.0],"scale":[1.0,1.0,1.0],"name":"l_tire1"},{"translation":[-1.4695276829806339e-16,-1.350000023841858,1.2000000476837159],"rotation":[-6.123031769111886e-17,0.0,1.0,0.0],"scale":[1.0,1.0,1.0],"name":"c_tire1"},{"translation":[-5.260000228881836,-0.07999999821186066,-0.2099999934434897],"rotation":[-6.123031769111886e-17,3.061515884555943e-17,1.0,1.874575902277672e-33],"scale":[1.0,1.0,1.0],"name":"Right_Taxi"},{"translation":[5.239999771118164,-0.07999999821186066,-0.20999999344348845],"rotation":[-6.123031769111886e-17,3.061515884555943e-17,1.0,1.874575902277672e-33],"scale":[1.0,1.0,1.0],"name":"Left_Taxi"},{"translation":[5.230000019073486,-0.07999999821186066,-0.20999999344348845],"rotation":[-6.123031769111886e-17,3.061515884555943e-17,1.0,1.874575902277672e-33],"scale":[1.0,1.0,1.0],"name":"Left_Landing"},{"translation":[-5.269999980926514,-0.07999999821186066,-0.2099999934434897],"rotation":[-6.123031769111886e-17,3.061515884555943e-17,1.0,1.874575902277672e-33],"scale":[1.0,1.0,1.0],"name":"Right_Landing"},{"translation":[6.123031769111886e-16,0.0,-5.0],"rotation":[-6.123031769111886e-17,0.0,1.0,0.0],"scale":[1.0,1.0,1.0],"name":"contrail1"},{"translation":[0.0,0.0,0.0],"rotation":[-4.329637285359677e-17,0.7071067811865475,0.7071067811865475,4.329637285359677e-17],"scale":[1.0,1.0,1.0],"name":"node_21","children":[11,14,17,20,23,26,29]},{"translation":[-1.7727940082550049,-1.202394962310791,-0.41104298830032356],"rotation":[0.7062870865952183,0.034037498569056277,-0.034037498569056277,0.7062870865952183],"scale":[1.0,1.0,1.0],"name":"node_22","children":[12]},{"name":"node_23","children":[13]},{"mesh":1,"name":"custom_anim_FLAPS_SML_GA_AN_23"},{"translation":[1.7522339820861817,-1.2076220512390137,-0.4346559941768646],"rotation":[0.7051721682156975,-0.052270576560546937,0.052270576560546937,0.7051721682156975],"scale":[1.0,1.0,1.0],"name":"node_24","children":[15]},{"name":"node_25","children":[16]},{"mesh":2,"name":"custom_anim_FLAPS_SML_GA_AN_25"},{"translation":[0.021189000457525255,1.9565420150756837,-0.1709980070590973],"rotation":[0.4056146771437781,-0.579203533902849,0.579203533902849,0.4056146771437781],"scale":[1.0,1.0,1.0],"name":"node_30","children":[18]},{"name":"prop0_still_VC_0","children":[19]},{"mesh":3,"name":"engine0_AN_0"},{"translation":[0.02115900069475174,1.9564939737319945,-0.16808299720287324],"rotation":[0.607711464571008,0.3561640941873806,-0.3617246481527936,0.6108273107315778],"scale":[1.0,1.0,1.0],"name":"node_33","children":[21]},{"name":"prop0_still_VC_1","children":[22]},{"mesh":4,"name":"engine0_AN_1"},{"translation":[0.020563999190926553,1.9565420150756837,-0.168955996632576],"rotation":[0.5862091979952068,0.39542227578351776,-0.39542227578351776,0.5862091979952068],"scale":[1.0,1.0,1.0],"name":"node_36","children":[24]},{"name":"prop0_still_VC_2","children":[25]},{"mesh":5,"name":"engine0_AN_2"},{"translation":[0.015948999673128129,1.9564939737319945,-0.1709509938955307],"rotation":[-0.37479721422575548,0.6030263762641172,-0.5996223197115255,-0.3692642948823689],"scale":[1.0,1.0,1.0],"name":"node_39","children":[27]},{"name":"prop0_still_VC_3","children":[28]},{"mesh":6,"name":"engine0_AN_3"},{"translation":[0.005861999932676554,-4.388683795928955,-0.15436600148677827],"rotation":[0.0,0.0,0.0,1.0],"scale":[1.0,1.0,1.0],"name":"node_76","children":[30]},{"mesh":7,"name":"elevator_AN_76"}],"scene":0,"scenes":[{"nodes":[0]}],"textures":[{"extensions":{"MSFT_texture_dds":{"source":0}}},{"extensions":{"MSFT_texture_dds":{"source":1}}},{"extensions":{"MSFT_texture_dds":{"source":2}}}],"extensionsUsed":["MSFT_texture_dds","ASOBO_asset_optimized"],"buffers":[{"byteLength":43340,"uri":"ANAI_Piper_Archer_III_F_MSFS_LOD3.bin"}],"images":[{"uri":"AI_ARCHER.PNG.DDS","extras":"ASOBO_image_converted_meta"},{"uri":"AI_ARCHER_C.PNG.DDS","extras":"ASOBO_image_converted_meta"},{"uri":"AI_ARCHER_L.PNG.DDS","extras":"ASOBO_image_converted_meta"}]}
