{"accessors":[{"bufferView":0,"componentType":5126,"count":3,"min":[0.0],"max":[200.0],"type":"SCALAR"},{"bufferView":1,"componentType":5126,"count":3,"type":"VEC3"},{"bufferView":0,"byteOffset":12,"componentType":5126,"count":3,"min":[0.0],"max":[200.0],"type":"SCALAR"},{"bufferView":2,"componentType":5126,"count":3,"type":"VEC4"},{"bufferView":0,"byteOffset":24,"componentType":5126,"count":3,"min":[0.0],"max":[200.0],"type":"SCALAR"},{"bufferView":2,"byteOffset":48,"componentType":5126,"count":3,"type":"VEC4"},{"bufferView":0,"byteOffset":36,"componentType":5126,"count":2,"min":[0.0],"max":[100.0],"type":"SCALAR"},{"bufferView":2,"byteOffset":96,"componentType":5126,"count":2,"type":"VEC4"},{"bufferView":0,"byteOffset":44,"componentType":5126,"count":2,"min":[0.0],"max":[100.0],"type":"SCALAR"},{"bufferView":2,"byteOffset":128,"componentType":5126,"count":2,"type":"VEC4"},{"bufferView":0,"byteOffset":52,"componentType":5126,"count":2,"min":[0.0],"max":[100.0],"type":"SCALAR"},{"bufferView":2,"byteOffset":160,"componentType":5126,"count":2,"type":"VEC4"},{"bufferView":0,"byteOffset":60,"componentType":5126,"count":2,"min":[0.0],"max":[100.0],"type":"SCALAR"},{"bufferView":2,"byteOffset":192,"componentType":5126,"count":2,"type":"VEC4"},{"bufferView":0,"byteOffset":68,"componentType":5126,"count":2,"min":[0.0],"max":[100.0],"type":"SCALAR"},{"bufferView":2,"byteOffset":224,"componentType":5126,"count":2,"type":"VEC4"},{"bufferView":0,"byteOffset":76,"componentType":5126,"count":2,"min":[0.0],"max":[100.0],"type":"SCALAR"},{"bufferView":2,"byteOffset":256,"componentType":5126,"count":2,"type":"VEC4"},{"bufferView":3,"componentType":5126,"count":285,"min":[-7.105599880218506,-0.4874899983406067,-7.7309699058532719],"max":[7.1056599617004398,2.85014009475708,4.169919967651367],"type":"VEC3","name":"part000_vertices#0_POSITION"},{"bufferView":3,"byteOffset":12,"componentType":5120,"count":285,"type":"VEC4","name":"part000_vertices#0_TANGENT"},{"bufferView":3,"byteOffset":16,"componentType":5120,"count":285,"type":"VEC4","name":"part000_vertices#0_NORMAL"},{"bufferView":3,"byteOffset":20,"componentType":5122,"count":285,"type":"VEC2","name":"part000_vertices#0_TEXCOORD_0"},{"bufferView":3,"byteOffset":24,"componentType":5122,"count":285,"type":"VEC2","name":"part000_vertices#0_TEXCOORD_1"},{"bufferView":3,"byteOffset":28,"componentType":5123,"count":285,"type":"VEC4","name":"part000_vertices#0_COLOR_0"},{"bufferView":4,"componentType":5123,"count":750,"type":"SCALAR","name":"part000_indices#0"},{"bufferView":3,"byteOffset":10260,"componentType":5126,"count":16,"min":[0.0,-0.2219499945640564,-1.0442999601364136],"max":[0.0,0.20975999534130097,-0.6125900149345398],"type":"VEC3","name":"part001_vertices#0_POSITION"},{"bufferView":3,"byteOffset":10272,"componentType":5120,"count":16,"type":"VEC4","name":"part001_vertices#0_TANGENT"},{"bufferView":3,"byteOffset":10276,"componentType":5120,"count":16,"type":"VEC4","name":"part001_vertices#0_NORMAL"},{"bufferView":3,"byteOffset":10280,"componentType":5122,"count":16,"type":"VEC2","name":"part001_vertices#0_TEXCOORD_0"},{"bufferView":3,"byteOffset":10284,"componentType":5122,"count":16,"type":"VEC2","name":"part001_vertices#0_TEXCOORD_1"},{"bufferView":3,"byteOffset":10288,"componentType":5123,"count":16,"type":"VEC4","name":"part001_vertices#0_COLOR_0"},{"bufferView":4,"byteOffset":1500,"componentType":5123,"count":108,"type":"SCALAR","name":"part001_indices#0"},{"bufferView":3,"byteOffset":10836,"componentType":5126,"count":8,"min":[-0.02800000086426735,-0.04588000103831291,-0.5166900157928467],"max":[0.0313199982047081,-0.0017999999690800906,-0.4113300144672394],"type":"VEC3","name":"part002_vertices#0_POSITION"},{"bufferView":3,"byteOffset":10848,"componentType":5120,"count":8,"type":"VEC4","name":"part002_vertices#0_TANGENT"},{"bufferView":3,"byteOffset":10852,"componentType":5120,"count":8,"type":"VEC4","name":"part002_vertices#0_NORMAL"},{"bufferView":3,"byteOffset":10856,"componentType":5122,"count":8,"type":"VEC2","name":"part002_vertices#0_TEXCOORD_0"},{"bufferView":3,"byteOffset":10860,"componentType":5122,"count":8,"type":"VEC2","name":"part002_vertices#0_TEXCOORD_1"},{"bufferView":3,"byteOffset":10864,"componentType":5123,"count":8,"type":"VEC4","name":"part002_vertices#0_COLOR_0"},{"bufferView":4,"byteOffset":1716,"componentType":5123,"count":12,"type":"SCALAR","name":"part002_indices#0"},{"bufferView":3,"byteOffset":11124,"componentType":5126,"count":16,"min":[-0.027130000293254854,-0.26802998781204226,-1.0035200119018555],"max":[-0.027130000293254854,0.27656999230384829,-0.4589099884033203],"type":"VEC3","name":"part003_vertices#0_POSITION"},{"bufferView":3,"byteOffset":11136,"componentType":5120,"count":16,"type":"VEC4","name":"part003_vertices#0_TANGENT"},{"bufferView":3,"byteOffset":11140,"componentType":5120,"count":16,"type":"VEC4","name":"part003_vertices#0_NORMAL"},{"bufferView":3,"byteOffset":11144,"componentType":5122,"count":16,"type":"VEC2","name":"part003_vertices#0_TEXCOORD_0"},{"bufferView":3,"byteOffset":11148,"componentType":5122,"count":16,"type":"VEC2","name":"part003_vertices#0_TEXCOORD_1"},{"bufferView":3,"byteOffset":11152,"componentType":5123,"count":16,"type":"VEC4","name":"part003_vertices#0_COLOR_0"},{"bufferView":4,"byteOffset":1740,"componentType":5123,"count":108,"type":"SCALAR","name":"part003_indices#0"},{"bufferView":3,"byteOffset":11700,"componentType":5126,"count":4,"min":[0.05366000160574913,-0.011610000394284726,-0.632889986038208],"max":[0.05366000160574913,0.40244001150131228,-0.059050001204013827],"type":"VEC3","name":"part004_vertices#0_POSITION"},{"bufferView":3,"byteOffset":11712,"componentType":5120,"count":4,"type":"VEC4","name":"part004_vertices#0_TANGENT"},{"bufferView":3,"byteOffset":11716,"componentType":5120,"count":4,"type":"VEC4","name":"part004_vertices#0_NORMAL"},{"bufferView":3,"byteOffset":11720,"componentType":5122,"count":4,"type":"VEC2","name":"part004_vertices#0_TEXCOORD_0"},{"bufferView":3,"byteOffset":11724,"componentType":5122,"count":4,"type":"VEC2","name":"part004_vertices#0_TEXCOORD_1"},{"bufferView":3,"byteOffset":11728,"componentType":5123,"count":4,"type":"VEC4","name":"part004_vertices#0_COLOR_0"},{"bufferView":4,"byteOffset":1956,"componentType":5123,"count":6,"type":"SCALAR","name":"part004_indices#0"},{"bufferView":3,"byteOffset":11844,"componentType":5126,"count":12,"min":[-0.2627300024032593,-0.3023200035095215,-0.700659990310669],"max":[-0.0022700000554323198,0.22125999629497529,-0.012009999714791775],"type":"VEC3","name":"part005_vertices#0_POSITION"},{"bufferView":3,"byteOffset":11856,"componentType":5120,"count":12,"type":"VEC4","name":"part005_vertices#0_TANGENT"},{"bufferView":3,"byteOffset":11860,"componentType":5120,"count":12,"type":"VEC4","name":"part005_vertices#0_NORMAL"},{"bufferView":3,"byteOffset":11864,"componentType":5122,"count":12,"type":"VEC2","name":"part005_vertices#0_TEXCOORD_0"},{"bufferView":3,"byteOffset":11868,"componentType":5122,"count":12,"type":"VEC2","name":"part005_vertices#0_TEXCOORD_1"},{"bufferView":3,"byteOffset":11872,"componentType":5123,"count":12,"type":"VEC4","name":"part005_vertices#0_COLOR_0"},{"bufferView":4,"byteOffset":1968,"componentType":5123,"count":12,"type":"SCALAR","name":"part005_indices#0"},{"bufferView":3,"byteOffset":12276,"componentType":5126,"count":12,"min":[0.0022700000554323198,-0.3023200035095215,-0.700659990310669],"max":[0.2627300024032593,0.22125999629497529,-0.012009999714791775],"type":"VEC3","name":"part006_vertices#0_POSITION"},{"bufferView":3,"byteOffset":12288,"componentType":5120,"count":12,"type":"VEC4","name":"part006_vertices#0_TANGENT"},{"bufferView":3,"byteOffset":12292,"componentType":5120,"count":12,"type":"VEC4","name":"part006_vertices#0_NORMAL"},{"bufferView":3,"byteOffset":12296,"componentType":5122,"count":12,"type":"VEC2","name":"part006_vertices#0_TEXCOORD_0"},{"bufferView":3,"byteOffset":12300,"componentType":5122,"count":12,"type":"VEC2","name":"part006_vertices#0_TEXCOORD_1"},{"bufferView":3,"byteOffset":12304,"componentType":5123,"count":12,"type":"VEC4","name":"part006_vertices#0_COLOR_0"},{"bufferView":4,"byteOffset":1992,"componentType":5123,"count":12,"type":"SCALAR","name":"part006_indices#0"},{"bufferView":3,"byteOffset":12708,"componentType":5126,"count":16,"min":[0.027130000293254854,-0.26802998781204226,-1.0035200119018555],"max":[0.027130000293254854,0.27656999230384829,-0.4589099884033203],"type":"VEC3","name":"part007_vertices#0_POSITION"},{"bufferView":3,"byteOffset":12720,"componentType":5120,"count":16,"type":"VEC4","name":"part007_vertices#0_TANGENT"},{"bufferView":3,"byteOffset":12724,"componentType":5120,"count":16,"type":"VEC4","name":"part007_vertices#0_NORMAL"},{"bufferView":3,"byteOffset":12728,"componentType":5122,"count":16,"type":"VEC2","name":"part007_vertices#0_TEXCOORD_0"},{"bufferView":3,"byteOffset":12732,"componentType":5122,"count":16,"type":"VEC2","name":"part007_vertices#0_TEXCOORD_1"},{"bufferView":3,"byteOffset":12736,"componentType":5123,"count":16,"type":"VEC4","name":"part007_vertices#0_COLOR_0"},{"bufferView":4,"byteOffset":2016,"componentType":5123,"count":108,"type":"SCALAR","name":"part007_indices#0"},{"bufferView":3,"byteOffset":13284,"componentType":5126,"count":4,"min":[-0.05366000160574913,-0.011540000326931477,-0.6317700147628784],"max":[-0.05366000160574913,0.40250998735427859,-0.057920001447200778],"type":"VEC3","name":"part008_vertices#0_POSITION"},{"bufferView":3,"byteOffset":13296,"componentType":5120,"count":4,"type":"VEC4","name":"part008_vertices#0_TANGENT"},{"bufferView":3,"byteOffset":13300,"componentType":5120,"count":4,"type":"VEC4","name":"part008_vertices#0_NORMAL"},{"bufferView":3,"byteOffset":13304,"componentType":5122,"count":4,"type":"VEC2","name":"part008_vertices#0_TEXCOORD_0"},{"bufferView":3,"byteOffset":13308,"componentType":5122,"count":4,"type":"VEC2","name":"part008_vertices#0_TEXCOORD_1"},{"bufferView":3,"byteOffset":13312,"componentType":5123,"count":4,"type":"VEC4","name":"part008_vertices#0_COLOR_0"},{"bufferView":4,"byteOffset":2232,"componentType":5123,"count":6,"type":"SCALAR","name":"part008_indices#0"}],"animations":[{"name":"c_gear","channels":[{"sampler":0,"target":{"node":11,"path":"translation"}},{"sampler":1,"target":{"node":13,"path":"rotation"}},{"sampler":2,"target":{"node":17,"path":"rotation"}}],"samplers":[{"input":0,"output":1,"interpolation":"LINEAR"},{"input":2,"output":3,"interpolation":"LINEAR"},{"input":4,"output":5,"interpolation":"LINEAR"}]},{"name":"l_gear","channels":[{"sampler":0,"target":{"node":20,"path":"rotation"}},{"sampler":1,"target":{"node":22,"path":"rotation"}},{"sampler":2,"target":{"node":25,"path":"rotation"}}],"samplers":[{"input":6,"output":7,"interpolation":"LINEAR"},{"input":8,"output":9,"interpolation":"LINEAR"},{"input":10,"output":11,"interpolation":"LINEAR"}]},{"name":"r_gear","channels":[{"sampler":0,"target":{"node":28,"path":"rotation"}},{"sampler":1,"target":{"node":31,"path":"rotation"}},{"sampler":2,"target":{"node":33,"path":"rotation"}}],"samplers":[{"input":12,"output":13,"interpolation":"LINEAR"},{"input":14,"output":15,"interpolation":"LINEAR"},{"input":16,"output":17,"interpolation":"LINEAR"}]}],"asset":{"generator":"ModelConverterX","version":"2.0","extensions":{"ASOBO_asset_optimized":{"BoundingBoxMax":[7.1056599617004398,2.85014009475708,4.169919967651367],"BoundingBoxMin":[-7.105599880218506,-0.4874899983406067,-7.7309699058532719],"MajorVersion":4,"MinorVersion":4,"UseCheckerboardMaterialForMissingTextures":true,"UseOnlyFilenameForImageURI":true}}},"bufferViews":[{"buffer":0,"byteLength":84,"byteStride":4},{"buffer":0,"byteLength":36,"byteStride":12,"byteOffset":84},{"buffer":0,"byteLength":288,"byteStride":16,"byteOffset":120},{"buffer":0,"byteLength":13428,"byteStride":36,"byteOffset":408,"target":34962,"name":"BufferViewVertexND"},{"buffer":0,"byteLength":2244,"byteOffset":13836,"target":34963,"name":"BufferViewIndex"}],"extensionsRequired":["MSFT_texture_dds"],"materials":[{"name":"material00","emissiveTexture":{"index":1},"emissiveFactor":[0.019607843831181527,0.019607843831181527,0.019607843831181527],"pbrMetallicRoughness":{"metallicFactor":0.0,"baseColorTexture":{"index":0}},"extensions":{"ASOBO_material_day_night_switch":{}}},{"name":"material01","pbrMetallicRoughness":{"baseColorFactor":[0.4392159879207611,0.4392159879207611,0.4392159879207611,1.0],"metallicFactor":0.0}},{"name":"material02","pbrMetallicRoughness":{"metallicFactor":0.0}}],"meshes":[{"primitives":[{"attributes":{"COLOR_0":23,"NORMAL":20,"POSITION":18,"TANGENT":19,"TEXCOORD_0":21,"TEXCOORD_1":22},"indices":24,"material":0,"mode":4,"extras":{"ASOBO_primitive":{"PrimitiveCount":250,"VertexType":"VTX","VertexVersion":2}}}],"name":"part000"},{"primitives":[{"attributes":{"COLOR_0":30,"NORMAL":27,"POSITION":25,"TANGENT":26,"TEXCOORD_0":28,"TEXCOORD_1":29},"indices":31,"material":0,"mode":4,"extras":{"ASOBO_primitive":{"PrimitiveCount":36,"VertexType":"VTX","VertexVersion":2}}}],"name":"part001"},{"primitives":[{"attributes":{"COLOR_0":37,"NORMAL":34,"POSITION":32,"TANGENT":33,"TEXCOORD_0":35,"TEXCOORD_1":36},"indices":38,"material":1,"mode":4,"extras":{"ASOBO_primitive":{"PrimitiveCount":4,"VertexType":"VTX","VertexVersion":2}}}],"name":"part002"},{"primitives":[{"attributes":{"COLOR_0":44,"NORMAL":41,"POSITION":39,"TANGENT":40,"TEXCOORD_0":42,"TEXCOORD_1":43},"indices":45,"material":0,"mode":4,"extras":{"ASOBO_primitive":{"PrimitiveCount":36,"VertexType":"VTX","VertexVersion":2}}}],"name":"part003"},{"primitives":[{"attributes":{"COLOR_0":51,"NORMAL":48,"POSITION":46,"TANGENT":47,"TEXCOORD_0":49,"TEXCOORD_1":50},"indices":52,"material":2,"mode":4,"extras":{"ASOBO_primitive":{"PrimitiveCount":2,"VertexType":"VTX","VertexVersion":2}}}],"name":"part004"},{"primitives":[{"attributes":{"COLOR_0":58,"NORMAL":55,"POSITION":53,"TANGENT":54,"TEXCOORD_0":56,"TEXCOORD_1":57},"indices":59,"material":0,"mode":4,"extras":{"ASOBO_primitive":{"PrimitiveCount":4,"VertexType":"VTX","VertexVersion":2}}}],"name":"part005"},{"primitives":[{"attributes":{"COLOR_0":65,"NORMAL":62,"POSITION":60,"TANGENT":61,"TEXCOORD_0":63,"TEXCOORD_1":64},"indices":66,"material":0,"mode":4,"extras":{"ASOBO_primitive":{"PrimitiveCount":4,"VertexType":"VTX","VertexVersion":2}}}],"name":"part006"},{"primitives":[{"attributes":{"COLOR_0":72,"NORMAL":69,"POSITION":67,"TANGENT":68,"TEXCOORD_0":70,"TEXCOORD_1":71},"indices":73,"material":0,"mode":4,"extras":{"ASOBO_primitive":{"PrimitiveCount":36,"VertexType":"VTX","VertexVersion":2}}}],"name":"part007"},{"primitives":[{"attributes":{"COLOR_0":79,"NORMAL":76,"POSITION":74,"TANGENT":75,"TEXCOORD_0":77,"TEXCOORD_1":78},"indices":80,"material":2,"mode":4,"extras":{"ASOBO_primitive":{"PrimitiveCount":2,"VertexType":"VTX","VertexVersion":2}}}],"name":"part008"}],"nodes":[{"name":"node_0","children":[1,2,3,4,5,6,7,8,9]},{"mesh":0,"name":"node_2"},{"translation":[2.5000000000000006,-0.25,-2.400000095367431],"rotation":[-6.123031769111886e-17,3.061515884555943e-17,1.0,1.874575902277672e-33],"scale":[1.0,1.0,1.0],"name":"contrail1"},{"translation":[6.840000152587891,-0.029999999329447744,-0.4000000059604637],"rotation":[-0.7071067811865475,0.0,0.0,0.7071067811865475],"scale":[1.0,1.0,1.0],"name":"landing_l"},{"translation":[-6.840000152587891,-0.029999999329447744,-0.40000000596046528],"rotation":[-0.7071067811865475,0.0,0.0,0.7071067811865475],"scale":[1.0,1.0,1.0],"name":"landing_r"},{"translation":[-2.4999999999999997,-0.25,-2.400000095367432],"rotation":[-6.123031769111886e-17,3.061515884555943e-17,1.0,1.874575902277672e-33],"scale":[1.0,1.0,1.0],"name":"contrail2"},{"translation":[-3.428897732308875e-16,-1.25,2.799999952316284],"rotation":[-6.123031769111886e-17,3.061515884555943e-17,1.0,1.874575902277672e-33],"scale":[1.0,1.0,1.0],"name":"c_tire1"},{"translation":[2.0199999809265138,-1.2999999523162842,-0.9999999999999997],"rotation":[-6.123031769111886e-17,3.061515884555943e-17,1.0,1.874575902277672e-33],"scale":[1.0,1.0,1.0],"name":"l_tire1"},{"translation":[-2.0199999809265138,-1.2999999523162842,-1.0000000000000003],"rotation":[-6.123031769111886e-17,3.061515884555943e-17,1.0,1.874575902277672e-33],"scale":[1.0,1.0,1.0],"name":"r_tire1"},{"translation":[0.0,0.0,0.0],"rotation":[-4.329637285359677e-17,0.7071067811865475,0.7071067811865475,4.329637285359677e-17],"scale":[1.0,1.0,1.0],"name":"node_22","children":[10,18,23,26,29]},{"name":"node_43","children":[11]},{"name":"c_gear_AN_43","children":[12,16]},{"name":"node_44","children":[13]},{"mesh":1,"name":"c_gear_AN_44","children":[14,15]},{"translation":[0.002133999951183796,0.09647499769926073,-0.324084997177124],"rotation":[0.0,0.0,1.0,-6.123031769111886e-17],"scale":[1.0,1.0,1.0],"name":"taxi"},{"translation":[0.002133999951183796,0.09647499769926073,-0.324084997177124],"rotation":[0.0,0.0,1.0,-6.123031769111886e-17],"scale":[1.0,1.0,1.0],"name":"landing_nose"},{"name":"node_50","children":[17]},{"mesh":2,"name":"c_gear_AN_50"},{"translation":[-1.9958300590515137,-0.8784340023994447,-0.3322319984436035],"rotation":[0.0,0.0,0.0,1.0],"scale":[1.0,1.0,1.0],"name":"node_63","children":[19,21]},{"name":"node_64","children":[20]},{"mesh":3,"name":"l_gear_AN_64"},{"name":"node_68","children":[22]},{"mesh":4,"name":"l_gear_AN_68"},{"translation":[-2.043073892593384,-0.6102100014686585,-0.28285399079322817],"rotation":[0.0,0.0,0.0,1.0],"scale":[1.0,1.0,1.0],"name":"node_80","children":[24]},{"name":"node_81","children":[25]},{"mesh":5,"name":"l_gear_AN_81"},{"translation":[2.043073892593384,-0.6102100014686585,-0.28285399079322817],"rotation":[0.0,0.0,0.0,1.0],"scale":[1.0,1.0,1.0],"name":"node_86","children":[27]},{"name":"node_87","children":[28]},{"mesh":6,"name":"r_gear_AN_87"},{"translation":[1.9958300590515137,-0.8784340023994447,-0.3322319984436035],"rotation":[0.0,0.0,0.0,1.0],"scale":[1.0,1.0,1.0],"name":"node_92","children":[30,32]},{"name":"node_93","children":[31]},{"mesh":7,"name":"r_gear_AN_93"},{"name":"node_97","children":[33]},{"mesh":8,"name":"r_gear_AN_97"}],"scene":0,"scenes":[{"nodes":[0]}],"textures":[{"extensions":{"MSFT_texture_dds":{"source":0}}},{"extensions":{"MSFT_texture_dds":{"source":1}}}],"extensionsUsed":["ASOBO_material_day_night_switch","MSFT_texture_dds","ASOBO_asset_optimized"],"buffers":[{"byteLength":16080,"uri":"HTAI_Cessna_404_Titan_MSFS_LOD4.bin"}],"images":[{"uri":"AI404.PNG.DDS","extras":"ASOBO_image_converted_meta"},{"uri":"CABIN_LIGHTS.PNG.DDS","extras":"ASOBO_image_converted_meta"}]}
