{"accessors":[{"bufferView":0,"componentType":5126,"count":2,"min":[0.0],"max":[100.0],"type":"SCALAR"},{"bufferView":1,"componentType":5126,"count":2,"type":"VEC4"},{"bufferView":0,"byteOffset":8,"componentType":5126,"count":2,"min":[0.0],"max":[100.0],"type":"SCALAR"},{"bufferView":1,"byteOffset":32,"componentType":5126,"count":2,"type":"VEC4"},{"bufferView":0,"byteOffset":16,"componentType":5126,"count":5,"min":[0.0],"max":[100.0],"type":"SCALAR"},{"bufferView":1,"byteOffset":64,"componentType":5126,"count":5,"type":"VEC4"},{"bufferView":0,"byteOffset":36,"componentType":5126,"count":5,"min":[0.0],"max":[100.0],"type":"SCALAR"},{"bufferView":1,"byteOffset":144,"componentType":5126,"count":5,"type":"VEC4"},{"bufferView":0,"byteOffset":56,"componentType":5126,"count":5,"min":[0.0],"max":[100.0],"type":"SCALAR"},{"bufferView":1,"byteOffset":224,"componentType":5126,"count":5,"type":"VEC4"},{"bufferView":0,"byteOffset":76,"componentType":5126,"count":5,"min":[0.0],"max":[100.0],"type":"SCALAR"},{"bufferView":1,"byteOffset":304,"componentType":5126,"count":5,"type":"VEC4"},{"bufferView":2,"componentType":5126,"count":11,"min":[-2.8495800495147707,-0.3288800120353699,1.318869948387146],"max":[2.8495800495147707,0.5212100148200989,2.056030035018921],"type":"VEC3","name":"part000_vertices#0_POSITION"},{"bufferView":2,"byteOffset":12,"componentType":5120,"count":11,"type":"VEC4","name":"part000_vertices#0_TANGENT"},{"bufferView":2,"byteOffset":16,"componentType":5120,"count":11,"type":"VEC4","name":"part000_vertices#0_NORMAL"},{"bufferView":2,"byteOffset":20,"componentType":5122,"count":11,"type":"VEC2","name":"part000_vertices#0_TEXCOORD_0"},{"bufferView":2,"byteOffset":24,"componentType":5122,"count":11,"type":"VEC2","name":"part000_vertices#0_TEXCOORD_1"},{"bufferView":2,"byteOffset":28,"componentType":5123,"count":11,"type":"VEC4","name":"part000_vertices#0_COLOR_0"},{"bufferView":3,"componentType":5123,"count":21,"type":"SCALAR","name":"part000_indices#0"},{"bufferView":2,"byteOffset":396,"componentType":5126,"count":44,"min":[-2.922420024871826,-0.5093200206756592,1.3374600410461426],"max":[2.922420024871826,0.0841199979186058,1.9734300374984742],"type":"VEC3","name":"part001_vertices#0_POSITION"},{"bufferView":2,"byteOffset":408,"componentType":5120,"count":44,"type":"VEC4","name":"part001_vertices#0_TANGENT"},{"bufferView":2,"byteOffset":412,"componentType":5120,"count":44,"type":"VEC4","name":"part001_vertices#0_NORMAL"},{"bufferView":2,"byteOffset":416,"componentType":5122,"count":44,"type":"VEC2","name":"part001_vertices#0_TEXCOORD_0"},{"bufferView":2,"byteOffset":420,"componentType":5122,"count":44,"type":"VEC2","name":"part001_vertices#0_TEXCOORD_1"},{"bufferView":2,"byteOffset":424,"componentType":5123,"count":44,"type":"VEC4","name":"part001_vertices#0_COLOR_0"},{"bufferView":3,"byteOffset":42,"componentType":5123,"count":108,"type":"SCALAR","name":"part001_indices#0"},{"bufferView":2,"byteOffset":1980,"componentType":5126,"count":390,"min":[-8.802619934082032,-0.5763800144195557,-10.790189743041993],"max":[8.802619934082032,3.2945199012756349,6.993030071258545],"type":"VEC3","name":"part002_vertices#0_POSITION"},{"bufferView":2,"byteOffset":1992,"componentType":5120,"count":390,"type":"VEC4","name":"part002_vertices#0_TANGENT"},{"bufferView":2,"byteOffset":1996,"componentType":5120,"count":390,"type":"VEC4","name":"part002_vertices#0_NORMAL"},{"bufferView":2,"byteOffset":2000,"componentType":5122,"count":390,"type":"VEC2","name":"part002_vertices#0_TEXCOORD_0"},{"bufferView":2,"byteOffset":2004,"componentType":5122,"count":390,"type":"VEC2","name":"part002_vertices#0_TEXCOORD_1"},{"bufferView":2,"byteOffset":2008,"componentType":5123,"count":390,"type":"VEC4","name":"part002_vertices#0_COLOR_0"},{"bufferView":3,"byteOffset":258,"componentType":5123,"count":843,"type":"SCALAR","name":"part002_indices#0"},{"bufferView":2,"byteOffset":16020,"componentType":5126,"count":9,"min":[-0.22311000525951386,-0.03717000037431717,-0.33427000045776369],"max":[0.22311000525951386,-0.0009299999801442027,0.01001999992877245],"type":"VEC3","name":"part003_vertices#0_POSITION"},{"bufferView":2,"byteOffset":16032,"componentType":5120,"count":9,"type":"VEC4","name":"part003_vertices#0_TANGENT"},{"bufferView":2,"byteOffset":16036,"componentType":5120,"count":9,"type":"VEC4","name":"part003_vertices#0_NORMAL"},{"bufferView":2,"byteOffset":16040,"componentType":5122,"count":9,"type":"VEC2","name":"part003_vertices#0_TEXCOORD_0"},{"bufferView":2,"byteOffset":16044,"componentType":5122,"count":9,"type":"VEC2","name":"part003_vertices#0_TEXCOORD_1"},{"bufferView":2,"byteOffset":16048,"componentType":5123,"count":9,"type":"VEC4","name":"part003_vertices#0_COLOR_0"},{"bufferView":3,"byteOffset":1944,"componentType":5123,"count":24,"type":"SCALAR","name":"part003_indices#0"},{"bufferView":2,"byteOffset":16344,"componentType":5126,"count":34,"min":[-1.3987300395965577,0.0,-1.3987300395965577],"max":[1.3987300395965577,0.0,1.3987300395965577],"type":"VEC3","name":"part004_vertices#0_POSITION"},{"bufferView":2,"byteOffset":16356,"componentType":5120,"count":34,"type":"VEC4","name":"part004_vertices#0_TANGENT"},{"bufferView":2,"byteOffset":16360,"componentType":5120,"count":34,"type":"VEC4","name":"part004_vertices#0_NORMAL"},{"bufferView":2,"byteOffset":16364,"componentType":5122,"count":34,"type":"VEC2","name":"part004_vertices#0_TEXCOORD_0"},{"bufferView":2,"byteOffset":16368,"componentType":5122,"count":34,"type":"VEC2","name":"part004_vertices#0_TEXCOORD_1"},{"bufferView":2,"byteOffset":16372,"componentType":5123,"count":34,"type":"VEC4","name":"part004_vertices#0_COLOR_0"},{"bufferView":3,"byteOffset":1992,"componentType":5123,"count":96,"type":"SCALAR","name":"part004_indices#0"},{"bufferView":2,"byteOffset":17568,"componentType":5126,"count":34,"min":[-1.3987300395965577,0.0,-1.3987300395965577],"max":[1.3987300395965577,0.0,1.3987300395965577],"type":"VEC3","name":"part005_vertices#0_POSITION"},{"bufferView":2,"byteOffset":17580,"componentType":5120,"count":34,"type":"VEC4","name":"part005_vertices#0_TANGENT"},{"bufferView":2,"byteOffset":17584,"componentType":5120,"count":34,"type":"VEC4","name":"part005_vertices#0_NORMAL"},{"bufferView":2,"byteOffset":17588,"componentType":5122,"count":34,"type":"VEC2","name":"part005_vertices#0_TEXCOORD_0"},{"bufferView":2,"byteOffset":17592,"componentType":5122,"count":34,"type":"VEC2","name":"part005_vertices#0_TEXCOORD_1"},{"bufferView":2,"byteOffset":17596,"componentType":5123,"count":34,"type":"VEC4","name":"part005_vertices#0_COLOR_0"},{"bufferView":3,"byteOffset":2184,"componentType":5123,"count":96,"type":"SCALAR","name":"part005_indices#0"},{"bufferView":2,"byteOffset":18792,"componentType":5126,"count":72,"min":[-1.4084800481796265,-0.07986000180244446,-1.4084800481796265],"max":[1.4084800481796265,0.07986000180244446,1.4084800481796265],"type":"VEC3","name":"part006_vertices#0_POSITION"},{"bufferView":2,"byteOffset":18804,"componentType":5120,"count":72,"type":"VEC4","name":"part006_vertices#0_TANGENT"},{"bufferView":2,"byteOffset":18808,"componentType":5120,"count":72,"type":"VEC4","name":"part006_vertices#0_NORMAL"},{"bufferView":2,"byteOffset":18812,"componentType":5122,"count":72,"type":"VEC2","name":"part006_vertices#0_TEXCOORD_0"},{"bufferView":2,"byteOffset":18816,"componentType":5122,"count":72,"type":"VEC2","name":"part006_vertices#0_TEXCOORD_1"},{"bufferView":2,"byteOffset":18820,"componentType":5123,"count":72,"type":"VEC4","name":"part006_vertices#0_COLOR_0"},{"bufferView":3,"byteOffset":2376,"componentType":5123,"count":168,"type":"SCALAR","name":"part006_indices#0"},{"bufferView":2,"byteOffset":21384,"componentType":5126,"count":72,"min":[-1.4084800481796265,-0.07986000180244446,-1.4084800481796265],"max":[1.4084800481796265,0.07986000180244446,1.4084800481796265],"type":"VEC3","name":"part007_vertices#0_POSITION"},{"bufferView":2,"byteOffset":21396,"componentType":5120,"count":72,"type":"VEC4","name":"part007_vertices#0_TANGENT"},{"bufferView":2,"byteOffset":21400,"componentType":5120,"count":72,"type":"VEC4","name":"part007_vertices#0_NORMAL"},{"bufferView":2,"byteOffset":21404,"componentType":5122,"count":72,"type":"VEC2","name":"part007_vertices#0_TEXCOORD_0"},{"bufferView":2,"byteOffset":21408,"componentType":5122,"count":72,"type":"VEC2","name":"part007_vertices#0_TEXCOORD_1"},{"bufferView":2,"byteOffset":21412,"componentType":5123,"count":72,"type":"VEC4","name":"part007_vertices#0_COLOR_0"},{"bufferView":3,"byteOffset":2712,"componentType":5123,"count":168,"type":"SCALAR","name":"part007_indices#0"}],"animations":[{"name":"c_gear","channels":[{"sampler":0,"target":{"node":16,"path":"rotation"}},{"sampler":1,"target":{"node":18,"path":"rotation"}}],"samplers":[{"input":0,"output":1,"interpolation":"LINEAR"},{"input":2,"output":3,"interpolation":"LINEAR"}]},{"name":"engine1","channels":[{"sampler":0,"target":{"node":24,"path":"rotation"}},{"sampler":1,"target":{"node":33,"path":"rotation"}}],"samplers":[{"input":4,"output":5,"interpolation":"LINEAR"},{"input":10,"output":11,"interpolation":"LINEAR"}]},{"name":"engine0","channels":[{"sampler":0,"target":{"node":27,"path":"rotation"}},{"sampler":1,"target":{"node":30,"path":"rotation"}}],"samplers":[{"input":6,"output":7,"interpolation":"LINEAR"},{"input":8,"output":9,"interpolation":"LINEAR"}]}],"asset":{"generator":"ModelConverterX","version":"2.0","extensions":{"ASOBO_asset_optimized":{"BoundingBoxMax":[8.802619934082032,3.2945199012756349,6.993030071258545],"BoundingBoxMin":[-8.802619934082032,-0.5763800144195557,-10.790189743041993],"MajorVersion":4,"MinorVersion":4,"UseCheckerboardMaterialForMissingTextures":true,"UseOnlyFilenameForImageURI":true}}},"bufferViews":[{"buffer":0,"byteLength":96,"byteStride":4},{"buffer":0,"byteLength":384,"byteStride":16,"byteOffset":96},{"buffer":0,"byteLength":23976,"byteStride":36,"byteOffset":480,"target":34962,"name":"BufferViewVertexND"},{"buffer":0,"byteLength":3048,"byteOffset":24456,"target":34963,"name":"BufferViewIndex"}],"extensionsRequired":["MSFT_texture_dds"],"materials":[{"name":"material00","occlusionTexture":{"index":1},"emissiveTexture":{"index":2},"emissiveFactor":[0.019607843831181527,0.019607843831181527,0.019607843831181527],"pbrMetallicRoughness":{"baseColorTexture":{"index":0},"metallicRoughnessTexture":{"index":1}}},{"name":"material01","pbrMetallicRoughness":{"baseColorFactor":[0.03921600058674812,0.03921600058674812,0.03921600058674812,1.0],"metallicFactor":0.0}},{"name":"material02","pbrMetallicRoughness":{"baseColorFactor":[0.7960780262947084,0.7960780262947084,0.7960780262947084,1.0],"metallicFactor":0.0}},{"name":"material03","alphaMode":"BLEND","pbrMetallicRoughness":{"baseColorFactor":[0.0,0.0,0.0,0.9960780143737792],"metallicFactor":0.0,"baseColorTexture":{"index":3}}}],"meshes":[{"primitives":[{"attributes":{"COLOR_0":17,"NORMAL":14,"POSITION":12,"TANGENT":13,"TEXCOORD_0":15,"TEXCOORD_1":16},"indices":18,"material":2,"mode":4,"extras":{"ASOBO_primitive":{"PrimitiveCount":7,"VertexType":"VTX","VertexVersion":2}}}],"name":"part000"},{"primitives":[{"attributes":{"COLOR_0":24,"NORMAL":21,"POSITION":19,"TANGENT":20,"TEXCOORD_0":22,"TEXCOORD_1":23},"indices":25,"material":1,"mode":4,"extras":{"ASOBO_primitive":{"PrimitiveCount":36,"VertexType":"VTX","VertexVersion":2}}}],"name":"part001"},{"primitives":[{"attributes":{"COLOR_0":31,"NORMAL":28,"POSITION":26,"TANGENT":27,"TEXCOORD_0":29,"TEXCOORD_1":30},"indices":32,"material":0,"mode":4,"extras":{"ASOBO_primitive":{"PrimitiveCount":281,"VertexType":"VTX","VertexVersion":2}}}],"name":"part002"},{"primitives":[{"attributes":{"COLOR_0":38,"NORMAL":35,"POSITION":33,"TANGENT":34,"TEXCOORD_0":36,"TEXCOORD_1":37},"indices":39,"material":0,"mode":4,"extras":{"ASOBO_primitive":{"PrimitiveCount":8,"VertexType":"VTX","VertexVersion":2}}}],"name":"part003"},{"primitives":[{"attributes":{"COLOR_0":45,"NORMAL":42,"POSITION":40,"TANGENT":41,"TEXCOORD_0":43,"TEXCOORD_1":44},"indices":46,"material":3,"mode":4,"extras":{"ASOBO_primitive":{"PrimitiveCount":32,"VertexType":"VTX","VertexVersion":2}}}],"name":"part004"},{"primitives":[{"attributes":{"COLOR_0":52,"NORMAL":49,"POSITION":47,"TANGENT":48,"TEXCOORD_0":50,"TEXCOORD_1":51},"indices":53,"material":3,"mode":4,"extras":{"ASOBO_primitive":{"PrimitiveCount":32,"VertexType":"VTX","VertexVersion":2}}}],"name":"part005"},{"primitives":[{"attributes":{"COLOR_0":59,"NORMAL":56,"POSITION":54,"TANGENT":55,"TEXCOORD_0":57,"TEXCOORD_1":58},"indices":60,"material":0,"mode":4,"extras":{"ASOBO_primitive":{"PrimitiveCount":56,"VertexType":"VTX","VertexVersion":2}}}],"name":"part006"},{"primitives":[{"attributes":{"COLOR_0":66,"NORMAL":63,"POSITION":61,"TANGENT":62,"TEXCOORD_0":64,"TEXCOORD_1":65},"indices":67,"material":0,"mode":4,"extras":{"ASOBO_primitive":{"PrimitiveCount":56,"VertexType":"VTX","VertexVersion":2}}}],"name":"part007"}],"nodes":[{"name":"node_0","children":[1,2,3,4,5,6,7,8,9,10,11,12,13]},{"mesh":0,"name":"node_9"},{"mesh":1,"name":"node_10"},{"mesh":2,"name":"node_11"},{"translation":[-2.5799999237060549,-1.5,-0.6999999880790714],"rotation":[-6.123031769111886e-17,0.0,1.0,0.0],"scale":[1.0,1.0,1.0],"name":"r_tire1"},{"translation":[2.5799999237060549,-1.5,-0.6999999880790707],"rotation":[-6.123031769111886e-17,0.0,1.0,0.0],"scale":[1.0,1.0,1.0],"name":"l_tire1"},{"translation":[-7.959941299845452e-16,-1.5,6.5],"rotation":[-6.123031769111886e-17,0.0,1.0,0.0],"scale":[1.0,1.0,1.0],"name":"c_tire1"},{"translation":[-2.4999999999999997,0.0,-2.0000000000000006],"rotation":[-6.123031769111886e-17,0.0,1.0,0.0],"scale":[1.0,1.0,1.0],"name":"contrail2"},{"translation":[-3.1500000953674318,-0.10000000149011612,0.730000019073486],"rotation":[-0.7064337687255942,-0.030843644469385604,-0.030843644469385604,0.7064337687255942],"scale":[1.0,1.0,1.0],"name":"landing_r"},{"translation":[3.1500000953674318,-0.10000000149011612,0.7300000190734868],"rotation":[-0.7064337687255942,0.030843644469385514,0.030843644469385514,0.7064337687255942],"scale":[1.0,1.0,1.0],"name":"landing_l"},{"translation":[-1.7300000190734853,3.0999999046325685,-9.729999542236329],"rotation":[-0.4966676318574024,0.6809436781570218,0.08431723648613392,0.5315332139357532],"scale":[1.0,1.0,1.0],"name":"logo_r"},{"translation":[1.7300000190734875,3.0999999046325685,-9.729999542236329],"rotation":[0.4966676318574023,0.6809436781570218,0.08431723648613399,-0.5315332139357532],"scale":[1.0,1.0,1.0],"name":"logo_l"},{"translation":[2.5000000000000006,0.0,-2.0],"rotation":[-6.123031769111886e-17,0.0,1.0,0.0],"scale":[1.0,1.0,1.0],"name":"contrail1"},{"translation":[0.0,0.0,0.0],"rotation":[-4.329637285359677e-17,0.7071067811865475,0.7071067811865475,4.329637285359677e-17],"scale":[1.0,1.0,1.0],"name":"node_40","children":[14,23,26,29,32]},{"translation":[0.0,6.588860988616943,-0.24353499710559846],"rotation":[0.0,0.0,0.0,1.0],"scale":[1.0,1.0,1.0],"name":"node_184","children":[15,17]},{"name":"node_185","children":[16]},{"mesh":3,"name":"c_gear_AN_185"},{"name":"node_192","children":[18]},{"name":"c_gear_AN_192","children":[19,21]},{"translation":[0.0,0.046032000333070758,-0.2426059991121292],"rotation":[0.74314500153513,0.0,0.0,-0.669130410826882],"scale":[1.0,1.0,1.0],"name":"node_193","children":[20]},{"translation":[0.0,0.0,0.0],"rotation":[-0.7071067811865475,0.0,0.0,0.7071067811865475],"scale":[1.0,1.0,1.0],"name":"gear_landing"},{"translation":[0.0,0.046032000333070758,-0.2426059991121292],"rotation":[0.7604061535563688,0.0,0.0,-0.6494478282615225],"scale":[1.0,1.0,1.0],"name":"node_195","children":[22]},{"translation":[0.0,0.0,0.0],"rotation":[-0.7071067811865475,0.0,0.0,0.7071067811865475],"scale":[1.0,1.0,1.0],"name":"gear_taxi"},{"translation":[2.612441062927246,2.146401882171631,0.28894999623298647],"rotation":[0.0,0.0,0.0,1.0],"scale":[1.0,1.0,1.0],"name":"node_197","children":[24]},{"name":"engine1_AN_197","children":[25]},{"mesh":4,"name":"prop1_blurred_VC"},{"translation":[-2.612441062927246,2.146401882171631,0.28894999623298647],"rotation":[0.0,0.0,0.0,1.0],"scale":[1.0,1.0,1.0],"name":"node_206","children":[27]},{"name":"engine0_AN_206","children":[28]},{"mesh":5,"name":"prop0_blurred_VC"},{"translation":[-2.612746000289917,2.1482300758361818,0.27432000637054446],"rotation":[0.0,0.0,0.0,1.0],"scale":[1.0,1.0,1.0],"name":"node_215","children":[30]},{"name":"engine0_AN_215","children":[31]},{"mesh":6,"name":"prop0_still_VC"},{"translation":[2.612746000289917,2.1482300758361818,0.27432000637054446],"rotation":[0.0,0.0,0.0,1.0],"scale":[1.0,1.0,1.0],"name":"node_224","children":[33]},{"name":"engine1_AN_224","children":[34]},{"mesh":7,"name":"prop1_still_VC"}],"scene":0,"scenes":[{"nodes":[0]}],"textures":[{"extensions":{"MSFT_texture_dds":{"source":0}}},{"extensions":{"MSFT_texture_dds":{"source":1}}},{"extensions":{"MSFT_texture_dds":{"source":2}}},{"extensions":{"MSFT_texture_dds":{"source":3}}}],"extensionsUsed":["MSFT_texture_dds","ASOBO_asset_optimized"],"buffers":[{"byteLength":27504,"uri":"HTAI Beechcraft 1900D MSFS_LOD7.bin"}],"images":[{"uri":"1900D.PNG.DDS","extras":"ASOBO_image_converted_meta"},{"uri":"1900D_C.PNG.DDS","extras":"ASOBO_image_converted_meta"},{"uri":"CABIN_LIGHTS.PNG.DDS","extras":"ASOBO_image_converted_meta"},{"uri":"PROP-HS.PNG.DDS","extras":"ASOBO_image_converted_meta"}]}
