{"accessors":[{"bufferView":0,"componentType":5126,"count":2,"min":[0.0],"max":[100.0],"type":"SCALAR"},{"bufferView":1,"componentType":5126,"count":2,"type":"VEC4"},{"bufferView":2,"componentType":5126,"count":11,"min":[-2.8495800495147707,-0.3288800120353699,1.318869948387146],"max":[2.8495800495147707,0.5212100148200989,2.056030035018921],"type":"VEC3","name":"part000_vertices#0_POSITION"},{"bufferView":2,"byteOffset":12,"componentType":5120,"count":11,"type":"VEC4","name":"part000_vertices#0_TANGENT"},{"bufferView":2,"byteOffset":16,"componentType":5120,"count":11,"type":"VEC4","name":"part000_vertices#0_NORMAL"},{"bufferView":2,"byteOffset":20,"componentType":5122,"count":11,"type":"VEC2","name":"part000_vertices#0_TEXCOORD_0"},{"bufferView":2,"byteOffset":24,"componentType":5122,"count":11,"type":"VEC2","name":"part000_vertices#0_TEXCOORD_1"},{"bufferView":2,"byteOffset":28,"componentType":5123,"count":11,"type":"VEC4","name":"part000_vertices#0_COLOR_0"},{"bufferView":3,"componentType":5123,"count":21,"type":"SCALAR","name":"part000_indices#0"},{"bufferView":2,"byteOffset":396,"componentType":5126,"count":44,"min":[-2.922420024871826,-0.5093200206756592,1.3374600410461426],"max":[2.922420024871826,0.0841199979186058,1.9734300374984742],"type":"VEC3","name":"part001_vertices#0_POSITION"},{"bufferView":2,"byteOffset":408,"componentType":5120,"count":44,"type":"VEC4","name":"part001_vertices#0_TANGENT"},{"bufferView":2,"byteOffset":412,"componentType":5120,"count":44,"type":"VEC4","name":"part001_vertices#0_NORMAL"},{"bufferView":2,"byteOffset":416,"componentType":5122,"count":44,"type":"VEC2","name":"part001_vertices#0_TEXCOORD_0"},{"bufferView":2,"byteOffset":420,"componentType":5122,"count":44,"type":"VEC2","name":"part001_vertices#0_TEXCOORD_1"},{"bufferView":2,"byteOffset":424,"componentType":5123,"count":44,"type":"VEC4","name":"part001_vertices#0_COLOR_0"},{"bufferView":3,"byteOffset":42,"componentType":5123,"count":108,"type":"SCALAR","name":"part001_indices#0"},{"bufferView":2,"byteOffset":1980,"componentType":5126,"count":314,"min":[-8.802619934082032,-0.5763800144195557,-10.792200088500977],"max":[8.802619934082032,3.2945199012756349,6.993030071258545],"type":"VEC3","name":"part002_vertices#0_POSITION"},{"bufferView":2,"byteOffset":1992,"componentType":5120,"count":314,"type":"VEC4","name":"part002_vertices#0_TANGENT"},{"bufferView":2,"byteOffset":1996,"componentType":5120,"count":314,"type":"VEC4","name":"part002_vertices#0_NORMAL"},{"bufferView":2,"byteOffset":2000,"componentType":5122,"count":314,"type":"VEC2","name":"part002_vertices#0_TEXCOORD_0"},{"bufferView":2,"byteOffset":2004,"componentType":5122,"count":314,"type":"VEC2","name":"part002_vertices#0_TEXCOORD_1"},{"bufferView":2,"byteOffset":2008,"componentType":5123,"count":314,"type":"VEC4","name":"part002_vertices#0_COLOR_0"},{"bufferView":3,"byteOffset":258,"componentType":5123,"count":711,"type":"SCALAR","name":"part002_indices#0"}],"animations":[{"name":"c_gear","channels":[{"sampler":0,"target":{"node":16,"path":"rotation"}}],"samplers":[{"input":0,"output":1,"interpolation":"LINEAR"}]}],"asset":{"generator":"ModelConverterX","version":"2.0","extensions":{"ASOBO_asset_optimized":{"BoundingBoxMax":[8.802619934082032,3.2945199012756349,6.993030071258545],"BoundingBoxMin":[-8.802619934082032,-0.5763800144195557,-10.792200088500977],"MajorVersion":4,"MinorVersion":4,"UseCheckerboardMaterialForMissingTextures":true,"UseOnlyFilenameForImageURI":true}}},"bufferViews":[{"buffer":0,"byteLength":8,"byteStride":4},{"buffer":0,"byteLength":32,"byteStride":16,"byteOffset":8},{"buffer":0,"byteLength":13284,"byteStride":36,"byteOffset":40,"target":34962,"name":"BufferViewVertexND"},{"buffer":0,"byteLength":1680,"byteOffset":13324,"target":34963,"name":"BufferViewIndex"}],"extensionsRequired":["MSFT_texture_dds"],"materials":[{"name":"material00","emissiveTexture":{"index":1},"emissiveFactor":[0.019607843831181527,0.019607843831181527,0.019607843831181527],"pbrMetallicRoughness":{"metallicFactor":0.0,"baseColorTexture":{"index":0}}},{"name":"material01","pbrMetallicRoughness":{"baseColorFactor":[0.03921600058674812,0.03921600058674812,0.03921600058674812,1.0],"metallicFactor":0.0}},{"name":"material02","pbrMetallicRoughness":{"baseColorFactor":[0.7960780262947084,0.7960780262947084,0.7960780262947084,1.0],"metallicFactor":0.0}}],"meshes":[{"primitives":[{"attributes":{"COLOR_0":7,"NORMAL":4,"POSITION":2,"TANGENT":3,"TEXCOORD_0":5,"TEXCOORD_1":6},"indices":8,"material":2,"mode":4,"extras":{"ASOBO_primitive":{"PrimitiveCount":7,"VertexType":"VTX","VertexVersion":2}}}],"name":"part000"},{"primitives":[{"attributes":{"COLOR_0":14,"NORMAL":11,"POSITION":9,"TANGENT":10,"TEXCOORD_0":12,"TEXCOORD_1":13},"indices":15,"material":1,"mode":4,"extras":{"ASOBO_primitive":{"PrimitiveCount":36,"VertexType":"VTX","VertexVersion":2}}}],"name":"part001"},{"primitives":[{"attributes":{"COLOR_0":21,"NORMAL":18,"POSITION":16,"TANGENT":17,"TEXCOORD_0":19,"TEXCOORD_1":20},"indices":22,"material":0,"mode":4,"extras":{"ASOBO_primitive":{"PrimitiveCount":237,"VertexType":"VTX","VertexVersion":2}}}],"name":"part002"}],"nodes":[{"name":"node_0","children":[1,2,3,4,5,6,7,8,9,10,11,12,13]},{"mesh":0,"name":"node_6"},{"mesh":1,"name":"node_7"},{"mesh":2,"name":"node_8"},{"translation":[-2.5799999237060549,-1.5,-0.6999999880790714],"rotation":[-6.123031769111886e-17,0.0,1.0,0.0],"scale":[1.0,1.0,1.0],"name":"r_tire1"},{"translation":[2.5799999237060549,-1.5,-0.6999999880790707],"rotation":[-6.123031769111886e-17,0.0,1.0,0.0],"scale":[1.0,1.0,1.0],"name":"l_tire1"},{"translation":[-7.959941299845452e-16,-1.5,6.5],"rotation":[-6.123031769111886e-17,0.0,1.0,0.0],"scale":[1.0,1.0,1.0],"name":"c_tire1"},{"translation":[-2.4999999999999997,0.0,-2.0000000000000006],"rotation":[-6.123031769111886e-17,0.0,1.0,0.0],"scale":[1.0,1.0,1.0],"name":"contrail2"},{"translation":[-3.1500000953674318,-0.10000000149011612,0.730000019073486],"rotation":[-0.7064337687255942,-0.030843644469385604,-0.030843644469385604,0.7064337687255942],"scale":[1.0,1.0,1.0],"name":"landing_r"},{"translation":[3.1500000953674318,-0.10000000149011612,0.7300000190734868],"rotation":[-0.7064337687255942,0.030843644469385514,0.030843644469385514,0.7064337687255942],"scale":[1.0,1.0,1.0],"name":"landing_l"},{"translation":[-1.7300000190734853,3.0999999046325685,-9.729999542236329],"rotation":[-0.4966676318574024,0.6809436781570218,0.08431723648613392,0.5315332139357532],"scale":[1.0,1.0,1.0],"name":"logo_r"},{"translation":[1.7300000190734875,3.0999999046325685,-9.729999542236329],"rotation":[0.4966676318574023,0.6809436781570218,0.08431723648613399,-0.5315332139357532],"scale":[1.0,1.0,1.0],"name":"logo_l"},{"translation":[2.5000000000000006,0.0,-2.0],"rotation":[-6.123031769111886e-17,0.0,1.0,0.0],"scale":[1.0,1.0,1.0],"name":"contrail1"},{"translation":[0.0,0.0,0.0],"rotation":[-4.329637285359677e-17,0.7071067811865475,0.7071067811865475,4.329637285359677e-17],"scale":[1.0,1.0,1.0],"name":"node_40","children":[14]},{"translation":[0.0,6.588860988616943,-0.24353499710559846],"rotation":[0.0,0.0,0.0,1.0],"scale":[1.0,1.0,1.0],"name":"node_184","children":[15]},{"name":"node_192","children":[16]},{"name":"c_gear_AN_192","children":[17,19]},{"translation":[0.0,0.046032000333070758,-0.2426059991121292],"rotation":[0.74314500153513,0.0,0.0,-0.669130410826882],"scale":[1.0,1.0,1.0],"name":"node_193","children":[18]},{"translation":[0.0,0.0,0.0],"rotation":[-0.7071067811865475,0.0,0.0,0.7071067811865475],"scale":[1.0,1.0,1.0],"name":"gear_landing"},{"translation":[0.0,0.046032000333070758,-0.2426059991121292],"rotation":[0.7604061535563688,0.0,0.0,-0.6494478282615225],"scale":[1.0,1.0,1.0],"name":"node_195","children":[20]},{"translation":[0.0,0.0,0.0],"rotation":[-0.7071067811865475,0.0,0.0,0.7071067811865475],"scale":[1.0,1.0,1.0],"name":"gear_taxi"}],"scene":0,"scenes":[{"nodes":[0]}],"textures":[{"extensions":{"MSFT_texture_dds":{"source":0}}},{"extensions":{"MSFT_texture_dds":{"source":1}}}],"extensionsUsed":["MSFT_texture_dds","ASOBO_asset_optimized"],"buffers":[{"byteLength":15004,"uri":"HTAI Beechcraft 1900D MSFS_LOD8.bin"}],"images":[{"uri":"1900D.PNG.DDS","extras":"ASOBO_image_converted_meta"},{"uri":"CABIN_LIGHTS.PNG.DDS","extras":"ASOBO_image_converted_meta"}]}
