{"accessors":[{"bufferView":0,"componentType":5126,"count":32,"min":[0.0],"max":[80.0],"type":"SCALAR"},{"bufferView":1,"componentType":5126,"count":32,"type":"VEC4"},{"bufferView":0,"byteOffset":128,"componentType":5126,"count":32,"min":[0.0],"max":[80.0],"type":"SCALAR"},{"bufferView":1,"byteOffset":512,"componentType":5126,"count":32,"type":"VEC4"},{"bufferView":0,"byteOffset":256,"componentType":5126,"count":3,"min":[0.0],"max":[200.0],"type":"SCALAR"},{"bufferView":1,"byteOffset":1024,"componentType":5126,"count":3,"type":"VEC4"},{"bufferView":2,"componentType":5126,"count":56,"min":[-8.54800033569336,0.2720000147819519,-8.9399995803833],"max":[8.54800033569336,4.131999969482422,9.02400016784668],"type":"VEC3","name":"part000_vertices#0_POSITION"},{"bufferView":2,"byteOffset":12,"componentType":5120,"count":56,"type":"VEC4","name":"part000_vertices#0_TANGENT"},{"bufferView":2,"byteOffset":16,"componentType":5120,"count":56,"type":"VEC4","name":"part000_vertices#0_NORMAL"},{"bufferView":2,"byteOffset":20,"componentType":5122,"count":56,"type":"VEC2","name":"part000_vertices#0_TEXCOORD_0"},{"bufferView":2,"byteOffset":24,"componentType":5122,"count":56,"type":"VEC2","name":"part000_vertices#0_TEXCOORD_1"},{"bufferView":2,"byteOffset":28,"componentType":5123,"count":56,"type":"VEC4","name":"part000_vertices#0_COLOR_0"},{"bufferView":3,"componentType":5123,"count":96,"type":"SCALAR","name":"part000_indices#0"},{"bufferView":2,"byteOffset":2016,"componentType":5126,"count":4,"min":[0.0006099999882280827,-0.052000001072883609,0.12321999669075012],"max":[0.7075700163841248,0.052000001072883609,0.1271599978208542],"type":"VEC3","name":"part001_vertices#0_POSITION"},{"bufferView":2,"byteOffset":2028,"componentType":5120,"count":4,"type":"VEC4","name":"part001_vertices#0_TANGENT"},{"bufferView":2,"byteOffset":2032,"componentType":5120,"count":4,"type":"VEC4","name":"part001_vertices#0_NORMAL"},{"bufferView":2,"byteOffset":2036,"componentType":5122,"count":4,"type":"VEC2","name":"part001_vertices#0_TEXCOORD_0"},{"bufferView":2,"byteOffset":2040,"componentType":5122,"count":4,"type":"VEC2","name":"part001_vertices#0_TEXCOORD_1"},{"bufferView":2,"byteOffset":2044,"componentType":5123,"count":4,"type":"VEC4","name":"part001_vertices#0_COLOR_0"},{"bufferView":3,"byteOffset":192,"componentType":5123,"count":6,"type":"SCALAR","name":"part001_indices#0"}],"animations":[{"name":"c_gear","channels":[{"sampler":0,"target":{"node":12,"path":"rotation"}},{"sampler":1,"target":{"node":16,"path":"rotation"}}],"samplers":[{"input":0,"output":1,"interpolation":"LINEAR"},{"input":2,"output":3,"interpolation":"LINEAR"}]},{"name":"custom_anim_C_WHEEL_LR","channels":[{"sampler":0,"target":{"node":18,"path":"rotation"}}],"samplers":[{"input":4,"output":5,"interpolation":"LINEAR"}]}],"asset":{"generator":"ModelConverterX","version":"2.0","extensions":{"ASOBO_asset_optimized":{"BoundingBoxMax":[8.54800033569336,4.131999969482422,9.02400016784668],"BoundingBoxMin":[-8.54800033569336,-0.052000001072883609,-8.9399995803833],"MajorVersion":4,"MinorVersion":4,"UseCheckerboardMaterialForMissingTextures":true,"UseOnlyFilenameForImageURI":true}}},"bufferViews":[{"buffer":0,"byteLength":268,"byteStride":4},{"buffer":0,"byteLength":1072,"byteStride":16,"byteOffset":268},{"buffer":0,"byteLength":2160,"byteStride":36,"byteOffset":1340,"target":34962,"name":"BufferViewVertexND"},{"buffer":0,"byteLength":204,"byteOffset":3500,"target":34963,"name":"BufferViewIndex"}],"extensionsRequired":["MSFT_texture_dds"],"materials":[{"name":"material00","pbrMetallicRoughness":{"metallicFactor":0.0}},{"name":"material01","emissiveTexture":{"index":1},"emissiveFactor":[0.019607843831181527,0.019607843831181527,0.019607843831181527],"pbrMetallicRoughness":{"metallicFactor":0.0,"baseColorTexture":{"index":0}},"extensions":{"ASOBO_material_day_night_switch":{}}}],"meshes":[{"primitives":[{"attributes":{"COLOR_0":11,"NORMAL":8,"POSITION":6,"TANGENT":7,"TEXCOORD_0":9,"TEXCOORD_1":10},"indices":12,"material":1,"mode":4,"extras":{"ASOBO_primitive":{"PrimitiveCount":32,"VertexType":"VTX","VertexVersion":2}}}],"name":"part000"},{"primitives":[{"attributes":{"COLOR_0":18,"NORMAL":15,"POSITION":13,"TANGENT":14,"TEXCOORD_0":16,"TEXCOORD_1":17},"indices":19,"material":0,"mode":4,"extras":{"ASOBO_primitive":{"PrimitiveCount":2,"VertexType":"VTX","VertexVersion":2}}}],"name":"part001"}],"nodes":[{"name":"node_0","children":[1,2,3,4,5,6,7,8,9]},{"mesh":0,"name":"custom_vis_parts_visible_00_mcx_VC_0"},{"translation":[-7.959941299845452e-16,-0.800000011920929,6.5],"rotation":[-6.123031769111886e-17,3.061515884555943e-17,1.0,1.874575902277672e-33],"scale":[1.0,1.0,1.0],"name":"c_tire1"},{"translation":[2.549999952316284,0.75,3.1227461438532808e-16],"rotation":[-6.123031769111886e-17,3.061515884555943e-17,1.0,1.874575902277672e-33],"scale":[1.0,1.0,1.0],"name":"contrail1"},{"translation":[0.6200000047683714,0.4600000083446502,1.940000057220459],"rotation":[-0.7071067811865475,0.0,0.0,0.7071067811865475],"scale":[1.0,1.0,1.0],"name":"landing_l"},{"translation":[-0.6200000047683718,0.4600000083446502,1.940000057220459],"rotation":[-0.7071067811865475,0.0,0.0,0.7071067811865475],"scale":[1.0,1.0,1.0],"name":"landing_r"},{"translation":[-2.549999952316284,0.75,-3.1227461438532808e-16],"rotation":[-6.123031769111886e-17,3.061515884555943e-17,1.0,1.874575902277672e-33],"scale":[1.0,1.0,1.0],"name":"contrail2"},{"translation":[2.5299999713897707,-0.9100000262260436,0.5000000000000003],"rotation":[-6.123031769111886e-17,3.061515884555943e-17,1.0,1.874575902277672e-33],"scale":[1.0,1.0,1.0],"name":"l_tire1"},{"translation":[-2.5299999713897707,-0.9100000262260436,0.49999999999999969],"rotation":[-6.123031769111886e-17,3.061515884555943e-17,1.0,1.874575902277672e-33],"scale":[1.0,1.0,1.0],"name":"r_tire1"},{"translation":[0.0,0.0,0.0],"rotation":[-4.329637285359677e-17,0.7071067811865475,0.7071067811865475,4.329637285359677e-17],"scale":[1.0,1.0,1.0],"name":"node_44","children":[10,14]},{"translation":[-0.5849999785423279,1.45796000957489,1.1576989889144896],"rotation":[0.0,0.0,0.0,1.0],"scale":[1.0,1.0,1.0],"name":"node_45","children":[11]},{"translation":[0.5849999785423279,5.107303142547607,-0.6977890133857727],"rotation":[0.0,0.0,0.0,1.0],"scale":[1.0,1.0,1.0],"name":"node_46","children":[12]},{"name":"c_gear_AN_46","children":[13]},{"mesh":1,"name":"custom_vis_parts_visible_00_mcx_VC_1"},{"translation":[0.0,5.03000020980835,1.1210000514984134],"rotation":[-0.000005249999958104456,0.0,0.0,0.9999999999861875],"scale":[1.0,1.0,1.0],"name":"node_283","children":[15]},{"translation":[0.0,1.5350049735044278,-0.6614130139681598],"rotation":[0.0,0.0,0.0,1.0],"scale":[1.0,1.0,1.0],"name":"node_299","children":[16]},{"name":"c_gear_AN_299","children":[17]},{"name":"node_300","children":[18]},{"name":"custom_anim_C_WHEEL_LR_AN_300","children":[19,21]},{"translation":[0.0,0.25987100602768506,-0.4999890029680384],"rotation":[0.6946623255118034,0.0,0.0,0.7193359809674561],"scale":[1.0,1.0,1.0],"name":"node_311","children":[20]},{"translation":[0.0,0.0,0.0],"rotation":[0.7071067811865475,0.0,0.0,0.7071067811865475],"scale":[1.0,1.0,1.0],"name":"taxi"},{"translation":[0.0,0.2550109923040176,-0.49963998797053868],"rotation":[0.7071104934873744,0.0,0.0,0.7071030688661427],"scale":[1.0,1.0,1.0],"name":"node_313","children":[22]},{"translation":[0.0,0.0,0.0],"rotation":[0.7071067811865475,0.0,0.0,0.7071067811865475],"scale":[1.0,1.0,1.0],"name":"landing_gear"}],"scene":0,"scenes":[{"nodes":[0]}],"textures":[{"extensions":{"MSFT_texture_dds":{"source":0}}},{"extensions":{"MSFT_texture_dds":{"source":1}}}],"extensionsUsed":["ASOBO_material_day_night_switch","MSFT_texture_dds","ASOBO_asset_optimized"],"buffers":[{"byteLength":3704,"uri":"DJC_MetroII_3Blade_MSFS_LOD9.bin"}],"images":[{"uri":"DJC_AI_METROII_T.PNG.DDS","extras":"ASOBO_image_converted_meta"},{"uri":"CABIN_LIGHTS.PNG.DDS","extras":"ASOBO_image_converted_meta"}]}
