{"accessors":[{"bufferView":0,"componentType":5126,"count":42,"min":[0.0],"max":[100.0],"type":"SCALAR"},{"bufferView":1,"componentType":5126,"count":42,"type":"VEC4"},{"bufferView":0,"byteOffset":168,"componentType":5126,"count":48,"min":[0.0],"max":[100.0],"type":"SCALAR"},{"bufferView":1,"byteOffset":672,"componentType":5126,"count":48,"type":"VEC4"},{"bufferView":2,"componentType":5126,"count":20,"min":[2.5999999046325685,-0.29600000381469729,-0.6759999990463257],"max":[3.4560000896453859,1.100000023841858,3.2799999713897707],"type":"VEC3","name":"part000_vertices#0_POSITION"},{"bufferView":2,"byteOffset":12,"componentType":5120,"count":20,"type":"VEC4","name":"part000_vertices#0_TANGENT"},{"bufferView":2,"byteOffset":16,"componentType":5120,"count":20,"type":"VEC4","name":"part000_vertices#0_NORMAL"},{"bufferView":2,"byteOffset":20,"componentType":5122,"count":20,"type":"VEC2","name":"part000_vertices#0_TEXCOORD_0"},{"bufferView":2,"byteOffset":24,"componentType":5122,"count":20,"type":"VEC2","name":"part000_vertices#0_TEXCOORD_1"},{"bufferView":2,"byteOffset":28,"componentType":5123,"count":20,"type":"VEC4","name":"part000_vertices#0_COLOR_0"},{"bufferView":3,"componentType":5123,"count":36,"type":"SCALAR","name":"part000_indices#0"},{"bufferView":2,"byteOffset":720,"componentType":5126,"count":88,"min":[-9.144000053405762,-0.29600000381469729,-9.496009826660157],"max":[9.144000053405762,4.4679999351501469,9.612000465393067],"type":"VEC3","name":"part001_vertices#0_POSITION"},{"bufferView":2,"byteOffset":732,"componentType":5120,"count":88,"type":"VEC4","name":"part001_vertices#0_TANGENT"},{"bufferView":2,"byteOffset":736,"componentType":5120,"count":88,"type":"VEC4","name":"part001_vertices#0_NORMAL"},{"bufferView":2,"byteOffset":740,"componentType":5122,"count":88,"type":"VEC2","name":"part001_vertices#0_TEXCOORD_0"},{"bufferView":2,"byteOffset":744,"componentType":5122,"count":88,"type":"VEC2","name":"part001_vertices#0_TEXCOORD_1"},{"bufferView":2,"byteOffset":748,"componentType":5123,"count":88,"type":"VEC4","name":"part001_vertices#0_COLOR_0"},{"bufferView":3,"byteOffset":72,"componentType":5123,"count":156,"type":"SCALAR","name":"part001_indices#0"},{"bufferView":2,"byteOffset":3888,"componentType":5126,"count":7,"min":[-0.04600000008940697,-0.8638799786567688,-0.052000001072883609],"max":[0.04558999836444855,0.033229999244213107,0.052000001072883609],"type":"VEC3","name":"part002_vertices#0_POSITION"},{"bufferView":2,"byteOffset":3900,"componentType":5120,"count":7,"type":"VEC4","name":"part002_vertices#0_TANGENT"},{"bufferView":2,"byteOffset":3904,"componentType":5120,"count":7,"type":"VEC4","name":"part002_vertices#0_NORMAL"},{"bufferView":2,"byteOffset":3908,"componentType":5122,"count":7,"type":"VEC2","name":"part002_vertices#0_TEXCOORD_0"},{"bufferView":2,"byteOffset":3912,"componentType":5122,"count":7,"type":"VEC2","name":"part002_vertices#0_TEXCOORD_1"},{"bufferView":2,"byteOffset":3916,"componentType":5123,"count":7,"type":"VEC4","name":"part002_vertices#0_COLOR_0"},{"bufferView":3,"byteOffset":384,"componentType":5123,"count":9,"type":"SCALAR","name":"part002_indices#0"}],"animations":[{"name":"c_gear","channels":[{"sampler":0,"target":{"node":13,"path":"rotation"}},{"sampler":1,"target":{"node":19,"path":"rotation"}}],"samplers":[{"input":0,"output":1,"interpolation":"LINEAR"},{"input":2,"output":3,"interpolation":"LINEAR"}]}],"asset":{"generator":"ModelConverterX","version":"2.0","extensions":{"ASOBO_asset_optimized":{"BoundingBoxMax":[9.144000053405762,4.4679999351501469,9.612000465393067],"BoundingBoxMin":[-9.144000053405762,-0.8638799786567688,-9.496009826660157],"MajorVersion":4,"MinorVersion":4,"UseCheckerboardMaterialForMissingTextures":true,"UseOnlyFilenameForImageURI":true}}},"bufferViews":[{"buffer":0,"byteLength":360,"byteStride":4},{"buffer":0,"byteLength":1440,"byteStride":16,"byteOffset":360},{"buffer":0,"byteLength":4140,"byteStride":36,"byteOffset":1800,"target":34962,"name":"BufferViewVertexND"},{"buffer":0,"byteLength":402,"byteOffset":5940,"target":34963,"name":"BufferViewIndex"}],"extensionsRequired":["MSFT_texture_dds"],"materials":[{"name":"material00","pbrMetallicRoughness":{"baseColorFactor":[0.450980007648468,0.450980007648468,0.450980007648468,1.0],"metallicFactor":0.0}},{"name":"material01","emissiveTexture":{"index":1},"emissiveFactor":[0.019607843831181527,0.019607843831181527,0.019607843831181527],"pbrMetallicRoughness":{"baseColorTexture":{"index":0}},"extensions":{"ASOBO_material_day_night_switch":{}}}],"meshes":[{"primitives":[{"attributes":{"COLOR_0":9,"NORMAL":6,"POSITION":4,"TANGENT":5,"TEXCOORD_0":7,"TEXCOORD_1":8},"indices":10,"material":1,"mode":4,"extras":{"ASOBO_primitive":{"PrimitiveCount":12,"VertexType":"VTX","VertexVersion":2}}}],"name":"part000"},{"primitives":[{"attributes":{"COLOR_0":16,"NORMAL":13,"POSITION":11,"TANGENT":12,"TEXCOORD_0":14,"TEXCOORD_1":15},"indices":17,"material":1,"mode":4,"extras":{"ASOBO_primitive":{"PrimitiveCount":52,"VertexType":"VTX","VertexVersion":2}}}],"name":"part001"},{"primitives":[{"attributes":{"COLOR_0":23,"NORMAL":20,"POSITION":18,"TANGENT":19,"TEXCOORD_0":21,"TEXCOORD_1":22},"indices":24,"material":0,"mode":4,"extras":{"ASOBO_primitive":{"PrimitiveCount":3,"VertexType":"VTX","VertexVersion":2}}}],"name":"part002"}],"nodes":[{"name":"node_0","children":[1,2,3,4,5,6,7,8,9,10]},{"mesh":0,"name":"custom_vis_parts_visible_02_mcx_VC"},{"mesh":1,"name":"cabin_lights_VC"},{"translation":[-9.307008172262505e-16,-0.8899999856948853,7.599999904632568],"rotation":[-6.123031769111886e-17,0.0,1.0,0.0],"scale":[1.0,1.0,1.0],"name":"c_tire1"},{"translation":[-3.0,-1.149999976158142,0.20000000298023189],"rotation":[-6.123031769111886e-17,0.0,1.0,0.0],"scale":[1.0,1.0,1.0],"name":"r_tire1"},{"translation":[3.0,-1.149999976158142,0.2000000029802326],"rotation":[-6.123031769111886e-17,0.0,1.0,0.0],"scale":[1.0,1.0,1.0],"name":"l_tire1"},{"translation":[-3.0,0.30000001192092898,-1.0000000000000005],"rotation":[-6.123031769111886e-17,0.0,1.0,0.0],"scale":[1.0,1.0,1.0],"name":"contrail2"},{"translation":[-1.7999999523162834,2.6500000953674318,-7.829999923706055],"rotation":[-0.38109026402983028,0.3948383689605488,0.3144816049241032,0.7745799617344418],"scale":[1.0,1.0,1.0],"name":"logo_r"},{"translation":[1.7999999523162854,2.6500000953674318,-7.829999923706055],"rotation":[-0.38109026402983017,-0.39483836896054888,-0.3144816049241032,0.7745799617344416],"scale":[1.0,1.0,1.0],"name":"logo_l"},{"translation":[3.0,0.30000001192092898,-0.9999999999999997],"rotation":[-6.123031769111886e-17,0.0,1.0,0.0],"scale":[1.0,1.0,1.0],"name":"contrail1"},{"translation":[0.0,0.0,0.0],"rotation":[-4.329637285359677e-17,0.7071067811865475,0.7071067811865475,4.329637285359677e-17],"scale":[1.0,1.0,1.0],"name":"node_47","children":[11,17]},{"translation":[0.000011000000085914508,-0.00800000037997961,2.130124092102051],"rotation":[0.0,0.0,0.0,1.0],"scale":[1.0,1.0,1.0],"name":"node_50","children":[12]},{"translation":[-0.000011000000085914508,7.726709842681885,-1.7792609930038453],"rotation":[0.0,0.0,0.0,1.0],"scale":[1.0,1.0,1.0],"name":"node_93","children":[13]},{"name":"c_gear_AN_93","children":[14,15,16]},{"translation":[-0.10999999940395357,0.15128999948501588,-0.2308630049228668],"rotation":[0.0,0.0,0.9996573247148085,-0.026176958265470987],"scale":[1.0,1.0,1.0],"name":"landing_nose_l"},{"translation":[0.10999999940395357,0.15128999948501588,-0.2308630049228668],"rotation":[0.0,0.0,0.9996573247148085,0.026176958265470987],"scale":[1.0,1.0,1.0],"name":"landing_nose_r"},{"translation":[0.07999999821186066,0.15128999948501588,-0.3808630108833313],"rotation":[0.0,0.0,1.0,0.0],"scale":[1.0,1.0,1.0],"name":"taxi_nose"},{"translation":[0.0,0.0,1.1873799562454224],"rotation":[0.0,0.0,0.0,1.0],"scale":[1.0,1.0,1.0],"name":"node_139","children":[18]},{"translation":[-9.99999997475243e-7,7.711835861206055,-0.8265690207481384],"rotation":[0.0,0.0,0.0,1.0],"scale":[1.0,1.0,1.0],"name":"node_140","children":[19]},{"name":"c_gear_AN_140","children":[20]},{"mesh":2,"name":"custom_vis_parts_visible_00_mcx_VC"}],"scene":0,"scenes":[{"nodes":[0]}],"textures":[{"extensions":{"MSFT_texture_dds":{"source":0}}},{"extensions":{"MSFT_texture_dds":{"source":1}}}],"extensionsUsed":["ASOBO_material_day_night_switch","MSFT_texture_dds","ASOBO_asset_optimized"],"buffers":[{"byteLength":6342,"uri":"DJC_BritishAerospace_JS41_MSFS_LOD8.bin"}],"images":[{"uri":"DJC_JETSTREAM_41_T.PNG.DDS","extras":"ASOBO_image_converted_meta"},{"uri":"DJC_JETSTREAM_41_L.PNG.DDS","extras":"ASOBO_image_converted_meta"}]}
