{"accessors":[{"bufferView":0,"componentType":5126,"count":5,"min":[0.0],"max":[100.0],"type":"SCALAR"},{"bufferView":1,"componentType":5126,"count":5,"type":"VEC4"},{"bufferView":0,"byteOffset":20,"componentType":5126,"count":5,"min":[0.0],"max":[100.0],"type":"SCALAR"},{"bufferView":1,"byteOffset":80,"componentType":5126,"count":5,"type":"VEC4"},{"bufferView":0,"byteOffset":40,"componentType":5126,"count":5,"min":[0.0],"max":[100.0],"type":"SCALAR"},{"bufferView":1,"byteOffset":160,"componentType":5126,"count":5,"type":"VEC4"},{"bufferView":0,"byteOffset":60,"componentType":5126,"count":5,"min":[0.0],"max":[100.0],"type":"SCALAR"},{"bufferView":1,"byteOffset":240,"componentType":5126,"count":5,"type":"VEC4"},{"bufferView":2,"componentType":5126,"count":72,"min":[-0.09128999710083008,-1.279829978942871,3.33882999420166],"max":[0.09128999710083008,-0.941569983959198,3.4537100791931154],"type":"VEC3","name":"part000_vertices#0_POSITION"},{"bufferView":2,"byteOffset":12,"componentType":5120,"count":72,"type":"VEC4","name":"part000_vertices#0_TANGENT"},{"bufferView":2,"byteOffset":16,"componentType":5120,"count":72,"type":"VEC4","name":"part000_vertices#0_NORMAL"},{"bufferView":2,"byteOffset":20,"componentType":5122,"count":72,"type":"VEC2","name":"part000_vertices#0_TEXCOORD_0"},{"bufferView":2,"byteOffset":24,"componentType":5122,"count":72,"type":"VEC2","name":"part000_vertices#0_TEXCOORD_1"},{"bufferView":2,"byteOffset":28,"componentType":5123,"count":72,"type":"VEC4","name":"part000_vertices#0_COLOR_0"},{"bufferView":3,"componentType":5123,"count":108,"type":"SCALAR","name":"part000_indices#0"},{"bufferView":2,"byteOffset":2592,"componentType":5126,"count":12,"min":[-0.024940000846982003,-0.9744200110435486,3.3814098834991457],"max":[0.024940000846982003,-0.7583100199699402,3.4391798973083498],"type":"VEC3","name":"part001_vertices#0_POSITION"},{"bufferView":2,"byteOffset":2604,"componentType":5120,"count":12,"type":"VEC4","name":"part001_vertices#0_TANGENT"},{"bufferView":2,"byteOffset":2608,"componentType":5120,"count":12,"type":"VEC4","name":"part001_vertices#0_NORMAL"},{"bufferView":2,"byteOffset":2612,"componentType":5122,"count":12,"type":"VEC2","name":"part001_vertices#0_TEXCOORD_0"},{"bufferView":2,"byteOffset":2616,"componentType":5122,"count":12,"type":"VEC2","name":"part001_vertices#0_TEXCOORD_1"},{"bufferView":2,"byteOffset":2620,"componentType":5123,"count":12,"type":"VEC4","name":"part001_vertices#0_COLOR_0"},{"bufferView":3,"byteOffset":216,"componentType":5123,"count":36,"type":"SCALAR","name":"part001_indices#0"},{"bufferView":2,"byteOffset":3024,"componentType":5126,"count":24,"min":[-1.8998700380325318,-1.2835899591445923,-0.6488400101661682],"max":[1.899839997291565,-1.0498700141906739,-0.5915399789810181],"type":"VEC3","name":"part002_vertices#0_POSITION"},{"bufferView":2,"byteOffset":3036,"componentType":5120,"count":24,"type":"VEC4","name":"part002_vertices#0_TANGENT"},{"bufferView":2,"byteOffset":3040,"componentType":5120,"count":24,"type":"VEC4","name":"part002_vertices#0_NORMAL"},{"bufferView":2,"byteOffset":3044,"componentType":5122,"count":24,"type":"VEC2","name":"part002_vertices#0_TEXCOORD_0"},{"bufferView":2,"byteOffset":3048,"componentType":5122,"count":24,"type":"VEC2","name":"part002_vertices#0_TEXCOORD_1"},{"bufferView":2,"byteOffset":3052,"componentType":5123,"count":24,"type":"VEC4","name":"part002_vertices#0_COLOR_0"},{"bufferView":3,"byteOffset":288,"componentType":5123,"count":72,"type":"SCALAR","name":"part002_indices#0"},{"bufferView":2,"byteOffset":3888,"componentType":5126,"count":75,"min":[-6.9450201988220219,-1.5039399862289429,-1.578410029411316],"max":[2.0923099517822267,0.4565899968147278,3.609920024871826],"type":"VEC3","name":"part003_vertices#0_POSITION"},{"bufferView":2,"byteOffset":3900,"componentType":5120,"count":75,"type":"VEC4","name":"part003_vertices#0_TANGENT"},{"bufferView":2,"byteOffset":3904,"componentType":5120,"count":75,"type":"VEC4","name":"part003_vertices#0_NORMAL"},{"bufferView":2,"byteOffset":3908,"componentType":5122,"count":75,"type":"VEC2","name":"part003_vertices#0_TEXCOORD_0"},{"bufferView":2,"byteOffset":3912,"componentType":5122,"count":75,"type":"VEC2","name":"part003_vertices#0_TEXCOORD_1"},{"bufferView":2,"byteOffset":3916,"componentType":5123,"count":75,"type":"VEC4","name":"part003_vertices#0_COLOR_0"},{"bufferView":3,"byteOffset":432,"componentType":5123,"count":165,"type":"SCALAR","name":"part003_indices#0"},{"bufferView":2,"byteOffset":6588,"componentType":5126,"count":664,"min":[-7.717380046844482,-1.5039399862289429,-7.0931501388549809],"max":[7.717380046844482,2.671099901199341,3.996840000152588],"type":"VEC3","name":"part004_vertices#0_POSITION"},{"bufferView":2,"byteOffset":6600,"componentType":5120,"count":664,"type":"VEC4","name":"part004_vertices#0_TANGENT"},{"bufferView":2,"byteOffset":6604,"componentType":5120,"count":664,"type":"VEC4","name":"part004_vertices#0_NORMAL"},{"bufferView":2,"byteOffset":6608,"componentType":5122,"count":664,"type":"VEC2","name":"part004_vertices#0_TEXCOORD_0"},{"bufferView":2,"byteOffset":6612,"componentType":5122,"count":664,"type":"VEC2","name":"part004_vertices#0_TEXCOORD_1"},{"bufferView":2,"byteOffset":6616,"componentType":5123,"count":664,"type":"VEC4","name":"part004_vertices#0_COLOR_0"},{"bufferView":3,"byteOffset":762,"componentType":5123,"count":2166,"type":"SCALAR","name":"part004_indices#0"},{"bufferView":2,"byteOffset":30492,"componentType":5126,"count":24,"min":[-0.7840099930763245,-0.030789999291300775,-0.7714300155639648],"max":[0.7840099930763245,0.030789999291300775,0.7714300155639648],"type":"VEC3","name":"part005_vertices#0_POSITION"},{"bufferView":2,"byteOffset":30504,"componentType":5120,"count":24,"type":"VEC4","name":"part005_vertices#0_TANGENT"},{"bufferView":2,"byteOffset":30508,"componentType":5120,"count":24,"type":"VEC4","name":"part005_vertices#0_NORMAL"},{"bufferView":2,"byteOffset":30512,"componentType":5122,"count":24,"type":"VEC2","name":"part005_vertices#0_TEXCOORD_0"},{"bufferView":2,"byteOffset":30516,"componentType":5122,"count":24,"type":"VEC2","name":"part005_vertices#0_TEXCOORD_1"},{"bufferView":2,"byteOffset":30520,"componentType":5123,"count":24,"type":"VEC4","name":"part005_vertices#0_COLOR_0"},{"bufferView":3,"byteOffset":5094,"componentType":5123,"count":48,"type":"SCALAR","name":"part005_indices#0"},{"bufferView":2,"byteOffset":31356,"componentType":5126,"count":24,"min":[-0.9199100136756897,-0.030789999291300775,-0.5957199931144714],"max":[0.9199100136756897,0.030789999291300775,0.5957199931144714],"type":"VEC3","name":"part006_vertices#0_POSITION"},{"bufferView":2,"byteOffset":31368,"componentType":5120,"count":24,"type":"VEC4","name":"part006_vertices#0_TANGENT"},{"bufferView":2,"byteOffset":31372,"componentType":5120,"count":24,"type":"VEC4","name":"part006_vertices#0_NORMAL"},{"bufferView":2,"byteOffset":31376,"componentType":5122,"count":24,"type":"VEC2","name":"part006_vertices#0_TEXCOORD_0"},{"bufferView":2,"byteOffset":31380,"componentType":5122,"count":24,"type":"VEC2","name":"part006_vertices#0_TEXCOORD_1"},{"bufferView":2,"byteOffset":31384,"componentType":5123,"count":24,"type":"VEC4","name":"part006_vertices#0_COLOR_0"},{"bufferView":3,"byteOffset":5190,"componentType":5123,"count":48,"type":"SCALAR","name":"part006_indices#0"},{"bufferView":2,"byteOffset":32220,"componentType":5126,"count":34,"min":[-1.0749399662017823,0.0,-1.0749399662017823],"max":[1.0749399662017823,0.0,1.0749399662017823],"type":"VEC3","name":"part007_vertices#0_POSITION"},{"bufferView":2,"byteOffset":32232,"componentType":5120,"count":34,"type":"VEC4","name":"part007_vertices#0_TANGENT"},{"bufferView":2,"byteOffset":32236,"componentType":5120,"count":34,"type":"VEC4","name":"part007_vertices#0_NORMAL"},{"bufferView":2,"byteOffset":32240,"componentType":5122,"count":34,"type":"VEC2","name":"part007_vertices#0_TEXCOORD_0"},{"bufferView":2,"byteOffset":32244,"componentType":5122,"count":34,"type":"VEC2","name":"part007_vertices#0_TEXCOORD_1"},{"bufferView":2,"byteOffset":32248,"componentType":5123,"count":34,"type":"VEC4","name":"part007_vertices#0_COLOR_0"},{"bufferView":3,"byteOffset":5286,"componentType":5123,"count":96,"type":"SCALAR","name":"part007_indices#0"},{"bufferView":2,"byteOffset":33444,"componentType":5126,"count":34,"min":[-1.0749399662017823,0.0,-1.0749399662017823],"max":[1.0749399662017823,0.0,1.0749399662017823],"type":"VEC3","name":"part008_vertices#0_POSITION"},{"bufferView":2,"byteOffset":33456,"componentType":5120,"count":34,"type":"VEC4","name":"part008_vertices#0_TANGENT"},{"bufferView":2,"byteOffset":33460,"componentType":5120,"count":34,"type":"VEC4","name":"part008_vertices#0_NORMAL"},{"bufferView":2,"byteOffset":33464,"componentType":5122,"count":34,"type":"VEC2","name":"part008_vertices#0_TEXCOORD_0"},{"bufferView":2,"byteOffset":33468,"componentType":5122,"count":34,"type":"VEC2","name":"part008_vertices#0_TEXCOORD_1"},{"bufferView":2,"byteOffset":33472,"componentType":5123,"count":34,"type":"VEC4","name":"part008_vertices#0_COLOR_0"},{"bufferView":3,"byteOffset":5478,"componentType":5123,"count":96,"type":"SCALAR","name":"part008_indices#0"}],"animations":[{"name":"engine0","channels":[{"sampler":0,"target":{"node":18,"path":"rotation"}},{"sampler":1,"target":{"node":23,"path":"rotation"}}],"samplers":[{"input":0,"output":1,"interpolation":"LINEAR"},{"input":4,"output":5,"interpolation":"LINEAR"}]},{"name":"engine1","channels":[{"sampler":0,"target":{"node":21,"path":"rotation"}},{"sampler":1,"target":{"node":26,"path":"rotation"}}],"samplers":[{"input":2,"output":3,"interpolation":"LINEAR"},{"input":6,"output":7,"interpolation":"LINEAR"}]}],"asset":{"generator":"ModelConverterX","version":"2.0","extensions":{"ASOBO_asset_optimized":{"BoundingBoxMax":[7.717380046844482,2.671099901199341,3.996840000152588],"BoundingBoxMin":[-7.717380046844482,-1.5039399862289429,-7.0931501388549809],"MajorVersion":4,"MinorVersion":4,"UseCheckerboardMaterialForMissingTextures":true,"UseOnlyFilenameForImageURI":true}}},"bufferViews":[{"buffer":0,"byteLength":80,"byteStride":4},{"buffer":0,"byteLength":320,"byteStride":16,"byteOffset":80},{"buffer":0,"byteLength":34668,"byteStride":36,"byteOffset":400,"target":34962,"name":"BufferViewVertexND"},{"buffer":0,"byteLength":5670,"byteOffset":35068,"target":34963,"name":"BufferViewIndex"}],"extensionsRequired":["MSFT_texture_dds"],"materials":[{"name":"material00","occlusionTexture":{"index":1},"emissiveTexture":{"index":2},"emissiveFactor":[0.019607843831181527,0.019607843831181527,0.019607843831181527],"pbrMetallicRoughness":{"baseColorTexture":{"index":0},"metallicRoughnessTexture":{"index":1}},"extensions":{"ASOBO_material_day_night_switch":{}}},{"name":"material01","pbrMetallicRoughness":{"baseColorFactor":[0.03921600058674812,0.03921600058674812,0.03921600058674812,1.0],"metallicFactor":0.0,"roughnessFactor":0.8}},{"name":"material02","pbrMetallicRoughness":{"baseColorFactor":[0.2901960015296936,0.2901960015296936,0.2901960015296936,1.0],"roughnessFactor":0.30000001192092898}},{"name":"material03","pbrMetallicRoughness":{"baseColorFactor":[0.4392159879207611,0.4392159879207611,0.4392159879207611,1.0],"roughnessFactor":0.3999999761581421}},{"name":"material04","pbrMetallicRoughness":{"metallicFactor":0.0}},{"name":"material05","alphaMode":"BLEND","pbrMetallicRoughness":{"baseColorFactor":[0.0,0.0,0.0,0.9803919792175292],"metallicFactor":0.0,"baseColorTexture":{"index":3}}}],"meshes":[{"primitives":[{"attributes":{"COLOR_0":13,"NORMAL":10,"POSITION":8,"TANGENT":9,"TEXCOORD_0":11,"TEXCOORD_1":12},"indices":14,"material":4,"mode":4,"extras":{"ASOBO_primitive":{"PrimitiveCount":36,"VertexType":"VTX","VertexVersion":2}}}],"name":"part000"},{"primitives":[{"attributes":{"COLOR_0":20,"NORMAL":17,"POSITION":15,"TANGENT":16,"TEXCOORD_0":18,"TEXCOORD_1":19},"indices":21,"material":3,"mode":4,"extras":{"ASOBO_primitive":{"PrimitiveCount":12,"VertexType":"VTX","VertexVersion":2}}}],"name":"part001"},{"primitives":[{"attributes":{"COLOR_0":27,"NORMAL":24,"POSITION":22,"TANGENT":23,"TEXCOORD_0":25,"TEXCOORD_1":26},"indices":28,"material":2,"mode":4,"extras":{"ASOBO_primitive":{"PrimitiveCount":24,"VertexType":"VTX","VertexVersion":2}}}],"name":"part002"},{"primitives":[{"attributes":{"COLOR_0":34,"NORMAL":31,"POSITION":29,"TANGENT":30,"TEXCOORD_0":32,"TEXCOORD_1":33},"indices":35,"material":1,"mode":4,"extras":{"ASOBO_primitive":{"PrimitiveCount":55,"VertexType":"VTX","VertexVersion":2}}}],"name":"part003"},{"primitives":[{"attributes":{"COLOR_0":41,"NORMAL":38,"POSITION":36,"TANGENT":37,"TEXCOORD_0":39,"TEXCOORD_1":40},"indices":42,"material":0,"mode":4,"extras":{"ASOBO_primitive":{"PrimitiveCount":722,"VertexType":"VTX","VertexVersion":2}}}],"name":"part004"},{"primitives":[{"attributes":{"COLOR_0":48,"NORMAL":45,"POSITION":43,"TANGENT":44,"TEXCOORD_0":46,"TEXCOORD_1":47},"indices":49,"material":0,"mode":4,"extras":{"ASOBO_primitive":{"PrimitiveCount":16,"VertexType":"VTX","VertexVersion":2}}}],"name":"part005"},{"primitives":[{"attributes":{"COLOR_0":55,"NORMAL":52,"POSITION":50,"TANGENT":51,"TEXCOORD_0":53,"TEXCOORD_1":54},"indices":56,"material":0,"mode":4,"extras":{"ASOBO_primitive":{"PrimitiveCount":16,"VertexType":"VTX","VertexVersion":2}}}],"name":"part006"},{"primitives":[{"attributes":{"COLOR_0":62,"NORMAL":59,"POSITION":57,"TANGENT":58,"TEXCOORD_0":60,"TEXCOORD_1":61},"indices":63,"material":5,"mode":4,"extras":{"ASOBO_primitive":{"PrimitiveCount":32,"VertexType":"VTX","VertexVersion":2}}}],"name":"part007"},{"primitives":[{"attributes":{"COLOR_0":69,"NORMAL":66,"POSITION":64,"TANGENT":65,"TEXCOORD_0":67,"TEXCOORD_1":68},"indices":70,"material":5,"mode":4,"extras":{"ASOBO_primitive":{"PrimitiveCount":32,"VertexType":"VTX","VertexVersion":2}}}],"name":"part008"}],"nodes":[{"name":"node_0","children":[1,2,3,4,5,6,7,8,9,10,11,12,13,14,15]},{"mesh":0,"name":"node_9"},{"mesh":1,"name":"node_10"},{"mesh":2,"name":"node_11"},{"mesh":3,"name":"node_12"},{"mesh":4,"name":"cabin_lights_VC"},{"translation":[1.8799999952316285,-1.4500000476837159,-0.7499999999999999],"rotation":[-6.123031769111886e-17,3.061515884555943e-17,1.0,1.874575902277672e-33],"scale":[1.0,1.0,1.0],"name":"l_tire1"},{"translation":[-6.820000171661377,0.44999998807907107,0.49000000953674235],"rotation":[-0.7071067811865475,0.0,0.0,0.7071067811865475],"scale":[1.0,1.0,1.0],"name":"landing_r"},{"translation":[-6.820000171661377,0.44999998807907107,0.49000000953674235],"rotation":[-0.7071067811865475,0.0,0.0,0.7071067811865475],"scale":[1.0,1.0,1.0],"name":"taxi_r"},{"translation":[6.820000171661377,0.44999998807907107,0.490000009536744],"rotation":[-0.7071067811865475,0.0,0.0,0.7071067811865475],"scale":[1.0,1.0,1.0],"name":"landing_l"},{"translation":[6.820000171661377,0.44999998807907107,0.490000009536744],"rotation":[-0.7071067811865475,0.0,0.0,0.7071067811865475],"scale":[1.0,1.0,1.0],"name":"taxi_l"},{"translation":[-1.8799999952316285,-1.4500000476837159,-0.7500000000000001],"rotation":[-6.123031769111886e-17,3.061515884555943e-17,1.0,1.874575902277672e-33],"scale":[1.0,1.0,1.0],"name":"r_tire1"},{"translation":[-3.979970649922726e-16,-1.4500000476837159,3.25],"rotation":[-6.123031769111886e-17,3.061515884555943e-17,1.0,1.874575902277672e-33],"scale":[1.0,1.0,1.0],"name":"c_tire1"},{"translation":[1.8999999761581424,0.30000001192092898,-1.8500000238418577],"rotation":[-6.123031769111886e-17,3.061515884555943e-17,1.0,1.874575902277672e-33],"scale":[1.0,1.0,1.0],"name":"contrail1"},{"translation":[-1.899999976158142,0.30000001192092898,-1.850000023841858],"rotation":[-6.123031769111886e-17,3.061515884555943e-17,1.0,1.874575902277672e-33],"scale":[1.0,1.0,1.0],"name":"contrail2"},{"translation":[0.0,0.0,0.0],"rotation":[-4.329637285359677e-17,0.7071067811865475,0.7071067811865475,4.329637285359677e-17],"scale":[1.0,1.0,1.0],"name":"node_36","children":[16,19,22,25]},{"translation":[-1.859663009643555,1.0482289791107178,0.09392099827528],"rotation":[0.0,0.0,0.0,1.0],"scale":[1.0,1.0,1.0],"name":"node_37","children":[17]},{"name":"prop0_still_VC","children":[18]},{"mesh":5,"name":"engine0_AN_VC"},{"translation":[1.8595850467681885,1.0482070446014405,0.09387800097465517],"rotation":[0.0,0.0,0.0,1.0],"scale":[1.0,1.0,1.0],"name":"node_43","children":[20]},{"name":"prop1_still_VC","children":[21]},{"mesh":6,"name":"engine1_AN_VC"},{"translation":[-1.859663009643555,1.0451810359954835,0.09443700313568115],"rotation":[0.0,0.0,0.0,1.0],"scale":[1.0,1.0,1.0],"name":"node_61","children":[23]},{"name":"engine0_AN_61","children":[24]},{"mesh":7,"name":"prop0_blurred_VC"},{"translation":[1.8595850467681885,1.0451589822769166,0.0944880023598671],"rotation":[0.0,0.0,0.0,1.0],"scale":[1.0,1.0,1.0],"name":"node_67","children":[26]},{"name":"engine1_AN_67","children":[27]},{"mesh":8,"name":"prop1_blurred_VC"}],"scene":0,"scenes":[{"nodes":[0]}],"textures":[{"extensions":{"MSFT_texture_dds":{"source":0}}},{"extensions":{"MSFT_texture_dds":{"source":1}}},{"extensions":{"MSFT_texture_dds":{"source":2}}},{"extensions":{"MSFT_texture_dds":{"source":3}}}],"extensionsUsed":["ASOBO_material_day_night_switch","MSFT_texture_dds","ASOBO_asset_optimized"],"buffers":[{"byteLength":40738,"uri":"HTAI Britten-Norman BN-2 Islander Long Nose MSFS_LOD2.bin"}],"images":[{"uri":"AIBN2.PNG.DDS","extras":"ASOBO_image_converted_meta"},{"uri":"AIBN2_C.PNG.DDS","extras":"ASOBO_image_converted_meta"},{"uri":"CABIN_LIGHTS.PNG.DDS","extras":"ASOBO_image_converted_meta"},{"uri":"PROP-HS.PNG.DDS","extras":"ASOBO_image_converted_meta"}]}
