{"accessors":[{"bufferView":0,"componentType":5126,"count":4,"min":[0.0],"max":[200.0],"type":"SCALAR"},{"bufferView":1,"componentType":5126,"count":4,"type":"VEC4"},{"bufferView":2,"componentType":5126,"count":3525,"min":[-13.140089988708496,-1.2641799449920655,-19.85603904724121],"max":[13.140089988708496,5.251589775085449,19.2419490814209],"type":"VEC3","name":"part000_vertices#0_POSITION"},{"bufferView":2,"byteOffset":12,"componentType":5120,"count":3525,"type":"VEC4","name":"part000_vertices#0_TANGENT"},{"bufferView":2,"byteOffset":16,"componentType":5120,"count":3525,"type":"VEC4","name":"part000_vertices#0_NORMAL"},{"bufferView":2,"byteOffset":20,"componentType":5122,"count":3525,"type":"VEC2","name":"part000_vertices#0_TEXCOORD_0"},{"bufferView":2,"byteOffset":24,"componentType":5122,"count":3525,"type":"VEC2","name":"part000_vertices#0_TEXCOORD_1"},{"bufferView":2,"byteOffset":28,"componentType":5123,"count":3525,"type":"VEC4","name":"part000_vertices#0_COLOR_0"},{"bufferView":3,"componentType":5123,"count":12333,"type":"SCALAR","name":"part000_indices#0"}],"animations":[{"name":"c_gear","channels":[{"sampler":0,"target":{"node":18,"path":"rotation"}}],"samplers":[{"input":0,"output":1,"interpolation":"LINEAR"}]}],"asset":{"generator":"ModelConverterX","version":"2.0","extensions":{"ASOBO_asset_optimized":{"BoundingBoxMax":[13.140089988708496,5.251589775085449,19.2419490814209],"BoundingBoxMin":[-13.140089988708496,-1.2641799449920655,-19.85603904724121],"MajorVersion":4,"MinorVersion":4,"UseCheckerboardMaterialForMissingTextures":true,"UseOnlyFilenameForImageURI":true}}},"bufferViews":[{"buffer":0,"byteLength":16,"byteStride":4},{"buffer":0,"byteLength":64,"byteStride":16,"byteOffset":16},{"buffer":0,"byteLength":126900,"byteStride":36,"byteOffset":80,"target":34962,"name":"BufferViewVertexND"},{"buffer":0,"byteLength":24666,"byteOffset":126980,"target":34963,"name":"BufferViewIndex"}],"extensionsRequired":["MSFT_texture_dds"],"materials":[{"name":"material00","emissiveTexture":{"index":1},"emissiveFactor":[0.019607843831181527,0.019607843831181527,0.019607843831181527],"pbrMetallicRoughness":{"metallicFactor":0.0,"baseColorTexture":{"index":0}},"extensions":{"ASOBO_material_day_night_switch":{}}}],"meshes":[{"primitives":[{"attributes":{"COLOR_0":7,"NORMAL":4,"POSITION":2,"TANGENT":3,"TEXCOORD_0":5,"TEXCOORD_1":6},"indices":8,"material":0,"mode":4,"extras":{"ASOBO_primitive":{"PrimitiveCount":4111,"VertexType":"VTX","VertexVersion":2}}}],"name":"part000"}],"nodes":[{"name":"node_0","children":[1,2,3,4,5,6,7,8,9,10,11,12,13,14,15,16]},{"mesh":0,"name":"node_1"},{"translation":[2.2599999904632588,1.3200000524520875,-13.199999809265137],"rotation":[-6.123031769111886e-17,3.061515884555943e-17,1.0,1.874575902277672e-33],"scale":[1.0,1.0,1.0],"name":"contrail1"},{"translation":[1.899999976158142,-0.6600000262260437,1.6399999856948858],"rotation":[4.310704523766446e-17,0.7101853756232854,-0.7040147244559685,-4.348487616900036e-17],"scale":[1.0,1.0,1.0],"name":"landing_l2"},{"translation":[1.3374619483947748,0.5583140254020691,3.3280560970306398],"rotation":[0.6147865407623168,-0.33327647931680579,0.21662113178802709,0.6812045088624805],"scale":[1.0,1.0,1.0],"name":"wing_l"},{"translation":[1.3899999856948869,1.4299999475479127,-12.130000114440918],"rotation":[0.13256026964142204,0.5644437337087168,0.8072884398525626,-0.11007461682864137],"scale":[1.0,1.0,1.0],"name":"logo_l"},{"translation":[-1.3899999856948838,1.4299999475479127,-12.130000114440918],"rotation":[-0.15420813280768407,0.5677510508428098,0.8034343171553968,0.09149805495142637],"scale":[1.0,1.0,1.0],"name":"logo_r"},{"translation":[-1.3374619483947759,0.5583140254020691,3.328110933303833],"rotation":[0.5867838465673573,0.24883737750336389,-0.2838519382481606,0.716374730233854],"scale":[1.0,1.0,1.0],"name":"wing_r"},{"translation":[1.6683490276336668,-0.6604840159416199,1.7760150432586673],"rotation":[4.310704523766446e-17,0.7101853756232854,-0.7040147244559685,-4.348487616900036e-17],"scale":[1.0,1.0,1.0],"name":"landing_l1"},{"translation":[-1.6684750318527225,-0.6604840159416199,1.7760150432586668],"rotation":[4.310704523766446e-17,0.7101853756232854,-0.7040147244559685,-4.348487616900036e-17],"scale":[1.0,1.0,1.0],"name":"landing_r1"},{"translation":[-1.8999999761581424,-0.6600000262260437,1.639999985694885],"rotation":[4.310704523766446e-17,0.7101853756232854,-0.7040147244559685,-4.348487616900036e-17],"scale":[1.0,1.0,1.0],"name":"landing_r2"},{"translation":[-2.259999990463255,1.3200000524520875,-13.199999809265137],"rotation":[-6.123031769111886e-17,3.061515884555943e-17,1.0,1.874575902277672e-33],"scale":[1.0,1.0,1.0],"name":"contrail2"},{"translation":[-2.0695846912447926e-15,-1.4700000286102296,16.899999618530275],"rotation":[-6.123031769111886e-17,3.061515884555943e-17,1.0,1.874575902277672e-33],"scale":[1.0,1.0,1.0],"name":"c_tire1"},{"translation":[2.0599999427795416,-2.119999885559082,-1.899999976158142],"rotation":[-6.123031769111886e-17,3.061515884555943e-17,1.0,1.874575902277672e-33],"scale":[1.0,1.0,1.0],"name":"l_tire1"},{"translation":[-2.059999942779541,-2.119999885559082,-1.8999999761581424],"rotation":[-6.123031769111886e-17,3.061515884555943e-17,1.0,1.874575902277672e-33],"scale":[1.0,1.0,1.0],"name":"r_tire1"},{"translation":[2.1063230220045396e-15,1.1599999666213988,-17.200000762939454],"rotation":[-5.3027010602300676e-17,-0.5000000000000001,0.8660254037844387,-3.0615158845559446e-17],"scale":[1.0,1.0,1.0],"name":"APU"},{"translation":[0.0,0.0,0.0],"rotation":[-4.329637285359677e-17,0.7071067811865475,0.7071067811865475,4.329637285359677e-17],"scale":[1.0,1.0,1.0],"name":"node_18","children":[17]},{"translation":[0.0,17.040800094604493,-0.5170379877090454],"rotation":[-0.5519370537884879,0.0,0.0,0.8338857767436042],"scale":[1.0,1.0,1.0],"name":"node_19","children":[18]},{"name":"c_gear_AN_19","children":[19]},{"translation":[0.119999997317791,0.0,0.16000000852418587],"rotation":[0.0,0.0,0.0,1.0],"scale":[1.0,1.0,1.0],"name":"node_25","children":[20]},{"translation":[0.0,0.0,0.0],"rotation":[0.0,1.0,0.0,-6.123031769111886e-17],"scale":[1.0,1.0,1.0],"name":"landing_nose"}],"scene":0,"scenes":[{"nodes":[0]}],"textures":[{"extensions":{"MSFT_texture_dds":{"source":0}}},{"extensions":{"MSFT_texture_dds":{"source":1}}}],"extensionsUsed":["ASOBO_material_day_night_switch","MSFT_texture_dds","ASOBO_asset_optimized"],"buffers":[{"byteLength":151646,"uri":"RFSL_Bombardier_CRJ-1000_MSFS_LOD1.bin"}],"images":[{"uri":"RFSL_CRJ1000_T.PNG.DDS","extras":"ASOBO_image_converted_meta"},{"uri":"RFSL_CRJ1000_L.PNG.DDS","extras":"ASOBO_image_converted_meta"}]}
