{"accessors":[{"bufferView":0,"componentType":5126,"count":51,"min":[0.0],"max":[100.0],"type":"SCALAR"},{"bufferView":2,"componentType":5126,"count":51,"type":"VEC4"},{"bufferView":0,"byteOffset":204,"componentType":5126,"count":51,"min":[0.0],"max":[100.0],"type":"SCALAR"},{"bufferView":2,"byteOffset":816,"componentType":5126,"count":51,"type":"VEC4"},{"bufferView":0,"byteOffset":408,"componentType":5126,"count":2,"min":[0.0],"max":[100.0],"type":"SCALAR"},{"bufferView":1,"componentType":5126,"count":2,"type":"VEC3"},{"bufferView":0,"byteOffset":416,"componentType":5126,"count":42,"min":[0.0],"max":[100.0],"type":"SCALAR"},{"bufferView":2,"byteOffset":1632,"componentType":5126,"count":42,"type":"VEC4"},{"bufferView":0,"byteOffset":584,"componentType":5126,"count":42,"min":[0.0],"max":[100.0],"type":"SCALAR"},{"bufferView":2,"byteOffset":2304,"componentType":5126,"count":42,"type":"VEC4"},{"bufferView":3,"componentType":5126,"count":126,"min":[-14.064000129699707,-1.1360000371932984,-17.416000366210939],"max":[14.064000129699707,5.964000225067139,13.088000297546387],"type":"VEC3","name":"part000_vertices#0_POSITION"},{"bufferView":3,"byteOffset":12,"componentType":5120,"count":126,"type":"VEC4","name":"part000_vertices#0_TANGENT"},{"bufferView":3,"byteOffset":16,"componentType":5120,"count":126,"type":"VEC4","name":"part000_vertices#0_NORMAL"},{"bufferView":3,"byteOffset":20,"componentType":5122,"count":126,"type":"VEC2","name":"part000_vertices#0_TEXCOORD_0"},{"bufferView":3,"byteOffset":24,"componentType":5122,"count":126,"type":"VEC2","name":"part000_vertices#0_TEXCOORD_1"},{"bufferView":3,"byteOffset":28,"componentType":5123,"count":126,"type":"VEC4","name":"part000_vertices#0_COLOR_0"},{"bufferView":4,"componentType":5123,"count":216,"type":"SCALAR","name":"part000_indices#0"},{"bufferView":3,"byteOffset":4536,"componentType":5126,"count":8,"min":[0.0867300033569336,-2.27347993850708,0.786270022392273],"max":[0.610729992389679,-0.4334700107574463,2.262279987335205],"type":"VEC3","name":"part001_vertices#0_POSITION"},{"bufferView":3,"byteOffset":4548,"componentType":5120,"count":8,"type":"VEC4","name":"part001_vertices#0_TANGENT"},{"bufferView":3,"byteOffset":4552,"componentType":5120,"count":8,"type":"VEC4","name":"part001_vertices#0_NORMAL"},{"bufferView":3,"byteOffset":4556,"componentType":5122,"count":8,"type":"VEC2","name":"part001_vertices#0_TEXCOORD_0"},{"bufferView":3,"byteOffset":4560,"componentType":5122,"count":8,"type":"VEC2","name":"part001_vertices#0_TEXCOORD_1"},{"bufferView":3,"byteOffset":4564,"componentType":5123,"count":8,"type":"VEC4","name":"part001_vertices#0_COLOR_0"},{"bufferView":4,"byteOffset":432,"componentType":5123,"count":12,"type":"SCALAR","name":"part001_indices#0"},{"bufferView":3,"byteOffset":4824,"componentType":5126,"count":8,"min":[-0.6094499826431274,-2.27347993850708,0.786270022392273],"max":[-0.08545000106096268,-0.4334700107574463,2.262279987335205],"type":"VEC3","name":"part002_vertices#0_POSITION"},{"bufferView":3,"byteOffset":4836,"componentType":5120,"count":8,"type":"VEC4","name":"part002_vertices#0_TANGENT"},{"bufferView":3,"byteOffset":4840,"componentType":5120,"count":8,"type":"VEC4","name":"part002_vertices#0_NORMAL"},{"bufferView":3,"byteOffset":4844,"componentType":5122,"count":8,"type":"VEC2","name":"part002_vertices#0_TEXCOORD_0"},{"bufferView":3,"byteOffset":4848,"componentType":5122,"count":8,"type":"VEC2","name":"part002_vertices#0_TEXCOORD_1"},{"bufferView":3,"byteOffset":4852,"componentType":5123,"count":8,"type":"VEC4","name":"part002_vertices#0_COLOR_0"},{"bufferView":4,"byteOffset":456,"componentType":5123,"count":12,"type":"SCALAR","name":"part002_indices#0"},{"bufferView":3,"byteOffset":5112,"componentType":5126,"count":22,"min":[-3.131999969482422,-0.007910000160336495,-0.9160799980163574],"max":[3.131999969482422,0.6400899887084961,0.1319199949502945],"type":"VEC3","name":"part003_vertices#0_POSITION"},{"bufferView":3,"byteOffset":5124,"componentType":5120,"count":22,"type":"VEC4","name":"part003_vertices#0_TANGENT"},{"bufferView":3,"byteOffset":5128,"componentType":5120,"count":22,"type":"VEC4","name":"part003_vertices#0_NORMAL"},{"bufferView":3,"byteOffset":5132,"componentType":5122,"count":22,"type":"VEC2","name":"part003_vertices#0_TEXCOORD_0"},{"bufferView":3,"byteOffset":5136,"componentType":5122,"count":22,"type":"VEC2","name":"part003_vertices#0_TEXCOORD_1"},{"bufferView":3,"byteOffset":5140,"componentType":5123,"count":22,"type":"VEC4","name":"part003_vertices#0_COLOR_0"},{"bufferView":4,"byteOffset":480,"componentType":5123,"count":30,"type":"SCALAR","name":"part003_indices#0"},{"bufferView":3,"byteOffset":5904,"componentType":5126,"count":22,"min":[-3.131999969482422,-0.7153699994087219,-0.9153000116348267],"max":[3.131999969482422,-0.007369999773800373,0.13269999623298646],"type":"VEC3","name":"part004_vertices#0_POSITION"},{"bufferView":3,"byteOffset":5916,"componentType":5120,"count":22,"type":"VEC4","name":"part004_vertices#0_TANGENT"},{"bufferView":3,"byteOffset":5920,"componentType":5120,"count":22,"type":"VEC4","name":"part004_vertices#0_NORMAL"},{"bufferView":3,"byteOffset":5924,"componentType":5122,"count":22,"type":"VEC2","name":"part004_vertices#0_TEXCOORD_0"},{"bufferView":3,"byteOffset":5928,"componentType":5122,"count":22,"type":"VEC2","name":"part004_vertices#0_TEXCOORD_1"},{"bufferView":3,"byteOffset":5932,"componentType":5123,"count":22,"type":"VEC4","name":"part004_vertices#0_COLOR_0"},{"bufferView":4,"byteOffset":540,"componentType":5123,"count":30,"type":"SCALAR","name":"part004_indices#0"}],"animations":[{"name":"AIA_Fokker_TailSpeedBrake","channels":[{"sampler":0,"target":{"node":16,"path":"rotation"}},{"sampler":1,"target":{"node":18,"path":"rotation"}}],"samplers":[{"input":0,"output":1,"interpolation":"LINEAR"},{"input":2,"output":3,"interpolation":"LINEAR"}]},{"name":"custom_anim_REV_THRUST","channels":[{"sampler":0,"target":{"node":20,"path":"translation"}},{"sampler":1,"target":{"node":22,"path":"rotation"}},{"sampler":2,"target":{"node":24,"path":"rotation"}}],"samplers":[{"input":4,"output":5,"interpolation":"LINEAR"},{"input":6,"output":7,"interpolation":"LINEAR"},{"input":8,"output":9,"interpolation":"LINEAR"}]}],"asset":{"generator":"ModelConverterX","version":"2.0","extensions":{"ASOBO_asset_optimized":{"BoundingBoxMax":[14.064000129699707,5.964000225067139,13.088000297546387],"BoundingBoxMin":[-14.064000129699707,-2.27347993850708,-17.416000366210939],"MajorVersion":4,"MinorVersion":4,"UseCheckerboardMaterialForMissingTextures":true,"UseOnlyFilenameForImageURI":true}}},"bufferViews":[{"buffer":0,"byteLength":752,"byteStride":4},{"buffer":0,"byteLength":24,"byteStride":12,"byteOffset":752},{"buffer":0,"byteLength":2976,"byteStride":16,"byteOffset":776},{"buffer":0,"byteLength":6696,"byteStride":36,"byteOffset":3752,"target":34962,"name":"BufferViewVertexND"},{"buffer":0,"byteLength":600,"byteOffset":10448,"target":34963,"name":"BufferViewIndex"}],"extensionsRequired":["MSFT_texture_dds"],"materials":[{"name":"material00","occlusionTexture":{"index":1},"emissiveTexture":{"index":2},"emissiveFactor":[0.019607843831181527,0.019607843831181527,0.019607843831181527],"pbrMetallicRoughness":{"baseColorTexture":{"index":0},"metallicRoughnessTexture":{"index":1}},"extensions":{"ASOBO_material_day_night_switch":{}}}],"meshes":[{"primitives":[{"attributes":{"COLOR_0":15,"NORMAL":12,"POSITION":10,"TANGENT":11,"TEXCOORD_0":13,"TEXCOORD_1":14},"indices":16,"material":0,"mode":4,"extras":{"ASOBO_primitive":{"PrimitiveCount":72,"VertexType":"VTX","VertexVersion":2}}}],"name":"part000"},{"primitives":[{"attributes":{"COLOR_0":22,"NORMAL":19,"POSITION":17,"TANGENT":18,"TEXCOORD_0":20,"TEXCOORD_1":21},"indices":23,"material":0,"mode":4,"extras":{"ASOBO_primitive":{"PrimitiveCount":4,"VertexType":"VTX","VertexVersion":2}}}],"name":"part001"},{"primitives":[{"attributes":{"COLOR_0":29,"NORMAL":26,"POSITION":24,"TANGENT":25,"TEXCOORD_0":27,"TEXCOORD_1":28},"indices":30,"material":0,"mode":4,"extras":{"ASOBO_primitive":{"PrimitiveCount":4,"VertexType":"VTX","VertexVersion":2}}}],"name":"part002"},{"primitives":[{"attributes":{"COLOR_0":36,"NORMAL":33,"POSITION":31,"TANGENT":32,"TEXCOORD_0":34,"TEXCOORD_1":35},"indices":37,"material":0,"mode":4,"extras":{"ASOBO_primitive":{"PrimitiveCount":10,"VertexType":"VTX","VertexVersion":2}}}],"name":"part003"},{"primitives":[{"attributes":{"COLOR_0":43,"NORMAL":40,"POSITION":38,"TANGENT":39,"TEXCOORD_0":41,"TEXCOORD_1":42},"indices":44,"material":0,"mode":4,"extras":{"ASOBO_primitive":{"PrimitiveCount":10,"VertexType":"VTX","VertexVersion":2}}}],"name":"part004"}],"nodes":[{"name":"node_0","children":[1,2,3,4,5,6,7,8,9,10,11,12,13,14]},{"mesh":0,"name":"node_1"},{"translation":[-1.0776536147212046e-15,-1.649999976158142,8.800000190734864],"rotation":[-6.123031769111886e-17,3.061515884555943e-17,1.0,1.874575902277672e-33],"scale":[1.0,1.0,1.0],"name":"c_tire1"},{"translation":[2.5000000000000015,1.2000000476837159,-9.300000190734864],"rotation":[-6.123031769111886e-17,3.061515884555943e-17,1.0,1.874575902277672e-33],"scale":[1.0,1.0,1.0],"name":"contrail1"},{"translation":[8.15999984741211,0.119999997317791,-4.929999828338622],"rotation":[0.23465632054019837,0.5165177173550029,0.7629992038491522,-0.3098032824462535],"scale":[1.0,1.0,1.0],"name":"logo_l"},{"translation":[-8.15999984741211,0.119999997317791,-4.929999828338624],"rotation":[-0.23465632054019848,0.5165177173550027,0.7629992038491522,0.30980328244625357],"scale":[1.0,1.0,1.0],"name":"logo_r"},{"translation":[0.14000000059604507,-0.6299999952316284,11.43000030517578],"rotation":[-0.6851829903263592,0.0,0.0,0.7283709698824004],"scale":[1.0,1.0,1.0],"name":"taxi_nose"},{"translation":[0.14000000059604507,-0.6299999952316284,11.43000030517578],"rotation":[-0.7071067811865475,0.0,0.0,0.7071067811865475],"scale":[1.0,1.0,1.0],"name":"landing_nose_l"},{"translation":[13.350000381469729,0.3499999940395355,-3.9999999999999984],"rotation":[-0.7071067811865475,0.0,0.0,0.7071067811865475],"scale":[1.0,1.0,1.0],"name":"landing_l"},{"translation":[-13.350000381469729,0.3499999940395355,-4.000000000000002],"rotation":[-0.7071067811865475,0.0,0.0,0.7071067811865475],"scale":[1.0,1.0,1.0],"name":"landing_r"},{"translation":[-2.4999999999999988,1.2000000476837159,-9.300000190734864],"rotation":[-6.123031769111886e-17,3.061515884555943e-17,1.0,1.874575902277672e-33],"scale":[1.0,1.0,1.0],"name":"contrail2"},{"translation":[2.400000095367432,-1.75,-3.099999904632568],"rotation":[-6.123031769111886e-17,3.061515884555943e-17,1.0,1.874575902277672e-33],"scale":[1.0,1.0,1.0],"name":"l_tire1"},{"translation":[-2.400000095367431,-1.75,-3.099999904632569],"rotation":[-6.123031769111886e-17,3.061515884555943e-17,1.0,1.874575902277672e-33],"scale":[1.0,1.0,1.0],"name":"r_tire1"},{"translation":[-1.1000000238418569,1.7999999523162842,-9.25],"rotation":[0.1244850420368845,-0.2981332197038148,0.9455577700244291,0.039249982987779017],"scale":[1.0,1.0,1.0],"name":"APU"},{"translation":[0.0,0.0,0.0],"rotation":[-4.329637285359677e-17,0.7071067811865475,0.7071067811865475,4.329637285359677e-17],"scale":[1.0,1.0,1.0],"name":"node_20","children":[15,17,19,23]},{"translation":[-0.610729992389679,-12.24252986907959,-0.07027500122785568],"rotation":[0.0,0.0,0.0,1.0],"scale":[1.0,1.0,1.0],"name":"node_21","children":[16]},{"mesh":1,"name":"AIA_Fokker_TailSpeedBrake_AN_21"},{"translation":[0.6094539761543274,-12.24252986907959,-0.07027500122785568],"rotation":[0.0,0.0,0.0,1.0],"scale":[1.0,1.0,1.0],"name":"node_26","children":[18]},{"mesh":2,"name":"AIA_Fokker_TailSpeedBrake_AN_26"},{"name":"node_31","children":[20]},{"name":"custom_anim_REV_THRUST_AN_31","children":[21]},{"name":"node_32","children":[22]},{"mesh":3,"name":"custom_anim_REV_THRUST_AN_32"},{"translation":[0.0,-8.947297096252442,1.1913679838180543],"rotation":[0.0,0.0,0.0,1.0],"scale":[1.0,1.0,1.0],"name":"node_37","children":[24]},{"mesh":4,"name":"custom_anim_REV_THRUST_AN_37"}],"scene":0,"scenes":[{"nodes":[0]}],"textures":[{"extensions":{"MSFT_texture_dds":{"source":0}}},{"extensions":{"MSFT_texture_dds":{"source":1}}},{"extensions":{"MSFT_texture_dds":{"source":2}}}],"extensionsUsed":["ASOBO_material_day_night_switch","MSFT_texture_dds","ASOBO_asset_optimized"],"buffers":[{"byteLength":11048,"uri":"AIA_Fokker_70_MSFS_LOD4.bin"}],"images":[{"uri":"AIA_FOKKER_70_T.PNG.DDS","extras":"ASOBO_image_converted_meta"},{"uri":"AIA_FOKKER_70_C.PNG.DDS","extras":"ASOBO_image_converted_meta"},{"uri":"AIA_FOKKER_70_L.PNG.DDS","extras":"ASOBO_image_converted_meta"}]}
