{"accessors":[{"bufferView":0,"componentType":5126,"count":5,"min":[0.0],"max":[200.0],"type":"SCALAR"},{"bufferView":1,"componentType":5126,"count":5,"type":"VEC4"},{"bufferView":2,"componentType":5126,"count":138,"min":[-16.543989181518556,-1.4160000085830689,-21.423999786376954],"max":[16.54400062561035,9.435999870300293,16.540000915527345],"type":"VEC3","name":"part000_vertices#0_POSITION"},{"bufferView":2,"byteOffset":12,"componentType":5120,"count":138,"type":"VEC4","name":"part000_vertices#0_TANGENT"},{"bufferView":2,"byteOffset":16,"componentType":5120,"count":138,"type":"VEC4","name":"part000_vertices#0_NORMAL"},{"bufferView":2,"byteOffset":20,"componentType":5122,"count":138,"type":"VEC2","name":"part000_vertices#0_TEXCOORD_0"},{"bufferView":2,"byteOffset":24,"componentType":5122,"count":138,"type":"VEC2","name":"part000_vertices#0_TEXCOORD_1"},{"bufferView":2,"byteOffset":28,"componentType":5123,"count":138,"type":"VEC4","name":"part000_vertices#0_COLOR_0"},{"bufferView":3,"componentType":5123,"count":162,"type":"SCALAR","name":"part000_indices#0"}],"animations":[{"name":"c_gear","channels":[{"sampler":0,"target":{"node":16,"path":"rotation"}}],"samplers":[{"input":0,"output":1,"interpolation":"LINEAR"}]}],"asset":{"generator":"ModelConverterX","version":"2.0","extensions":{"ASOBO_asset_optimized":{"BoundingBoxMax":[16.54400062561035,9.435999870300293,16.540000915527345],"BoundingBoxMin":[-16.543989181518556,-1.4160000085830689,-21.423999786376954],"MajorVersion":4,"MinorVersion":4,"UseCheckerboardMaterialForMissingTextures":true,"UseOnlyFilenameForImageURI":true}}},"bufferViews":[{"buffer":0,"byteLength":20,"byteStride":4},{"buffer":0,"byteLength":80,"byteStride":16,"byteOffset":20},{"buffer":0,"byteLength":4968,"byteStride":36,"byteOffset":100,"target":34962,"name":"BufferViewVertexND"},{"buffer":0,"byteLength":324,"byteOffset":5068,"target":34963,"name":"BufferViewIndex"}],"extensionsRequired":["MSFT_texture_dds"],"materials":[{"name":"material00","emissiveTexture":{"index":1},"emissiveFactor":[0.019607843831181527,0.019607843831181527,0.019607843831181527],"pbrMetallicRoughness":{"metallicFactor":0.0,"baseColorTexture":{"index":0}},"extensions":{"ASOBO_material_day_night_switch":{}}}],"meshes":[{"primitives":[{"attributes":{"COLOR_0":7,"NORMAL":4,"POSITION":2,"TANGENT":3,"TEXCOORD_0":5,"TEXCOORD_1":6},"indices":8,"material":0,"mode":4,"extras":{"ASOBO_primitive":{"PrimitiveCount":54,"VertexType":"VTX","VertexVersion":2}}}],"name":"part000"}],"nodes":[{"name":"node_0","children":[1,2,3,4,5,6,7,8,9,10,11,12,13,14]},{"mesh":0,"name":"custom_vis_parts_visible_00_mcx_VC"},{"translation":[5.53000020980835,-0.36000001430511477,6.772073393570383e-16],"rotation":[-6.123031769111886e-17,3.061515884555943e-17,1.0,1.874575902277672e-33],"scale":[1.0,1.0,1.0],"name":"contrail1"},{"translation":[3.1199998855590844,2.630000114440918,-18.040000915527345],"rotation":[0.770759506233338,0.2890027916839634,0.4680765429005728,-0.32142109441675578],"scale":[1.0,1.0,1.0],"name":"logo_l"},{"translation":[1.879999995231628,1.5199999809265137,6.21999979019165],"rotation":[-0.28528234152024248,0.630401237955615,0.6193938128448251,0.3708902390334716],"scale":[1.0,1.0,1.0],"name":"wing_l"},{"translation":[-1.8799999952316294,1.5199999809265137,6.21999979019165],"rotation":[0.28528234152024248,0.6304012379556151,0.6193938128448251,-0.3708902390334715],"scale":[1.0,1.0,1.0],"name":"wing_r"},{"translation":[-3.11999988555908,2.630000114440918,-18.040000915527345],"rotation":[0.770759506233338,-0.28900279168396339,-0.4680765429005728,-0.32142109441675589],"scale":[1.0,1.0,1.0],"name":"logo_r"},{"translation":[-0.980000019073487,-0.3199999928474426,5.369999885559082],"rotation":[-0.7071067811865475,0.0,0.0,0.7071067811865475],"scale":[1.0,1.0,1.0],"name":"landing_r"},{"translation":[0.9800000190734856,-0.3199999928474426,5.369999885559082],"rotation":[-0.7071067811865475,0.0,0.0,0.7071067811865475],"scale":[1.0,1.0,1.0],"name":"landing_l"},{"translation":[-5.53000020980835,-0.36000001430511477,-6.772073393570383e-16],"rotation":[-6.123031769111886e-17,3.061515884555943e-17,1.0,1.874575902277672e-33],"scale":[1.0,1.0,1.0],"name":"contrail2"},{"translation":[2.583919453280241e-15,2.5899999141693117,-21.100000381469728],"rotation":[-5.753767770272126e-17,-0.34202014332566879,0.9396926207859084,-2.0942002032592705e-17],"scale":[1.0,1.0,1.0],"name":"APU"},{"translation":[-1.6409724674069605e-15,-1.7899999618530272,13.399999618530272],"rotation":[-6.123031769111886e-17,3.061515884555943e-17,1.0,1.874575902277672e-33],"scale":[1.0,1.0,1.0],"name":"c_tire1"},{"translation":[3.0000000000000006,-1.9900000095367432,-1.8999999761581417],"rotation":[-6.123031769111886e-17,3.061515884555943e-17,1.0,1.874575902277672e-33],"scale":[1.0,1.0,1.0],"name":"l_tire1"},{"translation":[-2.9999999999999997,-1.9900000095367432,-1.8999999761581424],"rotation":[-6.123031769111886e-17,3.061515884555943e-17,1.0,1.874575902277672e-33],"scale":[1.0,1.0,1.0],"name":"r_tire1"},{"translation":[0.0,0.0,0.0],"rotation":[-4.329637285359677e-17,0.7071067811865475,0.7071067811865475,4.329637285359677e-17],"scale":[1.0,1.0,1.0],"name":"node_21","children":[15]},{"translation":[0.0,13.611040115356444,0.16358500719070438],"rotation":[0.0865603636375038,0.0,0.0,0.9962466077467682],"scale":[1.0,1.0,1.0],"name":"node_321","children":[16]},{"name":"c_gear_AN_321","children":[17,19,21]},{"translation":[-0.25,0.8835853064611632,0.09896003428543104],"rotation":[0.0,0.0,0.0,1.0],"scale":[1.0,1.0,1.0],"name":"node_330","children":[18]},{"translation":[0.0,0.0,0.0],"rotation":[-0.7071067811865475,0.0,0.0,0.7071067811865475],"scale":[1.0,1.0,1.0],"name":"landing_nose_l"},{"translation":[0.25,0.8835853064611632,0.09896003428543104],"rotation":[0.0,0.0,0.0,1.0],"scale":[1.0,1.0,1.0],"name":"node_332","children":[20]},{"translation":[0.0,0.0,0.0],"rotation":[-0.7071067811865475,0.0,0.0,0.7071067811865475],"scale":[1.0,1.0,1.0],"name":"landing_nose_r"},{"translation":[-0.25,0.8835853064611632,0.09896003428543104],"rotation":[0.9990482166500736,0.0,0.0,0.04361950032161896],"scale":[1.0,1.0,1.0],"name":"node_334","children":[22]},{"translation":[0.0,0.0,0.0],"rotation":[0.7071067811865475,0.0,0.0,0.7071067811865475],"scale":[1.0,1.0,1.0],"name":"taxi"}],"scene":0,"scenes":[{"nodes":[0]}],"textures":[{"extensions":{"MSFT_texture_dds":{"source":0}}},{"extensions":{"MSFT_texture_dds":{"source":1}}}],"extensionsUsed":["ASOBO_material_day_night_switch","MSFT_texture_dds","ASOBO_asset_optimized"],"buffers":[{"byteLength":5392,"uri":"SBAI_Airbus_A220-300_MSFS_LOD5.bin"}],"images":[{"uri":"SBAI_CS300_T.PNG.DDS","extras":"ASOBO_image_converted_meta"},{"uri":"SBAI_CS300_L.PNG.DDS","extras":"ASOBO_image_converted_meta"}]}
