{"accessors":[{"bufferView":0,"componentType":5126,"count":2,"min":[0.0],"max":[100.0],"type":"SCALAR"},{"bufferView":1,"componentType":5126,"count":2,"type":"VEC3"},{"bufferView":0,"byteOffset":8,"componentType":5126,"count":2,"min":[0.0],"max":[100.0],"type":"SCALAR"},{"bufferView":2,"componentType":5126,"count":2,"type":"VEC4"},{"bufferView":0,"byteOffset":16,"componentType":5126,"count":2,"min":[0.0],"max":[100.0],"type":"SCALAR"},{"bufferView":1,"byteOffset":24,"componentType":5126,"count":2,"type":"VEC3"},{"bufferView":0,"byteOffset":24,"componentType":5126,"count":2,"min":[0.0],"max":[100.0],"type":"SCALAR"},{"bufferView":2,"byteOffset":32,"componentType":5126,"count":2,"type":"VEC4"},{"bufferView":0,"byteOffset":32,"componentType":5126,"count":6,"min":[0.0],"max":[200.0],"type":"SCALAR"},{"bufferView":2,"byteOffset":64,"componentType":5126,"count":6,"type":"VEC4"},{"bufferView":0,"byteOffset":56,"componentType":5126,"count":5,"min":[0.0],"max":[200.0],"type":"SCALAR"},{"bufferView":1,"byteOffset":48,"componentType":5126,"count":5,"type":"VEC3"},{"bufferView":3,"componentType":5126,"count":474,"min":[-14.491999626159668,-1.9279999732971192,-21.69601058959961],"max":[14.496009826660157,5.368000030517578,13.947999954223633],"type":"VEC3","name":"part000_vertices#0_POSITION"},{"bufferView":3,"byteOffset":12,"componentType":5120,"count":474,"type":"VEC4","name":"part000_vertices#0_TANGENT"},{"bufferView":3,"byteOffset":16,"componentType":5120,"count":474,"type":"VEC4","name":"part000_vertices#0_NORMAL"},{"bufferView":3,"byteOffset":20,"componentType":5122,"count":474,"type":"VEC2","name":"part000_vertices#0_TEXCOORD_0"},{"bufferView":3,"byteOffset":24,"componentType":5122,"count":474,"type":"VEC2","name":"part000_vertices#0_TEXCOORD_1"},{"bufferView":3,"byteOffset":28,"componentType":5123,"count":474,"type":"VEC4","name":"part000_vertices#0_COLOR_0"},{"bufferView":4,"componentType":5123,"count":1191,"type":"SCALAR","name":"part000_indices#0"}],"animations":[{"name":"landing_light","channels":[{"sampler":0,"target":{"node":12,"path":"translation"}},{"sampler":1,"target":{"node":14,"path":"rotation"}},{"sampler":2,"target":{"node":17,"path":"translation"}},{"sampler":3,"target":{"node":19,"path":"rotation"}}],"samplers":[{"input":0,"output":1,"interpolation":"LINEAR"},{"input":2,"output":3,"interpolation":"LINEAR"},{"input":4,"output":5,"interpolation":"LINEAR"},{"input":6,"output":7,"interpolation":"LINEAR"}]},{"name":"custom_anim_C_WHEEL_LR","channels":[{"sampler":0,"target":{"node":22,"path":"rotation"}}],"samplers":[{"input":8,"output":9,"interpolation":"LINEAR"}]},{"name":"c_gear","channels":[{"sampler":0,"target":{"node":24,"path":"translation"}}],"samplers":[{"input":10,"output":11,"interpolation":"LINEAR"}]}],"asset":{"generator":"ModelConverterX","version":"2.0","extensions":{"ASOBO_asset_optimized":{"BoundingBoxMax":[14.496009826660157,5.368000030517578,13.947999954223633],"BoundingBoxMin":[-14.491999626159668,-1.9279999732971192,-21.69601058959961],"MajorVersion":4,"MinorVersion":4,"UseCheckerboardMaterialForMissingTextures":true,"UseOnlyFilenameForImageURI":true}}},"bufferViews":[{"buffer":0,"byteLength":76,"byteStride":4},{"buffer":0,"byteLength":108,"byteStride":12,"byteOffset":76},{"buffer":0,"byteLength":160,"byteStride":16,"byteOffset":184},{"buffer":0,"byteLength":17064,"byteStride":36,"byteOffset":344,"target":34962,"name":"BufferViewVertexND"},{"buffer":0,"byteLength":2382,"byteOffset":17408,"target":34963,"name":"BufferViewIndex"}],"extensionsRequired":["MSFT_texture_dds"],"materials":[{"name":"material00","occlusionTexture":{"index":1},"emissiveTexture":{"index":2},"emissiveFactor":[0.019607843831181527,0.019607843831181527,0.019607843831181527],"pbrMetallicRoughness":{"baseColorTexture":{"index":0},"metallicRoughnessTexture":{"index":1}},"extensions":{"ASOBO_material_day_night_switch":{}}}],"meshes":[{"primitives":[{"attributes":{"COLOR_0":17,"NORMAL":14,"POSITION":12,"TANGENT":13,"TEXCOORD_0":15,"TEXCOORD_1":16},"indices":18,"material":0,"mode":4,"extras":{"ASOBO_primitive":{"PrimitiveCount":397,"VertexType":"VTX","VertexVersion":2}}}],"name":"part000"}],"nodes":[{"name":"node_0","children":[1,2,3,4,5,6,7,8,9,10]},{"mesh":0,"name":"cabin_lights_VC"},{"translation":[-1.2999999523162827,0.44999998807907107,-12.800000190734864],"rotation":[0.10934590779734328,-0.2571553189269538,0.9597167156719708,0.02929914768994612],"scale":[1.0,1.0,1.0],"name":"APU"},{"translation":[2.5000000000000019,0.0,-14.300000190734864],"rotation":[-6.123031769111886e-17,3.061515884555943e-17,1.0,1.874575902277672e-33],"scale":[1.0,1.0,1.0],"name":"contrail1"},{"translation":[14.399999618530276,-0.6299999952316284,-8.699999809265135],"rotation":[0.35861082554979886,0.5260850635650275,0.6861050651993129,-0.351983836560884],"scale":[1.0,1.0,1.0],"name":"logo_l"},{"translation":[-14.399999618530272,-0.6299999952316284,-8.699999809265139],"rotation":[-0.35861082554979908,0.5260850635650276,0.6861050651993129,0.3519838365608841],"scale":[1.0,1.0,1.0],"name":"logo_r"},{"translation":[-2.4999999999999984,0.0,-14.300000190734864],"rotation":[-6.123031769111886e-17,3.061515884555943e-17,1.0,1.874575902277672e-33],"scale":[1.0,1.0,1.0],"name":"contrail2"},{"translation":[-1.3838052031767989e-15,-2.9000000953674318,11.300000190734864],"rotation":[-6.123031769111886e-17,3.061515884555943e-17,1.0,1.874575902277672e-33],"scale":[1.0,1.0,1.0],"name":"c_tire1"},{"translation":[2.599999904632569,-2.8499999046325685,-4.800000190734863],"rotation":[-6.123031769111886e-17,3.061515884555943e-17,1.0,1.874575902277672e-33],"scale":[1.0,1.0,1.0],"name":"l_tire1"},{"translation":[-2.599999904632568,-2.8499999046325685,-4.800000190734863],"rotation":[-6.123031769111886e-17,3.061515884555943e-17,1.0,1.874575902277672e-33],"scale":[1.0,1.0,1.0],"name":"r_tire1"},{"translation":[0.0,0.0,0.0],"rotation":[-4.329637285359677e-17,0.7071067811865475,0.7071067811865475,4.329637285359677e-17],"scale":[1.0,1.0,1.0],"name":"node_15","children":[11,16,21]},{"name":"node_50","children":[12]},{"name":"landing_light_AN_50","children":[13]},{"name":"node_53","children":[14]},{"name":"landing_light_AN_53","children":[15]},{"translation":[-0.006012999918311834,-0.001914000022225082,-0.00038300000596791506],"rotation":[-0.01758384335724557,0.04358816814226724,0.9988924943992062,-0.0021597878880159099],"scale":[1.0,1.0,1.0],"name":"landing_r"},{"name":"node_55","children":[17]},{"name":"landing_light_AN_55","children":[18]},{"name":"node_58","children":[19]},{"name":"landing_light_AN_58","children":[20]},{"translation":[-0.004999999888241291,-0.001724999980069697,0.0038499999791383745],"rotation":[0.0,0.0,1.0,-6.123031769111886e-17],"scale":[1.0,1.0,1.0],"name":"landing_l"},{"translation":[0.0,11.513999938964844,-1.684999942779541],"rotation":[0.0,0.0,0.0,1.0],"scale":[1.0,1.0,1.0],"name":"node_60","children":[22]},{"name":"custom_anim_C_WHEEL_LR_AN_60","children":[23]},{"name":"node_61","children":[24]},{"name":"c_gear_AN_61","children":[25,26,27,28]},{"translation":[0.1379999965429306,0.18712200224399568,-0.2661769986152649],"rotation":[0.0,0.0,1.0,-6.123031769111886e-17],"scale":[1.0,1.0,1.0],"name":"taxi_r"},{"translation":[0.1379999965429306,0.18712200224399568,-0.2661769986152649],"rotation":[0.0,0.0,1.0,-6.123031769111886e-17],"scale":[1.0,1.0,1.0],"name":"landing_gear_r"},{"translation":[-0.1420000046491623,0.18712200224399568,-0.2661769986152649],"rotation":[0.0,0.0,1.0,-6.123031769111886e-17],"scale":[1.0,1.0,1.0],"name":"taxi_l"},{"translation":[-0.1420000046491623,0.18712200224399568,-0.2661769986152649],"rotation":[0.0,0.0,1.0,-6.123031769111886e-17],"scale":[1.0,1.0,1.0],"name":"landing_gear_l"}],"scene":0,"scenes":[{"nodes":[0]}],"textures":[{"extensions":{"MSFT_texture_dds":{"source":0}}},{"extensions":{"MSFT_texture_dds":{"source":1}}},{"extensions":{"MSFT_texture_dds":{"source":2}}}],"extensionsUsed":["ASOBO_material_day_night_switch","MSFT_texture_dds","ASOBO_asset_optimized"],"buffers":[{"byteLength":19790,"uri":"AIG_Douglas_DC-9-30_MSFS_LOD3.bin"}],"images":[{"uri":"AIG_DC-9-30.PNG.DDS","extras":"ASOBO_image_converted_meta"},{"uri":"AIG_DC-9-30_C.PNG.DDS","extras":"ASOBO_image_converted_meta"},{"uri":"AIG_DC-9-30_L.PNG.DDS","extras":"ASOBO_image_converted_meta"}]}
