{"accessors":[{"bufferView":0,"componentType":5126,"count":5,"min":[0.0],"max":[100.0],"type":"SCALAR"},{"bufferView":2,"componentType":5126,"count":5,"type":"VEC4"},{"bufferView":0,"byteOffset":20,"componentType":5126,"count":5,"min":[0.0],"max":[100.0],"type":"SCALAR"},{"bufferView":2,"byteOffset":80,"componentType":5126,"count":5,"type":"VEC4"},{"bufferView":0,"byteOffset":40,"componentType":5126,"count":5,"min":[0.0],"max":[100.0],"type":"SCALAR"},{"bufferView":2,"byteOffset":160,"componentType":5126,"count":5,"type":"VEC4"},{"bufferView":0,"byteOffset":60,"componentType":5126,"count":5,"min":[0.0],"max":[100.0],"type":"SCALAR"},{"bufferView":2,"byteOffset":240,"componentType":5126,"count":5,"type":"VEC4"},{"bufferView":0,"byteOffset":80,"componentType":5126,"count":5,"min":[0.0],"max":[100.0],"type":"SCALAR"},{"bufferView":2,"byteOffset":320,"componentType":5126,"count":5,"type":"VEC4"},{"bufferView":0,"byteOffset":100,"componentType":5126,"count":5,"min":[0.0],"max":[100.0],"type":"SCALAR"},{"bufferView":2,"byteOffset":400,"componentType":5126,"count":5,"type":"VEC4"},{"bufferView":0,"byteOffset":120,"componentType":5126,"count":5,"min":[0.0],"max":[100.0],"type":"SCALAR"},{"bufferView":2,"byteOffset":480,"componentType":5126,"count":5,"type":"VEC4"},{"bufferView":0,"byteOffset":140,"componentType":5126,"count":2,"min":[0.0],"max":[100.0],"type":"SCALAR"},{"bufferView":1,"componentType":5126,"count":2,"type":"VEC3"},{"bufferView":0,"byteOffset":148,"componentType":5126,"count":2,"min":[0.0],"max":[100.0],"type":"SCALAR"},{"bufferView":2,"byteOffset":560,"componentType":5126,"count":2,"type":"VEC4"},{"bufferView":0,"byteOffset":156,"componentType":5126,"count":2,"min":[0.0],"max":[100.0],"type":"SCALAR"},{"bufferView":1,"byteOffset":24,"componentType":5126,"count":2,"type":"VEC3"},{"bufferView":0,"byteOffset":164,"componentType":5126,"count":2,"min":[0.0],"max":[100.0],"type":"SCALAR"},{"bufferView":2,"byteOffset":592,"componentType":5126,"count":2,"type":"VEC4"},{"bufferView":3,"componentType":5126,"count":20,"min":[-0.03407000005245209,-0.6427500247955322,-5.634089946746826],"max":[0.03407000005245209,-0.4086799919605255,-5.411479949951172],"type":"VEC3","name":"part000_vertices#0_POSITION"},{"bufferView":3,"byteOffset":12,"componentType":5120,"count":20,"type":"VEC4","name":"part000_vertices#0_TANGENT"},{"bufferView":3,"byteOffset":16,"componentType":5120,"count":20,"type":"VEC4","name":"part000_vertices#0_NORMAL"},{"bufferView":3,"byteOffset":20,"componentType":5122,"count":20,"type":"VEC2","name":"part000_vertices#0_TEXCOORD_0"},{"bufferView":3,"byteOffset":24,"componentType":5122,"count":20,"type":"VEC2","name":"part000_vertices#0_TEXCOORD_1"},{"bufferView":3,"byteOffset":28,"componentType":5123,"count":20,"type":"VEC4","name":"part000_vertices#0_COLOR_0"},{"bufferView":4,"componentType":5123,"count":60,"type":"SCALAR","name":"part000_indices#0"},{"bufferView":3,"byteOffset":720,"componentType":5126,"count":443,"min":[-5.483610153198242,-1.2319200038909913,-5.634089946746826],"max":[5.483610153198242,1.6165599822998047,2.306879997253418],"type":"VEC3","name":"part001_vertices#0_POSITION"},{"bufferView":3,"byteOffset":732,"componentType":5120,"count":443,"type":"VEC4","name":"part001_vertices#0_TANGENT"},{"bufferView":3,"byteOffset":736,"componentType":5120,"count":443,"type":"VEC4","name":"part001_vertices#0_NORMAL"},{"bufferView":3,"byteOffset":740,"componentType":5122,"count":443,"type":"VEC2","name":"part001_vertices#0_TEXCOORD_0"},{"bufferView":3,"byteOffset":744,"componentType":5122,"count":443,"type":"VEC2","name":"part001_vertices#0_TEXCOORD_1"},{"bufferView":3,"byteOffset":748,"componentType":5123,"count":443,"type":"VEC4","name":"part001_vertices#0_COLOR_0"},{"bufferView":4,"byteOffset":120,"componentType":5123,"count":1386,"type":"SCALAR","name":"part001_indices#0"},{"bufferView":3,"byteOffset":16668,"componentType":5126,"count":48,"min":[-0.8576499819755554,-0.02329999953508377,-0.9865700006484985],"max":[0.85521000623703,0.023329999297857286,0.5239199995994568],"type":"VEC3","name":"part002_vertices#0_POSITION"},{"bufferView":3,"byteOffset":16680,"componentType":5120,"count":48,"type":"VEC4","name":"part002_vertices#0_TANGENT"},{"bufferView":3,"byteOffset":16684,"componentType":5120,"count":48,"type":"VEC4","name":"part002_vertices#0_NORMAL"},{"bufferView":3,"byteOffset":16688,"componentType":5122,"count":48,"type":"VEC2","name":"part002_vertices#0_TEXCOORD_0"},{"bufferView":3,"byteOffset":16692,"componentType":5122,"count":48,"type":"VEC2","name":"part002_vertices#0_TEXCOORD_1"},{"bufferView":3,"byteOffset":16696,"componentType":5123,"count":48,"type":"VEC4","name":"part002_vertices#0_COLOR_0"},{"bufferView":4,"byteOffset":2892,"componentType":5123,"count":108,"type":"SCALAR","name":"part002_indices#0"},{"bufferView":3,"byteOffset":18396,"componentType":5126,"count":20,"min":[-0.06703999638557434,-0.21227000653743745,-0.2230300009250641],"max":[0.06703999638557434,0.21207000315189362,0.22314999997615815],"type":"VEC3","name":"part003_vertices#0_POSITION"},{"bufferView":3,"byteOffset":18408,"componentType":5120,"count":20,"type":"VEC4","name":"part003_vertices#0_TANGENT"},{"bufferView":3,"byteOffset":18412,"componentType":5120,"count":20,"type":"VEC4","name":"part003_vertices#0_NORMAL"},{"bufferView":3,"byteOffset":18416,"componentType":5122,"count":20,"type":"VEC2","name":"part003_vertices#0_TEXCOORD_0"},{"bufferView":3,"byteOffset":18420,"componentType":5122,"count":20,"type":"VEC2","name":"part003_vertices#0_TEXCOORD_1"},{"bufferView":3,"byteOffset":18424,"componentType":5123,"count":20,"type":"VEC4","name":"part003_vertices#0_COLOR_0"},{"bufferView":4,"byteOffset":3108,"componentType":5123,"count":48,"type":"SCALAR","name":"part003_indices#0"},{"bufferView":3,"byteOffset":19116,"componentType":5126,"count":20,"min":[-0.06703999638557434,-0.21227000653743745,-0.2230300009250641],"max":[0.06703999638557434,0.21207000315189362,0.22314999997615815],"type":"VEC3","name":"part004_vertices#0_POSITION"},{"bufferView":3,"byteOffset":19128,"componentType":5120,"count":20,"type":"VEC4","name":"part004_vertices#0_TANGENT"},{"bufferView":3,"byteOffset":19132,"componentType":5120,"count":20,"type":"VEC4","name":"part004_vertices#0_NORMAL"},{"bufferView":3,"byteOffset":19136,"componentType":5122,"count":20,"type":"VEC2","name":"part004_vertices#0_TEXCOORD_0"},{"bufferView":3,"byteOffset":19140,"componentType":5122,"count":20,"type":"VEC2","name":"part004_vertices#0_TEXCOORD_1"},{"bufferView":3,"byteOffset":19144,"componentType":5123,"count":20,"type":"VEC4","name":"part004_vertices#0_COLOR_0"},{"bufferView":4,"byteOffset":3204,"componentType":5123,"count":60,"type":"SCALAR","name":"part004_indices#0"},{"bufferView":3,"byteOffset":19836,"componentType":5126,"count":20,"min":[-0.06703999638557434,-0.21227000653743745,-0.2230300009250641],"max":[0.06703999638557434,0.21207000315189362,0.22314999997615815],"type":"VEC3","name":"part005_vertices#0_POSITION"},{"bufferView":3,"byteOffset":19848,"componentType":5120,"count":20,"type":"VEC4","name":"part005_vertices#0_TANGENT"},{"bufferView":3,"byteOffset":19852,"componentType":5120,"count":20,"type":"VEC4","name":"part005_vertices#0_NORMAL"},{"bufferView":3,"byteOffset":19856,"componentType":5122,"count":20,"type":"VEC2","name":"part005_vertices#0_TEXCOORD_0"},{"bufferView":3,"byteOffset":19860,"componentType":5122,"count":20,"type":"VEC2","name":"part005_vertices#0_TEXCOORD_1"},{"bufferView":3,"byteOffset":19864,"componentType":5123,"count":20,"type":"VEC4","name":"part005_vertices#0_COLOR_0"},{"bufferView":4,"byteOffset":3324,"componentType":5123,"count":48,"type":"SCALAR","name":"part005_indices#0"},{"bufferView":3,"byteOffset":20556,"componentType":5126,"count":20,"min":[-0.06703999638557434,-0.21227000653743745,-0.2230300009250641],"max":[0.06703999638557434,0.21207000315189362,0.22314999997615815],"type":"VEC3","name":"part006_vertices#0_POSITION"},{"bufferView":3,"byteOffset":20568,"componentType":5120,"count":20,"type":"VEC4","name":"part006_vertices#0_TANGENT"},{"bufferView":3,"byteOffset":20572,"componentType":5120,"count":20,"type":"VEC4","name":"part006_vertices#0_NORMAL"},{"bufferView":3,"byteOffset":20576,"componentType":5122,"count":20,"type":"VEC2","name":"part006_vertices#0_TEXCOORD_0"},{"bufferView":3,"byteOffset":20580,"componentType":5122,"count":20,"type":"VEC2","name":"part006_vertices#0_TEXCOORD_1"},{"bufferView":3,"byteOffset":20584,"componentType":5123,"count":20,"type":"VEC4","name":"part006_vertices#0_COLOR_0"},{"bufferView":4,"byteOffset":3420,"componentType":5123,"count":60,"type":"SCALAR","name":"part006_indices#0"},{"bufferView":3,"byteOffset":21276,"componentType":5126,"count":34,"min":[-0.9887300133705139,0.0,-0.9887300133705139],"max":[0.9887300133705139,0.0,0.9887300133705139],"type":"VEC3","name":"part007_vertices#0_POSITION"},{"bufferView":3,"byteOffset":21288,"componentType":5120,"count":34,"type":"VEC4","name":"part007_vertices#0_TANGENT"},{"bufferView":3,"byteOffset":21292,"componentType":5120,"count":34,"type":"VEC4","name":"part007_vertices#0_NORMAL"},{"bufferView":3,"byteOffset":21296,"componentType":5122,"count":34,"type":"VEC2","name":"part007_vertices#0_TEXCOORD_0"},{"bufferView":3,"byteOffset":21300,"componentType":5122,"count":34,"type":"VEC2","name":"part007_vertices#0_TEXCOORD_1"},{"bufferView":3,"byteOffset":21304,"componentType":5123,"count":34,"type":"VEC4","name":"part007_vertices#0_COLOR_0"},{"bufferView":4,"byteOffset":3540,"componentType":5123,"count":96,"type":"SCALAR","name":"part007_indices#0"},{"bufferView":3,"byteOffset":22500,"componentType":5126,"count":34,"min":[-0.9887300133705139,0.0,-0.9887300133705139],"max":[0.9887300133705139,0.0,0.9887300133705139],"type":"VEC3","name":"part008_vertices#0_POSITION"},{"bufferView":3,"byteOffset":22512,"componentType":5120,"count":34,"type":"VEC4","name":"part008_vertices#0_TANGENT"},{"bufferView":3,"byteOffset":22516,"componentType":5120,"count":34,"type":"VEC4","name":"part008_vertices#0_NORMAL"},{"bufferView":3,"byteOffset":22520,"componentType":5122,"count":34,"type":"VEC2","name":"part008_vertices#0_TEXCOORD_0"},{"bufferView":3,"byteOffset":22524,"componentType":5122,"count":34,"type":"VEC2","name":"part008_vertices#0_TEXCOORD_1"},{"bufferView":3,"byteOffset":22528,"componentType":5123,"count":34,"type":"VEC4","name":"part008_vertices#0_COLOR_0"},{"bufferView":4,"byteOffset":3732,"componentType":5123,"count":96,"type":"SCALAR","name":"part008_indices#0"},{"bufferView":3,"byteOffset":23724,"componentType":5126,"count":12,"min":[-0.9935799837112427,-0.2273699939250946,-0.10180000215768814],"max":[0.9935799837112427,0.292279988527298,0.0420599989593029],"type":"VEC3","name":"part009_vertices#0_POSITION"},{"bufferView":3,"byteOffset":23736,"componentType":5120,"count":12,"type":"VEC4","name":"part009_vertices#0_TANGENT"},{"bufferView":3,"byteOffset":23740,"componentType":5120,"count":12,"type":"VEC4","name":"part009_vertices#0_NORMAL"},{"bufferView":3,"byteOffset":23744,"componentType":5122,"count":12,"type":"VEC2","name":"part009_vertices#0_TEXCOORD_0"},{"bufferView":3,"byteOffset":23748,"componentType":5122,"count":12,"type":"VEC2","name":"part009_vertices#0_TEXCOORD_1"},{"bufferView":3,"byteOffset":23752,"componentType":5123,"count":12,"type":"VEC4","name":"part009_vertices#0_COLOR_0"},{"bufferView":4,"byteOffset":3924,"componentType":5123,"count":24,"type":"SCALAR","name":"part009_indices#0"},{"bufferView":3,"byteOffset":24156,"componentType":5126,"count":12,"min":[-0.9935799837112427,-0.2273699939250946,-0.10180000215768814],"max":[0.9935799837112427,0.292279988527298,0.0420599989593029],"type":"VEC3","name":"part010_vertices#0_POSITION"},{"bufferView":3,"byteOffset":24168,"componentType":5120,"count":12,"type":"VEC4","name":"part010_vertices#0_TANGENT"},{"bufferView":3,"byteOffset":24172,"componentType":5120,"count":12,"type":"VEC4","name":"part010_vertices#0_NORMAL"},{"bufferView":3,"byteOffset":24176,"componentType":5122,"count":12,"type":"VEC2","name":"part010_vertices#0_TEXCOORD_0"},{"bufferView":3,"byteOffset":24180,"componentType":5122,"count":12,"type":"VEC2","name":"part010_vertices#0_TEXCOORD_1"},{"bufferView":3,"byteOffset":24184,"componentType":5123,"count":12,"type":"VEC4","name":"part010_vertices#0_COLOR_0"},{"bufferView":4,"byteOffset":3972,"componentType":5123,"count":24,"type":"SCALAR","name":"part010_indices#0"}],"animations":[{"name":"engine0","channels":[{"sampler":0,"target":{"node":12,"path":"rotation"}},{"sampler":1,"target":{"node":25,"path":"rotation"}},{"sampler":2,"target":{"node":27,"path":"rotation"}}],"samplers":[{"input":0,"output":1,"interpolation":"LINEAR"},{"input":10,"output":11,"interpolation":"LINEAR"},{"input":12,"output":13,"interpolation":"LINEAR"}]},{"name":"r_tire_blurred_key","channels":[{"sampler":0,"target":{"node":15,"path":"rotation"}},{"sampler":1,"target":{"node":17,"path":"rotation"}}],"samplers":[{"input":2,"output":3,"interpolation":"LINEAR"},{"input":4,"output":5,"interpolation":"LINEAR"}]},{"name":"l_tire_blurred_key","channels":[{"sampler":0,"target":{"node":20,"path":"rotation"}},{"sampler":1,"target":{"node":22,"path":"rotation"}}],"samplers":[{"input":6,"output":7,"interpolation":"LINEAR"},{"input":8,"output":9,"interpolation":"LINEAR"}]},{"name":"custom_anim_FLAPS_SML_GA","channels":[{"sampler":0,"target":{"node":29,"path":"translation"}},{"sampler":1,"target":{"node":31,"path":"rotation"}},{"sampler":2,"target":{"node":33,"path":"translation"}},{"sampler":3,"target":{"node":35,"path":"rotation"}}],"samplers":[{"input":14,"output":15,"interpolation":"LINEAR"},{"input":16,"output":17,"interpolation":"LINEAR"},{"input":18,"output":19,"interpolation":"LINEAR"},{"input":20,"output":21,"interpolation":"LINEAR"}]}],"asset":{"generator":"ModelConverterX","version":"2.0","extensions":{"ASOBO_asset_optimized":{"BoundingBoxMax":[5.483610153198242,1.6165599822998047,2.306879997253418],"BoundingBoxMin":[-5.483610153198242,-1.2319200038909913,-5.634089946746826],"MajorVersion":4,"MinorVersion":4,"UseCheckerboardMaterialForMissingTextures":true,"UseOnlyFilenameForImageURI":true}}},"bufferViews":[{"buffer":0,"byteLength":172,"byteStride":4},{"buffer":0,"byteLength":48,"byteStride":12,"byteOffset":172},{"buffer":0,"byteLength":624,"byteStride":16,"byteOffset":220},{"buffer":0,"byteLength":24588,"byteStride":36,"byteOffset":844,"target":34962,"name":"BufferViewVertexND"},{"buffer":0,"byteLength":4020,"byteOffset":25432,"target":34963,"name":"BufferViewIndex"}],"extensionsRequired":["MSFT_texture_dds"],"materials":[{"name":"material00","pbrMetallicRoughness":{"baseColorFactor":[0.03921600058674812,0.03921600058674812,0.03921600058674812,1.0],"metallicFactor":0.0}},{"name":"material01","occlusionTexture":{"index":1},"pbrMetallicRoughness":{"baseColorTexture":{"index":0},"metallicRoughnessTexture":{"index":1}}},{"name":"material02","alphaMode":"BLEND","pbrMetallicRoughness":{"baseColorFactor":[0.0,0.0,0.0,1.0],"metallicFactor":0.0,"baseColorTexture":{"index":2}}}],"meshes":[{"primitives":[{"attributes":{"COLOR_0":27,"NORMAL":24,"POSITION":22,"TANGENT":23,"TEXCOORD_0":25,"TEXCOORD_1":26},"indices":28,"material":0,"mode":4,"extras":{"ASOBO_primitive":{"PrimitiveCount":20,"VertexType":"VTX","VertexVersion":2}}}],"name":"part000"},{"primitives":[{"attributes":{"COLOR_0":34,"NORMAL":31,"POSITION":29,"TANGENT":30,"TEXCOORD_0":32,"TEXCOORD_1":33},"indices":35,"material":1,"mode":4,"extras":{"ASOBO_primitive":{"PrimitiveCount":462,"VertexType":"VTX","VertexVersion":2}}}],"name":"part001"},{"primitives":[{"attributes":{"COLOR_0":41,"NORMAL":38,"POSITION":36,"TANGENT":37,"TEXCOORD_0":39,"TEXCOORD_1":40},"indices":42,"material":1,"mode":4,"extras":{"ASOBO_primitive":{"PrimitiveCount":36,"VertexType":"VTX","VertexVersion":2}}}],"name":"part002"},{"primitives":[{"attributes":{"COLOR_0":48,"NORMAL":45,"POSITION":43,"TANGENT":44,"TEXCOORD_0":46,"TEXCOORD_1":47},"indices":49,"material":1,"mode":4,"extras":{"ASOBO_primitive":{"PrimitiveCount":16,"VertexType":"VTX","VertexVersion":2}}}],"name":"part003"},{"primitives":[{"attributes":{"COLOR_0":55,"NORMAL":52,"POSITION":50,"TANGENT":51,"TEXCOORD_0":53,"TEXCOORD_1":54},"indices":56,"material":0,"mode":4,"extras":{"ASOBO_primitive":{"PrimitiveCount":20,"VertexType":"VTX","VertexVersion":2}}}],"name":"part004"},{"primitives":[{"attributes":{"COLOR_0":62,"NORMAL":59,"POSITION":57,"TANGENT":58,"TEXCOORD_0":60,"TEXCOORD_1":61},"indices":63,"material":1,"mode":4,"extras":{"ASOBO_primitive":{"PrimitiveCount":16,"VertexType":"VTX","VertexVersion":2}}}],"name":"part005"},{"primitives":[{"attributes":{"COLOR_0":69,"NORMAL":66,"POSITION":64,"TANGENT":65,"TEXCOORD_0":67,"TEXCOORD_1":68},"indices":70,"material":0,"mode":4,"extras":{"ASOBO_primitive":{"PrimitiveCount":20,"VertexType":"VTX","VertexVersion":2}}}],"name":"part006"},{"primitives":[{"attributes":{"COLOR_0":76,"NORMAL":73,"POSITION":71,"TANGENT":72,"TEXCOORD_0":74,"TEXCOORD_1":75},"indices":77,"material":2,"mode":4,"extras":{"ASOBO_primitive":{"PrimitiveCount":32,"VertexType":"VTX","VertexVersion":2}}}],"name":"part007"},{"primitives":[{"attributes":{"COLOR_0":83,"NORMAL":80,"POSITION":78,"TANGENT":79,"TEXCOORD_0":81,"TEXCOORD_1":82},"indices":84,"material":2,"mode":4,"extras":{"ASOBO_primitive":{"PrimitiveCount":32,"VertexType":"VTX","VertexVersion":2}}}],"name":"part008"},{"primitives":[{"attributes":{"COLOR_0":90,"NORMAL":87,"POSITION":85,"TANGENT":86,"TEXCOORD_0":88,"TEXCOORD_1":89},"indices":91,"material":1,"mode":4,"extras":{"ASOBO_primitive":{"PrimitiveCount":8,"VertexType":"VTX","VertexVersion":2}}}],"name":"part009"},{"primitives":[{"attributes":{"COLOR_0":97,"NORMAL":94,"POSITION":92,"TANGENT":93,"TEXCOORD_0":95,"TEXCOORD_1":96},"indices":98,"material":1,"mode":4,"extras":{"ASOBO_primitive":{"PrimitiveCount":8,"VertexType":"VTX","VertexVersion":2}}}],"name":"part010"}],"nodes":[{"name":"node_0","children":[1,2,3,4,5,6,7,8,9]},{"mesh":0,"name":"node_8"},{"mesh":1,"name":"node_9"},{"translation":[6.85779546461775e-16,-0.6000000238418579,-5.599999904632568],"rotation":[-6.123031769111886e-17,3.061515884555943e-17,1.0,1.874575902277672e-33],"scale":[1.0,1.0,1.0],"name":"c_tire1"},{"translation":[7.347638122934264e-16,0.0,-6.0],"rotation":[-6.123031769111886e-17,3.061515884555943e-17,1.0,1.874575902277672e-33],"scale":[1.0,1.0,1.0],"name":"contrail1"},{"translation":[-0.2000000029802325,-0.15000000596046449,1.8400000333786014],"rotation":[-0.6156614753256582,0.0,0.0,0.7880107536067219],"scale":[1.0,1.0,1.0],"name":"Taxi_Light"},{"translation":[0.200000002980232,-0.15000000596046449,1.8600000143051148],"rotation":[-0.7071067811865475,0.0,0.0,0.7071067811865475],"scale":[1.0,1.0,1.0],"name":"Landing_Light"},{"translation":[1.2200000286102296,-1.3400000333786014,0.600000023841858],"rotation":[-6.123031769111886e-17,3.061515884555943e-17,1.0,1.874575902277672e-33],"scale":[1.0,1.0,1.0],"name":"l_tire1"},{"translation":[-1.2200000286102296,-1.3400000333786014,0.6000000238418578],"rotation":[-6.123031769111886e-17,3.061515884555943e-17,1.0,1.874575902277672e-33],"scale":[1.0,1.0,1.0],"name":"r_tire1"},{"translation":[0.0,0.0,0.0],"rotation":[-4.329637285359677e-17,0.7071067811865475,0.7071067811865475,4.329637285359677e-17],"scale":[1.0,1.0,1.0],"name":"node_25","children":[10,13,18,23,28,32]},{"translation":[0.0,2.0232739448547365,0.15649999678134919],"rotation":[0.0,0.0,0.0,1.0],"scale":[1.0,1.0,1.0],"name":"node_26","children":[11]},{"name":"prop0_still_VC","children":[12]},{"mesh":2,"name":"engine0_AN_VC"},{"translation":[1.219122052192688,0.609561026096344,-1.1581660509109498],"rotation":[0.0,0.0,0.0,1.0],"scale":[1.0,1.0,1.0],"name":"node_31","children":[14,16]},{"name":"node_35","children":[15]},{"mesh":3,"name":"r_tire_blurred_key_AN_35"},{"name":"node_36","children":[17]},{"mesh":4,"name":"r_tire_blurred_key_AN_36"},{"translation":[-1.219122052192688,0.609561026096344,-1.1581660509109498],"rotation":[0.0,0.0,0.0,1.0],"scale":[1.0,1.0,1.0],"name":"node_40","children":[19,21]},{"name":"node_44","children":[20]},{"mesh":5,"name":"l_tire_blurred_key_AN_44"},{"name":"node_45","children":[22]},{"mesh":6,"name":"l_tire_blurred_key_AN_45"},{"translation":[0.0,2.026315927505493,0.156358003616333],"rotation":[0.0,0.0,0.0,1.0],"scale":[1.0,1.0,1.0],"name":"node_49","children":[24,26]},{"name":"prop0_slow_VC","children":[25]},{"mesh":7,"name":"ENGINE0_AN_VC_1"},{"name":"prop0_blurred_VC","children":[27]},{"mesh":8,"name":"ENGINE0_AN_VC_2"},{"name":"node_56","children":[29]},{"name":"custom_anim_FLAPS_SML_GA_AN_56","children":[30]},{"name":"node_57","children":[31]},{"mesh":9,"name":"custom_anim_FLAPS_SML_GA_AN_57"},{"name":"node_62","children":[33]},{"name":"custom_anim_FLAPS_SML_GA_AN_62","children":[34]},{"name":"node_63","children":[35]},{"mesh":10,"name":"custom_anim_FLAPS_SML_GA_AN_63"}],"scene":0,"scenes":[{"nodes":[0]}],"textures":[{"extensions":{"MSFT_texture_dds":{"source":0}}},{"extensions":{"MSFT_texture_dds":{"source":1}}},{"extensions":{"MSFT_texture_dds":{"source":2}}}],"extensionsUsed":["MSFT_texture_dds","ASOBO_asset_optimized"],"buffers":[{"byteLength":29452,"uri":"HTAI Cessna 185 Skywagon MSFS_LOD2.bin"}],"images":[{"uri":"HTAI_C185.PNG.DDS","extras":"ASOBO_image_converted_meta"},{"uri":"HTAI_C185_C.PNG.DDS","extras":"ASOBO_image_converted_meta"},{"uri":"PROP-HS.PNG.DDS","extras":"ASOBO_image_converted_meta"}]}
