{"accessors":[{"bufferView":0,"componentType":5126,"count":5,"min":[0.0],"max":[100.0],"type":"SCALAR"},{"bufferView":1,"componentType":5126,"count":5,"type":"VEC4"},{"bufferView":0,"byteOffset":20,"componentType":5126,"count":5,"min":[0.0],"max":[100.0],"type":"SCALAR"},{"bufferView":1,"byteOffset":80,"componentType":5126,"count":5,"type":"VEC4"},{"bufferView":2,"componentType":5126,"count":176,"min":[-5.483610153198242,-0.9644200205802918,-5.634089946746826],"max":[5.483610153198242,1.6165599822998047,1.9368799924850464],"type":"VEC3","name":"part000_vertices#0_POSITION"},{"bufferView":2,"byteOffset":12,"componentType":5120,"count":176,"type":"VEC4","name":"part000_vertices#0_TANGENT"},{"bufferView":2,"byteOffset":16,"componentType":5120,"count":176,"type":"VEC4","name":"part000_vertices#0_NORMAL"},{"bufferView":2,"byteOffset":20,"componentType":5122,"count":176,"type":"VEC2","name":"part000_vertices#0_TEXCOORD_0"},{"bufferView":2,"byteOffset":24,"componentType":5122,"count":176,"type":"VEC2","name":"part000_vertices#0_TEXCOORD_1"},{"bufferView":2,"byteOffset":28,"componentType":5123,"count":176,"type":"VEC4","name":"part000_vertices#0_COLOR_0"},{"bufferView":3,"componentType":5123,"count":348,"type":"SCALAR","name":"part000_indices#0"},{"bufferView":2,"byteOffset":6336,"componentType":5126,"count":10,"min":[0.06703999638557434,-0.21227000653743745,-0.2230300009250641],"max":[0.06703999638557434,0.21207000315189362,0.22314999997615815],"type":"VEC3","name":"part001_vertices#0_POSITION"},{"bufferView":2,"byteOffset":6348,"componentType":5120,"count":10,"type":"VEC4","name":"part001_vertices#0_TANGENT"},{"bufferView":2,"byteOffset":6352,"componentType":5120,"count":10,"type":"VEC4","name":"part001_vertices#0_NORMAL"},{"bufferView":2,"byteOffset":6356,"componentType":5122,"count":10,"type":"VEC2","name":"part001_vertices#0_TEXCOORD_0"},{"bufferView":2,"byteOffset":6360,"componentType":5122,"count":10,"type":"VEC2","name":"part001_vertices#0_TEXCOORD_1"},{"bufferView":2,"byteOffset":6364,"componentType":5123,"count":10,"type":"VEC4","name":"part001_vertices#0_COLOR_0"},{"bufferView":3,"byteOffset":696,"componentType":5123,"count":24,"type":"SCALAR","name":"part001_indices#0"},{"bufferView":2,"byteOffset":6696,"componentType":5126,"count":10,"min":[-0.06703999638557434,-0.21227000653743745,-0.2230300009250641],"max":[-0.06703999638557434,0.21207000315189362,0.22314999997615815],"type":"VEC3","name":"part002_vertices#0_POSITION"},{"bufferView":2,"byteOffset":6708,"componentType":5120,"count":10,"type":"VEC4","name":"part002_vertices#0_TANGENT"},{"bufferView":2,"byteOffset":6712,"componentType":5120,"count":10,"type":"VEC4","name":"part002_vertices#0_NORMAL"},{"bufferView":2,"byteOffset":6716,"componentType":5122,"count":10,"type":"VEC2","name":"part002_vertices#0_TEXCOORD_0"},{"bufferView":2,"byteOffset":6720,"componentType":5122,"count":10,"type":"VEC2","name":"part002_vertices#0_TEXCOORD_1"},{"bufferView":2,"byteOffset":6724,"componentType":5123,"count":10,"type":"VEC4","name":"part002_vertices#0_COLOR_0"},{"bufferView":3,"byteOffset":744,"componentType":5123,"count":24,"type":"SCALAR","name":"part002_indices#0"}],"animations":[{"name":"r_tire_blurred_key","channels":[{"sampler":0,"target":{"node":11,"path":"rotation"}}],"samplers":[{"input":0,"output":1,"interpolation":"LINEAR"}]},{"name":"l_tire_blurred_key","channels":[{"sampler":0,"target":{"node":14,"path":"rotation"}}],"samplers":[{"input":2,"output":3,"interpolation":"LINEAR"}]}],"asset":{"generator":"ModelConverterX","version":"2.0","extensions":{"ASOBO_asset_optimized":{"BoundingBoxMax":[5.483610153198242,1.6165599822998047,1.9368799924850464],"BoundingBoxMin":[-5.483610153198242,-0.9644200205802918,-5.634089946746826],"MajorVersion":4,"MinorVersion":4,"UseCheckerboardMaterialForMissingTextures":true,"UseOnlyFilenameForImageURI":true}}},"bufferViews":[{"buffer":0,"byteLength":40,"byteStride":4},{"buffer":0,"byteLength":160,"byteStride":16,"byteOffset":40},{"buffer":0,"byteLength":7056,"byteStride":36,"byteOffset":200,"target":34962,"name":"BufferViewVertexND"},{"buffer":0,"byteLength":792,"byteOffset":7256,"target":34963,"name":"BufferViewIndex"}],"extensionsRequired":["MSFT_texture_dds"],"materials":[{"name":"material00","pbrMetallicRoughness":{"metallicFactor":0.0,"baseColorTexture":{"index":0}}}],"meshes":[{"primitives":[{"attributes":{"COLOR_0":9,"NORMAL":6,"POSITION":4,"TANGENT":5,"TEXCOORD_0":7,"TEXCOORD_1":8},"indices":10,"material":0,"mode":4,"extras":{"ASOBO_primitive":{"PrimitiveCount":116,"VertexType":"VTX","VertexVersion":2}}}],"name":"part000"},{"primitives":[{"attributes":{"COLOR_0":16,"NORMAL":13,"POSITION":11,"TANGENT":12,"TEXCOORD_0":14,"TEXCOORD_1":15},"indices":17,"material":0,"mode":4,"extras":{"ASOBO_primitive":{"PrimitiveCount":8,"VertexType":"VTX","VertexVersion":2}}}],"name":"part001"},{"primitives":[{"attributes":{"COLOR_0":23,"NORMAL":20,"POSITION":18,"TANGENT":19,"TEXCOORD_0":21,"TEXCOORD_1":22},"indices":24,"material":0,"mode":4,"extras":{"ASOBO_primitive":{"PrimitiveCount":8,"VertexType":"VTX","VertexVersion":2}}}],"name":"part002"}],"nodes":[{"name":"node_0","children":[1,2,3,4,5,6,7,8]},{"mesh":0,"name":"node_6"},{"translation":[6.85779546461775e-16,-0.6000000238418579,-5.599999904632568],"rotation":[-6.123031769111886e-17,3.061515884555943e-17,1.0,1.874575902277672e-33],"scale":[1.0,1.0,1.0],"name":"c_tire1"},{"translation":[7.347638122934264e-16,0.0,-6.0],"rotation":[-6.123031769111886e-17,3.061515884555943e-17,1.0,1.874575902277672e-33],"scale":[1.0,1.0,1.0],"name":"contrail1"},{"translation":[-0.2000000029802325,-0.15000000596046449,1.8400000333786014],"rotation":[-0.6156614753256582,0.0,0.0,0.7880107536067219],"scale":[1.0,1.0,1.0],"name":"Taxi_Light"},{"translation":[0.200000002980232,-0.15000000596046449,1.8600000143051148],"rotation":[-0.7071067811865475,0.0,0.0,0.7071067811865475],"scale":[1.0,1.0,1.0],"name":"Landing_Light"},{"translation":[1.2200000286102296,-1.3400000333786014,0.600000023841858],"rotation":[-6.123031769111886e-17,3.061515884555943e-17,1.0,1.874575902277672e-33],"scale":[1.0,1.0,1.0],"name":"l_tire1"},{"translation":[-1.2200000286102296,-1.3400000333786014,0.6000000238418578],"rotation":[-6.123031769111886e-17,3.061515884555943e-17,1.0,1.874575902277672e-33],"scale":[1.0,1.0,1.0],"name":"r_tire1"},{"translation":[0.0,0.0,0.0],"rotation":[-4.329637285359677e-17,0.7071067811865475,0.7071067811865475,4.329637285359677e-17],"scale":[1.0,1.0,1.0],"name":"node_25","children":[9,12]},{"translation":[1.219122052192688,0.609561026096344,-1.1581660509109498],"rotation":[0.0,0.0,0.0,1.0],"scale":[1.0,1.0,1.0],"name":"node_31","children":[10]},{"name":"node_33","children":[11]},{"mesh":1,"name":"r_tire_blurred_key_AN_33"},{"translation":[-1.219122052192688,0.609561026096344,-1.1581660509109498],"rotation":[0.0,0.0,0.0,1.0],"scale":[1.0,1.0,1.0],"name":"node_40","children":[13]},{"name":"node_42","children":[14]},{"mesh":2,"name":"l_tire_blurred_key_AN_42"}],"scene":0,"scenes":[{"nodes":[0]}],"textures":[{"extensions":{"MSFT_texture_dds":{"source":0}}}],"extensionsUsed":["MSFT_texture_dds","ASOBO_asset_optimized"],"buffers":[{"byteLength":8048,"uri":"HTAI Cessna 185 Skywagon MSFS_LOD4.bin"}],"images":[{"uri":"HTAI_C185.PNG.DDS","extras":"ASOBO_image_converted_meta"}]}
