{"accessors":[{"bufferView":0,"componentType":5126,"count":5,"min":[0.0],"max":[100.0],"type":"SCALAR"},{"bufferView":1,"componentType":5126,"count":5,"type":"VEC4"},{"bufferView":0,"byteOffset":20,"componentType":5126,"count":5,"min":[0.0],"max":[100.0],"type":"SCALAR"},{"bufferView":1,"byteOffset":80,"componentType":5126,"count":5,"type":"VEC4"},{"bufferView":0,"byteOffset":40,"componentType":5126,"count":5,"min":[0.0],"max":[100.0],"type":"SCALAR"},{"bufferView":1,"byteOffset":160,"componentType":5126,"count":5,"type":"VEC4"},{"bufferView":2,"componentType":5126,"count":314,"min":[-5.483610153198242,-1.1224199533462525,-5.634089946746826],"max":[5.483610153198242,1.6165599822998047,2.306879997253418],"type":"VEC3","name":"part000_vertices#0_POSITION"},{"bufferView":2,"byteOffset":12,"componentType":5120,"count":314,"type":"VEC4","name":"part000_vertices#0_TANGENT"},{"bufferView":2,"byteOffset":16,"componentType":5120,"count":314,"type":"VEC4","name":"part000_vertices#0_NORMAL"},{"bufferView":2,"byteOffset":20,"componentType":5122,"count":314,"type":"VEC2","name":"part000_vertices#0_TEXCOORD_0"},{"bufferView":2,"byteOffset":24,"componentType":5122,"count":314,"type":"VEC2","name":"part000_vertices#0_TEXCOORD_1"},{"bufferView":2,"byteOffset":28,"componentType":5123,"count":314,"type":"VEC4","name":"part000_vertices#0_COLOR_0"},{"bufferView":3,"componentType":5123,"count":945,"type":"SCALAR","name":"part000_indices#0"},{"bufferView":2,"byteOffset":11304,"componentType":5126,"count":48,"min":[-0.8576499819755554,-0.02329999953508377,-0.9865700006484985],"max":[0.85521000623703,0.023329999297857286,0.5239199995994568],"type":"VEC3","name":"part001_vertices#0_POSITION"},{"bufferView":2,"byteOffset":11316,"componentType":5120,"count":48,"type":"VEC4","name":"part001_vertices#0_TANGENT"},{"bufferView":2,"byteOffset":11320,"componentType":5120,"count":48,"type":"VEC4","name":"part001_vertices#0_NORMAL"},{"bufferView":2,"byteOffset":11324,"componentType":5122,"count":48,"type":"VEC2","name":"part001_vertices#0_TEXCOORD_0"},{"bufferView":2,"byteOffset":11328,"componentType":5122,"count":48,"type":"VEC2","name":"part001_vertices#0_TEXCOORD_1"},{"bufferView":2,"byteOffset":11332,"componentType":5123,"count":48,"type":"VEC4","name":"part001_vertices#0_COLOR_0"},{"bufferView":3,"byteOffset":1890,"componentType":5123,"count":108,"type":"SCALAR","name":"part001_indices#0"},{"bufferView":2,"byteOffset":13032,"componentType":5126,"count":20,"min":[-0.06703999638557434,-0.21227000653743745,-0.2230300009250641],"max":[0.06703999638557434,0.21207000315189362,0.22314999997615815],"type":"VEC3","name":"part002_vertices#0_POSITION"},{"bufferView":2,"byteOffset":13044,"componentType":5120,"count":20,"type":"VEC4","name":"part002_vertices#0_TANGENT"},{"bufferView":2,"byteOffset":13048,"componentType":5120,"count":20,"type":"VEC4","name":"part002_vertices#0_NORMAL"},{"bufferView":2,"byteOffset":13052,"componentType":5122,"count":20,"type":"VEC2","name":"part002_vertices#0_TEXCOORD_0"},{"bufferView":2,"byteOffset":13056,"componentType":5122,"count":20,"type":"VEC2","name":"part002_vertices#0_TEXCOORD_1"},{"bufferView":2,"byteOffset":13060,"componentType":5123,"count":20,"type":"VEC4","name":"part002_vertices#0_COLOR_0"},{"bufferView":3,"byteOffset":2106,"componentType":5123,"count":48,"type":"SCALAR","name":"part002_indices#0"},{"bufferView":2,"byteOffset":13752,"componentType":5126,"count":20,"min":[-0.06703999638557434,-0.21227000653743745,-0.2230300009250641],"max":[0.06703999638557434,0.21207000315189362,0.22314999997615815],"type":"VEC3","name":"part003_vertices#0_POSITION"},{"bufferView":2,"byteOffset":13764,"componentType":5120,"count":20,"type":"VEC4","name":"part003_vertices#0_TANGENT"},{"bufferView":2,"byteOffset":13768,"componentType":5120,"count":20,"type":"VEC4","name":"part003_vertices#0_NORMAL"},{"bufferView":2,"byteOffset":13772,"componentType":5122,"count":20,"type":"VEC2","name":"part003_vertices#0_TEXCOORD_0"},{"bufferView":2,"byteOffset":13776,"componentType":5122,"count":20,"type":"VEC2","name":"part003_vertices#0_TEXCOORD_1"},{"bufferView":2,"byteOffset":13780,"componentType":5123,"count":20,"type":"VEC4","name":"part003_vertices#0_COLOR_0"},{"bufferView":3,"byteOffset":2202,"componentType":5123,"count":48,"type":"SCALAR","name":"part003_indices#0"}],"animations":[{"name":"engine0","channels":[{"sampler":0,"target":{"node":11,"path":"rotation"}}],"samplers":[{"input":0,"output":1,"interpolation":"LINEAR"}]},{"name":"r_tire_blurred_key","channels":[{"sampler":0,"target":{"node":14,"path":"rotation"}}],"samplers":[{"input":2,"output":3,"interpolation":"LINEAR"}]},{"name":"l_tire_blurred_key","channels":[{"sampler":0,"target":{"node":17,"path":"rotation"}}],"samplers":[{"input":4,"output":5,"interpolation":"LINEAR"}]}],"asset":{"generator":"ModelConverterX","version":"2.0","extensions":{"ASOBO_asset_optimized":{"BoundingBoxMax":[5.483610153198242,1.6165599822998047,2.306879997253418],"BoundingBoxMin":[-5.483610153198242,-1.1224199533462525,-5.634089946746826],"MajorVersion":4,"MinorVersion":4,"UseCheckerboardMaterialForMissingTextures":true,"UseOnlyFilenameForImageURI":true}}},"bufferViews":[{"buffer":0,"byteLength":60,"byteStride":4},{"buffer":0,"byteLength":240,"byteStride":16,"byteOffset":60},{"buffer":0,"byteLength":14472,"byteStride":36,"byteOffset":300,"target":34962,"name":"BufferViewVertexND"},{"buffer":0,"byteLength":2298,"byteOffset":14772,"target":34963,"name":"BufferViewIndex"}],"extensionsRequired":["MSFT_texture_dds"],"materials":[{"name":"material00","occlusionTexture":{"index":1},"pbrMetallicRoughness":{"baseColorTexture":{"index":0},"metallicRoughnessTexture":{"index":1}}}],"meshes":[{"primitives":[{"attributes":{"COLOR_0":11,"NORMAL":8,"POSITION":6,"TANGENT":7,"TEXCOORD_0":9,"TEXCOORD_1":10},"indices":12,"material":0,"mode":4,"extras":{"ASOBO_primitive":{"PrimitiveCount":315,"VertexType":"VTX","VertexVersion":2}}}],"name":"part000"},{"primitives":[{"attributes":{"COLOR_0":18,"NORMAL":15,"POSITION":13,"TANGENT":14,"TEXCOORD_0":16,"TEXCOORD_1":17},"indices":19,"material":0,"mode":4,"extras":{"ASOBO_primitive":{"PrimitiveCount":36,"VertexType":"VTX","VertexVersion":2}}}],"name":"part001"},{"primitives":[{"attributes":{"COLOR_0":25,"NORMAL":22,"POSITION":20,"TANGENT":21,"TEXCOORD_0":23,"TEXCOORD_1":24},"indices":26,"material":0,"mode":4,"extras":{"ASOBO_primitive":{"PrimitiveCount":16,"VertexType":"VTX","VertexVersion":2}}}],"name":"part002"},{"primitives":[{"attributes":{"COLOR_0":32,"NORMAL":29,"POSITION":27,"TANGENT":28,"TEXCOORD_0":30,"TEXCOORD_1":31},"indices":33,"material":0,"mode":4,"extras":{"ASOBO_primitive":{"PrimitiveCount":16,"VertexType":"VTX","VertexVersion":2}}}],"name":"part003"}],"nodes":[{"name":"node_0","children":[1,2,3,4,5,6,7,8]},{"mesh":0,"name":"node_7"},{"translation":[6.85779546461775e-16,-0.6000000238418579,-5.599999904632568],"rotation":[-6.123031769111886e-17,3.061515884555943e-17,1.0,1.874575902277672e-33],"scale":[1.0,1.0,1.0],"name":"c_tire1"},{"translation":[7.347638122934264e-16,0.0,-6.0],"rotation":[-6.123031769111886e-17,3.061515884555943e-17,1.0,1.874575902277672e-33],"scale":[1.0,1.0,1.0],"name":"contrail1"},{"translation":[-0.2000000029802325,-0.15000000596046449,1.8400000333786014],"rotation":[-0.6156614753256582,0.0,0.0,0.7880107536067219],"scale":[1.0,1.0,1.0],"name":"Taxi_Light"},{"translation":[0.200000002980232,-0.15000000596046449,1.8600000143051148],"rotation":[-0.7071067811865475,0.0,0.0,0.7071067811865475],"scale":[1.0,1.0,1.0],"name":"Landing_Light"},{"translation":[1.2200000286102296,-1.3400000333786014,0.600000023841858],"rotation":[-6.123031769111886e-17,3.061515884555943e-17,1.0,1.874575902277672e-33],"scale":[1.0,1.0,1.0],"name":"l_tire1"},{"translation":[-1.2200000286102296,-1.3400000333786014,0.6000000238418578],"rotation":[-6.123031769111886e-17,3.061515884555943e-17,1.0,1.874575902277672e-33],"scale":[1.0,1.0,1.0],"name":"r_tire1"},{"translation":[0.0,0.0,0.0],"rotation":[-4.329637285359677e-17,0.7071067811865475,0.7071067811865475,4.329637285359677e-17],"scale":[1.0,1.0,1.0],"name":"node_25","children":[9,12,15]},{"translation":[0.0,2.0232739448547365,0.15649999678134919],"rotation":[0.0,0.0,0.0,1.0],"scale":[1.0,1.0,1.0],"name":"node_26","children":[10]},{"name":"node_27","children":[11]},{"mesh":1,"name":"engine0_AN_27"},{"translation":[1.219122052192688,0.609561026096344,-1.1581660509109498],"rotation":[0.0,0.0,0.0,1.0],"scale":[1.0,1.0,1.0],"name":"node_31","children":[13]},{"name":"node_34","children":[14]},{"mesh":2,"name":"r_tire_blurred_key_AN_34"},{"translation":[-1.219122052192688,0.609561026096344,-1.1581660509109498],"rotation":[0.0,0.0,0.0,1.0],"scale":[1.0,1.0,1.0],"name":"node_40","children":[16]},{"name":"node_43","children":[17]},{"mesh":3,"name":"l_tire_blurred_key_AN_43"}],"scene":0,"scenes":[{"nodes":[0]}],"textures":[{"extensions":{"MSFT_texture_dds":{"source":0}}},{"extensions":{"MSFT_texture_dds":{"source":1}}}],"extensionsUsed":["MSFT_texture_dds","ASOBO_asset_optimized"],"buffers":[{"byteLength":17070,"uri":"HTAI Cessna 185 Skywagon MSFS_LOD3.bin"}],"images":[{"uri":"HTAI_C185.PNG.DDS","extras":"ASOBO_image_converted_meta"},{"uri":"HTAI_C185_C.PNG.DDS","extras":"ASOBO_image_converted_meta"}]}
