{"accessors":[{"bufferView":0,"componentType":5126,"count":4,"min":[0.0],"max":[200.0],"type":"SCALAR"},{"bufferView":1,"componentType":5126,"count":4,"type":"VEC4"},{"bufferView":0,"byteOffset":16,"componentType":5126,"count":5,"min":[0.0],"max":[100.0],"type":"SCALAR"},{"bufferView":1,"byteOffset":64,"componentType":5126,"count":5,"type":"VEC4"},{"bufferView":0,"byteOffset":36,"componentType":5126,"count":5,"min":[0.0],"max":[100.0],"type":"SCALAR"},{"bufferView":1,"byteOffset":144,"componentType":5126,"count":5,"type":"VEC4"},{"bufferView":0,"byteOffset":56,"componentType":5126,"count":5,"min":[0.0],"max":[100.0],"type":"SCALAR"},{"bufferView":1,"byteOffset":224,"componentType":5126,"count":5,"type":"VEC4"},{"bufferView":0,"byteOffset":76,"componentType":5126,"count":5,"min":[0.0],"max":[100.0],"type":"SCALAR"},{"bufferView":1,"byteOffset":304,"componentType":5126,"count":5,"type":"VEC4"},{"bufferView":2,"componentType":5126,"count":9,"min":[-0.07315000146627426,-0.3398500084877014,-10.78991985321045],"max":[0.07315000146627426,4.005070209503174,-7.060689926147461],"type":"VEC3","name":"part000_vertices#0_POSITION"},{"bufferView":2,"byteOffset":12,"componentType":5120,"count":9,"type":"VEC4","name":"part000_vertices#0_TANGENT"},{"bufferView":2,"byteOffset":16,"componentType":5120,"count":9,"type":"VEC4","name":"part000_vertices#0_NORMAL"},{"bufferView":2,"byteOffset":20,"componentType":5122,"count":9,"type":"VEC2","name":"part000_vertices#0_TEXCOORD_0"},{"bufferView":2,"byteOffset":24,"componentType":5122,"count":9,"type":"VEC2","name":"part000_vertices#0_TEXCOORD_1"},{"bufferView":2,"byteOffset":28,"componentType":5123,"count":9,"type":"VEC4","name":"part000_vertices#0_COLOR_0"},{"bufferView":3,"componentType":5123,"count":15,"type":"SCALAR","name":"part000_indices#0"},{"bufferView":2,"byteOffset":324,"componentType":5126,"count":9,"min":[2.618230104446411,0.49682000279426577,1.1734800338745118],"max":[3.0205700397491457,0.7315199971199036,1.1734800338745118],"type":"VEC3","name":"part001_vertices#0_POSITION"},{"bufferView":2,"byteOffset":336,"componentType":5120,"count":9,"type":"VEC4","name":"part001_vertices#0_TANGENT"},{"bufferView":2,"byteOffset":340,"componentType":5120,"count":9,"type":"VEC4","name":"part001_vertices#0_NORMAL"},{"bufferView":2,"byteOffset":344,"componentType":5122,"count":9,"type":"VEC2","name":"part001_vertices#0_TEXCOORD_0"},{"bufferView":2,"byteOffset":348,"componentType":5122,"count":9,"type":"VEC2","name":"part001_vertices#0_TEXCOORD_1"},{"bufferView":2,"byteOffset":352,"componentType":5123,"count":9,"type":"VEC4","name":"part001_vertices#0_COLOR_0"},{"bufferView":3,"byteOffset":30,"componentType":5123,"count":21,"type":"SCALAR","name":"part001_indices#0"},{"bufferView":2,"byteOffset":648,"componentType":5126,"count":519,"min":[-9.793219566345215,-1.6834100484848023,-10.78991985321045],"max":[9.793219566345215,4.005070209503174,5.090159893035889],"type":"VEC3","name":"part002_vertices#0_POSITION"},{"bufferView":2,"byteOffset":660,"componentType":5120,"count":519,"type":"VEC4","name":"part002_vertices#0_TANGENT"},{"bufferView":2,"byteOffset":664,"componentType":5120,"count":519,"type":"VEC4","name":"part002_vertices#0_NORMAL"},{"bufferView":2,"byteOffset":668,"componentType":5122,"count":519,"type":"VEC2","name":"part002_vertices#0_TEXCOORD_0"},{"bufferView":2,"byteOffset":672,"componentType":5122,"count":519,"type":"VEC2","name":"part002_vertices#0_TEXCOORD_1"},{"bufferView":2,"byteOffset":676,"componentType":5123,"count":519,"type":"VEC4","name":"part002_vertices#0_COLOR_0"},{"bufferView":3,"byteOffset":72,"componentType":5123,"count":1524,"type":"SCALAR","name":"part002_indices#0"},{"bufferView":2,"byteOffset":19332,"componentType":5126,"count":36,"min":[-1.0951299667358399,-0.6322799921035767,-0.0801599994301796],"max":[1.0951299667358399,1.264549970626831,0.0801599994301796],"type":"VEC3","name":"part003_vertices#0_POSITION"},{"bufferView":2,"byteOffset":19344,"componentType":5120,"count":36,"type":"VEC4","name":"part003_vertices#0_TANGENT"},{"bufferView":2,"byteOffset":19348,"componentType":5120,"count":36,"type":"VEC4","name":"part003_vertices#0_NORMAL"},{"bufferView":2,"byteOffset":19352,"componentType":5122,"count":36,"type":"VEC2","name":"part003_vertices#0_TEXCOORD_0"},{"bufferView":2,"byteOffset":19356,"componentType":5122,"count":36,"type":"VEC2","name":"part003_vertices#0_TEXCOORD_1"},{"bufferView":2,"byteOffset":19360,"componentType":5123,"count":36,"type":"VEC4","name":"part003_vertices#0_COLOR_0"},{"bufferView":3,"byteOffset":3120,"componentType":5123,"count":72,"type":"SCALAR","name":"part003_indices#0"},{"bufferView":2,"byteOffset":20628,"componentType":5126,"count":36,"min":[-1.0951299667358399,-0.6322799921035767,-0.0801599994301796],"max":[1.0951299667358399,1.264549970626831,0.0801599994301796],"type":"VEC3","name":"part004_vertices#0_POSITION"},{"bufferView":2,"byteOffset":20640,"componentType":5120,"count":36,"type":"VEC4","name":"part004_vertices#0_TANGENT"},{"bufferView":2,"byteOffset":20644,"componentType":5120,"count":36,"type":"VEC4","name":"part004_vertices#0_NORMAL"},{"bufferView":2,"byteOffset":20648,"componentType":5122,"count":36,"type":"VEC2","name":"part004_vertices#0_TEXCOORD_0"},{"bufferView":2,"byteOffset":20652,"componentType":5122,"count":36,"type":"VEC2","name":"part004_vertices#0_TEXCOORD_1"},{"bufferView":2,"byteOffset":20656,"componentType":5123,"count":36,"type":"VEC4","name":"part004_vertices#0_COLOR_0"},{"bufferView":3,"byteOffset":3264,"componentType":5123,"count":72,"type":"SCALAR","name":"part004_indices#0"},{"bufferView":2,"byteOffset":21924,"componentType":5126,"count":34,"min":[-1.2683299779891968,0.0,-1.2683299779891968],"max":[1.2683299779891968,0.0,1.2683299779891968],"type":"VEC3","name":"part005_vertices#0_POSITION"},{"bufferView":2,"byteOffset":21936,"componentType":5120,"count":34,"type":"VEC4","name":"part005_vertices#0_TANGENT"},{"bufferView":2,"byteOffset":21940,"componentType":5120,"count":34,"type":"VEC4","name":"part005_vertices#0_NORMAL"},{"bufferView":2,"byteOffset":21944,"componentType":5122,"count":34,"type":"VEC2","name":"part005_vertices#0_TEXCOORD_0"},{"bufferView":2,"byteOffset":21948,"componentType":5122,"count":34,"type":"VEC2","name":"part005_vertices#0_TEXCOORD_1"},{"bufferView":2,"byteOffset":21952,"componentType":5123,"count":34,"type":"VEC4","name":"part005_vertices#0_COLOR_0"},{"bufferView":3,"byteOffset":3408,"componentType":5123,"count":96,"type":"SCALAR","name":"part005_indices#0"},{"bufferView":2,"byteOffset":23148,"componentType":5126,"count":34,"min":[-1.2683299779891968,0.0,-1.2683299779891968],"max":[1.2683299779891968,0.0,1.2683299779891968],"type":"VEC3","name":"part006_vertices#0_POSITION"},{"bufferView":2,"byteOffset":23160,"componentType":5120,"count":34,"type":"VEC4","name":"part006_vertices#0_TANGENT"},{"bufferView":2,"byteOffset":23164,"componentType":5120,"count":34,"type":"VEC4","name":"part006_vertices#0_NORMAL"},{"bufferView":2,"byteOffset":23168,"componentType":5122,"count":34,"type":"VEC2","name":"part006_vertices#0_TEXCOORD_0"},{"bufferView":2,"byteOffset":23172,"componentType":5122,"count":34,"type":"VEC2","name":"part006_vertices#0_TEXCOORD_1"},{"bufferView":2,"byteOffset":23176,"componentType":5123,"count":34,"type":"VEC4","name":"part006_vertices#0_COLOR_0"},{"bufferView":3,"byteOffset":3600,"componentType":5123,"count":96,"type":"SCALAR","name":"part006_indices#0"}],"animations":[{"name":"custom_anim_C_WHEEL_LR","channels":[{"sampler":0,"target":{"node":14,"path":"rotation"}}],"samplers":[{"input":0,"output":1,"interpolation":"LINEAR"}]},{"name":"engine0","channels":[{"sampler":0,"target":{"node":17,"path":"rotation"}},{"sampler":1,"target":{"node":26,"path":"rotation"}}],"samplers":[{"input":2,"output":3,"interpolation":"LINEAR"},{"input":8,"output":9,"interpolation":"LINEAR"}]},{"name":"engine1","channels":[{"sampler":0,"target":{"node":20,"path":"rotation"}},{"sampler":1,"target":{"node":23,"path":"rotation"}}],"samplers":[{"input":4,"output":5,"interpolation":"LINEAR"},{"input":6,"output":7,"interpolation":"LINEAR"}]}],"asset":{"generator":"ModelConverterX","version":"2.0","extensions":{"ASOBO_asset_optimized":{"BoundingBoxMax":[9.793219566345215,4.005070209503174,5.090159893035889],"BoundingBoxMin":[-9.793219566345215,-1.6834100484848023,-10.78991985321045],"MajorVersion":4,"MinorVersion":4,"UseCheckerboardMaterialForMissingTextures":true,"UseOnlyFilenameForImageURI":true}}},"bufferViews":[{"buffer":0,"byteLength":96,"byteStride":4},{"buffer":0,"byteLength":384,"byteStride":16,"byteOffset":96},{"buffer":0,"byteLength":24372,"byteStride":36,"byteOffset":480,"target":34962,"name":"BufferViewVertexND"},{"buffer":0,"byteLength":3792,"byteOffset":24852,"target":34963,"name":"BufferViewIndex"}],"extensionsRequired":["MSFT_texture_dds"],"materials":[{"name":"material00","pbrMetallicRoughness":{"baseColorFactor":[0.03921600058674812,0.03921600058674812,0.03921600058674812,1.0],"metallicFactor":0.0}},{"name":"material01","pbrMetallicRoughness":{"baseColorFactor":[0.7960780262947084,0.7960780262947084,0.7960780262947084,1.0],"metallicFactor":0.0}},{"name":"material02","occlusionTexture":{"index":1},"emissiveTexture":{"index":2},"emissiveFactor":[0.019607843831181527,0.019607843831181527,0.019607843831181527],"pbrMetallicRoughness":{"baseColorTexture":{"index":0},"metallicRoughnessTexture":{"index":1}},"extensions":{"ASOBO_material_day_night_switch":{}}},{"name":"material03","alphaMode":"BLEND","pbrMetallicRoughness":{"baseColorFactor":[0.0,0.0,0.0,0.9803919792175292],"metallicFactor":0.0,"baseColorTexture":{"index":3}}}],"meshes":[{"primitives":[{"attributes":{"COLOR_0":15,"NORMAL":12,"POSITION":10,"TANGENT":11,"TEXCOORD_0":13,"TEXCOORD_1":14},"indices":16,"material":1,"mode":4,"extras":{"ASOBO_primitive":{"PrimitiveCount":5,"VertexType":"VTX","VertexVersion":2}}}],"name":"part000"},{"primitives":[{"attributes":{"COLOR_0":22,"NORMAL":19,"POSITION":17,"TANGENT":18,"TEXCOORD_0":20,"TEXCOORD_1":21},"indices":23,"material":0,"mode":4,"extras":{"ASOBO_primitive":{"PrimitiveCount":7,"VertexType":"VTX","VertexVersion":2}}}],"name":"part001"},{"primitives":[{"attributes":{"COLOR_0":29,"NORMAL":26,"POSITION":24,"TANGENT":25,"TEXCOORD_0":27,"TEXCOORD_1":28},"indices":30,"material":2,"mode":4,"extras":{"ASOBO_primitive":{"PrimitiveCount":508,"VertexType":"VTX","VertexVersion":2}}}],"name":"part002"},{"primitives":[{"attributes":{"COLOR_0":36,"NORMAL":33,"POSITION":31,"TANGENT":32,"TEXCOORD_0":34,"TEXCOORD_1":35},"indices":37,"material":2,"mode":4,"extras":{"ASOBO_primitive":{"PrimitiveCount":24,"VertexType":"VTX","VertexVersion":2}}}],"name":"part003"},{"primitives":[{"attributes":{"COLOR_0":43,"NORMAL":40,"POSITION":38,"TANGENT":39,"TEXCOORD_0":41,"TEXCOORD_1":42},"indices":44,"material":2,"mode":4,"extras":{"ASOBO_primitive":{"PrimitiveCount":24,"VertexType":"VTX","VertexVersion":2}}}],"name":"part004"},{"primitives":[{"attributes":{"COLOR_0":50,"NORMAL":47,"POSITION":45,"TANGENT":46,"TEXCOORD_0":48,"TEXCOORD_1":49},"indices":51,"material":3,"mode":4,"extras":{"ASOBO_primitive":{"PrimitiveCount":32,"VertexType":"VTX","VertexVersion":2}}}],"name":"part005"},{"primitives":[{"attributes":{"COLOR_0":57,"NORMAL":54,"POSITION":52,"TANGENT":53,"TEXCOORD_0":55,"TEXCOORD_1":56},"indices":58,"material":3,"mode":4,"extras":{"ASOBO_primitive":{"PrimitiveCount":32,"VertexType":"VTX","VertexVersion":2}}}],"name":"part006"}],"nodes":[{"name":"node_0","children":[1,2,3,4,5,6,7,8,9,10,11]},{"mesh":0,"name":"node_4"},{"mesh":1,"name":"node_5"},{"mesh":2,"name":"cabin_lights_VC"},{"translation":[-3.7962795800618065e-16,-1.600000023841858,3.0999999046325685],"rotation":[-6.123031769111886e-17,3.061515884555943e-17,1.0,1.874575902277672e-33],"scale":[1.0,1.0,1.0],"name":"c_tire1"},{"translation":[-3.5,1.149999976158142,-0.15999999642372174],"rotation":[-0.7071067811865475,0.0,0.0,0.7071067811865475],"scale":[1.0,1.0,1.0],"name":"landing_r"},{"translation":[3.5,1.149999976158142,-0.1599999964237209],"rotation":[-0.7071067811865475,0.0,0.0,0.7071067811865475],"scale":[1.0,1.0,1.0],"name":"landing_l"},{"translation":[1.8999999761581424,-1.600000023841858,-1.399999976158142],"rotation":[-6.123031769111886e-17,3.061515884555943e-17,1.0,1.874575902277672e-33],"scale":[1.0,1.0,1.0],"name":"l_tire1"},{"translation":[-1.899999976158142,-1.600000023841858,-1.3999999761581424],"rotation":[-6.123031769111886e-17,3.061515884555943e-17,1.0,1.874575902277672e-33],"scale":[1.0,1.0,1.0],"name":"r_tire1"},{"translation":[2.7999999523162848,1.0,-2.900000095367431],"rotation":[-6.123031769111886e-17,3.061515884555943e-17,1.0,1.874575902277672e-33],"scale":[1.0,1.0,1.0],"name":"contrail1"},{"translation":[-2.7999999523162839,1.0,-2.900000095367432],"rotation":[-6.123031769111886e-17,3.061515884555943e-17,1.0,1.874575902277672e-33],"scale":[1.0,1.0,1.0],"name":"contrail2"},{"translation":[0.0,0.0,0.0],"rotation":[-4.329637285359677e-17,0.7071067811865475,0.7071067811865475,4.329637285359677e-17],"scale":[1.0,1.0,1.0],"name":"node_23","children":[12,16,19,22,25]},{"translation":[0.0,3.1924750804901125,-1.317041039466858],"rotation":[0.0,0.0,0.0,1.0],"scale":[1.0,1.0,1.0],"name":"node_30","children":[13]},{"name":"node_31","children":[14]},{"name":"custom_anim_C_WHEEL_LR_AN_31","children":[15]},{"translation":[-0.119999997317791,0.04752499982714653,0.3670409917831421],"rotation":[0.0,0.0,1.0,-6.123031769111886e-17],"scale":[1.0,1.0,1.0],"name":"taxi"},{"translation":[-2.8194000720977785,1.4325599670410157,0.9881619811058044],"rotation":[0.612372473948173,-0.35355332433820249,0.35355332433820249,0.612372473948173],"scale":[1.0,1.0,1.0],"name":"node_35","children":[17]},{"name":"engine0_AN_35","children":[18]},{"mesh":3,"name":"prop0_still_VC"},{"translation":[2.8194000720977785,1.4325599670410157,0.9881619811058044],"rotation":[0.612372473948173,-0.35355332433820249,0.35355332433820249,0.612372473948173],"scale":[1.0,1.0,1.0],"name":"node_40","children":[20]},{"name":"engine1_AN_40","children":[21]},{"mesh":4,"name":"prop1_still_VC"},{"translation":[2.8194000720977785,1.4295120239257813,0.9887710213661194],"rotation":[0.0,0.0,0.0,1.0],"scale":[1.0,1.0,1.0],"name":"node_45","children":[23]},{"name":"engine1_AN_45","children":[24]},{"mesh":5,"name":"prop1_blurred_VC"},{"translation":[-2.8194000720977785,1.4295120239257813,0.9887710213661194],"rotation":[0.0,0.0,0.0,1.0],"scale":[1.0,1.0,1.0],"name":"node_50","children":[26]},{"name":"engine0_AN_50","children":[27]},{"mesh":6,"name":"prop0_blurred_VC"}],"scene":0,"scenes":[{"nodes":[0]}],"textures":[{"extensions":{"MSFT_texture_dds":{"source":0}}},{"extensions":{"MSFT_texture_dds":{"source":1}}},{"extensions":{"MSFT_texture_dds":{"source":2}}},{"extensions":{"MSFT_texture_dds":{"source":3}}}],"extensionsUsed":["ASOBO_material_day_night_switch","MSFT_texture_dds","ASOBO_asset_optimized"],"buffers":[{"byteLength":28644,"uri":"HTAI de Havilland DHC6 MSFS_LOD2.bin"}],"images":[{"uri":"DHC6.PNG.DDS","extras":"ASOBO_image_converted_meta"},{"uri":"DHC6_C.PNG.DDS","extras":"ASOBO_image_converted_meta"},{"uri":"CABIN_LIGHTS.PNG.DDS","extras":"ASOBO_image_converted_meta"},{"uri":"PROP-HS.PNG.DDS","extras":"ASOBO_image_converted_meta"}]}
