{"accessors":[{"bufferView":0,"componentType":5126,"count":27,"min":[0.0],"max":[70.0],"type":"SCALAR"},{"bufferView":1,"componentType":5126,"count":27,"type":"VEC4"},{"bufferView":0,"byteOffset":108,"componentType":5126,"count":5,"min":[0.0],"max":[100.0],"type":"SCALAR"},{"bufferView":1,"byteOffset":432,"componentType":5126,"count":5,"type":"VEC4"},{"bufferView":0,"byteOffset":128,"componentType":5126,"count":32,"min":[0.0],"max":[70.0],"type":"SCALAR"},{"bufferView":1,"byteOffset":512,"componentType":5126,"count":32,"type":"VEC4"},{"bufferView":0,"byteOffset":256,"componentType":5126,"count":5,"min":[0.0],"max":[100.0],"type":"SCALAR"},{"bufferView":1,"byteOffset":1024,"componentType":5126,"count":5,"type":"VEC4"},{"bufferView":0,"byteOffset":276,"componentType":5126,"count":32,"min":[0.0],"max":[70.0],"type":"SCALAR"},{"bufferView":1,"byteOffset":1104,"componentType":5126,"count":32,"type":"VEC4"},{"bufferView":0,"byteOffset":404,"componentType":5126,"count":5,"min":[0.0],"max":[100.0],"type":"SCALAR"},{"bufferView":1,"byteOffset":1616,"componentType":5126,"count":5,"type":"VEC4"},{"bufferView":0,"byteOffset":424,"componentType":5126,"count":32,"min":[0.0],"max":[80.0],"type":"SCALAR"},{"bufferView":1,"byteOffset":1696,"componentType":5126,"count":32,"type":"VEC4"},{"bufferView":2,"componentType":5126,"count":26,"min":[-4.052000045776367,-0.19201000034809113,-0.6600000262260437],"max":[-2.9679999351501467,1.059999942779541,2.552000045776367],"type":"VEC3","name":"part000_vertices#0_POSITION"},{"bufferView":2,"byteOffset":12,"componentType":5120,"count":26,"type":"VEC4","name":"part000_vertices#0_TANGENT"},{"bufferView":2,"byteOffset":16,"componentType":5120,"count":26,"type":"VEC4","name":"part000_vertices#0_NORMAL"},{"bufferView":2,"byteOffset":20,"componentType":5122,"count":26,"type":"VEC2","name":"part000_vertices#0_TEXCOORD_0"},{"bufferView":2,"byteOffset":24,"componentType":5122,"count":26,"type":"VEC2","name":"part000_vertices#0_TEXCOORD_1"},{"bufferView":2,"byteOffset":28,"componentType":5123,"count":26,"type":"VEC4","name":"part000_vertices#0_COLOR_0"},{"bufferView":3,"componentType":5123,"count":60,"type":"SCALAR","name":"part000_indices#0"},{"bufferView":2,"byteOffset":936,"componentType":5126,"count":126,"min":[-10.564000129699707,-1.496000051498413,-13.104000091552735],"max":[10.539999961853028,5.099999904632568,8.196000099182129],"type":"VEC3","name":"part001_vertices#0_POSITION"},{"bufferView":2,"byteOffset":948,"componentType":5120,"count":126,"type":"VEC4","name":"part001_vertices#0_TANGENT"},{"bufferView":2,"byteOffset":952,"componentType":5120,"count":126,"type":"VEC4","name":"part001_vertices#0_NORMAL"},{"bufferView":2,"byteOffset":956,"componentType":5122,"count":126,"type":"VEC2","name":"part001_vertices#0_TEXCOORD_0"},{"bufferView":2,"byteOffset":960,"componentType":5122,"count":126,"type":"VEC2","name":"part001_vertices#0_TEXCOORD_1"},{"bufferView":2,"byteOffset":964,"componentType":5123,"count":126,"type":"VEC4","name":"part001_vertices#0_COLOR_0"},{"bufferView":3,"byteOffset":120,"componentType":5123,"count":258,"type":"SCALAR","name":"part001_indices#0"},{"bufferView":2,"byteOffset":5472,"componentType":5126,"count":26,"min":[2.9679999351501467,-0.19200000166893006,-0.6600000262260437],"max":[4.052000045776367,1.059999942779541,2.552000045776367],"type":"VEC3","name":"part002_vertices#0_POSITION"},{"bufferView":2,"byteOffset":5484,"componentType":5120,"count":26,"type":"VEC4","name":"part002_vertices#0_TANGENT"},{"bufferView":2,"byteOffset":5488,"componentType":5120,"count":26,"type":"VEC4","name":"part002_vertices#0_NORMAL"},{"bufferView":2,"byteOffset":5492,"componentType":5122,"count":26,"type":"VEC2","name":"part002_vertices#0_TEXCOORD_0"},{"bufferView":2,"byteOffset":5496,"componentType":5122,"count":26,"type":"VEC2","name":"part002_vertices#0_TEXCOORD_1"},{"bufferView":2,"byteOffset":5500,"componentType":5123,"count":26,"type":"VEC4","name":"part002_vertices#0_COLOR_0"},{"bufferView":3,"byteOffset":636,"componentType":5123,"count":60,"type":"SCALAR","name":"part002_indices#0"},{"bufferView":2,"byteOffset":6408,"componentType":5126,"count":32,"min":[-0.3880000114440918,-0.2523399889469147,-0.2461400032043457],"max":[0.06800000369548798,0.2513999938964844,0.24390999972820283],"type":"VEC3","name":"part003_vertices#0_POSITION"},{"bufferView":2,"byteOffset":6420,"componentType":5120,"count":32,"type":"VEC4","name":"part003_vertices#0_TANGENT"},{"bufferView":2,"byteOffset":6424,"componentType":5120,"count":32,"type":"VEC4","name":"part003_vertices#0_NORMAL"},{"bufferView":2,"byteOffset":6428,"componentType":5122,"count":32,"type":"VEC2","name":"part003_vertices#0_TEXCOORD_0"},{"bufferView":2,"byteOffset":6432,"componentType":5122,"count":32,"type":"VEC2","name":"part003_vertices#0_TEXCOORD_1"},{"bufferView":2,"byteOffset":6436,"componentType":5123,"count":32,"type":"VEC4","name":"part003_vertices#0_COLOR_0"},{"bufferView":3,"byteOffset":756,"componentType":5123,"count":48,"type":"SCALAR","name":"part003_indices#0"},{"bufferView":2,"byteOffset":7560,"componentType":5126,"count":32,"min":[-0.3880000114440918,-0.2523399889469147,-0.2461400032043457],"max":[0.06800000369548798,0.2513999938964844,0.24390999972820283],"type":"VEC3","name":"part004_vertices#0_POSITION"},{"bufferView":2,"byteOffset":7572,"componentType":5120,"count":32,"type":"VEC4","name":"part004_vertices#0_TANGENT"},{"bufferView":2,"byteOffset":7576,"componentType":5120,"count":32,"type":"VEC4","name":"part004_vertices#0_NORMAL"},{"bufferView":2,"byteOffset":7580,"componentType":5122,"count":32,"type":"VEC2","name":"part004_vertices#0_TEXCOORD_0"},{"bufferView":2,"byteOffset":7584,"componentType":5122,"count":32,"type":"VEC2","name":"part004_vertices#0_TEXCOORD_1"},{"bufferView":2,"byteOffset":7588,"componentType":5123,"count":32,"type":"VEC4","name":"part004_vertices#0_COLOR_0"},{"bufferView":3,"byteOffset":852,"componentType":5123,"count":48,"type":"SCALAR","name":"part004_indices#0"},{"bufferView":2,"byteOffset":8712,"componentType":5126,"count":32,"min":[-0.23847000300884248,-0.251910001039505,-0.2669700086116791],"max":[0.3338800072669983,0.25192999839782717,0.28435999155044558],"type":"VEC3","name":"part005_vertices#0_POSITION"},{"bufferView":2,"byteOffset":8724,"componentType":5120,"count":32,"type":"VEC4","name":"part005_vertices#0_TANGENT"},{"bufferView":2,"byteOffset":8728,"componentType":5120,"count":32,"type":"VEC4","name":"part005_vertices#0_NORMAL"},{"bufferView":2,"byteOffset":8732,"componentType":5122,"count":32,"type":"VEC2","name":"part005_vertices#0_TEXCOORD_0"},{"bufferView":2,"byteOffset":8736,"componentType":5122,"count":32,"type":"VEC2","name":"part005_vertices#0_TEXCOORD_1"},{"bufferView":2,"byteOffset":8740,"componentType":5123,"count":32,"type":"VEC4","name":"part005_vertices#0_COLOR_0"},{"bufferView":3,"byteOffset":948,"componentType":5123,"count":48,"type":"SCALAR","name":"part005_indices#0"},{"bufferView":2,"byteOffset":9864,"componentType":5126,"count":32,"min":[-0.23847000300884248,-0.251910001039505,-0.2669700086116791],"max":[0.3338800072669983,0.25192999839782717,0.28435999155044558],"type":"VEC3","name":"part006_vertices#0_POSITION"},{"bufferView":2,"byteOffset":9876,"componentType":5120,"count":32,"type":"VEC4","name":"part006_vertices#0_TANGENT"},{"bufferView":2,"byteOffset":9880,"componentType":5120,"count":32,"type":"VEC4","name":"part006_vertices#0_NORMAL"},{"bufferView":2,"byteOffset":9884,"componentType":5122,"count":32,"type":"VEC2","name":"part006_vertices#0_TEXCOORD_0"},{"bufferView":2,"byteOffset":9888,"componentType":5122,"count":32,"type":"VEC2","name":"part006_vertices#0_TEXCOORD_1"},{"bufferView":2,"byteOffset":9892,"componentType":5123,"count":32,"type":"VEC4","name":"part006_vertices#0_COLOR_0"},{"bufferView":3,"byteOffset":1044,"componentType":5123,"count":48,"type":"SCALAR","name":"part006_indices#0"},{"bufferView":2,"byteOffset":11016,"componentType":5126,"count":32,"min":[-0.23847000300884248,-0.2515299916267395,-0.26732000708580019],"max":[0.33605998754501345,0.25192999839782717,0.28367000818252566],"type":"VEC3","name":"part007_vertices#0_POSITION"},{"bufferView":2,"byteOffset":11028,"componentType":5120,"count":32,"type":"VEC4","name":"part007_vertices#0_TANGENT"},{"bufferView":2,"byteOffset":11032,"componentType":5120,"count":32,"type":"VEC4","name":"part007_vertices#0_NORMAL"},{"bufferView":2,"byteOffset":11036,"componentType":5122,"count":32,"type":"VEC2","name":"part007_vertices#0_TEXCOORD_0"},{"bufferView":2,"byteOffset":11040,"componentType":5122,"count":32,"type":"VEC2","name":"part007_vertices#0_TEXCOORD_1"},{"bufferView":2,"byteOffset":11044,"componentType":5123,"count":32,"type":"VEC4","name":"part007_vertices#0_COLOR_0"},{"bufferView":3,"byteOffset":1140,"componentType":5123,"count":48,"type":"SCALAR","name":"part007_indices#0"},{"bufferView":2,"byteOffset":12168,"componentType":5126,"count":32,"min":[-0.23847000300884248,-0.2515299916267395,-0.26732000708580019],"max":[0.33605998754501345,0.25192999839782717,0.28367000818252566],"type":"VEC3","name":"part008_vertices#0_POSITION"},{"bufferView":2,"byteOffset":12180,"componentType":5120,"count":32,"type":"VEC4","name":"part008_vertices#0_TANGENT"},{"bufferView":2,"byteOffset":12184,"componentType":5120,"count":32,"type":"VEC4","name":"part008_vertices#0_NORMAL"},{"bufferView":2,"byteOffset":12188,"componentType":5122,"count":32,"type":"VEC2","name":"part008_vertices#0_TEXCOORD_0"},{"bufferView":2,"byteOffset":12192,"componentType":5122,"count":32,"type":"VEC2","name":"part008_vertices#0_TEXCOORD_1"},{"bufferView":2,"byteOffset":12196,"componentType":5123,"count":32,"type":"VEC4","name":"part008_vertices#0_COLOR_0"},{"bufferView":3,"byteOffset":1236,"componentType":5123,"count":48,"type":"SCALAR","name":"part008_indices#0"}],"animations":[{"name":"c_gear","channels":[{"sampler":0,"target":{"node":16,"path":"rotation"}},{"sampler":1,"target":{"node":35,"path":"rotation"}}],"samplers":[{"input":0,"output":1,"interpolation":"LINEAR"},{"input":12,"output":13,"interpolation":"LINEAR"}]},{"name":"c_tire_blurred_key","channels":[{"sampler":0,"target":{"node":18,"path":"rotation"}}],"samplers":[{"input":2,"output":3,"interpolation":"LINEAR"}]},{"name":"l_gear","channels":[{"sampler":0,"target":{"node":22,"path":"rotation"}}],"samplers":[{"input":4,"output":5,"interpolation":"LINEAR"}]},{"name":"l_tire_blurred_key","channels":[{"sampler":0,"target":{"node":24,"path":"rotation"}}],"samplers":[{"input":6,"output":7,"interpolation":"LINEAR"}]},{"name":"r_gear","channels":[{"sampler":0,"target":{"node":28,"path":"rotation"}}],"samplers":[{"input":8,"output":9,"interpolation":"LINEAR"}]},{"name":"r_tire_blurred_key","channels":[{"sampler":0,"target":{"node":30,"path":"rotation"}}],"samplers":[{"input":10,"output":11,"interpolation":"LINEAR"}]}],"asset":{"generator":"ModelConverterX","version":"2.0","extensions":{"ASOBO_asset_optimized":{"BoundingBoxMax":[10.539999961853028,5.099999904632568,8.196000099182129],"BoundingBoxMin":[-10.564000129699707,-1.496000051498413,-13.104000091552735],"MajorVersion":4,"MinorVersion":4,"UseCheckerboardMaterialForMissingTextures":true,"UseOnlyFilenameForImageURI":true}}},"bufferViews":[{"buffer":0,"byteLength":552,"byteStride":4},{"buffer":0,"byteLength":2208,"byteStride":16,"byteOffset":552},{"buffer":0,"byteLength":13320,"byteStride":36,"byteOffset":2760,"target":34962,"name":"BufferViewVertexND"},{"buffer":0,"byteLength":1332,"byteOffset":16080,"target":34963,"name":"BufferViewIndex"}],"extensionsRequired":["MSFT_texture_dds"],"materials":[{"name":"material00","occlusionTexture":{"index":1},"emissiveTexture":{"index":2},"emissiveFactor":[0.019607843831181527,0.019607843831181527,0.019607843831181527],"pbrMetallicRoughness":{"baseColorTexture":{"index":0},"metallicRoughnessTexture":{"index":1}},"extensions":{"ASOBO_material_day_night_switch":{}}}],"meshes":[{"primitives":[{"attributes":{"COLOR_0":19,"NORMAL":16,"POSITION":14,"TANGENT":15,"TEXCOORD_0":17,"TEXCOORD_1":18},"indices":20,"material":0,"mode":4,"extras":{"ASOBO_primitive":{"PrimitiveCount":20,"VertexType":"VTX","VertexVersion":2}}}],"name":"part000"},{"primitives":[{"attributes":{"COLOR_0":26,"NORMAL":23,"POSITION":21,"TANGENT":22,"TEXCOORD_0":24,"TEXCOORD_1":25},"indices":27,"material":0,"mode":4,"extras":{"ASOBO_primitive":{"PrimitiveCount":86,"VertexType":"VTX","VertexVersion":2}}}],"name":"part001"},{"primitives":[{"attributes":{"COLOR_0":33,"NORMAL":30,"POSITION":28,"TANGENT":29,"TEXCOORD_0":31,"TEXCOORD_1":32},"indices":34,"material":0,"mode":4,"extras":{"ASOBO_primitive":{"PrimitiveCount":20,"VertexType":"VTX","VertexVersion":2}}}],"name":"part002"},{"primitives":[{"attributes":{"COLOR_0":40,"NORMAL":37,"POSITION":35,"TANGENT":36,"TEXCOORD_0":38,"TEXCOORD_1":39},"indices":41,"material":0,"mode":4,"extras":{"ASOBO_primitive":{"PrimitiveCount":16,"VertexType":"VTX","VertexVersion":2}}}],"name":"part003"},{"primitives":[{"attributes":{"COLOR_0":47,"NORMAL":44,"POSITION":42,"TANGENT":43,"TEXCOORD_0":45,"TEXCOORD_1":46},"indices":48,"material":0,"mode":4,"extras":{"ASOBO_primitive":{"PrimitiveCount":16,"VertexType":"VTX","VertexVersion":2}}}],"name":"part004"},{"primitives":[{"attributes":{"COLOR_0":54,"NORMAL":51,"POSITION":49,"TANGENT":50,"TEXCOORD_0":52,"TEXCOORD_1":53},"indices":55,"material":0,"mode":4,"extras":{"ASOBO_primitive":{"PrimitiveCount":16,"VertexType":"VTX","VertexVersion":2}}}],"name":"part005"},{"primitives":[{"attributes":{"COLOR_0":61,"NORMAL":58,"POSITION":56,"TANGENT":57,"TEXCOORD_0":59,"TEXCOORD_1":60},"indices":62,"material":0,"mode":4,"extras":{"ASOBO_primitive":{"PrimitiveCount":16,"VertexType":"VTX","VertexVersion":2}}}],"name":"part006"},{"primitives":[{"attributes":{"COLOR_0":68,"NORMAL":65,"POSITION":63,"TANGENT":64,"TEXCOORD_0":66,"TEXCOORD_1":67},"indices":69,"material":0,"mode":4,"extras":{"ASOBO_primitive":{"PrimitiveCount":16,"VertexType":"VTX","VertexVersion":2}}}],"name":"part007"},{"primitives":[{"attributes":{"COLOR_0":75,"NORMAL":72,"POSITION":70,"TANGENT":71,"TEXCOORD_0":73,"TEXCOORD_1":74},"indices":76,"material":0,"mode":4,"extras":{"ASOBO_primitive":{"PrimitiveCount":16,"VertexType":"VTX","VertexVersion":2}}}],"name":"part008"}],"nodes":[{"name":"node_0","children":[1,2,3,4,5,6,7,8,9,10,11,12,13]},{"mesh":0,"name":"custom_vis_parts_visible_02_mcx_VC"},{"mesh":1,"name":"custom_vis_parts_visible_00_mcx_VC"},{"mesh":2,"name":"custom_vis_parts_visible_01_mcx_VC"},{"translation":[-3.5,0.5199999809265137,-1.0000000000000005],"rotation":[-6.123031769111886e-17,0.0,1.0,0.0],"scale":[1.0,1.0,1.0],"name":"contrail2"},{"translation":[3.5,0.5199999809265137,-0.9999999999999997],"rotation":[-6.123031769111886e-17,0.0,1.0,0.0],"scale":[1.0,1.0,1.0],"name":"contrail1"},{"translation":[-1.7000000476837157,-1.9099999666213988,-1.2999999523162845],"rotation":[-6.123031769111886e-17,0.0,1.0,0.0],"scale":[1.0,1.0,1.0],"name":"r_tire1"},{"translation":[1.700000047683716,-1.9099999666213988,-1.299999952316284],"rotation":[-6.123031769111886e-17,0.0,1.0,0.0],"scale":[1.0,1.0,1.0],"name":"l_tire1"},{"translation":[1.1299999952316285,-1.0,0.8000000119209291],"rotation":[0.9961947078055676,0.0,-0.08715563171809196,0.0],"scale":[1.0,1.0,1.0],"name":"landing_l"},{"translation":[-1.1299999952316285,-1.0,0.8000000119209288],"rotation":[0.9961947078055676,0.0,0.08715563171809207,0.0],"scale":[1.0,1.0,1.0],"name":"landing_r"},{"translation":[-1.1299999952316269,4.440000057220459,-11.869999885559082],"rotation":[-0.6509738106505673,0.07943425896950822,0.5960897056944612,0.46324955163446226],"scale":[1.0,1.0,1.0],"name":"logo_r"},{"translation":[1.12999999523163,4.440000057220459,-11.869999885559082],"rotation":[0.6509738106505674,0.07943425896950832,0.5960897056944614,-0.4632495516344623],"scale":[1.0,1.0,1.0],"name":"logo_l"},{"translation":[-7.715020262656102e-16,-1.9099999666213988,6.300000190734863],"rotation":[-6.123031769111886e-17,0.0,1.0,0.0],"scale":[1.0,1.0,1.0],"name":"c_tire1"},{"translation":[0.0,0.0,0.0],"rotation":[-4.329637285359677e-17,0.7071067811865475,0.7071067811865475,4.329637285359677e-17],"scale":[1.0,1.0,1.0],"name":"node_37","children":[14,33]},{"translation":[0.0,-2.2980830669403078,-0.07500699907541275],"rotation":[0.0,0.0,0.0,1.0],"scale":[1.0,1.0,1.0],"name":"node_38","children":[15,21,27]},{"translation":[-0.004342999774962664,8.664727210998536,-0.993956983089447],"rotation":[0.0,0.0,0.0,1.0],"scale":[1.0,1.0,1.0],"name":"node_39","children":[16]},{"name":"c_gear_AN_39","children":[17]},{"translation":[0.1640630066394806,0.00976600032299757,-0.6416019797325134],"rotation":[0.0,0.0,0.0,1.0],"scale":[1.0,1.0,1.0],"name":"node_40","children":[18]},{"name":"c_tire_blurred_key_AN_40","children":[19,20]},{"mesh":3,"name":"custom_vis_CENTER_WHEEL_ROTATION_ANGLE_0_04_mcx_VC_0"},{"mesh":4,"name":"custom_vis_CENTER_WHEEL_ROTATION_ANGLE_0_04_mcx_VC_1"},{"translation":[-1.2239999771118165,1.2010200023651124,-0.7004129886627197],"rotation":[0.0,0.0,0.0,1.0],"scale":[1.0,1.0,1.0],"name":"node_43","children":[22]},{"name":"l_gear_AN_43","children":[23]},{"translation":[-0.4492740035057068,-0.7953889966011049,0.5402060151100159],"rotation":[-0.35931735896086966,0.6161311236768972,0.3531005704932798,0.6054696117235883],"scale":[1.0,1.0,1.0],"name":"node_44","children":[24]},{"name":"l_tire_blurred_key_AN_44","children":[25,26]},{"mesh":5,"name":"custom_vis_LEFT_WHEEL_ROTATION_ANGLE_0_05_mcx_VC_0"},{"mesh":6,"name":"custom_vis_LEFT_WHEEL_ROTATION_ANGLE_0_05_mcx_VC_1"},{"translation":[1.2239999771118165,1.20101797580719,-0.7045469880104065],"rotation":[0.0,0.0,0.0,1.0],"scale":[1.0,1.0,1.0],"name":"node_47","children":[28]},{"name":"r_gear_AN_47","children":[29]},{"translation":[0.4510360062122345,0.7998369932174684,-0.5247259736061096],"rotation":[-0.610360653503301,-0.35645997205104176,0.6112792190149923,-0.3559969971300828],"scale":[1.0,1.0,1.0],"name":"node_48","children":[30]},{"name":"r_tire_blurred_key_AN_48","children":[31,32]},{"mesh":7,"name":"custom_vis_RIGHT_WHEEL_ROTATION_ANGLE_0_03_mcx_VC_0"},{"mesh":8,"name":"custom_vis_RIGHT_WHEEL_ROTATION_ANGLE_0_03_mcx_VC_1"},{"translation":[0.0,-2.3440001010894777,0.045062001794576648],"rotation":[0.0,0.0,0.0,1.0],"scale":[1.0,1.0,1.0],"name":"node_244","children":[34]},{"translation":[-0.004342999774962664,8.71064281463623,-1.114024996757507],"rotation":[0.0,0.0,0.0,1.0],"scale":[1.0,1.0,1.0],"name":"node_293","children":[35]},{"name":"c_gear_AN_293","children":[36,38,40,42]},{"translation":[-0.2710370123386383,0.10335700213909148,0.1456570029258728],"rotation":[-0.6963642395660484,-0.1227878947653798,0.706676061134761,0.024677467285502059],"scale":[1.0,1.0,1.0],"name":"node_312","children":[37]},{"translation":[0.0,0.0,0.0],"rotation":[-0.7071067811865475,0.0,0.0,0.7071067811865475],"scale":[1.0,1.0,1.0],"name":"taxi_l"},{"translation":[-0.2710370123386383,0.10335700213909148,-0.15434299409389497],"rotation":[-0.7066761299252596,0.02467783344455148,0.6963641717793478,-0.12278775490618556],"scale":[1.0,1.0,1.0],"name":"node_314","children":[39]},{"translation":[0.0,0.0,0.0],"rotation":[-0.7071067811865475,0.0,0.0,0.7071067811865475],"scale":[1.0,1.0,1.0],"name":"taxi_r"},{"translation":[-0.2710370123386383,0.10335700213909148,-0.15434299409389497],"rotation":[0.0,0.0,1.0,0.0],"scale":[1.0,1.0,1.0],"name":"node_316","children":[41]},{"translation":[0.0,0.0,0.0],"rotation":[-0.7071067811865475,0.0,0.0,0.7071067811865475],"scale":[1.0,1.0,1.0],"name":"landing_nose_r"},{"translation":[-0.2710370123386383,0.10335700213909148,0.1456570029258728],"rotation":[0.0,0.0,1.0,0.0],"scale":[1.0,1.0,1.0],"name":"node_318","children":[43]},{"translation":[0.0,0.0,0.0],"rotation":[-0.7071067811865475,0.0,0.0,0.7071067811865475],"scale":[1.0,1.0,1.0],"name":"landing_nose_l"}],"scene":0,"scenes":[{"nodes":[0]}],"textures":[{"extensions":{"MSFT_texture_dds":{"source":0}}},{"extensions":{"MSFT_texture_dds":{"source":1}}},{"extensions":{"MSFT_texture_dds":{"source":2}}}],"extensionsUsed":["ASOBO_material_day_night_switch","MSFT_texture_dds","ASOBO_asset_optimized"],"buffers":[{"byteLength":17412,"uri":"AIG_Do_328J_MSFS_LOD7.bin"}],"images":[{"uri":"AIG_DO328J_T.PNG.DDS","extras":"ASOBO_image_converted_meta"},{"uri":"AIG_DO328J_C.PNG.DDS","extras":"ASOBO_image_converted_meta"},{"uri":"AIG_DO328J_L.PNG.DDS","extras":"ASOBO_image_converted_meta"}]}
