{"accessors":[{"bufferView":0,"componentType":5126,"count":2,"min":[0.0],"max":[100.0],"type":"SCALAR"},{"bufferView":1,"componentType":5126,"count":2,"type":"VEC3"},{"bufferView":0,"byteOffset":8,"componentType":5126,"count":2,"min":[0.0],"max":[100.0],"type":"SCALAR"},{"bufferView":2,"componentType":5126,"count":2,"type":"VEC4"},{"bufferView":0,"byteOffset":16,"componentType":5126,"count":2,"min":[0.0],"max":[100.0],"type":"SCALAR"},{"bufferView":1,"byteOffset":24,"componentType":5126,"count":2,"type":"VEC3"},{"bufferView":0,"byteOffset":24,"componentType":5126,"count":2,"min":[0.0],"max":[100.0],"type":"SCALAR"},{"bufferView":2,"byteOffset":32,"componentType":5126,"count":2,"type":"VEC4"},{"bufferView":0,"byteOffset":32,"componentType":5126,"count":4,"min":[0.0],"max":[200.0],"type":"SCALAR"},{"bufferView":2,"byteOffset":64,"componentType":5126,"count":4,"type":"VEC4"},{"bufferView":0,"byteOffset":48,"componentType":5126,"count":3,"min":[0.0],"max":[200.0],"type":"SCALAR"},{"bufferView":1,"byteOffset":48,"componentType":5126,"count":3,"type":"VEC3"},{"bufferView":0,"byteOffset":60,"componentType":5126,"count":4,"min":[0.0],"max":[200.0],"type":"SCALAR"},{"bufferView":2,"byteOffset":128,"componentType":5126,"count":4,"type":"VEC4"},{"bufferView":0,"byteOffset":76,"componentType":5126,"count":4,"min":[0.0],"max":[200.0],"type":"SCALAR"},{"bufferView":2,"byteOffset":192,"componentType":5126,"count":4,"type":"VEC4"},{"bufferView":0,"byteOffset":92,"componentType":5126,"count":3,"min":[0.0],"max":[200.0],"type":"SCALAR"},{"bufferView":1,"byteOffset":84,"componentType":5126,"count":3,"type":"VEC3"},{"bufferView":0,"byteOffset":104,"componentType":5126,"count":4,"min":[0.0],"max":[200.0],"type":"SCALAR"},{"bufferView":2,"byteOffset":256,"componentType":5126,"count":4,"type":"VEC4"},{"bufferView":0,"byteOffset":120,"componentType":5126,"count":4,"min":[0.0],"max":[200.0],"type":"SCALAR"},{"bufferView":1,"byteOffset":120,"componentType":5126,"count":4,"type":"VEC3"},{"bufferView":3,"componentType":5126,"count":168,"min":[-17.0462703704834,-0.7684199810028076,-24.143110275268556],"max":[17.0462703704834,8.060029983520508,22.370359420776368],"type":"VEC3","name":"part000_vertices#0_POSITION"},{"bufferView":3,"byteOffset":12,"componentType":5120,"count":168,"type":"VEC4","name":"part000_vertices#0_TANGENT"},{"bufferView":3,"byteOffset":16,"componentType":5120,"count":168,"type":"VEC4","name":"part000_vertices#0_NORMAL"},{"bufferView":3,"byteOffset":20,"componentType":5122,"count":168,"type":"VEC2","name":"part000_vertices#0_TEXCOORD_0"},{"bufferView":3,"byteOffset":24,"componentType":5122,"count":168,"type":"VEC2","name":"part000_vertices#0_TEXCOORD_1"},{"bufferView":3,"byteOffset":28,"componentType":5123,"count":168,"type":"VEC4","name":"part000_vertices#0_COLOR_0"},{"bufferView":4,"componentType":5123,"count":312,"type":"SCALAR","name":"part000_indices#0"},{"bufferView":3,"byteOffset":6048,"componentType":5126,"count":16,"min":[-0.3686699867248535,-0.43748998641967776,-0.3881300091743469],"max":[0.3687100112438202,0.37645000219345095,0.41508999466896059],"type":"VEC3","name":"part001_vertices#0_POSITION"},{"bufferView":3,"byteOffset":6060,"componentType":5120,"count":16,"type":"VEC4","name":"part001_vertices#0_TANGENT"},{"bufferView":3,"byteOffset":6064,"componentType":5120,"count":16,"type":"VEC4","name":"part001_vertices#0_NORMAL"},{"bufferView":3,"byteOffset":6068,"componentType":5122,"count":16,"type":"VEC2","name":"part001_vertices#0_TEXCOORD_0"},{"bufferView":3,"byteOffset":6072,"componentType":5122,"count":16,"type":"VEC2","name":"part001_vertices#0_TEXCOORD_1"},{"bufferView":3,"byteOffset":6076,"componentType":5123,"count":16,"type":"VEC4","name":"part001_vertices#0_COLOR_0"},{"bufferView":4,"byteOffset":624,"componentType":5123,"count":24,"type":"SCALAR","name":"part001_indices#0"},{"bufferView":3,"byteOffset":6624,"componentType":5126,"count":16,"min":[-0.6980900168418884,-0.51528000831604,-1.0952500104904175],"max":[0.6217300295829773,0.5623800158500671,0.15184000134468079],"type":"VEC3","name":"part002_vertices#0_POSITION"},{"bufferView":3,"byteOffset":6636,"componentType":5120,"count":16,"type":"VEC4","name":"part002_vertices#0_TANGENT"},{"bufferView":3,"byteOffset":6640,"componentType":5120,"count":16,"type":"VEC4","name":"part002_vertices#0_NORMAL"},{"bufferView":3,"byteOffset":6644,"componentType":5122,"count":16,"type":"VEC2","name":"part002_vertices#0_TEXCOORD_0"},{"bufferView":3,"byteOffset":6648,"componentType":5122,"count":16,"type":"VEC2","name":"part002_vertices#0_TEXCOORD_1"},{"bufferView":3,"byteOffset":6652,"componentType":5123,"count":16,"type":"VEC4","name":"part002_vertices#0_COLOR_0"},{"bufferView":4,"byteOffset":672,"componentType":5123,"count":24,"type":"SCALAR","name":"part002_indices#0"},{"bufferView":3,"byteOffset":7200,"componentType":5126,"count":16,"min":[-0.6422100067138672,-0.665880024433136,-1.1112799644470215],"max":[0.6537100076675415,0.5698400139808655,0.14093999564647675],"type":"VEC3","name":"part003_vertices#0_POSITION"},{"bufferView":3,"byteOffset":7212,"componentType":5120,"count":16,"type":"VEC4","name":"part003_vertices#0_TANGENT"},{"bufferView":3,"byteOffset":7216,"componentType":5120,"count":16,"type":"VEC4","name":"part003_vertices#0_NORMAL"},{"bufferView":3,"byteOffset":7220,"componentType":5122,"count":16,"type":"VEC2","name":"part003_vertices#0_TEXCOORD_0"},{"bufferView":3,"byteOffset":7224,"componentType":5122,"count":16,"type":"VEC2","name":"part003_vertices#0_TEXCOORD_1"},{"bufferView":3,"byteOffset":7228,"componentType":5123,"count":16,"type":"VEC4","name":"part003_vertices#0_COLOR_0"},{"bufferView":4,"byteOffset":720,"componentType":5123,"count":24,"type":"SCALAR","name":"part003_indices#0"}],"animations":[{"name":"AIA_727_custom_anim_SLATS_AIRLINER","channels":[{"sampler":0,"target":{"node":15,"path":"translation"}},{"sampler":1,"target":{"node":17,"path":"rotation"}},{"sampler":2,"target":{"node":20,"path":"translation"}},{"sampler":3,"target":{"node":22,"path":"rotation"}}],"samplers":[{"input":0,"output":1,"interpolation":"LINEAR"},{"input":2,"output":3,"interpolation":"LINEAR"},{"input":4,"output":5,"interpolation":"LINEAR"},{"input":6,"output":7,"interpolation":"LINEAR"}]},{"name":"c_gear","channels":[{"sampler":0,"target":{"node":25,"path":"rotation"}},{"sampler":1,"target":{"node":28,"path":"translation"}}],"samplers":[{"input":8,"output":9,"interpolation":"LINEAR"},{"input":10,"output":11,"interpolation":"LINEAR"}]},{"name":"custom_anim_C_WHEEL_LR","channels":[{"sampler":0,"target":{"node":30,"path":"rotation"}}],"samplers":[{"input":12,"output":13,"interpolation":"LINEAR"}]},{"name":"l_gear","channels":[{"sampler":0,"target":{"node":34,"path":"rotation"}},{"sampler":1,"target":{"node":36,"path":"translation"}}],"samplers":[{"input":14,"output":15,"interpolation":"LINEAR"},{"input":16,"output":17,"interpolation":"LINEAR"}]},{"name":"r_gear","channels":[{"sampler":0,"target":{"node":38,"path":"rotation"}},{"sampler":1,"target":{"node":40,"path":"translation"}}],"samplers":[{"input":18,"output":19,"interpolation":"LINEAR"},{"input":20,"output":21,"interpolation":"LINEAR"}]}],"asset":{"generator":"ModelConverterX 1.8.250711-devrel","version":"2.0","extensions":{"ASOBO_asset_optimized":{"BoundingBoxMax":[17.0462703704834,8.060029983520508,22.370359420776368],"BoundingBoxMin":[-17.0462703704834,-0.7684199810028076,-24.143110275268556],"MajorVersion":4,"MinorVersion":4,"UseCheckerboardMaterialForMissingTextures":true,"UseOnlyFilenameForImageURI":true}}},"bufferViews":[{"buffer":0,"byteLength":136,"byteStride":4},{"buffer":0,"byteLength":168,"byteStride":12,"byteOffset":136},{"buffer":0,"byteLength":320,"byteStride":16,"byteOffset":304},{"buffer":0,"byteLength":7776,"byteStride":36,"byteOffset":624,"target":34962,"name":"BufferViewVertexND"},{"buffer":0,"byteLength":768,"byteOffset":8400,"target":34963,"name":"BufferViewIndex"}],"extensionsRequired":["MSFT_texture_dds"],"materials":[{"name":"material00","occlusionTexture":{"index":1},"emissiveTexture":{"index":2},"pbrMetallicRoughness":{"baseColorTexture":{"index":0},"metallicRoughnessTexture":{"index":1}},"extensions":{"ASOBO_material_day_night_switch":{}}},{"name":"material01","doubleSided":true,"occlusionTexture":{"index":1},"pbrMetallicRoughness":{"baseColorTexture":{"index":0},"metallicRoughnessTexture":{"index":1}}}],"meshes":[{"primitives":[{"attributes":{"COLOR_0":27,"NORMAL":24,"POSITION":22,"TANGENT":23,"TEXCOORD_0":25,"TEXCOORD_1":26},"indices":28,"material":0,"mode":4,"extras":{"ASOBO_primitive":{"PrimitiveCount":104,"VertexType":"VTX","VertexVersion":2}}}],"name":"part000"},{"primitives":[{"attributes":{"COLOR_0":34,"NORMAL":31,"POSITION":29,"TANGENT":30,"TEXCOORD_0":32,"TEXCOORD_1":33},"indices":35,"material":1,"mode":4,"extras":{"ASOBO_primitive":{"PrimitiveCount":8,"VertexType":"VTX","VertexVersion":2}}}],"name":"part001"},{"primitives":[{"attributes":{"COLOR_0":41,"NORMAL":38,"POSITION":36,"TANGENT":37,"TEXCOORD_0":39,"TEXCOORD_1":40},"indices":42,"material":1,"mode":4,"extras":{"ASOBO_primitive":{"PrimitiveCount":8,"VertexType":"VTX","VertexVersion":2}}}],"name":"part002"},{"primitives":[{"attributes":{"COLOR_0":48,"NORMAL":45,"POSITION":43,"TANGENT":44,"TEXCOORD_0":46,"TEXCOORD_1":47},"indices":49,"material":1,"mode":4,"extras":{"ASOBO_primitive":{"PrimitiveCount":8,"VertexType":"VTX","VertexVersion":2}}}],"name":"part003"}],"nodes":[{"name":"node_0","children":[1,2,3,4,5,6,7,8,9,10,11,12,13]},{"mesh":0,"name":"cabin_lights_VC"},{"name":"node_3"},{"translation":[-2.1308853837998266e-15,-1.899999976158142,17.399999618530275],"rotation":[-6.123233995736766e-17,0.0,1.0,0.0],"scale":[1.0,1.0,1.0],"name":"c_tire1"},{"translation":[1.9400000572204584,-0.05000000074505806,4.599999904632568],"rotation":[-0.7064336479759967,0.030843644469385514,0.030843644469385514,0.7064337687255942],"scale":[1.0,1.0,0.9999996587936272],"name":"landing_l1"},{"translation":[-1.9400000572204597,-0.05000000074505806,4.599999904632568],"rotation":[-0.7064336479759967,-0.030843644469385604,-0.030843644469385604,0.7064337687255942],"scale":[1.0,1.0,0.9999996587936272],"name":"landing_r1"},{"translation":[15.699999809265139,0.5,-7.599999904632567],"rotation":[0.34606456647413827,0.5108716247181541,0.7076558974136692,-0.34419817912453395],"scale":[1.0,0.999999223729922,1.0000000462648285],"name":"logo_l"},{"translation":[-15.699999809265137,0.5,-7.59999990463257],"rotation":[-0.34606456647413838,0.510871624718154,0.7076558974136692,0.344198179124534],"scale":[1.0,0.999999223729922,1.0000000462648285],"name":"logo_r"},{"translation":[2.8699998855590826,-2.200000047683716,-1.9999999999999996],"rotation":[-6.123233995736766e-17,0.0,1.0,0.0],"scale":[1.0,1.0,1.0],"name":"l_tire1"},{"translation":[-2.8699998855590818,-2.200000047683716,-2.0000000000000006],"rotation":[-6.123233995736766e-17,0.0,1.0,0.0],"scale":[1.0,1.0,1.0],"name":"r_tire1"},{"translation":[2.59999990463257,1.7200000286102296,-14.100000381469729],"rotation":[-6.123233995736766e-17,0.0,1.0,0.0],"scale":[1.0,1.0,1.0],"name":"contrail1"},{"translation":[-2.5999999046325668,1.7200000286102296,-14.100000381469729],"rotation":[-6.123233995736766e-17,0.0,1.0,0.0],"scale":[1.0,1.0,1.0],"name":"contrail3"},{"translation":[2.4003077730453805e-15,1.3899999856948853,-19.600000381469728],"rotation":[-6.123233995736766e-17,0.0,1.0,0.0],"scale":[1.0,1.0,1.0],"name":"contrail2"},{"translation":[0.0,0.0,0.0],"rotation":[-4.3297802811774667e-17,0.7071067811865475,0.7071067811865475,4.3297802811774667e-17],"scale":[1.0,1.0,1.0],"name":"node_21","children":[14,19,24,33,37]},{"translation":[-4.121770858764648,2.980894088745117,0.3496420085430145],"rotation":[0.0,0.0,0.0,1.0],"scale":[1.0,1.0,1.0],"name":"node_88","children":[15]},{"name":"AIA_727_custom_anim_SLATS_AIRLINER_AN_88","children":[16]},{"translation":[0.0,0.0,0.0],"rotation":[-0.14416741411508569,-0.03567024542711638,0.326049545423053,0.9336139878229932],"scale":[1.0000001134474428,0.999999872306324,1.0],"name":"node_91","children":[17]},{"name":"AIA_727_custom_anim_SLATS_AIRLINER_AN_91","children":[18]},{"translation":[-3.1999818237602035,-0.3396960802714761,-0.3193450821888959],"rotation":[0.6615057792052068,-0.19517336054716445,0.24734570089449446,0.6805421968361305],"scale":[0.9999999951007448,1.000000087469823,1.0],"name":"landing_l2"},{"translation":[4.456695079803467,2.6475210189819338,0.3419019877910614],"rotation":[0.0,0.0,0.0,1.0],"scale":[1.0,1.0,1.0],"name":"node_93","children":[20]},{"name":"AIA_727_custom_anim_SLATS_AIRLINER_AN_93","children":[21]},{"translation":[0.0,0.0,0.0],"rotation":[-0.20753154641234257,0.054307052702300077,-0.3236758026490632,0.9215288635548296],"scale":[1.0,0.9999997987921194,1.0000005580773475],"name":"node_96","children":[22]},{"name":"AIA_727_custom_anim_SLATS_AIRLINER_AN_96","children":[23]},{"translation":[2.900706076155722,-0.3545588905945858,-0.33280889447068526],"rotation":[0.6644409187613781,0.24186976801594738,-0.241840797882284,0.6644774218648343],"scale":[1.0,1.0000000017639999,0.999999980191668],"name":"landing_r2"},{"translation":[0.0000019999999949504856,17.694129943847658,-0.45461198687553408],"rotation":[0.9908658801756284,0.0,0.0,-0.13485128323115637],"scale":[1.0000002489522638,1.0,1.0],"name":"node_142","children":[25]},{"name":"c_gear_AN_142","children":[26,31,32]},{"translation":[0.0,0.45461789376650277,17.694125538855056],"rotation":[0.0,0.0,0.0,1.0],"scale":[1.0,1.0,1.0],"name":"node_143","children":[27]},{"translation":[0.00033099990596088,-1.2482806912823746,-17.786786419717584],"rotation":[0.0,0.0,0.0,1.0],"scale":[1.0,1.0,1.0],"name":"node_145","children":[28]},{"name":"c_gear_AN_145","children":[29]},{"translation":[-0.0003499999003870101,-0.3182219070717287,0.005136998488406264],"rotation":[0.0,0.0,0.0,1.0],"scale":[1.0,1.0,1.0],"name":"node_151","children":[30]},{"mesh":1,"name":"custom_anim_C_WHEEL_LR_AN_151"},{"translation":[-0.000001999999497046084,-0.8553877727556073,-0.2658689254247173],"rotation":[0.0,0.7071071347397605,0.7071064276331579,0.0],"scale":[0.9999999999995,1.0,1.0],"name":"landing_nose"},{"translation":[-0.000001999999497046084,-0.8553877727556073,-0.2658689254247173],"rotation":[0.0,0.7071071347397605,0.7071064276331579,0.0],"scale":[0.9999999999995,1.0,1.0],"name":"taxi"},{"translation":[-2.8525519371032717,-1.172659993171692,0.09623199701309204],"rotation":[0.06078377096917614,-0.6950760302243432,0.06749284623801232,0.7131756672187658],"scale":[0.9999997194363064,1.0,1.000000751816167],"name":"node_155","children":[34]},{"name":"l_gear_AN_155","children":[35]},{"translation":[0.0,-0.006983999255530171,-1.581195760623156],"rotation":[0.0,0.0,0.0,1.0],"scale":[1.0,1.0,1.0],"name":"node_164","children":[36]},{"mesh":2,"name":"l_gear_AN_164"},{"translation":[2.8525519371032717,-1.2730469703674317,0.04881500080227852],"rotation":[0.1282963768765737,0.6982932641750955,-0.12942090690832465,0.6922259464332493],"scale":[1.0,0.9999994220666372,1.000000075988999],"name":"node_165","children":[38]},{"name":"r_gear_AN_165","children":[39]},{"translation":[0.0,-0.19861000343276778,-1.54532106995115],"rotation":[0.0,0.0,0.0,1.0],"scale":[1.0,1.0,1.0],"name":"node_174","children":[40]},{"mesh":3,"name":"r_gear_AN_174"}],"scene":0,"scenes":[{"nodes":[0]}],"textures":[{"extensions":{"MSFT_texture_dds":{"source":0}}},{"extensions":{"MSFT_texture_dds":{"source":1}}},{"extensions":{"MSFT_texture_dds":{"source":2}}}],"extensionsUsed":["ASOBO_material_day_night_switch","MSFT_texture_dds","ASOBO_asset_optimized"],"buffers":[{"byteLength":9168,"uri":"AIA_727_200w_hushB_MSFS_LOD4.bin"}],"images":[{"uri":"AIA_727_200_T.PNG.DDS","extras":"ASOBO_image_converted_meta"},{"uri":"AIA_727_200_HUSH_B_C.PNG.DDS","extras":"ASOBO_image_converted_meta"},{"uri":"AIA_727_200_L.PNG.DDS","extras":"ASOBO_image_converted_meta"}]}
