{"accessors":[{"bufferView":0,"componentType":5126,"count":5,"min":[0.0],"max":[100.0],"type":"SCALAR"},{"bufferView":1,"componentType":5126,"count":5,"type":"VEC4"},{"bufferView":0,"byteOffset":20,"componentType":5126,"count":5,"min":[0.0],"max":[100.0],"type":"SCALAR"},{"bufferView":1,"byteOffset":80,"componentType":5126,"count":5,"type":"VEC4"},{"bufferView":2,"componentType":5126,"count":108,"min":[-5.483610153198242,-0.7131900191307068,-5.540150165557861],"max":[5.483610153198242,1.3972300291061402,1.9018299579620362],"type":"VEC3","name":"part000_vertices#0_POSITION"},{"bufferView":2,"byteOffset":12,"componentType":5120,"count":108,"type":"VEC4","name":"part000_vertices#0_TANGENT"},{"bufferView":2,"byteOffset":16,"componentType":5120,"count":108,"type":"VEC4","name":"part000_vertices#0_NORMAL"},{"bufferView":2,"byteOffset":20,"componentType":5122,"count":108,"type":"VEC2","name":"part000_vertices#0_TEXCOORD_0"},{"bufferView":2,"byteOffset":24,"componentType":5122,"count":108,"type":"VEC2","name":"part000_vertices#0_TEXCOORD_1"},{"bufferView":2,"byteOffset":28,"componentType":5123,"count":108,"type":"VEC4","name":"part000_vertices#0_COLOR_0"},{"bufferView":3,"componentType":5123,"count":270,"type":"SCALAR","name":"part000_indices#0"},{"bufferView":2,"byteOffset":3888,"componentType":5126,"count":6,"min":[0.06521999835968018,-0.1904900074005127,-0.22002999484539033],"max":[0.06521999835968018,0.19039000570774079,0.21977999806404115],"type":"VEC3","name":"part001_vertices#0_POSITION"},{"bufferView":2,"byteOffset":3900,"componentType":5120,"count":6,"type":"VEC4","name":"part001_vertices#0_TANGENT"},{"bufferView":2,"byteOffset":3904,"componentType":5120,"count":6,"type":"VEC4","name":"part001_vertices#0_NORMAL"},{"bufferView":2,"byteOffset":3908,"componentType":5122,"count":6,"type":"VEC2","name":"part001_vertices#0_TEXCOORD_0"},{"bufferView":2,"byteOffset":3912,"componentType":5122,"count":6,"type":"VEC2","name":"part001_vertices#0_TEXCOORD_1"},{"bufferView":2,"byteOffset":3916,"componentType":5123,"count":6,"type":"VEC4","name":"part001_vertices#0_COLOR_0"},{"bufferView":3,"byteOffset":540,"componentType":5123,"count":12,"type":"SCALAR","name":"part001_indices#0"},{"bufferView":2,"byteOffset":4104,"componentType":5126,"count":6,"min":[-0.06521999835968018,-0.1905200034379959,-0.21991999447345735],"max":[-0.06521999835968018,0.19036999344825746,0.21988999843597413],"type":"VEC3","name":"part002_vertices#0_POSITION"},{"bufferView":2,"byteOffset":4116,"componentType":5120,"count":6,"type":"VEC4","name":"part002_vertices#0_TANGENT"},{"bufferView":2,"byteOffset":4120,"componentType":5120,"count":6,"type":"VEC4","name":"part002_vertices#0_NORMAL"},{"bufferView":2,"byteOffset":4124,"componentType":5122,"count":6,"type":"VEC2","name":"part002_vertices#0_TEXCOORD_0"},{"bufferView":2,"byteOffset":4128,"componentType":5122,"count":6,"type":"VEC2","name":"part002_vertices#0_TEXCOORD_1"},{"bufferView":2,"byteOffset":4132,"componentType":5123,"count":6,"type":"VEC4","name":"part002_vertices#0_COLOR_0"},{"bufferView":3,"byteOffset":564,"componentType":5123,"count":12,"type":"SCALAR","name":"part002_indices#0"}],"animations":[{"name":"r_tire_blurred_key","channels":[{"sampler":0,"target":{"node":11,"path":"rotation"}}],"samplers":[{"input":0,"output":1,"interpolation":"LINEAR"}]},{"name":"l_tire_blurred_key","channels":[{"sampler":0,"target":{"node":14,"path":"rotation"}}],"samplers":[{"input":2,"output":3,"interpolation":"LINEAR"}]}],"asset":{"generator":"ModelConverterX","version":"2.0","extensions":{"ASOBO_asset_optimized":{"BoundingBoxMax":[5.483610153198242,1.3972300291061402,1.9018299579620362],"BoundingBoxMin":[-5.483610153198242,-0.7131900191307068,-5.540150165557861],"MajorVersion":4,"MinorVersion":4,"UseCheckerboardMaterialForMissingTextures":true,"UseOnlyFilenameForImageURI":true}}},"bufferViews":[{"buffer":0,"byteLength":40,"byteStride":4},{"buffer":0,"byteLength":160,"byteStride":16,"byteOffset":40},{"buffer":0,"byteLength":4320,"byteStride":36,"byteOffset":200,"target":34962,"name":"BufferViewVertexND"},{"buffer":0,"byteLength":588,"byteOffset":4520,"target":34963,"name":"BufferViewIndex"}],"extensionsRequired":["MSFT_texture_dds"],"materials":[{"name":"material00","emissiveFactor":[0.019607843831181527,0.019607843831181527,0.019607843831181527],"pbrMetallicRoughness":{"metallicFactor":0.0,"baseColorTexture":{"index":0}}}],"meshes":[{"primitives":[{"attributes":{"COLOR_0":9,"NORMAL":6,"POSITION":4,"TANGENT":5,"TEXCOORD_0":7,"TEXCOORD_1":8},"indices":10,"material":0,"mode":4,"extras":{"ASOBO_primitive":{"PrimitiveCount":90,"VertexType":"VTX","VertexVersion":2}}}],"name":"part000"},{"primitives":[{"attributes":{"COLOR_0":16,"NORMAL":13,"POSITION":11,"TANGENT":12,"TEXCOORD_0":14,"TEXCOORD_1":15},"indices":17,"material":0,"mode":4,"extras":{"ASOBO_primitive":{"PrimitiveCount":4,"VertexType":"VTX","VertexVersion":2}}}],"name":"part001"},{"primitives":[{"attributes":{"COLOR_0":23,"NORMAL":20,"POSITION":18,"TANGENT":19,"TEXCOORD_0":21,"TEXCOORD_1":22},"indices":24,"material":0,"mode":4,"extras":{"ASOBO_primitive":{"PrimitiveCount":4,"VertexType":"VTX","VertexVersion":2}}}],"name":"part002"}],"nodes":[{"name":"node_0","children":[1,2,3,4,5,6,7,8]},{"mesh":0,"name":"node_1"},{"translation":[6.735334946023075e-16,0.0,-5.5],"rotation":[-6.123031769111886e-17,3.061515884555943e-17,1.0,1.874575902277672e-33],"scale":[1.0,1.0,1.0],"name":"contrail1"},{"translation":[3.3299999237060549,0.7099999785423279,0.40000000596046489],"rotation":[-0.6087614290087207,0.0,0.0,0.7933533402912352],"scale":[1.0,1.0,1.0],"name":"Taxi_Light"},{"translation":[3.5,0.7099999785423279,0.400000005960465],"rotation":[-0.7071067811865475,0.0,0.0,0.7071067811865475],"scale":[1.0,1.0,1.0],"name":"Landing_Light"},{"translation":[6.490413908833725e-16,-0.3499999940395355,-5.300000190734863],"rotation":[-6.123031769111886e-17,3.061515884555943e-17,1.0,1.874575902277672e-33],"scale":[1.0,1.0,1.0],"name":"c_tire1"},{"translation":[1.2200000286102296,-1.399999976158142,0.40000000596046467],"rotation":[-6.123031769111886e-17,3.061515884555943e-17,1.0,1.874575902277672e-33],"scale":[1.0,1.0,1.0],"name":"l_tire1"},{"translation":[-1.2200000286102296,-1.399999976158142,0.4000000059604643],"rotation":[-6.123031769111886e-17,3.061515884555943e-17,1.0,1.874575902277672e-33],"scale":[1.0,1.0,1.0],"name":"r_tire1"},{"translation":[0.0,0.0,0.0],"rotation":[-4.329637285359677e-17,0.7071067811865475,0.7071067811865475,4.329637285359677e-17],"scale":[1.0,1.0,1.0],"name":"node_26","children":[9,12]},{"translation":[1.219122052192688,0.5209190249443054,-1.198878049850464],"rotation":[0.0,0.0,0.0,1.0],"scale":[1.0,1.0,1.0],"name":"node_51","children":[10]},{"name":"node_52","children":[11]},{"mesh":1,"name":"r_tire_blurred_key_AN_52"},{"translation":[-1.219122052192688,0.5209460258483887,-1.1989890336990357],"rotation":[0.0,0.0,0.0,1.0],"scale":[1.0,1.0,1.0],"name":"node_59","children":[13]},{"name":"node_60","children":[14]},{"mesh":2,"name":"l_tire_blurred_key_AN_60"}],"scene":0,"scenes":[{"nodes":[0]}],"textures":[{"extensions":{"MSFT_texture_dds":{"source":0}}}],"extensionsUsed":["MSFT_texture_dds","ASOBO_asset_optimized"],"buffers":[{"byteLength":5108,"uri":"HTAI Cessna 170B MSFS_LOD5.bin"}],"images":[{"uri":"HTAI_C170B.PNG.DDS","extras":"ASOBO_image_converted_meta"}]}
