{"accessors":[{"bufferView":0,"componentType":5126,"count":5,"min":[0.0],"max":[100.0],"type":"SCALAR"},{"bufferView":1,"componentType":5126,"count":5,"type":"VEC4"},{"bufferView":0,"byteOffset":20,"componentType":5126,"count":5,"min":[0.0],"max":[100.0],"type":"SCALAR"},{"bufferView":1,"byteOffset":80,"componentType":5126,"count":5,"type":"VEC4"},{"bufferView":0,"byteOffset":40,"componentType":5126,"count":5,"min":[0.0],"max":[100.0],"type":"SCALAR"},{"bufferView":1,"byteOffset":160,"componentType":5126,"count":5,"type":"VEC4"},{"bufferView":0,"byteOffset":60,"componentType":5126,"count":5,"min":[0.0],"max":[100.0],"type":"SCALAR"},{"bufferView":1,"byteOffset":240,"componentType":5126,"count":5,"type":"VEC4"},{"bufferView":2,"componentType":5126,"count":8,"min":[-0.48611998558044436,-0.697950005531311,0.9082499742507935],"max":[0.48611998558044436,-0.5638399720191956,1.0073000192642213],"type":"VEC3","name":"part000_vertices#0_POSITION"},{"bufferView":2,"byteOffset":12,"componentType":5120,"count":8,"type":"VEC4","name":"part000_vertices#0_TANGENT"},{"bufferView":2,"byteOffset":16,"componentType":5120,"count":8,"type":"VEC4","name":"part000_vertices#0_NORMAL"},{"bufferView":2,"byteOffset":20,"componentType":5122,"count":8,"type":"VEC2","name":"part000_vertices#0_TEXCOORD_0"},{"bufferView":2,"byteOffset":24,"componentType":5122,"count":8,"type":"VEC2","name":"part000_vertices#0_TEXCOORD_1"},{"bufferView":2,"byteOffset":28,"componentType":5123,"count":8,"type":"VEC4","name":"part000_vertices#0_COLOR_0"},{"bufferView":3,"componentType":5123,"count":18,"type":"SCALAR","name":"part000_indices#0"},{"bufferView":2,"byteOffset":288,"componentType":5126,"count":323,"min":[-5.483610153198242,-1.1086699962615967,-5.540150165557861],"max":[5.483610153198242,1.3972300291061402,2.2212400436401369],"type":"VEC3","name":"part001_vertices#0_POSITION"},{"bufferView":2,"byteOffset":300,"componentType":5120,"count":323,"type":"VEC4","name":"part001_vertices#0_TANGENT"},{"bufferView":2,"byteOffset":304,"componentType":5120,"count":323,"type":"VEC4","name":"part001_vertices#0_NORMAL"},{"bufferView":2,"byteOffset":308,"componentType":5122,"count":323,"type":"VEC2","name":"part001_vertices#0_TEXCOORD_0"},{"bufferView":2,"byteOffset":312,"componentType":5122,"count":323,"type":"VEC2","name":"part001_vertices#0_TEXCOORD_1"},{"bufferView":2,"byteOffset":316,"componentType":5123,"count":323,"type":"VEC4","name":"part001_vertices#0_COLOR_0"},{"bufferView":3,"byteOffset":36,"componentType":5123,"count":1014,"type":"SCALAR","name":"part001_indices#0"},{"bufferView":2,"byteOffset":11916,"componentType":5126,"count":20,"min":[-0.025019999593496324,-0.07710999995470047,-0.08094000071287155],"max":[0.025019999593496324,0.0768899992108345,0.08098000288009644],"type":"VEC3","name":"part002_vertices#0_POSITION"},{"bufferView":2,"byteOffset":11928,"componentType":5120,"count":20,"type":"VEC4","name":"part002_vertices#0_TANGENT"},{"bufferView":2,"byteOffset":11932,"componentType":5120,"count":20,"type":"VEC4","name":"part002_vertices#0_NORMAL"},{"bufferView":2,"byteOffset":11936,"componentType":5122,"count":20,"type":"VEC2","name":"part002_vertices#0_TEXCOORD_0"},{"bufferView":2,"byteOffset":11940,"componentType":5122,"count":20,"type":"VEC2","name":"part002_vertices#0_TEXCOORD_1"},{"bufferView":2,"byteOffset":11944,"componentType":5123,"count":20,"type":"VEC4","name":"part002_vertices#0_COLOR_0"},{"bufferView":3,"byteOffset":2064,"componentType":5123,"count":48,"type":"SCALAR","name":"part002_indices#0"},{"bufferView":2,"byteOffset":12636,"componentType":5126,"count":32,"min":[-0.049070000648498538,-0.01882000081241131,-0.8963599801063538],"max":[0.049070000648498538,0.01867000013589859,0.8963599801063538],"type":"VEC3","name":"part003_vertices#0_POSITION"},{"bufferView":2,"byteOffset":12648,"componentType":5120,"count":32,"type":"VEC4","name":"part003_vertices#0_TANGENT"},{"bufferView":2,"byteOffset":12652,"componentType":5120,"count":32,"type":"VEC4","name":"part003_vertices#0_NORMAL"},{"bufferView":2,"byteOffset":12656,"componentType":5122,"count":32,"type":"VEC2","name":"part003_vertices#0_TEXCOORD_0"},{"bufferView":2,"byteOffset":12660,"componentType":5122,"count":32,"type":"VEC2","name":"part003_vertices#0_TEXCOORD_1"},{"bufferView":2,"byteOffset":12664,"componentType":5123,"count":32,"type":"VEC4","name":"part003_vertices#0_COLOR_0"},{"bufferView":3,"byteOffset":2160,"componentType":5123,"count":72,"type":"SCALAR","name":"part003_indices#0"},{"bufferView":2,"byteOffset":13788,"componentType":5126,"count":20,"min":[-0.06703999638557434,-0.21223999559879304,-0.22314000129699708],"max":[0.06703999638557434,0.21209999918937684,0.22303999960422517],"type":"VEC3","name":"part004_vertices#0_POSITION"},{"bufferView":2,"byteOffset":13800,"componentType":5120,"count":20,"type":"VEC4","name":"part004_vertices#0_TANGENT"},{"bufferView":2,"byteOffset":13804,"componentType":5120,"count":20,"type":"VEC4","name":"part004_vertices#0_NORMAL"},{"bufferView":2,"byteOffset":13808,"componentType":5122,"count":20,"type":"VEC2","name":"part004_vertices#0_TEXCOORD_0"},{"bufferView":2,"byteOffset":13812,"componentType":5122,"count":20,"type":"VEC2","name":"part004_vertices#0_TEXCOORD_1"},{"bufferView":2,"byteOffset":13816,"componentType":5123,"count":20,"type":"VEC4","name":"part004_vertices#0_COLOR_0"},{"bufferView":3,"byteOffset":2304,"componentType":5123,"count":48,"type":"SCALAR","name":"part004_indices#0"},{"bufferView":2,"byteOffset":14508,"componentType":5126,"count":20,"min":[-0.06703999638557434,-0.21227000653743745,-0.2230300009250641],"max":[0.06703999638557434,0.21207000315189362,0.22314999997615815],"type":"VEC3","name":"part005_vertices#0_POSITION"},{"bufferView":2,"byteOffset":14520,"componentType":5120,"count":20,"type":"VEC4","name":"part005_vertices#0_TANGENT"},{"bufferView":2,"byteOffset":14524,"componentType":5120,"count":20,"type":"VEC4","name":"part005_vertices#0_NORMAL"},{"bufferView":2,"byteOffset":14528,"componentType":5122,"count":20,"type":"VEC2","name":"part005_vertices#0_TEXCOORD_0"},{"bufferView":2,"byteOffset":14532,"componentType":5122,"count":20,"type":"VEC2","name":"part005_vertices#0_TEXCOORD_1"},{"bufferView":2,"byteOffset":14536,"componentType":5123,"count":20,"type":"VEC4","name":"part005_vertices#0_COLOR_0"},{"bufferView":3,"byteOffset":2400,"componentType":5123,"count":48,"type":"SCALAR","name":"part005_indices#0"}],"animations":[{"name":"c_tire_blurred_key","channels":[{"sampler":0,"target":{"node":12,"path":"rotation"}}],"samplers":[{"input":0,"output":1,"interpolation":"LINEAR"}]},{"name":"engine0","channels":[{"sampler":0,"target":{"node":15,"path":"rotation"}}],"samplers":[{"input":2,"output":3,"interpolation":"LINEAR"}]},{"name":"r_tire_blurred_key","channels":[{"sampler":0,"target":{"node":18,"path":"rotation"}}],"samplers":[{"input":4,"output":5,"interpolation":"LINEAR"}]},{"name":"l_tire_blurred_key","channels":[{"sampler":0,"target":{"node":21,"path":"rotation"}}],"samplers":[{"input":6,"output":7,"interpolation":"LINEAR"}]}],"asset":{"generator":"ModelConverterX","version":"2.0","extensions":{"ASOBO_asset_optimized":{"BoundingBoxMax":[5.483610153198242,1.3972300291061402,2.2212400436401369],"BoundingBoxMin":[-5.483610153198242,-1.1086699962615967,-5.540150165557861],"MajorVersion":4,"MinorVersion":4,"UseCheckerboardMaterialForMissingTextures":true,"UseOnlyFilenameForImageURI":true}}},"bufferViews":[{"buffer":0,"byteLength":80,"byteStride":4},{"buffer":0,"byteLength":320,"byteStride":16,"byteOffset":80},{"buffer":0,"byteLength":15228,"byteStride":36,"byteOffset":400,"target":34962,"name":"BufferViewVertexND"},{"buffer":0,"byteLength":2496,"byteOffset":15628,"target":34963,"name":"BufferViewIndex"}],"extensionsRequired":["MSFT_texture_dds"],"materials":[{"name":"material00","pbrMetallicRoughness":{"baseColorFactor":[0.03921600058674812,0.03921600058674812,0.03921600058674812,1.0],"metallicFactor":0.0}},{"name":"material01","occlusionTexture":{"index":1},"emissiveFactor":[0.019607843831181527,0.019607843831181527,0.019607843831181527],"pbrMetallicRoughness":{"baseColorTexture":{"index":0},"metallicRoughnessTexture":{"index":1}}}],"meshes":[{"primitives":[{"attributes":{"COLOR_0":13,"NORMAL":10,"POSITION":8,"TANGENT":9,"TEXCOORD_0":11,"TEXCOORD_1":12},"indices":14,"material":0,"mode":4,"extras":{"ASOBO_primitive":{"PrimitiveCount":6,"VertexType":"VTX","VertexVersion":2}}}],"name":"part000"},{"primitives":[{"attributes":{"COLOR_0":20,"NORMAL":17,"POSITION":15,"TANGENT":16,"TEXCOORD_0":18,"TEXCOORD_1":19},"indices":21,"material":1,"mode":4,"extras":{"ASOBO_primitive":{"PrimitiveCount":338,"VertexType":"VTX","VertexVersion":2}}}],"name":"part001"},{"primitives":[{"attributes":{"COLOR_0":27,"NORMAL":24,"POSITION":22,"TANGENT":23,"TEXCOORD_0":25,"TEXCOORD_1":26},"indices":28,"material":1,"mode":4,"extras":{"ASOBO_primitive":{"PrimitiveCount":16,"VertexType":"VTX","VertexVersion":2}}}],"name":"part002"},{"primitives":[{"attributes":{"COLOR_0":34,"NORMAL":31,"POSITION":29,"TANGENT":30,"TEXCOORD_0":32,"TEXCOORD_1":33},"indices":35,"material":1,"mode":4,"extras":{"ASOBO_primitive":{"PrimitiveCount":24,"VertexType":"VTX","VertexVersion":2}}}],"name":"part003"},{"primitives":[{"attributes":{"COLOR_0":41,"NORMAL":38,"POSITION":36,"TANGENT":37,"TEXCOORD_0":39,"TEXCOORD_1":40},"indices":42,"material":1,"mode":4,"extras":{"ASOBO_primitive":{"PrimitiveCount":16,"VertexType":"VTX","VertexVersion":2}}}],"name":"part004"},{"primitives":[{"attributes":{"COLOR_0":48,"NORMAL":45,"POSITION":43,"TANGENT":44,"TEXCOORD_0":46,"TEXCOORD_1":47},"indices":49,"material":1,"mode":4,"extras":{"ASOBO_primitive":{"PrimitiveCount":16,"VertexType":"VTX","VertexVersion":2}}}],"name":"part005"}],"nodes":[{"name":"node_0","children":[1,2,3,4,5,6,7,8,9]},{"mesh":0,"name":"node_5"},{"mesh":1,"name":"node_6"},{"translation":[6.735334946023075e-16,0.0,-5.5],"rotation":[-6.123031769111886e-17,3.061515884555943e-17,1.0,1.874575902277672e-33],"scale":[1.0,1.0,1.0],"name":"contrail1"},{"translation":[3.3299999237060549,0.7099999785423279,0.40000000596046489],"rotation":[-0.6087614290087207,0.0,0.0,0.7933533402912352],"scale":[1.0,1.0,1.0],"name":"Taxi_Light"},{"translation":[3.5,0.7099999785423279,0.400000005960465],"rotation":[-0.7071067811865475,0.0,0.0,0.7071067811865475],"scale":[1.0,1.0,1.0],"name":"Landing_Light"},{"translation":[6.490413908833725e-16,-0.3499999940395355,-5.300000190734863],"rotation":[-6.123031769111886e-17,3.061515884555943e-17,1.0,1.874575902277672e-33],"scale":[1.0,1.0,1.0],"name":"c_tire1"},{"translation":[1.2200000286102296,-1.399999976158142,0.40000000596046467],"rotation":[-6.123031769111886e-17,3.061515884555943e-17,1.0,1.874575902277672e-33],"scale":[1.0,1.0,1.0],"name":"l_tire1"},{"translation":[-1.2200000286102296,-1.399999976158142,0.4000000059604643],"rotation":[-6.123031769111886e-17,3.061515884555943e-17,1.0,1.874575902277672e-33],"scale":[1.0,1.0,1.0],"name":"r_tire1"},{"translation":[0.0,0.0,0.0],"rotation":[-4.329637285359677e-17,0.7071067811865475,0.7071067811865475,4.329637285359677e-17],"scale":[1.0,1.0,1.0],"name":"node_26","children":[10,13,16,19]},{"translation":[0.0,-5.268939971923828,-0.3130030035972595],"rotation":[0.0,0.0,0.0,1.0],"scale":[1.0,1.0,1.0],"name":"node_40","children":[11]},{"name":"node_41","children":[12]},{"mesh":2,"name":"c_tire_blurred_key_AN_41"},{"translation":[0.0,1.975342035293579,-0.0743660032749176],"rotation":[0.0,0.0,0.0,1.0],"scale":[1.0,1.0,1.0],"name":"node_46","children":[14]},{"name":"node_47","children":[15]},{"mesh":3,"name":"engine0_AN_47"},{"translation":[1.219122052192688,0.5209190249443054,-1.198878049850464],"rotation":[0.0,0.0,0.0,1.0],"scale":[1.0,1.0,1.0],"name":"node_51","children":[17]},{"name":"node_54","children":[18]},{"mesh":4,"name":"r_tire_blurred_key_AN_54"},{"translation":[-1.219122052192688,0.5209460258483887,-1.1989890336990357],"rotation":[0.0,0.0,0.0,1.0],"scale":[1.0,1.0,1.0],"name":"node_59","children":[20]},{"name":"node_62","children":[21]},{"mesh":5,"name":"l_tire_blurred_key_AN_62"}],"scene":0,"scenes":[{"nodes":[0]}],"textures":[{"extensions":{"MSFT_texture_dds":{"source":0}}},{"extensions":{"MSFT_texture_dds":{"source":1}}}],"extensionsUsed":["MSFT_texture_dds","ASOBO_asset_optimized"],"buffers":[{"byteLength":18124,"uri":"HTAI Cessna 170B MSFS_LOD3.bin"}],"images":[{"uri":"HTAI_C170B.PNG.DDS","extras":"ASOBO_image_converted_meta"},{"uri":"HTAI_C170B_C.PNG.DDS","extras":"ASOBO_image_converted_meta"}]}
