{"accessors":[{"bufferView":0,"componentType":5126,"count":32,"min":[0.0],"max":[80.0],"type":"SCALAR"},{"bufferView":1,"componentType":5126,"count":32,"type":"VEC4"},{"bufferView":2,"componentType":5126,"count":137,"min":[-21.92799949645996,-3.8320000171661379,-23.299999237060548],"max":[21.92799949645996,11.17199993133545,10.831999778747559],"type":"VEC3","name":"part000_vertices#0_POSITION"},{"bufferView":2,"byteOffset":12,"componentType":5120,"count":137,"type":"VEC4","name":"part000_vertices#0_TANGENT"},{"bufferView":2,"byteOffset":16,"componentType":5120,"count":137,"type":"VEC4","name":"part000_vertices#0_NORMAL"},{"bufferView":2,"byteOffset":20,"componentType":5122,"count":137,"type":"VEC2","name":"part000_vertices#0_TEXCOORD_0"},{"bufferView":2,"byteOffset":24,"componentType":5122,"count":137,"type":"VEC2","name":"part000_vertices#0_TEXCOORD_1"},{"bufferView":2,"byteOffset":28,"componentType":5123,"count":137,"type":"VEC4","name":"part000_vertices#0_COLOR_0"},{"bufferView":3,"componentType":5123,"count":225,"type":"SCALAR","name":"part000_indices#0"},{"bufferView":2,"byteOffset":4932,"componentType":5126,"count":48,"min":[-2.4839999675750734,-2.7839999198913576,-22.420000076293947],"max":[2.4839999675750734,2.8399999141693117,23.384000778198243],"type":"VEC3","name":"part001_vertices#0_POSITION"},{"bufferView":2,"byteOffset":4944,"componentType":5120,"count":48,"type":"VEC4","name":"part001_vertices#0_TANGENT"},{"bufferView":2,"byteOffset":4948,"componentType":5120,"count":48,"type":"VEC4","name":"part001_vertices#0_NORMAL"},{"bufferView":2,"byteOffset":4952,"componentType":5122,"count":48,"type":"VEC2","name":"part001_vertices#0_TEXCOORD_0"},{"bufferView":2,"byteOffset":4956,"componentType":5122,"count":48,"type":"VEC2","name":"part001_vertices#0_TEXCOORD_1"},{"bufferView":2,"byteOffset":4960,"componentType":5123,"count":48,"type":"VEC4","name":"part001_vertices#0_COLOR_0"},{"bufferView":3,"byteOffset":450,"componentType":5123,"count":84,"type":"SCALAR","name":"part001_indices#0"}],"animations":[{"name":"c_gear","channels":[{"sampler":0,"target":{"node":20,"path":"rotation"}}],"samplers":[{"input":0,"output":1,"interpolation":"LINEAR"}]}],"asset":{"generator":"ModelConverterX","version":"2.0","extensions":{"ASOBO_asset_optimized":{"BoundingBoxMax":[21.92799949645996,11.17199993133545,23.384000778198243],"BoundingBoxMin":[-21.92799949645996,-3.8320000171661379,-23.299999237060548],"MajorVersion":4,"MinorVersion":4,"UseCheckerboardMaterialForMissingTextures":true,"UseOnlyFilenameForImageURI":true}}},"bufferViews":[{"buffer":0,"byteLength":128,"byteStride":4},{"buffer":0,"byteLength":512,"byteStride":16,"byteOffset":128},{"buffer":0,"byteLength":6660,"byteStride":36,"byteOffset":640,"target":34962,"name":"BufferViewVertexND"},{"buffer":0,"byteLength":618,"byteOffset":7300,"target":34963,"name":"BufferViewIndex"}],"extensionsRequired":["MSFT_texture_dds"],"materials":[{"name":"material00","emissiveTexture":{"index":1},"emissiveFactor":[0.019607843831181527,0.019607843831181527,0.019607843831181527],"pbrMetallicRoughness":{"metallicFactor":0.0,"baseColorTexture":{"index":0}},"extensions":{"ASOBO_material_day_night_switch":{}}}],"meshes":[{"primitives":[{"attributes":{"COLOR_0":7,"NORMAL":4,"POSITION":2,"TANGENT":3,"TEXCOORD_0":5,"TEXCOORD_1":6},"indices":8,"material":0,"mode":4,"extras":{"ASOBO_primitive":{"PrimitiveCount":75,"VertexType":"VTX","VertexVersion":2}}}],"name":"part000"},{"primitives":[{"attributes":{"COLOR_0":14,"NORMAL":11,"POSITION":9,"TANGENT":10,"TEXCOORD_0":12,"TEXCOORD_1":13},"indices":15,"material":0,"mode":4,"extras":{"ASOBO_primitive":{"PrimitiveCount":28,"VertexType":"VTX","VertexVersion":2}}}],"name":"part001"}],"nodes":[{"name":"node_0","children":[1,2,3,4,5,6,7,8,9,10,11,12,13,14,15,16,17]},{"mesh":0,"name":"custom_vis_parts_visible_00_mcx_VC"},{"mesh":1,"name":"custom_vis_parts_visible_01_mcx_VC"},{"translation":[7.900000095367432,-2.4700000286102297,3.000000000000001],"rotation":[-6.123031769111886e-17,3.061515884555943e-17,1.0,1.874575902277672e-33],"scale":[1.0,1.0,1.0],"name":"contrail1"},{"translation":[3.5299999713897729,2.0299999713897707,-19.670000076293947],"rotation":[0.7877671833570771,0.2501054050304116,0.49531574661038477,-0.26745553342570468],"scale":[1.0,1.0,1.0],"name":"logo_l"},{"translation":[-3.5299999713897685,2.0299999713897707,-19.670000076293947],"rotation":[0.7877671833570771,-0.25010540503041159,-0.49531574661038466,-0.26745553342570468],"scale":[1.0,1.0,1.0],"name":"logo_r"},{"translation":[2.460000038146971,-1.1699999570846558,16.200000762939454],"rotation":[-0.6372078382691294,0.2872938505283058,0.2016447215048119,0.6861252222344326],"scale":[1.0,1.0,1.0],"name":"wing_taxi_l"},{"translation":[2.460000038146971,-1.1699999570846558,16.200000762939454],"rotation":[-0.6372078382691294,0.2872938505283058,0.2016447215048119,0.6861252222344326],"scale":[1.0,1.0,1.0],"name":"wing_landing_l"},{"translation":[-2.4600000381469746,-1.1699999570846558,16.200000762939454],"rotation":[-0.6372078382691294,-0.28729385052830588,-0.201644721504812,0.6861252222344326],"scale":[1.0,1.0,1.0],"name":"wing_taxi_r"},{"translation":[-2.4600000381469746,-1.1699999570846558,16.200000762939454],"rotation":[-0.6372078382691294,-0.28729385052830588,-0.201644721504812,0.6861252222344326],"scale":[1.0,1.0,1.0],"name":"wing_landing_r"},{"translation":[-3.8199999332427985,-1.5199999809265137,2.4500000476837155],"rotation":[-0.7071067811865475,0.0,0.0,0.7071067811865475],"scale":[1.0,1.0,1.0],"name":"landing_r"},{"translation":[3.8199999332427976,-1.5199999809265137,2.4500000476837164],"rotation":[-0.7071067811865475,0.0,0.0,0.7071067811865475],"scale":[1.0,1.0,1.0],"name":"landing_l"},{"translation":[-7.900000095367432,-2.4700000286102297,2.999999999999999],"rotation":[-6.123031769111886e-17,3.061515884555943e-17,1.0,1.874575902277672e-33],"scale":[1.0,1.0,1.0],"name":"contrail2"},{"translation":[-1.9593701661158038e-15,-4.46999979019165,16.0],"rotation":[-6.123031769111886e-17,3.061515884555943e-17,1.0,1.874575902277672e-33],"scale":[1.0,1.0,1.0],"name":"c_tire1"},{"translation":[4.599999904632568,-4.46999979019165,5.633189110795373e-16],"rotation":[-6.123031769111886e-17,3.061515884555943e-17,1.0,1.874575902277672e-33],"scale":[1.0,1.0,1.0],"name":"l_tire1"},{"translation":[-4.599999904632568,-4.46999979019165,-5.633189110795373e-16],"rotation":[-6.123031769111886e-17,3.061515884555943e-17,1.0,1.874575902277672e-33],"scale":[1.0,1.0,1.0],"name":"r_tire1"},{"translation":[2.7676104063535978e-15,2.200000047683716,-22.600000381469728],"rotation":[-5.0156939909144446e-17,-0.5735764363510462,0.8191520442889918,3.5120267417914378e-17],"scale":[1.0,1.0,1.0],"name":"APU"},{"translation":[0.0,0.0,0.0],"rotation":[-4.329637285359677e-17,0.7071067811865475,0.7071067811865475,4.329637285359677e-17],"scale":[1.0,1.0,1.0],"name":"node_35","children":[18]},{"translation":[9.99999997475243e-7,20.41657066345215,-2.7678990364074709],"rotation":[0.0,0.0,0.0,1.0],"scale":[1.0,1.0,1.0],"name":"node_36","children":[19]},{"translation":[-0.0000019999999949504856,-3.656198978424072,0.5310289859771729],"rotation":[0.0,0.0,0.0,1.0],"scale":[1.0,1.0,1.0],"name":"node_37","children":[20]},{"name":"c_gear_AN_37","children":[21,23,25,27]},{"translation":[0.41312700510025027,-0.22000199556350709,0.3396320044994354],"rotation":[-0.7018340785738485,0.7061402030257714,0.08617092779524237,0.037007144968844617],"scale":[1.0,1.0,1.0],"name":"node_63","children":[22]},{"translation":[0.0,0.0,0.0],"rotation":[0.7071067811865475,0.0,0.0,0.7071067811865475],"scale":[1.0,1.0,1.0],"name":"taxi_nose_r"},{"translation":[0.413129985332489,0.21999800205230714,0.33963000774383547],"rotation":[-0.707104306304029,0.707109256051565,-0.0000035355214422265717,2.1212980280370907e-17],"scale":[1.0,1.0,1.0],"name":"node_65","children":[24]},{"translation":[0.0,0.0,0.0],"rotation":[0.7071067811865475,0.0,0.0,0.7071067811865475],"scale":[1.0,1.0,1.0],"name":"landing_nose_l"},{"translation":[0.41312700510025027,-0.22000199556350709,0.3396320044994354],"rotation":[-0.707104306304029,0.707109256051565,-0.0000035355214422265717,2.1212980280370907e-17],"scale":[1.0,1.0,1.0],"name":"node_67","children":[26]},{"translation":[0.0,0.0,0.0],"rotation":[0.7071067811865475,0.0,0.0,0.7071067811865475],"scale":[1.0,1.0,1.0],"name":"landing_nose_r"},{"translation":[0.413129985332489,0.21999800205230714,0.33963000774383547],"rotation":[0.7061349697873502,-0.7018387132712897,0.03701026897144898,0.08617442284155608],"scale":[1.0,1.0,1.0],"name":"node_69","children":[28]},{"translation":[0.0,0.0,0.0],"rotation":[0.7071067811865475,0.0,0.0,0.7071067811865475],"scale":[1.0,1.0,1.0],"name":"taxi_nose_l"}],"scene":0,"scenes":[{"nodes":[0]}],"textures":[{"extensions":{"MSFT_texture_dds":{"source":0}}},{"extensions":{"MSFT_texture_dds":{"source":1}}}],"extensionsUsed":["ASOBO_material_day_night_switch","MSFT_texture_dds","ASOBO_asset_optimized"],"buffers":[{"byteLength":7918,"uri":"TFS_Airbus_A310-300_GE_MSFS_LOD5.bin"}],"images":[{"uri":"TFS_A310_GE_T.PNG.DDS","extras":"ASOBO_image_converted_meta"},{"uri":"TFS_A310_GE_L.PNG.DDS","extras":"ASOBO_image_converted_meta"}]}
