{"accessors":[{"bufferView":0,"componentType":5126,"count":88,"min":[-10.67199993133545,-4.104000091552734,-31.34000015258789],"max":[10.67199993133545,4.047999858856201,31.88800048828125],"type":"VEC3","name":"part000_vertices#0_POSITION"},{"bufferView":0,"byteOffset":12,"componentType":5120,"count":88,"type":"VEC4","name":"part000_vertices#0_TANGENT"},{"bufferView":0,"byteOffset":16,"componentType":5120,"count":88,"type":"VEC4","name":"part000_vertices#0_NORMAL"},{"bufferView":0,"byteOffset":20,"componentType":5122,"count":88,"type":"VEC2","name":"part000_vertices#0_TEXCOORD_0"},{"bufferView":0,"byteOffset":24,"componentType":5122,"count":88,"type":"VEC2","name":"part000_vertices#0_TEXCOORD_1"},{"bufferView":0,"byteOffset":28,"componentType":5123,"count":88,"type":"VEC4","name":"part000_vertices#0_COLOR_0"},{"bufferView":1,"componentType":5123,"count":162,"type":"SCALAR","name":"part000_indices#0"},{"bufferView":0,"byteOffset":3168,"componentType":5126,"count":54,"min":[-30.091999053955079,-1.2079999446868897,-32.071998596191409],"max":[30.091999053955079,13.36400032043457,10.420000076293946],"type":"VEC3","name":"part001_vertices#0_POSITION"},{"bufferView":0,"byteOffset":3180,"componentType":5120,"count":54,"type":"VEC4","name":"part001_vertices#0_TANGENT"},{"bufferView":0,"byteOffset":3184,"componentType":5120,"count":54,"type":"VEC4","name":"part001_vertices#0_NORMAL"},{"bufferView":0,"byteOffset":3188,"componentType":5122,"count":54,"type":"VEC2","name":"part001_vertices#0_TEXCOORD_0"},{"bufferView":0,"byteOffset":3192,"componentType":5122,"count":54,"type":"VEC2","name":"part001_vertices#0_TEXCOORD_1"},{"bufferView":0,"byteOffset":3196,"componentType":5123,"count":54,"type":"VEC4","name":"part001_vertices#0_COLOR_0"},{"bufferView":1,"byteOffset":324,"componentType":5123,"count":102,"type":"SCALAR","name":"part001_indices#0"},{"bufferView":0,"byteOffset":5112,"componentType":5126,"count":48,"min":[-11.251999855041504,-3.6640000343322756,6.21999979019165],"max":[11.239999771118164,-0.47600001096725466,11.763999938964844],"type":"VEC3","name":"part002_vertices#0_POSITION"},{"bufferView":0,"byteOffset":5124,"componentType":5120,"count":48,"type":"VEC4","name":"part002_vertices#0_TANGENT"},{"bufferView":0,"byteOffset":5128,"componentType":5120,"count":48,"type":"VEC4","name":"part002_vertices#0_NORMAL"},{"bufferView":0,"byteOffset":5132,"componentType":5122,"count":48,"type":"VEC2","name":"part002_vertices#0_TEXCOORD_0"},{"bufferView":0,"byteOffset":5136,"componentType":5122,"count":48,"type":"VEC2","name":"part002_vertices#0_TEXCOORD_1"},{"bufferView":0,"byteOffset":5140,"componentType":5123,"count":48,"type":"VEC4","name":"part002_vertices#0_COLOR_0"},{"bufferView":1,"byteOffset":528,"componentType":5123,"count":72,"type":"SCALAR","name":"part002_indices#0"}],"asset":{"generator":"ModelConverterX","version":"2.0","extensions":{"ASOBO_asset_optimized":{"BoundingBoxMax":[30.091999053955079,13.36400032043457,31.88800048828125],"BoundingBoxMin":[-30.091999053955079,-4.104000091552734,-32.071998596191409],"MajorVersion":4,"MinorVersion":4,"UseCheckerboardMaterialForMissingTextures":true,"UseOnlyFilenameForImageURI":true}}},"bufferViews":[{"buffer":0,"byteLength":6840,"byteStride":36,"target":34962,"name":"BufferViewVertexND"},{"buffer":0,"byteLength":672,"byteOffset":6840,"target":34963,"name":"BufferViewIndex"}],"extensionsRequired":["MSFT_texture_dds"],"materials":[{"name":"material00","emissiveTexture":{"index":1},"emissiveFactor":[0.019607843831181527,0.019607843831181527,0.019607843831181527],"pbrMetallicRoughness":{"metallicFactor":0.0,"baseColorTexture":{"index":0}},"extensions":{"ASOBO_material_day_night_switch":{}}}],"meshes":[{"primitives":[{"attributes":{"COLOR_0":5,"NORMAL":2,"POSITION":0,"TANGENT":1,"TEXCOORD_0":3,"TEXCOORD_1":4},"indices":6,"material":0,"mode":4,"extras":{"ASOBO_primitive":{"PrimitiveCount":54,"VertexType":"VTX","VertexVersion":2}}}],"name":"part000"},{"primitives":[{"attributes":{"COLOR_0":12,"NORMAL":9,"POSITION":7,"TANGENT":8,"TEXCOORD_0":10,"TEXCOORD_1":11},"indices":13,"material":0,"mode":4,"extras":{"ASOBO_primitive":{"PrimitiveCount":34,"VertexType":"VTX","VertexVersion":2}}}],"name":"part001"},{"primitives":[{"attributes":{"COLOR_0":19,"NORMAL":16,"POSITION":14,"TANGENT":15,"TEXCOORD_0":17,"TEXCOORD_1":18},"indices":20,"material":0,"mode":4,"extras":{"ASOBO_primitive":{"PrimitiveCount":24,"VertexType":"VTX","VertexVersion":2}}}],"name":"part002"}],"nodes":[{"name":"node_0","children":[1,2,3,4,5,6,7,8,9,10,11,12,13,14,15,16,17,18,19,20,21,22,23,24,25,26,27,28]},{"mesh":0,"name":"custom_vis_parts_visible_00_mcx_VC"},{"mesh":1,"name":"custom_vis_parts_visible_01_mcx_VC"},{"mesh":2,"name":"custom_vis_GEAR_ANIMATION_POSITION_2_02_mcx_VC"},{"translation":[-5.480000019073486,-4.900000095367432,-2.4000000953674327],"rotation":[-6.123031769111886e-17,3.061515884555943e-17,1.0,1.874575902277672e-33],"scale":[1.0,1.0,1.0],"name":"r_tire1"},{"translation":[5.480000019073486,-4.900000095367432,-2.4000000953674309],"rotation":[-6.123031769111886e-17,3.061515884555943e-17,1.0,1.874575902277672e-33],"scale":[1.0,1.0,1.0],"name":"l_tire1"},{"translation":[-3.122746202247062e-15,-4.699999809265137,25.5],"rotation":[-6.123031769111886e-17,3.061515884555943e-17,1.0,1.874575902277672e-33],"scale":[1.0,1.0,1.0],"name":"c_tire1"},{"translation":[-9.739999771118164,-2.0799999237060549,2.9999999999999988],"rotation":[-6.123031769111886e-17,3.061515884555943e-17,1.0,1.874575902277672e-33],"scale":[1.0,1.0,1.0],"name":"contrail2"},{"translation":[5.25960206985474,2.1664578914642336,-25.97808074951172],"rotation":[0.6632781490107336,-0.29886681889128277,0.6037483250929309,0.3259274176226677],"scale":[1.0,1.0,1.0],"name":"LIGHT_Logolight_l"},{"translation":[-5.260715961456295,2.1666460037231447,-25.978010177612306],"rotation":[0.6632781490107337,0.29886681889128277,-0.6037483250929309,0.3259274176226678],"scale":[1.0,1.0,1.0],"name":"LIGHT_Logolight_r"},{"translation":[30.81148910522461,2.6622800827026369,-9.64865207672119],"rotation":[0.9399013414532,0.00008986261389064847,-0.3414460422900775,0.00024589353084393257],"scale":[1.0,1.0,1.0],"name":"LIGHT_Strobe_Left"},{"translation":[30.835960388183595,2.64278507232666,-11.430049896240233],"rotation":[0.0011344636624592198,-0.00043633201837165326,0.9999992613028889,-4.950031852675522e-7],"scale":[1.0,1.0,1.0],"name":"LIGHT_Navwhi_left"},{"translation":[30.55236053466797,2.661297082901001,-9.186735153198239],"rotation":[0.9240130016462727,0.00013403187235069697,-0.38236089096779016,0.00032230795857372444],"scale":[1.0,1.0,1.0],"name":"LIGHT_Nav_Red"},{"translation":[-30.81208038330078,2.6628971099853517,-9.6486291885376],"rotation":[0.9399013414531998,-0.0000898626138906485,0.34144604229007766,0.00024589353084393257],"scale":[1.0,1.0,1.0],"name":"LIGHT_Strobe_Right"},{"translation":[-30.83736991882324,2.643225908279419,-11.430459976196293],"rotation":[-0.0017453281997554418,-0.0004363322393418464,0.9999983817204906,2.284630471515612e-7],"scale":[1.0,1.0,1.0],"name":"LIGHT_Navwhi_right"},{"translation":[-30.55236053466797,2.661346912384033,-9.18732070922852],"rotation":[0.9239462530083062,-0.00013397561695873553,0.3825221558353819,0.000322331346639326],"scale":[1.0,1.0,1.0],"name":"LIGHT_Nav_Green"},{"translation":[-3.631625890731813,-0.42018800973892209,10.014490127563477],"rotation":[1.0,3.749151804555344e-33,1.224606353822377e-16,-3.061515884555943e-17],"scale":[1.0,1.0,1.0],"name":"LIGHT_Landing_Right"},{"translation":[-2.4282572816881185e-15,4.051814079284668,19.828880310058595],"rotation":[0.7071067811865475,0.0,8.659274570719354e-17,0.7071067811865475],"scale":[1.0,1.0,1.0],"name":"LIGHT_Beacon_Top"},{"translation":[-3.393679274890559e-16,-2.651186943054199,2.7712409496307375],"rotation":[-0.7071067811865475,0.0,0.0,0.7071067811865475],"scale":[1.0,1.0,1.0],"name":"LIGHT_Beacon_belly"},{"translation":[3.63162589073181,-0.42018800973892209,10.014479637145996],"rotation":[1.0,3.749151804555344e-33,1.224606353822377e-16,-3.061515884555943e-17],"scale":[1.0,1.0,1.0],"name":"LIGHT_Landing_Left"},{"translation":[0.2601160109043089,-2.200985908508301,26.161710739135747],"rotation":[1.0,3.749151804555344e-33,1.224606353822377e-16,-3.061515884555943e-17],"scale":[1.0,1.0,1.0],"name":"LIGHT_landing_nose_left"},{"translation":[-0.26011601090431538,-2.200985908508301,26.161710739135747],"rotation":[1.0,3.749151804555344e-33,1.224606353822377e-16,-3.061515884555943e-17],"scale":[1.0,1.0,1.0],"name":"LIGHT_landing_nose_right"},{"translation":[-0.00003600000126949547,1.4449950456619266,-31.482099533081056],"rotation":[-3.061515884555943e-17,-1.224606353822377e-16,-3.749151804555344e-33,1.0],"scale":[1.0,1.0,1.0],"name":"LIGHT_Navwhi_tail"},{"translation":[-0.000009999999743523432,2.575161933898926,-31.482099533081056],"rotation":[-3.061515884555943e-17,-1.224606353822377e-16,-3.749151804555344e-33,1.0],"scale":[1.0,1.0,1.0],"name":"LIGHT_strobe_tail"},{"translation":[0.3101390004157988,-2.4410929679870607,26.11169052124023],"rotation":[1.0,3.749151804555344e-33,1.224606353822377e-16,-3.061515884555943e-17],"scale":[1.0,1.0,1.0],"name":"LIGHT_Taxi_nose_left"},{"translation":[-0.3101390004158052,-2.4410929679870607,26.11169052124023],"rotation":[1.0,3.749151804555344e-33,1.224606353822377e-16,-3.061515884555943e-17],"scale":[1.0,1.0,1.0],"name":"LIGHT_Taxi_nose_right"},{"translation":[3.63162589073181,-0.42018800973892209,10.014479637145996],"rotation":[1.0,3.749151804555344e-33,1.224606353822377e-16,-3.061515884555943e-17],"scale":[1.0,1.0,1.0],"name":"LIGHT_Landing_turnoff_left"},{"translation":[-3.631625890731813,-0.42018800973892209,10.014479637145996],"rotation":[1.0,3.749151804555344e-33,1.224606353822377e-16,-3.061515884555943e-17],"scale":[1.0,1.0,1.0],"name":"LIGHT_Landing_turnoff_right"},{"translation":[9.739999771118164,-2.0799999237060549,3.0000000000000015],"rotation":[-6.123031769111886e-17,3.061515884555943e-17,1.0,1.874575902277672e-33],"scale":[1.0,1.0,1.0],"name":"contrail1"}],"scene":0,"scenes":[{"nodes":[0]}],"textures":[{"extensions":{"MSFT_texture_dds":{"source":0}}},{"extensions":{"MSFT_texture_dds":{"source":1}}}],"extensionsUsed":["ASOBO_material_day_night_switch","MSFT_texture_dds","ASOBO_asset_optimized"],"buffers":[{"byteLength":7512,"uri":"TFS_B772GE_LOD8.bin"}],"images":[{"uri":"TFS_B772GE_T.PNG.DDS","extras":"ASOBO_image_converted_meta"},{"uri":"TFS_B772GE_L.PNG.DDS","extras":"ASOBO_image_converted_meta"}]}
