{"accessors":[{"bufferView":0,"componentType":5126,"count":3,"min":[0.0],"max":[100.0],"type":"SCALAR"},{"bufferView":1,"componentType":5126,"count":3,"type":"VEC4"},{"bufferView":0,"byteOffset":12,"componentType":5126,"count":3,"min":[0.0],"max":[100.0],"type":"SCALAR"},{"bufferView":1,"byteOffset":48,"componentType":5126,"count":3,"type":"VEC4"},{"bufferView":0,"byteOffset":24,"componentType":5126,"count":3,"min":[0.0],"max":[100.0],"type":"SCALAR"},{"bufferView":1,"byteOffset":96,"componentType":5126,"count":3,"type":"VEC4"},{"bufferView":0,"byteOffset":36,"componentType":5126,"count":3,"min":[0.0],"max":[100.0],"type":"SCALAR"},{"bufferView":1,"byteOffset":144,"componentType":5126,"count":3,"type":"VEC4"},{"bufferView":0,"byteOffset":48,"componentType":5126,"count":4,"min":[0.0],"max":[200.0],"type":"SCALAR"},{"bufferView":1,"byteOffset":192,"componentType":5126,"count":4,"type":"VEC4"},{"bufferView":0,"byteOffset":64,"componentType":5126,"count":3,"min":[0.0],"max":[100.0],"type":"SCALAR"},{"bufferView":1,"byteOffset":256,"componentType":5126,"count":3,"type":"VEC4"},{"bufferView":0,"byteOffset":76,"componentType":5126,"count":3,"min":[0.0],"max":[100.0],"type":"SCALAR"},{"bufferView":1,"byteOffset":304,"componentType":5126,"count":3,"type":"VEC4"},{"bufferView":0,"byteOffset":88,"componentType":5126,"count":3,"min":[0.0],"max":[100.0],"type":"SCALAR"},{"bufferView":1,"byteOffset":352,"componentType":5126,"count":3,"type":"VEC4"},{"bufferView":0,"byteOffset":100,"componentType":5126,"count":3,"min":[0.0],"max":[100.0],"type":"SCALAR"},{"bufferView":1,"byteOffset":400,"componentType":5126,"count":3,"type":"VEC4"},{"bufferView":0,"byteOffset":112,"componentType":5126,"count":3,"min":[0.0],"max":[100.0],"type":"SCALAR"},{"bufferView":1,"byteOffset":448,"componentType":5126,"count":3,"type":"VEC4"},{"bufferView":0,"byteOffset":124,"componentType":5126,"count":2,"min":[0.0],"max":[100.0],"type":"SCALAR"},{"bufferView":1,"byteOffset":496,"componentType":5126,"count":2,"type":"VEC4"},{"bufferView":0,"byteOffset":132,"componentType":5126,"count":3,"min":[0.0],"max":[100.0],"type":"SCALAR"},{"bufferView":1,"byteOffset":528,"componentType":5126,"count":3,"type":"VEC4"},{"bufferView":0,"byteOffset":144,"componentType":5126,"count":2,"min":[0.0],"max":[100.0],"type":"SCALAR"},{"bufferView":1,"byteOffset":576,"componentType":5126,"count":2,"type":"VEC4"},{"bufferView":0,"byteOffset":152,"componentType":5126,"count":2,"min":[0.0],"max":[100.0],"type":"SCALAR"},{"bufferView":1,"byteOffset":608,"componentType":5126,"count":2,"type":"VEC4"},{"bufferView":0,"byteOffset":160,"componentType":5126,"count":2,"min":[0.0],"max":[100.0],"type":"SCALAR"},{"bufferView":1,"byteOffset":640,"componentType":5126,"count":2,"type":"VEC4"},{"bufferView":0,"byteOffset":168,"componentType":5126,"count":3,"min":[0.0],"max":[100.0],"type":"SCALAR"},{"bufferView":1,"byteOffset":672,"componentType":5126,"count":3,"type":"VEC4"},{"bufferView":0,"byteOffset":180,"componentType":5126,"count":2,"min":[0.0],"max":[100.0],"type":"SCALAR"},{"bufferView":1,"byteOffset":720,"componentType":5126,"count":2,"type":"VEC4"},{"bufferView":0,"byteOffset":188,"componentType":5126,"count":3,"min":[0.0],"max":[100.0],"type":"SCALAR"},{"bufferView":1,"byteOffset":752,"componentType":5126,"count":3,"type":"VEC4"},{"bufferView":0,"byteOffset":200,"componentType":5126,"count":2,"min":[0.0],"max":[100.0],"type":"SCALAR"},{"bufferView":1,"byteOffset":800,"componentType":5126,"count":2,"type":"VEC4"},{"bufferView":0,"byteOffset":208,"componentType":5126,"count":2,"min":[0.0],"max":[100.0],"type":"SCALAR"},{"bufferView":1,"byteOffset":832,"componentType":5126,"count":2,"type":"VEC4"},{"bufferView":0,"byteOffset":216,"componentType":5126,"count":2,"min":[0.0],"max":[100.0],"type":"SCALAR"},{"bufferView":1,"byteOffset":864,"componentType":5126,"count":2,"type":"VEC4"},{"bufferView":0,"byteOffset":224,"componentType":5126,"count":3,"min":[0.0],"max":[100.0],"type":"SCALAR"},{"bufferView":1,"byteOffset":896,"componentType":5126,"count":3,"type":"VEC4"},{"bufferView":0,"byteOffset":236,"componentType":5126,"count":2,"min":[0.0],"max":[100.0],"type":"SCALAR"},{"bufferView":1,"byteOffset":944,"componentType":5126,"count":2,"type":"VEC4"},{"bufferView":0,"byteOffset":244,"componentType":5126,"count":3,"min":[0.0],"max":[100.0],"type":"SCALAR"},{"bufferView":1,"byteOffset":976,"componentType":5126,"count":3,"type":"VEC4"},{"bufferView":0,"byteOffset":256,"componentType":5126,"count":2,"min":[0.0],"max":[100.0],"type":"SCALAR"},{"bufferView":1,"byteOffset":1024,"componentType":5126,"count":2,"type":"VEC4"},{"bufferView":0,"byteOffset":264,"componentType":5126,"count":2,"min":[0.0],"max":[100.0],"type":"SCALAR"},{"bufferView":1,"byteOffset":1056,"componentType":5126,"count":2,"type":"VEC4"},{"bufferView":0,"byteOffset":272,"componentType":5126,"count":2,"min":[0.0],"max":[100.0],"type":"SCALAR"},{"bufferView":1,"byteOffset":1088,"componentType":5126,"count":2,"type":"VEC4"},{"bufferView":2,"componentType":5126,"count":252,"min":[-29.5,-3.0336101055145265,-29.48110008239746],"max":[29.5,15.50100040435791,26.462810516357423],"type":"VEC3","name":"part000_vertices#0_POSITION"},{"bufferView":2,"byteOffset":12,"componentType":5120,"count":252,"type":"VEC4","name":"part000_vertices#0_TANGENT"},{"bufferView":2,"byteOffset":16,"componentType":5120,"count":252,"type":"VEC4","name":"part000_vertices#0_NORMAL"},{"bufferView":2,"byteOffset":20,"componentType":5122,"count":252,"type":"VEC2","name":"part000_vertices#0_TEXCOORD_0"},{"bufferView":2,"byteOffset":24,"componentType":5122,"count":252,"type":"VEC2","name":"part000_vertices#0_TEXCOORD_1"},{"bufferView":2,"byteOffset":28,"componentType":5123,"count":252,"type":"VEC4","name":"part000_vertices#0_COLOR_0"},{"bufferView":3,"componentType":5123,"count":504,"type":"SCALAR","name":"part000_indices#0"}],"animations":[{"name":"custom_anim_FUEL_TANK_LEFT_MAIN_CAPACITY_00","channels":[{"sampler":0,"target":{"node":28,"path":"rotation"}},{"sampler":1,"target":{"node":30,"path":"rotation"}},{"sampler":2,"target":{"node":42,"path":"rotation"}},{"sampler":3,"target":{"node":44,"path":"rotation"}},{"sampler":4,"target":{"node":58,"path":"rotation"}},{"sampler":5,"target":{"node":70,"path":"rotation"}},{"sampler":6,"target":{"node":82,"path":"rotation"}}],"samplers":[{"input":0,"output":1,"interpolation":"LINEAR"},{"input":2,"output":3,"interpolation":"LINEAR"},{"input":10,"output":11,"interpolation":"LINEAR"},{"input":12,"output":13,"interpolation":"LINEAR"},{"input":18,"output":19,"interpolation":"LINEAR"},{"input":30,"output":31,"interpolation":"LINEAR"},{"input":42,"output":43,"interpolation":"LINEAR"}]},{"name":"custom_anim_FUEL_TANK_LEFT_MAIN_CAPACITY_01","channels":[{"sampler":0,"target":{"node":32,"path":"rotation"}},{"sampler":1,"target":{"node":34,"path":"rotation"}},{"sampler":2,"target":{"node":50,"path":"rotation"}},{"sampler":3,"target":{"node":52,"path":"rotation"}},{"sampler":4,"target":{"node":62,"path":"rotation"}},{"sampler":5,"target":{"node":74,"path":"rotation"}},{"sampler":6,"target":{"node":86,"path":"rotation"}}],"samplers":[{"input":4,"output":5,"interpolation":"LINEAR"},{"input":6,"output":7,"interpolation":"LINEAR"},{"input":14,"output":15,"interpolation":"LINEAR"},{"input":16,"output":17,"interpolation":"LINEAR"},{"input":22,"output":23,"interpolation":"LINEAR"},{"input":34,"output":35,"interpolation":"LINEAR"},{"input":46,"output":47,"interpolation":"LINEAR"}]},{"name":"c_gear","channels":[{"sampler":0,"target":{"node":36,"path":"rotation"}}],"samplers":[{"input":8,"output":9,"interpolation":"LINEAR"}]},{"name":"elevator","channels":[{"sampler":0,"target":{"node":60,"path":"rotation"}},{"sampler":1,"target":{"node":64,"path":"rotation"}},{"sampler":2,"target":{"node":66,"path":"rotation"}},{"sampler":3,"target":{"node":68,"path":"rotation"}},{"sampler":4,"target":{"node":72,"path":"rotation"}},{"sampler":5,"target":{"node":76,"path":"rotation"}},{"sampler":6,"target":{"node":78,"path":"rotation"}},{"sampler":7,"target":{"node":80,"path":"rotation"}},{"sampler":8,"target":{"node":84,"path":"rotation"}},{"sampler":9,"target":{"node":88,"path":"rotation"}},{"sampler":10,"target":{"node":90,"path":"rotation"}},{"sampler":11,"target":{"node":92,"path":"rotation"}}],"samplers":[{"input":20,"output":21,"interpolation":"LINEAR"},{"input":24,"output":25,"interpolation":"LINEAR"},{"input":26,"output":27,"interpolation":"LINEAR"},{"input":28,"output":29,"interpolation":"LINEAR"},{"input":32,"output":33,"interpolation":"LINEAR"},{"input":36,"output":37,"interpolation":"LINEAR"},{"input":38,"output":39,"interpolation":"LINEAR"},{"input":40,"output":41,"interpolation":"LINEAR"},{"input":44,"output":45,"interpolation":"LINEAR"},{"input":48,"output":49,"interpolation":"LINEAR"},{"input":50,"output":51,"interpolation":"LINEAR"},{"input":52,"output":53,"interpolation":"LINEAR"}]}],"asset":{"generator":"ModelConverterX","version":"2.0","extensions":{"ASOBO_asset_optimized":{"BoundingBoxMax":[29.5,15.50100040435791,26.462810516357423],"BoundingBoxMin":[-29.5,-3.0336101055145265,-29.48110008239746],"MajorVersion":4,"MinorVersion":4,"UseCheckerboardMaterialForMissingTextures":true,"UseOnlyFilenameForImageURI":true}}},"bufferViews":[{"buffer":0,"byteLength":280,"byteStride":4},{"buffer":0,"byteLength":1120,"byteStride":16,"byteOffset":280},{"buffer":0,"byteLength":9072,"byteStride":36,"byteOffset":1400,"target":34962,"name":"BufferViewVertexND"},{"buffer":0,"byteLength":1008,"byteOffset":10472,"target":34963,"name":"BufferViewIndex"}],"extensionsRequired":["MSFT_texture_dds"],"materials":[{"name":"material00","pbrMetallicRoughness":{"metallicFactor":0.0,"baseColorTexture":{"index":0}}}],"meshes":[{"primitives":[{"attributes":{"COLOR_0":59,"NORMAL":56,"POSITION":54,"TANGENT":55,"TEXCOORD_0":57,"TEXCOORD_1":58},"indices":60,"material":0,"mode":4,"extras":{"ASOBO_primitive":{"PrimitiveCount":168,"VertexType":"VTX","VertexVersion":2}}}],"name":"part000"}],"nodes":[{"name":"node_0","children":[1,2,3,4,5,6,7,8,9,10,11,12,13,14,15,16,17,18,19,20,21,22,23,24,25]},{"mesh":0,"name":"node_31"},{"translation":[5.420000076293945,-4.21999979019165,-0.8999999761581414],"rotation":[-6.123031769111886e-17,0.0,1.0,0.0],"scale":[1.0,1.0,1.0],"name":"l_tire2"},{"translation":[-5.420000076293945,-4.21999979019165,-0.8999999761581428],"rotation":[-6.123031769111886e-17,0.0,1.0,0.0],"scale":[1.0,1.0,1.0],"name":"r_tire2"},{"translation":[-1.919999957084655,-4.21999979019165,-3.900000095367432],"rotation":[-6.123031769111886e-17,0.0,1.0,0.0],"scale":[1.0,1.0,1.0],"name":"r_tire1"},{"translation":[1.919999957084656,-4.21999979019165,-3.900000095367431],"rotation":[-6.123031769111886e-17,0.0,1.0,0.0],"scale":[1.0,1.0,1.0],"name":"l_tire1"},{"translation":[-2.314505962009268e-15,-4.050000190734863,18.899999618530275],"rotation":[-6.123031769111886e-17,0.0,1.0,0.0],"scale":[1.0,1.0,1.0],"name":"c_tire1"},{"translation":[-11.880000114440918,-2.119999885559082,0.8999999761581407],"rotation":[-6.123031769111886e-17,0.0,1.0,0.0],"scale":[1.0,1.0,1.0],"name":"contrail3"},{"translation":[11.880000114440918,-2.119999885559082,0.8999999761581435],"rotation":[-6.123031769111886e-17,0.0,1.0,0.0],"scale":[1.0,1.0,1.0],"name":"contrail2"},{"translation":[-21.049999237060548,-1.4500000476837159,-7.949999809265139],"rotation":[-6.123031769111886e-17,0.0,1.0,0.0],"scale":[1.0,1.0,1.0],"name":"contrail4"},{"translation":[21.049999237060548,-1.4500000476837159,-7.949999809265134],"rotation":[-6.123031769111886e-17,0.0,1.0,0.0],"scale":[1.0,1.0,1.0],"name":"contrail1"},{"translation":[-5.938610076904298,-0.1278430074453354,8.883133888244629],"rotation":[-0.06162833820646025,-0.7044160332714682,0.7044160332714682,-0.06162833820646025],"scale":[1.0,1.0,1.0],"name":"attachpt_FAIB_747SP_Landing_Dyn_4"},{"translation":[-5.41343116760254,-0.17235900461673737,9.414164543151856],"rotation":[-4.329637285359677e-17,-0.7071067811865475,0.7071067811865475,-4.329637285359677e-17],"scale":[1.0,1.0,1.0],"name":"attachpt_FAIB_747SP_Landing_Dyn_3"},{"translation":[5.413426876068114,-0.1723569929599762,9.414164543151856],"rotation":[-4.329637285359677e-17,-0.7071067811865475,0.7071067811865475,-4.329637285359677e-17],"scale":[1.0,1.0,1.0],"name":"attachpt_FAIB_747SP_Landing_Dyn_2"},{"translation":[5.938611030578612,-0.1278430074453354,8.883133888244629],"rotation":[0.06162833820646017,-0.7044160332714682,0.7044160332714682,0.06162833820646017],"scale":[1.0,1.0,1.0],"name":"attachpt_FAIB_747SP_Landing_Dyn_1"},{"translation":[5.937850952148437,-0.12784400582313538,8.874451637268067],"rotation":[-4.329637285359677e-17,-0.7071067811865475,0.7071067811865475,-4.329637285359677e-17],"scale":[1.0,1.0,1.0],"name":"attachpt_landing_1"},{"translation":[3.2000000476837147,1.7195390462875367,11.810190200805664],"rotation":[-0.26533014709324,0.6780372353934895,0.6213068161638553,0.28955710471451148],"scale":[1.0,1.0,1.0],"name":"attachpt_FAIB_747SP_L_Wing"},{"translation":[-3.200000047683717,1.7195390462875367,11.810190200805664],"rotation":[0.2653301470932399,0.6780372353934895,0.6213068161638554,-0.2895571047145114],"scale":[1.0,1.0,1.0],"name":"attachpt_FAIB_747SP_R_Wing"},{"translation":[-5.34130001068115,2.87153697013855,-21.893310546875],"rotation":[0.6859759248285687,-0.24760450919577713,-0.6285809755847466,-0.2702128352821353],"scale":[1.0,1.0,1.0],"name":"attachpt_FAIB_747SP_R_Inner_Logo"},{"translation":[5.341342926025393,2.8715391159057619,-21.893310546875],"rotation":[0.6859759248285687,0.24760450919577718,0.6285809755847467,-0.2702128352821353],"scale":[1.0,1.0,1.0],"name":"attachpt_FAIB_747SP_L_Inner_Logo"},{"translation":[-6.06547535456928e-16,-2.334768056869507,4.953000068664551],"rotation":[-0.7071067811865475,-4.329637285359677e-17,-4.329637285359677e-17,0.7071067811865475],"scale":[1.0,1.0,1.0],"name":"attachpt_FAIB_747SP_beaconb"},{"translation":[-1.810458082074629e-15,5.751200199127197,14.784000396728516],"rotation":[-0.7071067811865475,-4.329637285359677e-17,-4.329637285359677e-17,0.7071067811865475],"scale":[1.0,1.0,1.0],"name":"attachpt_FAIB_747SP_beacon"},{"translation":[3.2821997652758088e-15,2.3096799850463869,-26.802080154418947],"rotation":[-0.7071067811865475,-4.329637285359677e-17,-4.329637285359677e-17,0.7071067811865475],"scale":[1.0,1.0,1.0],"name":"attachpt_FAIB_747SP_navwhi"},{"translation":[0.0000019999999982132768,2.040055990219116,-26.643590927124025],"rotation":[0.007588532958422829,0.7128515873196013,-0.701241673394714,-0.006718786595021298],"scale":[1.0,1.0,1.0],"name":"attachpt_FAIB_747SP_strobe"},{"translation":[3.29908958259852e-15,3.0,-26.940000534057618],"rotation":[-5.164112084036296e-17,-0.5372997448503404,0.8433913588505394,-3.289903407254345e-17],"scale":[1.0,1.0,1.0],"name":"APU"},{"translation":[0.0,0.0,0.0],"rotation":[-4.329637285359677e-17,0.7071067811865475,0.7071067811865475,4.329637285359677e-17],"scale":[1.0,1.0,1.0],"name":"node_55","children":[26,35,41,49,57,61,65,67,69,73,77,79,81,85,89,91]},{"name":"node_60","children":[27,31]},{"translation":[-11.173720359802246,2.333656072616577,0.894769012928009],"rotation":[0.005955132642026581,0.01614103722295108,0.9388955697794825,-0.3437718916631418],"scale":[1.0,1.0,1.0],"name":"node_61","children":[28]},{"name":"custom_anim_FUEL_TANK_LEFT_MAIN_CAPACITY_00_AN_61","children":[29]},{"translation":[12.686025323426185,-0.0000010000001888309377,-0.000006000000230595693],"rotation":[0.004771576471060572,-0.0012650867675319908,-0.010596724750231086,0.9999316681899408],"scale":[1.0,1.0,1.0],"name":"node_62","children":[30]},{"name":"custom_anim_FUEL_TANK_LEFT_MAIN_CAPACITY_00_AN_62"},{"translation":[11.17372989654541,2.3336760997772219,0.8947679996490479],"rotation":[-0.016141038594387068,-0.005955131022254273,-0.34377138372069956,0.9388957556703893],"scale":[1.0,1.0,1.0],"name":"node_63","children":[32]},{"name":"custom_anim_FUEL_TANK_LEFT_MAIN_CAPACITY_01_AN_63","children":[33]},{"translation":[12.686026265864728,0.0000019999990690656429,0.0],"rotation":[-0.004771576483709827,-0.0012650867580052668,0.01059697474312936,0.9999316655391624],"scale":[1.0,1.0,1.0],"name":"node_64","children":[34]},{"name":"custom_anim_FUEL_TANK_LEFT_MAIN_CAPACITY_01_AN_64"},{"translation":[0.0,19.275299072265626,-1.3523390293121338],"rotation":[0.866025457881471,0.0,0.0,0.4999999063011796],"scale":[1.0,1.0,1.0],"name":"node_65","children":[36]},{"name":"c_gear_AN_65","children":[37,39]},{"translation":[-0.13162299990653993,0.15134194781533975,-0.7258237264159504],"rotation":[0.0,0.7489557777595659,0.6626199838221397,0.0],"scale":[1.0,1.0,1.0],"name":"node_72","children":[38]},{"translation":[0.0,0.0,0.0],"rotation":[-0.7071067811865475,0.0,0.0,0.7071067811865475],"scale":[1.0,1.0,1.0],"name":"attachpt_FAIB_747SP_Taxi_Dyn_1"},{"translation":[0.13162000477313996,0.15134194781533975,-0.7258237264159504],"rotation":[0.0,0.7489557777595659,0.6626199838221397,0.0],"scale":[1.0,1.0,1.0],"name":"node_74","children":[40]},{"translation":[0.0,0.0,0.0],"rotation":[-0.7071067811865475,0.0,0.0,0.7071067811865475],"scale":[1.0,1.0,1.0],"name":"attachpt_FAIB_747SP_Taxi_Dyn_2"},{"translation":[-11.173720359802246,2.33365797996521,0.8947679996490479],"rotation":[0.005955132642026581,0.01614103722295108,0.9388955697794825,-0.3437718916631418],"scale":[1.0,1.0,1.0],"name":"node_76","children":[42]},{"name":"custom_anim_FUEL_TANK_LEFT_MAIN_CAPACITY_00_AN_76","children":[43]},{"translation":[12.686025323426185,0.0,-0.000006000000230595693],"rotation":[0.004771576471060572,-0.0012650867675319908,-0.010596724750231086,0.9999316681899408],"scale":[1.0,1.0,1.0],"name":"node_77","children":[44]},{"name":"custom_anim_FUEL_TANK_LEFT_MAIN_CAPACITY_00_AN_77","children":[45,47]},{"translation":[10.697912670625716,-0.43535314056513876,-0.14734696600913764],"rotation":[0.6473193792468882,-0.2437524048586776,-0.22890813939002684,0.6849551706323841],"scale":[1.0,1.0,1.0],"name":"node_78","children":[46]},{"translation":[0.0,0.0,0.0],"rotation":[-0.7071067811865475,0.0,0.0,0.7071067811865475],"scale":[1.0,1.0,1.0],"name":"attachpt_FAIB_747SP_L_strobe"},{"translation":[10.829192644982053,-0.3603621006486225,-0.1491889576837602],"rotation":[0.6473193792468882,-0.2437524048586776,-0.22890813939002684,0.6849551706323841],"scale":[1.0,1.0,1.0],"name":"node_80","children":[48]},{"translation":[0.0,0.0,0.0],"rotation":[-0.7071067811865475,0.0,0.0,0.7071067811865475],"scale":[1.0,1.0,1.0],"name":"attachpt_FAIB_747SP_navred"},{"translation":[11.173740386962893,2.3336739540100099,0.894769012928009],"rotation":[-0.016141036080142693,-0.005955136099709603,-0.34377170988179797,0.9388956362546288],"scale":[1.0,1.0,1.0],"name":"node_82","children":[50]},{"name":"custom_anim_FUEL_TANK_LEFT_MAIN_CAPACITY_01_AN_82","children":[51]},{"translation":[12.686017027924976,0.0000020000003776618754,0.0],"rotation":[-0.004771576471060572,-0.0012650867675319908,0.010596724750231086,0.9999316681899408],"scale":[1.0,1.0,1.0],"name":"node_83","children":[52]},{"name":"custom_anim_FUEL_TANK_LEFT_MAIN_CAPACITY_01_AN_83","children":[53,55]},{"translation":[10.829245645135634,0.36037110095266436,-0.1491969596053004],"rotation":[-0.2437521564404762,0.647319475416323,0.6849552488206336,-0.22890793261155904],"scale":[1.0,1.0,1.0],"name":"node_84","children":[54]},{"translation":[0.0,0.0,0.0],"rotation":[-0.7071067811865475,0.0,0.0,0.7071067811865475],"scale":[1.0,1.0,1.0],"name":"attachpt_FAIB_747SP_navgre"},{"translation":[10.697905675168496,0.4353211328613607,-0.14735496793067785],"rotation":[-0.2437521564404762,0.647319475416323,0.6849552488206336,-0.22890793261155904],"scale":[1.0,1.0,1.0],"name":"node_86","children":[56]},{"translation":[0.0,0.0,0.0],"rotation":[-0.7071067811865475,0.0,0.0,0.7071067811865475],"scale":[1.0,1.0,1.0],"name":"attachpt_FAIB_747SP_R_strobe"},{"translation":[-11.173720359802246,2.33365797996521,0.8947679996490479],"rotation":[0.005955132642026581,0.01614103722295108,0.9388955697794825,-0.3437718916631418],"scale":[1.0,1.0,1.0],"name":"node_223","children":[58]},{"name":"custom_anim_FUEL_TANK_LEFT_MAIN_CAPACITY_00_AN_223","children":[59]},{"translation":[5.418700151657964,3.9110768172848555,-0.4966099873489002],"rotation":[-0.034564345531709717,0.09218875154610892,0.5273818042673393,0.8439046120494911],"scale":[1.0,1.0,1.0],"name":"node_226","children":[60]},{"name":"elevator_AN_226"},{"translation":[11.173740386962893,2.3336739540100099,0.894769012928009],"rotation":[-0.016141036080142693,-0.005955136099709603,-0.34377170988179797,0.9388956362546288],"scale":[1.0,1.0,1.0],"name":"node_236","children":[62]},{"name":"custom_anim_FUEL_TANK_LEFT_MAIN_CAPACITY_01_AN_236","children":[63]},{"translation":[5.417169776088069,-3.913699660575447,-0.4925940051855728],"rotation":[0.048852393315254708,0.08610745072634772,-0.5282862996689703,0.8432748704848739],"scale":[1.0,1.0,1.0],"name":"node_241","children":[64]},{"name":"elevator_AN_241"},{"translation":[-11.16273021697998,-4.18378210067749,0.42478999495506289],"rotation":[-0.062176038494786829,-0.06072382847330779,0.7127065414730955,-0.6960575723527103],"scale":[1.0,1.0,1.0],"name":"node_249","children":[66]},{"name":"elevator_AN_249"},{"translation":[11.16273021697998,-4.183777809143066,0.42478999495506289],"rotation":[0.06072385835075256,0.06217607050086171,-0.6960579311583957,0.7127061908061434],"scale":[1.0,1.0,1.0],"name":"node_258","children":[68]},{"name":"elevator_AN_258"},{"translation":[-11.173720359802246,2.33365797996521,0.8947679996490479],"rotation":[0.005955132642026581,0.01614103722295108,0.9388955697794825,-0.3437718916631418],"scale":[1.0,1.0,1.0],"name":"node_340","children":[70]},{"name":"custom_anim_FUEL_TANK_LEFT_MAIN_CAPACITY_00_AN_340","children":[71]},{"translation":[5.418700151657964,3.9110777709593536,-0.4966099873489002],"rotation":[-0.034564345531709717,0.09218875154610892,0.5273818042673393,0.8439046120494911],"scale":[1.0,1.0,1.0],"name":"node_344","children":[72]},{"name":"elevator_AN_344"},{"translation":[11.173740386962893,2.3336739540100099,0.894769012928009],"rotation":[-0.016141036080142693,-0.005955136099709603,-0.34377170988179797,0.9388956362546288],"scale":[1.0,1.0,1.0],"name":"node_361","children":[74]},{"name":"custom_anim_FUEL_TANK_LEFT_MAIN_CAPACITY_01_AN_361","children":[75]},{"translation":[5.417166915065767,-3.913702760017568,-0.4925940051855728],"rotation":[0.048852393315254708,0.08610745072634772,-0.5282862996689703,0.8432748704848739],"scale":[1.0,1.0,1.0],"name":"node_373","children":[76]},{"name":"elevator_AN_373"},{"translation":[-11.16273021697998,-4.183781147003174,0.42478999495506289],"rotation":[-0.062176038494786829,-0.06072382847330779,0.7127065414730955,-0.6960575723527103],"scale":[1.0,1.0,1.0],"name":"node_382","children":[78]},{"name":"elevator_AN_382"},{"translation":[11.1627197265625,-4.183780193328857,0.42478999495506289],"rotation":[0.06072385835075256,0.06217607050086171,-0.6960579311583957,0.7127061908061434],"scale":[1.0,1.0,1.0],"name":"node_392","children":[80]},{"name":"elevator_AN_392"},{"translation":[-11.173720359802246,2.33365797996521,0.8947679996490479],"rotation":[0.005955132642026581,0.01614103722295108,0.9388955697794825,-0.3437718916631418],"scale":[1.0,1.0,1.0],"name":"node_483","children":[82]},{"name":"custom_anim_FUEL_TANK_LEFT_MAIN_CAPACITY_00_AN_483","children":[83]},{"translation":[5.4187025358447749,3.9110787246338529,-0.4966099873489002],"rotation":[-0.034564345531709717,0.09218875154610892,0.5273818042673393,0.8439046120494911],"scale":[1.0,1.0,1.0],"name":"node_487","children":[84]},{"name":"elevator_AN_487"},{"translation":[11.173740386962893,2.3336739540100099,0.894769012928009],"rotation":[-0.016141036080142693,-0.005955136099709603,-0.34377170988179797,0.9388956362546288],"scale":[1.0,1.0,1.0],"name":"node_504","children":[86]},{"name":"custom_anim_FUEL_TANK_LEFT_MAIN_CAPACITY_01_AN_504","children":[87]},{"translation":[5.4171659613916669,-3.913699660575447,-0.4925940051855728],"rotation":[0.048852393315254708,0.08610745072634772,-0.5282862996689703,0.8432748704848739],"scale":[1.0,1.0,1.0],"name":"node_516","children":[88]},{"name":"elevator_AN_516"},{"translation":[-11.16273021697998,-4.183783054351807,0.42478999495506289],"rotation":[-0.062176357404342508,-0.06072379840758333,0.7127068914327489,-0.696057214237458],"scale":[1.0,1.0,1.0],"name":"node_525","children":[90]},{"name":"elevator_AN_525"},{"translation":[11.16273021697998,-4.183777809143066,0.42478999495506289],"rotation":[0.06072385835075256,0.06217607050086171,-0.6960579311583957,0.7127061908061434],"scale":[1.0,1.0,1.0],"name":"node_535","children":[92]},{"name":"elevator_AN_535"}],"scene":0,"scenes":[{"nodes":[0]}],"textures":[{"extensions":{"MSFT_texture_dds":{"source":0}}}],"extensionsUsed":["MSFT_texture_dds","ASOBO_asset_optimized"],"buffers":[{"byteLength":11480,"uri":"FAIB_B747SP_PW_LOD5.bin"}],"images":[{"uri":"FAIB_B747SP_PW_T.PNG.DDS","extras":"ASOBO_image_converted_meta"}]}
