{"accessors":[{"bufferView":0,"componentType":5126,"count":52,"min":[0.0],"max":[100.0],"type":"SCALAR"},{"bufferView":1,"componentType":5126,"count":52,"type":"VEC4"},{"bufferView":2,"componentType":5126,"count":260,"min":[-31.69601058959961,-2.8440001010894777,-39.59199905395508],"max":[31.691999435424806,16.22800064086914,31.336009979248048],"type":"VEC3","name":"part000_vertices#0_POSITION"},{"bufferView":2,"byteOffset":12,"componentType":5120,"count":260,"type":"VEC4","name":"part000_vertices#0_TANGENT"},{"bufferView":2,"byteOffset":16,"componentType":5120,"count":260,"type":"VEC4","name":"part000_vertices#0_NORMAL"},{"bufferView":2,"byteOffset":20,"componentType":5122,"count":260,"type":"VEC2","name":"part000_vertices#0_TEXCOORD_0"},{"bufferView":2,"byteOffset":24,"componentType":5122,"count":260,"type":"VEC2","name":"part000_vertices#0_TEXCOORD_1"},{"bufferView":2,"byteOffset":28,"componentType":5123,"count":260,"type":"VEC4","name":"part000_vertices#0_COLOR_0"},{"bufferView":3,"componentType":5123,"count":474,"type":"SCALAR","name":"part000_indices#0"}],"animations":[{"name":"c_gear","channels":[{"sampler":0,"target":{"node":20,"path":"rotation"}}],"samplers":[{"input":0,"output":1,"interpolation":"LINEAR"}]}],"asset":{"generator":"ModelConverterX","version":"2.0","extensions":{"ASOBO_asset_optimized":{"BoundingBoxMax":[31.691999435424806,16.22800064086914,31.336009979248048],"BoundingBoxMin":[-31.69601058959961,-2.8440001010894777,-39.59199905395508],"MajorVersion":4,"MinorVersion":4,"UseCheckerboardMaterialForMissingTextures":true,"UseOnlyFilenameForImageURI":true}}},"bufferViews":[{"buffer":0,"byteLength":208,"byteStride":4},{"buffer":0,"byteLength":832,"byteStride":16,"byteOffset":208},{"buffer":0,"byteLength":9360,"byteStride":36,"byteOffset":1040,"target":34962,"name":"BufferViewVertexND"},{"buffer":0,"byteLength":948,"byteOffset":10400,"target":34963,"name":"BufferViewIndex"}],"extensionsRequired":["MSFT_texture_dds"],"materials":[{"name":"material00","emissiveTexture":{"index":1},"emissiveFactor":[0.019607843831181527,0.019607843831181527,0.019607843831181527],"pbrMetallicRoughness":{"metallicFactor":0.0,"baseColorTexture":{"index":0}},"extensions":{"ASOBO_material_day_night_switch":{}}}],"meshes":[{"primitives":[{"attributes":{"COLOR_0":7,"NORMAL":4,"POSITION":2,"TANGENT":3,"TEXCOORD_0":5,"TEXCOORD_1":6},"indices":8,"material":0,"mode":4,"extras":{"ASOBO_primitive":{"PrimitiveCount":158,"VertexType":"VTX","VertexVersion":2}}}],"name":"part000"}],"nodes":[{"name":"node_0","children":[1,2,3,4,5,6,7,8,9,10,11,12,13,14,15,16,17,18]},{"mesh":0,"name":"node_1"},{"translation":[20.700000762939454,-0.5,-6.999999999999997],"rotation":[-6.123031769111886e-17,3.061515884555943e-17,1.0,1.874575902277672e-33],"scale":[1.0,1.0,1.0],"name":"contrail1"},{"translation":[9.10999965667725,5.059999942779541,-36.150001525878909],"rotation":[0.6786626704034199,0.36274359966378436,0.47936498896719378,-0.421951736643353],"scale":[1.0,1.0,1.0],"name":"logo_l"},{"translation":[-9.10999965667724,5.059999942779541,-36.150001525878909],"rotation":[0.67866267040342,-0.36274359966378436,-0.47936498896719378,-0.4219517366433531],"scale":[1.0,1.0,1.0],"name":"logo_r"},{"translation":[-5.170000076293946,0.33000001311302187,8.970000267028809],"rotation":[-0.7064337722128922,-0.030843564597232106,-0.030843564597232106,0.7064337722128922],"scale":[1.0,1.0,1.0],"name":"landing_r1"},{"translation":[-5.829999923706056,0.33000001311302187,8.369999885559082],"rotation":[-0.7010573846499779,-0.0922959556412574,-0.0922959556412574,0.7010573846499779],"scale":[1.0,1.0,1.0],"name":"landing_r2"},{"translation":[5.170000076293944,0.33000001311302187,8.970000267028809],"rotation":[-0.7064337722128922,0.030843564597232019,0.030843564597232019,0.7064337722128922],"scale":[1.0,1.0,1.0],"name":"landing_l1"},{"translation":[5.829999923706054,0.33000001311302187,8.369999885559082],"rotation":[-0.7010573846499779,0.09229595564125733,0.09229595564125733,0.7010573846499779],"scale":[1.0,1.0,1.0],"name":"landing_l2"},{"translation":[-20.700000762939454,-0.5,-7.000000000000003],"rotation":[-6.123031769111886e-17,3.061515884555943e-17,1.0,1.874575902277672e-33],"scale":[1.0,1.0,1.0],"name":"contrail4"},{"translation":[11.550000190734864,-1.5,1.500000000000001],"rotation":[-6.123031769111886e-17,3.061515884555943e-17,1.0,1.874575902277672e-33],"scale":[1.0,1.0,1.0],"name":"contrail2"},{"translation":[-11.550000190734864,-1.5,1.499999999999999],"rotation":[-6.123031769111886e-17,3.061515884555943e-17,1.0,1.874575902277672e-33],"scale":[1.0,1.0,1.0],"name":"contrail3"},{"translation":[-2.755364296100349e-15,-3.5,22.5],"rotation":[-6.123031769111886e-17,3.061515884555943e-17,1.0,1.874575902277672e-33],"scale":[1.0,1.0,1.0],"name":"c_tire1"},{"translation":[5.0,-4.0,-1.9999999999999992],"rotation":[-6.123031769111886e-17,3.061515884555943e-17,1.0,1.874575902277672e-33],"scale":[1.0,1.0,1.0],"name":"l_tire1"},{"translation":[-5.0,-4.0,-2.0000000000000006],"rotation":[-6.123031769111886e-17,3.061515884555943e-17,1.0,1.874575902277672e-33],"scale":[1.0,1.0,1.0],"name":"r_tire1"},{"translation":[-1.8999999761581417,-4.0,-5.0],"rotation":[-6.123031769111886e-17,3.061515884555943e-17,1.0,1.874575902277672e-33],"scale":[1.0,1.0,1.0],"name":"r_tire2"},{"translation":[1.8999999761581428,-4.0,-5.0],"rotation":[-6.123031769111886e-17,3.061515884555943e-17,1.0,1.874575902277672e-33],"scale":[1.0,1.0,1.0],"name":"l_tire2"},{"translation":[4.531043509142796e-15,4.5,-37.0],"rotation":[-5.656943728398847e-17,-0.3826834323650898,0.9238795325112867,-2.3431828138842245e-17],"scale":[1.0,1.0,1.0],"name":"APU"},{"translation":[0.0,0.0,0.0],"rotation":[-4.329637285359677e-17,0.7071067811865475,0.7071067811865475,4.329637285359677e-17],"scale":[1.0,1.0,1.0],"name":"node_23","children":[19]},{"translation":[-0.006399000063538551,23.70281982421875,-1.2679769992828368],"rotation":[0.0,0.0,0.0,1.0],"scale":[1.0,1.0,1.0],"name":"node_32","children":[20]},{"name":"c_gear_AN_32","children":[21,23,25,27]},{"translation":[-0.1263989955186844,-1.0620219707489014,0.26718300580978396],"rotation":[0.0,0.9999999999955,-0.0000030000001060720664,0.0],"scale":[1.0,1.0,1.0],"name":"node_36","children":[22]},{"translation":[0.0,0.0,0.0],"rotation":[0.7071067811865475,0.0,0.0,0.7071067811865475],"scale":[1.0,1.0,1.0],"name":"landing_nose_r"},{"translation":[0.1536010056734085,-1.0620219707489014,0.26718300580978396],"rotation":[0.0,0.9999999999955,-0.0000030000001060720664,0.0],"scale":[1.0,1.0,1.0],"name":"node_38","children":[24]},{"translation":[0.0,0.0,0.0],"rotation":[0.7071067811865475,0.0,0.0,0.7071067811865475],"scale":[1.0,1.0,1.0],"name":"landing_nose_l"},{"translation":[-0.1263989955186844,-1.0620219707489014,0.26718300580978396],"rotation":[0.006070042761975586,0.989325711442494,0.04319205646651624,0.13904042489890917],"scale":[1.0,1.0,1.0],"name":"node_40","children":[26]},{"translation":[0.0,0.0,0.0],"rotation":[0.7071067811865475,0.0,0.0,0.7071067811865475],"scale":[1.0,1.0,1.0],"name":"taxi_nose_r"},{"translation":[0.1536010056734085,-1.0620219707489014,0.26718300580978396],"rotation":[-0.006070042761975586,0.989325711442494,0.04319205646651624,-0.13904042489890917],"scale":[1.0,1.0,1.0],"name":"node_42","children":[28]},{"translation":[0.0,0.0,0.0],"rotation":[0.7071067811865475,0.0,0.0,0.7071067811865475],"scale":[1.0,1.0,1.0],"name":"taxi_nose_l"}],"scene":0,"scenes":[{"nodes":[0]}],"textures":[{"extensions":{"MSFT_texture_dds":{"source":0}}},{"extensions":{"MSFT_texture_dds":{"source":1}}}],"extensionsUsed":["ASOBO_material_day_night_switch","MSFT_texture_dds","ASOBO_asset_optimized"],"buffers":[{"byteLength":11348,"uri":"AIA_747_400_LCF_MSFS_LOD4.bin"}],"images":[{"uri":"AIA_747_LCF_T.PNG.DDS","extras":"ASOBO_image_converted_meta"},{"uri":"AIA_747_LCF_L.PNG.DDS","extras":"ASOBO_image_converted_meta"}]}
