{"accessors":[{"bufferView":0,"componentType":5126,"count":52,"min":[0.0],"max":[100.0],"type":"SCALAR"},{"bufferView":2,"componentType":5126,"count":52,"type":"VEC4"},{"bufferView":0,"byteOffset":208,"componentType":5126,"count":2,"min":[0.0],"max":[86.0],"type":"SCALAR"},{"bufferView":1,"componentType":5126,"count":2,"type":"VEC3"},{"bufferView":0,"byteOffset":216,"componentType":5126,"count":25,"min":[0.0],"max":[86.0],"type":"SCALAR"},{"bufferView":2,"byteOffset":832,"componentType":5126,"count":25,"type":"VEC4"},{"bufferView":0,"byteOffset":316,"componentType":5126,"count":2,"min":[0.0],"max":[114.0],"type":"SCALAR"},{"bufferView":1,"byteOffset":24,"componentType":5126,"count":2,"type":"VEC3"},{"bufferView":0,"byteOffset":324,"componentType":5126,"count":9,"min":[0.0],"max":[114.0],"type":"SCALAR"},{"bufferView":2,"byteOffset":1232,"componentType":5126,"count":9,"type":"VEC4"},{"bufferView":0,"byteOffset":360,"componentType":5126,"count":42,"min":[0.0],"max":[100.0],"type":"SCALAR"},{"bufferView":2,"byteOffset":1376,"componentType":5126,"count":42,"type":"VEC4"},{"bufferView":0,"byteOffset":528,"componentType":5126,"count":2,"min":[0.0],"max":[114.0],"type":"SCALAR"},{"bufferView":1,"byteOffset":48,"componentType":5126,"count":2,"type":"VEC3"},{"bufferView":0,"byteOffset":536,"componentType":5126,"count":9,"min":[0.0],"max":[114.0],"type":"SCALAR"},{"bufferView":2,"byteOffset":2048,"componentType":5126,"count":9,"type":"VEC4"},{"bufferView":0,"byteOffset":572,"componentType":5126,"count":2,"min":[0.0],"max":[86.0],"type":"SCALAR"},{"bufferView":1,"byteOffset":72,"componentType":5126,"count":2,"type":"VEC3"},{"bufferView":0,"byteOffset":580,"componentType":5126,"count":32,"min":[0.0],"max":[86.0],"type":"SCALAR"},{"bufferView":2,"byteOffset":2192,"componentType":5126,"count":32,"type":"VEC4"},{"bufferView":0,"byteOffset":708,"componentType":5126,"count":60,"min":[0.0],"max":[114.0],"type":"SCALAR"},{"bufferView":2,"byteOffset":2704,"componentType":5126,"count":60,"type":"VEC4"},{"bufferView":0,"byteOffset":948,"componentType":5126,"count":2,"min":[0.0],"max":[87.0],"type":"SCALAR"},{"bufferView":1,"byteOffset":96,"componentType":5126,"count":2,"type":"VEC3"},{"bufferView":0,"byteOffset":956,"componentType":5126,"count":35,"min":[0.0],"max":[87.0],"type":"SCALAR"},{"bufferView":2,"byteOffset":3664,"componentType":5126,"count":35,"type":"VEC4"},{"bufferView":0,"byteOffset":1096,"componentType":5126,"count":60,"min":[0.0],"max":[114.0],"type":"SCALAR"},{"bufferView":2,"byteOffset":4224,"componentType":5126,"count":60,"type":"VEC4"},{"bufferView":3,"componentType":5126,"count":776,"min":[-31.69601058959961,-2.8239998817443849,-39.64400100708008],"max":[31.691999435424806,16.280000686645509,31.336009979248048],"type":"VEC3","name":"part000_vertices#0_POSITION"},{"bufferView":3,"byteOffset":12,"componentType":5120,"count":776,"type":"VEC4","name":"part000_vertices#0_TANGENT"},{"bufferView":3,"byteOffset":16,"componentType":5120,"count":776,"type":"VEC4","name":"part000_vertices#0_NORMAL"},{"bufferView":3,"byteOffset":20,"componentType":5122,"count":776,"type":"VEC2","name":"part000_vertices#0_TEXCOORD_0"},{"bufferView":3,"byteOffset":24,"componentType":5122,"count":776,"type":"VEC2","name":"part000_vertices#0_TEXCOORD_1"},{"bufferView":3,"byteOffset":28,"componentType":5123,"count":776,"type":"VEC4","name":"part000_vertices#0_COLOR_0"},{"bufferView":4,"componentType":5123,"count":1830,"type":"SCALAR","name":"part000_indices#0"},{"bufferView":3,"byteOffset":27936,"componentType":5126,"count":28,"min":[-0.5824000239372253,-2.4355199337005617,-0.666670024394989],"max":[0.5935999751091003,-1.2666900157928467,0.44514000415802],"type":"VEC3","name":"part001_vertices#0_POSITION"},{"bufferView":3,"byteOffset":27948,"componentType":5120,"count":28,"type":"VEC4","name":"part001_vertices#0_TANGENT"},{"bufferView":3,"byteOffset":27952,"componentType":5120,"count":28,"type":"VEC4","name":"part001_vertices#0_NORMAL"},{"bufferView":3,"byteOffset":27956,"componentType":5122,"count":28,"type":"VEC2","name":"part001_vertices#0_TEXCOORD_0"},{"bufferView":3,"byteOffset":27960,"componentType":5122,"count":28,"type":"VEC2","name":"part001_vertices#0_TEXCOORD_1"},{"bufferView":3,"byteOffset":27964,"componentType":5123,"count":28,"type":"VEC4","name":"part001_vertices#0_COLOR_0"},{"bufferView":4,"byteOffset":3660,"componentType":5123,"count":48,"type":"SCALAR","name":"part001_indices#0"},{"bufferView":3,"byteOffset":28944,"componentType":5126,"count":40,"min":[-0.6607699990272522,-0.7155200242996216,-1.5832699537277222],"max":[0.7691199779510498,0.671970009803772,1.3850300312042237],"type":"VEC3","name":"part002_vertices#0_POSITION"},{"bufferView":3,"byteOffset":28956,"componentType":5120,"count":40,"type":"VEC4","name":"part002_vertices#0_TANGENT"},{"bufferView":3,"byteOffset":28960,"componentType":5120,"count":40,"type":"VEC4","name":"part002_vertices#0_NORMAL"},{"bufferView":3,"byteOffset":28964,"componentType":5122,"count":40,"type":"VEC2","name":"part002_vertices#0_TEXCOORD_0"},{"bufferView":3,"byteOffset":28968,"componentType":5122,"count":40,"type":"VEC2","name":"part002_vertices#0_TEXCOORD_1"},{"bufferView":3,"byteOffset":28972,"componentType":5123,"count":40,"type":"VEC4","name":"part002_vertices#0_COLOR_0"},{"bufferView":4,"byteOffset":3756,"componentType":5123,"count":72,"type":"SCALAR","name":"part002_indices#0"},{"bufferView":3,"byteOffset":30384,"componentType":5126,"count":40,"min":[-0.6496700048446655,-0.6045299768447876,-1.582610011100769],"max":[0.757319986820221,0.6407600045204163,1.3884899616241456],"type":"VEC3","name":"part003_vertices#0_POSITION"},{"bufferView":3,"byteOffset":30396,"componentType":5120,"count":40,"type":"VEC4","name":"part003_vertices#0_TANGENT"},{"bufferView":3,"byteOffset":30400,"componentType":5120,"count":40,"type":"VEC4","name":"part003_vertices#0_NORMAL"},{"bufferView":3,"byteOffset":30404,"componentType":5122,"count":40,"type":"VEC2","name":"part003_vertices#0_TEXCOORD_0"},{"bufferView":3,"byteOffset":30408,"componentType":5122,"count":40,"type":"VEC2","name":"part003_vertices#0_TEXCOORD_1"},{"bufferView":3,"byteOffset":30412,"componentType":5123,"count":40,"type":"VEC4","name":"part003_vertices#0_COLOR_0"},{"bufferView":4,"byteOffset":3900,"componentType":5123,"count":72,"type":"SCALAR","name":"part003_indices#0"},{"bufferView":3,"byteOffset":31824,"componentType":5126,"count":40,"min":[-0.5905500054359436,-2.135390043258667,-1.585479974746704],"max":[0.8389899730682373,-0.749180018901825,1.3811099529266358],"type":"VEC3","name":"part004_vertices#0_POSITION"},{"bufferView":3,"byteOffset":31836,"componentType":5120,"count":40,"type":"VEC4","name":"part004_vertices#0_TANGENT"},{"bufferView":3,"byteOffset":31840,"componentType":5120,"count":40,"type":"VEC4","name":"part004_vertices#0_NORMAL"},{"bufferView":3,"byteOffset":31844,"componentType":5122,"count":40,"type":"VEC2","name":"part004_vertices#0_TEXCOORD_0"},{"bufferView":3,"byteOffset":31848,"componentType":5122,"count":40,"type":"VEC2","name":"part004_vertices#0_TEXCOORD_1"},{"bufferView":3,"byteOffset":31852,"componentType":5123,"count":40,"type":"VEC4","name":"part004_vertices#0_COLOR_0"},{"bufferView":4,"byteOffset":4044,"componentType":5123,"count":72,"type":"SCALAR","name":"part004_indices#0"},{"bufferView":3,"byteOffset":33264,"componentType":5126,"count":40,"min":[-0.6369400024414063,-0.708109974861145,-1.5854500532150269],"max":[0.7880899906158447,0.6779199838638306,1.3858599662780762],"type":"VEC3","name":"part005_vertices#0_POSITION"},{"bufferView":3,"byteOffset":33276,"componentType":5120,"count":40,"type":"VEC4","name":"part005_vertices#0_TANGENT"},{"bufferView":3,"byteOffset":33280,"componentType":5120,"count":40,"type":"VEC4","name":"part005_vertices#0_NORMAL"},{"bufferView":3,"byteOffset":33284,"componentType":5122,"count":40,"type":"VEC2","name":"part005_vertices#0_TEXCOORD_0"},{"bufferView":3,"byteOffset":33288,"componentType":5122,"count":40,"type":"VEC2","name":"part005_vertices#0_TEXCOORD_1"},{"bufferView":3,"byteOffset":33292,"componentType":5123,"count":40,"type":"VEC4","name":"part005_vertices#0_COLOR_0"},{"bufferView":4,"byteOffset":4188,"componentType":5123,"count":72,"type":"SCALAR","name":"part005_indices#0"}],"animations":[{"name":"c_gear","channels":[{"sampler":0,"target":{"node":20,"path":"rotation"}}],"samplers":[{"input":0,"output":1,"interpolation":"LINEAR"}]},{"name":"l_gear","channels":[{"sampler":0,"target":{"node":30,"path":"translation"}},{"sampler":1,"target":{"node":32,"path":"rotation"}},{"sampler":2,"target":{"node":34,"path":"translation"}},{"sampler":3,"target":{"node":36,"path":"rotation"}},{"sampler":4,"target":{"node":50,"path":"translation"}},{"sampler":5,"target":{"node":52,"path":"rotation"}},{"sampler":6,"target":{"node":54,"path":"rotation"}}],"samplers":[{"input":2,"output":3,"interpolation":"LINEAR"},{"input":4,"output":5,"interpolation":"LINEAR"},{"input":6,"output":7,"interpolation":"LINEAR"},{"input":8,"output":9,"interpolation":"LINEAR"},{"input":22,"output":23,"interpolation":"LINEAR"},{"input":24,"output":25,"interpolation":"LINEAR"},{"input":26,"output":27,"interpolation":"LINEAR"}]},{"name":"r_gear","channels":[{"sampler":0,"target":{"node":38,"path":"rotation"}},{"sampler":1,"target":{"node":40,"path":"translation"}},{"sampler":2,"target":{"node":42,"path":"rotation"}},{"sampler":3,"target":{"node":44,"path":"translation"}},{"sampler":4,"target":{"node":46,"path":"rotation"}},{"sampler":5,"target":{"node":48,"path":"rotation"}}],"samplers":[{"input":10,"output":11,"interpolation":"LINEAR"},{"input":12,"output":13,"interpolation":"LINEAR"},{"input":14,"output":15,"interpolation":"LINEAR"},{"input":16,"output":17,"interpolation":"LINEAR"},{"input":18,"output":19,"interpolation":"LINEAR"},{"input":20,"output":21,"interpolation":"LINEAR"}]}],"asset":{"generator":"ModelConverterX","version":"2.0","extensions":{"ASOBO_asset_optimized":{"BoundingBoxMax":[31.691999435424806,16.280000686645509,31.336009979248048],"BoundingBoxMin":[-31.69601058959961,-2.8239998817443849,-39.64400100708008],"MajorVersion":4,"MinorVersion":4,"UseCheckerboardMaterialForMissingTextures":true,"UseOnlyFilenameForImageURI":true}}},"bufferViews":[{"buffer":0,"byteLength":1336,"byteStride":4},{"buffer":0,"byteLength":120,"byteStride":12,"byteOffset":1336},{"buffer":0,"byteLength":5184,"byteStride":16,"byteOffset":1456},{"buffer":0,"byteLength":34704,"byteStride":36,"byteOffset":6640,"target":34962,"name":"BufferViewVertexND"},{"buffer":0,"byteLength":4332,"byteOffset":41344,"target":34963,"name":"BufferViewIndex"}],"extensionsRequired":["MSFT_texture_dds"],"materials":[{"name":"material00","emissiveTexture":{"index":1},"emissiveFactor":[0.019607843831181527,0.019607843831181527,0.019607843831181527],"pbrMetallicRoughness":{"metallicFactor":0.0,"baseColorTexture":{"index":0}},"extensions":{"ASOBO_material_day_night_switch":{}}}],"meshes":[{"primitives":[{"attributes":{"COLOR_0":33,"NORMAL":30,"POSITION":28,"TANGENT":29,"TEXCOORD_0":31,"TEXCOORD_1":32},"indices":34,"material":0,"mode":4,"extras":{"ASOBO_primitive":{"PrimitiveCount":610,"VertexType":"VTX","VertexVersion":2}}}],"name":"part000"},{"primitives":[{"attributes":{"COLOR_0":40,"NORMAL":37,"POSITION":35,"TANGENT":36,"TEXCOORD_0":38,"TEXCOORD_1":39},"indices":41,"material":0,"mode":4,"extras":{"ASOBO_primitive":{"PrimitiveCount":16,"VertexType":"VTX","VertexVersion":2}}}],"name":"part001"},{"primitives":[{"attributes":{"COLOR_0":47,"NORMAL":44,"POSITION":42,"TANGENT":43,"TEXCOORD_0":45,"TEXCOORD_1":46},"indices":48,"material":0,"mode":4,"extras":{"ASOBO_primitive":{"PrimitiveCount":24,"VertexType":"VTX","VertexVersion":2}}}],"name":"part002"},{"primitives":[{"attributes":{"COLOR_0":54,"NORMAL":51,"POSITION":49,"TANGENT":50,"TEXCOORD_0":52,"TEXCOORD_1":53},"indices":55,"material":0,"mode":4,"extras":{"ASOBO_primitive":{"PrimitiveCount":24,"VertexType":"VTX","VertexVersion":2}}}],"name":"part003"},{"primitives":[{"attributes":{"COLOR_0":61,"NORMAL":58,"POSITION":56,"TANGENT":57,"TEXCOORD_0":59,"TEXCOORD_1":60},"indices":62,"material":0,"mode":4,"extras":{"ASOBO_primitive":{"PrimitiveCount":24,"VertexType":"VTX","VertexVersion":2}}}],"name":"part004"},{"primitives":[{"attributes":{"COLOR_0":68,"NORMAL":65,"POSITION":63,"TANGENT":64,"TEXCOORD_0":66,"TEXCOORD_1":67},"indices":69,"material":0,"mode":4,"extras":{"ASOBO_primitive":{"PrimitiveCount":24,"VertexType":"VTX","VertexVersion":2}}}],"name":"part005"}],"nodes":[{"name":"node_0","children":[1,2,3,4,5,6,7,8,9,10,11,12,13,14,15,16,17,18]},{"mesh":0,"name":"node_2"},{"translation":[20.700000762939454,-0.5,-6.999999999999997],"rotation":[-6.123031769111886e-17,3.061515884555943e-17,1.0,1.874575902277672e-33],"scale":[1.0,1.0,1.0],"name":"contrail1"},{"translation":[9.10999965667725,5.059999942779541,-36.150001525878909],"rotation":[0.6786626704034199,0.36274359966378436,0.47936498896719378,-0.421951736643353],"scale":[1.0,1.0,1.0],"name":"logo_l"},{"translation":[-9.10999965667724,5.059999942779541,-36.150001525878909],"rotation":[0.67866267040342,-0.36274359966378436,-0.47936498896719378,-0.4219517366433531],"scale":[1.0,1.0,1.0],"name":"logo_r"},{"translation":[-5.170000076293946,0.33000001311302187,8.970000267028809],"rotation":[-0.7064337722128922,-0.030843564597232106,-0.030843564597232106,0.7064337722128922],"scale":[1.0,1.0,1.0],"name":"landing_r1"},{"translation":[-5.829999923706056,0.33000001311302187,8.369999885559082],"rotation":[-0.7010573846499779,-0.0922959556412574,-0.0922959556412574,0.7010573846499779],"scale":[1.0,1.0,1.0],"name":"landing_r2"},{"translation":[5.170000076293944,0.33000001311302187,8.970000267028809],"rotation":[-0.7064337722128922,0.030843564597232019,0.030843564597232019,0.7064337722128922],"scale":[1.0,1.0,1.0],"name":"landing_l1"},{"translation":[5.829999923706054,0.33000001311302187,8.369999885559082],"rotation":[-0.7010573846499779,0.09229595564125733,0.09229595564125733,0.7010573846499779],"scale":[1.0,1.0,1.0],"name":"landing_l2"},{"translation":[-20.700000762939454,-0.5,-7.000000000000003],"rotation":[-6.123031769111886e-17,3.061515884555943e-17,1.0,1.874575902277672e-33],"scale":[1.0,1.0,1.0],"name":"contrail4"},{"translation":[11.550000190734864,-1.5,1.500000000000001],"rotation":[-6.123031769111886e-17,3.061515884555943e-17,1.0,1.874575902277672e-33],"scale":[1.0,1.0,1.0],"name":"contrail2"},{"translation":[-11.550000190734864,-1.5,1.499999999999999],"rotation":[-6.123031769111886e-17,3.061515884555943e-17,1.0,1.874575902277672e-33],"scale":[1.0,1.0,1.0],"name":"contrail3"},{"translation":[-2.755364296100349e-15,-3.5,22.5],"rotation":[-6.123031769111886e-17,3.061515884555943e-17,1.0,1.874575902277672e-33],"scale":[1.0,1.0,1.0],"name":"c_tire1"},{"translation":[5.0,-4.0,-1.9999999999999992],"rotation":[-6.123031769111886e-17,3.061515884555943e-17,1.0,1.874575902277672e-33],"scale":[1.0,1.0,1.0],"name":"l_tire1"},{"translation":[-5.0,-4.0,-2.0000000000000006],"rotation":[-6.123031769111886e-17,3.061515884555943e-17,1.0,1.874575902277672e-33],"scale":[1.0,1.0,1.0],"name":"r_tire1"},{"translation":[-1.8999999761581417,-4.0,-5.0],"rotation":[-6.123031769111886e-17,3.061515884555943e-17,1.0,1.874575902277672e-33],"scale":[1.0,1.0,1.0],"name":"r_tire2"},{"translation":[1.8999999761581428,-4.0,-5.0],"rotation":[-6.123031769111886e-17,3.061515884555943e-17,1.0,1.874575902277672e-33],"scale":[1.0,1.0,1.0],"name":"l_tire2"},{"translation":[4.531043509142796e-15,4.5,-37.0],"rotation":[-5.656943728398847e-17,-0.3826834323650898,0.9238795325112867,-2.3431828138842245e-17],"scale":[1.0,1.0,1.0],"name":"APU"},{"translation":[0.0,0.0,0.0],"rotation":[-4.329637285359677e-17,0.7071067811865475,0.7071067811865475,4.329637285359677e-17],"scale":[1.0,1.0,1.0],"name":"node_23","children":[19,29,37,43,49]},{"translation":[-0.006399000063538551,23.70281982421875,-1.2679769992828368],"rotation":[0.0,0.0,0.0,1.0],"scale":[1.0,1.0,1.0],"name":"node_32","children":[20]},{"mesh":1,"name":"c_gear_AN_32","children":[21,23,25,27]},{"translation":[-0.1263989955186844,-1.0620219707489014,0.26718300580978396],"rotation":[0.0,0.9999999999955,-0.0000030000001060720664,0.0],"scale":[1.0,1.0,1.0],"name":"node_36","children":[22]},{"translation":[0.0,0.0,0.0],"rotation":[0.7071067811865475,0.0,0.0,0.7071067811865475],"scale":[1.0,1.0,1.0],"name":"landing_nose_r"},{"translation":[0.1536010056734085,-1.0620219707489014,0.26718300580978396],"rotation":[0.0,0.9999999999955,-0.0000030000001060720664,0.0],"scale":[1.0,1.0,1.0],"name":"node_38","children":[24]},{"translation":[0.0,0.0,0.0],"rotation":[0.7071067811865475,0.0,0.0,0.7071067811865475],"scale":[1.0,1.0,1.0],"name":"landing_nose_l"},{"translation":[-0.1263989955186844,-1.0620219707489014,0.26718300580978396],"rotation":[0.006070042761975586,0.989325711442494,0.04319205646651624,0.13904042489890917],"scale":[1.0,1.0,1.0],"name":"node_40","children":[26]},{"translation":[0.0,0.0,0.0],"rotation":[0.7071067811865475,0.0,0.0,0.7071067811865475],"scale":[1.0,1.0,1.0],"name":"taxi_nose_r"},{"translation":[0.1536010056734085,-1.0620219707489014,0.26718300580978396],"rotation":[-0.006070042761975586,0.989325711442494,0.04319205646651624,-0.13904042489890917],"scale":[1.0,1.0,1.0],"name":"node_42","children":[28]},{"translation":[0.0,0.0,0.0],"rotation":[0.7071067811865475,0.0,0.0,0.7071067811865475],"scale":[1.0,1.0,1.0],"name":"taxi_nose_l"},{"name":"node_47","children":[30]},{"name":"l_gear_AN_47","children":[31]},{"name":"node_48","children":[32]},{"name":"l_gear_AN_48","children":[33]},{"name":"node_49","children":[34]},{"name":"l_gear_AN_49","children":[35]},{"name":"node_50","children":[36]},{"mesh":2,"name":"l_gear_AN_50"},{"translation":[5.030004024505615,2.1615500450134279,-0.30684399604797366],"rotation":[0.0,0.0,0.0,1.0],"scale":[1.0,1.0,1.0],"name":"node_63","children":[38]},{"name":"r_gear_AN_63","children":[39]},{"name":"node_64","children":[40]},{"name":"r_gear_AN_64","children":[41]},{"name":"node_65","children":[42]},{"mesh":3,"name":"r_gear_AN_65"},{"name":"node_75","children":[44]},{"name":"r_gear_AN_75","children":[45]},{"name":"node_76","children":[46]},{"name":"r_gear_AN_76","children":[47]},{"translation":[1.7764919996261597,1.5147429704666138,0.056352999061346057],"rotation":[0.0,0.0,0.0,1.0],"scale":[1.0,1.0,1.0],"name":"node_77","children":[48]},{"mesh":4,"name":"r_gear_AN_77"},{"name":"node_87","children":[50]},{"name":"l_gear_AN_87","children":[51]},{"name":"node_88","children":[52]},{"name":"l_gear_AN_88","children":[53]},{"translation":[1.8232500553131104,0.08094300329685211,-0.029066000133752824],"rotation":[0.0,0.0,0.0,1.0],"scale":[1.0,1.0,1.0],"name":"node_89","children":[54]},{"mesh":5,"name":"l_gear_AN_89"}],"scene":0,"scenes":[{"nodes":[0]}],"textures":[{"extensions":{"MSFT_texture_dds":{"source":0}}},{"extensions":{"MSFT_texture_dds":{"source":1}}}],"extensionsUsed":["ASOBO_material_day_night_switch","MSFT_texture_dds","ASOBO_asset_optimized"],"buffers":[{"byteLength":45676,"uri":"AIA_747_400_LCF_MSFS_LOD3.bin"}],"images":[{"uri":"AIA_747_LCF_T.PNG.DDS","extras":"ASOBO_image_converted_meta"},{"uri":"AIA_747_LCF_L.PNG.DDS","extras":"ASOBO_image_converted_meta"}]}
