{"accessors":[{"bufferView":0,"componentType":5126,"count":5,"min":[0.0],"max":[100.0],"type":"SCALAR"},{"bufferView":1,"componentType":5126,"count":5,"type":"VEC4"},{"bufferView":0,"byteOffset":20,"componentType":5126,"count":5,"min":[0.0],"max":[100.0],"type":"SCALAR"},{"bufferView":1,"byteOffset":80,"componentType":5126,"count":5,"type":"VEC4"},{"bufferView":0,"byteOffset":40,"componentType":5126,"count":5,"min":[0.0],"max":[100.0],"type":"SCALAR"},{"bufferView":1,"byteOffset":160,"componentType":5126,"count":5,"type":"VEC4"},{"bufferView":2,"componentType":5126,"count":138,"min":[-5.102630138397217,-0.5486000180244446,-5.387609958648682],"max":[5.102630138397217,1.3632800579071046,1.592479944229126],"type":"VEC3","name":"part000_vertices#0_POSITION"},{"bufferView":2,"byteOffset":12,"componentType":5120,"count":138,"type":"VEC4","name":"part000_vertices#0_TANGENT"},{"bufferView":2,"byteOffset":16,"componentType":5120,"count":138,"type":"VEC4","name":"part000_vertices#0_NORMAL"},{"bufferView":2,"byteOffset":20,"componentType":5122,"count":138,"type":"VEC2","name":"part000_vertices#0_TEXCOORD_0"},{"bufferView":2,"byteOffset":24,"componentType":5122,"count":138,"type":"VEC2","name":"part000_vertices#0_TEXCOORD_1"},{"bufferView":2,"byteOffset":28,"componentType":5123,"count":138,"type":"VEC4","name":"part000_vertices#0_COLOR_0"},{"bufferView":3,"componentType":5123,"count":288,"type":"SCALAR","name":"part000_indices#0"},{"bufferView":2,"byteOffset":4968,"componentType":5126,"count":12,"min":[0.0,-0.1573600023984909,-0.18177999556064607],"max":[0.0,0.1573600023984909,0.18177999556064607],"type":"VEC3","name":"part001_vertices#0_POSITION"},{"bufferView":2,"byteOffset":4980,"componentType":5120,"count":12,"type":"VEC4","name":"part001_vertices#0_TANGENT"},{"bufferView":2,"byteOffset":4984,"componentType":5120,"count":12,"type":"VEC4","name":"part001_vertices#0_NORMAL"},{"bufferView":2,"byteOffset":4988,"componentType":5122,"count":12,"type":"VEC2","name":"part001_vertices#0_TEXCOORD_0"},{"bufferView":2,"byteOffset":4992,"componentType":5122,"count":12,"type":"VEC2","name":"part001_vertices#0_TEXCOORD_1"},{"bufferView":2,"byteOffset":4996,"componentType":5123,"count":12,"type":"VEC4","name":"part001_vertices#0_COLOR_0"},{"bufferView":3,"byteOffset":576,"componentType":5123,"count":24,"type":"SCALAR","name":"part001_indices#0"},{"bufferView":2,"byteOffset":5400,"componentType":5126,"count":6,"min":[0.0,-0.19043999910354615,-0.2198999971151352],"max":[0.0,0.19043999910354615,0.2198999971151352],"type":"VEC3","name":"part002_vertices#0_POSITION"},{"bufferView":2,"byteOffset":5412,"componentType":5120,"count":6,"type":"VEC4","name":"part002_vertices#0_TANGENT"},{"bufferView":2,"byteOffset":5416,"componentType":5120,"count":6,"type":"VEC4","name":"part002_vertices#0_NORMAL"},{"bufferView":2,"byteOffset":5420,"componentType":5122,"count":6,"type":"VEC2","name":"part002_vertices#0_TEXCOORD_0"},{"bufferView":2,"byteOffset":5424,"componentType":5122,"count":6,"type":"VEC2","name":"part002_vertices#0_TEXCOORD_1"},{"bufferView":2,"byteOffset":5428,"componentType":5123,"count":6,"type":"VEC4","name":"part002_vertices#0_COLOR_0"},{"bufferView":3,"byteOffset":624,"componentType":5123,"count":12,"type":"SCALAR","name":"part002_indices#0"},{"bufferView":2,"byteOffset":5616,"componentType":5126,"count":6,"min":[0.0,-0.19043999910354615,-0.2198999971151352],"max":[0.0,0.19043999910354615,0.2198999971151352],"type":"VEC3","name":"part003_vertices#0_POSITION"},{"bufferView":2,"byteOffset":5628,"componentType":5120,"count":6,"type":"VEC4","name":"part003_vertices#0_TANGENT"},{"bufferView":2,"byteOffset":5632,"componentType":5120,"count":6,"type":"VEC4","name":"part003_vertices#0_NORMAL"},{"bufferView":2,"byteOffset":5636,"componentType":5122,"count":6,"type":"VEC2","name":"part003_vertices#0_TEXCOORD_0"},{"bufferView":2,"byteOffset":5640,"componentType":5122,"count":6,"type":"VEC2","name":"part003_vertices#0_TEXCOORD_1"},{"bufferView":2,"byteOffset":5644,"componentType":5123,"count":6,"type":"VEC4","name":"part003_vertices#0_COLOR_0"},{"bufferView":3,"byteOffset":648,"componentType":5123,"count":12,"type":"SCALAR","name":"part003_indices#0"}],"animations":[{"name":"c_tire_blurred_key","channels":[{"sampler":0,"target":{"node":11,"path":"rotation"}}],"samplers":[{"input":0,"output":1,"interpolation":"LINEAR"}]},{"name":"r_tire_blurred_key","channels":[{"sampler":0,"target":{"node":14,"path":"rotation"}}],"samplers":[{"input":2,"output":3,"interpolation":"LINEAR"}]},{"name":"l_tire_blurred_key","channels":[{"sampler":0,"target":{"node":17,"path":"rotation"}}],"samplers":[{"input":4,"output":5,"interpolation":"LINEAR"}]}],"asset":{"generator":"ModelConverterX","version":"2.0","extensions":{"ASOBO_asset_optimized":{"BoundingBoxMax":[5.102630138397217,1.3632800579071046,1.592479944229126],"BoundingBoxMin":[-5.102630138397217,-0.5486000180244446,-5.387609958648682],"MajorVersion":4,"MinorVersion":4,"UseCheckerboardMaterialForMissingTextures":true,"UseOnlyFilenameForImageURI":true}}},"bufferViews":[{"buffer":0,"byteLength":60,"byteStride":4},{"buffer":0,"byteLength":240,"byteStride":16,"byteOffset":60},{"buffer":0,"byteLength":5832,"byteStride":36,"byteOffset":300,"target":34962,"name":"BufferViewVertexND"},{"buffer":0,"byteLength":672,"byteOffset":6132,"target":34963,"name":"BufferViewIndex"}],"extensionsRequired":["MSFT_texture_dds"],"materials":[{"name":"material00","emissiveFactor":[0.019607843831181527,0.019607843831181527,0.019607843831181527],"pbrMetallicRoughness":{"metallicFactor":0.0,"baseColorTexture":{"index":0}}}],"meshes":[{"primitives":[{"attributes":{"COLOR_0":11,"NORMAL":8,"POSITION":6,"TANGENT":7,"TEXCOORD_0":9,"TEXCOORD_1":10},"indices":12,"material":0,"mode":4,"extras":{"ASOBO_primitive":{"PrimitiveCount":96,"VertexType":"VTX","VertexVersion":2}}}],"name":"part000"},{"primitives":[{"attributes":{"COLOR_0":18,"NORMAL":15,"POSITION":13,"TANGENT":14,"TEXCOORD_0":16,"TEXCOORD_1":17},"indices":19,"material":0,"mode":4,"extras":{"ASOBO_primitive":{"PrimitiveCount":8,"VertexType":"VTX","VertexVersion":2}}}],"name":"part001"},{"primitives":[{"attributes":{"COLOR_0":25,"NORMAL":22,"POSITION":20,"TANGENT":21,"TEXCOORD_0":23,"TEXCOORD_1":24},"indices":26,"material":0,"mode":4,"extras":{"ASOBO_primitive":{"PrimitiveCount":4,"VertexType":"VTX","VertexVersion":2}}}],"name":"part002"},{"primitives":[{"attributes":{"COLOR_0":32,"NORMAL":29,"POSITION":27,"TANGENT":28,"TEXCOORD_0":30,"TEXCOORD_1":31},"indices":33,"material":0,"mode":4,"extras":{"ASOBO_primitive":{"PrimitiveCount":4,"VertexType":"VTX","VertexVersion":2}}}],"name":"part003"}],"nodes":[{"name":"node_0","children":[1,2,3,4,5,6,7,8]},{"mesh":0,"name":"node_5"},{"translation":[-1.1799999475479127,-1.100000023841858,-0.5000000000000001],"rotation":[-6.123031769111886e-17,0.0,1.0,0.0],"scale":[1.0,1.0,1.0],"name":"r_tire1"},{"translation":[1.1799999475479127,-1.100000023841858,-0.49999999999999986],"rotation":[-6.123031769111886e-17,0.0,1.0,0.0],"scale":[1.0,1.0,1.0],"name":"l_tire1"},{"translation":[-1.2001142501034423e-16,-1.0499999523162842,0.9800000190734864],"rotation":[-6.123031769111886e-17,0.0,1.0,0.0],"scale":[1.0,1.0,1.0],"name":"c_tire1"},{"translation":[-0.05000000074505825,-0.1899999976158142,1.5399999618530272],"rotation":[-0.7071067811865475,-4.329637285359677e-17,-4.329637285359677e-17,0.7071067811865475],"scale":[1.0,1.0,1.0],"name":"Taxi_Light"},{"translation":[0.05000000074505787,-0.1899999976158142,1.5399999618530272],"rotation":[-0.7071067811865475,-4.329637285359677e-17,-4.329637285359677e-17,0.7071067811865475],"scale":[1.0,1.0,1.0],"name":"Landing_Light"},{"translation":[6.123031769111886e-16,0.0,-5.0],"rotation":[-6.123031769111886e-17,0.0,1.0,0.0],"scale":[1.0,1.0,1.0],"name":"contrail1"},{"translation":[0.0,0.0,0.0],"rotation":[-4.329637285359677e-17,0.7071067811865475,0.7071067811865475,4.329637285359677e-17],"scale":[1.0,1.0,1.0],"name":"node_24","children":[9,12,15]},{"translation":[0.0,1.0457019805908204,-0.8905689716339112],"rotation":[0.0,0.0,0.0,1.0],"scale":[1.0,1.0,1.0],"name":"node_34","children":[10]},{"name":"node_35","children":[11]},{"mesh":1,"name":"c_tire_blurred_key_AN_35"},{"translation":[1.1798050403594974,-0.44650301337242129,-0.8981879949569702],"rotation":[0.0,0.0,0.0,1.0],"scale":[1.0,1.0,1.0],"name":"node_41","children":[13]},{"name":"node_42","children":[14]},{"mesh":2,"name":"r_tire_blurred_key_AN_42"},{"translation":[-1.1798050403594974,-0.44650301337242129,-0.8981879949569702],"rotation":[0.0,0.0,0.0,1.0],"scale":[1.0,1.0,1.0],"name":"node_48","children":[16]},{"name":"node_49","children":[17]},{"mesh":3,"name":"l_tire_blurred_key_AN_49"}],"scene":0,"scenes":[{"nodes":[0]}],"textures":[{"extensions":{"MSFT_texture_dds":{"source":0}}}],"extensionsUsed":["MSFT_texture_dds","ASOBO_asset_optimized"],"buffers":[{"byteLength":6804,"uri":"HTAI Cessna 152 MSFS_LOD4.bin"}],"images":[{"uri":"HTAI_C152.PNG.DDS","extras":"ASOBO_image_converted_meta"}]}
