{"accessors":[{"bufferView":0,"componentType":5126,"count":5,"min":[0.0],"max":[100.0],"type":"SCALAR"},{"bufferView":2,"componentType":5126,"count":5,"type":"VEC4"},{"bufferView":0,"byteOffset":20,"componentType":5126,"count":5,"min":[0.0],"max":[100.0],"type":"SCALAR"},{"bufferView":2,"byteOffset":80,"componentType":5126,"count":5,"type":"VEC4"},{"bufferView":0,"byteOffset":40,"componentType":5126,"count":5,"min":[0.0],"max":[100.0],"type":"SCALAR"},{"bufferView":2,"byteOffset":160,"componentType":5126,"count":5,"type":"VEC4"},{"bufferView":0,"byteOffset":60,"componentType":5126,"count":5,"min":[0.0],"max":[100.0],"type":"SCALAR"},{"bufferView":2,"byteOffset":240,"componentType":5126,"count":5,"type":"VEC4"},{"bufferView":0,"byteOffset":80,"componentType":5126,"count":5,"min":[0.0],"max":[100.0],"type":"SCALAR"},{"bufferView":2,"byteOffset":320,"componentType":5126,"count":5,"type":"VEC4"},{"bufferView":0,"byteOffset":100,"componentType":5126,"count":5,"min":[0.0],"max":[100.0],"type":"SCALAR"},{"bufferView":2,"byteOffset":400,"componentType":5126,"count":5,"type":"VEC4"},{"bufferView":0,"byteOffset":120,"componentType":5126,"count":5,"min":[0.0],"max":[100.0],"type":"SCALAR"},{"bufferView":2,"byteOffset":480,"componentType":5126,"count":5,"type":"VEC4"},{"bufferView":0,"byteOffset":140,"componentType":5126,"count":5,"min":[0.0],"max":[100.0],"type":"SCALAR"},{"bufferView":2,"byteOffset":560,"componentType":5126,"count":5,"type":"VEC4"},{"bufferView":0,"byteOffset":160,"componentType":5126,"count":5,"min":[0.0],"max":[100.0],"type":"SCALAR"},{"bufferView":2,"byteOffset":640,"componentType":5126,"count":5,"type":"VEC4"},{"bufferView":0,"byteOffset":180,"componentType":5126,"count":2,"min":[0.0],"max":[100.0],"type":"SCALAR"},{"bufferView":1,"componentType":5126,"count":2,"type":"VEC3"},{"bufferView":0,"byteOffset":188,"componentType":5126,"count":2,"min":[0.0],"max":[100.0],"type":"SCALAR"},{"bufferView":2,"byteOffset":720,"componentType":5126,"count":2,"type":"VEC4"},{"bufferView":0,"byteOffset":196,"componentType":5126,"count":2,"min":[0.0],"max":[100.0],"type":"SCALAR"},{"bufferView":1,"byteOffset":24,"componentType":5126,"count":2,"type":"VEC3"},{"bufferView":0,"byteOffset":204,"componentType":5126,"count":2,"min":[0.0],"max":[100.0],"type":"SCALAR"},{"bufferView":2,"byteOffset":752,"componentType":5126,"count":2,"type":"VEC4"},{"bufferView":3,"componentType":5126,"count":434,"min":[-5.102630138397217,-0.9451000094413757,-5.387609958648682],"max":[5.102630138397217,1.3632800579071046,1.9174000024795533],"type":"VEC3","name":"part000_vertices#0_POSITION"},{"bufferView":3,"byteOffset":12,"componentType":5120,"count":434,"type":"VEC4","name":"part000_vertices#0_TANGENT"},{"bufferView":3,"byteOffset":16,"componentType":5120,"count":434,"type":"VEC4","name":"part000_vertices#0_NORMAL"},{"bufferView":3,"byteOffset":20,"componentType":5122,"count":434,"type":"VEC2","name":"part000_vertices#0_TEXCOORD_0"},{"bufferView":3,"byteOffset":24,"componentType":5122,"count":434,"type":"VEC2","name":"part000_vertices#0_TEXCOORD_1"},{"bufferView":3,"byteOffset":28,"componentType":5123,"count":434,"type":"VEC4","name":"part000_vertices#0_COLOR_0"},{"bufferView":4,"componentType":5123,"count":1296,"type":"SCALAR","name":"part000_indices#0"},{"bufferView":3,"byteOffset":15624,"componentType":5126,"count":34,"min":[-0.9078699946403503,0.0,-0.9078699946403503],"max":[0.9078699946403503,0.0,0.9078699946403503],"type":"VEC3","name":"part001_vertices#0_POSITION"},{"bufferView":3,"byteOffset":15636,"componentType":5120,"count":34,"type":"VEC4","name":"part001_vertices#0_TANGENT"},{"bufferView":3,"byteOffset":15640,"componentType":5120,"count":34,"type":"VEC4","name":"part001_vertices#0_NORMAL"},{"bufferView":3,"byteOffset":15644,"componentType":5122,"count":34,"type":"VEC2","name":"part001_vertices#0_TEXCOORD_0"},{"bufferView":3,"byteOffset":15648,"componentType":5122,"count":34,"type":"VEC2","name":"part001_vertices#0_TEXCOORD_1"},{"bufferView":3,"byteOffset":15652,"componentType":5123,"count":34,"type":"VEC4","name":"part001_vertices#0_COLOR_0"},{"bufferView":4,"byteOffset":2592,"componentType":5123,"count":96,"type":"SCALAR","name":"part001_indices#0"},{"bufferView":3,"byteOffset":16848,"componentType":5126,"count":34,"min":[-0.9078699946403503,0.0,-0.9078699946403503],"max":[0.9078699946403503,0.0,0.9078699946403503],"type":"VEC3","name":"part002_vertices#0_POSITION"},{"bufferView":3,"byteOffset":16860,"componentType":5120,"count":34,"type":"VEC4","name":"part002_vertices#0_TANGENT"},{"bufferView":3,"byteOffset":16864,"componentType":5120,"count":34,"type":"VEC4","name":"part002_vertices#0_NORMAL"},{"bufferView":3,"byteOffset":16868,"componentType":5122,"count":34,"type":"VEC2","name":"part002_vertices#0_TEXCOORD_0"},{"bufferView":3,"byteOffset":16872,"componentType":5122,"count":34,"type":"VEC2","name":"part002_vertices#0_TEXCOORD_1"},{"bufferView":3,"byteOffset":16876,"componentType":5123,"count":34,"type":"VEC4","name":"part002_vertices#0_COLOR_0"},{"bufferView":4,"byteOffset":2784,"componentType":5123,"count":96,"type":"SCALAR","name":"part002_indices#0"},{"bufferView":3,"byteOffset":18072,"componentType":5126,"count":20,"min":[-0.050050001591444018,-0.17250999808311463,-0.1814900040626526],"max":[0.050050001591444018,0.17257000505924226,0.1813499927520752],"type":"VEC3","name":"part003_vertices#0_POSITION"},{"bufferView":3,"byteOffset":18084,"componentType":5120,"count":20,"type":"VEC4","name":"part003_vertices#0_TANGENT"},{"bufferView":3,"byteOffset":18088,"componentType":5120,"count":20,"type":"VEC4","name":"part003_vertices#0_NORMAL"},{"bufferView":3,"byteOffset":18092,"componentType":5122,"count":20,"type":"VEC2","name":"part003_vertices#0_TEXCOORD_0"},{"bufferView":3,"byteOffset":18096,"componentType":5122,"count":20,"type":"VEC2","name":"part003_vertices#0_TEXCOORD_1"},{"bufferView":3,"byteOffset":18100,"componentType":5123,"count":20,"type":"VEC4","name":"part003_vertices#0_COLOR_0"},{"bufferView":4,"byteOffset":2976,"componentType":5123,"count":48,"type":"SCALAR","name":"part003_indices#0"},{"bufferView":3,"byteOffset":18792,"componentType":5126,"count":20,"min":[-0.050050001591444018,-0.17250999808311463,-0.1814900040626526],"max":[0.050050001591444018,0.17257000505924226,0.1813499927520752],"type":"VEC3","name":"part004_vertices#0_POSITION"},{"bufferView":3,"byteOffset":18804,"componentType":5120,"count":20,"type":"VEC4","name":"part004_vertices#0_TANGENT"},{"bufferView":3,"byteOffset":18808,"componentType":5120,"count":20,"type":"VEC4","name":"part004_vertices#0_NORMAL"},{"bufferView":3,"byteOffset":18812,"componentType":5122,"count":20,"type":"VEC2","name":"part004_vertices#0_TEXCOORD_0"},{"bufferView":3,"byteOffset":18816,"componentType":5122,"count":20,"type":"VEC2","name":"part004_vertices#0_TEXCOORD_1"},{"bufferView":3,"byteOffset":18820,"componentType":5123,"count":20,"type":"VEC4","name":"part004_vertices#0_COLOR_0"},{"bufferView":4,"byteOffset":3072,"componentType":5123,"count":60,"type":"SCALAR","name":"part004_indices#0"},{"bufferView":3,"byteOffset":19512,"componentType":5126,"count":20,"min":[-0.06763000041246414,-0.20476000010967256,-0.21539999544620515],"max":[0.06763000041246414,0.20483000576496125,0.21526999771595],"type":"VEC3","name":"part005_vertices#0_POSITION"},{"bufferView":3,"byteOffset":19524,"componentType":5120,"count":20,"type":"VEC4","name":"part005_vertices#0_TANGENT"},{"bufferView":3,"byteOffset":19528,"componentType":5120,"count":20,"type":"VEC4","name":"part005_vertices#0_NORMAL"},{"bufferView":3,"byteOffset":19532,"componentType":5122,"count":20,"type":"VEC2","name":"part005_vertices#0_TEXCOORD_0"},{"bufferView":3,"byteOffset":19536,"componentType":5122,"count":20,"type":"VEC2","name":"part005_vertices#0_TEXCOORD_1"},{"bufferView":3,"byteOffset":19540,"componentType":5123,"count":20,"type":"VEC4","name":"part005_vertices#0_COLOR_0"},{"bufferView":4,"byteOffset":3192,"componentType":5123,"count":48,"type":"SCALAR","name":"part005_indices#0"},{"bufferView":3,"byteOffset":20232,"componentType":5126,"count":20,"min":[-0.06763000041246414,-0.20476000010967256,-0.21539999544620515],"max":[0.06763000041246414,0.20483000576496125,0.21526999771595],"type":"VEC3","name":"part006_vertices#0_POSITION"},{"bufferView":3,"byteOffset":20244,"componentType":5120,"count":20,"type":"VEC4","name":"part006_vertices#0_TANGENT"},{"bufferView":3,"byteOffset":20248,"componentType":5120,"count":20,"type":"VEC4","name":"part006_vertices#0_NORMAL"},{"bufferView":3,"byteOffset":20252,"componentType":5122,"count":20,"type":"VEC2","name":"part006_vertices#0_TEXCOORD_0"},{"bufferView":3,"byteOffset":20256,"componentType":5122,"count":20,"type":"VEC2","name":"part006_vertices#0_TEXCOORD_1"},{"bufferView":3,"byteOffset":20260,"componentType":5123,"count":20,"type":"VEC4","name":"part006_vertices#0_COLOR_0"},{"bufferView":4,"byteOffset":3288,"componentType":5123,"count":60,"type":"SCALAR","name":"part006_indices#0"},{"bufferView":3,"byteOffset":20952,"componentType":5126,"count":20,"min":[-0.06763000041246414,-0.20476000010967256,-0.21539999544620515],"max":[0.06763000041246414,0.20483000576496125,0.21526999771595],"type":"VEC3","name":"part007_vertices#0_POSITION"},{"bufferView":3,"byteOffset":20964,"componentType":5120,"count":20,"type":"VEC4","name":"part007_vertices#0_TANGENT"},{"bufferView":3,"byteOffset":20968,"componentType":5120,"count":20,"type":"VEC4","name":"part007_vertices#0_NORMAL"},{"bufferView":3,"byteOffset":20972,"componentType":5122,"count":20,"type":"VEC2","name":"part007_vertices#0_TEXCOORD_0"},{"bufferView":3,"byteOffset":20976,"componentType":5122,"count":20,"type":"VEC2","name":"part007_vertices#0_TEXCOORD_1"},{"bufferView":3,"byteOffset":20980,"componentType":5123,"count":20,"type":"VEC4","name":"part007_vertices#0_COLOR_0"},{"bufferView":4,"byteOffset":3408,"componentType":5123,"count":48,"type":"SCALAR","name":"part007_indices#0"},{"bufferView":3,"byteOffset":21672,"componentType":5126,"count":20,"min":[-0.06763000041246414,-0.20476000010967256,-0.21539999544620515],"max":[0.06763000041246414,0.20483000576496125,0.21526999771595],"type":"VEC3","name":"part008_vertices#0_POSITION"},{"bufferView":3,"byteOffset":21684,"componentType":5120,"count":20,"type":"VEC4","name":"part008_vertices#0_TANGENT"},{"bufferView":3,"byteOffset":21688,"componentType":5120,"count":20,"type":"VEC4","name":"part008_vertices#0_NORMAL"},{"bufferView":3,"byteOffset":21692,"componentType":5122,"count":20,"type":"VEC2","name":"part008_vertices#0_TEXCOORD_0"},{"bufferView":3,"byteOffset":21696,"componentType":5122,"count":20,"type":"VEC2","name":"part008_vertices#0_TEXCOORD_1"},{"bufferView":3,"byteOffset":21700,"componentType":5123,"count":20,"type":"VEC4","name":"part008_vertices#0_COLOR_0"},{"bufferView":4,"byteOffset":3504,"componentType":5123,"count":60,"type":"SCALAR","name":"part008_indices#0"},{"bufferView":3,"byteOffset":22392,"componentType":5126,"count":32,"min":[-0.06975000351667404,-0.02329999953508377,-0.9104300141334534],"max":[0.06975000351667404,0.023329999297857286,0.9104300141334534],"type":"VEC3","name":"part009_vertices#0_POSITION"},{"bufferView":3,"byteOffset":22404,"componentType":5120,"count":32,"type":"VEC4","name":"part009_vertices#0_TANGENT"},{"bufferView":3,"byteOffset":22408,"componentType":5120,"count":32,"type":"VEC4","name":"part009_vertices#0_NORMAL"},{"bufferView":3,"byteOffset":22412,"componentType":5122,"count":32,"type":"VEC2","name":"part009_vertices#0_TEXCOORD_0"},{"bufferView":3,"byteOffset":22416,"componentType":5122,"count":32,"type":"VEC2","name":"part009_vertices#0_TEXCOORD_1"},{"bufferView":3,"byteOffset":22420,"componentType":5123,"count":32,"type":"VEC4","name":"part009_vertices#0_COLOR_0"},{"bufferView":4,"byteOffset":3624,"componentType":5123,"count":72,"type":"SCALAR","name":"part009_indices#0"},{"bufferView":3,"byteOffset":23544,"componentType":5126,"count":12,"min":[-0.8032100200653076,-0.2599799931049347,-0.05961000174283981],"max":[0.8032100200653076,0.2599799931049347,0.05961000174283981],"type":"VEC3","name":"part010_vertices#0_POSITION"},{"bufferView":3,"byteOffset":23556,"componentType":5120,"count":12,"type":"VEC4","name":"part010_vertices#0_TANGENT"},{"bufferView":3,"byteOffset":23560,"componentType":5120,"count":12,"type":"VEC4","name":"part010_vertices#0_NORMAL"},{"bufferView":3,"byteOffset":23564,"componentType":5122,"count":12,"type":"VEC2","name":"part010_vertices#0_TEXCOORD_0"},{"bufferView":3,"byteOffset":23568,"componentType":5122,"count":12,"type":"VEC2","name":"part010_vertices#0_TEXCOORD_1"},{"bufferView":3,"byteOffset":23572,"componentType":5123,"count":12,"type":"VEC4","name":"part010_vertices#0_COLOR_0"},{"bufferView":4,"byteOffset":3768,"componentType":5123,"count":24,"type":"SCALAR","name":"part010_indices#0"},{"bufferView":3,"byteOffset":23976,"componentType":5126,"count":12,"min":[-0.8032100200653076,-0.2599799931049347,-0.05961000174283981],"max":[0.8032100200653076,0.2599799931049347,0.05961000174283981],"type":"VEC3","name":"part011_vertices#0_POSITION"},{"bufferView":3,"byteOffset":23988,"componentType":5120,"count":12,"type":"VEC4","name":"part011_vertices#0_TANGENT"},{"bufferView":3,"byteOffset":23992,"componentType":5120,"count":12,"type":"VEC4","name":"part011_vertices#0_NORMAL"},{"bufferView":3,"byteOffset":23996,"componentType":5122,"count":12,"type":"VEC2","name":"part011_vertices#0_TEXCOORD_0"},{"bufferView":3,"byteOffset":24000,"componentType":5122,"count":12,"type":"VEC2","name":"part011_vertices#0_TEXCOORD_1"},{"bufferView":3,"byteOffset":24004,"componentType":5123,"count":12,"type":"VEC4","name":"part011_vertices#0_COLOR_0"},{"bufferView":4,"byteOffset":3816,"componentType":5123,"count":24,"type":"SCALAR","name":"part011_indices#0"}],"animations":[{"name":"engine0","channels":[{"sampler":0,"target":{"node":11,"path":"rotation"}},{"sampler":1,"target":{"node":13,"path":"rotation"}},{"sampler":2,"target":{"node":31,"path":"rotation"}}],"samplers":[{"input":0,"output":1,"interpolation":"LINEAR"},{"input":2,"output":3,"interpolation":"LINEAR"},{"input":16,"output":17,"interpolation":"LINEAR"}]},{"name":"c_tire_blurred_key","channels":[{"sampler":0,"target":{"node":16,"path":"rotation"}},{"sampler":1,"target":{"node":18,"path":"rotation"}}],"samplers":[{"input":4,"output":5,"interpolation":"LINEAR"},{"input":6,"output":7,"interpolation":"LINEAR"}]},{"name":"r_tire_blurred_key","channels":[{"sampler":0,"target":{"node":21,"path":"rotation"}},{"sampler":1,"target":{"node":23,"path":"rotation"}}],"samplers":[{"input":8,"output":9,"interpolation":"LINEAR"},{"input":10,"output":11,"interpolation":"LINEAR"}]},{"name":"l_tire_blurred_key","channels":[{"sampler":0,"target":{"node":26,"path":"rotation"}},{"sampler":1,"target":{"node":28,"path":"rotation"}}],"samplers":[{"input":12,"output":13,"interpolation":"LINEAR"},{"input":14,"output":15,"interpolation":"LINEAR"}]},{"name":"custom_anim_FLAPS_SML_GA","channels":[{"sampler":0,"target":{"node":33,"path":"translation"}},{"sampler":1,"target":{"node":35,"path":"rotation"}},{"sampler":2,"target":{"node":37,"path":"translation"}},{"sampler":3,"target":{"node":39,"path":"rotation"}}],"samplers":[{"input":18,"output":19,"interpolation":"LINEAR"},{"input":20,"output":21,"interpolation":"LINEAR"},{"input":22,"output":23,"interpolation":"LINEAR"},{"input":24,"output":25,"interpolation":"LINEAR"}]}],"asset":{"generator":"ModelConverterX","version":"2.0","extensions":{"ASOBO_asset_optimized":{"BoundingBoxMax":[5.102630138397217,1.3632800579071046,1.9174000024795533],"BoundingBoxMin":[-5.102630138397217,-0.9451000094413757,-5.387609958648682],"MajorVersion":4,"MinorVersion":4,"UseCheckerboardMaterialForMissingTextures":true,"UseOnlyFilenameForImageURI":true}}},"bufferViews":[{"buffer":0,"byteLength":212,"byteStride":4},{"buffer":0,"byteLength":48,"byteStride":12,"byteOffset":212},{"buffer":0,"byteLength":784,"byteStride":16,"byteOffset":260},{"buffer":0,"byteLength":24408,"byteStride":36,"byteOffset":1044,"target":34962,"name":"BufferViewVertexND"},{"buffer":0,"byteLength":3864,"byteOffset":25452,"target":34963,"name":"BufferViewIndex"}],"extensionsRequired":["MSFT_texture_dds"],"materials":[{"name":"material00","pbrMetallicRoughness":{"baseColorFactor":[0.03921600058674812,0.03921600058674812,0.03921600058674812,1.0],"metallicFactor":0.0}},{"name":"material01","occlusionTexture":{"index":1},"emissiveFactor":[0.019607843831181527,0.019607843831181527,0.019607843831181527],"pbrMetallicRoughness":{"baseColorTexture":{"index":0},"metallicRoughnessTexture":{"index":1}}},{"name":"material02","alphaMode":"BLEND","pbrMetallicRoughness":{"baseColorFactor":[0.0,0.0,0.0,1.0],"metallicFactor":0.0,"baseColorTexture":{"index":2}}}],"meshes":[{"primitives":[{"attributes":{"COLOR_0":31,"NORMAL":28,"POSITION":26,"TANGENT":27,"TEXCOORD_0":29,"TEXCOORD_1":30},"indices":32,"material":1,"mode":4,"extras":{"ASOBO_primitive":{"PrimitiveCount":432,"VertexType":"VTX","VertexVersion":2}}}],"name":"part000"},{"primitives":[{"attributes":{"COLOR_0":38,"NORMAL":35,"POSITION":33,"TANGENT":34,"TEXCOORD_0":36,"TEXCOORD_1":37},"indices":39,"material":2,"mode":4,"extras":{"ASOBO_primitive":{"PrimitiveCount":32,"VertexType":"VTX","VertexVersion":2}}}],"name":"part001"},{"primitives":[{"attributes":{"COLOR_0":45,"NORMAL":42,"POSITION":40,"TANGENT":41,"TEXCOORD_0":43,"TEXCOORD_1":44},"indices":46,"material":2,"mode":4,"extras":{"ASOBO_primitive":{"PrimitiveCount":32,"VertexType":"VTX","VertexVersion":2}}}],"name":"part002"},{"primitives":[{"attributes":{"COLOR_0":52,"NORMAL":49,"POSITION":47,"TANGENT":48,"TEXCOORD_0":50,"TEXCOORD_1":51},"indices":53,"material":1,"mode":4,"extras":{"ASOBO_primitive":{"PrimitiveCount":16,"VertexType":"VTX","VertexVersion":2}}}],"name":"part003"},{"primitives":[{"attributes":{"COLOR_0":59,"NORMAL":56,"POSITION":54,"TANGENT":55,"TEXCOORD_0":57,"TEXCOORD_1":58},"indices":60,"material":0,"mode":4,"extras":{"ASOBO_primitive":{"PrimitiveCount":20,"VertexType":"VTX","VertexVersion":2}}}],"name":"part004"},{"primitives":[{"attributes":{"COLOR_0":66,"NORMAL":63,"POSITION":61,"TANGENT":62,"TEXCOORD_0":64,"TEXCOORD_1":65},"indices":67,"material":1,"mode":4,"extras":{"ASOBO_primitive":{"PrimitiveCount":16,"VertexType":"VTX","VertexVersion":2}}}],"name":"part005"},{"primitives":[{"attributes":{"COLOR_0":73,"NORMAL":70,"POSITION":68,"TANGENT":69,"TEXCOORD_0":71,"TEXCOORD_1":72},"indices":74,"material":0,"mode":4,"extras":{"ASOBO_primitive":{"PrimitiveCount":20,"VertexType":"VTX","VertexVersion":2}}}],"name":"part006"},{"primitives":[{"attributes":{"COLOR_0":80,"NORMAL":77,"POSITION":75,"TANGENT":76,"TEXCOORD_0":78,"TEXCOORD_1":79},"indices":81,"material":1,"mode":4,"extras":{"ASOBO_primitive":{"PrimitiveCount":16,"VertexType":"VTX","VertexVersion":2}}}],"name":"part007"},{"primitives":[{"attributes":{"COLOR_0":87,"NORMAL":84,"POSITION":82,"TANGENT":83,"TEXCOORD_0":85,"TEXCOORD_1":86},"indices":88,"material":0,"mode":4,"extras":{"ASOBO_primitive":{"PrimitiveCount":20,"VertexType":"VTX","VertexVersion":2}}}],"name":"part008"},{"primitives":[{"attributes":{"COLOR_0":94,"NORMAL":91,"POSITION":89,"TANGENT":90,"TEXCOORD_0":92,"TEXCOORD_1":93},"indices":95,"material":1,"mode":4,"extras":{"ASOBO_primitive":{"PrimitiveCount":24,"VertexType":"VTX","VertexVersion":2}}}],"name":"part009"},{"primitives":[{"attributes":{"COLOR_0":101,"NORMAL":98,"POSITION":96,"TANGENT":97,"TEXCOORD_0":99,"TEXCOORD_1":100},"indices":102,"material":1,"mode":4,"extras":{"ASOBO_primitive":{"PrimitiveCount":8,"VertexType":"VTX","VertexVersion":2}}}],"name":"part010"},{"primitives":[{"attributes":{"COLOR_0":108,"NORMAL":105,"POSITION":103,"TANGENT":104,"TEXCOORD_0":106,"TEXCOORD_1":107},"indices":109,"material":1,"mode":4,"extras":{"ASOBO_primitive":{"PrimitiveCount":8,"VertexType":"VTX","VertexVersion":2}}}],"name":"part011"}],"nodes":[{"name":"node_0","children":[1,2,3,4,5,6,7,8]},{"mesh":0,"name":"node_7"},{"translation":[-1.1799999475479127,-1.100000023841858,-0.5000000000000001],"rotation":[-6.123031769111886e-17,0.0,1.0,0.0],"scale":[1.0,1.0,1.0],"name":"r_tire1"},{"translation":[1.1799999475479127,-1.100000023841858,-0.49999999999999986],"rotation":[-6.123031769111886e-17,0.0,1.0,0.0],"scale":[1.0,1.0,1.0],"name":"l_tire1"},{"translation":[-1.2001142501034423e-16,-1.0499999523162842,0.9800000190734864],"rotation":[-6.123031769111886e-17,0.0,1.0,0.0],"scale":[1.0,1.0,1.0],"name":"c_tire1"},{"translation":[-0.05000000074505825,-0.1899999976158142,1.5399999618530272],"rotation":[-0.7071067811865475,-4.329637285359677e-17,-4.329637285359677e-17,0.7071067811865475],"scale":[1.0,1.0,1.0],"name":"Taxi_Light"},{"translation":[0.05000000074505787,-0.1899999976158142,1.5399999618530272],"rotation":[-0.7071067811865475,-4.329637285359677e-17,-4.329637285359677e-17,0.7071067811865475],"scale":[1.0,1.0,1.0],"name":"Landing_Light"},{"translation":[6.123031769111886e-16,0.0,-5.0],"rotation":[-6.123031769111886e-17,0.0,1.0,0.0],"scale":[1.0,1.0,1.0],"name":"contrail1"},{"translation":[0.0,0.0,0.0],"rotation":[-4.329637285359677e-17,0.7071067811865475,0.7071067811865475,4.329637285359677e-17],"scale":[1.0,1.0,1.0],"name":"node_24","children":[9,14,19,24,29,32,36]},{"translation":[0.0,1.6803970336914065,0.103022001683712],"rotation":[0.0,0.0,0.0,1.0],"scale":[1.0,1.0,1.0],"name":"node_25","children":[10,12]},{"name":"prop0_blurred_VC","children":[11]},{"mesh":1,"name":"engine0_AN_VC"},{"name":"prop0_slow_VC","children":[13]},{"mesh":2,"name":"ENGINE0_AN_VC_1"},{"translation":[0.0,1.0457019805908204,-0.8905689716339112],"rotation":[0.0,0.0,0.0,1.0],"scale":[1.0,1.0,1.0],"name":"node_34","children":[15,17]},{"name":"node_37","children":[16]},{"mesh":3,"name":"c_tire_blurred_key_AN_37"},{"name":"node_38","children":[18]},{"mesh":4,"name":"c_tire_blurred_key_AN_38"},{"translation":[1.1798050403594974,-0.44650301337242129,-0.8981879949569702],"rotation":[0.0,0.0,0.0,1.0],"scale":[1.0,1.0,1.0],"name":"node_41","children":[20,22]},{"name":"node_44","children":[21]},{"mesh":5,"name":"r_tire_blurred_key_AN_44"},{"name":"node_45","children":[23]},{"mesh":6,"name":"r_tire_blurred_key_AN_45"},{"translation":[-1.1798050403594974,-0.44650301337242129,-0.8981879949569702],"rotation":[0.0,0.0,0.0,1.0],"scale":[1.0,1.0,1.0],"name":"node_48","children":[25,27]},{"name":"node_51","children":[26]},{"mesh":7,"name":"l_tire_blurred_key_AN_51"},{"name":"node_52","children":[28]},{"mesh":8,"name":"l_tire_blurred_key_AN_52"},{"translation":[0.0,1.6794760227203368,0.09506499767303466],"rotation":[0.0,0.0,0.0,1.0],"scale":[1.0,1.0,1.0],"name":"node_55","children":[30]},{"name":"prop0_still_VC","children":[31]},{"mesh":9,"name":"ENGINE0_AN_VC_2"},{"translation":[-1.3894939422607422,-0.968896985054016,0.5693299770355225],"rotation":[0.0,0.0,0.0,1.0],"scale":[1.0,1.0,1.0],"name":"node_66","children":[33]},{"name":"custom_anim_FLAPS_SML_GA_AN_66","children":[34]},{"name":"node_67","children":[35]},{"mesh":10,"name":"custom_anim_FLAPS_SML_GA_AN_67"},{"translation":[1.3894939422607422,-0.968896985054016,0.5693299770355225],"rotation":[0.0,0.0,0.0,1.0],"scale":[1.0,1.0,1.0],"name":"node_72","children":[37]},{"name":"custom_anim_FLAPS_SML_GA_AN_72","children":[38]},{"name":"node_73","children":[39]},{"mesh":11,"name":"custom_anim_FLAPS_SML_GA_AN_73"}],"scene":0,"scenes":[{"nodes":[0]}],"textures":[{"extensions":{"MSFT_texture_dds":{"source":0}}},{"extensions":{"MSFT_texture_dds":{"source":1}}},{"extensions":{"MSFT_texture_dds":{"source":2}}}],"extensionsUsed":["MSFT_texture_dds","ASOBO_asset_optimized"],"buffers":[{"byteLength":29316,"uri":"HTAI Cessna 152 MSFS_LOD2.bin"}],"images":[{"uri":"HTAI_C152.PNG.DDS","extras":"ASOBO_image_converted_meta"},{"uri":"HTAI_C152_C.PNG.DDS","extras":"ASOBO_image_converted_meta"},{"uri":"PROP-HS.PNG.DDS","extras":"ASOBO_image_converted_meta"}]}
