{"accessors":[{"bufferView":0,"componentType":5126,"count":5,"min":[0.0],"max":[100.0],"type":"SCALAR"},{"bufferView":1,"componentType":5126,"count":5,"type":"VEC4"},{"bufferView":0,"byteOffset":20,"componentType":5126,"count":5,"min":[0.0],"max":[100.0],"type":"SCALAR"},{"bufferView":1,"byteOffset":80,"componentType":5126,"count":5,"type":"VEC4"},{"bufferView":0,"byteOffset":40,"componentType":5126,"count":5,"min":[0.0],"max":[100.0],"type":"SCALAR"},{"bufferView":1,"byteOffset":160,"componentType":5126,"count":5,"type":"VEC4"},{"bufferView":0,"byteOffset":60,"componentType":5126,"count":5,"min":[0.0],"max":[100.0],"type":"SCALAR"},{"bufferView":1,"byteOffset":240,"componentType":5126,"count":5,"type":"VEC4"},{"bufferView":0,"byteOffset":80,"componentType":5126,"count":5,"min":[0.0],"max":[100.0],"type":"SCALAR"},{"bufferView":1,"byteOffset":320,"componentType":5126,"count":5,"type":"VEC4"},{"bufferView":0,"byteOffset":100,"componentType":5126,"count":5,"min":[0.0],"max":[100.0],"type":"SCALAR"},{"bufferView":1,"byteOffset":400,"componentType":5126,"count":5,"type":"VEC4"},{"bufferView":0,"byteOffset":120,"componentType":5126,"count":4,"min":[0.0],"max":[200.0],"type":"SCALAR"},{"bufferView":1,"byteOffset":480,"componentType":5126,"count":4,"type":"VEC4"},{"bufferView":0,"byteOffset":136,"componentType":5126,"count":5,"min":[0.0],"max":[100.0],"type":"SCALAR"},{"bufferView":1,"byteOffset":544,"componentType":5126,"count":5,"type":"VEC4"},{"bufferView":0,"byteOffset":156,"componentType":5126,"count":5,"min":[0.0],"max":[100.0],"type":"SCALAR"},{"bufferView":1,"byteOffset":624,"componentType":5126,"count":5,"type":"VEC4"},{"bufferView":2,"componentType":5126,"count":3,"min":[-0.10296999663114548,-0.7710700035095215,3.6588799953460695],"max":[0.10296999663114548,-0.7710700035095215,3.835599899291992],"type":"VEC3","name":"part000_vertices#0_POSITION"},{"bufferView":2,"byteOffset":12,"componentType":5120,"count":3,"type":"VEC4","name":"part000_vertices#0_TANGENT"},{"bufferView":2,"byteOffset":16,"componentType":5120,"count":3,"type":"VEC4","name":"part000_vertices#0_NORMAL"},{"bufferView":2,"byteOffset":20,"componentType":5122,"count":3,"type":"VEC2","name":"part000_vertices#0_TEXCOORD_0"},{"bufferView":2,"byteOffset":24,"componentType":5122,"count":3,"type":"VEC2","name":"part000_vertices#0_TEXCOORD_1"},{"bufferView":2,"byteOffset":28,"componentType":5123,"count":3,"type":"VEC4","name":"part000_vertices#0_COLOR_0"},{"bufferView":3,"componentType":5123,"count":3,"type":"SCALAR","name":"part000_indices#0"},{"bufferView":2,"byteOffset":108,"componentType":5126,"count":20,"min":[-0.10089000314474106,-1.3479499816894532,3.6335599422454836],"max":[0.10089000314474106,-0.6804900169372559,3.7883200645446779],"type":"VEC3","name":"part001_vertices#0_POSITION"},{"bufferView":2,"byteOffset":120,"componentType":5120,"count":20,"type":"VEC4","name":"part001_vertices#0_TANGENT"},{"bufferView":2,"byteOffset":124,"componentType":5120,"count":20,"type":"VEC4","name":"part001_vertices#0_NORMAL"},{"bufferView":2,"byteOffset":128,"componentType":5122,"count":20,"type":"VEC2","name":"part001_vertices#0_TEXCOORD_0"},{"bufferView":2,"byteOffset":132,"componentType":5122,"count":20,"type":"VEC2","name":"part001_vertices#0_TEXCOORD_1"},{"bufferView":2,"byteOffset":136,"componentType":5123,"count":20,"type":"VEC4","name":"part001_vertices#0_COLOR_0"},{"bufferView":3,"byteOffset":6,"componentType":5123,"count":48,"type":"SCALAR","name":"part001_indices#0"},{"bufferView":2,"byteOffset":828,"componentType":5126,"count":8,"min":[-3.1565101146698,0.5806400179862976,-7.115560054779053],"max":[3.1565101146698,0.6781799793243408,-6.236820220947266],"type":"VEC3","name":"part002_vertices#0_POSITION"},{"bufferView":2,"byteOffset":840,"componentType":5120,"count":8,"type":"VEC4","name":"part002_vertices#0_TANGENT"},{"bufferView":2,"byteOffset":844,"componentType":5120,"count":8,"type":"VEC4","name":"part002_vertices#0_NORMAL"},{"bufferView":2,"byteOffset":848,"componentType":5122,"count":8,"type":"VEC2","name":"part002_vertices#0_TEXCOORD_0"},{"bufferView":2,"byteOffset":852,"componentType":5122,"count":8,"type":"VEC2","name":"part002_vertices#0_TEXCOORD_1"},{"bufferView":2,"byteOffset":856,"componentType":5123,"count":8,"type":"VEC4","name":"part002_vertices#0_COLOR_0"},{"bufferView":3,"byteOffset":102,"componentType":5123,"count":12,"type":"SCALAR","name":"part002_indices#0"},{"bufferView":2,"byteOffset":1116,"componentType":5126,"count":495,"min":[-7.872680187225342,-1.3115500211715699,-7.794040203094482],"max":[7.872680187225342,3.0348899364471437,4.925429821014404],"type":"VEC3","name":"part003_vertices#0_POSITION"},{"bufferView":2,"byteOffset":1128,"componentType":5120,"count":495,"type":"VEC4","name":"part003_vertices#0_TANGENT"},{"bufferView":2,"byteOffset":1132,"componentType":5120,"count":495,"type":"VEC4","name":"part003_vertices#0_NORMAL"},{"bufferView":2,"byteOffset":1136,"componentType":5122,"count":495,"type":"VEC2","name":"part003_vertices#0_TEXCOORD_0"},{"bufferView":2,"byteOffset":1140,"componentType":5122,"count":495,"type":"VEC2","name":"part003_vertices#0_TEXCOORD_1"},{"bufferView":2,"byteOffset":1144,"componentType":5123,"count":495,"type":"VEC4","name":"part003_vertices#0_COLOR_0"},{"bufferView":3,"byteOffset":126,"componentType":5123,"count":1623,"type":"SCALAR","name":"part003_indices#0"},{"bufferView":2,"byteOffset":18936,"componentType":5126,"count":20,"min":[-0.08243999630212784,-0.28988000750541689,-0.30480000376701357],"max":[0.08243999630212784,0.28988000750541689,0.30480000376701357],"type":"VEC3","name":"part004_vertices#0_POSITION"},{"bufferView":2,"byteOffset":18948,"componentType":5120,"count":20,"type":"VEC4","name":"part004_vertices#0_TANGENT"},{"bufferView":2,"byteOffset":18952,"componentType":5120,"count":20,"type":"VEC4","name":"part004_vertices#0_NORMAL"},{"bufferView":2,"byteOffset":18956,"componentType":5122,"count":20,"type":"VEC2","name":"part004_vertices#0_TEXCOORD_0"},{"bufferView":2,"byteOffset":18960,"componentType":5122,"count":20,"type":"VEC2","name":"part004_vertices#0_TEXCOORD_1"},{"bufferView":2,"byteOffset":18964,"componentType":5123,"count":20,"type":"VEC4","name":"part004_vertices#0_COLOR_0"},{"bufferView":3,"byteOffset":3372,"componentType":5123,"count":60,"type":"SCALAR","name":"part004_indices#0"},{"bufferView":2,"byteOffset":19656,"componentType":5126,"count":20,"min":[-0.08243999630212784,-0.28988000750541689,-0.30480000376701357],"max":[0.08243999630212784,0.28988000750541689,0.30480000376701357],"type":"VEC3","name":"part005_vertices#0_POSITION"},{"bufferView":2,"byteOffset":19668,"componentType":5120,"count":20,"type":"VEC4","name":"part005_vertices#0_TANGENT"},{"bufferView":2,"byteOffset":19672,"componentType":5120,"count":20,"type":"VEC4","name":"part005_vertices#0_NORMAL"},{"bufferView":2,"byteOffset":19676,"componentType":5122,"count":20,"type":"VEC2","name":"part005_vertices#0_TEXCOORD_0"},{"bufferView":2,"byteOffset":19680,"componentType":5122,"count":20,"type":"VEC2","name":"part005_vertices#0_TEXCOORD_1"},{"bufferView":2,"byteOffset":19684,"componentType":5123,"count":20,"type":"VEC4","name":"part005_vertices#0_COLOR_0"},{"bufferView":3,"byteOffset":3492,"componentType":5123,"count":48,"type":"SCALAR","name":"part005_indices#0"},{"bufferView":2,"byteOffset":20376,"componentType":5126,"count":20,"min":[-0.08243999630212784,-0.28988000750541689,-0.30480000376701357],"max":[0.08243999630212784,0.28988000750541689,0.30480000376701357],"type":"VEC3","name":"part006_vertices#0_POSITION"},{"bufferView":2,"byteOffset":20388,"componentType":5120,"count":20,"type":"VEC4","name":"part006_vertices#0_TANGENT"},{"bufferView":2,"byteOffset":20392,"componentType":5120,"count":20,"type":"VEC4","name":"part006_vertices#0_NORMAL"},{"bufferView":2,"byteOffset":20396,"componentType":5122,"count":20,"type":"VEC2","name":"part006_vertices#0_TEXCOORD_0"},{"bufferView":2,"byteOffset":20400,"componentType":5122,"count":20,"type":"VEC2","name":"part006_vertices#0_TEXCOORD_1"},{"bufferView":2,"byteOffset":20404,"componentType":5123,"count":20,"type":"VEC4","name":"part006_vertices#0_COLOR_0"},{"bufferView":3,"byteOffset":3588,"componentType":5123,"count":60,"type":"SCALAR","name":"part006_indices#0"},{"bufferView":2,"byteOffset":21096,"componentType":5126,"count":20,"min":[-0.08243999630212784,-0.28988000750541689,-0.30480000376701357],"max":[0.08243999630212784,0.28988000750541689,0.30480000376701357],"type":"VEC3","name":"part007_vertices#0_POSITION"},{"bufferView":2,"byteOffset":21108,"componentType":5120,"count":20,"type":"VEC4","name":"part007_vertices#0_TANGENT"},{"bufferView":2,"byteOffset":21112,"componentType":5120,"count":20,"type":"VEC4","name":"part007_vertices#0_NORMAL"},{"bufferView":2,"byteOffset":21116,"componentType":5122,"count":20,"type":"VEC2","name":"part007_vertices#0_TEXCOORD_0"},{"bufferView":2,"byteOffset":21120,"componentType":5122,"count":20,"type":"VEC2","name":"part007_vertices#0_TEXCOORD_1"},{"bufferView":2,"byteOffset":21124,"componentType":5123,"count":20,"type":"VEC4","name":"part007_vertices#0_COLOR_0"},{"bufferView":3,"byteOffset":3708,"componentType":5123,"count":48,"type":"SCALAR","name":"part007_indices#0"},{"bufferView":2,"byteOffset":21816,"componentType":5126,"count":34,"min":[-1.267259955406189,0.0,-1.267259955406189],"max":[1.267259955406189,0.0,1.267259955406189],"type":"VEC3","name":"part008_vertices#0_POSITION"},{"bufferView":2,"byteOffset":21828,"componentType":5120,"count":34,"type":"VEC4","name":"part008_vertices#0_TANGENT"},{"bufferView":2,"byteOffset":21832,"componentType":5120,"count":34,"type":"VEC4","name":"part008_vertices#0_NORMAL"},{"bufferView":2,"byteOffset":21836,"componentType":5122,"count":34,"type":"VEC2","name":"part008_vertices#0_TEXCOORD_0"},{"bufferView":2,"byteOffset":21840,"componentType":5122,"count":34,"type":"VEC2","name":"part008_vertices#0_TEXCOORD_1"},{"bufferView":2,"byteOffset":21844,"componentType":5123,"count":34,"type":"VEC4","name":"part008_vertices#0_COLOR_0"},{"bufferView":3,"byteOffset":3804,"componentType":5123,"count":96,"type":"SCALAR","name":"part008_indices#0"},{"bufferView":2,"byteOffset":23040,"componentType":5126,"count":48,"min":[-1.0951299667358399,-0.0843999981880188,-1.264549970626831],"max":[1.0951299667358399,0.09040000289678574,0.6322799921035767],"type":"VEC3","name":"part009_vertices#0_POSITION"},{"bufferView":2,"byteOffset":23052,"componentType":5120,"count":48,"type":"VEC4","name":"part009_vertices#0_TANGENT"},{"bufferView":2,"byteOffset":23056,"componentType":5120,"count":48,"type":"VEC4","name":"part009_vertices#0_NORMAL"},{"bufferView":2,"byteOffset":23060,"componentType":5122,"count":48,"type":"VEC2","name":"part009_vertices#0_TEXCOORD_0"},{"bufferView":2,"byteOffset":23064,"componentType":5122,"count":48,"type":"VEC2","name":"part009_vertices#0_TEXCOORD_1"},{"bufferView":2,"byteOffset":23068,"componentType":5123,"count":48,"type":"VEC4","name":"part009_vertices#0_COLOR_0"},{"bufferView":3,"byteOffset":3996,"componentType":5123,"count":108,"type":"SCALAR","name":"part009_indices#0"},{"bufferView":2,"byteOffset":24768,"componentType":5126,"count":20,"min":[-0.06609000265598297,-0.24188999831676484,-0.2543399930000305],"max":[0.06609000265598297,0.24188999831676484,0.2543399930000305],"type":"VEC3","name":"part010_vertices#0_POSITION"},{"bufferView":2,"byteOffset":24780,"componentType":5120,"count":20,"type":"VEC4","name":"part010_vertices#0_TANGENT"},{"bufferView":2,"byteOffset":24784,"componentType":5120,"count":20,"type":"VEC4","name":"part010_vertices#0_NORMAL"},{"bufferView":2,"byteOffset":24788,"componentType":5122,"count":20,"type":"VEC2","name":"part010_vertices#0_TEXCOORD_0"},{"bufferView":2,"byteOffset":24792,"componentType":5122,"count":20,"type":"VEC2","name":"part010_vertices#0_TEXCOORD_1"},{"bufferView":2,"byteOffset":24796,"componentType":5123,"count":20,"type":"VEC4","name":"part010_vertices#0_COLOR_0"},{"bufferView":3,"byteOffset":4212,"componentType":5123,"count":60,"type":"SCALAR","name":"part010_indices#0"},{"bufferView":2,"byteOffset":25488,"componentType":5126,"count":20,"min":[-0.06609000265598297,-0.24188999831676484,-0.2543399930000305],"max":[0.06609000265598297,0.24188999831676484,0.2543399930000305],"type":"VEC3","name":"part011_vertices#0_POSITION"},{"bufferView":2,"byteOffset":25500,"componentType":5120,"count":20,"type":"VEC4","name":"part011_vertices#0_TANGENT"},{"bufferView":2,"byteOffset":25504,"componentType":5120,"count":20,"type":"VEC4","name":"part011_vertices#0_NORMAL"},{"bufferView":2,"byteOffset":25508,"componentType":5122,"count":20,"type":"VEC2","name":"part011_vertices#0_TEXCOORD_0"},{"bufferView":2,"byteOffset":25512,"componentType":5122,"count":20,"type":"VEC2","name":"part011_vertices#0_TEXCOORD_1"},{"bufferView":2,"byteOffset":25516,"componentType":5123,"count":20,"type":"VEC4","name":"part011_vertices#0_COLOR_0"},{"bufferView":3,"byteOffset":4332,"componentType":5123,"count":48,"type":"SCALAR","name":"part011_indices#0"}],"animations":[{"name":"r_tire_blurred_key","channels":[{"sampler":0,"target":{"node":16,"path":"rotation"}},{"sampler":1,"target":{"node":18,"path":"rotation"}}],"samplers":[{"input":0,"output":1,"interpolation":"LINEAR"},{"input":2,"output":3,"interpolation":"LINEAR"}]},{"name":"l_tire_blurred_key","channels":[{"sampler":0,"target":{"node":21,"path":"rotation"}},{"sampler":1,"target":{"node":23,"path":"rotation"}}],"samplers":[{"input":4,"output":5,"interpolation":"LINEAR"},{"input":6,"output":7,"interpolation":"LINEAR"}]},{"name":"engine0","channels":[{"sampler":0,"target":{"node":25,"path":"rotation"}},{"sampler":1,"target":{"node":28,"path":"rotation"}}],"samplers":[{"input":8,"output":9,"interpolation":"LINEAR"},{"input":10,"output":11,"interpolation":"LINEAR"}]},{"name":"custom_anim_C_WHEEL_LR","channels":[{"sampler":0,"target":{"node":31,"path":"rotation"}}],"samplers":[{"input":12,"output":13,"interpolation":"LINEAR"}]},{"name":"c_tire_blurred_key","channels":[{"sampler":0,"target":{"node":33,"path":"rotation"}},{"sampler":1,"target":{"node":35,"path":"rotation"}}],"samplers":[{"input":14,"output":15,"interpolation":"LINEAR"},{"input":16,"output":17,"interpolation":"LINEAR"}]}],"asset":{"generator":"ModelConverterX","version":"2.0","extensions":{"ASOBO_asset_optimized":{"BoundingBoxMax":[7.872680187225342,3.0348899364471437,4.925429821014404],"BoundingBoxMin":[-7.872680187225342,-1.3479499816894532,-7.794040203094482],"MajorVersion":4,"MinorVersion":4,"UseCheckerboardMaterialForMissingTextures":true,"UseOnlyFilenameForImageURI":true}}},"bufferViews":[{"buffer":0,"byteLength":176,"byteStride":4},{"buffer":0,"byteLength":704,"byteStride":16,"byteOffset":176},{"buffer":0,"byteLength":26208,"byteStride":36,"byteOffset":880,"target":34962,"name":"BufferViewVertexND"},{"buffer":0,"byteLength":4428,"byteOffset":27088,"target":34963,"name":"BufferViewIndex"}],"extensionsRequired":["MSFT_texture_dds"],"materials":[{"name":"material00","occlusionTexture":{"index":1},"emissiveTexture":{"index":2},"emissiveFactor":[0.019607843831181527,0.019607843831181527,0.019607843831181527],"pbrMetallicRoughness":{"baseColorTexture":{"index":0},"metallicRoughnessTexture":{"index":1}},"extensions":{"ASOBO_material_day_night_switch":{}}},{"name":"material01","pbrMetallicRoughness":{"baseColorFactor":[0.03921600058674812,0.03921600058674812,0.03921600058674812,1.0],"metallicFactor":0.0}},{"name":"material02","pbrMetallicRoughness":{"baseColorFactor":[0.7529410123825073,0.7529410123825073,0.7529410123825073,1.0],"metallicFactor":0.0}},{"name":"material03","pbrMetallicRoughness":{"metallicFactor":0.0}},{"name":"material04","alphaMode":"BLEND","pbrMetallicRoughness":{"baseColorFactor":[0.0,0.0,0.0,0.9803919792175292],"metallicFactor":0.0,"baseColorTexture":{"index":3}}}],"meshes":[{"primitives":[{"attributes":{"COLOR_0":23,"NORMAL":20,"POSITION":18,"TANGENT":19,"TEXCOORD_0":21,"TEXCOORD_1":22},"indices":24,"material":1,"mode":4,"extras":{"ASOBO_primitive":{"PrimitiveCount":1,"VertexType":"VTX","VertexVersion":2}}}],"name":"part000"},{"primitives":[{"attributes":{"COLOR_0":30,"NORMAL":27,"POSITION":25,"TANGENT":26,"TEXCOORD_0":28,"TEXCOORD_1":29},"indices":31,"material":3,"mode":4,"extras":{"ASOBO_primitive":{"PrimitiveCount":16,"VertexType":"VTX","VertexVersion":2}}}],"name":"part001"},{"primitives":[{"attributes":{"COLOR_0":37,"NORMAL":34,"POSITION":32,"TANGENT":33,"TEXCOORD_0":35,"TEXCOORD_1":36},"indices":38,"material":2,"mode":4,"extras":{"ASOBO_primitive":{"PrimitiveCount":4,"VertexType":"VTX","VertexVersion":2}}}],"name":"part002"},{"primitives":[{"attributes":{"COLOR_0":44,"NORMAL":41,"POSITION":39,"TANGENT":40,"TEXCOORD_0":42,"TEXCOORD_1":43},"indices":45,"material":0,"mode":4,"extras":{"ASOBO_primitive":{"PrimitiveCount":541,"VertexType":"VTX","VertexVersion":2}}}],"name":"part003"},{"primitives":[{"attributes":{"COLOR_0":51,"NORMAL":48,"POSITION":46,"TANGENT":47,"TEXCOORD_0":49,"TEXCOORD_1":50},"indices":52,"material":1,"mode":4,"extras":{"ASOBO_primitive":{"PrimitiveCount":20,"VertexType":"VTX","VertexVersion":2}}}],"name":"part004"},{"primitives":[{"attributes":{"COLOR_0":58,"NORMAL":55,"POSITION":53,"TANGENT":54,"TEXCOORD_0":56,"TEXCOORD_1":57},"indices":59,"material":0,"mode":4,"extras":{"ASOBO_primitive":{"PrimitiveCount":16,"VertexType":"VTX","VertexVersion":2}}}],"name":"part005"},{"primitives":[{"attributes":{"COLOR_0":65,"NORMAL":62,"POSITION":60,"TANGENT":61,"TEXCOORD_0":63,"TEXCOORD_1":64},"indices":66,"material":1,"mode":4,"extras":{"ASOBO_primitive":{"PrimitiveCount":20,"VertexType":"VTX","VertexVersion":2}}}],"name":"part006"},{"primitives":[{"attributes":{"COLOR_0":72,"NORMAL":69,"POSITION":67,"TANGENT":68,"TEXCOORD_0":70,"TEXCOORD_1":71},"indices":73,"material":0,"mode":4,"extras":{"ASOBO_primitive":{"PrimitiveCount":16,"VertexType":"VTX","VertexVersion":2}}}],"name":"part007"},{"primitives":[{"attributes":{"COLOR_0":79,"NORMAL":76,"POSITION":74,"TANGENT":75,"TEXCOORD_0":77,"TEXCOORD_1":78},"indices":80,"material":4,"mode":4,"extras":{"ASOBO_primitive":{"PrimitiveCount":32,"VertexType":"VTX","VertexVersion":2}}}],"name":"part008"},{"primitives":[{"attributes":{"COLOR_0":86,"NORMAL":83,"POSITION":81,"TANGENT":82,"TEXCOORD_0":84,"TEXCOORD_1":85},"indices":87,"material":0,"mode":4,"extras":{"ASOBO_primitive":{"PrimitiveCount":36,"VertexType":"VTX","VertexVersion":2}}}],"name":"part009"},{"primitives":[{"attributes":{"COLOR_0":93,"NORMAL":90,"POSITION":88,"TANGENT":89,"TEXCOORD_0":91,"TEXCOORD_1":92},"indices":94,"material":1,"mode":4,"extras":{"ASOBO_primitive":{"PrimitiveCount":20,"VertexType":"VTX","VertexVersion":2}}}],"name":"part010"},{"primitives":[{"attributes":{"COLOR_0":100,"NORMAL":97,"POSITION":95,"TANGENT":96,"TEXCOORD_0":98,"TEXCOORD_1":99},"indices":101,"material":0,"mode":4,"extras":{"ASOBO_primitive":{"PrimitiveCount":16,"VertexType":"VTX","VertexVersion":2}}}],"name":"part011"}],"nodes":[{"name":"node_0","children":[1,2,3,4,5,6,7,8,9,10,11,12,13]},{"mesh":0,"name":"node_5"},{"mesh":1,"name":"node_6"},{"mesh":2,"name":"node_7"},{"mesh":3,"name":"cabin_lights_VC"},{"translation":[-4.800000190734863,1.0,0.8000000119209284],"rotation":[-0.7071067811865475,0.0,0.0,0.7071067811865475],"scale":[1.0,1.0,1.0],"name":"taxi_r"},{"translation":[4.800000190734863,1.0,0.8000000119209294],"rotation":[-0.7071067811865475,0.0,0.0,0.7071067811865475],"scale":[1.0,1.0,1.0],"name":"taxi_l"},{"translation":[-5.0,1.0,0.8000000119209283],"rotation":[-0.7071067811865475,0.0,0.0,0.7071067811865475],"scale":[1.0,1.0,1.0],"name":"landing_r"},{"translation":[5.0,1.0,0.8000000119209296],"rotation":[-0.7071067811865475,0.0,0.0,0.7071067811865475],"scale":[1.0,1.0,1.0],"name":"landing_l"},{"translation":[9.796850830579017e-16,0.0,-8.0],"rotation":[-6.123031769111886e-17,3.061515884555943e-17,1.0,1.874575902277672e-33],"scale":[1.0,1.0,1.0],"name":"contrail1"},{"translation":[-4.531043567536577e-16,-1.5,3.700000047683716],"rotation":[-6.123031769111886e-17,3.061515884555943e-17,1.0,1.874575902277672e-33],"scale":[1.0,1.0,1.0],"name":"c_tire1"},{"translation":[1.7999999523162842,-1.5,-0.30000001192092876],"rotation":[-6.123031769111886e-17,3.061515884555943e-17,1.0,1.874575902277672e-33],"scale":[1.0,1.0,1.0],"name":"l_tire1"},{"translation":[-1.7999999523162842,-1.5,-0.3000000119209292],"rotation":[-6.123031769111886e-17,3.061515884555943e-17,1.0,1.874575902277672e-33],"scale":[1.0,1.0,1.0],"name":"r_tire1"},{"translation":[0.0,0.0,0.0],"rotation":[-4.329637285359677e-17,0.7071067811865475,0.7071067811865475,4.329637285359677e-17],"scale":[1.0,1.0,1.0],"name":"node_27","children":[14,19,24,27,30]},{"translation":[1.8092930316925049,-0.2965700030326843,-1.227429986000061],"rotation":[0.0,0.0,0.0,1.0],"scale":[1.0,1.0,1.0],"name":"node_32","children":[15,17]},{"name":"node_33","children":[16]},{"mesh":4,"name":"r_tire_blurred_key_AN_33"},{"name":"node_34","children":[18]},{"mesh":5,"name":"r_tire_blurred_key_AN_34"},{"translation":[-1.8092930316925049,-0.2965700030326843,-1.227429986000061],"rotation":[0.0,0.0,0.0,1.0],"scale":[1.0,1.0,1.0],"name":"node_37","children":[20,22]},{"name":"node_38","children":[21]},{"mesh":6,"name":"l_tire_blurred_key_AN_38"},{"name":"node_39","children":[23]},{"mesh":7,"name":"l_tire_blurred_key_AN_39"},{"translation":[0.0,4.529633045196533,0.04267200082540512],"rotation":[0.0,0.0,0.0,1.0],"scale":[1.0,1.0,1.0],"name":"node_42","children":[25]},{"name":"engine0_AN_42","children":[26]},{"mesh":8,"name":"prop0_blurred_VC"},{"translation":[0.0,4.529327869415283,0.04267200082540512],"rotation":[0.0,0.0,0.0,1.0],"scale":[1.0,1.0,1.0],"name":"node_47","children":[28]},{"name":"engine0_AN_47","children":[29]},{"mesh":9,"name":"prop0_still_VC"},{"translation":[0.0,3.744772911071778,-1.3005820512771607],"rotation":[0.0,0.0,0.0,1.0],"scale":[1.0,1.0,1.0],"name":"node_52","children":[31]},{"name":"custom_anim_C_WHEEL_LR_AN_52","children":[32,34]},{"name":"node_53","children":[33]},{"mesh":10,"name":"c_tire_blurred_key_AN_53"},{"name":"node_54","children":[35]},{"mesh":11,"name":"c_tire_blurred_key_AN_54"}],"scene":0,"scenes":[{"nodes":[0]}],"textures":[{"extensions":{"MSFT_texture_dds":{"source":0}}},{"extensions":{"MSFT_texture_dds":{"source":1}}},{"extensions":{"MSFT_texture_dds":{"source":2}}},{"extensions":{"MSFT_texture_dds":{"source":3}}}],"extensionsUsed":["ASOBO_material_day_night_switch","MSFT_texture_dds","ASOBO_asset_optimized"],"buffers":[{"byteLength":31516,"uri":"HTAI Cessna C208B Cargo Pod MSFS_LOD2.bin"}],"images":[{"uri":"AIC208B.PNG.DDS","extras":"ASOBO_image_converted_meta"},{"uri":"AIC208B_C.PNG.DDS","extras":"ASOBO_image_converted_meta"},{"uri":"CABIN_LIGHTS.PNG.DDS","extras":"ASOBO_image_converted_meta"},{"uri":"PROP-HS.PNG.DDS","extras":"ASOBO_image_converted_meta"}]}
