{"accessors":[{"bufferView":0,"componentType":5126,"count":39,"min":[0.0],"max":[100.0],"type":"SCALAR"},{"bufferView":1,"componentType":5126,"count":39,"type":"VEC4"},{"bufferView":2,"componentType":5126,"count":62,"min":[-11.916000366210938,-1.2640000581741334,-12.199999809265137],"max":[11.916000366210938,5.627999782562256,10.383999824523926],"type":"VEC3","name":"part000_vertices#0_POSITION"},{"bufferView":2,"byteOffset":12,"componentType":5120,"count":62,"type":"VEC4","name":"part000_vertices#0_TANGENT"},{"bufferView":2,"byteOffset":16,"componentType":5120,"count":62,"type":"VEC4","name":"part000_vertices#0_NORMAL"},{"bufferView":2,"byteOffset":20,"componentType":5122,"count":62,"type":"VEC2","name":"part000_vertices#0_TEXCOORD_0"},{"bufferView":2,"byteOffset":24,"componentType":5122,"count":62,"type":"VEC2","name":"part000_vertices#0_TEXCOORD_1"},{"bufferView":2,"byteOffset":28,"componentType":5123,"count":62,"type":"VEC4","name":"part000_vertices#0_COLOR_0"},{"bufferView":3,"componentType":5123,"count":90,"type":"SCALAR","name":"part000_indices#0"}],"animations":[{"name":"c_gear","channels":[{"sampler":0,"target":{"node":16,"path":"rotation"}}],"samplers":[{"input":0,"output":1,"interpolation":"LINEAR"}]}],"asset":{"generator":"ModelConverterX","version":"2.0","extensions":{"ASOBO_asset_optimized":{"BoundingBoxMax":[11.916000366210938,5.627999782562256,10.383999824523926],"BoundingBoxMin":[-11.916000366210938,-1.2640000581741334,-12.199999809265137],"MajorVersion":4,"MinorVersion":4,"UseCheckerboardMaterialForMissingTextures":true,"UseOnlyFilenameForImageURI":true}}},"bufferViews":[{"buffer":0,"byteLength":156,"byteStride":4},{"buffer":0,"byteLength":624,"byteStride":16,"byteOffset":156},{"buffer":0,"byteLength":2232,"byteStride":36,"byteOffset":780,"target":34962,"name":"BufferViewVertexND"},{"buffer":0,"byteLength":180,"byteOffset":3012,"target":34963,"name":"BufferViewIndex"}],"extensionsRequired":["MSFT_texture_dds"],"materials":[{"name":"material00","emissiveTexture":{"index":1},"emissiveFactor":[0.019607843831181527,0.019607843831181527,0.019607843831181527],"pbrMetallicRoughness":{"metallicFactor":0.0,"baseColorTexture":{"index":0}}}],"meshes":[{"primitives":[{"attributes":{"COLOR_0":7,"NORMAL":4,"POSITION":2,"TANGENT":3,"TEXCOORD_0":5,"TEXCOORD_1":6},"indices":8,"material":0,"mode":4,"extras":{"ASOBO_primitive":{"PrimitiveCount":30,"VertexType":"VTX","VertexVersion":2}}}],"name":"part000"}],"nodes":[{"name":"node_0","children":[1,2,3,4,5,6,7,8,9,10,11,12,13]},{"mesh":0,"name":"node_1"},{"translation":[4.0,1.0,-0.4999999999999995],"rotation":[-6.123031769111886e-17,3.061515884555943e-17,1.0,1.874575902277672e-33],"scale":[1.0,1.0,1.0],"name":"contrail1"},{"translation":[1.4299999475479118,0.12999999523162843,6.550000190734863],"rotation":[-0.04538423055219841,0.4798116481729325,0.8259818022404238,0.29236127695442218],"scale":[1.0,1.0,1.0],"name":"wing_l"},{"translation":[-1.4299999475479138,0.12999999523162843,6.769999980926514],"rotation":[0.04538423055219832,0.4798116481729324,0.8259818022404238,-0.2923612769544221],"scale":[1.0,1.0,1.0],"name":"wing_r"},{"translation":[1.419999957084657,4.71999979019165,-10.229999542236329],"rotation":[-0.23773139887181664,-0.3596398410760263,-0.21879674473516345,0.8753690371463657],"scale":[1.0,1.0,1.0],"name":"logo_l"},{"translation":[-1.4199999570846545,4.71999979019165,-10.229999542236329],"rotation":[-0.23773139887181669,0.3596398410760262,0.21879674473516345,0.8753690371463657],"scale":[1.0,1.0,1.0],"name":"logo_r"},{"translation":[1.070000052452087,-0.9900000095367432,3.0299999713897707],"rotation":[-0.7071067811865475,0.0,0.0,0.7071067811865475],"scale":[1.0,1.0,1.0],"name":"landing_l"},{"translation":[-1.0700000524520879,-0.9900000095367432,3.0299999713897707],"rotation":[-0.7064337722128922,-0.030843564597232106,-0.030843564597232106,0.7064337722128922],"scale":[1.0,1.0,1.0],"name":"landing_r"},{"translation":[-4.0,1.0,-0.5000000000000004],"rotation":[-6.123031769111886e-17,3.061515884555943e-17,1.0,1.874575902277672e-33],"scale":[1.0,1.0,1.0],"name":"contrail2"},{"translation":[-1.0715305595945801e-15,-1.7000000476837159,8.75],"rotation":[-6.123031769111886e-17,3.061515884555943e-17,1.0,1.874575902277672e-33],"scale":[1.0,1.0,1.0],"name":"c_tire1"},{"translation":[2.0999999046325685,-1.7000000476837159,2.5716732262394297e-16],"rotation":[-6.123031769111886e-17,3.061515884555943e-17,1.0,1.874575902277672e-33],"scale":[1.0,1.0,1.0],"name":"l_tire1"},{"translation":[-2.0999999046325685,-1.7000000476837159,-2.5716732262394297e-16],"rotation":[-6.123031769111886e-17,3.061515884555943e-17,1.0,1.874575902277672e-33],"scale":[1.0,1.0,1.0],"name":"r_tire1"},{"translation":[0.0,0.0,0.0],"rotation":[-4.329637285359677e-17,0.7071067811865475,0.7071067811865475,4.329637285359677e-17],"scale":[1.0,1.0,1.0],"name":"node_19","children":[14]},{"translation":[0.0,-1.0485019683837893,2.0653369426727297],"rotation":[0.0,0.0,0.0,1.0],"scale":[1.0,1.0,1.0],"name":"node_79","children":[15]},{"translation":[-0.0000019999999949504856,9.824545860290528,-2.8824479579925539],"rotation":[0.0,0.0,0.0,1.0],"scale":[1.0,1.0,1.0],"name":"node_109","children":[16]},{"name":"c_gear_AN_109","children":[17,19,21,23]},{"translation":[0.09322500228881839,-0.15000200271606446,-0.24193499982357026],"rotation":[-0.4777146179951012,0.47771413845592528,0.5213340982552881,-0.521333618716254],"scale":[1.0,1.0,1.0],"name":"node_116","children":[18]},{"translation":[0.0,0.0,0.0],"rotation":[0.7071067811865475,0.0,0.0,0.7071067811865475],"scale":[1.0,1.0,1.0],"name":"landing_nose_r"},{"translation":[0.09322500228881839,0.1499979943037033,-0.24193499982357026],"rotation":[-0.4777146179951012,0.47771413845592528,0.5213340982552881,-0.521333618716254],"scale":[1.0,1.0,1.0],"name":"node_118","children":[20]},{"translation":[0.0,0.0,0.0],"rotation":[0.7071067811865475,0.0,0.0,0.7071067811865475],"scale":[1.0,1.0,1.0],"name":"landing_nose_l"},{"translation":[0.09322500228881839,-0.15000200271606446,-0.24193499982357026],"rotation":[-0.4156273037478402,0.5086497723911998,0.5720616053560639,-0.4911974661124464],"scale":[1.0,1.0,1.0],"name":"node_120","children":[22]},{"translation":[0.0,0.0,0.0],"rotation":[0.7071067811865475,0.0,0.0,0.7071067811865475],"scale":[1.0,1.0,1.0],"name":"taxi_r"},{"translation":[0.09322500228881839,0.1499979943037033,-0.24193499982357026],"rotation":[0.5086503632928696,-0.41562696268559065,-0.49119800590502957,0.5720609524678424],"scale":[1.0,1.0,1.0],"name":"node_122","children":[24]},{"translation":[0.0,0.0,0.0],"rotation":[0.7071067811865475,0.0,0.0,0.7071067811865475],"scale":[1.0,1.0,1.0],"name":"taxi_l"}],"scene":0,"scenes":[{"nodes":[0]}],"textures":[{"extensions":{"MSFT_texture_dds":{"source":0}}},{"extensions":{"MSFT_texture_dds":{"source":1}}}],"extensionsUsed":["MSFT_texture_dds","ASOBO_asset_optimized"],"buffers":[{"byteLength":3192,"uri":"OSP_ATR_42-400_MSFS_LOD5.bin"}],"images":[{"uri":"OSP_ATR_42_400_T.PNG.DDS","extras":"ASOBO_image_converted_meta"},{"uri":"OSP_ATR_42_400_L.PNG.DDS","extras":"ASOBO_image_converted_meta"}]}
