{"accessors":[{"bufferView":0,"componentType":5126,"count":32,"min":[0.0],"max":[80.0],"type":"SCALAR"},{"bufferView":1,"componentType":5126,"count":32,"type":"VEC4"},{"bufferView":0,"byteOffset":128,"componentType":5126,"count":32,"min":[0.0],"max":[80.0],"type":"SCALAR"},{"bufferView":1,"byteOffset":512,"componentType":5126,"count":32,"type":"VEC4"},{"bufferView":0,"byteOffset":256,"componentType":5126,"count":3,"min":[0.0],"max":[200.0],"type":"SCALAR"},{"bufferView":1,"byteOffset":1024,"componentType":5126,"count":3,"type":"VEC4"},{"bufferView":2,"componentType":5126,"count":106,"min":[-6.9039998054504398,0.2720000147819519,-6.399990081787109],"max":[6.9039998054504398,4.176000118255615,6.440000057220459],"type":"VEC3","name":"part000_vertices#0_POSITION"},{"bufferView":2,"byteOffset":12,"componentType":5120,"count":106,"type":"VEC4","name":"part000_vertices#0_TANGENT"},{"bufferView":2,"byteOffset":16,"componentType":5120,"count":106,"type":"VEC4","name":"part000_vertices#0_NORMAL"},{"bufferView":2,"byteOffset":20,"componentType":5122,"count":106,"type":"VEC2","name":"part000_vertices#0_TEXCOORD_0"},{"bufferView":2,"byteOffset":24,"componentType":5122,"count":106,"type":"VEC2","name":"part000_vertices#0_TEXCOORD_1"},{"bufferView":2,"byteOffset":28,"componentType":5123,"count":106,"type":"VEC4","name":"part000_vertices#0_COLOR_0"},{"bufferView":3,"componentType":5123,"count":288,"type":"SCALAR","name":"part000_indices#0"},{"bufferView":2,"byteOffset":3816,"componentType":5126,"count":4,"min":[-0.052000001072883609,0.12372999638319016,-0.7046599984169006],"max":[0.052000001072883609,0.12767000496387483,0.002300000051036477],"type":"VEC3","name":"part001_vertices#0_POSITION"},{"bufferView":2,"byteOffset":3828,"componentType":5120,"count":4,"type":"VEC4","name":"part001_vertices#0_TANGENT"},{"bufferView":2,"byteOffset":3832,"componentType":5120,"count":4,"type":"VEC4","name":"part001_vertices#0_NORMAL"},{"bufferView":2,"byteOffset":3836,"componentType":5122,"count":4,"type":"VEC2","name":"part001_vertices#0_TEXCOORD_0"},{"bufferView":2,"byteOffset":3840,"componentType":5122,"count":4,"type":"VEC2","name":"part001_vertices#0_TEXCOORD_1"},{"bufferView":2,"byteOffset":3844,"componentType":5123,"count":4,"type":"VEC4","name":"part001_vertices#0_COLOR_0"},{"bufferView":3,"byteOffset":576,"componentType":5123,"count":6,"type":"SCALAR","name":"part001_indices#0"}],"animations":[{"name":"c_gear","channels":[{"sampler":0,"target":{"node":12,"path":"rotation"}},{"sampler":1,"target":{"node":16,"path":"rotation"}}],"samplers":[{"input":0,"output":1,"interpolation":"LINEAR"},{"input":2,"output":3,"interpolation":"LINEAR"}]},{"name":"custom_anim_C_WHEEL_LR","channels":[{"sampler":0,"target":{"node":18,"path":"rotation"}}],"samplers":[{"input":4,"output":5,"interpolation":"LINEAR"}]}],"asset":{"generator":"ModelConverterX","version":"2.0","extensions":{"ASOBO_asset_optimized":{"BoundingBoxMax":[6.9039998054504398,4.176000118255615,6.440000057220459],"BoundingBoxMin":[-6.9039998054504398,0.12372999638319016,-6.399990081787109],"MajorVersion":4,"MinorVersion":4,"UseCheckerboardMaterialForMissingTextures":true,"UseOnlyFilenameForImageURI":true}}},"bufferViews":[{"buffer":0,"byteLength":268,"byteStride":4},{"buffer":0,"byteLength":1072,"byteStride":16,"byteOffset":268},{"buffer":0,"byteLength":3960,"byteStride":36,"byteOffset":1340,"target":34962,"name":"BufferViewVertexND"},{"buffer":0,"byteLength":588,"byteOffset":5300,"target":34963,"name":"BufferViewIndex"}],"extensionsRequired":["MSFT_texture_dds"],"materials":[{"name":"material00","pbrMetallicRoughness":{"metallicFactor":0.0}},{"name":"material01","emissiveTexture":{"index":1},"emissiveFactor":[0.019607843831181527,0.019607843831181527,0.019607843831181527],"pbrMetallicRoughness":{"baseColorTexture":{"index":0}},"extensions":{"ASOBO_material_day_night_switch":{}}}],"meshes":[{"primitives":[{"attributes":{"COLOR_0":11,"NORMAL":8,"POSITION":6,"TANGENT":7,"TEXCOORD_0":9,"TEXCOORD_1":10},"indices":12,"material":1,"mode":4,"extras":{"ASOBO_primitive":{"PrimitiveCount":96,"VertexType":"VTX","VertexVersion":2}}}],"name":"part000"},{"primitives":[{"attributes":{"COLOR_0":18,"NORMAL":15,"POSITION":13,"TANGENT":14,"TEXCOORD_0":16,"TEXCOORD_1":17},"indices":19,"material":0,"mode":4,"extras":{"ASOBO_primitive":{"PrimitiveCount":2,"VertexType":"VTX","VertexVersion":2}}}],"name":"part001"}],"nodes":[{"name":"node_0","children":[1,2,3,4,5,6,7,8,9]},{"mesh":0,"name":"custom_vis_parts_visible_01_mcx_VC_0"},{"translation":[-4.775964896694834e-16,-0.800000011920929,3.900000095367432],"rotation":[-6.123031769111886e-17,3.061515884555943e-17,1.0,1.874575902277672e-33],"scale":[1.0,1.0,1.0],"name":"c_tire1"},{"translation":[2.549999952316284,0.800000011920929,3.1227461438532808e-16],"rotation":[-6.123031769111886e-17,3.061515884555943e-17,1.0,1.874575902277672e-33],"scale":[1.0,1.0,1.0],"name":"contrail1"},{"translation":[0.6600000262260435,0.4000000059604645,1.899999976158142],"rotation":[-0.7071067811865475,0.0,0.0,0.7071067811865475],"scale":[1.0,1.0,1.0],"name":"landing_l"},{"translation":[-0.6600000262260439,0.4000000059604645,1.899999976158142],"rotation":[-0.7071067811865475,0.0,0.0,0.7071067811865475],"scale":[1.0,1.0,1.0],"name":"landing_r"},{"translation":[-2.549999952316284,0.800000011920929,-3.1227461438532808e-16],"rotation":[-1.874575902277672e-33,1.0,3.061515884555943e-17,6.123031769111886e-17],"scale":[1.0,1.0,1.0],"name":"contrail2"},{"translation":[2.5299999713897707,-0.9100000262260436,0.5000000000000003],"rotation":[-6.123031769111886e-17,3.061515884555943e-17,1.0,1.874575902277672e-33],"scale":[1.0,1.0,1.0],"name":"l_tire1"},{"translation":[-2.5299999713897707,-0.9100000262260436,0.49999999999999969],"rotation":[-6.123031769111886e-17,3.061515884555943e-17,1.0,1.874575902277672e-33],"scale":[1.0,1.0,1.0],"name":"r_tire1"},{"translation":[0.0,0.0,0.0],"rotation":[-4.329637285359677e-17,0.7071067811865475,0.7071067811865475,4.329637285359677e-17],"scale":[1.0,1.0,1.0],"name":"node_50","children":[10,14]},{"translation":[0.0,5.029961109161377,1.1206990480422974],"rotation":[-0.000003999999989804971,0.0,0.0,0.999999999992],"scale":[1.0,1.0,1.0],"name":"node_146","children":[11]},{"translation":[0.0,-1.0697449446066805,-0.660796999952481],"rotation":[0.0,0.0,0.0,1.0],"scale":[1.0,1.0,1.0],"name":"node_263","children":[12]},{"name":"c_gear_AN_263","children":[13]},{"mesh":1,"name":"custom_vis_parts_visible_01_mcx_VC_1"},{"translation":[0.0,5.030038833618164,1.1210000514984134],"rotation":[-0.000004999999873501876,0.0,0.0,0.9999999999875],"scale":[1.0,1.0,1.0],"name":"node_291","children":[15]},{"translation":[0.0,-1.07034897809612,-0.6614390015932832],"rotation":[0.0,0.0,0.0,1.0],"scale":[1.0,1.0,1.0],"name":"node_322","children":[16]},{"name":"c_gear_AN_322","children":[17]},{"name":"node_323","children":[18]},{"name":"custom_anim_C_WHEEL_LR_AN_323","children":[19]},{"translation":[0.0,0.22823099793144784,-0.488519012952435],"rotation":[0.7071103167115251,0.0,0.0,0.7071032456438922],"scale":[1.0,1.0,1.0],"name":"node_334","children":[20,21]},{"translation":[0.0,0.0,0.0],"rotation":[0.7071067811865475,0.0,0.0,0.7071067811865475],"scale":[1.0,1.0,1.0],"name":"taxi"},{"translation":[0.0,0.0,0.0],"rotation":[0.7071067811865475,0.0,0.0,0.7071067811865475],"scale":[1.0,1.0,1.0],"name":"landing_gear"}],"scene":0,"scenes":[{"nodes":[0]}],"textures":[{"extensions":{"MSFT_texture_dds":{"source":0}}},{"extensions":{"MSFT_texture_dds":{"source":1}}}],"extensionsUsed":["ASOBO_material_day_night_switch","MSFT_texture_dds","ASOBO_asset_optimized"],"buffers":[{"byteLength":5888,"uri":"DJC_MerlinIII_B_MSFS_LOD8.bin"}],"images":[{"uri":"DJC_AI_MERLINIII_T.PNG.DDS","extras":"ASOBO_image_converted_meta"},{"uri":"CABIN_LIGHTS.PNG.DDS","extras":"ASOBO_image_converted_meta"}]}
