{"accessors":[{"bufferView":0,"componentType":5126,"count":3,"min":[0.0],"max":[100.0],"type":"SCALAR"},{"bufferView":1,"componentType":5126,"count":3,"type":"VEC4"},{"bufferView":0,"byteOffset":12,"componentType":5126,"count":3,"min":[0.0],"max":[100.0],"type":"SCALAR"},{"bufferView":1,"byteOffset":48,"componentType":5126,"count":3,"type":"VEC4"},{"bufferView":0,"byteOffset":24,"componentType":5126,"count":5,"min":[0.0],"max":[100.0],"type":"SCALAR"},{"bufferView":1,"byteOffset":96,"componentType":5126,"count":5,"type":"VEC4"},{"bufferView":0,"byteOffset":44,"componentType":5126,"count":5,"min":[0.0],"max":[100.0],"type":"SCALAR"},{"bufferView":1,"byteOffset":176,"componentType":5126,"count":5,"type":"VEC4"},{"bufferView":0,"byteOffset":64,"componentType":5126,"count":5,"min":[0.0],"max":[100.0],"type":"SCALAR"},{"bufferView":1,"byteOffset":256,"componentType":5126,"count":5,"type":"VEC4"},{"bufferView":0,"byteOffset":84,"componentType":5126,"count":5,"min":[0.0],"max":[100.0],"type":"SCALAR"},{"bufferView":1,"byteOffset":336,"componentType":5126,"count":5,"type":"VEC4"},{"bufferView":0,"byteOffset":104,"componentType":5126,"count":5,"min":[0.0],"max":[100.0],"type":"SCALAR"},{"bufferView":1,"byteOffset":416,"componentType":5126,"count":5,"type":"VEC4"},{"bufferView":0,"byteOffset":124,"componentType":5126,"count":5,"min":[0.0],"max":[100.0],"type":"SCALAR"},{"bufferView":1,"byteOffset":496,"componentType":5126,"count":5,"type":"VEC4"},{"bufferView":0,"byteOffset":144,"componentType":5126,"count":5,"min":[0.0],"max":[100.0],"type":"SCALAR"},{"bufferView":1,"byteOffset":576,"componentType":5126,"count":5,"type":"VEC4"},{"bufferView":0,"byteOffset":164,"componentType":5126,"count":5,"min":[0.0],"max":[100.0],"type":"SCALAR"},{"bufferView":1,"byteOffset":656,"componentType":5126,"count":5,"type":"VEC4"},{"bufferView":2,"componentType":5126,"count":718,"min":[-5.322380065917969,-1.2205499410629273,-5.086750030517578],"max":[5.354400157928467,1.3515199422836304,2.305030107498169],"type":"VEC3","name":"part000_vertices#0_POSITION"},{"bufferView":2,"byteOffset":12,"componentType":5120,"count":718,"type":"VEC4","name":"part000_vertices#0_TANGENT"},{"bufferView":2,"byteOffset":16,"componentType":5120,"count":718,"type":"VEC4","name":"part000_vertices#0_NORMAL"},{"bufferView":2,"byteOffset":20,"componentType":5122,"count":718,"type":"VEC2","name":"part000_vertices#0_TEXCOORD_0"},{"bufferView":2,"byteOffset":24,"componentType":5122,"count":718,"type":"VEC2","name":"part000_vertices#0_TEXCOORD_1"},{"bufferView":2,"byteOffset":28,"componentType":5123,"count":718,"type":"VEC4","name":"part000_vertices#0_COLOR_0"},{"bufferView":3,"componentType":5123,"count":2253,"type":"SCALAR","name":"part000_indices#0"},{"bufferView":2,"byteOffset":25848,"componentType":5126,"count":8,"min":[-1.0572999715805054,-0.1102600023150444,-0.0018599999602884055],"max":[1.300719976425171,0.018650000914931299,0.3382900059223175],"type":"VEC3","name":"part001_vertices#0_POSITION"},{"bufferView":2,"byteOffset":25860,"componentType":5120,"count":8,"type":"VEC4","name":"part001_vertices#0_TANGENT"},{"bufferView":2,"byteOffset":25864,"componentType":5120,"count":8,"type":"VEC4","name":"part001_vertices#0_NORMAL"},{"bufferView":2,"byteOffset":25868,"componentType":5122,"count":8,"type":"VEC2","name":"part001_vertices#0_TEXCOORD_0"},{"bufferView":2,"byteOffset":25872,"componentType":5122,"count":8,"type":"VEC2","name":"part001_vertices#0_TEXCOORD_1"},{"bufferView":2,"byteOffset":25876,"componentType":5123,"count":8,"type":"VEC4","name":"part001_vertices#0_COLOR_0"},{"bufferView":3,"byteOffset":4506,"componentType":5123,"count":12,"type":"SCALAR","name":"part001_indices#0"},{"bufferView":2,"byteOffset":26136,"componentType":5126,"count":8,"min":[-1.2361400127410889,-0.10041999816894531,-0.0076299998909235],"max":[1.0780600309371949,0.04611999914050102,0.3285300135612488],"type":"VEC3","name":"part002_vertices#0_POSITION"},{"bufferView":2,"byteOffset":26148,"componentType":5120,"count":8,"type":"VEC4","name":"part002_vertices#0_TANGENT"},{"bufferView":2,"byteOffset":26152,"componentType":5120,"count":8,"type":"VEC4","name":"part002_vertices#0_NORMAL"},{"bufferView":2,"byteOffset":26156,"componentType":5122,"count":8,"type":"VEC2","name":"part002_vertices#0_TEXCOORD_0"},{"bufferView":2,"byteOffset":26160,"componentType":5122,"count":8,"type":"VEC2","name":"part002_vertices#0_TEXCOORD_1"},{"bufferView":2,"byteOffset":26164,"componentType":5123,"count":8,"type":"VEC4","name":"part002_vertices#0_COLOR_0"},{"bufferView":3,"byteOffset":4530,"componentType":5123,"count":12,"type":"SCALAR","name":"part002_indices#0"},{"bufferView":2,"byteOffset":26424,"componentType":5126,"count":44,"min":[-0.05754999816417694,-0.17986999452114106,-0.1720300018787384],"max":[0.056699998676776889,0.1822499930858612,0.17207999527454377],"type":"VEC3","name":"part003_vertices#0_POSITION"},{"bufferView":2,"byteOffset":26436,"componentType":5120,"count":44,"type":"VEC4","name":"part003_vertices#0_TANGENT"},{"bufferView":2,"byteOffset":26440,"componentType":5120,"count":44,"type":"VEC4","name":"part003_vertices#0_NORMAL"},{"bufferView":2,"byteOffset":26444,"componentType":5122,"count":44,"type":"VEC2","name":"part003_vertices#0_TEXCOORD_0"},{"bufferView":2,"byteOffset":26448,"componentType":5122,"count":44,"type":"VEC2","name":"part003_vertices#0_TEXCOORD_1"},{"bufferView":2,"byteOffset":26452,"componentType":5123,"count":44,"type":"VEC4","name":"part003_vertices#0_COLOR_0"},{"bufferView":3,"byteOffset":4554,"componentType":5123,"count":108,"type":"SCALAR","name":"part003_indices#0"},{"bufferView":2,"byteOffset":28008,"componentType":5126,"count":6,"min":[-0.019260000437498094,0.0860000029206276,-0.017510000616312028],"max":[0.13860000669956208,0.9703999757766724,0.015690000727772714],"type":"VEC3","name":"part004_vertices#0_POSITION"},{"bufferView":2,"byteOffset":28020,"componentType":5120,"count":6,"type":"VEC4","name":"part004_vertices#0_TANGENT"},{"bufferView":2,"byteOffset":28024,"componentType":5120,"count":6,"type":"VEC4","name":"part004_vertices#0_NORMAL"},{"bufferView":2,"byteOffset":28028,"componentType":5122,"count":6,"type":"VEC2","name":"part004_vertices#0_TEXCOORD_0"},{"bufferView":2,"byteOffset":28032,"componentType":5122,"count":6,"type":"VEC2","name":"part004_vertices#0_TEXCOORD_1"},{"bufferView":2,"byteOffset":28036,"componentType":5123,"count":6,"type":"VEC4","name":"part004_vertices#0_COLOR_0"},{"bufferView":3,"byteOffset":4770,"componentType":5123,"count":12,"type":"SCALAR","name":"part004_indices#0"},{"bufferView":2,"byteOffset":28224,"componentType":5126,"count":6,"min":[-0.07038000226020813,0.0880500003695488,-0.016340000554919244],"max":[0.06550999730825424,0.970579981803894,0.01566999964416027],"type":"VEC3","name":"part005_vertices#0_POSITION"},{"bufferView":2,"byteOffset":28236,"componentType":5120,"count":6,"type":"VEC4","name":"part005_vertices#0_TANGENT"},{"bufferView":2,"byteOffset":28240,"componentType":5120,"count":6,"type":"VEC4","name":"part005_vertices#0_NORMAL"},{"bufferView":2,"byteOffset":28244,"componentType":5122,"count":6,"type":"VEC2","name":"part005_vertices#0_TEXCOORD_0"},{"bufferView":2,"byteOffset":28248,"componentType":5122,"count":6,"type":"VEC2","name":"part005_vertices#0_TEXCOORD_1"},{"bufferView":2,"byteOffset":28252,"componentType":5123,"count":6,"type":"VEC4","name":"part005_vertices#0_COLOR_0"},{"bufferView":3,"byteOffset":4794,"componentType":5123,"count":12,"type":"SCALAR","name":"part005_indices#0"},{"bufferView":2,"byteOffset":28440,"componentType":5126,"count":6,"min":[-0.017899999395012857,0.08705999702215195,-0.017510000616312028],"max":[0.14057999849319459,0.9746500253677368,0.01568000018596649],"type":"VEC3","name":"part006_vertices#0_POSITION"},{"bufferView":2,"byteOffset":28452,"componentType":5120,"count":6,"type":"VEC4","name":"part006_vertices#0_TANGENT"},{"bufferView":2,"byteOffset":28456,"componentType":5120,"count":6,"type":"VEC4","name":"part006_vertices#0_NORMAL"},{"bufferView":2,"byteOffset":28460,"componentType":5122,"count":6,"type":"VEC2","name":"part006_vertices#0_TEXCOORD_0"},{"bufferView":2,"byteOffset":28464,"componentType":5122,"count":6,"type":"VEC2","name":"part006_vertices#0_TEXCOORD_1"},{"bufferView":2,"byteOffset":28468,"componentType":5123,"count":6,"type":"VEC4","name":"part006_vertices#0_COLOR_0"},{"bufferView":3,"byteOffset":4818,"componentType":5123,"count":12,"type":"SCALAR","name":"part006_indices#0"},{"bufferView":2,"byteOffset":28656,"componentType":5126,"count":6,"min":[-0.07652000337839127,0.08386000245809555,-0.016340000554919244],"max":[0.059369999915361407,0.9673500061035156,0.01566999964416027],"type":"VEC3","name":"part007_vertices#0_POSITION"},{"bufferView":2,"byteOffset":28668,"componentType":5120,"count":6,"type":"VEC4","name":"part007_vertices#0_TANGENT"},{"bufferView":2,"byteOffset":28672,"componentType":5120,"count":6,"type":"VEC4","name":"part007_vertices#0_NORMAL"},{"bufferView":2,"byteOffset":28676,"componentType":5122,"count":6,"type":"VEC2","name":"part007_vertices#0_TEXCOORD_0"},{"bufferView":2,"byteOffset":28680,"componentType":5122,"count":6,"type":"VEC2","name":"part007_vertices#0_TEXCOORD_1"},{"bufferView":2,"byteOffset":28684,"componentType":5123,"count":6,"type":"VEC4","name":"part007_vertices#0_COLOR_0"},{"bufferView":3,"byteOffset":4842,"componentType":5123,"count":12,"type":"SCALAR","name":"part007_indices#0"},{"bufferView":2,"byteOffset":28872,"componentType":5126,"count":36,"min":[-0.05502000078558922,-0.2052299976348877,-0.20732000470161439],"max":[0.057029999792575839,0.20694999396800996,0.20487000048160554],"type":"VEC3","name":"part008_vertices#0_POSITION"},{"bufferView":2,"byteOffset":28884,"componentType":5120,"count":36,"type":"VEC4","name":"part008_vertices#0_TANGENT"},{"bufferView":2,"byteOffset":28888,"componentType":5120,"count":36,"type":"VEC4","name":"part008_vertices#0_NORMAL"},{"bufferView":2,"byteOffset":28892,"componentType":5122,"count":36,"type":"VEC2","name":"part008_vertices#0_TEXCOORD_0"},{"bufferView":2,"byteOffset":28896,"componentType":5122,"count":36,"type":"VEC2","name":"part008_vertices#0_TEXCOORD_1"},{"bufferView":2,"byteOffset":28900,"componentType":5123,"count":36,"type":"VEC4","name":"part008_vertices#0_COLOR_0"},{"bufferView":3,"byteOffset":4866,"componentType":5123,"count":84,"type":"SCALAR","name":"part008_indices#0"},{"bufferView":2,"byteOffset":30168,"componentType":5126,"count":36,"min":[-0.05803000181913376,-0.2052299976348877,-0.20732000470161439],"max":[0.05803000181913376,0.20694999396800996,0.20487000048160554],"type":"VEC3","name":"part009_vertices#0_POSITION"},{"bufferView":2,"byteOffset":30180,"componentType":5120,"count":36,"type":"VEC4","name":"part009_vertices#0_TANGENT"},{"bufferView":2,"byteOffset":30184,"componentType":5120,"count":36,"type":"VEC4","name":"part009_vertices#0_NORMAL"},{"bufferView":2,"byteOffset":30188,"componentType":5122,"count":36,"type":"VEC2","name":"part009_vertices#0_TEXCOORD_0"},{"bufferView":2,"byteOffset":30192,"componentType":5122,"count":36,"type":"VEC2","name":"part009_vertices#0_TEXCOORD_1"},{"bufferView":2,"byteOffset":30196,"componentType":5123,"count":36,"type":"VEC4","name":"part009_vertices#0_COLOR_0"},{"bufferView":3,"byteOffset":5034,"componentType":5123,"count":84,"type":"SCALAR","name":"part009_indices#0"},{"bufferView":2,"byteOffset":31464,"componentType":5126,"count":46,"min":[-1.9348700046539307,-0.601419985294342,-0.03728000074625015],"max":[1.9348700046539307,0.20294000208377839,0.030750000849366189],"type":"VEC3","name":"part010_vertices#0_POSITION"},{"bufferView":2,"byteOffset":31476,"componentType":5120,"count":46,"type":"VEC4","name":"part010_vertices#0_TANGENT"},{"bufferView":2,"byteOffset":31480,"componentType":5120,"count":46,"type":"VEC4","name":"part010_vertices#0_NORMAL"},{"bufferView":2,"byteOffset":31484,"componentType":5122,"count":46,"type":"VEC2","name":"part010_vertices#0_TEXCOORD_0"},{"bufferView":2,"byteOffset":31488,"componentType":5122,"count":46,"type":"VEC2","name":"part010_vertices#0_TEXCOORD_1"},{"bufferView":2,"byteOffset":31492,"componentType":5123,"count":46,"type":"VEC4","name":"part010_vertices#0_COLOR_0"},{"bufferView":3,"byteOffset":5202,"componentType":5123,"count":120,"type":"SCALAR","name":"part010_indices#0"}],"animations":[{"name":"custom_anim_FLAPS_SML_GA","channels":[{"sampler":0,"target":{"node":13,"path":"rotation"}},{"sampler":1,"target":{"node":16,"path":"rotation"}}],"samplers":[{"input":0,"output":1,"interpolation":"LINEAR"},{"input":2,"output":3,"interpolation":"LINEAR"}]},{"name":"c_tire_blurred_key","channels":[{"sampler":0,"target":{"node":19,"path":"rotation"}}],"samplers":[{"input":4,"output":5,"interpolation":"LINEAR"}]},{"name":"engine0","channels":[{"sampler":0,"target":{"node":22,"path":"rotation"}},{"sampler":1,"target":{"node":25,"path":"rotation"}},{"sampler":2,"target":{"node":28,"path":"rotation"}},{"sampler":3,"target":{"node":31,"path":"rotation"}}],"samplers":[{"input":6,"output":7,"interpolation":"LINEAR"},{"input":8,"output":9,"interpolation":"LINEAR"},{"input":10,"output":11,"interpolation":"LINEAR"},{"input":12,"output":13,"interpolation":"LINEAR"}]},{"name":"l_tire_blurred_key","channels":[{"sampler":0,"target":{"node":33,"path":"rotation"}}],"samplers":[{"input":14,"output":15,"interpolation":"LINEAR"}]},{"name":"r_tire_blurred_key","channels":[{"sampler":0,"target":{"node":35,"path":"rotation"}}],"samplers":[{"input":16,"output":17,"interpolation":"LINEAR"}]},{"name":"elevator","channels":[{"sampler":0,"target":{"node":37,"path":"rotation"}}],"samplers":[{"input":18,"output":19,"interpolation":"LINEAR"}]}],"asset":{"generator":"ModelConverterX","version":"2.0","extensions":{"ASOBO_asset_optimized":{"BoundingBoxMax":[5.354400157928467,1.3515199422836304,2.305030107498169],"BoundingBoxMin":[-5.322380065917969,-1.2205499410629273,-5.086750030517578],"MajorVersion":4,"MinorVersion":4,"UseCheckerboardMaterialForMissingTextures":true,"UseOnlyFilenameForImageURI":true}}},"bufferViews":[{"buffer":0,"byteLength":184,"byteStride":4},{"buffer":0,"byteLength":736,"byteStride":16,"byteOffset":184},{"buffer":0,"byteLength":33120,"byteStride":36,"byteOffset":920,"target":34962,"name":"BufferViewVertexND"},{"buffer":0,"byteLength":5442,"byteOffset":34040,"target":34963,"name":"BufferViewIndex"}],"extensionsRequired":["MSFT_texture_dds"],"materials":[{"name":"material00","occlusionTexture":{"index":1},"emissiveTexture":{"index":2},"emissiveFactor":[0.019607843831181527,0.019607843831181527,0.019607843831181527],"pbrMetallicRoughness":{"baseColorTexture":{"index":0},"metallicRoughnessTexture":{"index":1}}}],"meshes":[{"primitives":[{"attributes":{"COLOR_0":25,"NORMAL":22,"POSITION":20,"TANGENT":21,"TEXCOORD_0":23,"TEXCOORD_1":24},"indices":26,"material":0,"mode":4,"extras":{"ASOBO_primitive":{"PrimitiveCount":751,"VertexType":"VTX","VertexVersion":2}}}],"name":"part000"},{"primitives":[{"attributes":{"COLOR_0":32,"NORMAL":29,"POSITION":27,"TANGENT":28,"TEXCOORD_0":30,"TEXCOORD_1":31},"indices":33,"material":0,"mode":4,"extras":{"ASOBO_primitive":{"PrimitiveCount":4,"VertexType":"VTX","VertexVersion":2}}}],"name":"part001"},{"primitives":[{"attributes":{"COLOR_0":39,"NORMAL":36,"POSITION":34,"TANGENT":35,"TEXCOORD_0":37,"TEXCOORD_1":38},"indices":40,"material":0,"mode":4,"extras":{"ASOBO_primitive":{"PrimitiveCount":4,"VertexType":"VTX","VertexVersion":2}}}],"name":"part002"},{"primitives":[{"attributes":{"COLOR_0":46,"NORMAL":43,"POSITION":41,"TANGENT":42,"TEXCOORD_0":44,"TEXCOORD_1":45},"indices":47,"material":0,"mode":4,"extras":{"ASOBO_primitive":{"PrimitiveCount":36,"VertexType":"VTX","VertexVersion":2}}}],"name":"part003"},{"primitives":[{"attributes":{"COLOR_0":53,"NORMAL":50,"POSITION":48,"TANGENT":49,"TEXCOORD_0":51,"TEXCOORD_1":52},"indices":54,"material":0,"mode":4,"extras":{"ASOBO_primitive":{"PrimitiveCount":4,"VertexType":"VTX","VertexVersion":2}}}],"name":"part004"},{"primitives":[{"attributes":{"COLOR_0":60,"NORMAL":57,"POSITION":55,"TANGENT":56,"TEXCOORD_0":58,"TEXCOORD_1":59},"indices":61,"material":0,"mode":4,"extras":{"ASOBO_primitive":{"PrimitiveCount":4,"VertexType":"VTX","VertexVersion":2}}}],"name":"part005"},{"primitives":[{"attributes":{"COLOR_0":67,"NORMAL":64,"POSITION":62,"TANGENT":63,"TEXCOORD_0":65,"TEXCOORD_1":66},"indices":68,"material":0,"mode":4,"extras":{"ASOBO_primitive":{"PrimitiveCount":4,"VertexType":"VTX","VertexVersion":2}}}],"name":"part006"},{"primitives":[{"attributes":{"COLOR_0":74,"NORMAL":71,"POSITION":69,"TANGENT":70,"TEXCOORD_0":72,"TEXCOORD_1":73},"indices":75,"material":0,"mode":4,"extras":{"ASOBO_primitive":{"PrimitiveCount":4,"VertexType":"VTX","VertexVersion":2}}}],"name":"part007"},{"primitives":[{"attributes":{"COLOR_0":81,"NORMAL":78,"POSITION":76,"TANGENT":77,"TEXCOORD_0":79,"TEXCOORD_1":80},"indices":82,"material":0,"mode":4,"extras":{"ASOBO_primitive":{"PrimitiveCount":28,"VertexType":"VTX","VertexVersion":2}}}],"name":"part008"},{"primitives":[{"attributes":{"COLOR_0":88,"NORMAL":85,"POSITION":83,"TANGENT":84,"TEXCOORD_0":86,"TEXCOORD_1":87},"indices":89,"material":0,"mode":4,"extras":{"ASOBO_primitive":{"PrimitiveCount":28,"VertexType":"VTX","VertexVersion":2}}}],"name":"part009"},{"primitives":[{"attributes":{"COLOR_0":95,"NORMAL":92,"POSITION":90,"TANGENT":91,"TEXCOORD_0":93,"TEXCOORD_1":94},"indices":96,"material":0,"mode":4,"extras":{"ASOBO_primitive":{"PrimitiveCount":40,"VertexType":"VTX","VertexVersion":2}}}],"name":"part010"}],"nodes":[{"name":"node_0","children":[1,2,3,4,5,6,7,8,9,10]},{"mesh":0,"name":"node_4"},{"translation":[-1.4695276829806339e-16,-1.350000023841858,1.2000000476837159],"rotation":[-6.123031769111886e-17,3.061515884555943e-17,1.0,1.874575902277672e-33],"scale":[1.0,1.0,1.0],"name":"c_tire1"},{"translation":[-1.5,-1.2999999523162842,-0.8000000119209291],"rotation":[-6.123031769111886e-17,3.061515884555943e-17,1.0,1.874575902277672e-33],"scale":[1.0,1.0,1.0],"name":"r_tire1"},{"translation":[1.5,-1.2999999523162842,-0.8000000119209288],"rotation":[-6.123031769111886e-17,3.061515884555943e-17,1.0,1.874575902277672e-33],"scale":[1.0,1.0,1.0],"name":"l_tire1"},{"translation":[-5.260000228881836,-0.07999999821186066,-0.2099999934434897],"rotation":[-6.123031769111886e-17,3.061515884555943e-17,1.0,1.874575902277672e-33],"scale":[1.0,1.0,1.0],"name":"Right_Taxi"},{"translation":[5.230000019073486,-0.07999999821186066,-0.20999999344348845],"rotation":[-6.123031769111886e-17,3.061515884555943e-17,1.0,1.874575902277672e-33],"scale":[1.0,1.0,1.0],"name":"Left_Landing"},{"translation":[5.239999771118164,-0.07999999821186066,-0.20999999344348845],"rotation":[-6.123031769111886e-17,3.061515884555943e-17,1.0,1.874575902277672e-33],"scale":[1.0,1.0,1.0],"name":"Left_Taxi"},{"translation":[-5.269999980926514,-0.07999999821186066,-0.2099999934434897],"rotation":[-6.123031769111886e-17,3.061515884555943e-17,1.0,1.874575902277672e-33],"scale":[1.0,1.0,1.0],"name":"Right_Landing"},{"translation":[6.123031769111886e-16,0.0,-5.0],"rotation":[-0.08715574274765822,3.049865892318291e-17,0.9961946980917456,-2.668286908522267e-18],"scale":[1.0,1.0,1.0],"name":"contrail1"},{"translation":[0.0,0.0,0.0],"rotation":[-4.329637285359677e-17,0.7071067811865475,0.7071067811865475,4.329637285359677e-17],"scale":[1.0,1.0,1.0],"name":"node_21","children":[11,14,17,20,23,26,29,32,34,36]},{"translation":[-1.7727940082550049,-1.202394962310791,-0.41104298830032356],"rotation":[0.7062870865952183,0.034037498569056277,-0.034037498569056277,0.7062870865952183],"scale":[1.0,1.0,1.0],"name":"node_36","children":[12]},{"name":"node_37","children":[13]},{"mesh":1,"name":"custom_anim_FLAPS_SML_GA_AN_37"},{"translation":[1.7522339820861817,-1.2076220512390137,-0.4346559941768646],"rotation":[0.7051721682156975,-0.052270576560546937,0.052270576560546937,0.7051721682156975],"scale":[1.0,1.0,1.0],"name":"node_38","children":[15]},{"name":"node_39","children":[16]},{"mesh":2,"name":"custom_anim_FLAPS_SML_GA_AN_39"},{"translation":[-0.05425199866294861,1.2382060289382937,-1.205757975578308],"rotation":[0.7631238163429818,0.002681740875837474,-0.0026823950994159658,0.6462421790438736],"scale":[1.0,1.0,1.0],"name":"node_40","children":[18]},{"translation":[0.048851008326779379,0.024433995180777256,0.007818999840966026],"rotation":[0.0,0.0,0.0,1.0],"scale":[1.0,1.0,1.0],"name":"node_41","children":[19]},{"mesh":3,"name":"c_tire_blurred_key_AN_41"},{"translation":[0.015948999673128129,1.9564939737319945,-0.1709509938955307],"rotation":[0.5374990734202464,-0.4643199392862737,0.4595380548037693,0.5336776533366091],"scale":[1.0,1.0,1.0],"name":"node_59","children":[21]},{"name":"prop0_still_VC_0","children":[22]},{"mesh":4,"name":"engine0_AN_0"},{"translation":[0.020563999190926553,1.9565420150756837,-0.168955996632576],"rotation":[-0.44012553349575037,-0.5534342912804384,0.5534342912804384,-0.44012553349575037],"scale":[1.0,1.0,1.0],"name":"node_62","children":[24]},{"name":"prop0_still_VC_1","children":[25]},{"mesh":5,"name":"engine0_AN_1"},{"translation":[0.02115900069475174,1.9564939737319945,-0.16808299720287324],"rotation":[-0.47094093319608529,-0.5234915554380181,0.5273871874348118,-0.4758112659048259],"scale":[1.0,1.0,1.0],"name":"node_65","children":[27]},{"name":"prop0_still_VC_2","children":[28]},{"mesh":6,"name":"engine0_AN_2"},{"translation":[0.021189000457525255,1.9565420150756837,-0.1709980070590973],"rotation":[0.560997307247368,-0.4304439815599729,0.4304439815599729,0.560997307247368],"scale":[1.0,1.0,1.0],"name":"node_68","children":[30]},{"name":"prop0_still_VC_3","children":[31]},{"mesh":7,"name":"engine0_AN_3"},{"translation":[-1.501649022102356,-0.730795979499817,-1.108894944190979],"rotation":[0.0,0.0,0.0,1.0],"scale":[1.0,1.0,1.0],"name":"node_80","children":[33]},{"mesh":8,"name":"l_tire_blurred_key_AN_80"},{"translation":[1.5143500566482545,-0.730795979499817,-1.108894944190979],"rotation":[0.0,0.0,0.0,1.0],"scale":[1.0,1.0,1.0],"name":"node_83","children":[35]},{"mesh":9,"name":"r_tire_blurred_key_AN_83"},{"translation":[0.005861999932676554,-4.388683795928955,-0.15436600148677827],"rotation":[0.0,0.0,0.0,1.0],"scale":[1.0,1.0,1.0],"name":"node_86","children":[37]},{"mesh":10,"name":"elevator_AN_86"}],"scene":0,"scenes":[{"nodes":[0]}],"textures":[{"extensions":{"MSFT_texture_dds":{"source":0}}},{"extensions":{"MSFT_texture_dds":{"source":1}}},{"extensions":{"MSFT_texture_dds":{"source":2}}}],"extensionsUsed":["MSFT_texture_dds","ASOBO_asset_optimized"],"buffers":[{"byteLength":39482,"uri":"ANAI_Piper_Archer_III_NF_MSFS_LOD3.bin"}],"images":[{"uri":"AI_ARCHER.PNG.DDS","extras":"ASOBO_image_converted_meta"},{"uri":"AI_ARCHER_C.PNG.DDS","extras":"ASOBO_image_converted_meta"},{"uri":"AI_ARCHER_L.PNG.DDS","extras":"ASOBO_image_converted_meta"}]}
