{"accessors":[{"bufferView":0,"componentType":5126,"count":5,"min":[0.0],"max":[100.0],"type":"SCALAR"},{"bufferView":1,"componentType":5126,"count":5,"type":"VEC4"},{"bufferView":0,"byteOffset":20,"componentType":5126,"count":5,"min":[0.0],"max":[100.0],"type":"SCALAR"},{"bufferView":1,"byteOffset":80,"componentType":5126,"count":5,"type":"VEC4"},{"bufferView":0,"byteOffset":40,"componentType":5126,"count":5,"min":[0.0],"max":[100.0],"type":"SCALAR"},{"bufferView":1,"byteOffset":160,"componentType":5126,"count":5,"type":"VEC4"},{"bufferView":0,"byteOffset":60,"componentType":5126,"count":5,"min":[0.0],"max":[100.0],"type":"SCALAR"},{"bufferView":1,"byteOffset":240,"componentType":5126,"count":5,"type":"VEC4"},{"bufferView":0,"byteOffset":80,"componentType":5126,"count":5,"min":[0.0],"max":[100.0],"type":"SCALAR"},{"bufferView":1,"byteOffset":320,"componentType":5126,"count":5,"type":"VEC4"},{"bufferView":0,"byteOffset":100,"componentType":5126,"count":5,"min":[0.0],"max":[100.0],"type":"SCALAR"},{"bufferView":1,"byteOffset":400,"componentType":5126,"count":5,"type":"VEC4"},{"bufferView":0,"byteOffset":120,"componentType":5126,"count":5,"min":[0.0],"max":[100.0],"type":"SCALAR"},{"bufferView":1,"byteOffset":480,"componentType":5126,"count":5,"type":"VEC4"},{"bufferView":2,"componentType":5126,"count":355,"min":[-5.278359889984131,-0.9964500069618225,-5.086750030517578],"max":[5.322380065917969,1.3515199422836304,2.289030075073242],"type":"VEC3","name":"part000_vertices#0_POSITION"},{"bufferView":2,"byteOffset":12,"componentType":5120,"count":355,"type":"VEC4","name":"part000_vertices#0_TANGENT"},{"bufferView":2,"byteOffset":16,"componentType":5120,"count":355,"type":"VEC4","name":"part000_vertices#0_NORMAL"},{"bufferView":2,"byteOffset":20,"componentType":5122,"count":355,"type":"VEC2","name":"part000_vertices#0_TEXCOORD_0"},{"bufferView":2,"byteOffset":24,"componentType":5122,"count":355,"type":"VEC2","name":"part000_vertices#0_TEXCOORD_1"},{"bufferView":2,"byteOffset":28,"componentType":5123,"count":355,"type":"VEC4","name":"part000_vertices#0_COLOR_0"},{"bufferView":3,"componentType":5123,"count":1104,"type":"SCALAR","name":"part000_indices#0"},{"bufferView":2,"byteOffset":12780,"componentType":5126,"count":6,"min":[-0.019260000437498094,0.0860000029206276,-0.017510000616312028],"max":[0.13860000669956208,0.9703999757766724,0.015690000727772714],"type":"VEC3","name":"part001_vertices#0_POSITION"},{"bufferView":2,"byteOffset":12792,"componentType":5120,"count":6,"type":"VEC4","name":"part001_vertices#0_TANGENT"},{"bufferView":2,"byteOffset":12796,"componentType":5120,"count":6,"type":"VEC4","name":"part001_vertices#0_NORMAL"},{"bufferView":2,"byteOffset":12800,"componentType":5122,"count":6,"type":"VEC2","name":"part001_vertices#0_TEXCOORD_0"},{"bufferView":2,"byteOffset":12804,"componentType":5122,"count":6,"type":"VEC2","name":"part001_vertices#0_TEXCOORD_1"},{"bufferView":2,"byteOffset":12808,"componentType":5123,"count":6,"type":"VEC4","name":"part001_vertices#0_COLOR_0"},{"bufferView":3,"byteOffset":2208,"componentType":5123,"count":12,"type":"SCALAR","name":"part001_indices#0"},{"bufferView":2,"byteOffset":12996,"componentType":5126,"count":6,"min":[-0.07038000226020813,0.0880500003695488,-0.016340000554919244],"max":[0.06550999730825424,0.970579981803894,0.01566999964416027],"type":"VEC3","name":"part002_vertices#0_POSITION"},{"bufferView":2,"byteOffset":13008,"componentType":5120,"count":6,"type":"VEC4","name":"part002_vertices#0_TANGENT"},{"bufferView":2,"byteOffset":13012,"componentType":5120,"count":6,"type":"VEC4","name":"part002_vertices#0_NORMAL"},{"bufferView":2,"byteOffset":13016,"componentType":5122,"count":6,"type":"VEC2","name":"part002_vertices#0_TEXCOORD_0"},{"bufferView":2,"byteOffset":13020,"componentType":5122,"count":6,"type":"VEC2","name":"part002_vertices#0_TEXCOORD_1"},{"bufferView":2,"byteOffset":13024,"componentType":5123,"count":6,"type":"VEC4","name":"part002_vertices#0_COLOR_0"},{"bufferView":3,"byteOffset":2232,"componentType":5123,"count":12,"type":"SCALAR","name":"part002_indices#0"},{"bufferView":2,"byteOffset":13212,"componentType":5126,"count":6,"min":[-0.017899999395012857,0.08705999702215195,-0.017510000616312028],"max":[0.14057999849319459,0.9746500253677368,0.01568000018596649],"type":"VEC3","name":"part003_vertices#0_POSITION"},{"bufferView":2,"byteOffset":13224,"componentType":5120,"count":6,"type":"VEC4","name":"part003_vertices#0_TANGENT"},{"bufferView":2,"byteOffset":13228,"componentType":5120,"count":6,"type":"VEC4","name":"part003_vertices#0_NORMAL"},{"bufferView":2,"byteOffset":13232,"componentType":5122,"count":6,"type":"VEC2","name":"part003_vertices#0_TEXCOORD_0"},{"bufferView":2,"byteOffset":13236,"componentType":5122,"count":6,"type":"VEC2","name":"part003_vertices#0_TEXCOORD_1"},{"bufferView":2,"byteOffset":13240,"componentType":5123,"count":6,"type":"VEC4","name":"part003_vertices#0_COLOR_0"},{"bufferView":3,"byteOffset":2256,"componentType":5123,"count":12,"type":"SCALAR","name":"part003_indices#0"},{"bufferView":2,"byteOffset":13428,"componentType":5126,"count":6,"min":[-0.07652000337839127,0.08386000245809555,-0.016340000554919244],"max":[0.059369999915361407,0.9673500061035156,0.01566999964416027],"type":"VEC3","name":"part004_vertices#0_POSITION"},{"bufferView":2,"byteOffset":13440,"componentType":5120,"count":6,"type":"VEC4","name":"part004_vertices#0_TANGENT"},{"bufferView":2,"byteOffset":13444,"componentType":5120,"count":6,"type":"VEC4","name":"part004_vertices#0_NORMAL"},{"bufferView":2,"byteOffset":13448,"componentType":5122,"count":6,"type":"VEC2","name":"part004_vertices#0_TEXCOORD_0"},{"bufferView":2,"byteOffset":13452,"componentType":5122,"count":6,"type":"VEC2","name":"part004_vertices#0_TEXCOORD_1"},{"bufferView":2,"byteOffset":13456,"componentType":5123,"count":6,"type":"VEC4","name":"part004_vertices#0_COLOR_0"},{"bufferView":3,"byteOffset":2280,"componentType":5123,"count":12,"type":"SCALAR","name":"part004_indices#0"},{"bufferView":2,"byteOffset":13644,"componentType":5126,"count":36,"min":[-0.05502000078558922,-0.2052299976348877,-0.20732000470161439],"max":[0.057029999792575839,0.20694999396800996,0.20487000048160554],"type":"VEC3","name":"part005_vertices#0_POSITION"},{"bufferView":2,"byteOffset":13656,"componentType":5120,"count":36,"type":"VEC4","name":"part005_vertices#0_TANGENT"},{"bufferView":2,"byteOffset":13660,"componentType":5120,"count":36,"type":"VEC4","name":"part005_vertices#0_NORMAL"},{"bufferView":2,"byteOffset":13664,"componentType":5122,"count":36,"type":"VEC2","name":"part005_vertices#0_TEXCOORD_0"},{"bufferView":2,"byteOffset":13668,"componentType":5122,"count":36,"type":"VEC2","name":"part005_vertices#0_TEXCOORD_1"},{"bufferView":2,"byteOffset":13672,"componentType":5123,"count":36,"type":"VEC4","name":"part005_vertices#0_COLOR_0"},{"bufferView":3,"byteOffset":2304,"componentType":5123,"count":84,"type":"SCALAR","name":"part005_indices#0"},{"bufferView":2,"byteOffset":14940,"componentType":5126,"count":36,"min":[-0.05803000181913376,-0.2052299976348877,-0.20732000470161439],"max":[0.05803000181913376,0.20694999396800996,0.20487000048160554],"type":"VEC3","name":"part006_vertices#0_POSITION"},{"bufferView":2,"byteOffset":14952,"componentType":5120,"count":36,"type":"VEC4","name":"part006_vertices#0_TANGENT"},{"bufferView":2,"byteOffset":14956,"componentType":5120,"count":36,"type":"VEC4","name":"part006_vertices#0_NORMAL"},{"bufferView":2,"byteOffset":14960,"componentType":5122,"count":36,"type":"VEC2","name":"part006_vertices#0_TEXCOORD_0"},{"bufferView":2,"byteOffset":14964,"componentType":5122,"count":36,"type":"VEC2","name":"part006_vertices#0_TEXCOORD_1"},{"bufferView":2,"byteOffset":14968,"componentType":5123,"count":36,"type":"VEC4","name":"part006_vertices#0_COLOR_0"},{"bufferView":3,"byteOffset":2472,"componentType":5123,"count":84,"type":"SCALAR","name":"part006_indices#0"},{"bufferView":2,"byteOffset":16236,"componentType":5126,"count":44,"min":[-0.053849998861551288,-0.1696300059556961,-0.1795399934053421],"max":[0.05420000106096268,0.17051999270915986,0.1806199997663498],"type":"VEC3","name":"part007_vertices#0_POSITION"},{"bufferView":2,"byteOffset":16248,"componentType":5120,"count":44,"type":"VEC4","name":"part007_vertices#0_TANGENT"},{"bufferView":2,"byteOffset":16252,"componentType":5120,"count":44,"type":"VEC4","name":"part007_vertices#0_NORMAL"},{"bufferView":2,"byteOffset":16256,"componentType":5122,"count":44,"type":"VEC2","name":"part007_vertices#0_TEXCOORD_0"},{"bufferView":2,"byteOffset":16260,"componentType":5122,"count":44,"type":"VEC2","name":"part007_vertices#0_TEXCOORD_1"},{"bufferView":2,"byteOffset":16264,"componentType":5123,"count":44,"type":"VEC4","name":"part007_vertices#0_COLOR_0"},{"bufferView":3,"byteOffset":2640,"componentType":5123,"count":108,"type":"SCALAR","name":"part007_indices#0"}],"animations":[{"name":"engine0","channels":[{"sampler":0,"target":{"node":13,"path":"rotation"}},{"sampler":1,"target":{"node":16,"path":"rotation"}},{"sampler":2,"target":{"node":19,"path":"rotation"}},{"sampler":3,"target":{"node":22,"path":"rotation"}}],"samplers":[{"input":0,"output":1,"interpolation":"LINEAR"},{"input":2,"output":3,"interpolation":"LINEAR"},{"input":4,"output":5,"interpolation":"LINEAR"},{"input":6,"output":7,"interpolation":"LINEAR"}]},{"name":"l_tire_blurred_key","channels":[{"sampler":0,"target":{"node":24,"path":"rotation"}}],"samplers":[{"input":8,"output":9,"interpolation":"LINEAR"}]},{"name":"r_tire_blurred_key","channels":[{"sampler":0,"target":{"node":26,"path":"rotation"}}],"samplers":[{"input":10,"output":11,"interpolation":"LINEAR"}]},{"name":"c_tire_blurred_key","channels":[{"sampler":0,"target":{"node":28,"path":"rotation"}}],"samplers":[{"input":12,"output":13,"interpolation":"LINEAR"}]}],"asset":{"generator":"ModelConverterX","version":"2.0","extensions":{"ASOBO_asset_optimized":{"BoundingBoxMax":[5.322380065917969,1.3515199422836304,2.289030075073242],"BoundingBoxMin":[-5.278359889984131,-0.9964500069618225,-5.086750030517578],"MajorVersion":4,"MinorVersion":4,"UseCheckerboardMaterialForMissingTextures":true,"UseOnlyFilenameForImageURI":true}}},"bufferViews":[{"buffer":0,"byteLength":140,"byteStride":4},{"buffer":0,"byteLength":560,"byteStride":16,"byteOffset":140},{"buffer":0,"byteLength":17820,"byteStride":36,"byteOffset":700,"target":34962,"name":"BufferViewVertexND"},{"buffer":0,"byteLength":2856,"byteOffset":18520,"target":34963,"name":"BufferViewIndex"}],"extensionsRequired":["MSFT_texture_dds"],"materials":[{"name":"material00","emissiveTexture":{"index":1},"emissiveFactor":[0.019607843831181527,0.019607843831181527,0.019607843831181527],"pbrMetallicRoughness":{"metallicFactor":0.0,"baseColorTexture":{"index":0}}}],"meshes":[{"primitives":[{"attributes":{"COLOR_0":19,"NORMAL":16,"POSITION":14,"TANGENT":15,"TEXCOORD_0":17,"TEXCOORD_1":18},"indices":20,"material":0,"mode":4,"extras":{"ASOBO_primitive":{"PrimitiveCount":368,"VertexType":"VTX","VertexVersion":2}}}],"name":"part000"},{"primitives":[{"attributes":{"COLOR_0":26,"NORMAL":23,"POSITION":21,"TANGENT":22,"TEXCOORD_0":24,"TEXCOORD_1":25},"indices":27,"material":0,"mode":4,"extras":{"ASOBO_primitive":{"PrimitiveCount":4,"VertexType":"VTX","VertexVersion":2}}}],"name":"part001"},{"primitives":[{"attributes":{"COLOR_0":33,"NORMAL":30,"POSITION":28,"TANGENT":29,"TEXCOORD_0":31,"TEXCOORD_1":32},"indices":34,"material":0,"mode":4,"extras":{"ASOBO_primitive":{"PrimitiveCount":4,"VertexType":"VTX","VertexVersion":2}}}],"name":"part002"},{"primitives":[{"attributes":{"COLOR_0":40,"NORMAL":37,"POSITION":35,"TANGENT":36,"TEXCOORD_0":38,"TEXCOORD_1":39},"indices":41,"material":0,"mode":4,"extras":{"ASOBO_primitive":{"PrimitiveCount":4,"VertexType":"VTX","VertexVersion":2}}}],"name":"part003"},{"primitives":[{"attributes":{"COLOR_0":47,"NORMAL":44,"POSITION":42,"TANGENT":43,"TEXCOORD_0":45,"TEXCOORD_1":46},"indices":48,"material":0,"mode":4,"extras":{"ASOBO_primitive":{"PrimitiveCount":4,"VertexType":"VTX","VertexVersion":2}}}],"name":"part004"},{"primitives":[{"attributes":{"COLOR_0":54,"NORMAL":51,"POSITION":49,"TANGENT":50,"TEXCOORD_0":52,"TEXCOORD_1":53},"indices":55,"material":0,"mode":4,"extras":{"ASOBO_primitive":{"PrimitiveCount":28,"VertexType":"VTX","VertexVersion":2}}}],"name":"part005"},{"primitives":[{"attributes":{"COLOR_0":61,"NORMAL":58,"POSITION":56,"TANGENT":57,"TEXCOORD_0":59,"TEXCOORD_1":60},"indices":62,"material":0,"mode":4,"extras":{"ASOBO_primitive":{"PrimitiveCount":28,"VertexType":"VTX","VertexVersion":2}}}],"name":"part006"},{"primitives":[{"attributes":{"COLOR_0":68,"NORMAL":65,"POSITION":63,"TANGENT":64,"TEXCOORD_0":66,"TEXCOORD_1":67},"indices":69,"material":0,"mode":4,"extras":{"ASOBO_primitive":{"PrimitiveCount":36,"VertexType":"VTX","VertexVersion":2}}}],"name":"part007"}],"nodes":[{"name":"node_0","children":[1,2,3,4,5,6,7,8,9,10]},{"mesh":0,"name":"node_3"},{"translation":[-1.4695276829806339e-16,-1.350000023841858,1.2000000476837159],"rotation":[-6.123031769111886e-17,3.061515884555943e-17,1.0,1.874575902277672e-33],"scale":[1.0,1.0,1.0],"name":"c_tire1"},{"translation":[-1.5,-1.2999999523162842,-0.8000000119209291],"rotation":[-6.123031769111886e-17,3.061515884555943e-17,1.0,1.874575902277672e-33],"scale":[1.0,1.0,1.0],"name":"r_tire1"},{"translation":[1.5,-1.2999999523162842,-0.8000000119209288],"rotation":[-6.123031769111886e-17,3.061515884555943e-17,1.0,1.874575902277672e-33],"scale":[1.0,1.0,1.0],"name":"l_tire1"},{"translation":[-5.260000228881836,-0.07999999821186066,-0.2099999934434897],"rotation":[-6.123031769111886e-17,3.061515884555943e-17,1.0,1.874575902277672e-33],"scale":[1.0,1.0,1.0],"name":"Right_Taxi"},{"translation":[5.230000019073486,-0.07999999821186066,-0.20999999344348845],"rotation":[-6.123031769111886e-17,3.061515884555943e-17,1.0,1.874575902277672e-33],"scale":[1.0,1.0,1.0],"name":"Left_Landing"},{"translation":[5.239999771118164,-0.07999999821186066,-0.20999999344348845],"rotation":[-6.123031769111886e-17,3.061515884555943e-17,1.0,1.874575902277672e-33],"scale":[1.0,1.0,1.0],"name":"Left_Taxi"},{"translation":[-5.269999980926514,-0.07999999821186066,-0.2099999934434897],"rotation":[-6.123031769111886e-17,3.061515884555943e-17,1.0,1.874575902277672e-33],"scale":[1.0,1.0,1.0],"name":"Right_Landing"},{"translation":[6.123031769111886e-16,0.0,-5.0],"rotation":[-0.08715574274765822,3.049865892318291e-17,0.9961946980917456,-2.668286908522267e-18],"scale":[1.0,1.0,1.0],"name":"contrail1"},{"translation":[0.0,0.0,0.0],"rotation":[-4.329637285359677e-17,0.7071067811865475,0.7071067811865475,4.329637285359677e-17],"scale":[1.0,1.0,1.0],"name":"node_21","children":[11,14,17,20,23,25,27]},{"translation":[0.015948999673128129,1.9564939737319945,-0.1709509938955307],"rotation":[0.5374990734202464,-0.4643199392862737,0.4595380548037693,0.5336776533366091],"scale":[1.0,1.0,1.0],"name":"node_59","children":[12]},{"name":"prop0_still_VC_0","children":[13]},{"mesh":1,"name":"engine0_AN_0"},{"translation":[0.020563999190926553,1.9565420150756837,-0.168955996632576],"rotation":[-0.44012553349575037,-0.5534342912804384,0.5534342912804384,-0.44012553349575037],"scale":[1.0,1.0,1.0],"name":"node_62","children":[15]},{"name":"prop0_still_VC_1","children":[16]},{"mesh":2,"name":"engine0_AN_1"},{"translation":[0.02115900069475174,1.9564939737319945,-0.16808299720287324],"rotation":[-0.47094093319608529,-0.5234915554380181,0.5273871874348118,-0.4758112659048259],"scale":[1.0,1.0,1.0],"name":"node_65","children":[18]},{"name":"prop0_still_VC_2","children":[19]},{"mesh":3,"name":"engine0_AN_2"},{"translation":[0.021189000457525255,1.9565420150756837,-0.1709980070590973],"rotation":[0.560997307247368,-0.4304439815599729,0.4304439815599729,0.560997307247368],"scale":[1.0,1.0,1.0],"name":"node_68","children":[21]},{"name":"prop0_still_VC_3","children":[22]},{"mesh":4,"name":"engine0_AN_3"},{"translation":[-1.501649022102356,-0.730795979499817,-1.108894944190979],"rotation":[0.0,0.0,0.0,1.0],"scale":[1.0,1.0,1.0],"name":"node_79","children":[24]},{"mesh":5,"name":"l_tire_blurred_key_AN_79"},{"translation":[1.5143500566482545,-0.730795979499817,-1.108894944190979],"rotation":[0.0,0.0,0.0,1.0],"scale":[1.0,1.0,1.0],"name":"node_82","children":[26]},{"mesh":6,"name":"r_tire_blurred_key_AN_82"},{"translation":[0.01758600026369095,1.2378590106964112,-1.200732946395874],"rotation":[0.0,0.0,0.0,1.0],"scale":[1.0,1.0,1.0],"name":"node_85","children":[28]},{"mesh":7,"name":"c_tire_blurred_key_AN_85"}],"scene":0,"scenes":[{"nodes":[0]}],"textures":[{"extensions":{"MSFT_texture_dds":{"source":0}}},{"extensions":{"MSFT_texture_dds":{"source":1}}}],"extensionsUsed":["MSFT_texture_dds","ASOBO_asset_optimized"],"buffers":[{"byteLength":21376,"uri":"ANAI_Piper_Archer_III_NF_MSFS_LOD4.bin"}],"images":[{"uri":"AI_ARCHER.PNG.DDS","extras":"ASOBO_image_converted_meta"},{"uri":"AI_ARCHER_L.PNG.DDS","extras":"ASOBO_image_converted_meta"}]}
