{"accessors":[{"bufferView":0,"componentType":5126,"count":3,"min":[0.0],"max":[100.0],"type":"SCALAR"},{"bufferView":1,"componentType":5126,"count":3,"type":"VEC4"},{"bufferView":0,"byteOffset":12,"componentType":5126,"count":3,"min":[0.0],"max":[100.0],"type":"SCALAR"},{"bufferView":1,"byteOffset":48,"componentType":5126,"count":3,"type":"VEC4"},{"bufferView":0,"byteOffset":24,"componentType":5126,"count":4,"min":[0.0],"max":[100.0],"type":"SCALAR"},{"bufferView":1,"byteOffset":96,"componentType":5126,"count":4,"type":"VEC4"},{"bufferView":0,"byteOffset":40,"componentType":5126,"count":4,"min":[0.0],"max":[100.0],"type":"SCALAR"},{"bufferView":1,"byteOffset":160,"componentType":5126,"count":4,"type":"VEC4"},{"bufferView":2,"componentType":5126,"count":44,"min":[-10.594090461730957,0.7336599826812744,3.059890031814575],"max":[10.5939302444458,1.3676400184631348,3.059890031814575],"type":"VEC3","name":"part000_vertices#0_POSITION"},{"bufferView":2,"byteOffset":12,"componentType":5120,"count":44,"type":"VEC4","name":"part000_vertices#0_TANGENT"},{"bufferView":2,"byteOffset":16,"componentType":5120,"count":44,"type":"VEC4","name":"part000_vertices#0_NORMAL"},{"bufferView":2,"byteOffset":20,"componentType":5122,"count":44,"type":"VEC2","name":"part000_vertices#0_TEXCOORD_0"},{"bufferView":2,"byteOffset":24,"componentType":5122,"count":44,"type":"VEC2","name":"part000_vertices#0_TEXCOORD_1"},{"bufferView":2,"byteOffset":28,"componentType":5123,"count":44,"type":"VEC4","name":"part000_vertices#0_COLOR_0"},{"bufferView":3,"componentType":5123,"count":162,"type":"SCALAR","name":"part000_indices#0"},{"bufferView":2,"byteOffset":1584,"componentType":5126,"count":317,"min":[-19.967140197753908,-2.1335999965667726,-19.59712028503418],"max":[19.967750549316408,8.692290306091309,15.154709815979004],"type":"VEC3","name":"part001_vertices#0_POSITION"},{"bufferView":2,"byteOffset":1596,"componentType":5120,"count":317,"type":"VEC4","name":"part001_vertices#0_TANGENT"},{"bufferView":2,"byteOffset":1600,"componentType":5120,"count":317,"type":"VEC4","name":"part001_vertices#0_NORMAL"},{"bufferView":2,"byteOffset":1604,"componentType":5122,"count":317,"type":"VEC2","name":"part001_vertices#0_TEXCOORD_0"},{"bufferView":2,"byteOffset":1608,"componentType":5122,"count":317,"type":"VEC2","name":"part001_vertices#0_TEXCOORD_1"},{"bufferView":2,"byteOffset":1612,"componentType":5123,"count":317,"type":"VEC4","name":"part001_vertices#0_COLOR_0"},{"bufferView":3,"byteOffset":324,"componentType":5123,"count":759,"type":"SCALAR","name":"part001_indices#0"},{"bufferView":2,"byteOffset":12996,"componentType":5126,"count":10,"min":[-0.05042000114917755,-1.6311899423599244,-0.28238001465797427],"max":[0.00007000000186963007,1.402899980545044,0.0024399999529123308],"type":"VEC3","name":"part002_vertices#0_POSITION"},{"bufferView":2,"byteOffset":13008,"componentType":5120,"count":10,"type":"VEC4","name":"part002_vertices#0_TANGENT"},{"bufferView":2,"byteOffset":13012,"componentType":5120,"count":10,"type":"VEC4","name":"part002_vertices#0_NORMAL"},{"bufferView":2,"byteOffset":13016,"componentType":5122,"count":10,"type":"VEC2","name":"part002_vertices#0_TEXCOORD_0"},{"bufferView":2,"byteOffset":13020,"componentType":5122,"count":10,"type":"VEC2","name":"part002_vertices#0_TEXCOORD_1"},{"bufferView":2,"byteOffset":13024,"componentType":5123,"count":10,"type":"VEC4","name":"part002_vertices#0_COLOR_0"},{"bufferView":3,"byteOffset":1842,"componentType":5123,"count":12,"type":"SCALAR","name":"part002_indices#0"},{"bufferView":2,"byteOffset":13356,"componentType":5126,"count":8,"min":[-0.00007000000186963007,-1.6311899423599244,-0.28238001465797427],"max":[0.05042000114917755,1.402899980545044,0.0024399999529123308],"type":"VEC3","name":"part003_vertices#0_POSITION"},{"bufferView":2,"byteOffset":13368,"componentType":5120,"count":8,"type":"VEC4","name":"part003_vertices#0_TANGENT"},{"bufferView":2,"byteOffset":13372,"componentType":5120,"count":8,"type":"VEC4","name":"part003_vertices#0_NORMAL"},{"bufferView":2,"byteOffset":13376,"componentType":5122,"count":8,"type":"VEC2","name":"part003_vertices#0_TEXCOORD_0"},{"bufferView":2,"byteOffset":13380,"componentType":5122,"count":8,"type":"VEC2","name":"part003_vertices#0_TEXCOORD_1"},{"bufferView":2,"byteOffset":13384,"componentType":5123,"count":8,"type":"VEC4","name":"part003_vertices#0_COLOR_0"},{"bufferView":3,"byteOffset":1866,"componentType":5123,"count":12,"type":"SCALAR","name":"part003_indices#0"}],"animations":[{"name":"r_gear","channels":[{"sampler":0,"target":{"node":15,"path":"rotation"}},{"sampler":1,"target":{"node":17,"path":"rotation"}}],"samplers":[{"input":0,"output":1,"interpolation":"LINEAR"},{"input":2,"output":3,"interpolation":"LINEAR"}]},{"name":"l_gear","channels":[{"sampler":0,"target":{"node":23,"path":"rotation"}},{"sampler":1,"target":{"node":25,"path":"rotation"}}],"samplers":[{"input":4,"output":5,"interpolation":"LINEAR"},{"input":6,"output":7,"interpolation":"LINEAR"}]}],"asset":{"generator":"ModelConverterX","version":"2.0","extensions":{"ASOBO_asset_optimized":{"BoundingBoxMax":[19.967750549316408,8.692290306091309,15.154709815979004],"BoundingBoxMin":[-19.967140197753908,-2.1335999965667726,-19.59712028503418],"MajorVersion":4,"MinorVersion":4,"UseCheckerboardMaterialForMissingTextures":true,"UseOnlyFilenameForImageURI":true}}},"bufferViews":[{"buffer":0,"byteLength":56,"byteStride":4},{"buffer":0,"byteLength":224,"byteStride":16,"byteOffset":56},{"buffer":0,"byteLength":13644,"byteStride":36,"byteOffset":280,"target":34962,"name":"BufferViewVertexND"},{"buffer":0,"byteLength":1890,"byteOffset":13924,"target":34963,"name":"BufferViewIndex"}],"extensionsRequired":["MSFT_texture_dds"],"materials":[{"name":"material00","emissiveTexture":{"index":1},"emissiveFactor":[0.019607843831181527,0.019607843831181527,0.019607843831181527],"pbrMetallicRoughness":{"metallicFactor":0.0,"baseColorTexture":{"index":0}},"extensions":{"ASOBO_material_day_night_switch":{}}},{"name":"material01","pbrMetallicRoughness":{"baseColorFactor":[0.03921600058674812,0.03921600058674812,0.03921600058674812,1.0],"metallicFactor":0.0}}],"meshes":[{"primitives":[{"attributes":{"COLOR_0":13,"NORMAL":10,"POSITION":8,"TANGENT":9,"TEXCOORD_0":11,"TEXCOORD_1":12},"indices":14,"material":1,"mode":4,"extras":{"ASOBO_primitive":{"PrimitiveCount":54,"VertexType":"VTX","VertexVersion":2}}}],"name":"part000"},{"primitives":[{"attributes":{"COLOR_0":20,"NORMAL":17,"POSITION":15,"TANGENT":16,"TEXCOORD_0":18,"TEXCOORD_1":19},"indices":21,"material":0,"mode":4,"extras":{"ASOBO_primitive":{"PrimitiveCount":253,"VertexType":"VTX","VertexVersion":2}}}],"name":"part001"},{"primitives":[{"attributes":{"COLOR_0":27,"NORMAL":24,"POSITION":22,"TANGENT":23,"TEXCOORD_0":25,"TEXCOORD_1":26},"indices":28,"material":0,"mode":4,"extras":{"ASOBO_primitive":{"PrimitiveCount":4,"VertexType":"VTX","VertexVersion":2}}}],"name":"part002"},{"primitives":[{"attributes":{"COLOR_0":34,"NORMAL":31,"POSITION":29,"TANGENT":30,"TEXCOORD_0":32,"TEXCOORD_1":33},"indices":35,"material":0,"mode":4,"extras":{"ASOBO_primitive":{"PrimitiveCount":4,"VertexType":"VTX","VertexVersion":2}}}],"name":"part003"}],"nodes":[{"name":"node_0","children":[1,2,3,4,5,6,7,8,9,10,11,12]},{"mesh":0,"name":"node_2"},{"mesh":1,"name":"node_3"},{"translation":[-2.0999999046325685,-2.5999999046325685,-1.700000047683716],"rotation":[-6.123031769111886e-17,3.061515884555943e-17,1.0,1.874575902277672e-33],"scale":[1.0,1.0,1.0],"name":"r_tire1"},{"translation":[2.0999999046325685,-2.5999999046325685,-1.7000000476837157],"rotation":[-6.123031769111886e-17,3.061515884555943e-17,1.0,1.874575902277672e-33],"scale":[1.0,1.0,1.0],"name":"l_tire1"},{"translation":[-1.4389124657412933e-15,-2.5,11.75],"rotation":[-6.123031769111886e-17,3.061515884555943e-17,1.0,1.874575902277672e-33],"scale":[1.0,1.0,1.0],"name":"c_tire1"},{"translation":[-5.099999904632568,1.2999999523162842,-1.0000000000000009],"rotation":[-6.123031769111886e-17,3.061515884555943e-17,1.0,1.874575902277672e-33],"scale":[1.0,1.0,1.0],"name":"contrail3"},{"translation":[5.099999904632568,1.2999999523162842,-0.9999999999999992],"rotation":[-6.123031769111886e-17,3.061515884555943e-17,1.0,1.874575902277672e-33],"scale":[1.0,1.0,1.0],"name":"contrail2"},{"translation":[-10.300000190734864,1.5,-1.000000000000001],"rotation":[-6.123031769111886e-17,3.061515884555943e-17,1.0,1.874575902277672e-33],"scale":[1.0,1.0,1.0],"name":"contrail4"},{"translation":[6.889999866485596,1.7200000286102296,0.4799999892711648],"rotation":[-6.123031769111886e-17,3.061515884555943e-17,1.0,1.874575902277672e-33],"scale":[1.0,1.0,1.0],"name":"port_wing"},{"translation":[-6.889999866485596,1.7200000286102296,0.4799999892711631],"rotation":[-6.123031769111886e-17,3.061515884555943e-17,1.0,1.874575902277672e-33],"scale":[1.0,1.0,1.0],"name":"starboard_wing"},{"translation":[10.300000190734864,1.5,-0.9999999999999987],"rotation":[-6.123031769111886e-17,3.061515884555943e-17,1.0,1.874575902277672e-33],"scale":[1.0,1.0,1.0],"name":"contrail1"},{"translation":[0.0,0.0,0.0],"rotation":[-4.329637285359677e-17,0.7071067811865475,0.7071067811865475,4.329637285359677e-17],"scale":[1.0,1.0,1.0],"name":"node_34","children":[13,21]},{"translation":[2.416604995727539,-0.532755970954895,-1.3971140384674073],"rotation":[0.0,0.0,0.0,1.0],"scale":[1.0,1.0,1.0],"name":"node_56","children":[14,16]},{"name":"node_57","children":[15]},{"mesh":2,"name":"r_gear_AN_57"},{"name":"node_66","children":[17]},{"name":"r_gear_AN_66","children":[18]},{"translation":[-0.1905589997768402,1.4027559757232667,-0.30849799513816836],"rotation":[0.3826827704088216,0.0,0.923879806702273,0.0],"scale":[1.0,1.0,1.0],"name":"node_67","children":[19,20]},{"translation":[0.0,0.0,0.0],"rotation":[-0.7071067811865475,0.0,0.0,0.7071067811865475],"scale":[1.0,1.0,1.0],"name":"starboard_gear_taxi"},{"translation":[0.0,0.0,0.0],"rotation":[-0.7071067811865475,0.0,0.0,0.7071067811865475],"scale":[1.0,1.0,1.0],"name":"starboard_gear_landing"},{"translation":[-2.416604995727539,-0.532755970954895,-1.3971140384674073],"rotation":[0.0,0.0,0.0,1.0],"scale":[1.0,1.0,1.0],"name":"node_70","children":[22,24]},{"name":"node_71","children":[23]},{"mesh":3,"name":"l_gear_AN_71"},{"name":"node_80","children":[25]},{"name":"l_gear_AN_80","children":[26]},{"translation":[0.1905589997768402,1.4027559757232667,-0.30849799513816836],"rotation":[-0.3826827704088216,0.0,0.923879806702273,0.0],"scale":[1.0,1.0,1.0],"name":"node_81","children":[27,28]},{"translation":[0.0,0.0,0.0],"rotation":[-0.7071067811865475,0.0,0.0,0.7071067811865475],"scale":[1.0,1.0,1.0],"name":"port_gear_landing"},{"translation":[0.0,0.0,0.0],"rotation":[-0.7071067811865475,0.0,0.0,0.7071067811865475],"scale":[1.0,1.0,1.0],"name":"port_gear_taxi"}],"scene":0,"scenes":[{"nodes":[0]}],"textures":[{"extensions":{"MSFT_texture_dds":{"source":0}}},{"extensions":{"MSFT_texture_dds":{"source":1}}}],"extensionsUsed":["ASOBO_material_day_night_switch","MSFT_texture_dds","ASOBO_asset_optimized"],"buffers":[{"byteLength":15814,"uri":"HTAI_Lockheed_C-130H-30_WT_MSFS_LOD8.bin"}],"images":[{"uri":"C130H-30.PNG.DDS","extras":"ASOBO_image_converted_meta"},{"uri":"C130H-30_L.PNG.DDS","extras":"ASOBO_image_converted_meta"}]}
