{"accessors":[{"bufferView":0,"componentType":5126,"count":32,"min":[0.0],"max":[80.0],"type":"SCALAR"},{"bufferView":1,"componentType":5126,"count":32,"type":"VEC4"},{"bufferView":2,"componentType":5126,"count":121,"min":[-14.208000183105469,-1.8480000495910645,-18.05600929260254],"max":[14.208000183105469,4.920000076293945,2.7799999713897707],"type":"VEC3","name":"part000_vertices#0_POSITION"},{"bufferView":2,"byteOffset":12,"componentType":5120,"count":121,"type":"VEC4","name":"part000_vertices#0_TANGENT"},{"bufferView":2,"byteOffset":16,"componentType":5120,"count":121,"type":"VEC4","name":"part000_vertices#0_NORMAL"},{"bufferView":2,"byteOffset":20,"componentType":5122,"count":121,"type":"VEC2","name":"part000_vertices#0_TEXCOORD_0"},{"bufferView":2,"byteOffset":24,"componentType":5122,"count":121,"type":"VEC2","name":"part000_vertices#0_TEXCOORD_1"},{"bufferView":2,"byteOffset":28,"componentType":5123,"count":121,"type":"VEC4","name":"part000_vertices#0_COLOR_0"},{"bufferView":3,"componentType":5123,"count":195,"type":"SCALAR","name":"part000_indices#0"},{"bufferView":2,"byteOffset":4356,"componentType":5126,"count":24,"min":[-1.3880000114440919,-1.472000002861023,-13.779999732971192],"max":[1.3880000114440919,1.2680000066757203,13.4399995803833],"type":"VEC3","name":"part001_vertices#0_POSITION"},{"bufferView":2,"byteOffset":4368,"componentType":5120,"count":24,"type":"VEC4","name":"part001_vertices#0_TANGENT"},{"bufferView":2,"byteOffset":4372,"componentType":5120,"count":24,"type":"VEC4","name":"part001_vertices#0_NORMAL"},{"bufferView":2,"byteOffset":4376,"componentType":5122,"count":24,"type":"VEC2","name":"part001_vertices#0_TEXCOORD_0"},{"bufferView":2,"byteOffset":4380,"componentType":5122,"count":24,"type":"VEC2","name":"part001_vertices#0_TEXCOORD_1"},{"bufferView":2,"byteOffset":4384,"componentType":5123,"count":24,"type":"VEC4","name":"part001_vertices#0_COLOR_0"},{"bufferView":3,"byteOffset":390,"componentType":5123,"count":36,"type":"SCALAR","name":"part001_indices#0"}],"animations":[{"name":"c_gear","channels":[{"sampler":0,"target":{"node":18,"path":"rotation"}}],"samplers":[{"input":0,"output":1,"interpolation":"LINEAR"}]}],"asset":{"generator":"ModelConverterX","version":"2.0","extensions":{"ASOBO_asset_optimized":{"BoundingBoxMax":[14.208000183105469,4.920000076293945,13.4399995803833],"BoundingBoxMin":[-14.208000183105469,-1.8480000495910645,-18.05600929260254],"MajorVersion":4,"MinorVersion":4,"UseCheckerboardMaterialForMissingTextures":true,"UseOnlyFilenameForImageURI":true}}},"bufferViews":[{"buffer":0,"byteLength":128,"byteStride":4},{"buffer":0,"byteLength":512,"byteStride":16,"byteOffset":128},{"buffer":0,"byteLength":5220,"byteStride":36,"byteOffset":640,"target":34962,"name":"BufferViewVertexND"},{"buffer":0,"byteLength":462,"byteOffset":5860,"target":34963,"name":"BufferViewIndex"}],"extensionsRequired":["MSFT_texture_dds"],"materials":[{"name":"LowPolyLOD","emissiveTexture":{"index":1},"emissiveFactor":[0.019607843831181527,0.019607843831181527,0.019607843831181527],"pbrMetallicRoughness":{"baseColorTexture":{"index":0}},"extensions":{"ASOBO_material_day_night_switch":{}}}],"meshes":[{"primitives":[{"attributes":{"COLOR_0":7,"NORMAL":4,"POSITION":2,"TANGENT":3,"TEXCOORD_0":5,"TEXCOORD_1":6},"indices":8,"material":0,"mode":4,"extras":{"ASOBO_primitive":{"PrimitiveCount":65,"VertexType":"VTX","VertexVersion":2}}}],"name":"part000"},{"primitives":[{"attributes":{"COLOR_0":14,"NORMAL":11,"POSITION":9,"TANGENT":10,"TEXCOORD_0":12,"TEXCOORD_1":13},"indices":15,"material":0,"mode":4,"extras":{"ASOBO_primitive":{"PrimitiveCount":12,"VertexType":"VTX","VertexVersion":2}}}],"name":"part001"}],"nodes":[{"name":"node_0","children":[1,2,3,4,5,6,7,8,9,10,11,12,13,14,15]},{"mesh":0,"name":"custom_vis_parts_visible_00_mcx_VC"},{"mesh":1,"name":"cabin_lights_VC"},{"translation":[2.319999933242799,0.15000000596046449,-11.199999809265137],"rotation":[-6.123031769111886e-17,3.061515884555943e-17,1.0,1.874575902277672e-33],"scale":[1.0,1.0,1.0],"name":"contrail1"},{"translation":[4.000000000000002,4.139999866485596,-16.700000762939454],"rotation":[-0.4925080474716344,-0.11417440218531644,-0.2948183628869727,0.8108527375337333],"scale":[1.0,1.0,1.0],"name":"logo_l"},{"translation":[1.830000042915344,-1.4700000286102296,2.349999904632569],"rotation":[-0.6923792056431248,0.06492913308442837,0.058505807647185579,0.7162208554220204],"scale":[1.0,1.0,1.0],"name":"taxi_l"},{"translation":[-1.8300000429153445,-1.4700000286102296,2.349999904632568],"rotation":[-0.6923792056431247,-0.06492913308442845,-0.058505807647185648,0.7162208554220204],"scale":[1.0,1.0,1.0],"name":"taxi_r"},{"translation":[-3.999999999999998,4.139999866485596,-16.700000762939454],"rotation":[-0.49250804747163448,0.11417440218531634,0.29481836288697269,0.8108527375337333],"scale":[1.0,1.0,1.0],"name":"logo_r"},{"translation":[-2.029999971389771,-1.4700000286102296,2.150000095367431],"rotation":[-0.7010573846499779,-0.0922959556412574,-0.0922959556412574,0.7010573846499779],"scale":[1.0,1.0,1.0],"name":"landing_r"},{"translation":[2.02999997138977,-1.4700000286102296,2.150000095367432],"rotation":[-0.7010573846499779,0.09229595564125733,0.09229595564125733,0.7010573846499779],"scale":[1.0,1.0,1.0],"name":"landing_l"},{"translation":[-2.3199999332427967,0.15000000596046449,-11.199999809265137],"rotation":[-6.123031769111886e-17,3.061515884555943e-17,1.0,1.874575902277672e-33],"scale":[1.0,1.0,1.0],"name":"contrail2"},{"translation":[2.079999923706055,-2.8499999046325685,-3.2000000476837155],"rotation":[-6.123031769111886e-17,3.061515884555943e-17,1.0,1.874575902277672e-33],"scale":[1.0,1.0,1.0],"name":"l_tire1"},{"translation":[-2.0799999237060544,-2.8499999046325685,-3.2000000476837164],"rotation":[-6.123031769111886e-17,3.061515884555943e-17,1.0,1.874575902277672e-33],"scale":[1.0,1.0,1.0],"name":"r_tire1"},{"translation":[-1.3103287752324314e-15,-2.8499999046325685,10.699999809265137],"rotation":[-6.123031769111886e-17,3.061515884555943e-17,1.0,1.874575902277672e-33],"scale":[1.0,1.0,1.0],"name":"c_tire1"},{"translation":[-0.3499999940395339,0.14000000059604646,-13.199999809265137],"rotation":[0.0818996083190893,-0.3407186534216102,0.9361168066628592,0.02980901962620914],"scale":[1.0,1.0,1.0],"name":"APU"},{"translation":[0.0,0.0,0.0],"rotation":[-4.329637285359677e-17,0.7071067811865475,0.7071067811865475,4.329637285359677e-17],"scale":[1.0,1.0,1.0],"name":"node_25","children":[16]},{"translation":[0.0,9.517731666564942,-0.9262369871139526],"rotation":[0.0,0.0,0.0,1.0],"scale":[1.0,1.0,1.0],"name":"node_26","children":[17]},{"translation":[0.0,1.2902569770812989,-0.3909609913825989],"rotation":[0.0,0.0,0.0,1.0],"scale":[1.0,1.0,1.0],"name":"node_27","children":[18]},{"name":"c_gear_AN_27","children":[19,21]},{"translation":[0.6328020095825195,0.08201199769973755,0.07000000029802323],"rotation":[0.0,0.0,0.0,1.0],"scale":[1.0,1.0,1.0],"name":"node_56","children":[20]},{"translation":[0.0,0.0,0.0],"rotation":[0.7071067811865475,4.329637285359677e-17,0.7071067811865475,-4.329637285359677e-17],"scale":[1.0,1.0,1.0],"name":"landing_nose_r"},{"translation":[0.6328020095825195,0.08201199769973755,-0.07000000029802323],"rotation":[0.0,0.0,0.0,1.0],"scale":[1.0,1.0,1.0],"name":"node_58","children":[22]},{"translation":[0.0,0.0,0.0],"rotation":[0.7071067811865475,4.329637285359677e-17,0.7071067811865475,-4.329637285359677e-17],"scale":[1.0,1.0,1.0],"name":"landing_nose_l"}],"scene":0,"scenes":[{"nodes":[0]}],"textures":[{"extensions":{"MSFT_texture_dds":{"source":0}}},{"extensions":{"MSFT_texture_dds":{"source":1}}}],"extensionsUsed":["ASOBO_material_day_night_switch","MSFT_texture_dds","ASOBO_asset_optimized"],"buffers":[{"byteLength":6322,"uri":"DJC_BD-700_Express_XRS_MSFS_LOD4.bin"}],"images":[{"uri":"DJC_BD-700_EXPRESS_T.PNG.DDS","extras":"ASOBO_image_converted_meta"},{"uri":"DJC_BD-700_EXPRESS_L.PNG.DDS","extras":"ASOBO_image_converted_meta"}]}
