{"accessors":[{"bufferView":0,"componentType":5126,"count":2,"min":[0.0],"max":[100.0],"type":"SCALAR"},{"bufferView":1,"componentType":5126,"count":2,"type":"VEC3"},{"bufferView":0,"byteOffset":8,"componentType":5126,"count":2,"min":[0.0],"max":[100.0],"type":"SCALAR"},{"bufferView":2,"componentType":5126,"count":2,"type":"VEC4"},{"bufferView":0,"byteOffset":16,"componentType":5126,"count":2,"min":[0.0],"max":[100.0],"type":"SCALAR"},{"bufferView":1,"byteOffset":24,"componentType":5126,"count":2,"type":"VEC3"},{"bufferView":0,"byteOffset":24,"componentType":5126,"count":2,"min":[0.0],"max":[100.0],"type":"SCALAR"},{"bufferView":2,"byteOffset":32,"componentType":5126,"count":2,"type":"VEC4"},{"bufferView":3,"componentType":5126,"count":200,"min":[-6.686649799346924,-0.7345700263977051,-7.909249782562256],"max":[6.68671989440918,3.799639940261841,7.9528398513793949],"type":"VEC3","name":"part000_vertices#0_POSITION"},{"bufferView":3,"byteOffset":12,"componentType":5120,"count":200,"type":"VEC4","name":"part000_vertices#0_TANGENT"},{"bufferView":3,"byteOffset":16,"componentType":5120,"count":200,"type":"VEC4","name":"part000_vertices#0_NORMAL"},{"bufferView":3,"byteOffset":20,"componentType":5122,"count":200,"type":"VEC2","name":"part000_vertices#0_TEXCOORD_0"},{"bufferView":3,"byteOffset":24,"componentType":5122,"count":200,"type":"VEC2","name":"part000_vertices#0_TEXCOORD_1"},{"bufferView":3,"byteOffset":28,"componentType":5123,"count":200,"type":"VEC4","name":"part000_vertices#0_COLOR_0"},{"bufferView":4,"componentType":5123,"count":432,"type":"SCALAR","name":"part000_indices#0"},{"bufferView":3,"byteOffset":7200,"componentType":5126,"count":16,"min":[-1.4139699935913087,0.6682699918746948,-5.415130138397217],"max":[1.4139699935913087,1.383180022239685,-2.430419921875],"type":"VEC3","name":"part001_vertices#0_POSITION"},{"bufferView":3,"byteOffset":7212,"componentType":5120,"count":16,"type":"VEC4","name":"part001_vertices#0_TANGENT"},{"bufferView":3,"byteOffset":7216,"componentType":5120,"count":16,"type":"VEC4","name":"part001_vertices#0_NORMAL"},{"bufferView":3,"byteOffset":7220,"componentType":5122,"count":16,"type":"VEC2","name":"part001_vertices#0_TEXCOORD_0"},{"bufferView":3,"byteOffset":7224,"componentType":5122,"count":16,"type":"VEC2","name":"part001_vertices#0_TEXCOORD_1"},{"bufferView":3,"byteOffset":7228,"componentType":5123,"count":16,"type":"VEC4","name":"part001_vertices#0_COLOR_0"},{"bufferView":4,"byteOffset":864,"componentType":5123,"count":24,"type":"SCALAR","name":"part001_indices#0"}],"animations":[{"name":"l_gear","channels":[{"sampler":0,"target":{"node":12,"path":"translation"}},{"sampler":1,"target":{"node":14,"path":"rotation"}}],"samplers":[{"input":0,"output":1,"interpolation":"LINEAR"},{"input":2,"output":3,"interpolation":"LINEAR"}]},{"name":"r_gear","channels":[{"sampler":0,"target":{"node":20,"path":"translation"}},{"sampler":1,"target":{"node":22,"path":"rotation"}}],"samplers":[{"input":4,"output":5,"interpolation":"LINEAR"},{"input":6,"output":7,"interpolation":"LINEAR"}]}],"asset":{"generator":"ModelConverterX","version":"2.0","extensions":{"ASOBO_asset_optimized":{"BoundingBoxMax":[6.68671989440918,3.799639940261841,7.9528398513793949],"BoundingBoxMin":[-6.686649799346924,-0.7345700263977051,-7.909249782562256],"MajorVersion":4,"MinorVersion":4,"UseCheckerboardMaterialForMissingTextures":true,"UseOnlyFilenameForImageURI":true}}},"bufferViews":[{"buffer":0,"byteLength":32,"byteStride":4},{"buffer":0,"byteLength":48,"byteStride":12,"byteOffset":32},{"buffer":0,"byteLength":64,"byteStride":16,"byteOffset":80},{"buffer":0,"byteLength":7776,"byteStride":36,"byteOffset":144,"target":34962,"name":"BufferViewVertexND"},{"buffer":0,"byteLength":912,"byteOffset":7920,"target":34963,"name":"BufferViewIndex"}],"extensionsRequired":["MSFT_texture_dds"],"materials":[{"name":"material00","emissiveTexture":{"index":1},"pbrMetallicRoughness":{"metallicFactor":0.0,"baseColorTexture":{"index":0}},"extensions":{"ASOBO_material_day_night_switch":{}}},{"name":"material01","pbrMetallicRoughness":{"baseColorFactor":[0.03921600058674812,0.03921600058674812,0.03921600058674812,1.0],"metallicFactor":0.0}}],"meshes":[{"primitives":[{"attributes":{"COLOR_0":13,"NORMAL":10,"POSITION":8,"TANGENT":9,"TEXCOORD_0":11,"TEXCOORD_1":12},"indices":14,"material":0,"mode":4,"extras":{"ASOBO_primitive":{"PrimitiveCount":144,"VertexType":"VTX","VertexVersion":2}}}],"name":"part000"},{"primitives":[{"attributes":{"COLOR_0":20,"NORMAL":17,"POSITION":15,"TANGENT":16,"TEXCOORD_0":18,"TEXCOORD_1":19},"indices":21,"material":1,"mode":4,"extras":{"ASOBO_primitive":{"PrimitiveCount":8,"VertexType":"VTX","VertexVersion":2}}}],"name":"part001"}],"nodes":[{"name":"node_0","children":[1,2,3,4,5,6,7,8,9,10]},{"mesh":0,"name":"node_4"},{"mesh":1,"name":"node_36"},{"translation":[-1.600000023841858,-1.0499999523162842,-0.8999999761581422],"rotation":[-6.123031769111886e-17,0.0,1.0,0.0],"scale":[1.0,1.0,1.0],"name":"r_tire1"},{"translation":[1.600000023841858,-1.0499999523162842,-0.8999999761581419],"rotation":[-6.123031769111886e-17,0.0,1.0,0.0],"scale":[1.0,1.0,1.0],"name":"l_tire1"},{"translation":[-8.449783958161966e-16,-0.949999988079071,6.900000095367432],"rotation":[-6.123031769111886e-17,0.0,1.0,0.0],"scale":[1.0,1.0,1.0],"name":"c_tire1"},{"translation":[-1.110000014305114,0.949999988079071,-5.800000190734863],"rotation":[-6.123031769111886e-17,0.0,1.0,0.0],"scale":[1.0,1.0,1.0],"name":"contrail2"},{"translation":[-6.349999904632568,0.5,1.2999999523162834],"rotation":[-0.7071067811865475,-4.329637285359677e-17,-4.329637285359677e-17,0.7071067811865475],"scale":[1.0,1.0,1.0],"name":"landing_r"},{"translation":[6.349999904632568,0.5,1.2999999523162854],"rotation":[-0.7071067811865475,-4.329637285359677e-17,-4.329637285359677e-17,0.7071067811865475],"scale":[1.0,1.0,1.0],"name":"landing_l"},{"translation":[1.1100000143051155,0.949999988079071,-5.800000190734863],"rotation":[-6.123031769111886e-17,0.0,1.0,0.0],"scale":[1.0,1.0,1.0],"name":"contrail1"},{"translation":[0.0,0.0,0.0],"rotation":[-4.329637285359677e-17,0.7071067811865475,0.7071067811865475,4.329637285359677e-17],"scale":[1.0,1.0,1.0],"name":"node_44","children":[11,19]},{"translation":[-1.6081249713897706,-0.8165590167045593,0.3852669894695282],"rotation":[0.0,0.0,0.0,1.0],"scale":[1.0,1.0,1.0],"name":"node_157","children":[12]},{"name":"l_gear_AN_157","children":[13]},{"name":"node_158","children":[14]},{"name":"l_gear_AN_158","children":[15,17]},{"translation":[-0.09187500178813935,0.21655899286270145,-0.42185598611831667],"rotation":[0.7193396256204135,0.0,0.0,-0.694658551384983],"scale":[1.0,1.0,1.0],"name":"node_166","children":[16]},{"translation":[0.0,0.0,0.0],"rotation":[-0.7071067811865475,0.0,0.0,0.7071067811865475],"scale":[1.0,1.0,1.0],"name":"taxi_l"},{"translation":[-0.09187500178813935,0.21655899286270145,-0.42185598611831667],"rotation":[0.0,0.7071067811865475,0.7071067811865475,0.0],"scale":[1.0,1.0,1.0],"name":"node_168","children":[18]},{"translation":[0.0,0.0,0.0],"rotation":[-0.7071067811865475,0.0,0.0,0.7071067811865475],"scale":[1.0,1.0,1.0],"name":"landing_gear_l"},{"translation":[1.6081249713897706,-0.8165590167045593,0.3747459948062897],"rotation":[0.0,0.0,0.0,1.0],"scale":[1.0,1.0,1.0],"name":"node_197","children":[20]},{"name":"r_gear_AN_197","children":[21]},{"name":"node_198","children":[22]},{"name":"r_gear_AN_198","children":[23,25]},{"translation":[-0.09187500178813935,-0.21655899286270145,-0.42185598611831667],"rotation":[0.7071067811865475,0.0,0.0,0.7071067811865475],"scale":[1.0,1.0,1.0],"name":"node_206","children":[24]},{"translation":[0.0,0.0,0.0],"rotation":[-0.7071067811865475,0.0,0.0,0.7071067811865475],"scale":[1.0,1.0,1.0],"name":"landing_gear_r"},{"translation":[-0.09187500178813935,-0.21655899286270145,-0.42185598611831667],"rotation":[0.0,0.7193396256204135,-0.694658551384983,0.0],"scale":[1.0,1.0,1.0],"name":"node_208","children":[26]},{"translation":[0.0,0.0,0.0],"rotation":[-0.7071067811865475,0.0,0.0,0.7071067811865475],"scale":[1.0,1.0,1.0],"name":"taxi_r"}],"scene":0,"scenes":[{"nodes":[0]}],"textures":[{"extensions":{"MSFT_texture_dds":{"source":0}}},{"extensions":{"MSFT_texture_dds":{"source":1}}}],"extensionsUsed":["ASOBO_material_day_night_switch","MSFT_texture_dds","ASOBO_asset_optimized"],"buffers":[{"byteLength":8832,"uri":"HTAI IAI 1124A Westwind 2 MSFS_LOD6.bin"}],"images":[{"uri":"1124A.PNG.DDS","extras":"ASOBO_image_converted_meta"},{"uri":"CABIN_LIGHTS.PNG.DDS","extras":"ASOBO_image_converted_meta"}]}
