{"accessors":[{"bufferView":0,"componentType":5126,"count":41,"min":[0.0],"max":[70.0],"type":"SCALAR"},{"bufferView":1,"componentType":5126,"count":41,"type":"VEC3"},{"bufferView":0,"byteOffset":164,"componentType":5126,"count":41,"min":[0.0],"max":[70.0],"type":"SCALAR"},{"bufferView":2,"componentType":5126,"count":41,"type":"VEC4"},{"bufferView":0,"byteOffset":328,"componentType":5126,"count":5,"min":[0.0],"max":[100.0],"type":"SCALAR"},{"bufferView":2,"byteOffset":656,"componentType":5126,"count":5,"type":"VEC4"},{"bufferView":0,"byteOffset":348,"componentType":5126,"count":5,"min":[0.0],"max":[100.0],"type":"SCALAR"},{"bufferView":2,"byteOffset":736,"componentType":5126,"count":5,"type":"VEC4"},{"bufferView":3,"componentType":5126,"count":156,"min":[-14.310589790344239,-1.2451399564743043,-14.120340347290039],"max":[14.310669898986817,6.17563009262085,11.101110458374024],"type":"VEC3","name":"part000_vertices#0_POSITION"},{"bufferView":3,"byteOffset":12,"componentType":5120,"count":156,"type":"VEC4","name":"part000_vertices#0_TANGENT"},{"bufferView":3,"byteOffset":16,"componentType":5120,"count":156,"type":"VEC4","name":"part000_vertices#0_NORMAL"},{"bufferView":3,"byteOffset":20,"componentType":5122,"count":156,"type":"VEC2","name":"part000_vertices#0_TEXCOORD_0"},{"bufferView":3,"byteOffset":24,"componentType":5122,"count":156,"type":"VEC2","name":"part000_vertices#0_TEXCOORD_1"},{"bufferView":3,"byteOffset":28,"componentType":5123,"count":156,"type":"VEC4","name":"part000_vertices#0_COLOR_0"},{"bufferView":4,"componentType":5123,"count":282,"type":"SCALAR","name":"part000_indices#0"},{"bufferView":3,"byteOffset":5616,"componentType":5126,"count":42,"min":[-1.8808399438858033,-0.00004999999873689376,-1.8808399438858033],"max":[1.8808399438858033,-0.00004999999873689376,1.8808399438858033],"type":"VEC3","name":"part001_vertices#0_POSITION"},{"bufferView":3,"byteOffset":5628,"componentType":5120,"count":42,"type":"VEC4","name":"part001_vertices#0_TANGENT"},{"bufferView":3,"byteOffset":5632,"componentType":5120,"count":42,"type":"VEC4","name":"part001_vertices#0_NORMAL"},{"bufferView":3,"byteOffset":5636,"componentType":5122,"count":42,"type":"VEC2","name":"part001_vertices#0_TEXCOORD_0"},{"bufferView":3,"byteOffset":5640,"componentType":5122,"count":42,"type":"VEC2","name":"part001_vertices#0_TEXCOORD_1"},{"bufferView":3,"byteOffset":5644,"componentType":5123,"count":42,"type":"VEC4","name":"part001_vertices#0_COLOR_0"},{"bufferView":4,"byteOffset":564,"componentType":5123,"count":120,"type":"SCALAR","name":"part001_indices#0"},{"bufferView":3,"byteOffset":7128,"componentType":5126,"count":42,"min":[-1.8808399438858033,-0.00004999999873689376,-1.8808399438858033],"max":[1.8808399438858033,-0.00004999999873689376,1.8808399438858033],"type":"VEC3","name":"part002_vertices#0_POSITION"},{"bufferView":3,"byteOffset":7140,"componentType":5120,"count":42,"type":"VEC4","name":"part002_vertices#0_TANGENT"},{"bufferView":3,"byteOffset":7144,"componentType":5120,"count":42,"type":"VEC4","name":"part002_vertices#0_NORMAL"},{"bufferView":3,"byteOffset":7148,"componentType":5122,"count":42,"type":"VEC2","name":"part002_vertices#0_TEXCOORD_0"},{"bufferView":3,"byteOffset":7152,"componentType":5122,"count":42,"type":"VEC2","name":"part002_vertices#0_TEXCOORD_1"},{"bufferView":3,"byteOffset":7156,"componentType":5123,"count":42,"type":"VEC4","name":"part002_vertices#0_COLOR_0"},{"bufferView":4,"byteOffset":804,"componentType":5123,"count":120,"type":"SCALAR","name":"part002_indices#0"},{"bufferView":3,"byteOffset":8640,"componentType":5126,"count":42,"min":[-1.8808399438858033,-0.00004999999873689376,-1.8808399438858033],"max":[1.8808399438858033,-0.00004999999873689376,1.8808399438858033],"type":"VEC3","name":"part003_vertices#0_POSITION"},{"bufferView":3,"byteOffset":8652,"componentType":5120,"count":42,"type":"VEC4","name":"part003_vertices#0_TANGENT"},{"bufferView":3,"byteOffset":8656,"componentType":5120,"count":42,"type":"VEC4","name":"part003_vertices#0_NORMAL"},{"bufferView":3,"byteOffset":8660,"componentType":5122,"count":42,"type":"VEC2","name":"part003_vertices#0_TEXCOORD_0"},{"bufferView":3,"byteOffset":8664,"componentType":5122,"count":42,"type":"VEC2","name":"part003_vertices#0_TEXCOORD_1"},{"bufferView":3,"byteOffset":8668,"componentType":5123,"count":42,"type":"VEC4","name":"part003_vertices#0_COLOR_0"},{"bufferView":4,"byteOffset":1044,"componentType":5123,"count":120,"type":"SCALAR","name":"part003_indices#0"},{"bufferView":3,"byteOffset":10152,"componentType":5126,"count":42,"min":[-1.8808399438858033,-0.00004999999873689376,-1.8808399438858033],"max":[1.8808399438858033,-0.00004999999873689376,1.8808399438858033],"type":"VEC3","name":"part004_vertices#0_POSITION"},{"bufferView":3,"byteOffset":10164,"componentType":5120,"count":42,"type":"VEC4","name":"part004_vertices#0_TANGENT"},{"bufferView":3,"byteOffset":10168,"componentType":5120,"count":42,"type":"VEC4","name":"part004_vertices#0_NORMAL"},{"bufferView":3,"byteOffset":10172,"componentType":5122,"count":42,"type":"VEC2","name":"part004_vertices#0_TEXCOORD_0"},{"bufferView":3,"byteOffset":10176,"componentType":5122,"count":42,"type":"VEC2","name":"part004_vertices#0_TEXCOORD_1"},{"bufferView":3,"byteOffset":10180,"componentType":5123,"count":42,"type":"VEC4","name":"part004_vertices#0_COLOR_0"},{"bufferView":4,"byteOffset":1284,"componentType":5123,"count":120,"type":"SCALAR","name":"part004_indices#0"}],"animations":[{"name":"c_gear","channels":[{"sampler":0,"target":{"node":14,"path":"translation"}},{"sampler":1,"target":{"node":16,"path":"rotation"}}],"samplers":[{"input":0,"output":1,"interpolation":"LINEAR"},{"input":2,"output":3,"interpolation":"LINEAR"}]},{"name":"engine1","channels":[{"sampler":0,"target":{"node":22,"path":"rotation"}}],"samplers":[{"input":4,"output":5,"interpolation":"LINEAR"}]},{"name":"engine0","channels":[{"sampler":0,"target":{"node":27,"path":"rotation"}}],"samplers":[{"input":6,"output":7,"interpolation":"LINEAR"}]}],"asset":{"generator":"ModelConverterX","version":"2.0","extensions":{"ASOBO_asset_optimized":{"BoundingBoxMax":[14.310669898986817,6.17563009262085,11.101110458374024],"BoundingBoxMin":[-14.310589790344239,-1.2451399564743043,-14.120340347290039],"MajorVersion":4,"MinorVersion":4,"UseCheckerboardMaterialForMissingTextures":true,"UseOnlyFilenameForImageURI":true}}},"bufferViews":[{"buffer":0,"byteLength":368,"byteStride":4},{"buffer":0,"byteLength":492,"byteStride":12,"byteOffset":368},{"buffer":0,"byteLength":816,"byteStride":16,"byteOffset":860},{"buffer":0,"byteLength":11664,"byteStride":36,"byteOffset":1676,"target":34962,"name":"BufferViewVertexND"},{"buffer":0,"byteLength":1524,"byteOffset":13340,"target":34963,"name":"BufferViewIndex"}],"extensionsRequired":["MSFT_texture_dds"],"materials":[{"name":"material00","alphaMode":"BLEND","pbrMetallicRoughness":{"baseColorFactor":[0.0,0.0,0.0,0.4980390071868897],"metallicFactor":0.0,"baseColorTexture":{"index":0}}},{"name":"material01","emissiveTexture":{"index":2},"emissiveFactor":[0.019607843831181527,0.019607843831181527,0.019607843831181527],"pbrMetallicRoughness":{"metallicFactor":0.0,"baseColorTexture":{"index":1}},"extensions":{"ASOBO_material_day_night_switch":{}}}],"meshes":[{"primitives":[{"attributes":{"COLOR_0":13,"NORMAL":10,"POSITION":8,"TANGENT":9,"TEXCOORD_0":11,"TEXCOORD_1":12},"indices":14,"material":1,"mode":4,"extras":{"ASOBO_primitive":{"PrimitiveCount":94,"VertexType":"VTX","VertexVersion":2}}}],"name":"part000"},{"primitives":[{"attributes":{"COLOR_0":20,"NORMAL":17,"POSITION":15,"TANGENT":16,"TEXCOORD_0":18,"TEXCOORD_1":19},"indices":21,"material":0,"mode":4,"extras":{"ASOBO_primitive":{"PrimitiveCount":40,"VertexType":"VTX","VertexVersion":2}}}],"name":"part001"},{"primitives":[{"attributes":{"COLOR_0":27,"NORMAL":24,"POSITION":22,"TANGENT":23,"TEXCOORD_0":25,"TEXCOORD_1":26},"indices":28,"material":0,"mode":4,"extras":{"ASOBO_primitive":{"PrimitiveCount":40,"VertexType":"VTX","VertexVersion":2}}}],"name":"part002"},{"primitives":[{"attributes":{"COLOR_0":34,"NORMAL":31,"POSITION":29,"TANGENT":30,"TEXCOORD_0":32,"TEXCOORD_1":33},"indices":35,"material":0,"mode":4,"extras":{"ASOBO_primitive":{"PrimitiveCount":40,"VertexType":"VTX","VertexVersion":2}}}],"name":"part003"},{"primitives":[{"attributes":{"COLOR_0":41,"NORMAL":38,"POSITION":36,"TANGENT":37,"TEXCOORD_0":39,"TEXCOORD_1":40},"indices":42,"material":0,"mode":4,"extras":{"ASOBO_primitive":{"PrimitiveCount":40,"VertexType":"VTX","VertexVersion":2}}}],"name":"part004"}],"nodes":[{"name":"node_0","children":[1,2,3,4,5,6,7,8,9,10,11]},{"mesh":0,"name":"custom_vis_parts_visible_00_mcx_VC"},{"translation":[3.599999904632569,1.0,-5.0],"rotation":[-6.123031769111886e-17,3.061515884555943e-17,1.0,1.874575902277672e-33],"scale":[1.0,1.0,1.0],"name":"contrail1"},{"translation":[4.400000095367433,1.850000023841858,-11.649999618530272],"rotation":[0.6123724356957945,0.3535533905932738,0.6123724356957946,-0.35355339059327375],"scale":[1.0,1.0,1.0],"name":"logo_l"},{"translation":[5.682535171508789,1.2675739526748656,0.9073579907417304],"rotation":[-0.7071067811865475,0.0,0.0,0.7071067811865475],"scale":[1.0,1.0,1.0],"name":"landing_wing_l"},{"translation":[-5.682808876037598,1.267691969871521,0.9069079756736749],"rotation":[-0.7071067811865475,0.0,0.0,0.7071067811865475],"scale":[1.0,1.0,1.0],"name":"landing_wing_r"},{"translation":[-4.40000009536743,1.850000023841858,-11.649999618530272],"rotation":[0.6123724356957946,-0.35355339059327386,-0.6123724356957946,-0.35355339059327386],"scale":[1.0,1.0,1.0],"name":"logo_r"},{"translation":[-3.599999904632568,1.0,-5.0],"rotation":[-6.123031769111886e-17,3.061515884555943e-17,1.0,1.874575902277672e-33],"scale":[1.0,1.0,1.0],"name":"contrail2"},{"translation":[-1.1021457184401398e-15,-2.0,9.0],"rotation":[-6.123031769111886e-17,3.061515884555943e-17,1.0,1.874575902277672e-33],"scale":[1.0,1.0,1.0],"name":"c_tire1"},{"translation":[3.569999933242798,-2.0999999046325685,-0.6000000238418575],"rotation":[-6.123031769111886e-17,3.061515884555943e-17,1.0,1.874575902277672e-33],"scale":[1.0,1.0,1.0],"name":"l_tire1"},{"translation":[-3.569999933242798,-2.0999999046325685,-0.6000000238418584],"rotation":[-6.123031769111886e-17,3.061515884555943e-17,1.0,1.874575902277672e-33],"scale":[1.0,1.0,1.0],"name":"r_tire1"},{"translation":[0.0,0.0,0.0],"rotation":[-4.329637285359677e-17,0.7071067811865475,0.7071067811865475,4.329637285359677e-17],"scale":[1.0,1.0,1.0],"name":"node_22","children":[12,20,25]},{"translation":[0.0,-1.5113409757614136,0.04907099902629852],"rotation":[0.0,0.0,0.0,1.0],"scale":[1.0,1.0,1.0],"name":"node_23","children":[13]},{"name":"node_24","children":[14]},{"name":"c_gear_AN_24","children":[15]},{"name":"node_25","children":[16]},{"name":"c_gear_AN_25","children":[17]},{"translation":[0.1799989938735962,-0.13991700112819673,0.47391700744628909],"rotation":[-0.6921434114290356,0.0,0.0,0.7217600002877527],"scale":[1.0,1.0,1.0],"name":"node_69","children":[18,19]},{"translation":[0.0,0.0,0.0],"rotation":[0.7071067811865475,0.0,0.0,0.7071067811865475],"scale":[1.0,1.0,1.0],"name":"taxi_gear"},{"translation":[0.0,0.0,0.0],"rotation":[0.7071067811865475,0.0,0.0,0.7071067811865475],"scale":[1.0,1.0,1.0],"name":"landing_gear"},{"translation":[3.5695979595184328,-0.38077399134635928,0.7649880051612854],"rotation":[0.0,0.0,0.0,1.0],"scale":[1.0,1.0,1.0],"name":"node_100","children":[21]},{"translation":[-0.0009769999887794257,4.001791954040527,0.11333200335502625],"rotation":[0.0,0.0,0.0,1.0],"scale":[1.0,1.0,1.0],"name":"node_101","children":[22]},{"name":"engine1_AN_101","children":[23,24]},{"mesh":1,"name":"prop0_slow_VC"},{"mesh":2,"name":"prop0_blurred_VC"},{"translation":[-3.569291114807129,-0.38077300786972048,0.7649869918823241],"rotation":[0.0,0.0,0.0,1.0],"scale":[1.0,1.0,1.0],"name":"node_114","children":[26]},{"translation":[0.0009769999887794257,4.001791954040527,0.11333200335502625],"rotation":[0.0,0.0,0.0,1.0],"scale":[1.0,1.0,1.0],"name":"node_115","children":[27]},{"name":"engine0_AN_115","children":[28,29]},{"mesh":3,"name":"prop1_slow_VC"},{"mesh":4,"name":"prop1_blurred_VC"}],"scene":0,"scenes":[{"nodes":[0]}],"textures":[{"extensions":{"MSFT_texture_dds":{"source":0}}},{"extensions":{"MSFT_texture_dds":{"source":1}}},{"extensions":{"MSFT_texture_dds":{"source":2}}}],"extensionsUsed":["ASOBO_material_day_night_switch","MSFT_texture_dds","ASOBO_asset_optimized"],"buffers":[{"byteLength":14864,"uri":"NAAI_Fokker-50_MSFS_LOD5.bin"}],"images":[{"uri":"42_F50_P.PNG.DDS","extras":"ASOBO_image_converted_meta"},{"uri":"42_F50_T.PNG.DDS","extras":"ASOBO_image_converted_meta"},{"uri":"42_F50_L.PNG.DDS","extras":"ASOBO_image_converted_meta"}]}
