{"accessors":[{"bufferView":0,"componentType":5126,"count":4,"min":[0.0],"max":[100.0],"type":"SCALAR"},{"bufferView":1,"componentType":5126,"count":4,"type":"VEC3"},{"bufferView":0,"byteOffset":16,"componentType":5126,"count":4,"min":[0.0],"max":[100.0],"type":"SCALAR"},{"bufferView":2,"componentType":5126,"count":4,"type":"VEC4"},{"bufferView":0,"byteOffset":32,"componentType":5126,"count":4,"min":[0.0],"max":[100.0],"type":"SCALAR"},{"bufferView":1,"byteOffset":48,"componentType":5126,"count":4,"type":"VEC3"},{"bufferView":0,"byteOffset":48,"componentType":5126,"count":4,"min":[0.0],"max":[100.0],"type":"SCALAR"},{"bufferView":2,"byteOffset":64,"componentType":5126,"count":4,"type":"VEC4"},{"bufferView":0,"byteOffset":64,"componentType":5126,"count":4,"min":[0.0],"max":[100.0],"type":"SCALAR"},{"bufferView":1,"byteOffset":96,"componentType":5126,"count":4,"type":"VEC3"},{"bufferView":0,"byteOffset":80,"componentType":5126,"count":4,"min":[0.0],"max":[100.0],"type":"SCALAR"},{"bufferView":2,"byteOffset":128,"componentType":5126,"count":4,"type":"VEC4"},{"bufferView":0,"byteOffset":96,"componentType":5126,"count":5,"min":[0.0],"max":[100.0],"type":"SCALAR"},{"bufferView":2,"byteOffset":192,"componentType":5126,"count":5,"type":"VEC4"},{"bufferView":0,"byteOffset":116,"componentType":5126,"count":2,"min":[0.0],"max":[100.0],"type":"SCALAR"},{"bufferView":1,"byteOffset":144,"componentType":5126,"count":2,"type":"VEC3"},{"bufferView":0,"byteOffset":124,"componentType":5126,"count":2,"min":[0.0],"max":[100.0],"type":"SCALAR"},{"bufferView":2,"byteOffset":272,"componentType":5126,"count":2,"type":"VEC4"},{"bufferView":0,"byteOffset":132,"componentType":5126,"count":5,"min":[0.0],"max":[100.0],"type":"SCALAR"},{"bufferView":2,"byteOffset":304,"componentType":5126,"count":5,"type":"VEC4"},{"bufferView":0,"byteOffset":152,"componentType":5126,"count":3,"min":[0.0],"max":[100.0],"type":"SCALAR"},{"bufferView":1,"byteOffset":168,"componentType":5126,"count":3,"type":"VEC3"},{"bufferView":0,"byteOffset":164,"componentType":5126,"count":3,"min":[0.0],"max":[100.0],"type":"SCALAR"},{"bufferView":2,"byteOffset":384,"componentType":5126,"count":3,"type":"VEC4"},{"bufferView":0,"byteOffset":176,"componentType":5126,"count":3,"min":[0.0],"max":[100.0],"type":"SCALAR"},{"bufferView":1,"byteOffset":204,"componentType":5126,"count":3,"type":"VEC3"},{"bufferView":0,"byteOffset":188,"componentType":5126,"count":3,"min":[0.0],"max":[100.0],"type":"SCALAR"},{"bufferView":2,"byteOffset":432,"componentType":5126,"count":3,"type":"VEC4"},{"bufferView":0,"byteOffset":200,"componentType":5126,"count":3,"min":[0.0],"max":[100.0],"type":"SCALAR"},{"bufferView":2,"byteOffset":480,"componentType":5126,"count":3,"type":"VEC4"},{"bufferView":0,"byteOffset":212,"componentType":5126,"count":3,"min":[0.0],"max":[100.0],"type":"SCALAR"},{"bufferView":2,"byteOffset":528,"componentType":5126,"count":3,"type":"VEC4"},{"bufferView":3,"componentType":5126,"count":327,"min":[-5.374410152435303,-0.44020000100135805,-5.334390163421631],"max":[5.3784098625183109,1.5847100019454957,2.2089900970458986],"type":"VEC3","name":"part000_vertices#0_POSITION"},{"bufferView":3,"byteOffset":12,"componentType":5120,"count":327,"type":"VEC4","name":"part000_vertices#0_TANGENT"},{"bufferView":3,"byteOffset":16,"componentType":5120,"count":327,"type":"VEC4","name":"part000_vertices#0_NORMAL"},{"bufferView":3,"byteOffset":20,"componentType":5122,"count":327,"type":"VEC2","name":"part000_vertices#0_TEXCOORD_0"},{"bufferView":3,"byteOffset":24,"componentType":5122,"count":327,"type":"VEC2","name":"part000_vertices#0_TEXCOORD_1"},{"bufferView":3,"byteOffset":28,"componentType":5123,"count":327,"type":"VEC4","name":"part000_vertices#0_COLOR_0"},{"bufferView":4,"componentType":5123,"count":1029,"type":"SCALAR","name":"part000_indices#0"},{"bufferView":3,"byteOffset":11772,"componentType":5126,"count":6,"min":[-0.14806999266147614,-0.18007999658584596,-0.08404000103473664],"max":[0.14806999266147614,0.0,1.6782499551773072],"type":"VEC3","name":"part001_vertices#0_POSITION"},{"bufferView":3,"byteOffset":11784,"componentType":5120,"count":6,"type":"VEC4","name":"part001_vertices#0_TANGENT"},{"bufferView":3,"byteOffset":11788,"componentType":5120,"count":6,"type":"VEC4","name":"part001_vertices#0_NORMAL"},{"bufferView":3,"byteOffset":11792,"componentType":5122,"count":6,"type":"VEC2","name":"part001_vertices#0_TEXCOORD_0"},{"bufferView":3,"byteOffset":11796,"componentType":5122,"count":6,"type":"VEC2","name":"part001_vertices#0_TEXCOORD_1"},{"bufferView":3,"byteOffset":11800,"componentType":5123,"count":6,"type":"VEC4","name":"part001_vertices#0_COLOR_0"},{"bufferView":4,"byteOffset":2058,"componentType":5123,"count":6,"type":"SCALAR","name":"part001_indices#0"},{"bufferView":3,"byteOffset":11988,"componentType":5126,"count":8,"min":[-0.03058999963104725,-0.19043999910354615,-0.4452199935913086],"max":[0.13460999727249146,0.0820700004696846,0.08720999956130982],"type":"VEC3","name":"part002_vertices#0_POSITION"},{"bufferView":3,"byteOffset":12000,"componentType":5120,"count":8,"type":"VEC4","name":"part002_vertices#0_TANGENT"},{"bufferView":3,"byteOffset":12004,"componentType":5120,"count":8,"type":"VEC4","name":"part002_vertices#0_NORMAL"},{"bufferView":3,"byteOffset":12008,"componentType":5122,"count":8,"type":"VEC2","name":"part002_vertices#0_TEXCOORD_0"},{"bufferView":3,"byteOffset":12012,"componentType":5122,"count":8,"type":"VEC2","name":"part002_vertices#0_TEXCOORD_1"},{"bufferView":3,"byteOffset":12016,"componentType":5123,"count":8,"type":"VEC4","name":"part002_vertices#0_COLOR_0"},{"bufferView":4,"byteOffset":2070,"componentType":5123,"count":12,"type":"SCALAR","name":"part002_indices#0"},{"bufferView":3,"byteOffset":12276,"componentType":5126,"count":8,"min":[-0.15459999442100526,-0.12942999601364137,-0.524150013923645],"max":[0.008320000022649765,0.14287999272346497,0.010540000163018704],"type":"VEC3","name":"part003_vertices#0_POSITION"},{"bufferView":3,"byteOffset":12288,"componentType":5120,"count":8,"type":"VEC4","name":"part003_vertices#0_TANGENT"},{"bufferView":3,"byteOffset":12292,"componentType":5120,"count":8,"type":"VEC4","name":"part003_vertices#0_NORMAL"},{"bufferView":3,"byteOffset":12296,"componentType":5122,"count":8,"type":"VEC2","name":"part003_vertices#0_TEXCOORD_0"},{"bufferView":3,"byteOffset":12300,"componentType":5122,"count":8,"type":"VEC2","name":"part003_vertices#0_TEXCOORD_1"},{"bufferView":3,"byteOffset":12304,"componentType":5123,"count":8,"type":"VEC4","name":"part003_vertices#0_COLOR_0"},{"bufferView":4,"byteOffset":2094,"componentType":5123,"count":12,"type":"SCALAR","name":"part003_indices#0"},{"bufferView":3,"byteOffset":12564,"componentType":5126,"count":12,"min":[-0.021810000762343408,-0.023590000346302987,-0.11023999750614166],"max":[0.022859999909996988,0.020430000498890878,0.2675800025463104],"type":"VEC3","name":"part004_vertices#0_POSITION"},{"bufferView":3,"byteOffset":12576,"componentType":5120,"count":12,"type":"VEC4","name":"part004_vertices#0_TANGENT"},{"bufferView":3,"byteOffset":12580,"componentType":5120,"count":12,"type":"VEC4","name":"part004_vertices#0_NORMAL"},{"bufferView":3,"byteOffset":12584,"componentType":5122,"count":12,"type":"VEC2","name":"part004_vertices#0_TEXCOORD_0"},{"bufferView":3,"byteOffset":12588,"componentType":5122,"count":12,"type":"VEC2","name":"part004_vertices#0_TEXCOORD_1"},{"bufferView":3,"byteOffset":12592,"componentType":5123,"count":12,"type":"VEC4","name":"part004_vertices#0_COLOR_0"},{"bufferView":4,"byteOffset":2118,"componentType":5123,"count":24,"type":"SCALAR","name":"part004_indices#0"},{"bufferView":3,"byteOffset":12996,"componentType":5126,"count":42,"min":[-0.07479999959468842,-0.20366999506950379,-0.1949699968099594],"max":[0.0741100013256073,0.20451000332832337,0.2085600048303604],"type":"VEC3","name":"part005_vertices#0_POSITION"},{"bufferView":3,"byteOffset":13008,"componentType":5120,"count":42,"type":"VEC4","name":"part005_vertices#0_TANGENT"},{"bufferView":3,"byteOffset":13012,"componentType":5120,"count":42,"type":"VEC4","name":"part005_vertices#0_NORMAL"},{"bufferView":3,"byteOffset":13016,"componentType":5122,"count":42,"type":"VEC2","name":"part005_vertices#0_TEXCOORD_0"},{"bufferView":3,"byteOffset":13020,"componentType":5122,"count":42,"type":"VEC2","name":"part005_vertices#0_TEXCOORD_1"},{"bufferView":3,"byteOffset":13024,"componentType":5123,"count":42,"type":"VEC4","name":"part005_vertices#0_COLOR_0"},{"bufferView":4,"byteOffset":2166,"componentType":5123,"count":96,"type":"SCALAR","name":"part005_indices#0"},{"bufferView":3,"byteOffset":14508,"componentType":5126,"count":12,"min":[-0.023089999333024026,-0.023010000586509706,-0.11005000025033951],"max":[0.0225600004196167,0.02101000025868416,0.26739001274108889],"type":"VEC3","name":"part006_vertices#0_POSITION"},{"bufferView":3,"byteOffset":14520,"componentType":5120,"count":12,"type":"VEC4","name":"part006_vertices#0_TANGENT"},{"bufferView":3,"byteOffset":14524,"componentType":5120,"count":12,"type":"VEC4","name":"part006_vertices#0_NORMAL"},{"bufferView":3,"byteOffset":14528,"componentType":5122,"count":12,"type":"VEC2","name":"part006_vertices#0_TEXCOORD_0"},{"bufferView":3,"byteOffset":14532,"componentType":5122,"count":12,"type":"VEC2","name":"part006_vertices#0_TEXCOORD_1"},{"bufferView":3,"byteOffset":14536,"componentType":5123,"count":12,"type":"VEC4","name":"part006_vertices#0_COLOR_0"},{"bufferView":4,"byteOffset":2358,"componentType":5123,"count":24,"type":"SCALAR","name":"part006_indices#0"},{"bufferView":3,"byteOffset":14940,"componentType":5126,"count":42,"min":[-0.07475999742746353,-0.20171000063419343,-0.19758999347686768],"max":[0.05762999877333641,0.20247000455856324,0.20907999575138093],"type":"VEC3","name":"part007_vertices#0_POSITION"},{"bufferView":3,"byteOffset":14952,"componentType":5120,"count":42,"type":"VEC4","name":"part007_vertices#0_TANGENT"},{"bufferView":3,"byteOffset":14956,"componentType":5120,"count":42,"type":"VEC4","name":"part007_vertices#0_NORMAL"},{"bufferView":3,"byteOffset":14960,"componentType":5122,"count":42,"type":"VEC2","name":"part007_vertices#0_TEXCOORD_0"},{"bufferView":3,"byteOffset":14964,"componentType":5122,"count":42,"type":"VEC2","name":"part007_vertices#0_TEXCOORD_1"},{"bufferView":3,"byteOffset":14968,"componentType":5123,"count":42,"type":"VEC4","name":"part007_vertices#0_COLOR_0"},{"bufferView":4,"byteOffset":2406,"componentType":5123,"count":96,"type":"SCALAR","name":"part007_indices#0"},{"bufferView":3,"byteOffset":16452,"componentType":5126,"count":54,"min":[-0.03300999850034714,-0.1525699943304062,-0.28804999589920046],"max":[0.06702999770641327,0.17510999739170075,0.2674199938774109],"type":"VEC3","name":"part008_vertices#0_POSITION"},{"bufferView":3,"byteOffset":16464,"componentType":5120,"count":54,"type":"VEC4","name":"part008_vertices#0_TANGENT"},{"bufferView":3,"byteOffset":16468,"componentType":5120,"count":54,"type":"VEC4","name":"part008_vertices#0_NORMAL"},{"bufferView":3,"byteOffset":16472,"componentType":5122,"count":54,"type":"VEC2","name":"part008_vertices#0_TEXCOORD_0"},{"bufferView":3,"byteOffset":16476,"componentType":5122,"count":54,"type":"VEC2","name":"part008_vertices#0_TEXCOORD_1"},{"bufferView":3,"byteOffset":16480,"componentType":5123,"count":54,"type":"VEC4","name":"part008_vertices#0_COLOR_0"},{"bufferView":4,"byteOffset":2598,"componentType":5123,"count":120,"type":"SCALAR","name":"part008_indices#0"},{"bufferView":3,"byteOffset":18396,"componentType":5126,"count":12,"min":[-1.0288900136947632,-0.27612000703811648,-0.1307699978351593],"max":[1.1581100225448609,0.004000000189989805,0.03847000002861023],"type":"VEC3","name":"part009_vertices#0_POSITION"},{"bufferView":3,"byteOffset":18408,"componentType":5120,"count":12,"type":"VEC4","name":"part009_vertices#0_TANGENT"},{"bufferView":3,"byteOffset":18412,"componentType":5120,"count":12,"type":"VEC4","name":"part009_vertices#0_NORMAL"},{"bufferView":3,"byteOffset":18416,"componentType":5122,"count":12,"type":"VEC2","name":"part009_vertices#0_TEXCOORD_0"},{"bufferView":3,"byteOffset":18420,"componentType":5122,"count":12,"type":"VEC2","name":"part009_vertices#0_TEXCOORD_1"},{"bufferView":3,"byteOffset":18424,"componentType":5123,"count":12,"type":"VEC4","name":"part009_vertices#0_COLOR_0"},{"bufferView":4,"byteOffset":2838,"componentType":5123,"count":12,"type":"SCALAR","name":"part009_indices#0"},{"bufferView":3,"byteOffset":18828,"componentType":5126,"count":8,"min":[-0.8281499743461609,-0.2741200029850006,-0.14092999696731568],"max":[1.3588500022888184,0.006000000052154064,0.028310000896453859],"type":"VEC3","name":"part010_vertices#0_POSITION"},{"bufferView":3,"byteOffset":18840,"componentType":5120,"count":8,"type":"VEC4","name":"part010_vertices#0_TANGENT"},{"bufferView":3,"byteOffset":18844,"componentType":5120,"count":8,"type":"VEC4","name":"part010_vertices#0_NORMAL"},{"bufferView":3,"byteOffset":18848,"componentType":5122,"count":8,"type":"VEC2","name":"part010_vertices#0_TEXCOORD_0"},{"bufferView":3,"byteOffset":18852,"componentType":5122,"count":8,"type":"VEC2","name":"part010_vertices#0_TEXCOORD_1"},{"bufferView":3,"byteOffset":18856,"componentType":5123,"count":8,"type":"VEC4","name":"part010_vertices#0_COLOR_0"},{"bufferView":4,"byteOffset":2862,"componentType":5123,"count":12,"type":"SCALAR","name":"part010_indices#0"},{"bufferView":3,"byteOffset":19116,"componentType":5126,"count":25,"min":[-1.6447399854660035,-0.4242199957370758,-0.14595000445842744],"max":[1.6567399501800538,0.3716599941253662,-0.07535000145435333],"type":"VEC3","name":"part011_vertices#0_POSITION"},{"bufferView":3,"byteOffset":19128,"componentType":5120,"count":25,"type":"VEC4","name":"part011_vertices#0_TANGENT"},{"bufferView":3,"byteOffset":19132,"componentType":5120,"count":25,"type":"VEC4","name":"part011_vertices#0_NORMAL"},{"bufferView":3,"byteOffset":19136,"componentType":5122,"count":25,"type":"VEC2","name":"part011_vertices#0_TEXCOORD_0"},{"bufferView":3,"byteOffset":19140,"componentType":5122,"count":25,"type":"VEC2","name":"part011_vertices#0_TEXCOORD_1"},{"bufferView":3,"byteOffset":19144,"componentType":5123,"count":25,"type":"VEC4","name":"part011_vertices#0_COLOR_0"},{"bufferView":4,"byteOffset":2886,"componentType":5123,"count":87,"type":"SCALAR","name":"part011_indices#0"}],"animations":[{"name":"l_gear","channels":[{"sampler":0,"target":{"node":11,"path":"translation"}},{"sampler":1,"target":{"node":13,"path":"rotation"}},{"sampler":2,"target":{"node":15,"path":"translation"}},{"sampler":3,"target":{"node":17,"path":"rotation"}},{"sampler":4,"target":{"node":25,"path":"translation"}},{"sampler":5,"target":{"node":27,"path":"rotation"}}],"samplers":[{"input":0,"output":1,"interpolation":"LINEAR"},{"input":2,"output":3,"interpolation":"LINEAR"},{"input":4,"output":5,"interpolation":"LINEAR"},{"input":6,"output":7,"interpolation":"LINEAR"},{"input":14,"output":15,"interpolation":"LINEAR"},{"input":16,"output":17,"interpolation":"LINEAR"}]},{"name":"r_gear","channels":[{"sampler":0,"target":{"node":19,"path":"translation"}},{"sampler":1,"target":{"node":21,"path":"rotation"}}],"samplers":[{"input":8,"output":9,"interpolation":"LINEAR"},{"input":10,"output":11,"interpolation":"LINEAR"}]},{"name":"r_tire_blurred_key","channels":[{"sampler":0,"target":{"node":23,"path":"rotation"}}],"samplers":[{"input":12,"output":13,"interpolation":"LINEAR"}]},{"name":"l_tire_blurred_key","channels":[{"sampler":0,"target":{"node":29,"path":"rotation"}}],"samplers":[{"input":18,"output":19,"interpolation":"LINEAR"}]},{"name":"c_gear","channels":[{"sampler":0,"target":{"node":31,"path":"translation"}},{"sampler":1,"target":{"node":33,"path":"rotation"}}],"samplers":[{"input":20,"output":21,"interpolation":"LINEAR"},{"input":22,"output":23,"interpolation":"LINEAR"}]},{"name":"custom_anim_FLAPS_SML_GA","channels":[{"sampler":0,"target":{"node":35,"path":"translation"}},{"sampler":1,"target":{"node":37,"path":"rotation"}},{"sampler":2,"target":{"node":39,"path":"rotation"}}],"samplers":[{"input":24,"output":25,"interpolation":"LINEAR"},{"input":26,"output":27,"interpolation":"LINEAR"},{"input":28,"output":29,"interpolation":"LINEAR"}]},{"name":"elevator","channels":[{"sampler":0,"target":{"node":41,"path":"rotation"}}],"samplers":[{"input":30,"output":31,"interpolation":"LINEAR"}]}],"asset":{"generator":"ModelConverterX","version":"2.0","extensions":{"ASOBO_asset_optimized":{"BoundingBoxMax":[5.3784098625183109,1.5847100019454957,2.2089900970458986],"BoundingBoxMin":[-5.374410152435303,-0.44020000100135805,-5.334390163421631],"MajorVersion":4,"MinorVersion":4,"UseCheckerboardMaterialForMissingTextures":true,"UseOnlyFilenameForImageURI":true}}},"bufferViews":[{"buffer":0,"byteLength":224,"byteStride":4},{"buffer":0,"byteLength":240,"byteStride":12,"byteOffset":224},{"buffer":0,"byteLength":576,"byteStride":16,"byteOffset":464},{"buffer":0,"byteLength":20016,"byteStride":36,"byteOffset":1040,"target":34962,"name":"BufferViewVertexND"},{"buffer":0,"byteLength":3060,"byteOffset":21056,"target":34963,"name":"BufferViewIndex"}],"extensionsRequired":["MSFT_texture_dds"],"materials":[{"name":"material00","emissiveTexture":{"index":1},"emissiveFactor":[0.019607843831181527,0.019607843831181527,0.019607843831181527],"pbrMetallicRoughness":{"metallicFactor":0.0,"baseColorTexture":{"index":0}}},{"name":"material01","pbrMetallicRoughness":{"baseColorFactor":[0.800000011920929,0.800000011920929,0.800000011920929,1.0],"metallicFactor":0.0}}],"meshes":[{"primitives":[{"attributes":{"COLOR_0":37,"NORMAL":34,"POSITION":32,"TANGENT":33,"TEXCOORD_0":35,"TEXCOORD_1":36},"indices":38,"material":0,"mode":4,"extras":{"ASOBO_primitive":{"PrimitiveCount":343,"VertexType":"VTX","VertexVersion":2}}}],"name":"part000"},{"primitives":[{"attributes":{"COLOR_0":44,"NORMAL":41,"POSITION":39,"TANGENT":40,"TEXCOORD_0":42,"TEXCOORD_1":43},"indices":45,"material":1,"mode":4,"extras":{"ASOBO_primitive":{"PrimitiveCount":2,"VertexType":"VTX","VertexVersion":2}}}],"name":"part001"},{"primitives":[{"attributes":{"COLOR_0":51,"NORMAL":48,"POSITION":46,"TANGENT":47,"TEXCOORD_0":49,"TEXCOORD_1":50},"indices":52,"material":0,"mode":4,"extras":{"ASOBO_primitive":{"PrimitiveCount":4,"VertexType":"VTX","VertexVersion":2}}}],"name":"part002"},{"primitives":[{"attributes":{"COLOR_0":58,"NORMAL":55,"POSITION":53,"TANGENT":54,"TEXCOORD_0":56,"TEXCOORD_1":57},"indices":59,"material":0,"mode":4,"extras":{"ASOBO_primitive":{"PrimitiveCount":4,"VertexType":"VTX","VertexVersion":2}}}],"name":"part003"},{"primitives":[{"attributes":{"COLOR_0":65,"NORMAL":62,"POSITION":60,"TANGENT":61,"TEXCOORD_0":63,"TEXCOORD_1":64},"indices":66,"material":0,"mode":4,"extras":{"ASOBO_primitive":{"PrimitiveCount":8,"VertexType":"VTX","VertexVersion":2}}}],"name":"part004"},{"primitives":[{"attributes":{"COLOR_0":72,"NORMAL":69,"POSITION":67,"TANGENT":68,"TEXCOORD_0":70,"TEXCOORD_1":71},"indices":73,"material":0,"mode":4,"extras":{"ASOBO_primitive":{"PrimitiveCount":32,"VertexType":"VTX","VertexVersion":2}}}],"name":"part005"},{"primitives":[{"attributes":{"COLOR_0":79,"NORMAL":76,"POSITION":74,"TANGENT":75,"TEXCOORD_0":77,"TEXCOORD_1":78},"indices":80,"material":0,"mode":4,"extras":{"ASOBO_primitive":{"PrimitiveCount":8,"VertexType":"VTX","VertexVersion":2}}}],"name":"part006"},{"primitives":[{"attributes":{"COLOR_0":86,"NORMAL":83,"POSITION":81,"TANGENT":82,"TEXCOORD_0":84,"TEXCOORD_1":85},"indices":87,"material":0,"mode":4,"extras":{"ASOBO_primitive":{"PrimitiveCount":32,"VertexType":"VTX","VertexVersion":2}}}],"name":"part007"},{"primitives":[{"attributes":{"COLOR_0":93,"NORMAL":90,"POSITION":88,"TANGENT":89,"TEXCOORD_0":91,"TEXCOORD_1":92},"indices":94,"material":0,"mode":4,"extras":{"ASOBO_primitive":{"PrimitiveCount":40,"VertexType":"VTX","VertexVersion":2}}}],"name":"part008"},{"primitives":[{"attributes":{"COLOR_0":100,"NORMAL":97,"POSITION":95,"TANGENT":96,"TEXCOORD_0":98,"TEXCOORD_1":99},"indices":101,"material":0,"mode":4,"extras":{"ASOBO_primitive":{"PrimitiveCount":4,"VertexType":"VTX","VertexVersion":2}}}],"name":"part009"},{"primitives":[{"attributes":{"COLOR_0":107,"NORMAL":104,"POSITION":102,"TANGENT":103,"TEXCOORD_0":105,"TEXCOORD_1":106},"indices":108,"material":0,"mode":4,"extras":{"ASOBO_primitive":{"PrimitiveCount":4,"VertexType":"VTX","VertexVersion":2}}}],"name":"part010"},{"primitives":[{"attributes":{"COLOR_0":114,"NORMAL":111,"POSITION":109,"TANGENT":110,"TEXCOORD_0":112,"TEXCOORD_1":113},"indices":115,"material":0,"mode":4,"extras":{"ASOBO_primitive":{"PrimitiveCount":29,"VertexType":"VTX","VertexVersion":2}}}],"name":"part011"}],"nodes":[{"name":"node_0","children":[1,2,3,4,5,6,7,8,9]},{"mesh":0,"name":"node_1"},{"mesh":1,"name":"node_4"},{"translation":[7.347638122934264e-16,0.0,-6.0],"rotation":[-6.123031769111886e-17,3.061515884555943e-17,1.0,1.874575902277672e-33],"scale":[1.0,1.0,1.0],"name":"contrail1"},{"translation":[-2.2042913784864975e-16,-0.09000000357627869,1.7999999523162842],"rotation":[-0.7071067811865475,0.0,0.0,0.7071067811865475],"scale":[1.0,1.0,1.0],"name":"Taxi_Light"},{"translation":[-2.1920453266270303e-16,-0.09000000357627869,1.7899999618530272],"rotation":[-0.7071067811865475,0.0,0.0,0.7071067811865475],"scale":[1.0,1.0,1.0],"name":"Landing_Light"},{"translation":[-2.0206004546100319e-16,-0.8999999761581421,1.649999976158142],"rotation":[-6.123031769111886e-17,3.061515884555943e-17,1.0,1.874575902277672e-33],"scale":[1.0,1.0,1.0],"name":"c_tire1"},{"translation":[1.600000023841858,-0.8999999761581421,-0.8500000238418578],"rotation":[-6.123031769111886e-17,3.061515884555943e-17,1.0,1.874575902277672e-33],"scale":[1.0,1.0,1.0],"name":"l_tire1"},{"translation":[-1.600000023841858,-0.8999999761581421,-0.8500000238418581],"rotation":[-6.123031769111886e-17,3.061515884555943e-17,1.0,1.874575902277672e-33],"scale":[1.0,1.0,1.0],"name":"r_tire1"},{"translation":[0.0,0.0,0.0],"rotation":[-4.329637285359677e-17,0.7071067811865475,0.7071067811865475,4.329637285359677e-17],"scale":[1.0,1.0,1.0],"name":"node_20","children":[10,14,18,24,30,34,38,40]},{"name":"node_63","children":[11]},{"name":"l_gear_AN_63","children":[12]},{"name":"node_64","children":[13]},{"mesh":2,"name":"l_gear_AN_64"},{"name":"node_69","children":[15]},{"name":"l_gear_AN_69","children":[16]},{"name":"node_70","children":[17]},{"mesh":3,"name":"l_gear_AN_70"},{"name":"node_75","children":[19]},{"name":"r_gear_AN_75","children":[20]},{"name":"node_76","children":[21]},{"mesh":4,"name":"r_gear_AN_76","children":[22]},{"translation":[-0.0039079999551177029,0.0,-0.35660499334335329],"rotation":[0.0,0.0,0.0,1.0],"scale":[1.0,1.0,1.0],"name":"node_77","children":[23]},{"mesh":5,"name":"r_tire_blurred_key_AN_77"},{"name":"node_78","children":[25]},{"name":"l_gear_AN_78","children":[26]},{"name":"node_79","children":[27]},{"mesh":6,"name":"l_gear_AN_79","children":[28]},{"translation":[0.018563000485301016,-0.005861999932676554,-0.3653979897499085],"rotation":[0.0,0.0,0.0,1.0],"scale":[1.0,1.0,1.0],"name":"node_80","children":[29]},{"mesh":7,"name":"l_tire_blurred_key_AN_80"},{"name":"node_81","children":[31]},{"name":"c_gear_AN_81","children":[32]},{"name":"node_82","children":[33]},{"mesh":8,"name":"c_gear_AN_82"},{"name":"node_83","children":[35]},{"name":"custom_anim_FLAPS_SML_GA_AN_83","children":[36]},{"name":"node_84","children":[37]},{"mesh":9,"name":"custom_anim_FLAPS_SML_GA_AN_84"},{"translation":[-1.8918470144271853,-1.2385549545288087,-0.1210540011525154],"rotation":[0.0,0.0,0.0,1.0],"scale":[1.0,1.0,1.0],"name":"node_89","children":[39]},{"mesh":10,"name":"custom_anim_FLAPS_SML_GA_AN_89"},{"translation":[-0.004002000205218792,-4.672091960906982,0.1720770001411438],"rotation":[0.0,0.0,0.0,1.0],"scale":[1.0,1.0,1.0],"name":"node_94","children":[41]},{"mesh":11,"name":"elevator_AN_94"}],"scene":0,"scenes":[{"nodes":[0]}],"textures":[{"extensions":{"MSFT_texture_dds":{"source":0}}},{"extensions":{"MSFT_texture_dds":{"source":1}}}],"extensionsUsed":["MSFT_texture_dds","ASOBO_asset_optimized"],"buffers":[{"byteLength":24116,"uri":"ANAI_Piper_Arrow_III_MSFS_LOD4.bin"}],"images":[{"uri":"AI_ARROWIII_T.PNG.DDS","extras":"ASOBO_image_converted_meta"},{"uri":"AI_ARROWIII_L.PNG.DDS","extras":"ASOBO_image_converted_meta"}]}
