{"accessors":[{"bufferView":0,"componentType":5126,"count":5,"min":[0.0],"max":[100.0],"type":"SCALAR"},{"bufferView":1,"componentType":5126,"count":5,"type":"VEC4"},{"bufferView":0,"byteOffset":20,"componentType":5126,"count":5,"min":[0.0],"max":[100.0],"type":"SCALAR"},{"bufferView":1,"byteOffset":80,"componentType":5126,"count":5,"type":"VEC4"},{"bufferView":0,"byteOffset":40,"componentType":5126,"count":5,"min":[0.0],"max":[100.0],"type":"SCALAR"},{"bufferView":1,"byteOffset":160,"componentType":5126,"count":5,"type":"VEC4"},{"bufferView":0,"byteOffset":60,"componentType":5126,"count":5,"min":[0.0],"max":[100.0],"type":"SCALAR"},{"bufferView":1,"byteOffset":240,"componentType":5126,"count":5,"type":"VEC4"},{"bufferView":2,"componentType":5126,"count":12,"min":[-0.024940000846982003,-0.9744200110435486,3.3814098834991457],"max":[0.024940000846982003,-0.7583100199699402,3.4391798973083498],"type":"VEC3","name":"part000_vertices#0_POSITION"},{"bufferView":2,"byteOffset":12,"componentType":5120,"count":12,"type":"VEC4","name":"part000_vertices#0_TANGENT"},{"bufferView":2,"byteOffset":16,"componentType":5120,"count":12,"type":"VEC4","name":"part000_vertices#0_NORMAL"},{"bufferView":2,"byteOffset":20,"componentType":5122,"count":12,"type":"VEC2","name":"part000_vertices#0_TEXCOORD_0"},{"bufferView":2,"byteOffset":24,"componentType":5122,"count":12,"type":"VEC2","name":"part000_vertices#0_TEXCOORD_1"},{"bufferView":2,"byteOffset":28,"componentType":5123,"count":12,"type":"VEC4","name":"part000_vertices#0_COLOR_0"},{"bufferView":3,"componentType":5123,"count":36,"type":"SCALAR","name":"part000_indices#0"},{"bufferView":2,"byteOffset":432,"componentType":5126,"count":48,"min":[-0.09128999710083008,-1.279829978942871,3.33882999420166],"max":[0.09128999710083008,-0.941569983959198,3.4537100791931154],"type":"VEC3","name":"part001_vertices#0_POSITION"},{"bufferView":2,"byteOffset":444,"componentType":5120,"count":48,"type":"VEC4","name":"part001_vertices#0_TANGENT"},{"bufferView":2,"byteOffset":448,"componentType":5120,"count":48,"type":"VEC4","name":"part001_vertices#0_NORMAL"},{"bufferView":2,"byteOffset":452,"componentType":5122,"count":48,"type":"VEC2","name":"part001_vertices#0_TEXCOORD_0"},{"bufferView":2,"byteOffset":456,"componentType":5122,"count":48,"type":"VEC2","name":"part001_vertices#0_TEXCOORD_1"},{"bufferView":2,"byteOffset":460,"componentType":5123,"count":48,"type":"VEC4","name":"part001_vertices#0_COLOR_0"},{"bufferView":3,"byteOffset":72,"componentType":5123,"count":72,"type":"SCALAR","name":"part001_indices#0"},{"bufferView":2,"byteOffset":2160,"componentType":5126,"count":554,"min":[-7.717080116271973,-1.5024000406265259,-7.0931501388549809],"max":[7.717380046844482,2.667340040206909,3.9952199459075929],"type":"VEC3","name":"part002_vertices#0_POSITION"},{"bufferView":2,"byteOffset":2172,"componentType":5120,"count":554,"type":"VEC4","name":"part002_vertices#0_TANGENT"},{"bufferView":2,"byteOffset":2176,"componentType":5120,"count":554,"type":"VEC4","name":"part002_vertices#0_NORMAL"},{"bufferView":2,"byteOffset":2180,"componentType":5122,"count":554,"type":"VEC2","name":"part002_vertices#0_TEXCOORD_0"},{"bufferView":2,"byteOffset":2184,"componentType":5122,"count":554,"type":"VEC2","name":"part002_vertices#0_TEXCOORD_1"},{"bufferView":2,"byteOffset":2188,"componentType":5123,"count":554,"type":"VEC4","name":"part002_vertices#0_COLOR_0"},{"bufferView":3,"byteOffset":216,"componentType":5123,"count":2016,"type":"SCALAR","name":"part002_indices#0"},{"bufferView":2,"byteOffset":22104,"componentType":5126,"count":24,"min":[-0.7840099930763245,-0.030789999291300775,-0.7714300155639648],"max":[0.7840099930763245,0.030789999291300775,0.7714300155639648],"type":"VEC3","name":"part003_vertices#0_POSITION"},{"bufferView":2,"byteOffset":22116,"componentType":5120,"count":24,"type":"VEC4","name":"part003_vertices#0_TANGENT"},{"bufferView":2,"byteOffset":22120,"componentType":5120,"count":24,"type":"VEC4","name":"part003_vertices#0_NORMAL"},{"bufferView":2,"byteOffset":22124,"componentType":5122,"count":24,"type":"VEC2","name":"part003_vertices#0_TEXCOORD_0"},{"bufferView":2,"byteOffset":22128,"componentType":5122,"count":24,"type":"VEC2","name":"part003_vertices#0_TEXCOORD_1"},{"bufferView":2,"byteOffset":22132,"componentType":5123,"count":24,"type":"VEC4","name":"part003_vertices#0_COLOR_0"},{"bufferView":3,"byteOffset":4248,"componentType":5123,"count":48,"type":"SCALAR","name":"part003_indices#0"},{"bufferView":2,"byteOffset":22968,"componentType":5126,"count":24,"min":[-0.9199100136756897,-0.030789999291300775,-0.5957199931144714],"max":[0.9199100136756897,0.030789999291300775,0.5957199931144714],"type":"VEC3","name":"part004_vertices#0_POSITION"},{"bufferView":2,"byteOffset":22980,"componentType":5120,"count":24,"type":"VEC4","name":"part004_vertices#0_TANGENT"},{"bufferView":2,"byteOffset":22984,"componentType":5120,"count":24,"type":"VEC4","name":"part004_vertices#0_NORMAL"},{"bufferView":2,"byteOffset":22988,"componentType":5122,"count":24,"type":"VEC2","name":"part004_vertices#0_TEXCOORD_0"},{"bufferView":2,"byteOffset":22992,"componentType":5122,"count":24,"type":"VEC2","name":"part004_vertices#0_TEXCOORD_1"},{"bufferView":2,"byteOffset":22996,"componentType":5123,"count":24,"type":"VEC4","name":"part004_vertices#0_COLOR_0"},{"bufferView":3,"byteOffset":4344,"componentType":5123,"count":48,"type":"SCALAR","name":"part004_indices#0"},{"bufferView":2,"byteOffset":23832,"componentType":5126,"count":34,"min":[-1.0749399662017823,0.0,-1.0749399662017823],"max":[1.0749399662017823,0.0,1.0749399662017823],"type":"VEC3","name":"part005_vertices#0_POSITION"},{"bufferView":2,"byteOffset":23844,"componentType":5120,"count":34,"type":"VEC4","name":"part005_vertices#0_TANGENT"},{"bufferView":2,"byteOffset":23848,"componentType":5120,"count":34,"type":"VEC4","name":"part005_vertices#0_NORMAL"},{"bufferView":2,"byteOffset":23852,"componentType":5122,"count":34,"type":"VEC2","name":"part005_vertices#0_TEXCOORD_0"},{"bufferView":2,"byteOffset":23856,"componentType":5122,"count":34,"type":"VEC2","name":"part005_vertices#0_TEXCOORD_1"},{"bufferView":2,"byteOffset":23860,"componentType":5123,"count":34,"type":"VEC4","name":"part005_vertices#0_COLOR_0"},{"bufferView":3,"byteOffset":4440,"componentType":5123,"count":96,"type":"SCALAR","name":"part005_indices#0"},{"bufferView":2,"byteOffset":25056,"componentType":5126,"count":34,"min":[-1.0749399662017823,0.0,-1.0749399662017823],"max":[1.0749399662017823,0.0,1.0749399662017823],"type":"VEC3","name":"part006_vertices#0_POSITION"},{"bufferView":2,"byteOffset":25068,"componentType":5120,"count":34,"type":"VEC4","name":"part006_vertices#0_TANGENT"},{"bufferView":2,"byteOffset":25072,"componentType":5120,"count":34,"type":"VEC4","name":"part006_vertices#0_NORMAL"},{"bufferView":2,"byteOffset":25076,"componentType":5122,"count":34,"type":"VEC2","name":"part006_vertices#0_TEXCOORD_0"},{"bufferView":2,"byteOffset":25080,"componentType":5122,"count":34,"type":"VEC2","name":"part006_vertices#0_TEXCOORD_1"},{"bufferView":2,"byteOffset":25084,"componentType":5123,"count":34,"type":"VEC4","name":"part006_vertices#0_COLOR_0"},{"bufferView":3,"byteOffset":4632,"componentType":5123,"count":96,"type":"SCALAR","name":"part006_indices#0"}],"animations":[{"name":"engine0","channels":[{"sampler":0,"target":{"node":16,"path":"rotation"}},{"sampler":1,"target":{"node":21,"path":"rotation"}}],"samplers":[{"input":0,"output":1,"interpolation":"LINEAR"},{"input":4,"output":5,"interpolation":"LINEAR"}]},{"name":"engine1","channels":[{"sampler":0,"target":{"node":19,"path":"rotation"}},{"sampler":1,"target":{"node":24,"path":"rotation"}}],"samplers":[{"input":2,"output":3,"interpolation":"LINEAR"},{"input":6,"output":7,"interpolation":"LINEAR"}]}],"asset":{"generator":"ModelConverterX","version":"2.0","extensions":{"ASOBO_asset_optimized":{"BoundingBoxMax":[7.717380046844482,2.667340040206909,3.9952199459075929],"BoundingBoxMin":[-7.717080116271973,-1.5024000406265259,-7.0931501388549809],"MajorVersion":4,"MinorVersion":4,"UseCheckerboardMaterialForMissingTextures":true,"UseOnlyFilenameForImageURI":true}}},"bufferViews":[{"buffer":0,"byteLength":80,"byteStride":4},{"buffer":0,"byteLength":320,"byteStride":16,"byteOffset":80},{"buffer":0,"byteLength":26280,"byteStride":36,"byteOffset":400,"target":34962,"name":"BufferViewVertexND"},{"buffer":0,"byteLength":4824,"byteOffset":26680,"target":34963,"name":"BufferViewIndex"}],"extensionsRequired":["MSFT_texture_dds"],"materials":[{"name":"material00","occlusionTexture":{"index":1},"emissiveTexture":{"index":2},"emissiveFactor":[0.019607843831181527,0.019607843831181527,0.019607843831181527],"pbrMetallicRoughness":{"baseColorTexture":{"index":0},"metallicRoughnessTexture":{"index":1}},"extensions":{"ASOBO_material_day_night_switch":{}}},{"name":"material01","pbrMetallicRoughness":{"baseColorFactor":[0.4392159879207611,0.4392159879207611,0.4392159879207611,1.0],"roughnessFactor":0.3999999761581421}},{"name":"material02","pbrMetallicRoughness":{"metallicFactor":0.0}},{"name":"material03","alphaMode":"BLEND","pbrMetallicRoughness":{"baseColorFactor":[0.0,0.0,0.0,0.9803919792175292],"metallicFactor":0.0,"baseColorTexture":{"index":3}}}],"meshes":[{"primitives":[{"attributes":{"COLOR_0":13,"NORMAL":10,"POSITION":8,"TANGENT":9,"TEXCOORD_0":11,"TEXCOORD_1":12},"indices":14,"material":1,"mode":4,"extras":{"ASOBO_primitive":{"PrimitiveCount":12,"VertexType":"VTX","VertexVersion":2}}}],"name":"part000"},{"primitives":[{"attributes":{"COLOR_0":20,"NORMAL":17,"POSITION":15,"TANGENT":16,"TEXCOORD_0":18,"TEXCOORD_1":19},"indices":21,"material":2,"mode":4,"extras":{"ASOBO_primitive":{"PrimitiveCount":24,"VertexType":"VTX","VertexVersion":2}}}],"name":"part001"},{"primitives":[{"attributes":{"COLOR_0":27,"NORMAL":24,"POSITION":22,"TANGENT":23,"TEXCOORD_0":25,"TEXCOORD_1":26},"indices":28,"material":0,"mode":4,"extras":{"ASOBO_primitive":{"PrimitiveCount":672,"VertexType":"VTX","VertexVersion":2}}}],"name":"part002"},{"primitives":[{"attributes":{"COLOR_0":34,"NORMAL":31,"POSITION":29,"TANGENT":30,"TEXCOORD_0":32,"TEXCOORD_1":33},"indices":35,"material":0,"mode":4,"extras":{"ASOBO_primitive":{"PrimitiveCount":16,"VertexType":"VTX","VertexVersion":2}}}],"name":"part003"},{"primitives":[{"attributes":{"COLOR_0":41,"NORMAL":38,"POSITION":36,"TANGENT":37,"TEXCOORD_0":39,"TEXCOORD_1":40},"indices":42,"material":0,"mode":4,"extras":{"ASOBO_primitive":{"PrimitiveCount":16,"VertexType":"VTX","VertexVersion":2}}}],"name":"part004"},{"primitives":[{"attributes":{"COLOR_0":48,"NORMAL":45,"POSITION":43,"TANGENT":44,"TEXCOORD_0":46,"TEXCOORD_1":47},"indices":49,"material":3,"mode":4,"extras":{"ASOBO_primitive":{"PrimitiveCount":32,"VertexType":"VTX","VertexVersion":2}}}],"name":"part005"},{"primitives":[{"attributes":{"COLOR_0":55,"NORMAL":52,"POSITION":50,"TANGENT":51,"TEXCOORD_0":53,"TEXCOORD_1":54},"indices":56,"material":3,"mode":4,"extras":{"ASOBO_primitive":{"PrimitiveCount":32,"VertexType":"VTX","VertexVersion":2}}}],"name":"part006"}],"nodes":[{"name":"node_0","children":[1,2,3,4,5,6,7,8,9,10,11,12,13]},{"mesh":0,"name":"node_6"},{"mesh":1,"name":"node_7"},{"mesh":2,"name":"node_8"},{"translation":[1.8799999952316285,-1.4500000476837159,-0.7499999999999999],"rotation":[-6.123031769111886e-17,3.061515884555943e-17,1.0,1.874575902277672e-33],"scale":[1.0,1.0,1.0],"name":"l_tire1"},{"translation":[-6.820000171661377,0.44999998807907107,0.49000000953674235],"rotation":[-0.7071067811865475,0.0,0.0,0.7071067811865475],"scale":[1.0,1.0,1.0],"name":"landing_r"},{"translation":[-6.820000171661377,0.44999998807907107,0.49000000953674235],"rotation":[-0.7071067811865475,0.0,0.0,0.7071067811865475],"scale":[1.0,1.0,1.0],"name":"taxi_r"},{"translation":[6.820000171661377,0.44999998807907107,0.490000009536744],"rotation":[-0.7071067811865475,0.0,0.0,0.7071067811865475],"scale":[1.0,1.0,1.0],"name":"landing_l"},{"translation":[6.820000171661377,0.44999998807907107,0.490000009536744],"rotation":[-0.7071067811865475,0.0,0.0,0.7071067811865475],"scale":[1.0,1.0,1.0],"name":"taxi_l"},{"translation":[-1.8799999952316285,-1.4500000476837159,-0.7500000000000001],"rotation":[-6.123031769111886e-17,3.061515884555943e-17,1.0,1.874575902277672e-33],"scale":[1.0,1.0,1.0],"name":"r_tire1"},{"translation":[-3.979970649922726e-16,-1.4500000476837159,3.25],"rotation":[-6.123031769111886e-17,3.061515884555943e-17,1.0,1.874575902277672e-33],"scale":[1.0,1.0,1.0],"name":"c_tire1"},{"translation":[1.8999999761581424,0.30000001192092898,-1.8500000238418577],"rotation":[-6.123031769111886e-17,3.061515884555943e-17,1.0,1.874575902277672e-33],"scale":[1.0,1.0,1.0],"name":"contrail1"},{"translation":[-1.899999976158142,0.30000001192092898,-1.850000023841858],"rotation":[-6.123031769111886e-17,3.061515884555943e-17,1.0,1.874575902277672e-33],"scale":[1.0,1.0,1.0],"name":"contrail2"},{"translation":[0.0,0.0,0.0],"rotation":[-4.329637285359677e-17,0.7071067811865475,0.7071067811865475,4.329637285359677e-17],"scale":[1.0,1.0,1.0],"name":"node_36","children":[14,17,20,23]},{"translation":[-1.859663009643555,1.0482289791107178,0.09392099827528],"rotation":[0.0,0.0,0.0,1.0],"scale":[1.0,1.0,1.0],"name":"node_37","children":[15]},{"name":"prop0_still_VC","children":[16]},{"mesh":3,"name":"engine0_AN_VC"},{"translation":[1.8595850467681885,1.0482070446014405,0.09387800097465517],"rotation":[0.0,0.0,0.0,1.0],"scale":[1.0,1.0,1.0],"name":"node_43","children":[18]},{"name":"prop1_still_VC","children":[19]},{"mesh":4,"name":"engine1_AN_VC"},{"translation":[-1.859663009643555,1.0451810359954835,0.09443700313568115],"rotation":[0.0,0.0,0.0,1.0],"scale":[1.0,1.0,1.0],"name":"node_61","children":[21]},{"name":"engine0_AN_61","children":[22]},{"mesh":5,"name":"prop0_blurred_VC"},{"translation":[1.8595850467681885,1.0451589822769166,0.0944880023598671],"rotation":[0.0,0.0,0.0,1.0],"scale":[1.0,1.0,1.0],"name":"node_67","children":[24]},{"name":"engine1_AN_67","children":[25]},{"mesh":6,"name":"prop1_blurred_VC"}],"scene":0,"scenes":[{"nodes":[0]}],"textures":[{"extensions":{"MSFT_texture_dds":{"source":0}}},{"extensions":{"MSFT_texture_dds":{"source":1}}},{"extensions":{"MSFT_texture_dds":{"source":2}}},{"extensions":{"MSFT_texture_dds":{"source":3}}}],"extensionsUsed":["ASOBO_material_day_night_switch","MSFT_texture_dds","ASOBO_asset_optimized"],"buffers":[{"byteLength":31504,"uri":"HTAI Britten-Norman BN-2 Islander Long Nose MSFS_LOD3.bin"}],"images":[{"uri":"AIBN2.PNG.DDS","extras":"ASOBO_image_converted_meta"},{"uri":"AIBN2_C.PNG.DDS","extras":"ASOBO_image_converted_meta"},{"uri":"CABIN_LIGHTS.PNG.DDS","extras":"ASOBO_image_converted_meta"},{"uri":"PROP-HS.PNG.DDS","extras":"ASOBO_image_converted_meta"}]}
