{"accessors":[{"bufferView":0,"componentType":5126,"count":360,"min":[-7.717080116271973,-1.5024000406265259,-7.0931501388549809],"max":[7.717380046844482,2.667340040206909,3.987839937210083],"type":"VEC3","name":"part000_vertices#0_POSITION"},{"bufferView":0,"byteOffset":12,"componentType":5120,"count":360,"type":"VEC4","name":"part000_vertices#0_TANGENT"},{"bufferView":0,"byteOffset":16,"componentType":5120,"count":360,"type":"VEC4","name":"part000_vertices#0_NORMAL"},{"bufferView":0,"byteOffset":20,"componentType":5122,"count":360,"type":"VEC2","name":"part000_vertices#0_TEXCOORD_0"},{"bufferView":0,"byteOffset":24,"componentType":5122,"count":360,"type":"VEC2","name":"part000_vertices#0_TEXCOORD_1"},{"bufferView":0,"byteOffset":28,"componentType":5123,"count":360,"type":"VEC4","name":"part000_vertices#0_COLOR_0"},{"bufferView":1,"componentType":5123,"count":1200,"type":"SCALAR","name":"part000_indices#0"}],"asset":{"generator":"ModelConverterX","version":"2.0","extensions":{"ASOBO_asset_optimized":{"BoundingBoxMax":[7.717380046844482,2.667340040206909,3.987839937210083],"BoundingBoxMin":[-7.717080116271973,-1.5024000406265259,-7.0931501388549809],"MajorVersion":4,"MinorVersion":4,"UseCheckerboardMaterialForMissingTextures":true,"UseOnlyFilenameForImageURI":true}}},"bufferViews":[{"buffer":0,"byteLength":12960,"byteStride":36,"target":34962,"name":"BufferViewVertexND"},{"buffer":0,"byteLength":2400,"byteOffset":12960,"target":34963,"name":"BufferViewIndex"}],"extensionsRequired":["MSFT_texture_dds"],"materials":[{"name":"material00","occlusionTexture":{"index":1},"emissiveTexture":{"index":2},"emissiveFactor":[0.019607843831181527,0.019607843831181527,0.019607843831181527],"pbrMetallicRoughness":{"baseColorTexture":{"index":0},"metallicRoughnessTexture":{"index":1}},"extensions":{"ASOBO_material_day_night_switch":{}}}],"meshes":[{"primitives":[{"attributes":{"COLOR_0":5,"NORMAL":2,"POSITION":0,"TANGENT":1,"TEXCOORD_0":3,"TEXCOORD_1":4},"indices":6,"material":0,"mode":4,"extras":{"ASOBO_primitive":{"PrimitiveCount":400,"VertexType":"VTX","VertexVersion":2}}}],"name":"part000"}],"nodes":[{"name":"node_0","children":[1,2,3,4,5,6,7,8,9,10]},{"mesh":0,"name":"node_4"},{"translation":[1.8799999952316285,-1.4500000476837159,-0.7499999999999999],"rotation":[-6.123031769111886e-17,3.061515884555943e-17,1.0,1.874575902277672e-33],"scale":[1.0,1.0,1.0],"name":"l_tire1"},{"translation":[-6.820000171661377,0.44999998807907107,0.49000000953674235],"rotation":[-0.7071067811865475,0.0,0.0,0.7071067811865475],"scale":[1.0,1.0,1.0],"name":"landing_r"},{"translation":[-6.820000171661377,0.44999998807907107,0.49000000953674235],"rotation":[-0.7071067811865475,0.0,0.0,0.7071067811865475],"scale":[1.0,1.0,1.0],"name":"taxi_r"},{"translation":[6.820000171661377,0.44999998807907107,0.490000009536744],"rotation":[-0.7071067811865475,0.0,0.0,0.7071067811865475],"scale":[1.0,1.0,1.0],"name":"landing_l"},{"translation":[6.820000171661377,0.44999998807907107,0.490000009536744],"rotation":[-0.7071067811865475,0.0,0.0,0.7071067811865475],"scale":[1.0,1.0,1.0],"name":"taxi_l"},{"translation":[-1.8799999952316285,-1.4500000476837159,-0.7500000000000001],"rotation":[-6.123031769111886e-17,3.061515884555943e-17,1.0,1.874575902277672e-33],"scale":[1.0,1.0,1.0],"name":"r_tire1"},{"translation":[-3.979970649922726e-16,-1.4500000476837159,3.25],"rotation":[-6.123031769111886e-17,3.061515884555943e-17,1.0,1.874575902277672e-33],"scale":[1.0,1.0,1.0],"name":"c_tire1"},{"translation":[1.8999999761581424,0.30000001192092898,-1.8500000238418577],"rotation":[-6.123031769111886e-17,3.061515884555943e-17,1.0,1.874575902277672e-33],"scale":[1.0,1.0,1.0],"name":"contrail1"},{"translation":[-1.899999976158142,0.30000001192092898,-1.850000023841858],"rotation":[-6.123031769111886e-17,3.061515884555943e-17,1.0,1.874575902277672e-33],"scale":[1.0,1.0,1.0],"name":"contrail2"}],"scene":0,"scenes":[{"nodes":[0]}],"textures":[{"extensions":{"MSFT_texture_dds":{"source":0}}},{"extensions":{"MSFT_texture_dds":{"source":1}}},{"extensions":{"MSFT_texture_dds":{"source":2}}}],"extensionsUsed":["ASOBO_material_day_night_switch","MSFT_texture_dds","ASOBO_asset_optimized"],"buffers":[{"byteLength":15360,"uri":"HTAI Britten-Norman BN-2 Islander Long Nose MSFS_LOD5.bin"}],"images":[{"uri":"AIBN2.PNG.DDS","extras":"ASOBO_image_converted_meta"},{"uri":"AIBN2_C.PNG.DDS","extras":"ASOBO_image_converted_meta"},{"uri":"CABIN_LIGHTS.PNG.DDS","extras":"ASOBO_image_converted_meta"}]}
