{"accessors":[{"bufferView":0,"componentType":5126,"count":101,"min":[0.0],"max":[3.33333325],"type":"SCALAR","name":"accessorAnimationInput"},{"bufferView":1,"componentType":5126,"count":101,"type":"VEC3","name":"accessorAnimationPositions"},{"bufferView":0,"byteOffset":404,"componentType":5126,"count":101,"min":[0.0],"max":[3.33333325],"type":"SCALAR","name":"accessorAnimationInput"},{"bufferView":2,"componentType":5126,"count":101,"type":"VEC4","name":"accessorAnimationRotations"},{"bufferView":0,"byteOffset":808,"componentType":5126,"count":101,"min":[0.0],"max":[3.33333325],"type":"SCALAR","name":"accessorAnimationInput"},{"bufferView":1,"byteOffset":1212,"componentType":5126,"count":101,"type":"VEC3","name":"accessorAnimationPositions"},{"bufferView":0,"byteOffset":1212,"componentType":5126,"count":101,"min":[0.0],"max":[3.33333325],"type":"SCALAR","name":"accessorAnimationInput"},{"bufferView":2,"byteOffset":1616,"componentType":5126,"count":101,"type":"VEC4","name":"accessorAnimationRotations"},{"bufferView":0,"byteOffset":1616,"componentType":5126,"count":101,"min":[0.0],"max":[3.33333325],"type":"SCALAR","name":"accessorAnimationInput"},{"bufferView":1,"byteOffset":2424,"componentType":5126,"count":101,"type":"VEC3","name":"accessorAnimationScales"},{"bufferView":0,"byteOffset":2020,"componentType":5126,"count":101,"min":[0.0],"max":[3.33333325],"type":"SCALAR","name":"accessorAnimationInput"},{"bufferView":1,"byteOffset":3636,"componentType":5126,"count":101,"type":"VEC3","name":"accessorAnimationPositions"},{"bufferView":0,"byteOffset":2424,"componentType":5126,"count":101,"min":[0.0],"max":[3.33333325],"type":"SCALAR","name":"accessorAnimationInput"},{"bufferView":2,"byteOffset":3232,"componentType":5126,"count":101,"type":"VEC4","name":"accessorAnimationRotations"},{"bufferView":0,"byteOffset":2828,"componentType":5126,"count":101,"min":[0.0],"max":[3.33333325],"type":"SCALAR","name":"accessorAnimationInput"},{"bufferView":1,"byteOffset":4848,"componentType":5126,"count":101,"type":"VEC3","name":"accessorAnimationScales"},{"bufferView":0,"byteOffset":3232,"componentType":5126,"count":101,"min":[0.0],"max":[3.33333325],"type":"SCALAR","name":"accessorAnimationInput"},{"bufferView":1,"byteOffset":6060,"componentType":5126,"count":101,"type":"VEC3","name":"accessorAnimationPositions"},{"bufferView":0,"byteOffset":3636,"componentType":5126,"count":101,"min":[0.0],"max":[3.33333325],"type":"SCALAR","name":"accessorAnimationInput"},{"bufferView":2,"byteOffset":4848,"componentType":5126,"count":101,"type":"VEC4","name":"accessorAnimationRotations"},{"bufferView":0,"byteOffset":4040,"componentType":5126,"count":101,"min":[0.0],"max":[3.33333325],"type":"SCALAR","name":"accessorAnimationInput"},{"bufferView":1,"byteOffset":7272,"componentType":5126,"count":101,"type":"VEC3","name":"accessorAnimationScales"},{"bufferView":3,"componentType":5126,"count":24,"min":[-1.146522045135498,-1.8649060726165772,-0.9913120269775391],"max":[0.00927734375,0.0,1.6852645874023438],"type":"VEC3","name":"x0_cargo_door_forward_fake_vertices#0_POSITION"},{"bufferView":3,"byteOffset":12,"componentType":5120,"count":24,"type":"VEC4","name":"x0_cargo_door_forward_fake_vertices#0_TANGENT"},{"bufferView":3,"byteOffset":16,"componentType":5120,"count":24,"type":"VEC4","name":"x0_cargo_door_forward_fake_vertices#0_NORMAL"},{"bufferView":3,"byteOffset":20,"componentType":5122,"count":24,"type":"VEC2","name":"x0_cargo_door_forward_fake_vertices#0_TEXCOORD_0"},{"bufferView":3,"byteOffset":24,"componentType":5122,"count":24,"type":"VEC2","name":"x0_cargo_door_forward_fake_vertices#0_TEXCOORD_1"},{"bufferView":3,"byteOffset":28,"componentType":5123,"count":24,"type":"VEC4","name":"x0_cargo_door_forward_fake_vertices#0_COLOR_0"},{"bufferView":4,"componentType":5123,"count":78,"type":"SCALAR","name":"x0_cargo_door_forward_fake_indices#0"},{"bufferView":3,"byteOffset":864,"componentType":5126,"count":88,"min":[-1.0865652561187745,-1.864928960800171,-0.9945869445800781],"max":[0.12945795059204102,0.00201570987701416,1.6852645874023438],"type":"VEC3","name":"x0_cargo_door_forward_vertices#0_POSITION"},{"bufferView":3,"byteOffset":876,"componentType":5120,"count":88,"type":"VEC4","name":"x0_cargo_door_forward_vertices#0_TANGENT"},{"bufferView":3,"byteOffset":880,"componentType":5120,"count":88,"type":"VEC4","name":"x0_cargo_door_forward_vertices#0_NORMAL"},{"bufferView":3,"byteOffset":884,"componentType":5122,"count":88,"type":"VEC2","name":"x0_cargo_door_forward_vertices#0_TEXCOORD_0"},{"bufferView":3,"byteOffset":888,"componentType":5122,"count":88,"type":"VEC2","name":"x0_cargo_door_forward_vertices#0_TEXCOORD_1"},{"bufferView":3,"byteOffset":892,"componentType":5123,"count":88,"type":"VEC4","name":"x0_cargo_door_forward_vertices#0_COLOR_0"},{"bufferView":4,"byteOffset":156,"componentType":5123,"count":180,"type":"SCALAR","name":"x0_cargo_door_forward_indices#0"},{"bufferView":3,"byteOffset":4032,"componentType":5126,"count":33,"min":[-1.3110320568084717,-2.167478084564209,-1.084538459777832],"max":[-0.03336787223815918,-0.2952084541320801,1.608942985534668],"type":"VEC3","name":"x0_cargo_door_aft_fake_vertices#0_POSITION"},{"bufferView":3,"byteOffset":4044,"componentType":5120,"count":33,"type":"VEC4","name":"x0_cargo_door_aft_fake_vertices#0_TANGENT"},{"bufferView":3,"byteOffset":4048,"componentType":5120,"count":33,"type":"VEC4","name":"x0_cargo_door_aft_fake_vertices#0_NORMAL"},{"bufferView":3,"byteOffset":4052,"componentType":5122,"count":33,"type":"VEC2","name":"x0_cargo_door_aft_fake_vertices#0_TEXCOORD_0"},{"bufferView":3,"byteOffset":4056,"componentType":5122,"count":33,"type":"VEC2","name":"x0_cargo_door_aft_fake_vertices#0_TEXCOORD_1"},{"bufferView":3,"byteOffset":4060,"componentType":5123,"count":33,"type":"VEC4","name":"x0_cargo_door_aft_fake_vertices#0_COLOR_0"},{"bufferView":4,"byteOffset":516,"componentType":5123,"count":123,"type":"SCALAR","name":"x0_cargo_door_aft_fake_indices#0"},{"bufferView":3,"byteOffset":5220,"componentType":5126,"count":70,"min":[-1.2339239120483399,-1.8682459592819214,-0.0036220550537109377],"max":[0.13033699989318849,0.003086686134338379,2.6955738067626955],"type":"VEC3","name":"x0_cargo_door_aft_vertices#0_POSITION"},{"bufferView":3,"byteOffset":5232,"componentType":5120,"count":70,"type":"VEC4","name":"x0_cargo_door_aft_vertices#0_TANGENT"},{"bufferView":3,"byteOffset":5236,"componentType":5120,"count":70,"type":"VEC4","name":"x0_cargo_door_aft_vertices#0_NORMAL"},{"bufferView":3,"byteOffset":5240,"componentType":5122,"count":70,"type":"VEC2","name":"x0_cargo_door_aft_vertices#0_TEXCOORD_0"},{"bufferView":3,"byteOffset":5244,"componentType":5122,"count":70,"type":"VEC2","name":"x0_cargo_door_aft_vertices#0_TEXCOORD_1"},{"bufferView":3,"byteOffset":5248,"componentType":5123,"count":70,"type":"VEC4","name":"x0_cargo_door_aft_vertices#0_COLOR_0"},{"bufferView":4,"byteOffset":762,"componentType":5123,"count":174,"type":"SCALAR","name":"x0_cargo_door_aft_indices#0"}],"animations":[{"name":"Cargo_Door_forward","channels":[{"sampler":0,"target":{"node":26,"path":"translation","extensions":{"ASOBO_animation_retargeting":{"id":"x0_cargo_door_forward"}}}},{"sampler":1,"target":{"node":26,"path":"rotation","extensions":{"ASOBO_animation_retargeting":{"id":"x0_cargo_door_forward"}}}},{"sampler":2,"target":{"node":25,"path":"translation","extensions":{"ASOBO_animation_retargeting":{"id":"x0_cargo_door_forward_fake"}}}},{"sampler":3,"target":{"node":25,"path":"rotation","extensions":{"ASOBO_animation_retargeting":{"id":"x0_cargo_door_forward_fake"}}}},{"sampler":4,"target":{"node":25,"path":"scale","extensions":{"ASOBO_animation_retargeting":{"id":"x0_cargo_door_forward_fake"}}}}],"samplers":[{"input":0,"output":1,"interpolation":"LINEAR"},{"input":2,"output":3,"interpolation":"LINEAR"},{"input":4,"output":5,"interpolation":"LINEAR"},{"input":6,"output":7,"interpolation":"LINEAR"},{"input":8,"output":9,"interpolation":"LINEAR"}]},{"name":"Cargo_Door_aft","channels":[{"sampler":0,"target":{"node":28,"path":"translation","extensions":{"ASOBO_animation_retargeting":{"id":"x0_cargo_door_aft"}}}},{"sampler":1,"target":{"node":28,"path":"rotation","extensions":{"ASOBO_animation_retargeting":{"id":"x0_cargo_door_aft"}}}},{"sampler":2,"target":{"node":28,"path":"scale","extensions":{"ASOBO_animation_retargeting":{"id":"x0_cargo_door_aft"}}}},{"sampler":3,"target":{"node":27,"path":"translation","extensions":{"ASOBO_animation_retargeting":{"id":"x0_cargo_door_aft_fake"}}}},{"sampler":4,"target":{"node":27,"path":"rotation","extensions":{"ASOBO_animation_retargeting":{"id":"x0_cargo_door_aft_fake"}}}},{"sampler":5,"target":{"node":27,"path":"scale","extensions":{"ASOBO_animation_retargeting":{"id":"x0_cargo_door_aft_fake"}}}}],"samplers":[{"input":10,"output":11,"interpolation":"LINEAR"},{"input":12,"output":13,"interpolation":"LINEAR"},{"input":14,"output":15,"interpolation":"LINEAR"},{"input":16,"output":17,"interpolation":"LINEAR"},{"input":18,"output":19,"interpolation":"LINEAR"},{"input":20,"output":21,"interpolation":"LINEAR"}]}],"asset":{"generator":"babylon.js glTF exporter for 3dsmax 2021 v1.0.8378.27976","version":"2.0","extensions":{"ASOBO_asset_optimized":{"BoundingBoxMax":[0.13033699989318849,0.003086686134338379,2.6955738067626955],"BoundingBoxMin":[-1.3110320568084717,-2.167478084564209,-1.084538459777832],"MajorVersion":4,"MinorVersion":4,"UseCheckerboardMaterialForMissingTextures":true,"UseOnlyFilenameForImageURI":true},"ASOBO_normal_map_convention":{"tangent_space_convention":"DirectX"}}},"bufferViews":[{"buffer":0,"byteLength":4444,"name":"bufferViewAnimationFloatScalar"},{"buffer":0,"byteLength":8484,"byteOffset":4444,"name":"bufferViewAnimationFloatVec3"},{"buffer":0,"byteLength":6464,"byteOffset":12928,"name":"bufferViewAnimationFloatVec4"},{"buffer":0,"byteLength":7740,"byteStride":36,"byteOffset":19392,"target":34962,"name":"BufferViewVertexND"},{"buffer":0,"byteLength":1110,"byteOffset":27132,"target":34963,"name":"BufferViewIndex"}],"extensionsRequired":["MSFT_texture_dds"],"materials":[{"name":"T2","pbrMetallicRoughness":{"metallicFactor":0.0,"baseColorTexture":{"index":0}}},{"name":"Fuselage","occlusionTexture":{"index":2},"emissiveTexture":{"index":3},"emissiveFactor":[0.07999999821186066,0.07999999821186066,0.07999999821186066],"pbrMetallicRoughness":{"baseColorTexture":{"index":1},"metallicRoughnessTexture":{"index":2}}}],"meshes":[{"primitives":[{"attributes":{"COLOR_0":27,"NORMAL":24,"POSITION":22,"TANGENT":23,"TEXCOORD_0":25,"TEXCOORD_1":26},"indices":28,"material":0,"mode":4,"extras":{"ASOBO_primitive":{"PrimitiveCount":26,"VertexType":"VTX","VertexVersion":2}}}],"name":"x0_cargo_door_forward_fake"},{"primitives":[{"attributes":{"COLOR_0":34,"NORMAL":31,"POSITION":29,"TANGENT":30,"TEXCOORD_0":32,"TEXCOORD_1":33},"indices":35,"material":1,"mode":4,"extras":{"ASOBO_primitive":{"PrimitiveCount":60,"VertexType":"VTX","VertexVersion":2}}}],"name":"x0_cargo_door_forward"},{"primitives":[{"attributes":{"COLOR_0":41,"NORMAL":38,"POSITION":36,"TANGENT":37,"TEXCOORD_0":39,"TEXCOORD_1":40},"indices":42,"material":0,"mode":4,"extras":{"ASOBO_primitive":{"PrimitiveCount":41,"VertexType":"VTX","VertexVersion":2}}}],"name":"x0_cargo_door_aft_fake"},{"primitives":[{"attributes":{"COLOR_0":48,"NORMAL":45,"POSITION":43,"TANGENT":44,"TEXCOORD_0":46,"TEXCOORD_1":47},"indices":49,"material":1,"mode":4,"extras":{"ASOBO_primitive":{"PrimitiveCount":58,"VertexType":"VTX","VertexVersion":2}}}],"name":"x0_cargo_door_aft"}],"nodes":[{"extensions":{"ASOBO_unique_id":{"id":"x0_LOD0"}},"name":"LOD0","children":[1,2,12,13,23,24,25,26,27,28]},{"translation":[-17.2568932,0.473788142,-0.8524698],"rotation":[0.0,7.54979e-8,0.0,1.0],"extensions":{"ASOBO_unique_id":{"id":"x0_wing_r"}},"name":"wing_r"},{"translation":[-3.54638863,-0.4392653,4.13325739],"rotation":[-0.0518141836,-0.976916254,-0.0109765911,-0.20695287],"scale":[1.00000048,1.00000048,1.00000072],"extensions":{"ASOBO_unique_id":{"id":"x0_WING_Bone_Start_Right"}},"name":"WING_Bone_Start_Right","children":[3]},{"translation":[6.190262,5.96046448e-8,0.0],"rotation":[-0.00244268123,-0.0273213945,-0.01679884,0.9994826],"scale":[0.999999642,0.99999994,1.00000012],"extensions":{"ASOBO_unique_id":{"id":"x0_WING_Bone_1_Right"}},"name":"WING_Bone_1_Right","children":[4,8,10]},{"translation":[11.4957724,5.96046448e-8,-0.00000333786],"rotation":[0.00003170547,0.0004519604,-0.002369771,0.9999971],"scale":[1.00000036,0.999999344,0.99999994],"extensions":{"ASOBO_unique_id":{"id":"x0_WING_Bone_2_Right"}},"name":"WING_Bone_2_Right","children":[5,6]},{"translation":[10.0742378,2.38418579e-7,0.00000476837158],"rotation":[2.4128159e-8,-9.998857e-9,2.4213918e-8,1.0],"scale":[0.999998569,1.000001,1.000001],"extensions":{"ASOBO_unique_id":{"id":"x0_WING_Bone_End_Right"}},"name":"WING_Bone_End_Right"},{"translation":[10.074255,0.00000107288361,0.000002861023],"rotation":[0.0490355752,0.829178452,-0.00476501556,0.5568087],"scale":[1.00000012,1.0,0.9999995],"extensions":{"ASOBO_unique_id":{"id":"x0_Bone-Slat-R3-1"}},"name":"Bone-Slat-R3-1","children":[7]},{"translation":[0.63344,-2.38418579e-7,0.00000190734863],"rotation":[3.60484087e-9,-1.83377523e-7,-9.313224e-9,1.0],"scale":[1.00000072,0.9999997,1.00000036],"extensions":{"ASOBO_unique_id":{"id":"x0_Bone-Slat-R3-2"}},"name":"Bone-Slat-R3-2"},{"translation":[11.49578,4.172325e-7,0.00000143051147],"rotation":[-0.03538662,-0.8763702,0.0153725185,-0.48009038],"scale":[1.00000143,1.0,0.9999984],"extensions":{"ASOBO_unique_id":{"id":"x0_Bone-Slat-R2-1"}},"name":"Bone-Slat-R2-1","children":[9]},{"translation":[1.5926616199999999,-1.1920929e-7,-0.00000381469727],"rotation":[1.8562881e-8,5.94615628e-8,-9.778892e-9,1.0],"scale":[0.99999994,0.9999991,1.000001],"extensions":{"ASOBO_unique_id":{"id":"x0_Bone-Slat-R2-2"}},"name":"Bone-Slat-R2-2"},{"translation":[0.0,-5.96046448e-8,0.0],"rotation":[0.04020495,0.80897063,-0.01331706,0.5863214],"scale":[1.00000143,0.999999642,1.00000036],"extensions":{"ASOBO_unique_id":{"id":"x0_Bone-Slat-R1-1"}},"name":"Bone-Slat-R1-1","children":[11]},{"translation":[2.241803,2.83122063e-7,0.0],"rotation":[-3.18656745e-8,1.49179812e-7,6.98491931e-9,1.0],"scale":[1.000001,0.9999992,1.00000048],"extensions":{"ASOBO_unique_id":{"id":"x0_Bone-Slat-R1-2"}},"name":"Bone-Slat-R1-2"},{"translation":[17.2568932,0.473788142,-0.852475047],"rotation":[0.0,-1.0,0.0,7.54979e-8],"extensions":{"ASOBO_unique_id":{"id":"x0_wing_l"}},"name":"wing_l"},{"translation":[3.54638886,-0.439265221,4.1332593],"rotation":[0.0109453592,0.207514361,0.0518142357,0.9767975],"scale":[1.00000036,0.9999997,0.9999997],"extensions":{"ASOBO_unique_id":{"id":"x0_WING_Bone_Start_Left "}},"name":"WING_Bone_Start_Left","children":[14]},{"translation":[6.190255,-0.000002026558,-4.76837158e-7],"rotation":[0.00242482545,0.0264387354,-0.0167863965,0.999506533],"scale":[0.999999762,1.0,1.00000048],"extensions":{"ASOBO_unique_id":{"id":"x0_WING_Bone_1_Left "}},"name":"WING_Bone_1_Left","children":[15,19,21]},{"translation":[11.4954081,-0.0000108480453,-0.00000381469727],"rotation":[-0.00000617061369,-0.0000880585139,-0.00238028681,0.9999972],"scale":[1.000001,1.0000006,1.00000072],"extensions":{"ASOBO_unique_id":{"id":"x0_WING_Bone_2_Left "}},"name":"WING_Bone_2_Left","children":[16,17]},{"translation":[10.0742455,-0.0000380277634,0.000005722046],"rotation":[5.120676e-8,1.18737134e-7,7.636856e-8,1.0],"scale":[0.999999344,1.00000012,1.00000048],"extensions":{"ASOBO_unique_id":{"id":"x0_WING_Bone_End_Left "}},"name":"WING_Bone_End_Left"},{"translation":[10.0742512,0.000125050545,0.001121521],"rotation":[-0.0490303077,-0.8292098,-0.004764885,0.5567625],"scale":[1.00000131,1.00000012,0.9999994],"extensions":{"ASOBO_unique_id":{"id":"x0_Bone-Slat-L3-1"}},"name":"Bone-Slat-L3-1","children":[18]},{"translation":[0.633443832,0.0,0.0],"rotation":[-2.72343783e-8,-8.4619785e-8,4.47034836e-8,1.0],"scale":[1.00000107,0.999998868,1.00000012],"extensions":{"ASOBO_unique_id":{"id":"x0_Bone-Slat-L3-2"}},"name":"Bone-Slat-L3-2"},{"translation":[11.4954138,0.0,0.00000190734863],"rotation":[-0.035395328,-0.876221538,-0.0153640695,0.48036128299999999],"scale":[1.000001,1.00000083,0.9999998],"extensions":{"ASOBO_unique_id":{"id":"x0_Bone-Slat-L2-1"}},"name":"Bone-Slat-L2-1","children":[20]},{"translation":[1.59266186,2.38418579e-7,0.00004386902],"rotation":[-3.94266042e-9,-2.068982e-7,-4.84287739e-8,1.0],"scale":[1.0000006,0.9999994,1.00000024],"extensions":{"ASOBO_unique_id":{"id":"x0_Bone-Slat-L2-2"}},"name":"Bone-Slat-L2-2"},{"translation":[-0.000376701355,0.000110059977,0.007100582],"rotation":[-0.0402128249,-0.808789968,-0.013306844,0.586570263],"scale":[1.00000167,1.00000024,1.00000036],"extensions":{"ASOBO_unique_id":{"id":"x0_Bone-Slat-L1-1"}},"name":"Bone-Slat-L1-1","children":[22]},{"translation":[2.24180532,2.5331974e-7,-0.00000190734863],"rotation":[1.95177652e-8,-2.46653428e-7,-1.02445483e-8,1.0],"scale":[1.00000107,0.9999991,1.0],"extensions":{"ASOBO_unique_id":{"id":"x0_Bone-Slat-L1-2"}},"name":"Bone-Slat-L1-2"},{"translation":[-19.0874577,0.7262138,-1.42640221],"rotation":[0.0,1.1920929e-7,0.0,1.0],"extensions":{"ASOBO_unique_id":{"id":"x0_slat_r2"}},"name":"slat_r2"},{"translation":[19.08746,0.726213932,-1.426408],"rotation":[-2.793969e-9,-1.0,2.328306e-9,1.49066125e-7],"scale":[1.00000048,1.0,1.00000024],"extensions":{"ASOBO_unique_id":{"id":"x0_slat_l2"}},"name":"slat_l2"},{"translation":[-2.613971,-0.0611015856,19.4957466],"rotation":[0.0,-1.0,0.0,7.54979e-8],"mesh":0,"extensions":{"ASOBO_unique_id":{"id":"x0_cargo_door_forward_fake"}},"name":"cargo_door_forward_fake"},{"translation":[-2.45982146,-0.06107868,19.4924717],"rotation":[0.0,-1.0,0.0,7.54979e-8],"mesh":1,"extensions":{"ASOBO_unique_id":{"id":"x0_cargo_door_forward"}},"name":"cargo_door_forward"},{"translation":[-2.6704278,0.277055144,-10.0127277],"rotation":[0.0,-1.0,0.0,7.54979e-8],"mesh":2,"extensions":{"ASOBO_unique_id":{"id":"x0_cargo_door_aft_fake"}},"name":"cargo_door_aft_fake"},{"translation":[-2.40829372,-0.0221769214,-8.926094],"rotation":[0.0,-1.0,0.0,7.54979e-8],"mesh":3,"extensions":{"ASOBO_unique_id":{"id":"x0_cargo_door_aft"}},"name":"cargo_door_aft"}],"scene":0,"scenes":[{"nodes":[0]}],"textures":[{"extensions":{"MSFT_texture_dds":{"source":0}}},{"extensions":{"MSFT_texture_dds":{"source":1}}},{"extensions":{"MSFT_texture_dds":{"source":2}}},{"extensions":{"MSFT_texture_dds":{"source":3}}}],"extensionsUsed":["ASOBO_normal_map_convention","ASOBO_unique_id","ASOBO_animation_retargeting","MSFT_texture_dds","ASOBO_asset_optimized"],"buffers":[{"byteLength":28242,"uri":"AIG_Airbus_A330-800_cargo.bin"}],"images":[{"uri":"AIG_A338_T2.PNG.DDS","extras":"ASOBO_image_converted_meta"},{"uri":"AIG_A338_T.PNG.DDS","extras":"ASOBO_image_converted_meta"},{"uri":"AIG_A338_C.PNG.DDS","extras":"ASOBO_image_converted_meta"},{"uri":"AIG_A338_L.PNG.DDS","extras":"ASOBO_image_converted_meta"}]}
