{"accessors":[{"bufferView":0,"componentType":5126,"count":3,"min":[0.0],"max":[100.0],"type":"SCALAR"},{"bufferView":1,"componentType":5126,"count":3,"type":"VEC4"},{"bufferView":0,"byteOffset":12,"componentType":5126,"count":2,"min":[0.0],"max":[100.0],"type":"SCALAR"},{"bufferView":1,"byteOffset":48,"componentType":5126,"count":2,"type":"VEC4"},{"bufferView":0,"byteOffset":20,"componentType":5126,"count":2,"min":[0.0],"max":[100.0],"type":"SCALAR"},{"bufferView":1,"byteOffset":80,"componentType":5126,"count":2,"type":"VEC4"},{"bufferView":2,"componentType":5126,"count":70,"min":[-7.984000205993652,-0.6200000047683716,-6.8480000495910648],"max":[7.984000205993652,2.635999917984009,6.659999847412109],"type":"VEC3","name":"part000_vertices#0_POSITION"},{"bufferView":2,"byteOffset":12,"componentType":5120,"count":70,"type":"VEC4","name":"part000_vertices#0_TANGENT"},{"bufferView":2,"byteOffset":16,"componentType":5120,"count":70,"type":"VEC4","name":"part000_vertices#0_NORMAL"},{"bufferView":2,"byteOffset":20,"componentType":5122,"count":70,"type":"VEC2","name":"part000_vertices#0_TEXCOORD_0"},{"bufferView":2,"byteOffset":24,"componentType":5122,"count":70,"type":"VEC2","name":"part000_vertices#0_TEXCOORD_1"},{"bufferView":2,"byteOffset":28,"componentType":5123,"count":70,"type":"VEC4","name":"part000_vertices#0_COLOR_0"},{"bufferView":3,"componentType":5123,"count":108,"type":"SCALAR","name":"part000_indices#0"}],"animations":[{"name":"c_gear","channels":[{"sampler":0,"target":{"node":8,"path":"rotation"}}],"samplers":[{"input":0,"output":1,"interpolation":"LINEAR"}]},{"name":"r_gear","channels":[{"sampler":0,"target":{"node":13,"path":"rotation"}}],"samplers":[{"input":2,"output":3,"interpolation":"LINEAR"}]},{"name":"l_gear","channels":[{"sampler":0,"target":{"node":17,"path":"rotation"}}],"samplers":[{"input":4,"output":5,"interpolation":"LINEAR"}]}],"asset":{"generator":"ModelConverterX","version":"2.0","extensions":{"ASOBO_asset_optimized":{"BoundingBoxMax":[7.984000205993652,2.635999917984009,6.659999847412109],"BoundingBoxMin":[-7.984000205993652,-0.6200000047683716,-6.8480000495910648],"MajorVersion":4,"MinorVersion":4,"UseCheckerboardMaterialForMissingTextures":true,"UseOnlyFilenameForImageURI":true}}},"bufferViews":[{"buffer":0,"byteLength":28,"byteStride":4},{"buffer":0,"byteLength":112,"byteStride":16,"byteOffset":28},{"buffer":0,"byteLength":2520,"byteStride":36,"byteOffset":140,"target":34962,"name":"BufferViewVertexND"},{"buffer":0,"byteLength":216,"byteOffset":2660,"target":34963,"name":"BufferViewIndex"}],"extensionsRequired":["MSFT_texture_dds"],"materials":[{"name":"material00","occlusionTexture":{"index":1},"emissiveTexture":{"index":2},"emissiveFactor":[0.019607843831181527,0.019607843831181527,0.019607843831181527],"pbrMetallicRoughness":{"baseColorTexture":{"index":0},"metallicRoughnessTexture":{"index":1}},"extensions":{"ASOBO_material_day_night_switch":{}}}],"meshes":[{"primitives":[{"attributes":{"COLOR_0":11,"NORMAL":8,"POSITION":6,"TANGENT":7,"TEXCOORD_0":9,"TEXCOORD_1":10},"indices":12,"material":0,"mode":4,"extras":{"ASOBO_primitive":{"PrimitiveCount":36,"VertexType":"VTX","VertexVersion":2}}}],"name":"part000"}],"nodes":[{"name":"node_0","children":[1,2,3,4,5,6]},{"mesh":0,"name":"cabin_lights_VC"},{"translation":[8.57224447675664e-16,0.0,-7.0],"rotation":[-6.123031769111886e-17,0.0,1.0,0.0],"scale":[1.0,1.0,1.0],"name":"contrail1"},{"translation":[-5.755649629390048e-16,-1.399999976158142,4.699999809265137],"rotation":[-6.123031769111886e-17,0.0,1.0,0.0],"scale":[1.0,1.0,1.0],"name":"c_tire1"},{"translation":[2.240000009536743,-1.4700000286102296,1.100000023841858],"rotation":[-6.123031769111886e-17,0.0,1.0,0.0],"scale":[1.0,1.0,1.0],"name":"l_tire1"},{"translation":[-2.240000009536743,-1.4700000286102296,1.1000000238418577],"rotation":[-6.123031769111886e-17,0.0,1.0,0.0],"scale":[1.0,1.0,1.0],"name":"r_tire1"},{"translation":[0.0,0.0,0.0],"rotation":[-4.329637285359677e-17,0.7071067811865475,0.7071067811865475,4.329637285359677e-17],"scale":[1.0,1.0,1.0],"name":"node_20","children":[7,12,16]},{"translation":[-0.004000000189989805,4.667311191558838,-0.33130499720573428],"rotation":[0.0,0.0,0.0,1.0],"scale":[1.0,1.0,1.0],"name":"node_39","children":[8]},{"name":"c_gear_AN_39","children":[9]},{"translation":[0.004000000189989805,0.061496999114751819,-0.3973000049591065],"rotation":[0.7716245956502491,0.0,0.0,-0.6360782054021263],"scale":[1.0,1.0,1.0],"name":"node_80","children":[10,11]},{"translation":[0.0,0.0,0.0],"rotation":[-0.7071067811865475,0.0,0.0,0.7071067811865475],"scale":[1.0,1.0,1.0],"name":"Nose_Landing"},{"translation":[0.0,0.0,0.0],"rotation":[-0.7071067811865475,0.0,0.0,0.7071067811865475],"scale":[1.0,1.0,1.0],"name":"taxi_nose"},{"translation":[2.255000114440918,1.5210000276565552,-0.28999999165534975],"rotation":[0.0,0.0,0.0,1.0],"scale":[1.0,1.0,1.0],"name":"node_83","children":[13]},{"name":"r_gear_AN_83","children":[14]},{"translation":[-0.014999999664723872,0.028999999165534974,-0.25999999046325686],"rotation":[0.0,0.7071067811865475,0.7071067811865475,0.0],"scale":[1.0,1.0,1.0],"name":"node_96","children":[15]},{"translation":[0.0,0.0,0.0],"rotation":[-0.7071067811865475,0.0,0.0,0.7071067811865475],"scale":[1.0,1.0,1.0],"name":"Right_Landing"},{"translation":[-2.255000114440918,1.5210000276565552,-0.28999999165534975],"rotation":[0.0,0.0,0.0,1.0],"scale":[1.0,1.0,1.0],"name":"node_98","children":[17]},{"name":"l_gear_AN_98","children":[18]},{"translation":[0.014999999664723872,0.028999999165534974,-0.25999999046325686],"rotation":[0.0,0.7071067811865475,0.7071067811865475,0.0],"scale":[1.0,1.0,1.0],"name":"node_111","children":[19]},{"translation":[0.0,0.0,0.0],"rotation":[-0.7071067811865475,0.0,0.0,0.7071067811865475],"scale":[1.0,1.0,1.0],"name":"Left_Landing"}],"scene":0,"scenes":[{"nodes":[0]}],"textures":[{"extensions":{"MSFT_texture_dds":{"source":0}}},{"extensions":{"MSFT_texture_dds":{"source":1}}},{"extensions":{"MSFT_texture_dds":{"source":2}}}],"extensionsUsed":["ASOBO_material_day_night_switch","MSFT_texture_dds","ASOBO_asset_optimized"],"buffers":[{"byteLength":2876,"uri":"AIG_PC-12NGX_MSFS_LOD5.bin"}],"images":[{"uri":"AIG_PC12.PNG.DDS","extras":"ASOBO_image_converted_meta"},{"uri":"AIG_PC12NGX_C.PNG.DDS","extras":"ASOBO_image_converted_meta"},{"uri":"AIG_PC12NGX_L.PNG.DDS","extras":"ASOBO_image_converted_meta"}]}
