{"accessors":[{"bufferView":0,"componentType":5126,"count":5,"min":[0.0],"max":[100.0],"type":"SCALAR"},{"bufferView":1,"componentType":5126,"count":5,"type":"VEC4"},{"bufferView":0,"byteOffset":20,"componentType":5126,"count":5,"min":[0.0],"max":[100.0],"type":"SCALAR"},{"bufferView":1,"byteOffset":80,"componentType":5126,"count":5,"type":"VEC4"},{"bufferView":0,"byteOffset":40,"componentType":5126,"count":5,"min":[0.0],"max":[100.0],"type":"SCALAR"},{"bufferView":1,"byteOffset":160,"componentType":5126,"count":5,"type":"VEC4"},{"bufferView":0,"byteOffset":60,"componentType":5126,"count":5,"min":[0.0],"max":[100.0],"type":"SCALAR"},{"bufferView":1,"byteOffset":240,"componentType":5126,"count":5,"type":"VEC4"},{"bufferView":0,"byteOffset":80,"componentType":5126,"count":5,"min":[0.0],"max":[100.0],"type":"SCALAR"},{"bufferView":1,"byteOffset":320,"componentType":5126,"count":5,"type":"VEC4"},{"bufferView":0,"byteOffset":100,"componentType":5126,"count":5,"min":[0.0],"max":[100.0],"type":"SCALAR"},{"bufferView":1,"byteOffset":400,"componentType":5126,"count":5,"type":"VEC4"},{"bufferView":0,"byteOffset":120,"componentType":5126,"count":4,"min":[0.0],"max":[200.0],"type":"SCALAR"},{"bufferView":1,"byteOffset":480,"componentType":5126,"count":4,"type":"VEC4"},{"bufferView":0,"byteOffset":136,"componentType":5126,"count":4,"min":[0.0],"max":[100.0],"type":"SCALAR"},{"bufferView":1,"byteOffset":544,"componentType":5126,"count":4,"type":"VEC4"},{"bufferView":2,"componentType":5126,"count":514,"min":[-7.680469989776611,-1.0578900575637818,-9.173890113830567],"max":[7.680469989776611,3.9011900424957277,6.35467004776001],"type":"VEC3","name":"part000_vertices#0_POSITION"},{"bufferView":2,"byteOffset":12,"componentType":5120,"count":514,"type":"VEC4","name":"part000_vertices#0_TANGENT"},{"bufferView":2,"byteOffset":16,"componentType":5120,"count":514,"type":"VEC4","name":"part000_vertices#0_NORMAL"},{"bufferView":2,"byteOffset":20,"componentType":5122,"count":514,"type":"VEC2","name":"part000_vertices#0_TEXCOORD_0"},{"bufferView":2,"byteOffset":24,"componentType":5122,"count":514,"type":"VEC2","name":"part000_vertices#0_TEXCOORD_1"},{"bufferView":2,"byteOffset":28,"componentType":5123,"count":514,"type":"VEC4","name":"part000_vertices#0_COLOR_0"},{"bufferView":3,"componentType":5123,"count":1482,"type":"SCALAR","name":"part000_indices#0"},{"bufferView":2,"byteOffset":18504,"componentType":5126,"count":26,"min":[-0.7634999752044678,0.9753100275993347,3.2154300212860109],"max":[0.7634999752044678,1.49344003200531,4.373610019683838],"type":"VEC3","name":"part001_vertices#0_POSITION"},{"bufferView":2,"byteOffset":18516,"componentType":5120,"count":26,"type":"VEC4","name":"part001_vertices#0_TANGENT"},{"bufferView":2,"byteOffset":18520,"componentType":5120,"count":26,"type":"VEC4","name":"part001_vertices#0_NORMAL"},{"bufferView":2,"byteOffset":18524,"componentType":5122,"count":26,"type":"VEC2","name":"part001_vertices#0_TEXCOORD_0"},{"bufferView":2,"byteOffset":18528,"componentType":5122,"count":26,"type":"VEC2","name":"part001_vertices#0_TEXCOORD_1"},{"bufferView":2,"byteOffset":18532,"componentType":5123,"count":26,"type":"VEC4","name":"part001_vertices#0_COLOR_0"},{"bufferView":3,"byteOffset":2964,"componentType":5123,"count":42,"type":"SCALAR","name":"part001_indices#0"},{"bufferView":2,"byteOffset":19440,"componentType":5126,"count":12,"min":[-2.821049928665161,0.047850001603364947,-8.777680397033692],"max":[2.821049928665161,1.3696800470352173,-2.1011600494384767],"type":"VEC3","name":"part002_vertices#0_POSITION"},{"bufferView":2,"byteOffset":19452,"componentType":5120,"count":12,"type":"VEC4","name":"part002_vertices#0_TANGENT"},{"bufferView":2,"byteOffset":19456,"componentType":5120,"count":12,"type":"VEC4","name":"part002_vertices#0_NORMAL"},{"bufferView":2,"byteOffset":19460,"componentType":5122,"count":12,"type":"VEC2","name":"part002_vertices#0_TEXCOORD_0"},{"bufferView":2,"byteOffset":19464,"componentType":5122,"count":12,"type":"VEC2","name":"part002_vertices#0_TEXCOORD_1"},{"bufferView":2,"byteOffset":19468,"componentType":5123,"count":12,"type":"VEC4","name":"part002_vertices#0_COLOR_0"},{"bufferView":3,"byteOffset":3048,"componentType":5123,"count":18,"type":"SCALAR","name":"part002_indices#0"},{"bufferView":2,"byteOffset":19872,"componentType":5126,"count":34,"min":[-1.274590015411377,-0.09143000096082688,-1.274590015411377],"max":[1.274590015411377,0.1523900032043457,1.274590015411377],"type":"VEC3","name":"part003_vertices#0_POSITION"},{"bufferView":2,"byteOffset":19884,"componentType":5120,"count":34,"type":"VEC4","name":"part003_vertices#0_TANGENT"},{"bufferView":2,"byteOffset":19888,"componentType":5120,"count":34,"type":"VEC4","name":"part003_vertices#0_NORMAL"},{"bufferView":2,"byteOffset":19892,"componentType":5122,"count":34,"type":"VEC2","name":"part003_vertices#0_TEXCOORD_0"},{"bufferView":2,"byteOffset":19896,"componentType":5122,"count":34,"type":"VEC2","name":"part003_vertices#0_TEXCOORD_1"},{"bufferView":2,"byteOffset":19900,"componentType":5123,"count":34,"type":"VEC4","name":"part003_vertices#0_COLOR_0"},{"bufferView":3,"byteOffset":3084,"componentType":5123,"count":96,"type":"SCALAR","name":"part003_indices#0"},{"bufferView":2,"byteOffset":21096,"componentType":5126,"count":60,"min":[-0.7621999979019165,-0.15027999877929688,-0.9925199747085571],"max":[1.239150047302246,0.15027999877929688,1.1552000045776368],"type":"VEC3","name":"part004_vertices#0_POSITION"},{"bufferView":2,"byteOffset":21108,"componentType":5120,"count":60,"type":"VEC4","name":"part004_vertices#0_TANGENT"},{"bufferView":2,"byteOffset":21112,"componentType":5120,"count":60,"type":"VEC4","name":"part004_vertices#0_NORMAL"},{"bufferView":2,"byteOffset":21116,"componentType":5122,"count":60,"type":"VEC2","name":"part004_vertices#0_TEXCOORD_0"},{"bufferView":2,"byteOffset":21120,"componentType":5122,"count":60,"type":"VEC2","name":"part004_vertices#0_TEXCOORD_1"},{"bufferView":2,"byteOffset":21124,"componentType":5123,"count":60,"type":"VEC4","name":"part004_vertices#0_COLOR_0"},{"bufferView":3,"byteOffset":3276,"componentType":5123,"count":144,"type":"SCALAR","name":"part004_indices#0"},{"bufferView":2,"byteOffset":23256,"componentType":5126,"count":34,"min":[-1.274590015411377,-0.09143000096082688,-1.274590015411377],"max":[1.274590015411377,0.1523900032043457,1.274590015411377],"type":"VEC3","name":"part005_vertices#0_POSITION"},{"bufferView":2,"byteOffset":23268,"componentType":5120,"count":34,"type":"VEC4","name":"part005_vertices#0_TANGENT"},{"bufferView":2,"byteOffset":23272,"componentType":5120,"count":34,"type":"VEC4","name":"part005_vertices#0_NORMAL"},{"bufferView":2,"byteOffset":23276,"componentType":5122,"count":34,"type":"VEC2","name":"part005_vertices#0_TEXCOORD_0"},{"bufferView":2,"byteOffset":23280,"componentType":5122,"count":34,"type":"VEC2","name":"part005_vertices#0_TEXCOORD_1"},{"bufferView":2,"byteOffset":23284,"componentType":5123,"count":34,"type":"VEC4","name":"part005_vertices#0_COLOR_0"},{"bufferView":3,"byteOffset":3564,"componentType":5123,"count":96,"type":"SCALAR","name":"part005_indices#0"},{"bufferView":2,"byteOffset":24480,"componentType":5126,"count":34,"min":[-1.274590015411377,-0.09143000096082688,-1.274590015411377],"max":[1.274590015411377,0.1523900032043457,1.274590015411377],"type":"VEC3","name":"part006_vertices#0_POSITION"},{"bufferView":2,"byteOffset":24492,"componentType":5120,"count":34,"type":"VEC4","name":"part006_vertices#0_TANGENT"},{"bufferView":2,"byteOffset":24496,"componentType":5120,"count":34,"type":"VEC4","name":"part006_vertices#0_NORMAL"},{"bufferView":2,"byteOffset":24500,"componentType":5122,"count":34,"type":"VEC2","name":"part006_vertices#0_TEXCOORD_0"},{"bufferView":2,"byteOffset":24504,"componentType":5122,"count":34,"type":"VEC2","name":"part006_vertices#0_TEXCOORD_1"},{"bufferView":2,"byteOffset":24508,"componentType":5123,"count":34,"type":"VEC4","name":"part006_vertices#0_COLOR_0"},{"bufferView":3,"byteOffset":3756,"componentType":5123,"count":96,"type":"SCALAR","name":"part006_indices#0"},{"bufferView":2,"byteOffset":25704,"componentType":5126,"count":60,"min":[-0.7621999979019165,-0.15027999877929688,-0.9925199747085571],"max":[1.239150047302246,0.15027999877929688,1.1552000045776368],"type":"VEC3","name":"part007_vertices#0_POSITION"},{"bufferView":2,"byteOffset":25716,"componentType":5120,"count":60,"type":"VEC4","name":"part007_vertices#0_TANGENT"},{"bufferView":2,"byteOffset":25720,"componentType":5120,"count":60,"type":"VEC4","name":"part007_vertices#0_NORMAL"},{"bufferView":2,"byteOffset":25724,"componentType":5122,"count":60,"type":"VEC2","name":"part007_vertices#0_TEXCOORD_0"},{"bufferView":2,"byteOffset":25728,"componentType":5122,"count":60,"type":"VEC2","name":"part007_vertices#0_TEXCOORD_1"},{"bufferView":2,"byteOffset":25732,"componentType":5123,"count":60,"type":"VEC4","name":"part007_vertices#0_COLOR_0"},{"bufferView":3,"byteOffset":3948,"componentType":5123,"count":144,"type":"SCALAR","name":"part007_indices#0"},{"bufferView":2,"byteOffset":27864,"componentType":5126,"count":34,"min":[-1.274590015411377,-0.09143000096082688,-1.274590015411377],"max":[1.274590015411377,0.1523900032043457,1.274590015411377],"type":"VEC3","name":"part008_vertices#0_POSITION"},{"bufferView":2,"byteOffset":27876,"componentType":5120,"count":34,"type":"VEC4","name":"part008_vertices#0_TANGENT"},{"bufferView":2,"byteOffset":27880,"componentType":5120,"count":34,"type":"VEC4","name":"part008_vertices#0_NORMAL"},{"bufferView":2,"byteOffset":27884,"componentType":5122,"count":34,"type":"VEC2","name":"part008_vertices#0_TEXCOORD_0"},{"bufferView":2,"byteOffset":27888,"componentType":5122,"count":34,"type":"VEC2","name":"part008_vertices#0_TEXCOORD_1"},{"bufferView":2,"byteOffset":27892,"componentType":5123,"count":34,"type":"VEC4","name":"part008_vertices#0_COLOR_0"},{"bufferView":3,"byteOffset":4236,"componentType":5123,"count":96,"type":"SCALAR","name":"part008_indices#0"}],"animations":[{"name":"engine0","channels":[{"sampler":0,"target":{"node":14,"path":"rotation"}},{"sampler":1,"target":{"node":16,"path":"rotation"}},{"sampler":2,"target":{"node":18,"path":"rotation"}}],"samplers":[{"input":0,"output":1,"interpolation":"LINEAR"},{"input":2,"output":3,"interpolation":"LINEAR"},{"input":4,"output":5,"interpolation":"LINEAR"}]},{"name":"engine1","channels":[{"sampler":0,"target":{"node":21,"path":"rotation"}},{"sampler":1,"target":{"node":23,"path":"rotation"}},{"sampler":2,"target":{"node":25,"path":"rotation"}}],"samplers":[{"input":6,"output":7,"interpolation":"LINEAR"},{"input":8,"output":9,"interpolation":"LINEAR"},{"input":10,"output":11,"interpolation":"LINEAR"}]},{"name":"custom_anim_C_WHEEL_LR","channels":[{"sampler":0,"target":{"node":27,"path":"rotation"}}],"samplers":[{"input":12,"output":13,"interpolation":"LINEAR"}]},{"name":"c_gear","channels":[{"sampler":0,"target":{"node":30,"path":"rotation"}}],"samplers":[{"input":14,"output":15,"interpolation":"LINEAR"}]}],"asset":{"generator":"ModelConverterX","version":"2.0","extensions":{"ASOBO_asset_optimized":{"BoundingBoxMax":[7.680469989776611,3.9011900424957277,6.35467004776001],"BoundingBoxMin":[-7.680469989776611,-1.0578900575637818,-9.173890113830567],"MajorVersion":4,"MinorVersion":4,"UseCheckerboardMaterialForMissingTextures":true,"UseOnlyFilenameForImageURI":true}}},"bufferViews":[{"buffer":0,"byteLength":152,"byteStride":4},{"buffer":0,"byteLength":608,"byteStride":16,"byteOffset":152},{"buffer":0,"byteLength":29088,"byteStride":36,"byteOffset":760,"target":34962,"name":"BufferViewVertexND"},{"buffer":0,"byteLength":4428,"byteOffset":29848,"target":34963,"name":"BufferViewIndex"}],"extensionsRequired":["MSFT_texture_dds"],"materials":[{"name":"material00","pbrMetallicRoughness":{"baseColorFactor":[0.03921600058674812,0.03921600058674812,0.03921600058674812,1.0],"metallicFactor":0.0}},{"name":"material01","pbrMetallicRoughness":{"baseColorFactor":[0.7960780262947084,0.7960780262947084,0.7960780262947084,1.0],"metallicFactor":0.0}},{"name":"material02","emissiveTexture":{"index":1},"emissiveFactor":[0.019607843831181527,0.019607843831181527,0.019607843831181527],"pbrMetallicRoughness":{"metallicFactor":0.0,"baseColorTexture":{"index":0}},"extensions":{"ASOBO_material_day_night_switch":{}}},{"name":"material03","alphaMode":"BLEND","pbrMetallicRoughness":{"baseColorFactor":[0.0,0.0,0.0,0.980392156862745],"metallicFactor":0.0,"baseColorTexture":{"index":2}}}],"meshes":[{"primitives":[{"attributes":{"COLOR_0":21,"NORMAL":18,"POSITION":16,"TANGENT":17,"TEXCOORD_0":19,"TEXCOORD_1":20},"indices":22,"material":2,"mode":4,"extras":{"ASOBO_primitive":{"PrimitiveCount":494,"VertexType":"VTX","VertexVersion":2}}}],"name":"part000"},{"primitives":[{"attributes":{"COLOR_0":28,"NORMAL":25,"POSITION":23,"TANGENT":24,"TEXCOORD_0":26,"TEXCOORD_1":27},"indices":29,"material":0,"mode":4,"extras":{"ASOBO_primitive":{"PrimitiveCount":14,"VertexType":"VTX","VertexVersion":2}}}],"name":"part001"},{"primitives":[{"attributes":{"COLOR_0":35,"NORMAL":32,"POSITION":30,"TANGENT":31,"TEXCOORD_0":33,"TEXCOORD_1":34},"indices":36,"material":1,"mode":4,"extras":{"ASOBO_primitive":{"PrimitiveCount":6,"VertexType":"VTX","VertexVersion":2}}}],"name":"part002"},{"primitives":[{"attributes":{"COLOR_0":42,"NORMAL":39,"POSITION":37,"TANGENT":38,"TEXCOORD_0":40,"TEXCOORD_1":41},"indices":43,"material":3,"mode":4,"extras":{"ASOBO_primitive":{"PrimitiveCount":32,"VertexType":"VTX","VertexVersion":2}}}],"name":"part003"},{"primitives":[{"attributes":{"COLOR_0":49,"NORMAL":46,"POSITION":44,"TANGENT":45,"TEXCOORD_0":47,"TEXCOORD_1":48},"indices":50,"material":2,"mode":4,"extras":{"ASOBO_primitive":{"PrimitiveCount":48,"VertexType":"VTX","VertexVersion":2}}}],"name":"part004"},{"primitives":[{"attributes":{"COLOR_0":56,"NORMAL":53,"POSITION":51,"TANGENT":52,"TEXCOORD_0":54,"TEXCOORD_1":55},"indices":57,"material":3,"mode":4,"extras":{"ASOBO_primitive":{"PrimitiveCount":32,"VertexType":"VTX","VertexVersion":2}}}],"name":"part005"},{"primitives":[{"attributes":{"COLOR_0":63,"NORMAL":60,"POSITION":58,"TANGENT":59,"TEXCOORD_0":61,"TEXCOORD_1":62},"indices":64,"material":3,"mode":4,"extras":{"ASOBO_primitive":{"PrimitiveCount":32,"VertexType":"VTX","VertexVersion":2}}}],"name":"part006"},{"primitives":[{"attributes":{"COLOR_0":70,"NORMAL":67,"POSITION":65,"TANGENT":66,"TEXCOORD_0":68,"TEXCOORD_1":69},"indices":71,"material":2,"mode":4,"extras":{"ASOBO_primitive":{"PrimitiveCount":48,"VertexType":"VTX","VertexVersion":2}}}],"name":"part007"},{"primitives":[{"attributes":{"COLOR_0":77,"NORMAL":74,"POSITION":72,"TANGENT":73,"TEXCOORD_0":75,"TEXCOORD_1":76},"indices":78,"material":3,"mode":4,"extras":{"ASOBO_primitive":{"PrimitiveCount":32,"VertexType":"VTX","VertexVersion":2}}}],"name":"part008"}],"nodes":[{"name":"node_0","children":[1,2,3,4,5,6,7,8,9,10,11]},{"mesh":0,"name":"cabin_lights_VC"},{"mesh":1,"name":"node_3"},{"mesh":2,"name":"node_4"},{"translation":[2.5000000000000006,0.0,-2.2000000476837155],"rotation":[-6.123031769111886e-17,3.061515884555943e-17,1.0,1.874575902277672e-33],"scale":[1.0,1.0,1.0],"name":"contrail1"},{"translation":[5.210000038146973,0.40999999642372128,0.28999999165535036],"rotation":[-0.7071067811865475,0.0,0.0,0.7071067811865475],"scale":[1.0,1.0,1.0],"name":"Left_Landing"},{"translation":[-5.210000038146973,0.40999999642372128,0.2899999916553491],"rotation":[-0.7071067811865475,0.0,0.0,0.7071067811865475],"scale":[1.0,1.0,1.0],"name":"Right_Landing"},{"translation":[-2.4999999999999997,0.0,-2.2000000476837164],"rotation":[-6.123031769111886e-17,3.061515884555943e-17,1.0,1.874575902277672e-33],"scale":[1.0,1.0,1.0],"name":"contrail2"},{"translation":[-5.143346452478859e-16,-1.0,4.199999809265137],"rotation":[-6.123031769111886e-17,3.061515884555943e-17,1.0,1.874575902277672e-33],"scale":[1.0,1.0,1.0],"name":"c_tire1"},{"translation":[2.5399999618530275,-1.0,-0.6000000238418576],"rotation":[-6.123031769111886e-17,3.061515884555943e-17,1.0,1.874575902277672e-33],"scale":[1.0,1.0,1.0],"name":"l_tire1"},{"translation":[-2.5399999618530275,-1.0,-0.6000000238418582],"rotation":[-6.123031769111886e-17,3.061515884555943e-17,1.0,1.874575902277672e-33],"scale":[1.0,1.0,1.0],"name":"r_tire1"},{"translation":[0.0,0.0,0.0],"rotation":[-4.329637285359677e-17,0.7071067811865475,0.7071067811865475,4.329637285359677e-17],"scale":[1.0,1.0,1.0],"name":"node_29","children":[12,19,26]},{"translation":[-2.468722105026245,1.9201170206069945,0.33525899052619936],"rotation":[0.0,0.0,0.0,1.0],"scale":[1.0,1.0,1.0],"name":"node_30","children":[13,15,17]},{"name":"prop0_slow_VC","children":[14]},{"mesh":3,"name":"engine0_AN_VC"},{"name":"prop0_still_VC","children":[16]},{"mesh":4,"name":"ENGINE0_AN_VC_1"},{"name":"prop0_blurred_VC","children":[18]},{"mesh":5,"name":"ENGINE0_AN_VC_2"},{"translation":[2.468722105026245,1.9201170206069945,0.33525899052619936],"rotation":[0.0,0.0,0.0,1.0],"scale":[1.0,1.0,1.0],"name":"node_40","children":[20,22,24]},{"name":"prop1_slow_VC","children":[21]},{"mesh":6,"name":"engine1_AN_VC"},{"name":"prop1_still_VC","children":[23]},{"mesh":7,"name":"ENGINE1_AN_VC_1"},{"name":"prop1_blurred_VC","children":[25]},{"mesh":8,"name":"ENGINE1_AN_VC_2"},{"translation":[0.0,4.510749816894531,-0.06095600128173828],"rotation":[0.0,0.0,0.0,1.0],"scale":[1.0,1.0,1.0],"name":"node_79","children":[27]},{"name":"custom_anim_C_WHEEL_LR_AN_79","children":[28]},{"translation":[0.0,0.0,-0.05973700061440468],"rotation":[0.0,0.0,0.0,1.0],"scale":[1.0,1.0,1.0],"name":"node_80","children":[29]},{"name":"node_85","children":[30]},{"name":"c_gear_AN_85","children":[31]},{"translation":[0.0,0.119999997317791,-0.2300000041723251],"rotation":[0.0,0.0,0.0,1.0],"scale":[1.0,1.0,1.0],"name":"node_86","children":[32]},{"translation":[0.0,0.0,0.0],"rotation":[0.0,0.0,1.0,-6.123031769111886e-17],"scale":[1.0,1.0,1.0],"name":"taxi"}],"scene":0,"scenes":[{"nodes":[0]}],"textures":[{"extensions":{"MSFT_texture_dds":{"source":0}}},{"extensions":{"MSFT_texture_dds":{"source":1}}},{"extensions":{"MSFT_texture_dds":{"source":2}}}],"extensionsUsed":["ASOBO_material_day_night_switch","MSFT_texture_dds","ASOBO_asset_optimized"],"buffers":[{"byteLength":34276,"uri":"DWAI_Embraer_110_MSFS_LOD2.bin"}],"images":[{"uri":"EMB110.PNG.DDS","extras":"ASOBO_image_converted_meta"},{"uri":"CABIN_LIGHTS.PNG.DDS","extras":"ASOBO_image_converted_meta"},{"uri":"PROP-HS.PNG.DDS","extras":"ASOBO_image_converted_meta"}]}
