{"accessors":[{"bufferView":0,"componentType":5126,"count":51,"min":[0.0],"max":[100.0],"type":"SCALAR"},{"bufferView":1,"componentType":5126,"count":51,"type":"VEC4"},{"bufferView":0,"byteOffset":204,"componentType":5126,"count":5,"min":[0.0],"max":[100.0],"type":"SCALAR"},{"bufferView":1,"byteOffset":816,"componentType":5126,"count":5,"type":"VEC4"},{"bufferView":0,"byteOffset":224,"componentType":5126,"count":6,"min":[0.0],"max":[5.0],"type":"SCALAR"},{"bufferView":1,"byteOffset":896,"componentType":5126,"count":6,"type":"VEC4"},{"bufferView":0,"byteOffset":248,"componentType":5126,"count":6,"min":[0.0],"max":[5.0],"type":"SCALAR"},{"bufferView":1,"byteOffset":992,"componentType":5126,"count":6,"type":"VEC4"},{"bufferView":0,"byteOffset":272,"componentType":5126,"count":51,"min":[0.0],"max":[100.0],"type":"SCALAR"},{"bufferView":1,"byteOffset":1088,"componentType":5126,"count":51,"type":"VEC4"},{"bufferView":0,"byteOffset":476,"componentType":5126,"count":5,"min":[0.0],"max":[100.0],"type":"SCALAR"},{"bufferView":1,"byteOffset":1904,"componentType":5126,"count":5,"type":"VEC4"},{"bufferView":0,"byteOffset":496,"componentType":5126,"count":51,"min":[0.0],"max":[100.0],"type":"SCALAR"},{"bufferView":1,"byteOffset":1984,"componentType":5126,"count":51,"type":"VEC4"},{"bufferView":0,"byteOffset":700,"componentType":5126,"count":51,"min":[0.0],"max":[100.0],"type":"SCALAR"},{"bufferView":1,"byteOffset":2800,"componentType":5126,"count":51,"type":"VEC4"},{"bufferView":0,"byteOffset":904,"componentType":5126,"count":5,"min":[0.0],"max":[100.0],"type":"SCALAR"},{"bufferView":1,"byteOffset":3616,"componentType":5126,"count":5,"type":"VEC4"},{"bufferView":0,"byteOffset":924,"componentType":5126,"count":51,"min":[0.0],"max":[100.0],"type":"SCALAR"},{"bufferView":1,"byteOffset":3696,"componentType":5126,"count":51,"type":"VEC4"},{"bufferView":2,"componentType":5126,"count":16,"min":[-1.8519999980926514,0.2680000066757202,-5.639999866485596],"max":[1.8519999980926514,1.2999999523162842,-2.0920000076293947],"type":"VEC3","name":"part000_vertices#0_POSITION"},{"bufferView":2,"byteOffset":12,"componentType":5120,"count":16,"type":"VEC4","name":"part000_vertices#0_TANGENT"},{"bufferView":2,"byteOffset":16,"componentType":5120,"count":16,"type":"VEC4","name":"part000_vertices#0_NORMAL"},{"bufferView":2,"byteOffset":20,"componentType":5122,"count":16,"type":"VEC2","name":"part000_vertices#0_TEXCOORD_0"},{"bufferView":2,"byteOffset":24,"componentType":5122,"count":16,"type":"VEC2","name":"part000_vertices#0_TEXCOORD_1"},{"bufferView":2,"byteOffset":28,"componentType":5123,"count":16,"type":"VEC4","name":"part000_vertices#0_COLOR_0"},{"bufferView":3,"componentType":5123,"count":24,"type":"SCALAR","name":"part000_indices#0"},{"bufferView":2,"byteOffset":576,"componentType":5126,"count":209,"min":[-7.639999866485596,-1.1640000343322755,-10.779999732971192],"max":[7.639999866485596,3.187999963760376,9.812000274658204],"type":"VEC3","name":"part001_vertices#0_POSITION"},{"bufferView":2,"byteOffset":588,"componentType":5120,"count":209,"type":"VEC4","name":"part001_vertices#0_TANGENT"},{"bufferView":2,"byteOffset":592,"componentType":5120,"count":209,"type":"VEC4","name":"part001_vertices#0_NORMAL"},{"bufferView":2,"byteOffset":596,"componentType":5122,"count":209,"type":"VEC2","name":"part001_vertices#0_TEXCOORD_0"},{"bufferView":2,"byteOffset":600,"componentType":5122,"count":209,"type":"VEC2","name":"part001_vertices#0_TEXCOORD_1"},{"bufferView":2,"byteOffset":604,"componentType":5123,"count":209,"type":"VEC4","name":"part001_vertices#0_COLOR_0"},{"bufferView":3,"byteOffset":48,"componentType":5123,"count":570,"type":"SCALAR","name":"part001_indices#0"},{"bufferView":2,"byteOffset":8100,"componentType":5126,"count":30,"min":[-0.7679499983787537,-0.039489999413490298,-0.038339998573064807],"max":[0.007410000078380108,0.15650999546051026,0.19697000086307527],"type":"VEC3","name":"part002_vertices#0_POSITION"},{"bufferView":2,"byteOffset":8112,"componentType":5120,"count":30,"type":"VEC4","name":"part002_vertices#0_TANGENT"},{"bufferView":2,"byteOffset":8116,"componentType":5120,"count":30,"type":"VEC4","name":"part002_vertices#0_NORMAL"},{"bufferView":2,"byteOffset":8120,"componentType":5122,"count":30,"type":"VEC2","name":"part002_vertices#0_TEXCOORD_0"},{"bufferView":2,"byteOffset":8124,"componentType":5122,"count":30,"type":"VEC2","name":"part002_vertices#0_TEXCOORD_1"},{"bufferView":2,"byteOffset":8128,"componentType":5123,"count":30,"type":"VEC4","name":"part002_vertices#0_COLOR_0"},{"bufferView":3,"byteOffset":1188,"componentType":5123,"count":72,"type":"SCALAR","name":"part002_indices#0"},{"bufferView":2,"byteOffset":9180,"componentType":5126,"count":50,"min":[-0.2119400054216385,-0.05511000007390976,-0.22014999389648438],"max":[0.2123199999332428,0.052889999002218249,0.2205200046300888],"type":"VEC3","name":"part003_vertices#0_POSITION"},{"bufferView":2,"byteOffset":9192,"componentType":5120,"count":50,"type":"VEC4","name":"part003_vertices#0_TANGENT"},{"bufferView":2,"byteOffset":9196,"componentType":5120,"count":50,"type":"VEC4","name":"part003_vertices#0_NORMAL"},{"bufferView":2,"byteOffset":9200,"componentType":5122,"count":50,"type":"VEC2","name":"part003_vertices#0_TEXCOORD_0"},{"bufferView":2,"byteOffset":9204,"componentType":5122,"count":50,"type":"VEC2","name":"part003_vertices#0_TEXCOORD_1"},{"bufferView":2,"byteOffset":9208,"componentType":5123,"count":50,"type":"VEC4","name":"part003_vertices#0_COLOR_0"},{"bufferView":3,"byteOffset":1332,"componentType":5123,"count":120,"type":"SCALAR","name":"part003_indices#0"},{"bufferView":2,"byteOffset":10980,"componentType":5126,"count":6,"min":[-0.06007999926805496,0.00687999976798892,-0.6593999862670898],"max":[-0.0014299999456852675,0.19088000059127809,0.6606500148773193],"type":"VEC3","name":"part004_vertices#0_POSITION"},{"bufferView":2,"byteOffset":10992,"componentType":5120,"count":6,"type":"VEC4","name":"part004_vertices#0_TANGENT"},{"bufferView":2,"byteOffset":10996,"componentType":5120,"count":6,"type":"VEC4","name":"part004_vertices#0_NORMAL"},{"bufferView":2,"byteOffset":11000,"componentType":5122,"count":6,"type":"VEC2","name":"part004_vertices#0_TEXCOORD_0"},{"bufferView":2,"byteOffset":11004,"componentType":5122,"count":6,"type":"VEC2","name":"part004_vertices#0_TEXCOORD_1"},{"bufferView":2,"byteOffset":11008,"componentType":5123,"count":6,"type":"VEC4","name":"part004_vertices#0_COLOR_0"},{"bufferView":3,"byteOffset":1572,"componentType":5123,"count":12,"type":"SCALAR","name":"part004_indices#0"},{"bufferView":2,"byteOffset":11196,"componentType":5126,"count":6,"min":[-0.06007999926805496,-0.19228999316692353,-0.6593999862670898],"max":[-0.0014299999456852675,-0.004290000069886446,0.6606500148773193],"type":"VEC3","name":"part005_vertices#0_POSITION"},{"bufferView":2,"byteOffset":11208,"componentType":5120,"count":6,"type":"VEC4","name":"part005_vertices#0_TANGENT"},{"bufferView":2,"byteOffset":11212,"componentType":5120,"count":6,"type":"VEC4","name":"part005_vertices#0_NORMAL"},{"bufferView":2,"byteOffset":11216,"componentType":5122,"count":6,"type":"VEC2","name":"part005_vertices#0_TEXCOORD_0"},{"bufferView":2,"byteOffset":11220,"componentType":5122,"count":6,"type":"VEC2","name":"part005_vertices#0_TEXCOORD_1"},{"bufferView":2,"byteOffset":11224,"componentType":5123,"count":6,"type":"VEC4","name":"part005_vertices#0_COLOR_0"},{"bufferView":3,"byteOffset":1596,"componentType":5123,"count":12,"type":"SCALAR","name":"part005_indices#0"},{"bufferView":2,"byteOffset":11412,"componentType":5126,"count":8,"min":[0.09489999711513519,-0.0581899993121624,-0.9171199798583984],"max":[0.15609000623226167,0.05781000107526779,-0.05104999989271164],"type":"VEC3","name":"part006_vertices#0_POSITION"},{"bufferView":2,"byteOffset":11424,"componentType":5120,"count":8,"type":"VEC4","name":"part006_vertices#0_TANGENT"},{"bufferView":2,"byteOffset":11428,"componentType":5120,"count":8,"type":"VEC4","name":"part006_vertices#0_NORMAL"},{"bufferView":2,"byteOffset":11432,"componentType":5122,"count":8,"type":"VEC2","name":"part006_vertices#0_TEXCOORD_0"},{"bufferView":2,"byteOffset":11436,"componentType":5122,"count":8,"type":"VEC2","name":"part006_vertices#0_TEXCOORD_1"},{"bufferView":2,"byteOffset":11440,"componentType":5123,"count":8,"type":"VEC4","name":"part006_vertices#0_COLOR_0"},{"bufferView":3,"byteOffset":1620,"componentType":5123,"count":12,"type":"SCALAR","name":"part006_indices#0"},{"bufferView":2,"byteOffset":11700,"componentType":5126,"count":50,"min":[-0.06171000003814697,-0.2791599929332733,-0.2652699947357178],"max":[0.061000000685453418,0.2808400094509125,0.2658199965953827],"type":"VEC3","name":"part007_vertices#0_POSITION"},{"bufferView":2,"byteOffset":11712,"componentType":5120,"count":50,"type":"VEC4","name":"part007_vertices#0_TANGENT"},{"bufferView":2,"byteOffset":11716,"componentType":5120,"count":50,"type":"VEC4","name":"part007_vertices#0_NORMAL"},{"bufferView":2,"byteOffset":11720,"componentType":5122,"count":50,"type":"VEC2","name":"part007_vertices#0_TEXCOORD_0"},{"bufferView":2,"byteOffset":11724,"componentType":5122,"count":50,"type":"VEC2","name":"part007_vertices#0_TEXCOORD_1"},{"bufferView":2,"byteOffset":11728,"componentType":5123,"count":50,"type":"VEC4","name":"part007_vertices#0_COLOR_0"},{"bufferView":3,"byteOffset":1644,"componentType":5123,"count":120,"type":"SCALAR","name":"part007_indices#0"},{"bufferView":2,"byteOffset":13500,"componentType":5126,"count":8,"min":[-0.9149799942970276,-0.16165000200271607,-0.0581899993121624],"max":[-0.07982999831438065,-0.09567999839782715,0.05781000107526779],"type":"VEC3","name":"part008_vertices#0_POSITION"},{"bufferView":2,"byteOffset":13512,"componentType":5120,"count":8,"type":"VEC4","name":"part008_vertices#0_TANGENT"},{"bufferView":2,"byteOffset":13516,"componentType":5120,"count":8,"type":"VEC4","name":"part008_vertices#0_NORMAL"},{"bufferView":2,"byteOffset":13520,"componentType":5122,"count":8,"type":"VEC2","name":"part008_vertices#0_TEXCOORD_0"},{"bufferView":2,"byteOffset":13524,"componentType":5122,"count":8,"type":"VEC2","name":"part008_vertices#0_TEXCOORD_1"},{"bufferView":2,"byteOffset":13528,"componentType":5123,"count":8,"type":"VEC4","name":"part008_vertices#0_COLOR_0"},{"bufferView":3,"byteOffset":1884,"componentType":5123,"count":12,"type":"SCALAR","name":"part008_indices#0"},{"bufferView":2,"byteOffset":13788,"componentType":5126,"count":50,"min":[-0.2652300000190735,-0.05716000124812126,-0.27915000915527346],"max":[0.267549991607666,0.0573900006711483,0.2808400094509125],"type":"VEC3","name":"part009_vertices#0_POSITION"},{"bufferView":2,"byteOffset":13800,"componentType":5120,"count":50,"type":"VEC4","name":"part009_vertices#0_TANGENT"},{"bufferView":2,"byteOffset":13804,"componentType":5120,"count":50,"type":"VEC4","name":"part009_vertices#0_NORMAL"},{"bufferView":2,"byteOffset":13808,"componentType":5122,"count":50,"type":"VEC2","name":"part009_vertices#0_TEXCOORD_0"},{"bufferView":2,"byteOffset":13812,"componentType":5122,"count":50,"type":"VEC2","name":"part009_vertices#0_TEXCOORD_1"},{"bufferView":2,"byteOffset":13816,"componentType":5123,"count":50,"type":"VEC4","name":"part009_vertices#0_COLOR_0"},{"bufferView":3,"byteOffset":1908,"componentType":5123,"count":120,"type":"SCALAR","name":"part009_indices#0"}],"animations":[{"name":"c_gear","channels":[{"sampler":0,"target":{"node":11,"path":"rotation"}}],"samplers":[{"input":0,"output":1,"interpolation":"LINEAR"}]},{"name":"c_tire_blurred_key","channels":[{"sampler":0,"target":{"node":13,"path":"rotation"}}],"samplers":[{"input":2,"output":3,"interpolation":"LINEAR"}]},{"name":"l_gear","channels":[{"sampler":0,"target":{"node":15,"path":"rotation"}},{"sampler":1,"target":{"node":30,"path":"rotation"}},{"sampler":2,"target":{"node":35,"path":"rotation"}}],"samplers":[{"input":4,"output":5,"interpolation":"LINEAR"},{"input":14,"output":15,"interpolation":"LINEAR"},{"input":18,"output":19,"interpolation":"LINEAR"}]},{"name":"r_gear","channels":[{"sampler":0,"target":{"node":17,"path":"rotation"}},{"sampler":1,"target":{"node":20,"path":"rotation"}},{"sampler":2,"target":{"node":25,"path":"rotation"}}],"samplers":[{"input":6,"output":7,"interpolation":"LINEAR"},{"input":8,"output":9,"interpolation":"LINEAR"},{"input":12,"output":13,"interpolation":"LINEAR"}]},{"name":"r_tire_blurred_key","channels":[{"sampler":0,"target":{"node":23,"path":"rotation"}}],"samplers":[{"input":10,"output":11,"interpolation":"LINEAR"}]},{"name":"l_tire_blurred_key","channels":[{"sampler":0,"target":{"node":33,"path":"rotation"}}],"samplers":[{"input":16,"output":17,"interpolation":"LINEAR"}]}],"asset":{"generator":"ModelConverterX","version":"2.0","extensions":{"ASOBO_asset_optimized":{"BoundingBoxMax":[7.639999866485596,3.187999963760376,9.812000274658204],"BoundingBoxMin":[-7.639999866485596,-1.1640000343322755,-10.779999732971192],"MajorVersion":4,"MinorVersion":4,"UseCheckerboardMaterialForMissingTextures":true,"UseOnlyFilenameForImageURI":true}}},"bufferViews":[{"buffer":0,"byteLength":1128,"byteStride":4},{"buffer":0,"byteLength":4512,"byteStride":16,"byteOffset":1128},{"buffer":0,"byteLength":15588,"byteStride":36,"byteOffset":5640,"target":34962,"name":"BufferViewVertexND"},{"buffer":0,"byteLength":2148,"byteOffset":21228,"target":34963,"name":"BufferViewIndex"}],"extensionsRequired":["MSFT_texture_dds"],"materials":[{"name":"material00","pbrMetallicRoughness":{"baseColorFactor":[0.09019599854946137,0.09019599854946137,0.09019599854946137,1.0],"metallicFactor":0.0}},{"name":"material01","emissiveTexture":{"index":1},"emissiveFactor":[0.019607843831181527,0.019607843831181527,0.019607843831181527],"pbrMetallicRoughness":{"metallicFactor":0.0,"baseColorTexture":{"index":0}},"extensions":{"ASOBO_material_day_night_switch":{}}}],"meshes":[{"primitives":[{"attributes":{"COLOR_0":25,"NORMAL":22,"POSITION":20,"TANGENT":21,"TEXCOORD_0":23,"TEXCOORD_1":24},"indices":26,"material":0,"mode":4,"extras":{"ASOBO_primitive":{"PrimitiveCount":8,"VertexType":"VTX","VertexVersion":2}}}],"name":"part000"},{"primitives":[{"attributes":{"COLOR_0":32,"NORMAL":29,"POSITION":27,"TANGENT":28,"TEXCOORD_0":30,"TEXCOORD_1":31},"indices":33,"material":1,"mode":4,"extras":{"ASOBO_primitive":{"PrimitiveCount":190,"VertexType":"VTX","VertexVersion":2}}}],"name":"part001"},{"primitives":[{"attributes":{"COLOR_0":39,"NORMAL":36,"POSITION":34,"TANGENT":35,"TEXCOORD_0":37,"TEXCOORD_1":38},"indices":40,"material":1,"mode":4,"extras":{"ASOBO_primitive":{"PrimitiveCount":24,"VertexType":"VTX","VertexVersion":2}}}],"name":"part002"},{"primitives":[{"attributes":{"COLOR_0":46,"NORMAL":43,"POSITION":41,"TANGENT":42,"TEXCOORD_0":44,"TEXCOORD_1":45},"indices":47,"material":1,"mode":4,"extras":{"ASOBO_primitive":{"PrimitiveCount":40,"VertexType":"VTX","VertexVersion":2}}}],"name":"part003"},{"primitives":[{"attributes":{"COLOR_0":53,"NORMAL":50,"POSITION":48,"TANGENT":49,"TEXCOORD_0":51,"TEXCOORD_1":52},"indices":54,"material":1,"mode":4,"extras":{"ASOBO_primitive":{"PrimitiveCount":4,"VertexType":"VTX","VertexVersion":2}}}],"name":"part004"},{"primitives":[{"attributes":{"COLOR_0":60,"NORMAL":57,"POSITION":55,"TANGENT":56,"TEXCOORD_0":58,"TEXCOORD_1":59},"indices":61,"material":1,"mode":4,"extras":{"ASOBO_primitive":{"PrimitiveCount":4,"VertexType":"VTX","VertexVersion":2}}}],"name":"part005"},{"primitives":[{"attributes":{"COLOR_0":67,"NORMAL":64,"POSITION":62,"TANGENT":63,"TEXCOORD_0":65,"TEXCOORD_1":66},"indices":68,"material":1,"mode":4,"extras":{"ASOBO_primitive":{"PrimitiveCount":4,"VertexType":"VTX","VertexVersion":2}}}],"name":"part006"},{"primitives":[{"attributes":{"COLOR_0":74,"NORMAL":71,"POSITION":69,"TANGENT":70,"TEXCOORD_0":72,"TEXCOORD_1":73},"indices":75,"material":1,"mode":4,"extras":{"ASOBO_primitive":{"PrimitiveCount":40,"VertexType":"VTX","VertexVersion":2}}}],"name":"part007"},{"primitives":[{"attributes":{"COLOR_0":81,"NORMAL":78,"POSITION":76,"TANGENT":77,"TEXCOORD_0":79,"TEXCOORD_1":80},"indices":82,"material":1,"mode":4,"extras":{"ASOBO_primitive":{"PrimitiveCount":4,"VertexType":"VTX","VertexVersion":2}}}],"name":"part008"},{"primitives":[{"attributes":{"COLOR_0":88,"NORMAL":85,"POSITION":83,"TANGENT":84,"TEXCOORD_0":86,"TEXCOORD_1":87},"indices":89,"material":1,"mode":4,"extras":{"ASOBO_primitive":{"PrimitiveCount":40,"VertexType":"VTX","VertexVersion":2}}}],"name":"part009"}],"nodes":[{"name":"node_0","children":[1,2,3,4,5,6,7,8]},{"mesh":0,"name":"node_3"},{"mesh":1,"name":"node_4"},{"translation":[1.3999999761581428,0.6000000238418579,-6.0],"rotation":[-6.123031769111886e-17,3.061515884555943e-17,1.0,1.874575902277672e-33],"scale":[1.0,1.0,1.0],"name":"contrail1"},{"translation":[-1.3999999761581415,0.6000000238418579,-6.0],"rotation":[-6.123031769111886e-17,3.061515884555943e-17,1.0,1.874575902277672e-33],"scale":[1.0,1.0,1.0],"name":"contrail2"},{"translation":[-9.18454765366783e-16,-1.899999976158142,7.5],"rotation":[-6.123031769111886e-17,3.061515884555943e-17,1.0,1.874575902277672e-33],"scale":[1.0,1.0,1.0],"name":"c_tire1"},{"translation":[1.4299999475479127,-1.899999976158142,-0.8999999761581419],"rotation":[-6.123031769111886e-17,3.061515884555943e-17,1.0,1.874575902277672e-33],"scale":[1.0,1.0,1.0],"name":"l_tire1"},{"translation":[-1.4299999475479127,-1.899999976158142,-0.8999999761581422],"rotation":[-6.123031769111886e-17,3.061515884555943e-17,1.0,1.874575902277672e-33],"scale":[1.0,1.0,1.0],"name":"r_tire1"},{"translation":[0.0,0.0,0.0],"rotation":[-4.329637285359677e-17,0.7071067811865475,0.7071067811865475,4.329637285359677e-17],"scale":[1.0,1.0,1.0],"name":"node_32","children":[9,18,28]},{"translation":[0.0,7.118332862854004,-0.3529599905014038],"rotation":[0.0,0.0,0.0,1.0],"scale":[1.0,1.0,1.0],"name":"node_38","children":[10,14,16]},{"translation":[-0.11651399731636048,0.2381339967250824,-0.5785040259361267],"rotation":[0.0,0.0,0.0,1.0],"scale":[1.0,1.0,1.0],"name":"node_39","children":[11]},{"mesh":2,"name":"c_gear_AN_39","children":[12]},{"translation":[-0.7255859971046448,0.10351599752902985,0.15820300579071046],"rotation":[0.0,0.0,0.0,1.0],"scale":[1.0,1.0,1.0],"name":"node_40","children":[13]},{"mesh":3,"name":"c_tire_blurred_key_AN_40"},{"translation":[-0.19088299572467805,0.7178440093994141,-0.6801909804344177],"rotation":[0.0,0.0,0.0,1.0],"scale":[1.0,1.0,1.0],"name":"node_53","children":[15]},{"mesh":4,"name":"l_gear_AN_53"},{"translation":[0.1922910064458847,0.7178440093994141,-0.6801909804344177],"rotation":[0.0,0.0,0.0,1.0],"scale":[1.0,1.0,1.0],"name":"node_58","children":[17]},{"mesh":5,"name":"r_gear_AN_58"},{"translation":[0.29812100529670718,-0.7344779968261719,0.3640109896659851],"rotation":[0.0,0.0,0.0,1.0],"scale":[1.0,1.0,1.0],"name":"node_68","children":[19,24]},{"translation":[1.0355050563812256,-0.10733100026845932,-1.113860011100769],"rotation":[0.0,0.0,0.0,1.0],"scale":[1.0,1.0,1.0],"name":"node_69","children":[20]},{"mesh":6,"name":"r_gear_AN_69","children":[21]},{"translation":[0.25667300820350649,0.0009679999784566462,-0.8845000267028808],"rotation":[0.0,0.0,0.0,1.0],"scale":[1.0,1.0,1.0],"name":"node_70","children":[22]},{"name":"node_71","children":[23]},{"mesh":7,"name":"r_tire_blurred_key_AN_71"},{"translation":[1.0355050563812256,-0.10733100026845932,-1.113860011100769],"rotation":[0.0,0.0,0.0,1.0],"scale":[1.0,1.0,1.0],"name":"node_82","children":[25]},{"name":"r_gear_AN_82","children":[26,27]},{"translation":[0.0963739976286888,0.0918089970946312,-0.3301509916782379],"rotation":[0.0,0.0,1.0,-6.123031769111886e-17],"scale":[1.0,1.0,1.0],"name":"Right_Taxi"},{"translation":[0.0963739976286888,0.0918089970946312,-0.3301509916782379],"rotation":[0.0,0.0,1.0,-6.123031769111886e-17],"scale":[1.0,1.0,1.0],"name":"Right_Landing"},{"translation":[-0.44562399387359616,-0.7494069933891296,0.3630419969558716],"rotation":[0.0,0.0,0.0,1.0],"scale":[1.0,1.0,1.0],"name":"node_104","children":[29,34]},{"translation":[-0.8974149823188783,-0.09240099787712096,-1.1149909496307374],"rotation":[0.0,0.0,0.0,1.0],"scale":[1.0,1.0,1.0],"name":"node_105","children":[30]},{"mesh":8,"name":"l_gear_AN_105","children":[31]},{"translation":[-0.882398009300232,-0.2512899935245514,0.0009679999784566462],"rotation":[0.0,0.0,0.0,1.0],"scale":[1.0,1.0,1.0],"name":"node_106","children":[32]},{"name":"node_107","children":[33]},{"mesh":9,"name":"l_tire_blurred_key_AN_107"},{"translation":[-0.8974149823188783,-0.09240099787712096,-1.1149909496307374],"rotation":[0.0,0.0,0.0,1.0],"scale":[1.0,1.0,1.0],"name":"node_123","children":[35]},{"name":"l_gear_AN_123","children":[36,37]},{"translation":[-0.3272790014743805,-0.0898210033774376,0.09181000292301178],"rotation":[0.7071067811865475,-1.5307579422779717e-17,-1.5307579422779717e-17,-0.7071067811865475],"scale":[1.0,1.0,1.0],"name":"Left_Taxi"},{"translation":[-0.3272790014743805,-0.0898210033774376,0.09181000292301178],"rotation":[0.7071067811865475,-1.5307579422779717e-17,-1.5307579422779717e-17,-0.7071067811865475],"scale":[1.0,1.0,1.0],"name":"Left_Landing"}],"scene":0,"scenes":[{"nodes":[0]}],"textures":[{"extensions":{"MSFT_texture_dds":{"source":0}}},{"extensions":{"MSFT_texture_dds":{"source":1}}}],"extensionsUsed":["ASOBO_material_day_night_switch","MSFT_texture_dds","ASOBO_asset_optimized"],"buffers":[{"byteLength":23376,"uri":"JBAI Learjet 60 MSFS_LOD5.bin"}],"images":[{"uri":"JBS_LJ60_T.PNG.DDS","extras":"ASOBO_image_converted_meta"},{"uri":"JBS_LJ60_L.PNG.DDS","extras":"ASOBO_image_converted_meta"}]}
