{"accessors":[{"bufferView":0,"componentType":5126,"count":5,"min":[0.0],"max":[100.0],"type":"SCALAR"},{"bufferView":2,"componentType":5126,"count":5,"type":"VEC4"},{"bufferView":0,"byteOffset":20,"componentType":5126,"count":5,"min":[0.0],"max":[100.0],"type":"SCALAR"},{"bufferView":2,"byteOffset":80,"componentType":5126,"count":5,"type":"VEC4"},{"bufferView":0,"byteOffset":40,"componentType":5126,"count":5,"min":[0.0],"max":[100.0],"type":"SCALAR"},{"bufferView":2,"byteOffset":160,"componentType":5126,"count":5,"type":"VEC4"},{"bufferView":0,"byteOffset":60,"componentType":5126,"count":5,"min":[0.0],"max":[100.0],"type":"SCALAR"},{"bufferView":2,"byteOffset":240,"componentType":5126,"count":5,"type":"VEC4"},{"bufferView":0,"byteOffset":80,"componentType":5126,"count":5,"min":[0.0],"max":[100.0],"type":"SCALAR"},{"bufferView":2,"byteOffset":320,"componentType":5126,"count":5,"type":"VEC4"},{"bufferView":0,"byteOffset":100,"componentType":5126,"count":5,"min":[0.0],"max":[100.0],"type":"SCALAR"},{"bufferView":2,"byteOffset":400,"componentType":5126,"count":5,"type":"VEC4"},{"bufferView":0,"byteOffset":120,"componentType":5126,"count":5,"min":[0.0],"max":[100.0],"type":"SCALAR"},{"bufferView":2,"byteOffset":480,"componentType":5126,"count":5,"type":"VEC4"},{"bufferView":0,"byteOffset":140,"componentType":5126,"count":5,"min":[0.0],"max":[100.0],"type":"SCALAR"},{"bufferView":2,"byteOffset":560,"componentType":5126,"count":5,"type":"VEC4"},{"bufferView":0,"byteOffset":160,"componentType":5126,"count":5,"min":[0.0],"max":[100.0],"type":"SCALAR"},{"bufferView":2,"byteOffset":640,"componentType":5126,"count":5,"type":"VEC4"},{"bufferView":0,"byteOffset":180,"componentType":5126,"count":2,"min":[0.0],"max":[100.0],"type":"SCALAR"},{"bufferView":1,"componentType":5126,"count":2,"type":"VEC3"},{"bufferView":0,"byteOffset":188,"componentType":5126,"count":2,"min":[0.0],"max":[100.0],"type":"SCALAR"},{"bufferView":2,"byteOffset":720,"componentType":5126,"count":2,"type":"VEC4"},{"bufferView":0,"byteOffset":196,"componentType":5126,"count":2,"min":[0.0],"max":[100.0],"type":"SCALAR"},{"bufferView":1,"byteOffset":24,"componentType":5126,"count":2,"type":"VEC3"},{"bufferView":0,"byteOffset":204,"componentType":5126,"count":2,"min":[0.0],"max":[100.0],"type":"SCALAR"},{"bufferView":2,"byteOffset":752,"componentType":5126,"count":2,"type":"VEC4"},{"bufferView":3,"componentType":5126,"count":492,"min":[-5.483610153198242,-1.0097399950027466,-6.120910167694092],"max":[5.483610153198242,1.504699945449829,2.306879997253418],"type":"VEC3","name":"part000_vertices#0_POSITION"},{"bufferView":3,"byteOffset":12,"componentType":5120,"count":492,"type":"VEC4","name":"part000_vertices#0_TANGENT"},{"bufferView":3,"byteOffset":16,"componentType":5120,"count":492,"type":"VEC4","name":"part000_vertices#0_NORMAL"},{"bufferView":3,"byteOffset":20,"componentType":5122,"count":492,"type":"VEC2","name":"part000_vertices#0_TEXCOORD_0"},{"bufferView":3,"byteOffset":24,"componentType":5122,"count":492,"type":"VEC2","name":"part000_vertices#0_TEXCOORD_1"},{"bufferView":3,"byteOffset":28,"componentType":5123,"count":492,"type":"VEC4","name":"part000_vertices#0_COLOR_0"},{"bufferView":4,"componentType":5123,"count":1611,"type":"SCALAR","name":"part000_indices#0"},{"bufferView":3,"byteOffset":17712,"componentType":5126,"count":34,"min":[-1.1423900127410889,0.0,-1.1423900127410889],"max":[1.1423900127410889,0.0,1.1423900127410889],"type":"VEC3","name":"part001_vertices#0_POSITION"},{"bufferView":3,"byteOffset":17724,"componentType":5120,"count":34,"type":"VEC4","name":"part001_vertices#0_TANGENT"},{"bufferView":3,"byteOffset":17728,"componentType":5120,"count":34,"type":"VEC4","name":"part001_vertices#0_NORMAL"},{"bufferView":3,"byteOffset":17732,"componentType":5122,"count":34,"type":"VEC2","name":"part001_vertices#0_TEXCOORD_0"},{"bufferView":3,"byteOffset":17736,"componentType":5122,"count":34,"type":"VEC2","name":"part001_vertices#0_TEXCOORD_1"},{"bufferView":3,"byteOffset":17740,"componentType":5123,"count":34,"type":"VEC4","name":"part001_vertices#0_COLOR_0"},{"bufferView":4,"byteOffset":3222,"componentType":5123,"count":96,"type":"SCALAR","name":"part001_indices#0"},{"bufferView":3,"byteOffset":18936,"componentType":5126,"count":34,"min":[-1.1423900127410889,0.0,-1.1423900127410889],"max":[1.1423900127410889,0.0,1.1423900127410889],"type":"VEC3","name":"part002_vertices#0_POSITION"},{"bufferView":3,"byteOffset":18948,"componentType":5120,"count":34,"type":"VEC4","name":"part002_vertices#0_TANGENT"},{"bufferView":3,"byteOffset":18952,"componentType":5120,"count":34,"type":"VEC4","name":"part002_vertices#0_NORMAL"},{"bufferView":3,"byteOffset":18956,"componentType":5122,"count":34,"type":"VEC2","name":"part002_vertices#0_TEXCOORD_0"},{"bufferView":3,"byteOffset":18960,"componentType":5122,"count":34,"type":"VEC2","name":"part002_vertices#0_TEXCOORD_1"},{"bufferView":3,"byteOffset":18964,"componentType":5123,"count":34,"type":"VEC4","name":"part002_vertices#0_COLOR_0"},{"bufferView":4,"byteOffset":3414,"componentType":5123,"count":96,"type":"SCALAR","name":"part002_indices#0"},{"bufferView":3,"byteOffset":20160,"componentType":5126,"count":20,"min":[-0.050050001591444018,-0.1725199967622757,-0.1815200001001358],"max":[0.050050001591444018,0.17256000638008119,0.18131999671459199],"type":"VEC3","name":"part003_vertices#0_POSITION"},{"bufferView":3,"byteOffset":20172,"componentType":5120,"count":20,"type":"VEC4","name":"part003_vertices#0_TANGENT"},{"bufferView":3,"byteOffset":20176,"componentType":5120,"count":20,"type":"VEC4","name":"part003_vertices#0_NORMAL"},{"bufferView":3,"byteOffset":20180,"componentType":5122,"count":20,"type":"VEC2","name":"part003_vertices#0_TEXCOORD_0"},{"bufferView":3,"byteOffset":20184,"componentType":5122,"count":20,"type":"VEC2","name":"part003_vertices#0_TEXCOORD_1"},{"bufferView":3,"byteOffset":20188,"componentType":5123,"count":20,"type":"VEC4","name":"part003_vertices#0_COLOR_0"},{"bufferView":4,"byteOffset":3606,"componentType":5123,"count":48,"type":"SCALAR","name":"part003_indices#0"},{"bufferView":3,"byteOffset":20880,"componentType":5126,"count":20,"min":[-0.050050001591444018,-0.1725199967622757,-0.1815200001001358],"max":[0.050050001591444018,0.17256000638008119,0.18131999671459199],"type":"VEC3","name":"part004_vertices#0_POSITION"},{"bufferView":3,"byteOffset":20892,"componentType":5120,"count":20,"type":"VEC4","name":"part004_vertices#0_TANGENT"},{"bufferView":3,"byteOffset":20896,"componentType":5120,"count":20,"type":"VEC4","name":"part004_vertices#0_NORMAL"},{"bufferView":3,"byteOffset":20900,"componentType":5122,"count":20,"type":"VEC2","name":"part004_vertices#0_TEXCOORD_0"},{"bufferView":3,"byteOffset":20904,"componentType":5122,"count":20,"type":"VEC2","name":"part004_vertices#0_TEXCOORD_1"},{"bufferView":3,"byteOffset":20908,"componentType":5123,"count":20,"type":"VEC4","name":"part004_vertices#0_COLOR_0"},{"bufferView":4,"byteOffset":3702,"componentType":5123,"count":60,"type":"SCALAR","name":"part004_indices#0"},{"bufferView":3,"byteOffset":21600,"componentType":5126,"count":20,"min":[-0.06763000041246414,-0.2047100067138672,-0.21548999845981599],"max":[0.06763000041246414,0.20487000048160554,0.2151699960231781],"type":"VEC3","name":"part005_vertices#0_POSITION"},{"bufferView":3,"byteOffset":21612,"componentType":5120,"count":20,"type":"VEC4","name":"part005_vertices#0_TANGENT"},{"bufferView":3,"byteOffset":21616,"componentType":5120,"count":20,"type":"VEC4","name":"part005_vertices#0_NORMAL"},{"bufferView":3,"byteOffset":21620,"componentType":5122,"count":20,"type":"VEC2","name":"part005_vertices#0_TEXCOORD_0"},{"bufferView":3,"byteOffset":21624,"componentType":5122,"count":20,"type":"VEC2","name":"part005_vertices#0_TEXCOORD_1"},{"bufferView":3,"byteOffset":21628,"componentType":5123,"count":20,"type":"VEC4","name":"part005_vertices#0_COLOR_0"},{"bufferView":4,"byteOffset":3822,"componentType":5123,"count":48,"type":"SCALAR","name":"part005_indices#0"},{"bufferView":3,"byteOffset":22320,"componentType":5126,"count":20,"min":[-0.06763000041246414,-0.2047100067138672,-0.21548999845981599],"max":[0.06763000041246414,0.20487000048160554,0.2151699960231781],"type":"VEC3","name":"part006_vertices#0_POSITION"},{"bufferView":3,"byteOffset":22332,"componentType":5120,"count":20,"type":"VEC4","name":"part006_vertices#0_TANGENT"},{"bufferView":3,"byteOffset":22336,"componentType":5120,"count":20,"type":"VEC4","name":"part006_vertices#0_NORMAL"},{"bufferView":3,"byteOffset":22340,"componentType":5122,"count":20,"type":"VEC2","name":"part006_vertices#0_TEXCOORD_0"},{"bufferView":3,"byteOffset":22344,"componentType":5122,"count":20,"type":"VEC2","name":"part006_vertices#0_TEXCOORD_1"},{"bufferView":3,"byteOffset":22348,"componentType":5123,"count":20,"type":"VEC4","name":"part006_vertices#0_COLOR_0"},{"bufferView":4,"byteOffset":3918,"componentType":5123,"count":60,"type":"SCALAR","name":"part006_indices#0"},{"bufferView":3,"byteOffset":23040,"componentType":5126,"count":20,"min":[-0.06763000041246414,-0.20476000010967256,-0.21539999544620515],"max":[0.06763000041246414,0.20483000576496125,0.21526999771595],"type":"VEC3","name":"part007_vertices#0_POSITION"},{"bufferView":3,"byteOffset":23052,"componentType":5120,"count":20,"type":"VEC4","name":"part007_vertices#0_TANGENT"},{"bufferView":3,"byteOffset":23056,"componentType":5120,"count":20,"type":"VEC4","name":"part007_vertices#0_NORMAL"},{"bufferView":3,"byteOffset":23060,"componentType":5122,"count":20,"type":"VEC2","name":"part007_vertices#0_TEXCOORD_0"},{"bufferView":3,"byteOffset":23064,"componentType":5122,"count":20,"type":"VEC2","name":"part007_vertices#0_TEXCOORD_1"},{"bufferView":3,"byteOffset":23068,"componentType":5123,"count":20,"type":"VEC4","name":"part007_vertices#0_COLOR_0"},{"bufferView":4,"byteOffset":4038,"componentType":5123,"count":48,"type":"SCALAR","name":"part007_indices#0"},{"bufferView":3,"byteOffset":23760,"componentType":5126,"count":20,"min":[-0.06763000041246414,-0.20476000010967256,-0.21539999544620515],"max":[0.06763000041246414,0.20483000576496125,0.21526999771595],"type":"VEC3","name":"part008_vertices#0_POSITION"},{"bufferView":3,"byteOffset":23772,"componentType":5120,"count":20,"type":"VEC4","name":"part008_vertices#0_TANGENT"},{"bufferView":3,"byteOffset":23776,"componentType":5120,"count":20,"type":"VEC4","name":"part008_vertices#0_NORMAL"},{"bufferView":3,"byteOffset":23780,"componentType":5122,"count":20,"type":"VEC2","name":"part008_vertices#0_TEXCOORD_0"},{"bufferView":3,"byteOffset":23784,"componentType":5122,"count":20,"type":"VEC2","name":"part008_vertices#0_TEXCOORD_1"},{"bufferView":3,"byteOffset":23788,"componentType":5123,"count":20,"type":"VEC4","name":"part008_vertices#0_COLOR_0"},{"bufferView":4,"byteOffset":4134,"componentType":5123,"count":60,"type":"SCALAR","name":"part008_indices#0"},{"bufferView":3,"byteOffset":24480,"componentType":5126,"count":42,"min":[-1.0045299530029297,-0.023159999400377275,-1.139739990234375],"max":[1.003000020980835,0.023469999432563783,0.6002399921417236],"type":"VEC3","name":"part009_vertices#0_POSITION"},{"bufferView":3,"byteOffset":24492,"componentType":5120,"count":42,"type":"VEC4","name":"part009_vertices#0_TANGENT"},{"bufferView":3,"byteOffset":24496,"componentType":5120,"count":42,"type":"VEC4","name":"part009_vertices#0_NORMAL"},{"bufferView":3,"byteOffset":24500,"componentType":5122,"count":42,"type":"VEC2","name":"part009_vertices#0_TEXCOORD_0"},{"bufferView":3,"byteOffset":24504,"componentType":5122,"count":42,"type":"VEC2","name":"part009_vertices#0_TEXCOORD_1"},{"bufferView":3,"byteOffset":24508,"componentType":5123,"count":42,"type":"VEC4","name":"part009_vertices#0_COLOR_0"},{"bufferView":4,"byteOffset":4254,"componentType":5123,"count":90,"type":"SCALAR","name":"part009_indices#0"},{"bufferView":3,"byteOffset":25992,"componentType":5126,"count":18,"min":[-1.7899800539016724,-0.2273699939250946,-0.10180000215768814],"max":[0.9935799837112427,0.292279988527298,0.1063700020313263],"type":"VEC3","name":"part010_vertices#0_POSITION"},{"bufferView":3,"byteOffset":26004,"componentType":5120,"count":18,"type":"VEC4","name":"part010_vertices#0_TANGENT"},{"bufferView":3,"byteOffset":26008,"componentType":5120,"count":18,"type":"VEC4","name":"part010_vertices#0_NORMAL"},{"bufferView":3,"byteOffset":26012,"componentType":5122,"count":18,"type":"VEC2","name":"part010_vertices#0_TEXCOORD_0"},{"bufferView":3,"byteOffset":26016,"componentType":5122,"count":18,"type":"VEC2","name":"part010_vertices#0_TEXCOORD_1"},{"bufferView":3,"byteOffset":26020,"componentType":5123,"count":18,"type":"VEC4","name":"part010_vertices#0_COLOR_0"},{"bufferView":4,"byteOffset":4434,"componentType":5123,"count":48,"type":"SCALAR","name":"part010_indices#0"},{"bufferView":3,"byteOffset":26640,"componentType":5126,"count":18,"min":[-0.9935799837112427,-0.2273699939250946,-0.10180000215768814],"max":[1.7899800539016724,0.292279988527298,0.1063700020313263],"type":"VEC3","name":"part011_vertices#0_POSITION"},{"bufferView":3,"byteOffset":26652,"componentType":5120,"count":18,"type":"VEC4","name":"part011_vertices#0_TANGENT"},{"bufferView":3,"byteOffset":26656,"componentType":5120,"count":18,"type":"VEC4","name":"part011_vertices#0_NORMAL"},{"bufferView":3,"byteOffset":26660,"componentType":5122,"count":18,"type":"VEC2","name":"part011_vertices#0_TEXCOORD_0"},{"bufferView":3,"byteOffset":26664,"componentType":5122,"count":18,"type":"VEC2","name":"part011_vertices#0_TEXCOORD_1"},{"bufferView":3,"byteOffset":26668,"componentType":5123,"count":18,"type":"VEC4","name":"part011_vertices#0_COLOR_0"},{"bufferView":4,"byteOffset":4530,"componentType":5123,"count":48,"type":"SCALAR","name":"part011_indices#0"}],"animations":[{"name":"engine0","channels":[{"sampler":0,"target":{"node":11,"path":"rotation"}},{"sampler":1,"target":{"node":13,"path":"rotation"}},{"sampler":2,"target":{"node":31,"path":"rotation"}}],"samplers":[{"input":0,"output":1,"interpolation":"LINEAR"},{"input":2,"output":3,"interpolation":"LINEAR"},{"input":16,"output":17,"interpolation":"LINEAR"}]},{"name":"c_tire_blurred_key","channels":[{"sampler":0,"target":{"node":16,"path":"rotation"}},{"sampler":1,"target":{"node":18,"path":"rotation"}}],"samplers":[{"input":4,"output":5,"interpolation":"LINEAR"},{"input":6,"output":7,"interpolation":"LINEAR"}]},{"name":"l_tire_blurred_key","channels":[{"sampler":0,"target":{"node":21,"path":"rotation"}},{"sampler":1,"target":{"node":23,"path":"rotation"}}],"samplers":[{"input":8,"output":9,"interpolation":"LINEAR"},{"input":10,"output":11,"interpolation":"LINEAR"}]},{"name":"r_tire_blurred_key","channels":[{"sampler":0,"target":{"node":26,"path":"rotation"}},{"sampler":1,"target":{"node":28,"path":"rotation"}}],"samplers":[{"input":12,"output":13,"interpolation":"LINEAR"},{"input":14,"output":15,"interpolation":"LINEAR"}]},{"name":"custom_anim_FLAPS_SML_GA","channels":[{"sampler":0,"target":{"node":33,"path":"translation"}},{"sampler":1,"target":{"node":35,"path":"rotation"}},{"sampler":2,"target":{"node":37,"path":"translation"}},{"sampler":3,"target":{"node":39,"path":"rotation"}}],"samplers":[{"input":18,"output":19,"interpolation":"LINEAR"},{"input":20,"output":21,"interpolation":"LINEAR"},{"input":22,"output":23,"interpolation":"LINEAR"},{"input":24,"output":25,"interpolation":"LINEAR"}]}],"asset":{"generator":"ModelConverterX","version":"2.0","extensions":{"ASOBO_asset_optimized":{"BoundingBoxMax":[5.483610153198242,1.504699945449829,2.306879997253418],"BoundingBoxMin":[-5.483610153198242,-1.0097399950027466,-6.120910167694092],"MajorVersion":4,"MinorVersion":4,"UseCheckerboardMaterialForMissingTextures":true,"UseOnlyFilenameForImageURI":true}}},"bufferViews":[{"buffer":0,"byteLength":212,"byteStride":4},{"buffer":0,"byteLength":48,"byteStride":12,"byteOffset":212},{"buffer":0,"byteLength":784,"byteStride":16,"byteOffset":260},{"buffer":0,"byteLength":27288,"byteStride":36,"byteOffset":1044,"target":34962,"name":"BufferViewVertexND"},{"buffer":0,"byteLength":4626,"byteOffset":28332,"target":34963,"name":"BufferViewIndex"}],"extensionsRequired":["MSFT_texture_dds"],"materials":[{"name":"material00","pbrMetallicRoughness":{"baseColorFactor":[0.03921600058674812,0.03921600058674812,0.03921600058674812,1.0],"metallicFactor":0.0}},{"name":"material01","occlusionTexture":{"index":1},"pbrMetallicRoughness":{"baseColorTexture":{"index":0},"metallicRoughnessTexture":{"index":1}}},{"name":"material02","alphaMode":"BLEND","pbrMetallicRoughness":{"baseColorFactor":[0.0,0.0,0.0,1.0],"metallicFactor":0.0,"baseColorTexture":{"index":2}}}],"meshes":[{"primitives":[{"attributes":{"COLOR_0":31,"NORMAL":28,"POSITION":26,"TANGENT":27,"TEXCOORD_0":29,"TEXCOORD_1":30},"indices":32,"material":1,"mode":4,"extras":{"ASOBO_primitive":{"PrimitiveCount":537,"VertexType":"VTX","VertexVersion":2}}}],"name":"part000"},{"primitives":[{"attributes":{"COLOR_0":38,"NORMAL":35,"POSITION":33,"TANGENT":34,"TEXCOORD_0":36,"TEXCOORD_1":37},"indices":39,"material":2,"mode":4,"extras":{"ASOBO_primitive":{"PrimitiveCount":32,"VertexType":"VTX","VertexVersion":2}}}],"name":"part001"},{"primitives":[{"attributes":{"COLOR_0":45,"NORMAL":42,"POSITION":40,"TANGENT":41,"TEXCOORD_0":43,"TEXCOORD_1":44},"indices":46,"material":2,"mode":4,"extras":{"ASOBO_primitive":{"PrimitiveCount":32,"VertexType":"VTX","VertexVersion":2}}}],"name":"part002"},{"primitives":[{"attributes":{"COLOR_0":52,"NORMAL":49,"POSITION":47,"TANGENT":48,"TEXCOORD_0":50,"TEXCOORD_1":51},"indices":53,"material":1,"mode":4,"extras":{"ASOBO_primitive":{"PrimitiveCount":16,"VertexType":"VTX","VertexVersion":2}}}],"name":"part003"},{"primitives":[{"attributes":{"COLOR_0":59,"NORMAL":56,"POSITION":54,"TANGENT":55,"TEXCOORD_0":57,"TEXCOORD_1":58},"indices":60,"material":0,"mode":4,"extras":{"ASOBO_primitive":{"PrimitiveCount":20,"VertexType":"VTX","VertexVersion":2}}}],"name":"part004"},{"primitives":[{"attributes":{"COLOR_0":66,"NORMAL":63,"POSITION":61,"TANGENT":62,"TEXCOORD_0":64,"TEXCOORD_1":65},"indices":67,"material":1,"mode":4,"extras":{"ASOBO_primitive":{"PrimitiveCount":16,"VertexType":"VTX","VertexVersion":2}}}],"name":"part005"},{"primitives":[{"attributes":{"COLOR_0":73,"NORMAL":70,"POSITION":68,"TANGENT":69,"TEXCOORD_0":71,"TEXCOORD_1":72},"indices":74,"material":0,"mode":4,"extras":{"ASOBO_primitive":{"PrimitiveCount":20,"VertexType":"VTX","VertexVersion":2}}}],"name":"part006"},{"primitives":[{"attributes":{"COLOR_0":80,"NORMAL":77,"POSITION":75,"TANGENT":76,"TEXCOORD_0":78,"TEXCOORD_1":79},"indices":81,"material":1,"mode":4,"extras":{"ASOBO_primitive":{"PrimitiveCount":16,"VertexType":"VTX","VertexVersion":2}}}],"name":"part007"},{"primitives":[{"attributes":{"COLOR_0":87,"NORMAL":84,"POSITION":82,"TANGENT":83,"TEXCOORD_0":85,"TEXCOORD_1":86},"indices":88,"material":0,"mode":4,"extras":{"ASOBO_primitive":{"PrimitiveCount":20,"VertexType":"VTX","VertexVersion":2}}}],"name":"part008"},{"primitives":[{"attributes":{"COLOR_0":94,"NORMAL":91,"POSITION":89,"TANGENT":90,"TEXCOORD_0":92,"TEXCOORD_1":93},"indices":95,"material":1,"mode":4,"extras":{"ASOBO_primitive":{"PrimitiveCount":30,"VertexType":"VTX","VertexVersion":2}}}],"name":"part009"},{"primitives":[{"attributes":{"COLOR_0":101,"NORMAL":98,"POSITION":96,"TANGENT":97,"TEXCOORD_0":99,"TEXCOORD_1":100},"indices":102,"material":1,"mode":4,"extras":{"ASOBO_primitive":{"PrimitiveCount":16,"VertexType":"VTX","VertexVersion":2}}}],"name":"part010"},{"primitives":[{"attributes":{"COLOR_0":108,"NORMAL":105,"POSITION":103,"TANGENT":104,"TEXCOORD_0":106,"TEXCOORD_1":107},"indices":109,"material":1,"mode":4,"extras":{"ASOBO_primitive":{"PrimitiveCount":16,"VertexType":"VTX","VertexVersion":2}}}],"name":"part011"}],"nodes":[{"name":"node_0","children":[1,2,3,4,5,6,7,8]},{"mesh":0,"name":"node_7"},{"translation":[-1.2799999713897706,-1.0800000429153443,-0.5000000000000001],"rotation":[-6.123031769111886e-17,0.0,1.0,0.0],"scale":[1.0,1.0,1.0],"name":"r_tire1"},{"translation":[1.2799999713897706,-1.0800000429153443,-0.49999999999999986],"rotation":[-6.123031769111886e-17,0.0,1.0,0.0],"scale":[1.0,1.0,1.0],"name":"l_tire1"},{"translation":[-1.4695276829806339e-16,-1.100000023841858,1.2000000476837159],"rotation":[-6.123031769111886e-17,0.0,1.0,0.0],"scale":[1.0,1.0,1.0],"name":"c_tire1"},{"translation":[2.8299999237060549,0.8299999833106996,0.34999999403953588],"rotation":[-0.6626201707486727,-4.585879008263515e-17,-4.057244356348466e-17,0.7489556123810006],"scale":[1.0,1.0,1.0],"name":"Taxi_Light"},{"translation":[2.9800000190734865,0.8299999833106996,0.3400000035762791],"rotation":[-0.7071067811865475,-4.329637285359677e-17,-4.329637285359677e-17,0.7071067811865475],"scale":[1.0,1.0,1.0],"name":"Landing_Light"},{"translation":[7.347638122934264e-16,0.0,-6.0],"rotation":[-6.123031769111886e-17,0.0,1.0,0.0],"scale":[1.0,1.0,1.0],"name":"contrail1"},{"translation":[0.0,0.0,0.0],"rotation":[-4.329637285359677e-17,0.7071067811865475,0.7071067811865475,4.329637285359677e-17],"scale":[1.0,1.0,1.0],"name":"node_24","children":[9,14,19,24,29,32,36]},{"translation":[0.0,2.0237419605255129,0.17128700017929078],"rotation":[0.0,0.0,0.0,1.0],"scale":[1.0,1.0,1.0],"name":"node_25","children":[10,12]},{"name":"prop0_slow_VC","children":[11]},{"mesh":1,"name":"engine0_AN_VC"},{"name":"prop0_blurred_VC","children":[13]},{"mesh":2,"name":"ENGINE0_AN_VC_1"},{"translation":[0.0,1.256919026374817,-0.9359470009803772],"rotation":[0.0,0.0,0.0,1.0],"scale":[1.0,1.0,1.0],"name":"node_32","children":[15,17]},{"name":"node_35","children":[16]},{"mesh":3,"name":"c_tire_blurred_key_AN_35"},{"name":"node_36","children":[18]},{"mesh":4,"name":"c_tire_blurred_key_AN_36"},{"translation":[-1.2712390422821046,-0.44655001163482668,-0.8785880208015442],"rotation":[0.0,0.0,0.0,1.0],"scale":[1.0,1.0,1.0],"name":"node_39","children":[20,22]},{"name":"node_42","children":[21]},{"mesh":5,"name":"l_tire_blurred_key_AN_42"},{"name":"node_43","children":[23]},{"mesh":6,"name":"l_tire_blurred_key_AN_43"},{"translation":[1.2712390422821046,-0.44650301337242129,-0.878682017326355],"rotation":[0.0,0.0,0.0,1.0],"scale":[1.0,1.0,1.0],"name":"node_46","children":[25,27]},{"name":"node_49","children":[26]},{"mesh":7,"name":"r_tire_blurred_key_AN_49"},{"name":"node_50","children":[28]},{"mesh":8,"name":"r_tire_blurred_key_AN_50"},{"translation":[0.0,2.0231330394744875,0.17037199437618257],"rotation":[0.0,0.0,0.0,1.0],"scale":[1.0,1.0,1.0],"name":"node_53","children":[30]},{"name":"prop0_still_VC","children":[31]},{"mesh":9,"name":"ENGINE0_AN_VC_2"},{"translation":[-1.5796769857406617,-1.001204013824463,0.7141010165214539],"rotation":[0.0,0.0,0.0,1.0],"scale":[1.0,1.0,1.0],"name":"node_67","children":[33]},{"name":"custom_anim_FLAPS_SML_GA_AN_67","children":[34]},{"name":"node_68","children":[35]},{"mesh":10,"name":"custom_anim_FLAPS_SML_GA_AN_68"},{"translation":[1.5796769857406617,-1.001204013824463,0.7141010165214539],"rotation":[0.0,0.0,0.0,1.0],"scale":[1.0,1.0,1.0],"name":"node_73","children":[37]},{"name":"custom_anim_FLAPS_SML_GA_AN_73","children":[38]},{"name":"node_74","children":[39]},{"mesh":11,"name":"custom_anim_FLAPS_SML_GA_AN_74"}],"scene":0,"scenes":[{"nodes":[0]}],"textures":[{"extensions":{"MSFT_texture_dds":{"source":0}}},{"extensions":{"MSFT_texture_dds":{"source":1}}},{"extensions":{"MSFT_texture_dds":{"source":2}}}],"extensionsUsed":["MSFT_texture_dds","ASOBO_asset_optimized"],"buffers":[{"byteLength":32958,"uri":"HTAI Cessna 206 Stationair Late WP MSFS_LOD2.bin"}],"images":[{"uri":"HTAI_C206.PNG.DDS","extras":"ASOBO_image_converted_meta"},{"uri":"HTAI_C206_C.PNG.DDS","extras":"ASOBO_image_converted_meta"},{"uri":"PROP-HS.PNG.DDS","extras":"ASOBO_image_converted_meta"}]}
