{"accessors":[{"bufferView":0,"componentType":5126,"count":2,"min":[0.0],"max":[100.0],"type":"SCALAR"},{"bufferView":1,"componentType":5126,"count":2,"type":"VEC4"},{"bufferView":0,"byteOffset":8,"componentType":5126,"count":2,"min":[0.0],"max":[100.0],"type":"SCALAR"},{"bufferView":1,"byteOffset":32,"componentType":5126,"count":2,"type":"VEC4"},{"bufferView":0,"byteOffset":16,"componentType":5126,"count":4,"min":[0.0],"max":[100.0],"type":"SCALAR"},{"bufferView":1,"byteOffset":64,"componentType":5126,"count":4,"type":"VEC4"},{"bufferView":0,"byteOffset":32,"componentType":5126,"count":4,"min":[0.0],"max":[100.0],"type":"SCALAR"},{"bufferView":1,"byteOffset":128,"componentType":5126,"count":4,"type":"VEC4"},{"bufferView":0,"byteOffset":48,"componentType":5126,"count":2,"min":[0.0],"max":[100.0],"type":"SCALAR"},{"bufferView":1,"byteOffset":192,"componentType":5126,"count":2,"type":"VEC4"},{"bufferView":0,"byteOffset":56,"componentType":5126,"count":2,"min":[0.0],"max":[100.0],"type":"SCALAR"},{"bufferView":1,"byteOffset":224,"componentType":5126,"count":2,"type":"VEC4"},{"bufferView":0,"byteOffset":64,"componentType":5126,"count":2,"min":[0.0],"max":[100.0],"type":"SCALAR"},{"bufferView":1,"byteOffset":256,"componentType":5126,"count":2,"type":"VEC4"},{"bufferView":0,"byteOffset":72,"componentType":5126,"count":4,"min":[0.0],"max":[200.0],"type":"SCALAR"},{"bufferView":1,"byteOffset":288,"componentType":5126,"count":4,"type":"VEC4"},{"bufferView":0,"byteOffset":88,"componentType":5126,"count":4,"min":[0.0],"max":[200.0],"type":"SCALAR"},{"bufferView":1,"byteOffset":352,"componentType":5126,"count":4,"type":"VEC4"},{"bufferView":2,"componentType":5126,"count":24,"min":[-1.6844300031661988,-0.5624799728393555,-4.396780014038086],"max":[1.6844300031661988,0.4873499870300293,-1.6353299617767335],"type":"VEC3","name":"part000_vertices#0_POSITION"},{"bufferView":2,"byteOffset":12,"componentType":5120,"count":24,"type":"VEC4","name":"part000_vertices#0_TANGENT"},{"bufferView":2,"byteOffset":16,"componentType":5120,"count":24,"type":"VEC4","name":"part000_vertices#0_NORMAL"},{"bufferView":2,"byteOffset":20,"componentType":5122,"count":24,"type":"VEC2","name":"part000_vertices#0_TEXCOORD_0"},{"bufferView":2,"byteOffset":24,"componentType":5122,"count":24,"type":"VEC2","name":"part000_vertices#0_TEXCOORD_1"},{"bufferView":2,"byteOffset":28,"componentType":5123,"count":24,"type":"VEC4","name":"part000_vertices#0_COLOR_0"},{"bufferView":3,"componentType":5123,"count":36,"type":"SCALAR","name":"part000_indices#0"},{"bufferView":2,"byteOffset":864,"componentType":5126,"count":4,"min":[-0.012799999676644802,2.218640089035034,-7.819029808044434],"max":[0.012799999676644802,2.2442400455474855,-7.819029808044434],"type":"VEC3","name":"part001_vertices#0_POSITION"},{"bufferView":2,"byteOffset":876,"componentType":5120,"count":4,"type":"VEC4","name":"part001_vertices#0_TANGENT"},{"bufferView":2,"byteOffset":880,"componentType":5120,"count":4,"type":"VEC4","name":"part001_vertices#0_NORMAL"},{"bufferView":2,"byteOffset":884,"componentType":5122,"count":4,"type":"VEC2","name":"part001_vertices#0_TEXCOORD_0"},{"bufferView":2,"byteOffset":888,"componentType":5122,"count":4,"type":"VEC2","name":"part001_vertices#0_TEXCOORD_1"},{"bufferView":2,"byteOffset":892,"componentType":5123,"count":4,"type":"VEC4","name":"part001_vertices#0_COLOR_0"},{"bufferView":3,"byteOffset":72,"componentType":5123,"count":6,"type":"SCALAR","name":"part001_indices#0"},{"bufferView":2,"byteOffset":1008,"componentType":5126,"count":292,"min":[-7.051630020141602,-1.2128000259399415,-7.8307600021362309],"max":[7.051630020141602,3.1304500102996828,7.718540191650391],"type":"VEC3","name":"part002_vertices#0_POSITION"},{"bufferView":2,"byteOffset":1020,"componentType":5120,"count":292,"type":"VEC4","name":"part002_vertices#0_TANGENT"},{"bufferView":2,"byteOffset":1024,"componentType":5120,"count":292,"type":"VEC4","name":"part002_vertices#0_NORMAL"},{"bufferView":2,"byteOffset":1028,"componentType":5122,"count":292,"type":"VEC2","name":"part002_vertices#0_TEXCOORD_0"},{"bufferView":2,"byteOffset":1032,"componentType":5122,"count":292,"type":"VEC2","name":"part002_vertices#0_TEXCOORD_1"},{"bufferView":2,"byteOffset":1036,"componentType":5123,"count":292,"type":"VEC4","name":"part002_vertices#0_COLOR_0"},{"bufferView":3,"byteOffset":84,"componentType":5123,"count":774,"type":"SCALAR","name":"part002_indices#0"},{"bufferView":2,"byteOffset":11520,"componentType":5126,"count":40,"min":[-0.2838200032711029,-0.2552100121974945,-1.1732100248336793],"max":[-0.0005799999926239252,0.36291998624801638,-0.1307000070810318],"type":"VEC3","name":"part003_vertices#0_POSITION"},{"bufferView":2,"byteOffset":11532,"componentType":5120,"count":40,"type":"VEC4","name":"part003_vertices#0_TANGENT"},{"bufferView":2,"byteOffset":11536,"componentType":5120,"count":40,"type":"VEC4","name":"part003_vertices#0_NORMAL"},{"bufferView":2,"byteOffset":11540,"componentType":5122,"count":40,"type":"VEC2","name":"part003_vertices#0_TEXCOORD_0"},{"bufferView":2,"byteOffset":11544,"componentType":5122,"count":40,"type":"VEC2","name":"part003_vertices#0_TEXCOORD_1"},{"bufferView":2,"byteOffset":11548,"componentType":5123,"count":40,"type":"VEC4","name":"part003_vertices#0_COLOR_0"},{"bufferView":3,"byteOffset":1632,"componentType":5123,"count":90,"type":"SCALAR","name":"part003_indices#0"},{"bufferView":2,"byteOffset":12960,"componentType":5126,"count":30,"min":[0.0021299999207258226,-0.2749300003051758,-0.08952999860048294],"max":[0.7973600029945374,0.3435100018978119,-0.002360000042244792],"type":"VEC3","name":"part004_vertices#0_POSITION"},{"bufferView":2,"byteOffset":12972,"componentType":5120,"count":30,"type":"VEC4","name":"part004_vertices#0_TANGENT"},{"bufferView":2,"byteOffset":12976,"componentType":5120,"count":30,"type":"VEC4","name":"part004_vertices#0_NORMAL"},{"bufferView":2,"byteOffset":12980,"componentType":5122,"count":30,"type":"VEC2","name":"part004_vertices#0_TEXCOORD_0"},{"bufferView":2,"byteOffset":12984,"componentType":5122,"count":30,"type":"VEC2","name":"part004_vertices#0_TEXCOORD_1"},{"bufferView":2,"byteOffset":12988,"componentType":5123,"count":30,"type":"VEC4","name":"part004_vertices#0_COLOR_0"},{"bufferView":3,"byteOffset":1812,"componentType":5123,"count":30,"type":"SCALAR","name":"part004_indices#0"},{"bufferView":2,"byteOffset":14040,"componentType":5126,"count":22,"min":[-0.7739499807357788,-0.37338000535964968,-0.0066999997943639759],"max":[0.019740000367164613,0.4422599971294403,0.1524599939584732],"type":"VEC3","name":"part005_vertices#0_POSITION"},{"bufferView":2,"byteOffset":14052,"componentType":5120,"count":22,"type":"VEC4","name":"part005_vertices#0_TANGENT"},{"bufferView":2,"byteOffset":14056,"componentType":5120,"count":22,"type":"VEC4","name":"part005_vertices#0_NORMAL"},{"bufferView":2,"byteOffset":14060,"componentType":5122,"count":22,"type":"VEC2","name":"part005_vertices#0_TEXCOORD_0"},{"bufferView":2,"byteOffset":14064,"componentType":5122,"count":22,"type":"VEC2","name":"part005_vertices#0_TEXCOORD_1"},{"bufferView":2,"byteOffset":14068,"componentType":5123,"count":22,"type":"VEC4","name":"part005_vertices#0_COLOR_0"},{"bufferView":3,"byteOffset":1872,"componentType":5123,"count":30,"type":"SCALAR","name":"part005_indices#0"},{"bufferView":2,"byteOffset":14832,"componentType":5126,"count":22,"min":[-0.019740000367164613,-0.37338000535964968,-0.0066999997943639759],"max":[0.7739499807357788,0.4422599971294403,0.1524599939584732],"type":"VEC3","name":"part006_vertices#0_POSITION"},{"bufferView":2,"byteOffset":14844,"componentType":5120,"count":22,"type":"VEC4","name":"part006_vertices#0_TANGENT"},{"bufferView":2,"byteOffset":14848,"componentType":5120,"count":22,"type":"VEC4","name":"part006_vertices#0_NORMAL"},{"bufferView":2,"byteOffset":14852,"componentType":5122,"count":22,"type":"VEC2","name":"part006_vertices#0_TEXCOORD_0"},{"bufferView":2,"byteOffset":14856,"componentType":5122,"count":22,"type":"VEC2","name":"part006_vertices#0_TEXCOORD_1"},{"bufferView":2,"byteOffset":14860,"componentType":5123,"count":22,"type":"VEC4","name":"part006_vertices#0_COLOR_0"},{"bufferView":3,"byteOffset":1932,"componentType":5123,"count":30,"type":"SCALAR","name":"part006_indices#0"},{"bufferView":2,"byteOffset":15624,"componentType":5126,"count":40,"min":[-0.002959999954327941,-0.2523699998855591,-1.1709100008010865],"max":[0.27136000990867617,0.3657599985599518,-0.1307000070810318],"type":"VEC3","name":"part007_vertices#0_POSITION"},{"bufferView":2,"byteOffset":15636,"componentType":5120,"count":40,"type":"VEC4","name":"part007_vertices#0_TANGENT"},{"bufferView":2,"byteOffset":15640,"componentType":5120,"count":40,"type":"VEC4","name":"part007_vertices#0_NORMAL"},{"bufferView":2,"byteOffset":15644,"componentType":5122,"count":40,"type":"VEC2","name":"part007_vertices#0_TEXCOORD_0"},{"bufferView":2,"byteOffset":15648,"componentType":5122,"count":40,"type":"VEC2","name":"part007_vertices#0_TEXCOORD_1"},{"bufferView":2,"byteOffset":15652,"componentType":5123,"count":40,"type":"VEC4","name":"part007_vertices#0_COLOR_0"},{"bufferView":3,"byteOffset":1992,"componentType":5123,"count":90,"type":"SCALAR","name":"part007_indices#0"},{"bufferView":2,"byteOffset":17064,"componentType":5126,"count":30,"min":[-0.7973600029945374,-0.2749300003051758,-0.08952999860048294],"max":[-0.0021299999207258226,0.3435100018978119,-0.002360000042244792],"type":"VEC3","name":"part008_vertices#0_POSITION"},{"bufferView":2,"byteOffset":17076,"componentType":5120,"count":30,"type":"VEC4","name":"part008_vertices#0_TANGENT"},{"bufferView":2,"byteOffset":17080,"componentType":5120,"count":30,"type":"VEC4","name":"part008_vertices#0_NORMAL"},{"bufferView":2,"byteOffset":17084,"componentType":5122,"count":30,"type":"VEC2","name":"part008_vertices#0_TEXCOORD_0"},{"bufferView":2,"byteOffset":17088,"componentType":5122,"count":30,"type":"VEC2","name":"part008_vertices#0_TEXCOORD_1"},{"bufferView":2,"byteOffset":17092,"componentType":5123,"count":30,"type":"VEC4","name":"part008_vertices#0_COLOR_0"},{"bufferView":3,"byteOffset":2172,"componentType":5123,"count":30,"type":"SCALAR","name":"part008_indices#0"},{"bufferView":2,"byteOffset":18144,"componentType":5126,"count":44,"min":[-0.08900000154972077,-0.21839000284671784,-1.1202900409698487],"max":[0.08900000154972077,0.2790299952030182,-0.11095000058412552],"type":"VEC3","name":"part009_vertices#0_POSITION"},{"bufferView":2,"byteOffset":18156,"componentType":5120,"count":44,"type":"VEC4","name":"part009_vertices#0_TANGENT"},{"bufferView":2,"byteOffset":18160,"componentType":5120,"count":44,"type":"VEC4","name":"part009_vertices#0_NORMAL"},{"bufferView":2,"byteOffset":18164,"componentType":5122,"count":44,"type":"VEC2","name":"part009_vertices#0_TEXCOORD_0"},{"bufferView":2,"byteOffset":18168,"componentType":5122,"count":44,"type":"VEC2","name":"part009_vertices#0_TEXCOORD_1"},{"bufferView":2,"byteOffset":18172,"componentType":5123,"count":44,"type":"VEC4","name":"part009_vertices#0_COLOR_0"},{"bufferView":3,"byteOffset":2232,"componentType":5123,"count":96,"type":"SCALAR","name":"part009_indices#0"},{"bufferView":2,"byteOffset":19728,"componentType":5126,"count":8,"min":[-0.04967999830842018,-0.9942299723625183,-0.026739999651908876],"max":[0.04967999830842018,-0.8713600039482117,0.030629999935626985],"type":"VEC3","name":"part010_vertices#0_POSITION"},{"bufferView":2,"byteOffset":19740,"componentType":5120,"count":8,"type":"VEC4","name":"part010_vertices#0_TANGENT"},{"bufferView":2,"byteOffset":19744,"componentType":5120,"count":8,"type":"VEC4","name":"part010_vertices#0_NORMAL"},{"bufferView":2,"byteOffset":19748,"componentType":5122,"count":8,"type":"VEC2","name":"part010_vertices#0_TEXCOORD_0"},{"bufferView":2,"byteOffset":19752,"componentType":5122,"count":8,"type":"VEC2","name":"part010_vertices#0_TEXCOORD_1"},{"bufferView":2,"byteOffset":19756,"componentType":5123,"count":8,"type":"VEC4","name":"part010_vertices#0_COLOR_0"},{"bufferView":3,"byteOffset":2424,"componentType":5123,"count":12,"type":"SCALAR","name":"part010_indices#0"},{"bufferView":2,"byteOffset":20016,"componentType":5126,"count":16,"min":[-0.04969000071287155,-0.8732900023460388,-0.05468999966979027],"max":[0.04969000071287155,-0.6904000043869019,0.06007000058889389],"type":"VEC3","name":"part011_vertices#0_POSITION"},{"bufferView":2,"byteOffset":20028,"componentType":5120,"count":16,"type":"VEC4","name":"part011_vertices#0_TANGENT"},{"bufferView":2,"byteOffset":20032,"componentType":5120,"count":16,"type":"VEC4","name":"part011_vertices#0_NORMAL"},{"bufferView":2,"byteOffset":20036,"componentType":5122,"count":16,"type":"VEC2","name":"part011_vertices#0_TEXCOORD_0"},{"bufferView":2,"byteOffset":20040,"componentType":5122,"count":16,"type":"VEC2","name":"part011_vertices#0_TEXCOORD_1"},{"bufferView":2,"byteOffset":20044,"componentType":5123,"count":16,"type":"VEC4","name":"part011_vertices#0_COLOR_0"},{"bufferView":3,"byteOffset":2448,"componentType":5123,"count":24,"type":"SCALAR","name":"part011_indices#0"}],"animations":[{"name":"l_gear","channels":[{"sampler":0,"target":{"node":18,"path":"rotation"}},{"sampler":1,"target":{"node":21,"path":"rotation"}},{"sampler":2,"target":{"node":24,"path":"rotation"}}],"samplers":[{"input":0,"output":1,"interpolation":"LINEAR"},{"input":2,"output":3,"interpolation":"LINEAR"},{"input":4,"output":5,"interpolation":"LINEAR"}]},{"name":"r_gear","channels":[{"sampler":0,"target":{"node":27,"path":"rotation"}},{"sampler":1,"target":{"node":30,"path":"rotation"}},{"sampler":2,"target":{"node":33,"path":"rotation"}}],"samplers":[{"input":6,"output":7,"interpolation":"LINEAR"},{"input":8,"output":9,"interpolation":"LINEAR"},{"input":10,"output":11,"interpolation":"LINEAR"}]},{"name":"c_gear","channels":[{"sampler":0,"target":{"node":36,"path":"rotation"}}],"samplers":[{"input":12,"output":13,"interpolation":"LINEAR"}]},{"name":"custom_anim_C_WHEEL_LR","channels":[{"sampler":0,"target":{"node":39,"path":"rotation"}},{"sampler":1,"target":{"node":41,"path":"rotation"}}],"samplers":[{"input":14,"output":15,"interpolation":"LINEAR"},{"input":16,"output":17,"interpolation":"LINEAR"}]}],"asset":{"generator":"ModelConverterX","version":"2.0","extensions":{"ASOBO_asset_optimized":{"BoundingBoxMax":[7.051630020141602,3.1304500102996828,7.718540191650391],"BoundingBoxMin":[-7.051630020141602,-1.2128000259399415,-7.8307600021362309],"MajorVersion":4,"MinorVersion":4,"UseCheckerboardMaterialForMissingTextures":true,"UseOnlyFilenameForImageURI":true}}},"bufferViews":[{"buffer":0,"byteLength":104,"byteStride":4},{"buffer":0,"byteLength":416,"byteStride":16,"byteOffset":104},{"buffer":0,"byteLength":20592,"byteStride":36,"byteOffset":520,"target":34962,"name":"BufferViewVertexND"},{"buffer":0,"byteLength":2496,"byteOffset":21112,"target":34963,"name":"BufferViewIndex"}],"extensionsRequired":["MSFT_texture_dds"],"materials":[{"name":"material00","occlusionTexture":{"index":1},"emissiveTexture":{"index":2},"emissiveFactor":[0.019607843831181527,0.019607843831181527,0.019607843831181527],"pbrMetallicRoughness":{"baseColorTexture":{"index":0},"metallicRoughnessTexture":{"index":1}},"extensions":{"ASOBO_material_day_night_switch":{}}},{"name":"material01","pbrMetallicRoughness":{"baseColorFactor":[0.03921600058674812,0.03921600058674812,0.03921600058674812,1.0],"metallicFactor":0.0}},{"name":"material02","pbrMetallicRoughness":{"baseColorFactor":[0.7960780262947084,0.7960780262947084,0.7960780262947084,1.0],"metallicFactor":0.0}},{"name":"material03","pbrMetallicRoughness":{"metallicFactor":0.0}}],"meshes":[{"primitives":[{"attributes":{"COLOR_0":23,"NORMAL":20,"POSITION":18,"TANGENT":19,"TEXCOORD_0":21,"TEXCOORD_1":22},"indices":24,"material":1,"mode":4,"extras":{"ASOBO_primitive":{"PrimitiveCount":12,"VertexType":"VTX","VertexVersion":2}}}],"name":"part000"},{"primitives":[{"attributes":{"COLOR_0":30,"NORMAL":27,"POSITION":25,"TANGENT":26,"TEXCOORD_0":28,"TEXCOORD_1":29},"indices":31,"material":2,"mode":4,"extras":{"ASOBO_primitive":{"PrimitiveCount":2,"VertexType":"VTX","VertexVersion":2}}}],"name":"part001"},{"primitives":[{"attributes":{"COLOR_0":37,"NORMAL":34,"POSITION":32,"TANGENT":33,"TEXCOORD_0":35,"TEXCOORD_1":36},"indices":38,"material":0,"mode":4,"extras":{"ASOBO_primitive":{"PrimitiveCount":258,"VertexType":"VTX","VertexVersion":2}}}],"name":"part002"},{"primitives":[{"attributes":{"COLOR_0":44,"NORMAL":41,"POSITION":39,"TANGENT":40,"TEXCOORD_0":42,"TEXCOORD_1":43},"indices":45,"material":0,"mode":4,"extras":{"ASOBO_primitive":{"PrimitiveCount":30,"VertexType":"VTX","VertexVersion":2}}}],"name":"part003"},{"primitives":[{"attributes":{"COLOR_0":51,"NORMAL":48,"POSITION":46,"TANGENT":47,"TEXCOORD_0":49,"TEXCOORD_1":50},"indices":52,"material":0,"mode":4,"extras":{"ASOBO_primitive":{"PrimitiveCount":10,"VertexType":"VTX","VertexVersion":2}}}],"name":"part004"},{"primitives":[{"attributes":{"COLOR_0":58,"NORMAL":55,"POSITION":53,"TANGENT":54,"TEXCOORD_0":56,"TEXCOORD_1":57},"indices":59,"material":0,"mode":4,"extras":{"ASOBO_primitive":{"PrimitiveCount":10,"VertexType":"VTX","VertexVersion":2}}}],"name":"part005"},{"primitives":[{"attributes":{"COLOR_0":65,"NORMAL":62,"POSITION":60,"TANGENT":61,"TEXCOORD_0":63,"TEXCOORD_1":64},"indices":66,"material":0,"mode":4,"extras":{"ASOBO_primitive":{"PrimitiveCount":10,"VertexType":"VTX","VertexVersion":2}}}],"name":"part006"},{"primitives":[{"attributes":{"COLOR_0":72,"NORMAL":69,"POSITION":67,"TANGENT":68,"TEXCOORD_0":70,"TEXCOORD_1":71},"indices":73,"material":0,"mode":4,"extras":{"ASOBO_primitive":{"PrimitiveCount":30,"VertexType":"VTX","VertexVersion":2}}}],"name":"part007"},{"primitives":[{"attributes":{"COLOR_0":79,"NORMAL":76,"POSITION":74,"TANGENT":75,"TEXCOORD_0":77,"TEXCOORD_1":78},"indices":80,"material":0,"mode":4,"extras":{"ASOBO_primitive":{"PrimitiveCount":10,"VertexType":"VTX","VertexVersion":2}}}],"name":"part008"},{"primitives":[{"attributes":{"COLOR_0":86,"NORMAL":83,"POSITION":81,"TANGENT":82,"TEXCOORD_0":84,"TEXCOORD_1":85},"indices":87,"material":0,"mode":4,"extras":{"ASOBO_primitive":{"PrimitiveCount":32,"VertexType":"VTX","VertexVersion":2}}}],"name":"part009"},{"primitives":[{"attributes":{"COLOR_0":93,"NORMAL":90,"POSITION":88,"TANGENT":89,"TEXCOORD_0":91,"TEXCOORD_1":92},"indices":94,"material":3,"mode":4,"extras":{"ASOBO_primitive":{"PrimitiveCount":4,"VertexType":"VTX","VertexVersion":2}}}],"name":"part010"},{"primitives":[{"attributes":{"COLOR_0":100,"NORMAL":97,"POSITION":95,"TANGENT":96,"TEXCOORD_0":98,"TEXCOORD_1":99},"indices":101,"material":0,"mode":4,"extras":{"ASOBO_primitive":{"PrimitiveCount":8,"VertexType":"VTX","VertexVersion":2}}}],"name":"part011"}],"nodes":[{"name":"node_0","children":[1,2,3,4,5,6,7,8,9,10,11,12,13,14,15]},{"mesh":0,"name":"node_5"},{"mesh":1,"name":"node_6"},{"mesh":2,"name":"node_7"},{"translation":[1.3500000238418586,0.0,-4.699999809265137],"rotation":[-6.123031769111886e-17,3.061515884555943e-17,1.0,1.874575902277672e-33],"scale":[1.0,1.0,1.0],"name":"contrail1"},{"translation":[2.819999933242798,-0.7599999904632568,0.6800000071525577],"rotation":[-0.7071067811865475,0.0,0.0,0.7071067811865475],"scale":[1.0,1.0,1.0],"name":"landing_l1"},{"translation":[2.819999933242798,-0.7599999904632568,0.6800000071525577],"rotation":[-0.7071067811865475,0.0,0.0,0.7071067811865475],"scale":[1.0,1.0,1.0],"name":"taxi_l"},{"translation":[3.049999952316284,-0.75,0.5799999833106998],"rotation":[-0.7071067811865475,0.0,0.0,0.7071067811865475],"scale":[1.0,1.0,1.0],"name":"landing_l2"},{"translation":[-3.049999952316284,-0.75,0.5799999833106991],"rotation":[-0.7071067811865475,0.0,0.0,0.7071067811865475],"scale":[1.0,1.0,1.0],"name":"landing_r2"},{"translation":[-2.819999933242798,-0.7599999904632568,0.680000007152557],"rotation":[-0.7071067811865475,0.0,0.0,0.7071067811865475],"scale":[1.0,1.0,1.0],"name":"landing_r1"},{"translation":[-2.819999933242798,-0.7599999904632568,0.680000007152557],"rotation":[-0.7071067811865475,0.0,0.0,0.7071067811865475],"scale":[1.0,1.0,1.0],"name":"taxi_r"},{"translation":[-1.3500000238418573,0.0,-4.699999809265137],"rotation":[-6.123031769111886e-17,3.061515884555943e-17,1.0,1.874575902277672e-33],"scale":[1.0,1.0,1.0],"name":"contrail2"},{"translation":[-6.735334946023075e-16,-1.7999999523162842,5.5],"rotation":[-6.123031769111886e-17,3.061515884555943e-17,1.0,1.874575902277672e-33],"scale":[1.0,1.0,1.0],"name":"c_tire1"},{"translation":[1.3999999761581424,-1.899999976158142,-0.9499999880790707],"rotation":[-6.123031769111886e-17,3.061515884555943e-17,1.0,1.874575902277672e-33],"scale":[1.0,1.0,1.0],"name":"l_tire1"},{"translation":[-1.399999976158142,-1.899999976158142,-0.9499999880790712],"rotation":[-6.123031769111886e-17,3.061515884555943e-17,1.0,1.874575902277672e-33],"scale":[1.0,1.0,1.0],"name":"r_tire1"},{"translation":[0.0,0.0,0.0],"rotation":[-4.329637285359677e-17,0.7071067811865475,0.7071067811865475,4.329637285359677e-17],"scale":[1.0,1.0,1.0],"name":"node_49","children":[16,19,22,25,28,31,34]},{"translation":[-1.2731499671936036,-0.8053730130195618,-0.8122919797897339],"rotation":[0.0,0.0,0.0,1.0],"scale":[1.0,1.0,1.0],"name":"node_66","children":[17]},{"name":"node_67","children":[18]},{"mesh":3,"name":"l_gear_AN_67"},{"translation":[-1.5593570470809937,-0.7617869973182678,-1.0110889673233033],"rotation":[0.0,0.0,0.0,1.0],"scale":[1.0,1.0,1.0],"name":"node_86","children":[20]},{"name":"node_87","children":[21]},{"mesh":4,"name":"l_gear_AN_87"},{"translation":[-0.0944880023598671,-0.7825130224227905,-1.1810450553894044],"rotation":[0.0,0.0,0.0,1.0],"scale":[1.0,1.0,1.0],"name":"node_94","children":[23]},{"name":"node_95","children":[24]},{"mesh":5,"name":"l_gear_AN_95"},{"translation":[0.0944880023598671,-0.7824220061302185,-1.1811000108718873],"rotation":[0.0,0.0,0.0,1.0],"scale":[1.0,1.0,1.0],"name":"node_102","children":[26]},{"name":"node_103","children":[27]},{"mesh":6,"name":"r_gear_AN_103"},{"translation":[1.2731499671936036,-0.8052819967269898,-0.8122919797897339],"rotation":[0.0,0.0,0.0,1.0],"scale":[1.0,1.0,1.0],"name":"node_110","children":[29]},{"name":"node_111","children":[30]},{"mesh":7,"name":"r_gear_AN_111"},{"translation":[1.5593570470809937,-0.7616950273513794,-1.0110219717025757],"rotation":[0.0,0.0,0.0,1.0],"scale":[1.0,1.0,1.0],"name":"node_130","children":[32]},{"name":"node_131","children":[33]},{"mesh":8,"name":"r_gear_AN_131"},{"translation":[0.0,5.489447116851807,-0.7068309783935547],"rotation":[0.0,0.0,0.0,1.0],"scale":[1.0,1.0,1.0],"name":"node_138","children":[35]},{"name":"node_139","children":[36]},{"mesh":9,"name":"c_gear_AN_139","children":[37]},{"translation":[0.0,0.002437999937683344,0.10027900338172913],"rotation":[-0.0002372342804551669,-0.7071067413905033,0.7071067413905033,-0.0002372342804551669],"scale":[1.0,1.0,1.0],"name":"node_140","children":[38,40]},{"translation":[0.0,0.0,0.0],"rotation":[0.0,0.0,0.9999999437198944,-0.0003354999368795194],"scale":[1.0,1.0,1.0],"name":"node_141","children":[39]},{"mesh":10,"name":"custom_anim_C_WHEEL_LR_AN_141"},{"translation":[0.0,0.0,0.0],"rotation":[0.0,0.0,0.9999999437198944,-0.0003354999368795194],"scale":[1.0,1.0,1.0],"name":"node_142","children":[41]},{"mesh":11,"name":"custom_anim_C_WHEEL_LR_AN_142"}],"scene":0,"scenes":[{"nodes":[0]}],"textures":[{"extensions":{"MSFT_texture_dds":{"source":0}}},{"extensions":{"MSFT_texture_dds":{"source":1}}},{"extensions":{"MSFT_texture_dds":{"source":2}}}],"extensionsUsed":["ASOBO_material_day_night_switch","MSFT_texture_dds","ASOBO_asset_optimized"],"buffers":[{"byteLength":23608,"uri":"HTAI BAe HS-125-700 MSFS_LOD6.bin"}],"images":[{"uri":"AIHS125700.PNG.DDS","extras":"ASOBO_image_converted_meta"},{"uri":"AIHS125700_C.PNG.DDS","extras":"ASOBO_image_converted_meta"},{"uri":"CABIN_LIGHTS.PNG.DDS","extras":"ASOBO_image_converted_meta"}]}
