{"accessors":[{"bufferView":0,"componentType":5126,"count":51,"min":[0.0],"max":[100.0],"type":"SCALAR"},{"bufferView":1,"componentType":5126,"count":51,"type":"VEC4"},{"bufferView":0,"byteOffset":204,"componentType":5126,"count":51,"min":[0.0],"max":[100.0],"type":"SCALAR"},{"bufferView":1,"byteOffset":816,"componentType":5126,"count":51,"type":"VEC4"},{"bufferView":0,"byteOffset":408,"componentType":5126,"count":51,"min":[0.0],"max":[100.0],"type":"SCALAR"},{"bufferView":1,"byteOffset":1632,"componentType":5126,"count":51,"type":"VEC4"},{"bufferView":0,"byteOffset":612,"componentType":5126,"count":51,"min":[0.0],"max":[100.0],"type":"SCALAR"},{"bufferView":1,"byteOffset":2448,"componentType":5126,"count":51,"type":"VEC4"},{"bufferView":2,"componentType":5126,"count":16,"min":[1.4040000438690186,0.1599999964237213,-5.9720001220703129],"max":[2.240000009536743,1.0800000429153443,-2.619999885559082],"type":"VEC3","name":"part000_vertices#0_POSITION"},{"bufferView":2,"byteOffset":12,"componentType":5120,"count":16,"type":"VEC4","name":"part000_vertices#0_TANGENT"},{"bufferView":2,"byteOffset":16,"componentType":5120,"count":16,"type":"VEC4","name":"part000_vertices#0_NORMAL"},{"bufferView":2,"byteOffset":20,"componentType":5122,"count":16,"type":"VEC2","name":"part000_vertices#0_TEXCOORD_0"},{"bufferView":2,"byteOffset":24,"componentType":5122,"count":16,"type":"VEC2","name":"part000_vertices#0_TEXCOORD_1"},{"bufferView":2,"byteOffset":28,"componentType":5123,"count":16,"type":"VEC4","name":"part000_vertices#0_COLOR_0"},{"bufferView":3,"componentType":5123,"count":36,"type":"SCALAR","name":"part000_indices#0"},{"bufferView":2,"byteOffset":576,"componentType":5126,"count":4,"min":[-0.08399999886751175,0.8159999847412109,-5.716000080108643],"max":[0.09200000017881394,1.156000018119812,-5.611999988555908],"type":"VEC3","name":"part001_vertices#0_POSITION"},{"bufferView":2,"byteOffset":588,"componentType":5120,"count":4,"type":"VEC4","name":"part001_vertices#0_TANGENT"},{"bufferView":2,"byteOffset":592,"componentType":5120,"count":4,"type":"VEC4","name":"part001_vertices#0_NORMAL"},{"bufferView":2,"byteOffset":596,"componentType":5122,"count":4,"type":"VEC2","name":"part001_vertices#0_TEXCOORD_0"},{"bufferView":2,"byteOffset":600,"componentType":5122,"count":4,"type":"VEC2","name":"part001_vertices#0_TEXCOORD_1"},{"bufferView":2,"byteOffset":604,"componentType":5123,"count":4,"type":"VEC4","name":"part001_vertices#0_COLOR_0"},{"bufferView":3,"byteOffset":72,"componentType":5123,"count":6,"type":"SCALAR","name":"part001_indices#0"},{"bufferView":2,"byteOffset":720,"componentType":5126,"count":16,"min":[-2.24399995803833,0.1599999964237213,-5.9720001220703129],"max":[-1.4079999923706055,1.0800000429153443,-2.619999885559082],"type":"VEC3","name":"part002_vertices#0_POSITION"},{"bufferView":2,"byteOffset":732,"componentType":5120,"count":16,"type":"VEC4","name":"part002_vertices#0_TANGENT"},{"bufferView":2,"byteOffset":736,"componentType":5120,"count":16,"type":"VEC4","name":"part002_vertices#0_NORMAL"},{"bufferView":2,"byteOffset":740,"componentType":5122,"count":16,"type":"VEC2","name":"part002_vertices#0_TEXCOORD_0"},{"bufferView":2,"byteOffset":744,"componentType":5122,"count":16,"type":"VEC2","name":"part002_vertices#0_TEXCOORD_1"},{"bufferView":2,"byteOffset":748,"componentType":5123,"count":16,"type":"VEC4","name":"part002_vertices#0_COLOR_0"},{"bufferView":3,"byteOffset":84,"componentType":5123,"count":36,"type":"SCALAR","name":"part002_indices#0"},{"bufferView":2,"byteOffset":1296,"componentType":5126,"count":400,"min":[-9.0,-1.3799999952316285,-11.331999778747559],"max":[9.003999710083008,3.2880001068115236,9.140000343322754],"type":"VEC3","name":"part003_vertices#0_POSITION"},{"bufferView":2,"byteOffset":1308,"componentType":5120,"count":400,"type":"VEC4","name":"part003_vertices#0_TANGENT"},{"bufferView":2,"byteOffset":1312,"componentType":5120,"count":400,"type":"VEC4","name":"part003_vertices#0_NORMAL"},{"bufferView":2,"byteOffset":1316,"componentType":5122,"count":400,"type":"VEC2","name":"part003_vertices#0_TEXCOORD_0"},{"bufferView":2,"byteOffset":1320,"componentType":5122,"count":400,"type":"VEC2","name":"part003_vertices#0_TEXCOORD_1"},{"bufferView":2,"byteOffset":1324,"componentType":5123,"count":400,"type":"VEC4","name":"part003_vertices#0_COLOR_0"},{"bufferView":3,"byteOffset":156,"componentType":5123,"count":1107,"type":"SCALAR","name":"part003_indices#0"},{"bufferView":2,"byteOffset":15696,"componentType":5126,"count":44,"min":[-0.3946399986743927,-0.05779999867081642,-1.114400029182434],"max":[-0.17625999450683595,0.062199998646974567,-0.21288999915122987],"type":"VEC3","name":"part004_vertices#0_POSITION"},{"bufferView":2,"byteOffset":15708,"componentType":5120,"count":44,"type":"VEC4","name":"part004_vertices#0_TANGENT"},{"bufferView":2,"byteOffset":15712,"componentType":5120,"count":44,"type":"VEC4","name":"part004_vertices#0_NORMAL"},{"bufferView":2,"byteOffset":15716,"componentType":5122,"count":44,"type":"VEC2","name":"part004_vertices#0_TEXCOORD_0"},{"bufferView":2,"byteOffset":15720,"componentType":5122,"count":44,"type":"VEC2","name":"part004_vertices#0_TEXCOORD_1"},{"bufferView":2,"byteOffset":15724,"componentType":5123,"count":44,"type":"VEC4","name":"part004_vertices#0_COLOR_0"},{"bufferView":3,"byteOffset":2370,"componentType":5123,"count":96,"type":"SCALAR","name":"part004_indices#0"},{"bufferView":2,"byteOffset":17280,"componentType":5126,"count":42,"min":[0.16527999937534333,-0.05779999867081642,-1.096850037574768],"max":[0.37759000062942507,0.062199998646974567,-0.19412000477313996],"type":"VEC3","name":"part005_vertices#0_POSITION"},{"bufferView":2,"byteOffset":17292,"componentType":5120,"count":42,"type":"VEC4","name":"part005_vertices#0_TANGENT"},{"bufferView":2,"byteOffset":17296,"componentType":5120,"count":42,"type":"VEC4","name":"part005_vertices#0_NORMAL"},{"bufferView":2,"byteOffset":17300,"componentType":5122,"count":42,"type":"VEC2","name":"part005_vertices#0_TEXCOORD_0"},{"bufferView":2,"byteOffset":17304,"componentType":5122,"count":42,"type":"VEC2","name":"part005_vertices#0_TEXCOORD_1"},{"bufferView":2,"byteOffset":17308,"componentType":5123,"count":42,"type":"VEC4","name":"part005_vertices#0_COLOR_0"},{"bufferView":3,"byteOffset":2562,"componentType":5123,"count":96,"type":"SCALAR","name":"part005_indices#0"}],"animations":[{"name":"l_gear","channels":[{"sampler":0,"target":{"node":12,"path":"rotation"}},{"sampler":1,"target":{"node":14,"path":"rotation"}}],"samplers":[{"input":0,"output":1,"interpolation":"LINEAR"},{"input":2,"output":3,"interpolation":"LINEAR"}]},{"name":"r_gear","channels":[{"sampler":0,"target":{"node":18,"path":"rotation"}},{"sampler":1,"target":{"node":20,"path":"rotation"}}],"samplers":[{"input":4,"output":5,"interpolation":"LINEAR"},{"input":6,"output":7,"interpolation":"LINEAR"}]}],"asset":{"generator":"ModelConverterX","version":"2.0","extensions":{"ASOBO_asset_optimized":{"BoundingBoxMax":[9.003999710083008,3.2880001068115236,9.140000343322754],"BoundingBoxMin":[-9.0,-1.3799999952316285,-11.331999778747559],"MajorVersion":4,"MinorVersion":4,"UseCheckerboardMaterialForMissingTextures":true,"UseOnlyFilenameForImageURI":true}}},"bufferViews":[{"buffer":0,"byteLength":816,"byteStride":4},{"buffer":0,"byteLength":3264,"byteStride":16,"byteOffset":816},{"buffer":0,"byteLength":18792,"byteStride":36,"byteOffset":4080,"target":34962,"name":"BufferViewVertexND"},{"buffer":0,"byteLength":2754,"byteOffset":22872,"target":34963,"name":"BufferViewIndex"}],"extensionsRequired":["MSFT_texture_dds"],"materials":[{"name":"material00","pbrMetallicRoughness":{"baseColorFactor":[0.1254899948835373,0.1254899948835373,0.1254899948835373,1.0],"metallicFactor":0.0}},{"name":"material01","pbrMetallicRoughness":{"baseColorFactor":[0.1529410034418106,0.1529410034418106,0.1529410034418106,1.0],"metallicFactor":0.0}},{"name":"material02","pbrMetallicRoughness":{"baseColorFactor":[0.1647060066461563,0.1647060066461563,0.1647060066461563,1.0],"metallicFactor":0.0}},{"name":"material03","emissiveTexture":{"index":1},"emissiveFactor":[0.019607843831181527,0.019607843831181527,0.019607843831181527],"pbrMetallicRoughness":{"metallicFactor":0.0,"baseColorTexture":{"index":0}},"extensions":{"ASOBO_material_day_night_switch":{}}}],"meshes":[{"primitives":[{"attributes":{"COLOR_0":13,"NORMAL":10,"POSITION":8,"TANGENT":9,"TEXCOORD_0":11,"TEXCOORD_1":12},"indices":14,"material":0,"mode":4,"extras":{"ASOBO_primitive":{"PrimitiveCount":12,"VertexType":"VTX","VertexVersion":2}}}],"name":"part000"},{"primitives":[{"attributes":{"COLOR_0":20,"NORMAL":17,"POSITION":15,"TANGENT":16,"TEXCOORD_0":18,"TEXCOORD_1":19},"indices":21,"material":1,"mode":4,"extras":{"ASOBO_primitive":{"PrimitiveCount":2,"VertexType":"VTX","VertexVersion":2}}}],"name":"part001"},{"primitives":[{"attributes":{"COLOR_0":27,"NORMAL":24,"POSITION":22,"TANGENT":23,"TEXCOORD_0":25,"TEXCOORD_1":26},"indices":28,"material":2,"mode":4,"extras":{"ASOBO_primitive":{"PrimitiveCount":12,"VertexType":"VTX","VertexVersion":2}}}],"name":"part002"},{"primitives":[{"attributes":{"COLOR_0":34,"NORMAL":31,"POSITION":29,"TANGENT":30,"TEXCOORD_0":32,"TEXCOORD_1":33},"indices":35,"material":3,"mode":4,"extras":{"ASOBO_primitive":{"PrimitiveCount":369,"VertexType":"VTX","VertexVersion":2}}}],"name":"part003"},{"primitives":[{"attributes":{"COLOR_0":41,"NORMAL":38,"POSITION":36,"TANGENT":37,"TEXCOORD_0":39,"TEXCOORD_1":40},"indices":42,"material":3,"mode":4,"extras":{"ASOBO_primitive":{"PrimitiveCount":32,"VertexType":"VTX","VertexVersion":2}}}],"name":"part004"},{"primitives":[{"attributes":{"COLOR_0":48,"NORMAL":45,"POSITION":43,"TANGENT":44,"TEXCOORD_0":46,"TEXCOORD_1":47},"indices":49,"material":3,"mode":4,"extras":{"ASOBO_primitive":{"PrimitiveCount":32,"VertexType":"VTX","VertexVersion":2}}}],"name":"part005"}],"nodes":[{"name":"node_0","children":[1,2,3,4,5,6,7,8,9,10]},{"mesh":0,"name":"node_5"},{"mesh":1,"name":"node_6"},{"mesh":2,"name":"node_7"},{"mesh":3,"name":"node_8"},{"translation":[-1.730000019073486,-2.0,-2.0999999046325685],"rotation":[-6.123031769111886e-17,3.061515884555943e-17,1.0,1.874575902277672e-33],"scale":[1.0,1.0,1.0],"name":"r_tire1"},{"translation":[1.7300000190734866,-2.0,-2.0999999046325685],"rotation":[-6.123031769111886e-17,3.061515884555943e-17,1.0,1.874575902277672e-33],"scale":[1.0,1.0,1.0],"name":"l_tire1"},{"translation":[-8.57224447675664e-16,-1.899999976158142,7.0],"rotation":[-6.123031769111886e-17,3.061515884555943e-17,1.0,1.874575902277672e-33],"scale":[1.0,1.0,1.0],"name":"c_tire1"},{"translation":[-1.8500000238418573,0.6000000238418579,-6.0],"rotation":[-6.123031769111886e-17,3.061515884555943e-17,1.0,1.874575902277672e-33],"scale":[1.0,1.0,1.0],"name":"contrail2"},{"translation":[1.8500000238418584,0.6000000238418579,-6.0],"rotation":[-6.123031769111886e-17,3.061515884555943e-17,1.0,1.874575902277672e-33],"scale":[1.0,1.0,1.0],"name":"contrail1"},{"translation":[0.0,0.0,0.0],"rotation":[-4.329637285359677e-17,0.7071067811865475,0.7071067811865475,4.329637285359677e-17],"scale":[1.0,1.0,1.0],"name":"node_36","children":[11,13,17,19]},{"translation":[-1.4117649793624879,-1.9421969652175904,-0.6595529913902283],"rotation":[0.0,0.0,0.0,1.0],"scale":[1.0,1.0,1.0],"name":"node_63","children":[12]},{"mesh":4,"name":"l_gear_AN_63"},{"translation":[-1.4117649793624879,-1.9421969652175904,-0.6595529913902283],"rotation":[0.0,0.0,0.0,1.0],"scale":[1.0,1.0,1.0],"name":"node_85","children":[14]},{"name":"l_gear_AN_85","children":[15,16]},{"translation":[-0.25285398960113528,0.08219700306653977,-0.5282610058784485],"rotation":[-0.004363309284746571,-2.6716681368964115e-19,0.9999904807207346,-6.122973482262525e-17],"scale":[1.0,1.0,1.0],"name":"Left_Landing"},{"translation":[-0.25285398960113528,0.08219700306653977,-0.5282610058784485],"rotation":[-0.004363309284746571,-2.6716681368964115e-19,0.9999904807207346,-6.122973482262525e-17],"scale":[1.0,1.0,1.0],"name":"Left_Taxi"},{"translation":[1.4100860357284547,-1.9421980381011963,-0.6768069863319397],"rotation":[0.0,0.0,0.0,1.0],"scale":[1.0,1.0,1.0],"name":"node_89","children":[18]},{"mesh":5,"name":"r_gear_AN_89"},{"translation":[1.4100860357284547,-1.9421980381011963,-0.6768069863319397],"rotation":[0.0,0.0,0.0,1.0],"scale":[1.0,1.0,1.0],"name":"node_111","children":[20]},{"name":"r_gear_AN_111","children":[21,22]},{"translation":[0.24991400539875034,0.08219800144433974,-0.5131930112838745],"rotation":[0.0,0.0,1.0,-6.123031769111886e-17],"scale":[1.0,1.0,1.0],"name":"Right_Landing"},{"translation":[0.24991400539875034,0.08219800144433974,-0.5131930112838745],"rotation":[0.0,0.0,1.0,-6.123031769111886e-17],"scale":[1.0,1.0,1.0],"name":"Right_Taxi"}],"scene":0,"scenes":[{"nodes":[0]}],"textures":[{"extensions":{"MSFT_texture_dds":{"source":0}}},{"extensions":{"MSFT_texture_dds":{"source":1}}}],"extensionsUsed":["ASOBO_material_day_night_switch","MSFT_texture_dds","ASOBO_asset_optimized"],"buffers":[{"byteLength":25626,"uri":"JBAI Learjet 40 MSFS_LOD5.bin"}],"images":[{"uri":"JBS_LJ40_T.PNG.DDS","extras":"ASOBO_image_converted_meta"},{"uri":"JBS_LJ40_L.PNG.DDS","extras":"ASOBO_image_converted_meta"}]}
