{"accessors":[{"bufferView":0,"componentType":5126,"count":32,"min":[0.0],"max":[80.0],"type":"SCALAR"},{"bufferView":1,"componentType":5126,"count":32,"type":"VEC4"},{"bufferView":0,"byteOffset":128,"componentType":5126,"count":5,"min":[0.0],"max":[100.0],"type":"SCALAR"},{"bufferView":1,"byteOffset":512,"componentType":5126,"count":5,"type":"VEC4"},{"bufferView":0,"byteOffset":148,"componentType":5126,"count":5,"min":[0.0],"max":[100.0],"type":"SCALAR"},{"bufferView":1,"byteOffset":592,"componentType":5126,"count":5,"type":"VEC4"},{"bufferView":2,"componentType":5126,"count":102,"min":[-10.708000183105469,-0.9879999756813049,-10.612000465393067],"max":[10.708000183105469,4.880000114440918,3.3480000495910646],"type":"VEC3","name":"part000_vertices#0_POSITION"},{"bufferView":2,"byteOffset":12,"componentType":5120,"count":102,"type":"VEC4","name":"part000_vertices#0_TANGENT"},{"bufferView":2,"byteOffset":16,"componentType":5120,"count":102,"type":"VEC4","name":"part000_vertices#0_NORMAL"},{"bufferView":2,"byteOffset":20,"componentType":5122,"count":102,"type":"VEC2","name":"part000_vertices#0_TEXCOORD_0"},{"bufferView":2,"byteOffset":24,"componentType":5122,"count":102,"type":"VEC2","name":"part000_vertices#0_TEXCOORD_1"},{"bufferView":2,"byteOffset":28,"componentType":5123,"count":102,"type":"VEC4","name":"part000_vertices#0_COLOR_0"},{"bufferView":3,"componentType":5123,"count":174,"type":"SCALAR","name":"part000_indices#0"},{"bufferView":2,"byteOffset":3672,"componentType":5126,"count":42,"min":[-1.156000018119812,-0.8960000276565552,-10.303999900817871],"max":[1.156000018119812,1.4240000247955323,9.119999885559082],"type":"VEC3","name":"part001_vertices#0_POSITION"},{"bufferView":2,"byteOffset":3684,"componentType":5120,"count":42,"type":"VEC4","name":"part001_vertices#0_TANGENT"},{"bufferView":2,"byteOffset":3688,"componentType":5120,"count":42,"type":"VEC4","name":"part001_vertices#0_NORMAL"},{"bufferView":2,"byteOffset":3692,"componentType":5122,"count":42,"type":"VEC2","name":"part001_vertices#0_TEXCOORD_0"},{"bufferView":2,"byteOffset":3696,"componentType":5122,"count":42,"type":"VEC2","name":"part001_vertices#0_TEXCOORD_1"},{"bufferView":2,"byteOffset":3700,"componentType":5123,"count":42,"type":"VEC4","name":"part001_vertices#0_COLOR_0"},{"bufferView":3,"byteOffset":348,"componentType":5123,"count":84,"type":"SCALAR","name":"part001_indices#0"},{"bufferView":2,"byteOffset":5184,"componentType":5126,"count":10,"min":[-2.188999891281128,-0.24767999351024629,-2.185810089111328],"max":[2.187000036239624,-0.13561999797821046,2.1881399154663088],"type":"VEC3","name":"part002_vertices#0_POSITION"},{"bufferView":2,"byteOffset":5196,"componentType":5120,"count":10,"type":"VEC4","name":"part002_vertices#0_TANGENT"},{"bufferView":2,"byteOffset":5200,"componentType":5120,"count":10,"type":"VEC4","name":"part002_vertices#0_NORMAL"},{"bufferView":2,"byteOffset":5204,"componentType":5122,"count":10,"type":"VEC2","name":"part002_vertices#0_TEXCOORD_0"},{"bufferView":2,"byteOffset":5208,"componentType":5122,"count":10,"type":"VEC2","name":"part002_vertices#0_TEXCOORD_1"},{"bufferView":2,"byteOffset":5212,"componentType":5123,"count":10,"type":"VEC4","name":"part002_vertices#0_COLOR_0"},{"bufferView":3,"byteOffset":516,"componentType":5123,"count":24,"type":"SCALAR","name":"part002_indices#0"},{"bufferView":2,"byteOffset":5544,"componentType":5126,"count":10,"min":[-2.188999891281128,-0.24767999351024629,-2.185810089111328],"max":[2.187000036239624,-0.13561999797821046,2.1881399154663088],"type":"VEC3","name":"part003_vertices#0_POSITION"},{"bufferView":2,"byteOffset":5556,"componentType":5120,"count":10,"type":"VEC4","name":"part003_vertices#0_TANGENT"},{"bufferView":2,"byteOffset":5560,"componentType":5120,"count":10,"type":"VEC4","name":"part003_vertices#0_NORMAL"},{"bufferView":2,"byteOffset":5564,"componentType":5122,"count":10,"type":"VEC2","name":"part003_vertices#0_TEXCOORD_0"},{"bufferView":2,"byteOffset":5568,"componentType":5122,"count":10,"type":"VEC2","name":"part003_vertices#0_TEXCOORD_1"},{"bufferView":2,"byteOffset":5572,"componentType":5123,"count":10,"type":"VEC4","name":"part003_vertices#0_COLOR_0"},{"bufferView":3,"byteOffset":564,"componentType":5123,"count":24,"type":"SCALAR","name":"part003_indices#0"},{"bufferView":2,"byteOffset":5904,"componentType":5126,"count":10,"min":[-2.1864099502563478,-0.24767999351024629,-2.184950113296509],"max":[2.1864399909973146,-0.13561999797821046,2.18789005279541],"type":"VEC3","name":"part004_vertices#0_POSITION"},{"bufferView":2,"byteOffset":5916,"componentType":5120,"count":10,"type":"VEC4","name":"part004_vertices#0_TANGENT"},{"bufferView":2,"byteOffset":5920,"componentType":5120,"count":10,"type":"VEC4","name":"part004_vertices#0_NORMAL"},{"bufferView":2,"byteOffset":5924,"componentType":5122,"count":10,"type":"VEC2","name":"part004_vertices#0_TEXCOORD_0"},{"bufferView":2,"byteOffset":5928,"componentType":5122,"count":10,"type":"VEC2","name":"part004_vertices#0_TEXCOORD_1"},{"bufferView":2,"byteOffset":5932,"componentType":5123,"count":10,"type":"VEC4","name":"part004_vertices#0_COLOR_0"},{"bufferView":3,"byteOffset":612,"componentType":5123,"count":24,"type":"SCALAR","name":"part004_indices#0"},{"bufferView":2,"byteOffset":6264,"componentType":5126,"count":10,"min":[-2.1864099502563478,-0.24767999351024629,-2.184950113296509],"max":[2.1864399909973146,-0.13561999797821046,2.18789005279541],"type":"VEC3","name":"part005_vertices#0_POSITION"},{"bufferView":2,"byteOffset":6276,"componentType":5120,"count":10,"type":"VEC4","name":"part005_vertices#0_TANGENT"},{"bufferView":2,"byteOffset":6280,"componentType":5120,"count":10,"type":"VEC4","name":"part005_vertices#0_NORMAL"},{"bufferView":2,"byteOffset":6284,"componentType":5122,"count":10,"type":"VEC2","name":"part005_vertices#0_TEXCOORD_0"},{"bufferView":2,"byteOffset":6288,"componentType":5122,"count":10,"type":"VEC2","name":"part005_vertices#0_TEXCOORD_1"},{"bufferView":2,"byteOffset":6292,"componentType":5123,"count":10,"type":"VEC4","name":"part005_vertices#0_COLOR_0"},{"bufferView":3,"byteOffset":660,"componentType":5123,"count":24,"type":"SCALAR","name":"part005_indices#0"}],"animations":[{"name":"c_gear","channels":[{"sampler":0,"target":{"node":15,"path":"rotation"}}],"samplers":[{"input":0,"output":1,"interpolation":"LINEAR"}]},{"name":"engine0","channels":[{"sampler":0,"target":{"node":20,"path":"rotation"}}],"samplers":[{"input":2,"output":3,"interpolation":"LINEAR"}]},{"name":"engine1","channels":[{"sampler":0,"target":{"node":24,"path":"rotation"}}],"samplers":[{"input":4,"output":5,"interpolation":"LINEAR"}]}],"asset":{"generator":"ModelConverterX","version":"2.0","extensions":{"ASOBO_asset_optimized":{"BoundingBoxMax":[10.708000183105469,4.880000114440918,9.119999885559082],"BoundingBoxMin":[-10.708000183105469,-0.9879999756813049,-10.612000465393067],"MajorVersion":4,"MinorVersion":4,"UseCheckerboardMaterialForMissingTextures":true,"UseOnlyFilenameForImageURI":true}}},"bufferViews":[{"buffer":0,"byteLength":168,"byteStride":4},{"buffer":0,"byteLength":672,"byteStride":16,"byteOffset":168},{"buffer":0,"byteLength":6624,"byteStride":36,"byteOffset":840,"target":34962,"name":"BufferViewVertexND"},{"buffer":0,"byteLength":708,"byteOffset":7464,"target":34963,"name":"BufferViewIndex"}],"extensionsRequired":["MSFT_texture_dds"],"materials":[{"name":"material00","alphaMode":"BLEND","pbrMetallicRoughness":{"baseColorFactor":[0.0,0.0,0.0,1.0],"metallicFactor":0.0,"baseColorTexture":{"index":0}}},{"name":"material01","emissiveTexture":{"index":2},"emissiveFactor":[0.019607843831181527,0.019607843831181527,0.019607843831181527],"pbrMetallicRoughness":{"metallicFactor":0.0,"baseColorTexture":{"index":1}},"extensions":{"ASOBO_material_day_night_switch":{}}}],"meshes":[{"primitives":[{"attributes":{"COLOR_0":11,"NORMAL":8,"POSITION":6,"TANGENT":7,"TEXCOORD_0":9,"TEXCOORD_1":10},"indices":12,"material":1,"mode":4,"extras":{"ASOBO_primitive":{"PrimitiveCount":58,"VertexType":"VTX","VertexVersion":2}}}],"name":"part000"},{"primitives":[{"attributes":{"COLOR_0":18,"NORMAL":15,"POSITION":13,"TANGENT":14,"TEXCOORD_0":16,"TEXCOORD_1":17},"indices":19,"material":1,"mode":4,"extras":{"ASOBO_primitive":{"PrimitiveCount":28,"VertexType":"VTX","VertexVersion":2}}}],"name":"part001"},{"primitives":[{"attributes":{"COLOR_0":25,"NORMAL":22,"POSITION":20,"TANGENT":21,"TEXCOORD_0":23,"TEXCOORD_1":24},"indices":26,"material":0,"mode":4,"extras":{"ASOBO_primitive":{"PrimitiveCount":8,"VertexType":"VTX","VertexVersion":2}}}],"name":"part002"},{"primitives":[{"attributes":{"COLOR_0":32,"NORMAL":29,"POSITION":27,"TANGENT":28,"TEXCOORD_0":30,"TEXCOORD_1":31},"indices":33,"material":0,"mode":4,"extras":{"ASOBO_primitive":{"PrimitiveCount":8,"VertexType":"VTX","VertexVersion":2}}}],"name":"part003"},{"primitives":[{"attributes":{"COLOR_0":39,"NORMAL":36,"POSITION":34,"TANGENT":35,"TEXCOORD_0":37,"TEXCOORD_1":38},"indices":40,"material":0,"mode":4,"extras":{"ASOBO_primitive":{"PrimitiveCount":8,"VertexType":"VTX","VertexVersion":2}}}],"name":"part004"},{"primitives":[{"attributes":{"COLOR_0":46,"NORMAL":43,"POSITION":41,"TANGENT":42,"TEXCOORD_0":44,"TEXCOORD_1":45},"indices":47,"material":0,"mode":4,"extras":{"ASOBO_primitive":{"PrimitiveCount":8,"VertexType":"VTX","VertexVersion":2}}}],"name":"part005"}],"nodes":[{"name":"node_0","children":[1,2,3,4,5,6,7,8,9,10,11,12]},{"mesh":0,"name":"custom_vis_parts_visible_00_mcx_VC"},{"mesh":1,"name":"custom_vis_parts_visible_01_mcx_VC"},{"translation":[-8.082401818440127e-16,-2.0,6.599999904632568],"rotation":[-6.123031769111886e-17,3.061515884555943e-17,1.0,1.874575902277672e-33],"scale":[1.0,1.0,1.0],"name":"c_tire1"},{"translation":[3.2200000286102297,-0.20000000298023225,-1.4999999999999996],"rotation":[-6.123031769111886e-17,3.061515884555943e-17,1.0,1.874575902277672e-33],"scale":[1.0,1.0,1.0],"name":"contrail1"},{"translation":[3.000000000000001,1.5,-8.529999732971192],"rotation":[0.5684126372457637,0.4206032261161532,0.5684126372457639,-0.42060322611615316],"scale":[1.0,1.0,1.0],"name":"logo_l"},{"translation":[-2.999999999999999,1.5,-8.529999732971192],"rotation":[0.5684126372457637,-0.42060322611615316,-0.5684126372457637,-0.42060322611615316],"scale":[1.0,1.0,1.0],"name":"logo_r"},{"translation":[0.9300000071525572,-0.6000000238418579,2.0],"rotation":[-0.7044160264027587,0.0616284167162193,0.0616284167162193,0.7044160264027587],"scale":[1.0,1.0,1.0],"name":"landing_l"},{"translation":[-0.9300000071525576,-0.6000000238418579,2.0],"rotation":[-0.7044160264027587,-0.061628416716219377,-0.061628416716219377,0.7044160264027587],"scale":[1.0,1.0,1.0],"name":"landing_r"},{"translation":[-3.2200000286102297,-0.20000000298023225,-1.5000000000000005],"rotation":[-6.123031769111886e-17,3.061515884555943e-17,1.0,1.874575902277672e-33],"scale":[1.0,1.0,1.0],"name":"contrail2"},{"translation":[3.259999990463257,-2.1500000953674318,-0.4999999999999996],"rotation":[-6.123031769111886e-17,3.061515884555943e-17,1.0,1.874575902277672e-33],"scale":[1.0,1.0,1.0],"name":"l_tire1"},{"translation":[-3.259999990463257,-2.1500000953674318,-0.5000000000000004],"rotation":[-6.123031769111886e-17,3.061515884555943e-17,1.0,1.874575902277672e-33],"scale":[1.0,1.0,1.0],"name":"r_tire1"},{"translation":[0.0,0.0,0.0],"rotation":[-4.329637285359677e-17,0.7071067811865475,0.7071067811865475,4.329637285359677e-17],"scale":[1.0,1.0,1.0],"name":"node_23","children":[13,19,23]},{"translation":[0.0,6.337859153747559,-1.3449549674987794],"rotation":[0.0,0.0,0.0,1.0],"scale":[1.0,1.0,1.0],"name":"node_24","children":[14]},{"translation":[-9.99999997475243e-7,0.6049690246582031,0.516506016254425],"rotation":[0.0,0.0,0.0,1.0],"scale":[1.0,1.0,1.0],"name":"node_25","children":[15]},{"name":"c_gear_AN_25","children":[16]},{"translation":[0.7429620027542113,-9.99999997475243e-7,0.2132290005683899],"rotation":[-0.7064334148352619,0.7064341226155734,0.030843275128249117,-0.03084398290820683],"scale":[1.0,1.0,1.0],"name":"node_53","children":[17,18]},{"translation":[0.0,0.0,0.0],"rotation":[0.7071067811865475,0.0,0.0,0.7071067811865475],"scale":[1.0,1.0,1.0],"name":"landing_nose"},{"translation":[0.0,0.0,0.0],"rotation":[0.7071067811865475,0.0,0.0,0.7071067811865475],"scale":[1.0,1.0,1.0],"name":"taxi_nose"},{"translation":[-3.239000082015991,3.6634368896484377,0.02890699915587902],"rotation":[-0.026176958265470987,0.0,0.0,0.9996573247148085],"scale":[1.0,1.0,1.0],"name":"node_154","children":[20]},{"name":"engine0_AN_154","children":[21,22]},{"mesh":2,"name":"prop0_blurred_VC"},{"mesh":3,"name":"prop0_slow_VC"},{"translation":[3.239032030105591,3.6634368896484377,0.02891799993813038],"rotation":[-0.0241843188783318,-0.3825522977605688,0.010017451166360438,0.9235629428063095],"scale":[1.0,1.0,1.0],"name":"node_171","children":[24]},{"name":"engine1_AN_171","children":[25,26]},{"mesh":4,"name":"prop1_blurred_VC"},{"mesh":5,"name":"prop1_slow_VC"}],"scene":0,"scenes":[{"nodes":[0]}],"textures":[{"extensions":{"MSFT_texture_dds":{"source":0}}},{"extensions":{"MSFT_texture_dds":{"source":1}}},{"extensions":{"MSFT_texture_dds":{"source":2}}}],"extensionsUsed":["ASOBO_material_day_night_switch","MSFT_texture_dds","ASOBO_asset_optimized"],"buffers":[{"byteLength":8172,"uri":"TFS_Saab_340_MSFS_LOD5.bin"}],"images":[{"uri":"TFS_SAAB_340_PROP.PNG.DDS","extras":"ASOBO_image_converted_meta"},{"uri":"TFS_SAAB_340_T.PNG.DDS","extras":"ASOBO_image_converted_meta"},{"uri":"TFS_SAAB_340_L.PNG.DDS","extras":"ASOBO_image_converted_meta"}]}
