{"accessors":[{"bufferView":0,"componentType":5126,"count":101,"min":[0.0],"max":[3.33333325],"type":"SCALAR","name":"accessorAnimationInput"},{"bufferView":1,"componentType":5126,"count":101,"type":"VEC3","name":"accessorAnimationPositions"},{"bufferView":0,"byteOffset":404,"componentType":5126,"count":101,"min":[0.0],"max":[3.33333325],"type":"SCALAR","name":"accessorAnimationInput"},{"bufferView":2,"componentType":5126,"count":101,"type":"VEC4","name":"accessorAnimationRotations"},{"bufferView":0,"byteOffset":808,"componentType":5126,"count":101,"min":[0.0],"max":[3.33333325],"type":"SCALAR","name":"accessorAnimationInput"},{"bufferView":1,"byteOffset":1212,"componentType":5126,"count":101,"type":"VEC3","name":"accessorAnimationPositions"},{"bufferView":0,"byteOffset":1212,"componentType":5126,"count":101,"min":[0.0],"max":[3.33333325],"type":"SCALAR","name":"accessorAnimationInput"},{"bufferView":1,"byteOffset":2424,"componentType":5126,"count":101,"type":"VEC3","name":"accessorAnimationPositions"},{"bufferView":0,"byteOffset":1616,"componentType":5126,"count":101,"min":[0.0],"max":[3.33333325],"type":"SCALAR","name":"accessorAnimationInput"},{"bufferView":2,"byteOffset":1616,"componentType":5126,"count":101,"type":"VEC4","name":"accessorAnimationRotations"},{"bufferView":0,"byteOffset":2020,"componentType":5126,"count":101,"min":[0.0],"max":[3.33333325],"type":"SCALAR","name":"accessorAnimationInput"},{"bufferView":1,"byteOffset":3636,"componentType":5126,"count":101,"type":"VEC3","name":"accessorAnimationScales"},{"bufferView":0,"byteOffset":2424,"componentType":5126,"count":101,"min":[0.0],"max":[3.33333325],"type":"SCALAR","name":"accessorAnimationInput"},{"bufferView":1,"byteOffset":4848,"componentType":5126,"count":101,"type":"VEC3","name":"accessorAnimationPositions"},{"bufferView":0,"byteOffset":2828,"componentType":5126,"count":101,"min":[0.0],"max":[3.33333325],"type":"SCALAR","name":"accessorAnimationInput"},{"bufferView":2,"byteOffset":3232,"componentType":5126,"count":101,"type":"VEC4","name":"accessorAnimationRotations"},{"bufferView":3,"componentType":5126,"count":80,"min":[-0.7706668972969055,-1.1616909503936768,-1.3230552673339844],"max":[0.0005179643630981445,0.0050917863845825199,0.10851192474365235],"type":"VEC3","name":"x0_cargo_door_aft_vertices#0_POSITION"},{"bufferView":3,"byteOffset":12,"componentType":5120,"count":80,"type":"VEC4","name":"x0_cargo_door_aft_vertices#0_TANGENT"},{"bufferView":3,"byteOffset":16,"componentType":5120,"count":80,"type":"VEC4","name":"x0_cargo_door_aft_vertices#0_NORMAL"},{"bufferView":3,"byteOffset":20,"componentType":5122,"count":80,"type":"VEC2","name":"x0_cargo_door_aft_vertices#0_TEXCOORD_0"},{"bufferView":3,"byteOffset":24,"componentType":5122,"count":80,"type":"VEC2","name":"x0_cargo_door_aft_vertices#0_TEXCOORD_1"},{"bufferView":3,"byteOffset":28,"componentType":5123,"count":80,"type":"VEC4","name":"x0_cargo_door_aft_vertices#0_COLOR_0"},{"bufferView":4,"componentType":5123,"count":228,"type":"SCALAR","name":"x0_cargo_door_aft_indices#0"},{"bufferView":3,"byteOffset":2880,"componentType":5126,"count":20,"min":[-0.4700053334236145,-0.5807396173477173,-0.7127494812011719],"max":[0.4700052738189697,0.5807396173477173,0.7127475738525391],"type":"VEC3","name":"x0_cargo_door_forward_fake_vertices#0_POSITION"},{"bufferView":3,"byteOffset":2892,"componentType":5120,"count":20,"type":"VEC4","name":"x0_cargo_door_forward_fake_vertices#0_TANGENT"},{"bufferView":3,"byteOffset":2896,"componentType":5120,"count":20,"type":"VEC4","name":"x0_cargo_door_forward_fake_vertices#0_NORMAL"},{"bufferView":3,"byteOffset":2900,"componentType":5122,"count":20,"type":"VEC2","name":"x0_cargo_door_forward_fake_vertices#0_TEXCOORD_0"},{"bufferView":3,"byteOffset":2904,"componentType":5122,"count":20,"type":"VEC2","name":"x0_cargo_door_forward_fake_vertices#0_TEXCOORD_1"},{"bufferView":3,"byteOffset":2908,"componentType":5123,"count":20,"type":"VEC4","name":"x0_cargo_door_forward_fake_vertices#0_COLOR_0"},{"bufferView":4,"byteOffset":456,"componentType":5123,"count":54,"type":"SCALAR","name":"x0_cargo_door_forward_fake_indices#0"},{"bufferView":3,"byteOffset":3600,"componentType":5126,"count":80,"min":[-0.9577305316925049,-1.1603600978851319,-1.3275489807128907],"max":[0.0002557039260864258,0.008176147937774659,0.09794807434082031],"type":"VEC3","name":"x0_cargo_door_forward_vertices#0_POSITION"},{"bufferView":3,"byteOffset":3612,"componentType":5120,"count":80,"type":"VEC4","name":"x0_cargo_door_forward_vertices#0_TANGENT"},{"bufferView":3,"byteOffset":3616,"componentType":5120,"count":80,"type":"VEC4","name":"x0_cargo_door_forward_vertices#0_NORMAL"},{"bufferView":3,"byteOffset":3620,"componentType":5122,"count":80,"type":"VEC2","name":"x0_cargo_door_forward_vertices#0_TEXCOORD_0"},{"bufferView":3,"byteOffset":3624,"componentType":5122,"count":80,"type":"VEC2","name":"x0_cargo_door_forward_vertices#0_TEXCOORD_1"},{"bufferView":3,"byteOffset":3628,"componentType":5123,"count":80,"type":"VEC4","name":"x0_cargo_door_forward_vertices#0_COLOR_0"},{"bufferView":4,"byteOffset":564,"componentType":5123,"count":228,"type":"SCALAR","name":"x0_cargo_door_forward_indices#0"},{"bufferView":3,"byteOffset":6480,"componentType":5126,"count":20,"min":[-0.3746373653411865,-0.5821964740753174,-0.7157840728759766],"max":[0.3746373653411865,0.5821965336799622,0.7157831192016602],"type":"VEC3","name":"x0_cargo_door_aft_fake_vertices#0_POSITION"},{"bufferView":3,"byteOffset":6492,"componentType":5120,"count":20,"type":"VEC4","name":"x0_cargo_door_aft_fake_vertices#0_TANGENT"},{"bufferView":3,"byteOffset":6496,"componentType":5120,"count":20,"type":"VEC4","name":"x0_cargo_door_aft_fake_vertices#0_NORMAL"},{"bufferView":3,"byteOffset":6500,"componentType":5122,"count":20,"type":"VEC2","name":"x0_cargo_door_aft_fake_vertices#0_TEXCOORD_0"},{"bufferView":3,"byteOffset":6504,"componentType":5122,"count":20,"type":"VEC2","name":"x0_cargo_door_aft_fake_vertices#0_TEXCOORD_1"},{"bufferView":3,"byteOffset":6508,"componentType":5123,"count":20,"type":"VEC4","name":"x0_cargo_door_aft_fake_vertices#0_COLOR_0"},{"bufferView":4,"byteOffset":1020,"componentType":5123,"count":54,"type":"SCALAR","name":"x0_cargo_door_aft_fake_indices#0"}],"animations":[{"name":"Cargo_Door_forward","channels":[{"sampler":0,"target":{"node":31,"path":"translation","extensions":{"ASOBO_animation_retargeting":{"id":"x0_cargo_door_forward"}}}},{"sampler":1,"target":{"node":31,"path":"rotation","extensions":{"ASOBO_animation_retargeting":{"id":"x0_cargo_door_forward"}}}},{"sampler":2,"target":{"node":30,"path":"translation","extensions":{"ASOBO_animation_retargeting":{"id":"x0_cargo_door_forward_fake"}}}}],"samplers":[{"input":0,"output":1,"interpolation":"LINEAR"},{"input":2,"output":3,"interpolation":"LINEAR"},{"input":4,"output":5,"interpolation":"LINEAR"}]},{"name":"Cargo_Door_aft","channels":[{"sampler":0,"target":{"node":32,"path":"translation","extensions":{"ASOBO_animation_retargeting":{"id":"x0_cargo_door_aft_fake"}}}},{"sampler":1,"target":{"node":32,"path":"rotation","extensions":{"ASOBO_animation_retargeting":{"id":"x0_cargo_door_aft_fake"}}}},{"sampler":2,"target":{"node":32,"path":"scale","extensions":{"ASOBO_animation_retargeting":{"id":"x0_cargo_door_aft_fake"}}}},{"sampler":3,"target":{"node":29,"path":"translation","extensions":{"ASOBO_animation_retargeting":{"id":"x0_cargo_door_aft"}}}},{"sampler":4,"target":{"node":29,"path":"rotation","extensions":{"ASOBO_animation_retargeting":{"id":"x0_cargo_door_aft"}}}}],"samplers":[{"input":6,"output":7,"interpolation":"LINEAR"},{"input":8,"output":9,"interpolation":"LINEAR"},{"input":10,"output":11,"interpolation":"LINEAR"},{"input":12,"output":13,"interpolation":"LINEAR"},{"input":14,"output":15,"interpolation":"LINEAR"}]}],"asset":{"generator":"babylon.js glTF exporter for 3dsmax 2021 v1.0.8378.27976","version":"2.0","extensions":{"ASOBO_asset_optimized":{"BoundingBoxMax":[0.4700052738189697,0.5821965336799622,0.7157831192016602],"BoundingBoxMin":[-0.9577305316925049,-1.1616909503936768,-1.3275489807128907],"MajorVersion":4,"MinorVersion":4,"UseCheckerboardMaterialForMissingTextures":true,"UseOnlyFilenameForImageURI":true},"ASOBO_normal_map_convention":{"tangent_space_convention":"DirectX"}}},"bufferViews":[{"buffer":0,"byteLength":3232,"name":"bufferViewAnimationFloatScalar"},{"buffer":0,"byteLength":6060,"byteOffset":3232,"name":"bufferViewAnimationFloatVec3"},{"buffer":0,"byteLength":4848,"byteOffset":9292,"name":"bufferViewAnimationFloatVec4"},{"buffer":0,"byteLength":7200,"byteStride":36,"byteOffset":14140,"target":34962,"name":"BufferViewVertexND"},{"buffer":0,"byteLength":1128,"byteOffset":21340,"target":34963,"name":"BufferViewIndex"}],"extensionsRequired":["MSFT_texture_dds"],"materials":[{"name":"Fuselage","occlusionTexture":{"index":1},"emissiveTexture":{"index":2},"emissiveFactor":[0.05999999865889549,0.05999999865889549,0.05999999865889549],"pbrMetallicRoughness":{"baseColorTexture":{"index":0},"metallicRoughnessTexture":{"index":1}}},{"name":"T2","pbrMetallicRoughness":{"metallicFactor":0.0,"baseColorTexture":{"index":3}}}],"meshes":[{"primitives":[{"attributes":{"COLOR_0":21,"NORMAL":18,"POSITION":16,"TANGENT":17,"TEXCOORD_0":19,"TEXCOORD_1":20},"indices":22,"material":0,"mode":4,"extras":{"ASOBO_primitive":{"PrimitiveCount":76,"VertexType":"VTX","VertexVersion":2}}}],"name":"x0_cargo_door_aft"},{"primitives":[{"attributes":{"COLOR_0":28,"NORMAL":25,"POSITION":23,"TANGENT":24,"TEXCOORD_0":26,"TEXCOORD_1":27},"indices":29,"material":1,"mode":4,"extras":{"ASOBO_primitive":{"PrimitiveCount":18,"VertexType":"VTX","VertexVersion":2}}}],"name":"x0_cargo_door_forward_fake"},{"primitives":[{"attributes":{"COLOR_0":35,"NORMAL":32,"POSITION":30,"TANGENT":31,"TEXCOORD_0":33,"TEXCOORD_1":34},"indices":36,"material":0,"mode":4,"extras":{"ASOBO_primitive":{"PrimitiveCount":76,"VertexType":"VTX","VertexVersion":2}}}],"name":"x0_cargo_door_forward"},{"primitives":[{"attributes":{"COLOR_0":42,"NORMAL":39,"POSITION":37,"TANGENT":38,"TEXCOORD_0":40,"TEXCOORD_1":41},"indices":43,"material":1,"mode":4,"extras":{"ASOBO_primitive":{"PrimitiveCount":18,"VertexType":"VTX","VertexVersion":2}}}],"name":"x0_cargo_door_aft_fake"}],"nodes":[{"translation":[0.00130081177,-2.38418579e-7,3.09120941],"extensions":{"ASOBO_unique_id":{"id":"x0_LOD0"}},"name":"LOD0","children":[1,2,13,14,25,26,27,28,29,30,31,32]},{"translation":[-10.4228716,-0.4648195,-2.250566],"rotation":[0.0,-1.0,0.0,1.62920685e-7],"extensions":{"ASOBO_unique_id":{"id":"x0_r_slats2"}},"name":"r_slats2"},{"translation":[-0.00130356883,-0.800000131,-0.09121108],"rotation":[-0.000833432132,-0.999090552,-0.0009650367,-0.0426197164],"scale":[1.0,0.9999999,1.0],"extensions":{"ASOBO_unique_id":{"id":"x0_WING_Bone_Start_Right"}},"name":"WING_Bone_Start_Right","children":[3]},{"translation":[2.28886461,-5.96046448e-8,0.0],"rotation":[-0.0024119562,-0.2126879,0.0101446565,0.97706455],"scale":[1.00000012,1.00000048,1.00000012],"extensions":{"ASOBO_unique_id":{"id":"x0_WING_Bone_1_Right"}},"name":"WING_Bone_1_Right","children":[4,11]},{"translation":[6.137939,0.00000208616257,0.00000214576721],"rotation":[0.00469727,0.07800453,0.007435823,0.9969142],"scale":[1.00000012,0.9999996,1.00000012],"extensions":{"ASOBO_unique_id":{"id":"x0_WING_Bone_2_Right"}},"name":"WING_Bone_2_Right","children":[5,9]},{"translation":[7.196912,0.0000132322311,0.00000143051147],"rotation":[-0.000157362345,-0.00213740766,0.000448845385,0.9999976],"scale":[1.00000024,1.00000012,1.0000006],"extensions":{"ASOBO_unique_id":{"id":"x0_WING_Bone_3_Right"}},"name":"WING_Bone_3_Right","children":[6,8]},{"translation":[4.55188274,0.0000278949738,2.38418579e-7],"rotation":[0.009475335,0.7833851,-0.0188003555,0.621179938],"scale":[0.999999344,0.9999997,0.9999995],"extensions":{"ASOBO_unique_id":{"id":"x0_bone_slat4-1"}},"name":"bone_slat4-1","children":[7]},{"translation":[0.947940052,1.1920929e-7,0.0],"rotation":[-7.532073e-8,-8.13634e-9,3.02679881e-9,1.0],"scale":[1.0,0.9999998,0.99999994],"extensions":{"ASOBO_unique_id":{"id":"x0_bone_slat4-2"}},"name":"bone_slat4-2"},{"translation":[4.55186367,5.96046448e-8,9.536743e-7],"rotation":[-2.47964635e-8,-4.45088446e-8,-1.86264515e-9,1.0],"scale":[1.00000012,0.9999999,1.00000024],"extensions":{"ASOBO_unique_id":{"id":"x0_WING_Bone_End_Right"}},"name":"WING_Bone_End_Right"},{"translation":[7.19691658,0.00000548362732,-0.00000762939453],"rotation":[0.0122073228,0.8150719,-0.0141534,0.5790583],"scale":[0.9999999,0.9999997,0.9999995],"extensions":{"ASOBO_unique_id":{"id":"x0_bone_slat3-1"}},"name":"bone_slat3-1","children":[10]},{"translation":[1.65512848,0.00000289082527,-0.00004673004],"rotation":[-7.597265e-8,-1.66879888e-9,1.16415336e-10,1.0],"scale":[0.99999994,1.0,1.0],"extensions":{"ASOBO_unique_id":{"id":"x0_bone_slat3-2"}},"name":"bone_slat3-2"},{"translation":[6.13793945,0.0,-7.15255737e-7],"rotation":[0.003248577,-0.9165004,0.0123504475,-0.399829924],"scale":[1.0,0.9999998,0.9999998],"extensions":{"ASOBO_unique_id":{"id":"x0_bone_slat2-1"}},"name":"bone_slat2-1","children":[12]},{"translation":[3.30489326,-8.940697e-7,-0.00000143051147],"rotation":[0.0,-2.54658544e-10,1.86264515e-9,1.0],"scale":[0.99999994,1.0,0.99999994],"extensions":{"ASOBO_unique_id":{"id":"x0_bone_slat2-2"}},"name":"bone_slat2-2"},{"translation":[10.4202623,-0.4648195,-2.250568],"extensions":{"ASOBO_unique_id":{"id":"x0_l_slats2"}},"name":"l_slats2"},{"translation":[-0.00130356883,-0.800000131,-0.09121108],"rotation":[0.0009602915,0.0426197425,0.0007221916,0.9990907],"extensions":{"ASOBO_unique_id":{"id":"x0_WING_Bone_Start_Left"}},"name":"WING_Bone_Start_Left","children":[15]},{"translation":[2.28886962,0.0005093217,-0.000016450882],"rotation":[0.00238837046,0.2126872,0.0102565968,0.9770636],"scale":[0.9999999,1.0,0.9999998],"extensions":{"ASOBO_unique_id":{"id":"x0_WING_Bone_1_Left"}},"name":"WING_Bone_1_Left","children":[16,23]},{"translation":[6.13791847,-0.000506162643,0.000008106232],"rotation":[-0.004748638,-0.0779989,0.00741269439,0.996914566],"scale":[1.00000024,0.9999999,1.00000012],"extensions":{"ASOBO_unique_id":{"id":"x0_WING_Bone_2_Left"}},"name":"WING_Bone_2_Left","children":[17,21]},{"translation":[7.196904,-0.000117003918,-0.000485897064],"rotation":[0.00015854447,0.00213779625,0.0008903599,0.9999973],"scale":[1.00000012,0.99999994,1.00000048],"extensions":{"ASOBO_unique_id":{"id":"x0_WING_Bone_3_Left"}},"name":"WING_Bone_3_Left","children":[18,20]},{"translation":[4.55186844,-0.00425756,-0.00100660324],"rotation":[-0.009775851,-0.783383548,-0.0191062,0.621168],"scale":[0.9999999,1.00000024,1.00000012],"extensions":{"ASOBO_unique_id":{"id":"x0_bone_slat4-1(mirrored)"}},"name":"bone_slat4-1(mirrored)","children":[19]},{"translation":[0.949835062,0.0007978827,0.00000190734863],"rotation":[-3.44880448e-7,9.977228e-10,2.32830644e-9,1.0],"scale":[0.9999997,0.999999762,0.99999994],"extensions":{"ASOBO_unique_id":{"id":"x0_bone_slat4-2(mirrored)"}},"name":"bone_slat4-2(mirrored)"},{"translation":[4.55186844,-0.0042579174,-0.00100564957],"rotation":[1.110223e-16,2.38829671e-7,-1.110223e-16,1.0],"scale":[1.00000024,1.00000012,0.999999642],"extensions":{"ASOBO_unique_id":{"id":"x0_WING_Bone_End_Left"}},"name":"WING_Bone_End_Left"},{"translation":[7.196905,-0.000116348267,-0.0004849434],"rotation":[-0.0121636763,-0.815074146,-0.014187458,0.5790553],"scale":[1.00000024,1.00000024,1.00000024],"extensions":{"ASOBO_unique_id":{"id":"x0_bone_slat3-1(mirrored)"}},"name":"bone_slat3-1(mirrored)","children":[22]},{"translation":[1.65526485,0.0008969605,-0.000551223755],"rotation":[-3.49464955e-7,3.37823464e-10,2.32830588e-10,1.0],"scale":[1.00000024,1.00000024,1.00000024],"extensions":{"ASOBO_unique_id":{"id":"x0_bone_slat3-2(mirrored)"}},"name":"bone_slat3-2(mirrored)"},{"translation":[6.13791943,-0.000506281853,0.000008583069],"rotation":[0.00333938538,-0.9164583,-0.01184291,0.3999409],"scale":[1.0,0.9999999,0.99999994],"extensions":{"ASOBO_unique_id":{"id":"x0_bone_slat2-1(mirrored)"}},"name":"bone_slat2-1(mirrored)","children":[24]},{"translation":[3.30496454,0.0,0.000203609467],"rotation":[-0.0005005657,-0.000123841441,-0.000119981341,0.9999999],"scale":[1.00000024,1.00000024,1.00000024],"extensions":{"ASOBO_unique_id":{"id":"x0_bone_slat2-2(mirrored)"}},"name":"bone_slat2-2(mirrored)"},{"translation":[-0.00130383112,1.1920929e-7,-3.091211],"extensions":{"ASOBO_unique_id":{"id":"x0_wing_l_scimitar"}},"name":"wing_l_scimitar"},{"translation":[-0.00130383112,1.1920929e-7,-3.091211],"extensions":{"ASOBO_unique_id":{"id":"x0_wing_l_winglet"}},"name":"wing_l_winglet"},{"translation":[-0.00130383112,1.1920929e-7,-3.091211],"rotation":[0.0,-1.0,0.0,1.62920685e-7],"extensions":{"ASOBO_unique_id":{"id":"x0_wing_r_scimitar"}},"name":"wing_r_scimitar"},{"translation":[-0.00130383112,1.1920929e-7,-3.091211],"rotation":[0.0,-1.0,0.0,1.62920685e-7],"extensions":{"ASOBO_unique_id":{"id":"x0_wing_r_winglet"}},"name":"wing_r_winglet"},{"translation":[-1.68210316,-0.86509943,-11.792037],"rotation":[0.0,-1.0,0.0,1.94707184e-7],"mesh":0,"extensions":{"ASOBO_unique_id":{"id":"x0_cargo_door_aft"}},"name":"cargo_door_aft"},{"translation":[-1.22913229,-1.34215462,9.455931],"rotation":[0.0,-1.0,0.0,7.54979e-8],"mesh":1,"extensions":{"ASOBO_unique_id":{"id":"x0_cargo_door_forward_fake"}},"name":"cargo_door_forward_fake"},{"translation":[-1.68582046,-0.7625342,8.841131],"rotation":[0.0,-1.0,0.0,7.54979e-8],"mesh":2,"extensions":{"ASOBO_unique_id":{"id":"x0_cargo_door_forward"}},"name":"cargo_door_forward"},{"translation":[-1.29724145,-1.44459391,-11.1847658],"rotation":[0.0,-1.0,0.0,7.54979e-8],"mesh":3,"extensions":{"ASOBO_unique_id":{"id":"x0_cargo_door_aft_fake"}},"name":"cargo_door_aft_fake"}],"scene":0,"scenes":[{"nodes":[0]}],"textures":[{"extensions":{"MSFT_texture_dds":{"source":0}}},{"extensions":{"MSFT_texture_dds":{"source":1}}},{"extensions":{"MSFT_texture_dds":{"source":2}}},{"extensions":{"MSFT_texture_dds":{"source":3}}}],"extensionsUsed":["ASOBO_normal_map_convention","ASOBO_unique_id","ASOBO_animation_retargeting","MSFT_texture_dds","ASOBO_asset_optimized"],"buffers":[{"byteLength":22468,"uri":"AIG_B757-200_PW_cargo.bin"}],"images":[{"uri":"AIG_B752_PW.PNG.DDS","extras":"ASOBO_image_converted_meta"},{"uri":"AIG_B752_PW_C.PNG.DDS","extras":"ASOBO_image_converted_meta"},{"uri":"AIG_B752_PW_L.PNG.DDS","extras":"ASOBO_image_converted_meta"},{"uri":"AIG_B752_PW_T2.PNG.DDS","extras":"ASOBO_image_converted_meta"}]}
