{"accessors":[{"bufferView":0,"componentType":5126,"count":2,"min":[0.0],"max":[100.0],"type":"SCALAR"},{"bufferView":1,"componentType":5126,"count":2,"type":"VEC4"},{"bufferView":2,"componentType":5126,"count":212,"min":[-9.768810272216797,-1.03780996799469,-12.531270027160645],"max":[9.768810272216797,4.124169826507568,8.443400382995606],"type":"VEC3","name":"part000_vertices#0_POSITION"},{"bufferView":2,"byteOffset":12,"componentType":5120,"count":212,"type":"VEC4","name":"part000_vertices#0_TANGENT"},{"bufferView":2,"byteOffset":16,"componentType":5120,"count":212,"type":"VEC4","name":"part000_vertices#0_NORMAL"},{"bufferView":2,"byteOffset":20,"componentType":5122,"count":212,"type":"VEC2","name":"part000_vertices#0_TEXCOORD_0"},{"bufferView":2,"byteOffset":24,"componentType":5122,"count":212,"type":"VEC2","name":"part000_vertices#0_TEXCOORD_1"},{"bufferView":2,"byteOffset":28,"componentType":5123,"count":212,"type":"VEC4","name":"part000_vertices#0_COLOR_0"},{"bufferView":3,"componentType":5123,"count":492,"type":"SCALAR","name":"part000_indices#0"}],"animations":[{"name":"c_gear","channels":[{"sampler":0,"target":{"node":18,"path":"rotation"}}],"samplers":[{"input":0,"output":1,"interpolation":"LINEAR"}]}],"asset":{"generator":"ModelConverterX","version":"2.0","extensions":{"ASOBO_asset_optimized":{"BoundingBoxMax":[9.768810272216797,4.124169826507568,8.443400382995606],"BoundingBoxMin":[-9.768810272216797,-1.03780996799469,-12.531270027160645],"MajorVersion":4,"MinorVersion":4,"UseCheckerboardMaterialForMissingTextures":true,"UseOnlyFilenameForImageURI":true}}},"bufferViews":[{"buffer":0,"byteLength":8,"byteStride":4},{"buffer":0,"byteLength":32,"byteStride":16,"byteOffset":8},{"buffer":0,"byteLength":7632,"byteStride":36,"byteOffset":40,"target":34962,"name":"BufferViewVertexND"},{"buffer":0,"byteLength":984,"byteOffset":7672,"target":34963,"name":"BufferViewIndex"}],"extensionsRequired":["MSFT_texture_dds"],"materials":[{"name":"material00","emissiveTexture":{"index":1},"emissiveFactor":[0.019607843831181527,0.019607843831181527,0.019607843831181527],"pbrMetallicRoughness":{"metallicFactor":0.0,"baseColorTexture":{"index":0}},"extensions":{"ASOBO_material_day_night_switch":{}}}],"meshes":[{"primitives":[{"attributes":{"COLOR_0":7,"NORMAL":4,"POSITION":2,"TANGENT":3,"TEXCOORD_0":5,"TEXCOORD_1":6},"indices":8,"material":0,"mode":4,"extras":{"ASOBO_primitive":{"PrimitiveCount":164,"VertexType":"VTX","VertexVersion":2}}}],"name":"part000"}],"nodes":[{"name":"node_0","children":[1,2,3,4,5,6,7,8,9,10,11,12,13,14,15]},{"mesh":0,"name":"node_9"},{"translation":[0.8399999737739571,0.8299999833106996,-7.019999980926514],"rotation":[-0.2624833923709055,0.32575405055535736,0.8669252639468338,-0.2709748798404576],"scale":[1.0,1.0,1.0],"name":"logo_l"},{"translation":[1.7000000476837168,0.699999988079071,-8.0],"rotation":[-6.123031769111886e-17,0.0,1.0,0.0],"scale":[1.0,1.0,1.0],"name":"contrail1"},{"translation":[0.7001010179519651,-0.7241989970207214,1.8353580236434937],"rotation":[-0.4768949046610304,0.5220835660201791,-0.47689490466103048,0.5220835660201793],"scale":[1.0,1.0,1.0],"name":"landing_l"},{"translation":[-0.7001000046730044,-0.7241989970207214,1.8353580236434937],"rotation":[-0.4768949046610304,0.5220835660201791,-0.47689490466103048,0.5220835660201793],"scale":[1.0,1.0,1.0],"name":"landing_r"},{"translation":[-0.0026660000439720267,4.1464080810546879,-10.617429733276368],"rotation":[-6.123031769111886e-17,0.0,1.0,0.0],"scale":[1.0,1.0,1.0],"name":"beacon"},{"translation":[-0.002666000043972027,4.1464080810546879,-10.61376953125],"rotation":[-6.123031769111886e-17,0.0,1.0,0.0],"scale":[1.0,1.0,1.0],"name":"strobe1"},{"translation":[-0.011579000391065802,-1.2182300090789796,-2.228456974029541],"rotation":[0.0,1.0,0.0,6.123031769111886e-17],"scale":[1.0,1.0,1.0],"name":"beacon_b"},{"translation":[-0.011579000391065802,-1.2102340459823609,-2.228456974029541],"rotation":[0.0,1.0,0.0,6.123031769111886e-17],"scale":[1.0,1.0,1.0],"name":"strobe2"},{"translation":[-1.7000000476837148,0.699999988079071,-8.0],"rotation":[-6.123031769111886e-17,0.0,1.0,0.0],"scale":[1.0,1.0,1.0],"name":"contrail2"},{"translation":[-7.347638122934264e-16,-1.7000000476837159,6.0],"rotation":[-6.123031769111886e-17,0.0,1.0,0.0],"scale":[1.0,1.0,1.0],"name":"c_tire1"},{"translation":[1.6200000047683719,-1.830000042915344,-2.5],"rotation":[-6.123031769111886e-17,0.0,1.0,0.0],"scale":[1.0,1.0,1.0],"name":"l_tire1"},{"translation":[-1.6200000047683714,-1.830000042915344,-2.5],"rotation":[-6.123031769111886e-17,0.0,1.0,0.0],"scale":[1.0,1.0,1.0],"name":"r_tire1"},{"translation":[-0.8399999737739554,0.8299999833106996,-7.019999980926514],"rotation":[0.26248339237090537,0.32575405055535736,0.8669252639468338,0.27097487984045767],"scale":[1.0,1.0,1.0],"name":"logo_r"},{"translation":[0.0,0.0,0.0],"rotation":[-4.329637285359677e-17,0.7071067811865475,0.7071067811865475,4.329637285359677e-17],"scale":[1.0,1.0,1.0],"name":"node_23","children":[16]},{"translation":[-9.99999997475243e-7,6.142282009124756,-0.529030978679657],"rotation":[0.0,0.0,0.0,1.0],"scale":[1.0,1.0,1.0],"name":"node_248","children":[17]},{"translation":[0.0,0.0,0.0],"rotation":[0.816641636558179,0.0,0.0,0.5771450748638327],"scale":[1.0,1.0,1.0],"name":"node_249","children":[18]},{"name":"c_gear_AN_249","children":[19,21,23]},{"translation":[-0.08436699956655503,0.10743195735952282,-0.4831887934724934],"rotation":[-0.5263252317622639,0.5263252317622639,0.4722094349019291,0.4722094349019291],"scale":[1.0,1.0,1.0],"name":"node_261","children":[20]},{"translation":[0.0,0.0,0.0],"rotation":[-0.7071067811865475,0.0,0.0,0.7071067811865475],"scale":[1.0,1.0,1.0],"name":"landing_nose_l"},{"translation":[0.08406999707221986,0.10743195735952282,-0.4831887934724934],"rotation":[-0.5263252317622639,0.5263252317622639,0.4722094349019291,0.4722094349019291],"scale":[1.0,1.0,1.0],"name":"node_263","children":[22]},{"translation":[0.0,0.0,0.0],"rotation":[-0.7071067811865475,0.0,0.0,0.7071067811865475],"scale":[1.0,1.0,1.0],"name":"landing_nose_r"},{"translation":[0.08406999707221986,0.10744396024006256,-0.48302979814616306],"rotation":[-0.5263252317622639,0.5263252317622639,0.4722094349019291,0.4722094349019291],"scale":[1.0,1.0,1.0],"name":"node_265","children":[24]},{"translation":[0.0,0.0,0.0],"rotation":[-0.7071067811865475,0.0,0.0,0.7071067811865475],"scale":[1.0,1.0,1.0],"name":"taxi"}],"scene":0,"scenes":[{"nodes":[0]}],"textures":[{"extensions":{"MSFT_texture_dds":{"source":0}}},{"extensions":{"MSFT_texture_dds":{"source":1}}}],"extensionsUsed":["ASOBO_material_day_night_switch","MSFT_texture_dds","ASOBO_asset_optimized"],"buffers":[{"byteLength":8656,"uri":"KCAI_Challenger_300_MSFS_LOD4.bin"}],"images":[{"uri":"AI_CL30_T.PNG.DDS","extras":"ASOBO_image_converted_meta"},{"uri":"AI_CL30_L.PNG.DDS","extras":"ASOBO_image_converted_meta"}]}
