{"accessors":[{"bufferView":0,"componentType":5126,"count":102,"min":[-32.69601058959961,-4.23199987411499,-37.09199905395508],"max":[32.69601058959961,13.36400032043457,11.739999771118164],"type":"VEC3","name":"part000_vertices#0_POSITION"},{"bufferView":0,"byteOffset":12,"componentType":5120,"count":102,"type":"VEC4","name":"part000_vertices#0_TANGENT"},{"bufferView":0,"byteOffset":16,"componentType":5120,"count":102,"type":"VEC4","name":"part000_vertices#0_NORMAL"},{"bufferView":0,"byteOffset":20,"componentType":5122,"count":102,"type":"VEC2","name":"part000_vertices#0_TEXCOORD_0"},{"bufferView":0,"byteOffset":24,"componentType":5122,"count":102,"type":"VEC2","name":"part000_vertices#0_TEXCOORD_1"},{"bufferView":0,"byteOffset":28,"componentType":5123,"count":102,"type":"VEC4","name":"part000_vertices#0_COLOR_0"},{"bufferView":1,"componentType":5123,"count":204,"type":"SCALAR","name":"part000_indices#0"},{"bufferView":0,"byteOffset":3672,"componentType":5126,"count":40,"min":[-2.315999984741211,-2.4000000953674318,-36.444000244140628],"max":[2.315999984741211,4.047999858856201,37.0],"type":"VEC3","name":"part001_vertices#0_POSITION"},{"bufferView":0,"byteOffset":3684,"componentType":5120,"count":40,"type":"VEC4","name":"part001_vertices#0_TANGENT"},{"bufferView":0,"byteOffset":3688,"componentType":5120,"count":40,"type":"VEC4","name":"part001_vertices#0_NORMAL"},{"bufferView":0,"byteOffset":3692,"componentType":5122,"count":40,"type":"VEC2","name":"part001_vertices#0_TEXCOORD_0"},{"bufferView":0,"byteOffset":3696,"componentType":5122,"count":40,"type":"VEC2","name":"part001_vertices#0_TEXCOORD_1"},{"bufferView":0,"byteOffset":3700,"componentType":5123,"count":40,"type":"VEC4","name":"part001_vertices#0_COLOR_0"},{"bufferView":1,"byteOffset":408,"componentType":5123,"count":78,"type":"SCALAR","name":"part001_indices#0"}],"asset":{"generator":"ModelConverterX","version":"2.0","extensions":{"ASOBO_asset_optimized":{"BoundingBoxMax":[32.69601058959961,13.36400032043457,37.0],"BoundingBoxMin":[-32.69601058959961,-4.23199987411499,-37.09199905395508],"MajorVersion":4,"MinorVersion":4,"UseCheckerboardMaterialForMissingTextures":true,"UseOnlyFilenameForImageURI":true}}},"bufferViews":[{"buffer":0,"byteLength":5112,"byteStride":36,"target":34962,"name":"BufferViewVertexND"},{"buffer":0,"byteLength":564,"byteOffset":5112,"target":34963,"name":"BufferViewIndex"}],"extensionsRequired":["MSFT_texture_dds"],"materials":[{"name":"material00","emissiveTexture":{"index":1},"emissiveFactor":[0.019607843831181527,0.019607843831181527,0.019607843831181527],"pbrMetallicRoughness":{"metallicFactor":0.0,"baseColorTexture":{"index":0}},"extensions":{"ASOBO_material_day_night_switch":{}}}],"meshes":[{"primitives":[{"attributes":{"COLOR_0":5,"NORMAL":2,"POSITION":0,"TANGENT":1,"TEXCOORD_0":3,"TEXCOORD_1":4},"indices":6,"material":0,"mode":4,"extras":{"ASOBO_primitive":{"PrimitiveCount":68,"VertexType":"VTX","VertexVersion":2}}}],"name":"part000"},{"primitives":[{"attributes":{"COLOR_0":12,"NORMAL":9,"POSITION":7,"TANGENT":8,"TEXCOORD_0":10,"TEXCOORD_1":11},"indices":13,"material":0,"mode":4,"extras":{"ASOBO_primitive":{"PrimitiveCount":26,"VertexType":"VTX","VertexVersion":2}}}],"name":"part001"}],"nodes":[{"name":"node_0","children":[1,2,3,4,5,6,7,8,9,10,11,12,13,14,15,16,17,18,19,20,21,22,23,24,25,26,27,28,29]},{"mesh":0,"name":"custom_vis_parts_visible_00_mcx_VC"},{"mesh":1,"name":"custom_vis_parts_visible_01_mcx_VC"},{"translation":[-5.480000019073486,-4.900000095367432,-2.4000000953674327],"rotation":[-6.123031769111886e-17,3.061515884555943e-17,1.0,1.874575902277672e-33],"scale":[1.0,1.0,1.0],"name":"r_tire1"},{"translation":[5.480000019073486,-4.900000095367432,-2.4000000953674309],"rotation":[-6.123031769111886e-17,3.061515884555943e-17,1.0,1.874575902277672e-33],"scale":[1.0,1.0,1.0],"name":"l_tire1"},{"translation":[-3.771787476342872e-15,-4.699999809265137,30.799999237060548],"rotation":[-6.123031769111886e-17,3.061515884555943e-17,1.0,1.874575902277672e-33],"scale":[1.0,1.0,1.0],"name":"c_tire1"},{"translation":[-9.720000267028809,-2.0999999046325685,3.299999952316283],"rotation":[-6.123031769111886e-17,3.061515884555943e-17,1.0,1.874575902277672e-33],"scale":[1.0,1.0,1.0],"name":"contrail2"},{"translation":[5.238345146179203,2.1839780807495119,-31.107929229736329],"rotation":[0.6654556746894738,-0.2908490812735618,0.6097777796447622,0.3174060749220254],"scale":[1.0,1.0000000000000003,1.0],"name":"LIGHT_Logolight_l"},{"translation":[-5.238031864166256,2.1839959621429445,-31.107919692993165],"rotation":[0.6654556746894739,0.2908490812735618,-0.609777779644762,0.3174060749220254],"scale":[1.0,1.0000000000000003,1.0000000000000003],"name":"LIGHT_Logolight_r"},{"translation":[19.43371963500977,0.8510140180587769,-4.652180194854734],"rotation":[0.8594559572566867,0.13225747231871835,0.4704409143779175,-0.15009585147872996],"scale":[1.0,1.0,1.0],"name":"LIGHT_Gearlight_left"},{"translation":[30.861839294433595,2.645159959793091,-9.652495384216304],"rotation":[0.573576436351046,2.5078469954572226e-17,0.8191520442889918,-1.756013370895718e-17],"scale":[1.0,1.0,1.0],"name":"LIGHT_Strobe_Left"},{"translation":[32.48556900024414,2.8122849464416506,-12.55862998962402],"rotation":[-6.123031769111886e-17,3.061515884555943e-17,1.0,1.874575902277672e-33],"scale":[1.0,1.0,1.0],"name":"LIGHT_Navwhi_left"},{"translation":[30.512680053710939,2.645111083984375,-9.213137626647944],"rotation":[0.49999999999999997,2.6513505301150338e-17,0.8660254037844387,-1.530757942277971e-17],"scale":[1.0,1.0,1.0],"name":"LIGHT_Nav_Red"},{"translation":[-19.433780670166017,0.8510119915008546,-4.652173042297366],"rotation":[0.789079500569811,-0.08029854415823559,-0.5808035280240955,-0.18322922098106893],"scale":[1.0,1.0,1.0],"name":"LIGHT_Gearlight_right"},{"translation":[-30.861839294433595,2.6454460620880129,-9.652318954467776],"rotation":[0.8191520442889917,1.7560133708957189e-17,0.5735764363510462,-2.5078469954572226e-17],"scale":[1.0,1.0,1.0],"name":"LIGHT_Strobe_Right"},{"translation":[-32.48556900024414,2.8122808933258058,-12.558629989624029],"rotation":[-6.123031769111886e-17,3.061515884555943e-17,1.0,1.874575902277672e-33],"scale":[1.0,1.0,1.0],"name":"LIGHT_Navwhi_right"},{"translation":[-30.512680053710939,2.6448490619659426,-9.213129997253422],"rotation":[0.8660254037844386,1.5307579422779723e-17,0.5000000000000002,-2.6513505301150338e-17],"scale":[1.0,1.0,1.0],"name":"LIGHT_Nav_Green"},{"translation":[-3.631625890731813,-0.42018800973892209,10.014479637145996],"rotation":[1.0,3.749151804555344e-33,1.224606353822377e-16,-3.061515884555943e-17],"scale":[1.0,1.0,1.0],"name":"LIGHT_Landing_turnoff_right"},{"translation":[3.63162589073181,-0.42018800973892209,10.014479637145996],"rotation":[1.0,3.749151804555344e-33,1.224606353822377e-16,-3.061515884555943e-17],"scale":[1.0,1.0,1.0],"name":"LIGHT_Landing_turnoff_left"},{"translation":[-0.31013900041580585,-2.4410929679870607,31.1839599609375],"rotation":[1.0,3.749151804555344e-33,1.224606353822377e-16,-3.061515884555943e-17],"scale":[1.0,1.0,1.0],"name":"LIGHT_Taxi_nose_right"},{"translation":[0.31013900041579819,-2.4410929679870607,31.1839599609375],"rotation":[1.0,3.749151804555344e-33,1.224606353822377e-16,-3.061515884555943e-17],"scale":[1.0,1.0,1.0],"name":"LIGHT_Taxi_nose_left"},{"translation":[-0.000009999999742897135,2.575162887573242,-36.59638977050781],"rotation":[-3.061515884555943e-17,-1.224606353822377e-16,-3.749151804555344e-33,1.0],"scale":[1.0,1.0,1.0],"name":"LIGHT_strobe_tail"},{"translation":[-0.00003600000126886917,1.444995999336243,-36.59638977050781],"rotation":[-3.061515884555943e-17,-1.224606353822377e-16,-3.749151804555344e-33,1.0],"scale":[1.0,1.0,1.0],"name":"LIGHT_Navwhi_tail"},{"translation":[-3.631625890731813,-0.42018800973892209,10.014490127563477],"rotation":[1.0,3.749151804555344e-33,1.224606353822377e-16,-3.061515884555943e-17],"scale":[1.0,1.0,1.0],"name":"LIGHT_Landing_Right"},{"translation":[-0.26011601090431599,-2.200985908508301,31.294010162353517],"rotation":[1.0,3.749151804555344e-33,1.224606353822377e-16,-3.061515884555943e-17],"scale":[1.0,1.0,1.0],"name":"LIGHT_landing_nose_right"},{"translation":[0.2601160109043083,-2.200985908508301,31.294010162353517],"rotation":[1.0,3.749151804555344e-33,1.224606353822377e-16,-3.061515884555943e-17],"scale":[1.0,1.0,1.0],"name":"LIGHT_landing_nose_left"},{"translation":[3.63162589073181,-0.42018800973892209,10.014479637145996],"rotation":[1.0,3.749151804555344e-33,1.224606353822377e-16,-3.061515884555943e-17],"scale":[1.0,1.0,1.0],"name":"LIGHT_Landing_Left"},{"translation":[-3.393679274890559e-16,-2.651186943054199,2.7712409496307375],"rotation":[-0.7071067811865475,0.0,0.0,0.7071067811865475],"scale":[1.0,1.0,1.0],"name":"LIGHT_Beacon_belly"},{"translation":[-2.090114076172572e-15,4.051814079284668,17.06764030456543],"rotation":[0.7071067811865475,0.0,8.659274570719354e-17,0.7071067811865475],"scale":[1.0,1.0,1.0],"name":"LIGHT_Beacon_Top"},{"translation":[9.720000267028809,-2.0999999046325685,3.2999999523162857],"rotation":[-6.123031769111886e-17,3.061515884555943e-17,1.0,1.874575902277672e-33],"scale":[1.0,1.0,1.0],"name":"contrail1"}],"scene":0,"scenes":[{"nodes":[0]}],"textures":[{"extensions":{"MSFT_texture_dds":{"source":0}}},{"extensions":{"MSFT_texture_dds":{"source":1}}}],"extensionsUsed":["ASOBO_material_day_night_switch","MSFT_texture_dds","ASOBO_asset_optimized"],"buffers":[{"byteLength":5676,"uri":"TFS_B773ER_LOD7.bin"}],"images":[{"uri":"TFS_B773ER_T.PNG.DDS","extras":"ASOBO_image_converted_meta"},{"uri":"TFS_B773ER_L.PNG.DDS","extras":"ASOBO_image_converted_meta"}]}
