{"accessors":[{"bufferView":0,"componentType":5126,"count":32,"min":[0.0],"max":[80.0],"type":"SCALAR"},{"bufferView":1,"componentType":5126,"count":32,"type":"VEC4"},{"bufferView":0,"byteOffset":128,"componentType":5126,"count":3,"min":[0.0],"max":[200.0],"type":"SCALAR"},{"bufferView":1,"byteOffset":512,"componentType":5126,"count":3,"type":"VEC4"},{"bufferView":0,"byteOffset":140,"componentType":5126,"count":32,"min":[0.0],"max":[80.0],"type":"SCALAR"},{"bufferView":1,"byteOffset":560,"componentType":5126,"count":32,"type":"VEC4"},{"bufferView":2,"componentType":5126,"count":114,"min":[-8.54800033569336,0.2720000147819519,-8.991999626159668],"max":[8.54800033569336,4.175990104675293,9.052000045776368],"type":"VEC3","name":"part000_vertices#0_POSITION"},{"bufferView":2,"byteOffset":12,"componentType":5120,"count":114,"type":"VEC4","name":"part000_vertices#0_TANGENT"},{"bufferView":2,"byteOffset":16,"componentType":5120,"count":114,"type":"VEC4","name":"part000_vertices#0_NORMAL"},{"bufferView":2,"byteOffset":20,"componentType":5122,"count":114,"type":"VEC2","name":"part000_vertices#0_TEXCOORD_0"},{"bufferView":2,"byteOffset":24,"componentType":5122,"count":114,"type":"VEC2","name":"part000_vertices#0_TEXCOORD_1"},{"bufferView":2,"byteOffset":28,"componentType":5123,"count":114,"type":"VEC4","name":"part000_vertices#0_COLOR_0"},{"bufferView":3,"componentType":5123,"count":300,"type":"SCALAR","name":"part000_indices#0"},{"bufferView":2,"byteOffset":4104,"componentType":5126,"count":54,"min":[-0.10000000149011612,1.5199999809265137,-8.991999626159668],"max":[0.10000000149011612,4.1519999504089359,-3.375999927520752],"type":"VEC3","name":"part001_vertices#0_POSITION"},{"bufferView":2,"byteOffset":4116,"componentType":5120,"count":54,"type":"VEC4","name":"part001_vertices#0_TANGENT"},{"bufferView":2,"byteOffset":4120,"componentType":5120,"count":54,"type":"VEC4","name":"part001_vertices#0_NORMAL"},{"bufferView":2,"byteOffset":4124,"componentType":5122,"count":54,"type":"VEC2","name":"part001_vertices#0_TEXCOORD_0"},{"bufferView":2,"byteOffset":4128,"componentType":5122,"count":54,"type":"VEC2","name":"part001_vertices#0_TEXCOORD_1"},{"bufferView":2,"byteOffset":4132,"componentType":5123,"count":54,"type":"VEC4","name":"part001_vertices#0_COLOR_0"},{"bufferView":3,"byteOffset":600,"componentType":5123,"count":222,"type":"SCALAR","name":"part001_indices#0"},{"bufferView":2,"byteOffset":6048,"componentType":5126,"count":4,"min":[-0.052000001072883609,0.125900000333786,-0.7075700163841248],"max":[0.052000001072883609,0.1271599978208542,-0.0006099999882280827],"type":"VEC3","name":"part002_vertices#0_POSITION"},{"bufferView":2,"byteOffset":6060,"componentType":5120,"count":4,"type":"VEC4","name":"part002_vertices#0_TANGENT"},{"bufferView":2,"byteOffset":6064,"componentType":5120,"count":4,"type":"VEC4","name":"part002_vertices#0_NORMAL"},{"bufferView":2,"byteOffset":6068,"componentType":5122,"count":4,"type":"VEC2","name":"part002_vertices#0_TEXCOORD_0"},{"bufferView":2,"byteOffset":6072,"componentType":5122,"count":4,"type":"VEC2","name":"part002_vertices#0_TEXCOORD_1"},{"bufferView":2,"byteOffset":6076,"componentType":5123,"count":4,"type":"VEC4","name":"part002_vertices#0_COLOR_0"},{"bufferView":3,"byteOffset":1044,"componentType":5123,"count":6,"type":"SCALAR","name":"part002_indices#0"}],"animations":[{"name":"c_gear","channels":[{"sampler":0,"target":{"node":13,"path":"rotation"}},{"sampler":1,"target":{"node":22,"path":"rotation"}}],"samplers":[{"input":0,"output":1,"interpolation":"LINEAR"},{"input":4,"output":5,"interpolation":"LINEAR"}]},{"name":"custom_anim_C_WHEEL_LR","channels":[{"sampler":0,"target":{"node":15,"path":"rotation"}}],"samplers":[{"input":2,"output":3,"interpolation":"LINEAR"}]}],"asset":{"generator":"ModelConverterX","version":"2.0","extensions":{"ASOBO_asset_optimized":{"BoundingBoxMax":[8.54800033569336,4.175990104675293,9.052000045776368],"BoundingBoxMin":[-8.54800033569336,0.125900000333786,-8.991999626159668],"MajorVersion":4,"MinorVersion":4,"UseCheckerboardMaterialForMissingTextures":true,"UseOnlyFilenameForImageURI":true}}},"bufferViews":[{"buffer":0,"byteLength":268,"byteStride":4},{"buffer":0,"byteLength":1072,"byteStride":16,"byteOffset":268},{"buffer":0,"byteLength":6192,"byteStride":36,"byteOffset":1340,"target":34962,"name":"BufferViewVertexND"},{"buffer":0,"byteLength":1056,"byteOffset":7532,"target":34963,"name":"BufferViewIndex"}],"extensionsRequired":["MSFT_texture_dds"],"materials":[{"name":"material00","pbrMetallicRoughness":{"metallicFactor":0.0}},{"name":"material01","emissiveTexture":{"index":1},"emissiveFactor":[0.019607843831181527,0.019607843831181527,0.019607843831181527],"pbrMetallicRoughness":{"metallicFactor":0.0,"baseColorTexture":{"index":0}},"extensions":{"ASOBO_material_day_night_switch":{}}}],"meshes":[{"primitives":[{"attributes":{"COLOR_0":11,"NORMAL":8,"POSITION":6,"TANGENT":7,"TEXCOORD_0":9,"TEXCOORD_1":10},"indices":12,"material":1,"mode":4,"extras":{"ASOBO_primitive":{"PrimitiveCount":100,"VertexType":"VTX","VertexVersion":2}}}],"name":"part000"},{"primitives":[{"attributes":{"COLOR_0":18,"NORMAL":15,"POSITION":13,"TANGENT":14,"TEXCOORD_0":16,"TEXCOORD_1":17},"indices":19,"material":1,"mode":4,"extras":{"ASOBO_primitive":{"PrimitiveCount":74,"VertexType":"VTX","VertexVersion":2}}}],"name":"part001"},{"primitives":[{"attributes":{"COLOR_0":25,"NORMAL":22,"POSITION":20,"TANGENT":21,"TEXCOORD_0":23,"TEXCOORD_1":24},"indices":26,"material":0,"mode":4,"extras":{"ASOBO_primitive":{"PrimitiveCount":2,"VertexType":"VTX","VertexVersion":2}}}],"name":"part002"}],"nodes":[{"name":"node_0","children":[1,2,3,4,5,6,7,8,9,10]},{"mesh":0,"name":"custom_vis_parts_visible_00_mcx_VC_0"},{"mesh":1,"name":"node_12"},{"translation":[2.5199999809265138,0.699999988079071,3.0860079882748778e-16],"rotation":[-6.123031769111886e-17,3.061515884555943e-17,1.0,1.874575902277672e-33],"scale":[1.0,1.0,1.0],"name":"contrail1"},{"translation":[0.6200000047683714,0.4600000083446502,1.940000057220459],"rotation":[-0.7071067811865475,0.0,0.0,0.7071067811865475],"scale":[1.0,1.0,1.0],"name":"Left_Landing"},{"translation":[-0.6200000047683718,0.4600000083446502,1.940000057220459],"rotation":[-0.7071067811865475,0.0,0.0,0.7071067811865475],"scale":[1.0,1.0,1.0],"name":"Right_Landing"},{"translation":[-2.5199999809265138,0.699999988079071,-3.0860079882748778e-16],"rotation":[-6.123031769111886e-17,3.061515884555943e-17,1.0,1.874575902277672e-33],"scale":[1.0,1.0,1.0],"name":"contrail2"},{"translation":[-7.959941299845452e-16,-0.800000011920929,6.5],"rotation":[-6.123031769111886e-17,3.061515884555943e-17,1.0,1.874575902277672e-33],"scale":[1.0,1.0,1.0],"name":"c_tire1"},{"translation":[2.5299999713897707,-0.9100000262260436,0.5000000000000003],"rotation":[-6.123031769111886e-17,3.061515884555943e-17,1.0,1.874575902277672e-33],"scale":[1.0,1.0,1.0],"name":"l_tire1"},{"translation":[-2.5299999713897707,-0.9100000262260436,0.49999999999999969],"rotation":[-6.123031769111886e-17,3.061515884555943e-17,1.0,1.874575902277672e-33],"scale":[1.0,1.0,1.0],"name":"r_tire1"},{"translation":[0.0,0.0,0.0],"rotation":[-4.329637285359677e-17,0.7071067811865475,0.7071067811865475,4.329637285359677e-17],"scale":[1.0,1.0,1.0],"name":"node_54","children":[11,20]},{"translation":[0.0,5.03000020980835,1.1210000514984134],"rotation":[-0.000005249999958104456,0.0,0.0,0.9999999999861875],"scale":[1.0,1.0,1.0],"name":"node_55","children":[12]},{"translation":[0.0,1.5350049735044278,-0.6614130139681598],"rotation":[0.0,0.0,0.0,1.0],"scale":[1.0,1.0,1.0],"name":"node_71","children":[13]},{"name":"c_gear_AN_71","children":[14]},{"name":"node_72","children":[15]},{"name":"custom_anim_C_WHEEL_LR_AN_72","children":[16,18]},{"translation":[0.0,0.23021100462875777,-0.49576199057196837],"rotation":[0.6883583713580324,0.0,0.0,0.7253707690424244],"scale":[1.0,1.0,1.0],"name":"node_83","children":[17]},{"translation":[0.0,0.0,0.0],"rotation":[0.7071067811865475,0.0,0.0,0.7071067811865475],"scale":[1.0,1.0,1.0],"name":"taxi"},{"translation":[0.0,0.2550069987928174,-0.4995670020830075],"rotation":[0.7071104934873744,0.0,0.0,0.7071030688661427],"scale":[1.0,1.0,1.0],"name":"node_85","children":[19]},{"translation":[0.0,0.0,0.0],"rotation":[0.7071067811865475,0.0,0.0,0.7071067811865475],"scale":[1.0,1.0,1.0],"name":"Nose_Landing"},{"translation":[0.0,5.029961109161377,1.1206990480422974],"rotation":[-0.000003999999989804971,0.0,0.0,0.999999999992],"scale":[1.0,1.0,1.0],"name":"node_215","children":[21]},{"translation":[0.0,1.5353070498004116,-0.6607769727918358],"rotation":[0.0,0.0,0.0,1.0],"scale":[1.0,1.0,1.0],"name":"node_333","children":[22]},{"name":"c_gear_AN_333","children":[23]},{"mesh":2,"name":"custom_vis_parts_visible_00_mcx_VC_1"}],"scene":0,"scenes":[{"nodes":[0]}],"textures":[{"extensions":{"MSFT_texture_dds":{"source":0}}},{"extensions":{"MSFT_texture_dds":{"source":1}}}],"extensionsUsed":["ASOBO_material_day_night_switch","MSFT_texture_dds","ASOBO_asset_optimized"],"buffers":[{"byteLength":8588,"uri":"DJC_MetroIV_4Blade_MSFS_LOD8.bin"}],"images":[{"uri":"DJC_AI_METROIV_T.PNG.DDS","extras":"ASOBO_image_converted_meta"},{"uri":"CABIN_LIGHTS.PNG.DDS","extras":"ASOBO_image_converted_meta"}]}
