{"accessors":[{"bufferView":0,"componentType":5126,"count":5,"min":[0.0],"max":[100.0],"type":"SCALAR"},{"bufferView":2,"componentType":5126,"count":5,"type":"VEC4"},{"bufferView":0,"byteOffset":20,"componentType":5126,"count":2,"min":[0.0],"max":[100.0],"type":"SCALAR"},{"bufferView":1,"componentType":5126,"count":2,"type":"VEC3"},{"bufferView":0,"byteOffset":28,"componentType":5126,"count":2,"min":[0.0],"max":[100.0],"type":"SCALAR"},{"bufferView":2,"byteOffset":80,"componentType":5126,"count":2,"type":"VEC4"},{"bufferView":0,"byteOffset":36,"componentType":5126,"count":3,"min":[0.0],"max":[100.0],"type":"SCALAR"},{"bufferView":1,"byteOffset":24,"componentType":5126,"count":3,"type":"VEC3"},{"bufferView":0,"byteOffset":48,"componentType":5126,"count":3,"min":[0.0],"max":[100.0],"type":"SCALAR"},{"bufferView":2,"byteOffset":112,"componentType":5126,"count":3,"type":"VEC4"},{"bufferView":0,"byteOffset":60,"componentType":5126,"count":5,"min":[0.0],"max":[100.0],"type":"SCALAR"},{"bufferView":2,"byteOffset":160,"componentType":5126,"count":5,"type":"VEC4"},{"bufferView":0,"byteOffset":80,"componentType":5126,"count":3,"min":[0.0],"max":[100.0],"type":"SCALAR"},{"bufferView":2,"byteOffset":240,"componentType":5126,"count":3,"type":"VEC4"},{"bufferView":0,"byteOffset":92,"componentType":5126,"count":2,"min":[0.0],"max":[100.0],"type":"SCALAR"},{"bufferView":2,"byteOffset":288,"componentType":5126,"count":2,"type":"VEC4"},{"bufferView":0,"byteOffset":100,"componentType":5126,"count":4,"min":[0.0],"max":[200.0],"type":"SCALAR"},{"bufferView":2,"byteOffset":320,"componentType":5126,"count":4,"type":"VEC4"},{"bufferView":0,"byteOffset":116,"componentType":5126,"count":5,"min":[0.0],"max":[100.0],"type":"SCALAR"},{"bufferView":2,"byteOffset":384,"componentType":5126,"count":5,"type":"VEC4"},{"bufferView":0,"byteOffset":136,"componentType":5126,"count":2,"min":[0.0],"max":[100.0],"type":"SCALAR"},{"bufferView":2,"byteOffset":464,"componentType":5126,"count":2,"type":"VEC4"},{"bufferView":0,"byteOffset":144,"componentType":5126,"count":3,"min":[0.0],"max":[100.0],"type":"SCALAR"},{"bufferView":1,"byteOffset":60,"componentType":5126,"count":3,"type":"VEC3"},{"bufferView":0,"byteOffset":156,"componentType":5126,"count":3,"min":[0.0],"max":[100.0],"type":"SCALAR"},{"bufferView":2,"byteOffset":496,"componentType":5126,"count":3,"type":"VEC4"},{"bufferView":0,"byteOffset":168,"componentType":5126,"count":3,"min":[0.0],"max":[100.0],"type":"SCALAR"},{"bufferView":2,"byteOffset":544,"componentType":5126,"count":3,"type":"VEC4"},{"bufferView":0,"byteOffset":180,"componentType":5126,"count":5,"min":[0.0],"max":[100.0],"type":"SCALAR"},{"bufferView":2,"byteOffset":592,"componentType":5126,"count":5,"type":"VEC4"},{"bufferView":0,"byteOffset":200,"componentType":5126,"count":3,"min":[0.0],"max":[100.0],"type":"SCALAR"},{"bufferView":2,"byteOffset":672,"componentType":5126,"count":3,"type":"VEC4"},{"bufferView":0,"byteOffset":212,"componentType":5126,"count":3,"min":[0.0],"max":[100.0],"type":"SCALAR"},{"bufferView":1,"byteOffset":96,"componentType":5126,"count":3,"type":"VEC3"},{"bufferView":0,"byteOffset":224,"componentType":5126,"count":3,"min":[0.0],"max":[100.0],"type":"SCALAR"},{"bufferView":2,"byteOffset":720,"componentType":5126,"count":3,"type":"VEC4"},{"bufferView":3,"componentType":5126,"count":137,"min":[-5.482999801635742,-0.6095600128173828,-5.967599868774414],"max":[5.482999801635742,1.5360900163650513,2.306730031967163],"type":"VEC3","name":"part000_vertices#0_POSITION"},{"bufferView":3,"byteOffset":12,"componentType":5120,"count":137,"type":"VEC4","name":"part000_vertices#0_TANGENT"},{"bufferView":3,"byteOffset":16,"componentType":5120,"count":137,"type":"VEC4","name":"part000_vertices#0_NORMAL"},{"bufferView":3,"byteOffset":20,"componentType":5122,"count":137,"type":"VEC2","name":"part000_vertices#0_TEXCOORD_0"},{"bufferView":3,"byteOffset":24,"componentType":5122,"count":137,"type":"VEC2","name":"part000_vertices#0_TEXCOORD_1"},{"bufferView":3,"byteOffset":28,"componentType":5123,"count":137,"type":"VEC4","name":"part000_vertices#0_COLOR_0"},{"bufferView":4,"componentType":5123,"count":357,"type":"SCALAR","name":"part000_indices#0"},{"bufferView":3,"byteOffset":4932,"componentType":5126,"count":28,"min":[-0.0630199983716011,-0.02329999953508377,-0.9865700006484985],"max":[0.0630199983716011,0.023329999297857286,0.9865700006484985],"type":"VEC3","name":"part001_vertices#0_POSITION"},{"bufferView":3,"byteOffset":4944,"componentType":5120,"count":28,"type":"VEC4","name":"part001_vertices#0_TANGENT"},{"bufferView":3,"byteOffset":4948,"componentType":5120,"count":28,"type":"VEC4","name":"part001_vertices#0_NORMAL"},{"bufferView":3,"byteOffset":4952,"componentType":5122,"count":28,"type":"VEC2","name":"part001_vertices#0_TEXCOORD_0"},{"bufferView":3,"byteOffset":4956,"componentType":5122,"count":28,"type":"VEC2","name":"part001_vertices#0_TEXCOORD_1"},{"bufferView":3,"byteOffset":4960,"componentType":5123,"count":28,"type":"VEC4","name":"part001_vertices#0_COLOR_0"},{"bufferView":4,"byteOffset":714,"componentType":5123,"count":60,"type":"SCALAR","name":"part001_indices#0"},{"bufferView":3,"byteOffset":5940,"componentType":5126,"count":4,"min":[-0.11947000026702881,-0.34626999497413638,-0.14835000038146974],"max":[0.1206900030374527,0.00953999999910593,0.01358999963849783],"type":"VEC3","name":"part002_vertices#0_POSITION"},{"bufferView":3,"byteOffset":5952,"componentType":5120,"count":4,"type":"VEC4","name":"part002_vertices#0_TANGENT"},{"bufferView":3,"byteOffset":5956,"componentType":5120,"count":4,"type":"VEC4","name":"part002_vertices#0_NORMAL"},{"bufferView":3,"byteOffset":5960,"componentType":5122,"count":4,"type":"VEC2","name":"part002_vertices#0_TEXCOORD_0"},{"bufferView":3,"byteOffset":5964,"componentType":5122,"count":4,"type":"VEC2","name":"part002_vertices#0_TEXCOORD_1"},{"bufferView":3,"byteOffset":5968,"componentType":5123,"count":4,"type":"VEC4","name":"part002_vertices#0_COLOR_0"},{"bufferView":4,"byteOffset":834,"componentType":5123,"count":6,"type":"SCALAR","name":"part002_indices#0"},{"bufferView":3,"byteOffset":6084,"componentType":5126,"count":20,"min":[-0.06055999919772148,-0.20476000010967256,-0.21570000052452088],"max":[0.061170000582933429,0.20483000576496125,0.2149599939584732],"type":"VEC3","name":"part003_vertices#0_POSITION"},{"bufferView":3,"byteOffset":6096,"componentType":5120,"count":20,"type":"VEC4","name":"part003_vertices#0_TANGENT"},{"bufferView":3,"byteOffset":6100,"componentType":5120,"count":20,"type":"VEC4","name":"part003_vertices#0_NORMAL"},{"bufferView":3,"byteOffset":6104,"componentType":5122,"count":20,"type":"VEC2","name":"part003_vertices#0_TEXCOORD_0"},{"bufferView":3,"byteOffset":6108,"componentType":5122,"count":20,"type":"VEC2","name":"part003_vertices#0_TEXCOORD_1"},{"bufferView":3,"byteOffset":6112,"componentType":5123,"count":20,"type":"VEC4","name":"part003_vertices#0_COLOR_0"},{"bufferView":4,"byteOffset":846,"componentType":5123,"count":48,"type":"SCALAR","name":"part003_indices#0"},{"bufferView":3,"byteOffset":6804,"componentType":5126,"count":32,"min":[-0.932889997959137,-0.02020999975502491,-0.4369800090789795],"max":[0.020670000463724138,0.14257000386714936,-0.012489999644458294],"type":"VEC3","name":"part004_vertices#0_POSITION"},{"bufferView":3,"byteOffset":6816,"componentType":5120,"count":32,"type":"VEC4","name":"part004_vertices#0_TANGENT"},{"bufferView":3,"byteOffset":6820,"componentType":5120,"count":32,"type":"VEC4","name":"part004_vertices#0_NORMAL"},{"bufferView":3,"byteOffset":6824,"componentType":5122,"count":32,"type":"VEC2","name":"part004_vertices#0_TEXCOORD_0"},{"bufferView":3,"byteOffset":6828,"componentType":5122,"count":32,"type":"VEC2","name":"part004_vertices#0_TEXCOORD_1"},{"bufferView":3,"byteOffset":6832,"componentType":5123,"count":32,"type":"VEC4","name":"part004_vertices#0_COLOR_0"},{"bufferView":4,"byteOffset":942,"componentType":5123,"count":90,"type":"SCALAR","name":"part004_indices#0"},{"bufferView":3,"byteOffset":7956,"componentType":5126,"count":20,"min":[-0.050050001591444018,-0.17250999808311463,-0.1814900040626526],"max":[0.050050001591444018,0.17257000505924226,0.1813499927520752],"type":"VEC3","name":"part005_vertices#0_POSITION"},{"bufferView":3,"byteOffset":7968,"componentType":5120,"count":20,"type":"VEC4","name":"part005_vertices#0_TANGENT"},{"bufferView":3,"byteOffset":7972,"componentType":5120,"count":20,"type":"VEC4","name":"part005_vertices#0_NORMAL"},{"bufferView":3,"byteOffset":7976,"componentType":5122,"count":20,"type":"VEC2","name":"part005_vertices#0_TEXCOORD_0"},{"bufferView":3,"byteOffset":7980,"componentType":5122,"count":20,"type":"VEC2","name":"part005_vertices#0_TEXCOORD_1"},{"bufferView":3,"byteOffset":7984,"componentType":5123,"count":20,"type":"VEC4","name":"part005_vertices#0_COLOR_0"},{"bufferView":4,"byteOffset":1122,"componentType":5123,"count":48,"type":"SCALAR","name":"part005_indices#0"},{"bufferView":3,"byteOffset":8676,"componentType":5126,"count":44,"min":[-0.07648999989032746,-0.0368800014257431,-0.7470999956130981],"max":[0.07648999989032746,0.039319999516010287,0.010970000177621842],"type":"VEC3","name":"part006_vertices#0_POSITION"},{"bufferView":3,"byteOffset":8688,"componentType":5120,"count":44,"type":"VEC4","name":"part006_vertices#0_TANGENT"},{"bufferView":3,"byteOffset":8692,"componentType":5120,"count":44,"type":"VEC4","name":"part006_vertices#0_NORMAL"},{"bufferView":3,"byteOffset":8696,"componentType":5122,"count":44,"type":"VEC2","name":"part006_vertices#0_TEXCOORD_0"},{"bufferView":3,"byteOffset":8700,"componentType":5122,"count":44,"type":"VEC2","name":"part006_vertices#0_TEXCOORD_1"},{"bufferView":3,"byteOffset":8704,"componentType":5123,"count":44,"type":"VEC4","name":"part006_vertices#0_COLOR_0"},{"bufferView":4,"byteOffset":1218,"componentType":5123,"count":84,"type":"SCALAR","name":"part006_indices#0"},{"bufferView":3,"byteOffset":10260,"componentType":5126,"count":4,"min":[-0.004889999981969595,-0.343639999628067,-0.05745000019669533],"max":[0.11457999795675278,0.3245599865913391,0.043140001595020297],"type":"VEC3","name":"part007_vertices#0_POSITION"},{"bufferView":3,"byteOffset":10272,"componentType":5120,"count":4,"type":"VEC4","name":"part007_vertices#0_TANGENT"},{"bufferView":3,"byteOffset":10276,"componentType":5120,"count":4,"type":"VEC4","name":"part007_vertices#0_NORMAL"},{"bufferView":3,"byteOffset":10280,"componentType":5122,"count":4,"type":"VEC2","name":"part007_vertices#0_TEXCOORD_0"},{"bufferView":3,"byteOffset":10284,"componentType":5122,"count":4,"type":"VEC2","name":"part007_vertices#0_TEXCOORD_1"},{"bufferView":3,"byteOffset":10288,"componentType":5123,"count":4,"type":"VEC4","name":"part007_vertices#0_COLOR_0"},{"bufferView":4,"byteOffset":1386,"componentType":5123,"count":6,"type":"SCALAR","name":"part007_indices#0"},{"bufferView":3,"byteOffset":10404,"componentType":5126,"count":20,"min":[-0.06086000055074692,-0.20476000010967256,-0.21539999544620515],"max":[0.06086000055074692,0.20483000576496125,0.21526999771595],"type":"VEC3","name":"part008_vertices#0_POSITION"},{"bufferView":3,"byteOffset":10416,"componentType":5120,"count":20,"type":"VEC4","name":"part008_vertices#0_TANGENT"},{"bufferView":3,"byteOffset":10420,"componentType":5120,"count":20,"type":"VEC4","name":"part008_vertices#0_NORMAL"},{"bufferView":3,"byteOffset":10424,"componentType":5122,"count":20,"type":"VEC2","name":"part008_vertices#0_TEXCOORD_0"},{"bufferView":3,"byteOffset":10428,"componentType":5122,"count":20,"type":"VEC2","name":"part008_vertices#0_TEXCOORD_1"},{"bufferView":3,"byteOffset":10432,"componentType":5123,"count":20,"type":"VEC4","name":"part008_vertices#0_COLOR_0"},{"bufferView":4,"byteOffset":1398,"componentType":5123,"count":48,"type":"SCALAR","name":"part008_indices#0"},{"bufferView":3,"byteOffset":11124,"componentType":5126,"count":32,"min":[-0.020670000463724138,-0.02020999975502491,-0.43689998984336855],"max":[0.9329599738121033,0.14278000593185426,-0.012489999644458294],"type":"VEC3","name":"part009_vertices#0_POSITION"},{"bufferView":3,"byteOffset":11136,"componentType":5120,"count":32,"type":"VEC4","name":"part009_vertices#0_TANGENT"},{"bufferView":3,"byteOffset":11140,"componentType":5120,"count":32,"type":"VEC4","name":"part009_vertices#0_NORMAL"},{"bufferView":3,"byteOffset":11144,"componentType":5122,"count":32,"type":"VEC2","name":"part009_vertices#0_TEXCOORD_0"},{"bufferView":3,"byteOffset":11148,"componentType":5122,"count":32,"type":"VEC2","name":"part009_vertices#0_TEXCOORD_1"},{"bufferView":3,"byteOffset":11152,"componentType":5123,"count":32,"type":"VEC4","name":"part009_vertices#0_COLOR_0"},{"bufferView":4,"byteOffset":1494,"componentType":5123,"count":90,"type":"SCALAR","name":"part009_indices#0"},{"bufferView":3,"byteOffset":12276,"componentType":5126,"count":4,"min":[-0.11460000276565552,-0.34376999735832217,-0.057420000433921817],"max":[0.006099999882280827,0.324429988861084,0.04317000135779381],"type":"VEC3","name":"part010_vertices#0_POSITION"},{"bufferView":3,"byteOffset":12288,"componentType":5120,"count":4,"type":"VEC4","name":"part010_vertices#0_TANGENT"},{"bufferView":3,"byteOffset":12292,"componentType":5120,"count":4,"type":"VEC4","name":"part010_vertices#0_NORMAL"},{"bufferView":3,"byteOffset":12296,"componentType":5122,"count":4,"type":"VEC2","name":"part010_vertices#0_TEXCOORD_0"},{"bufferView":3,"byteOffset":12300,"componentType":5122,"count":4,"type":"VEC2","name":"part010_vertices#0_TEXCOORD_1"},{"bufferView":3,"byteOffset":12304,"componentType":5123,"count":4,"type":"VEC4","name":"part010_vertices#0_COLOR_0"},{"bufferView":4,"byteOffset":1674,"componentType":5123,"count":6,"type":"SCALAR","name":"part010_indices#0"}],"animations":[{"name":"engine0","channels":[{"sampler":0,"target":{"node":11,"path":"rotation"}}],"samplers":[{"input":0,"output":1,"interpolation":"LINEAR"}]},{"name":"c_gear","channels":[{"sampler":0,"target":{"node":13,"path":"translation"}},{"sampler":1,"target":{"node":15,"path":"rotation"}},{"sampler":2,"target":{"node":27,"path":"rotation"}},{"sampler":3,"target":{"node":33,"path":"rotation"}},{"sampler":4,"target":{"node":35,"path":"translation"}},{"sampler":5,"target":{"node":37,"path":"rotation"}},{"sampler":6,"target":{"node":47,"path":"translation"}},{"sampler":7,"target":{"node":49,"path":"rotation"}}],"samplers":[{"input":2,"output":3,"interpolation":"LINEAR"},{"input":4,"output":5,"interpolation":"LINEAR"},{"input":14,"output":15,"interpolation":"LINEAR"},{"input":20,"output":21,"interpolation":"LINEAR"},{"input":22,"output":23,"interpolation":"LINEAR"},{"input":24,"output":25,"interpolation":"LINEAR"},{"input":32,"output":33,"interpolation":"LINEAR"},{"input":34,"output":35,"interpolation":"LINEAR"}]},{"name":"l_gear","channels":[{"sampler":0,"target":{"node":17,"path":"translation"}},{"sampler":1,"target":{"node":19,"path":"rotation"}},{"sampler":2,"target":{"node":24,"path":"rotation"}}],"samplers":[{"input":6,"output":7,"interpolation":"LINEAR"},{"input":8,"output":9,"interpolation":"LINEAR"},{"input":12,"output":13,"interpolation":"LINEAR"}]},{"name":"l_tire_blurred_key","channels":[{"sampler":0,"target":{"node":22,"path":"rotation"}}],"samplers":[{"input":10,"output":11,"interpolation":"LINEAR"}]},{"name":"custom_anim_C_WHEEL_LR","channels":[{"sampler":0,"target":{"node":29,"path":"rotation"}}],"samplers":[{"input":16,"output":17,"interpolation":"LINEAR"}]},{"name":"c_tire_blurred_key","channels":[{"sampler":0,"target":{"node":31,"path":"rotation"}}],"samplers":[{"input":18,"output":19,"interpolation":"LINEAR"}]},{"name":"r_gear","channels":[{"sampler":0,"target":{"node":40,"path":"rotation"}},{"sampler":1,"target":{"node":45,"path":"rotation"}}],"samplers":[{"input":26,"output":27,"interpolation":"LINEAR"},{"input":30,"output":31,"interpolation":"LINEAR"}]},{"name":"r_tire_blurred_key","channels":[{"sampler":0,"target":{"node":43,"path":"rotation"}}],"samplers":[{"input":28,"output":29,"interpolation":"LINEAR"}]}],"asset":{"generator":"ModelConverterX","version":"2.0","extensions":{"ASOBO_asset_optimized":{"BoundingBoxMax":[5.482999801635742,1.5360900163650513,2.306730031967163],"BoundingBoxMin":[-5.482999801635742,-0.6095600128173828,-5.967599868774414],"MajorVersion":4,"MinorVersion":4,"UseCheckerboardMaterialForMissingTextures":true,"UseOnlyFilenameForImageURI":true}}},"bufferViews":[{"buffer":0,"byteLength":236,"byteStride":4},{"buffer":0,"byteLength":132,"byteStride":12,"byteOffset":236},{"buffer":0,"byteLength":768,"byteStride":16,"byteOffset":368},{"buffer":0,"byteLength":12420,"byteStride":36,"byteOffset":1136,"target":34962,"name":"BufferViewVertexND"},{"buffer":0,"byteLength":1686,"byteOffset":13556,"target":34963,"name":"BufferViewIndex"}],"extensionsRequired":["MSFT_texture_dds"],"materials":[{"name":"material00","occlusionTexture":{"index":1},"emissiveTexture":{"index":2},"emissiveFactor":[0.019607843831181527,0.019607843831181527,0.019607843831181527],"pbrMetallicRoughness":{"baseColorTexture":{"index":0},"metallicRoughnessTexture":{"index":1}}}],"meshes":[{"primitives":[{"attributes":{"COLOR_0":41,"NORMAL":38,"POSITION":36,"TANGENT":37,"TEXCOORD_0":39,"TEXCOORD_1":40},"indices":42,"material":0,"mode":4,"extras":{"ASOBO_primitive":{"PrimitiveCount":119,"VertexType":"VTX","VertexVersion":2}}}],"name":"part000"},{"primitives":[{"attributes":{"COLOR_0":48,"NORMAL":45,"POSITION":43,"TANGENT":44,"TEXCOORD_0":46,"TEXCOORD_1":47},"indices":49,"material":0,"mode":4,"extras":{"ASOBO_primitive":{"PrimitiveCount":20,"VertexType":"VTX","VertexVersion":2}}}],"name":"part001"},{"primitives":[{"attributes":{"COLOR_0":55,"NORMAL":52,"POSITION":50,"TANGENT":51,"TEXCOORD_0":53,"TEXCOORD_1":54},"indices":56,"material":0,"mode":4,"extras":{"ASOBO_primitive":{"PrimitiveCount":2,"VertexType":"VTX","VertexVersion":2}}}],"name":"part002"},{"primitives":[{"attributes":{"COLOR_0":62,"NORMAL":59,"POSITION":57,"TANGENT":58,"TEXCOORD_0":60,"TEXCOORD_1":61},"indices":63,"material":0,"mode":4,"extras":{"ASOBO_primitive":{"PrimitiveCount":16,"VertexType":"VTX","VertexVersion":2}}}],"name":"part003"},{"primitives":[{"attributes":{"COLOR_0":69,"NORMAL":66,"POSITION":64,"TANGENT":65,"TEXCOORD_0":67,"TEXCOORD_1":68},"indices":70,"material":0,"mode":4,"extras":{"ASOBO_primitive":{"PrimitiveCount":30,"VertexType":"VTX","VertexVersion":2}}}],"name":"part004"},{"primitives":[{"attributes":{"COLOR_0":76,"NORMAL":73,"POSITION":71,"TANGENT":72,"TEXCOORD_0":74,"TEXCOORD_1":75},"indices":77,"material":0,"mode":4,"extras":{"ASOBO_primitive":{"PrimitiveCount":16,"VertexType":"VTX","VertexVersion":2}}}],"name":"part005"},{"primitives":[{"attributes":{"COLOR_0":83,"NORMAL":80,"POSITION":78,"TANGENT":79,"TEXCOORD_0":81,"TEXCOORD_1":82},"indices":84,"material":0,"mode":4,"extras":{"ASOBO_primitive":{"PrimitiveCount":28,"VertexType":"VTX","VertexVersion":2}}}],"name":"part006"},{"primitives":[{"attributes":{"COLOR_0":90,"NORMAL":87,"POSITION":85,"TANGENT":86,"TEXCOORD_0":88,"TEXCOORD_1":89},"indices":91,"material":0,"mode":4,"extras":{"ASOBO_primitive":{"PrimitiveCount":2,"VertexType":"VTX","VertexVersion":2}}}],"name":"part007"},{"primitives":[{"attributes":{"COLOR_0":97,"NORMAL":94,"POSITION":92,"TANGENT":93,"TEXCOORD_0":95,"TEXCOORD_1":96},"indices":98,"material":0,"mode":4,"extras":{"ASOBO_primitive":{"PrimitiveCount":16,"VertexType":"VTX","VertexVersion":2}}}],"name":"part008"},{"primitives":[{"attributes":{"COLOR_0":104,"NORMAL":101,"POSITION":99,"TANGENT":100,"TEXCOORD_0":102,"TEXCOORD_1":103},"indices":105,"material":0,"mode":4,"extras":{"ASOBO_primitive":{"PrimitiveCount":30,"VertexType":"VTX","VertexVersion":2}}}],"name":"part009"},{"primitives":[{"attributes":{"COLOR_0":111,"NORMAL":108,"POSITION":106,"TANGENT":107,"TEXCOORD_0":109,"TEXCOORD_1":110},"indices":112,"material":0,"mode":4,"extras":{"ASOBO_primitive":{"PrimitiveCount":2,"VertexType":"VTX","VertexVersion":2}}}],"name":"part010"}],"nodes":[{"name":"node_0","children":[1,2,3,4,5,6,7,8]},{"mesh":0,"name":"node_7"},{"translation":[7.347638122934264e-16,0.0,-6.0],"rotation":[-6.123031769111886e-17,3.061515884555943e-17,1.0,1.874575902277672e-33],"scale":[1.0,1.0,1.0],"name":"contrail1"},{"translation":[-0.12999999523162868,-0.019999999552965165,1.940000057220459],"rotation":[-0.6755902076156602,0.0,0.0,0.737277336810124],"scale":[1.0,1.0,1.0],"name":"Taxi_Light"},{"translation":[0.12999999523162818,-0.019999999552965165,1.940000057220459],"rotation":[-0.7071067811865475,0.0,0.0,0.7071067811865475],"scale":[1.0,1.0,1.0],"name":"Landing_Light"},{"translation":[1.2799999713897706,-1.0800000429153443,-0.8000000119209288],"rotation":[-6.123031769111886e-17,3.061515884555943e-17,1.0,1.874575902277672e-33],"scale":[1.0,1.0,1.0],"name":"l_tire1"},{"translation":[-1.2799999713897706,-1.0800000429153443,-0.8000000119209291],"rotation":[-6.123031769111886e-17,3.061515884555943e-17,1.0,1.874575902277672e-33],"scale":[1.0,1.0,1.0],"name":"r_tire1"},{"translation":[-1.8981397900309032e-16,-1.100000023841858,1.5499999523162842],"rotation":[-6.123031769111886e-17,3.061515884555943e-17,1.0,1.874575902277672e-33],"scale":[1.0,1.0,1.0],"name":"c_tire1"},{"translation":[0.0,0.0,0.0],"rotation":[-4.329637285359677e-17,0.7071067811865475,0.7071067811865475,4.329637285359677e-17],"scale":[1.0,1.0,1.0],"name":"node_24","children":[9,12,16,25,34,38,46]},{"translation":[0.0,2.0231330394744875,0.17037199437618257],"rotation":[0.0,0.0,0.0,1.0],"scale":[1.0,1.0,1.0],"name":"node_25","children":[10]},{"name":"node_26","children":[11]},{"mesh":1,"name":"engine0_AN_26"},{"name":"node_37","children":[13]},{"name":"c_gear_AN_37","children":[14]},{"name":"node_39","children":[15]},{"mesh":2,"name":"c_gear_AN_39"},{"name":"node_43","children":[17]},{"name":"l_gear_AN_43","children":[18,23]},{"name":"node_44","children":[19]},{"name":"l_gear_AN_44","children":[20]},{"translation":[-1.0447880029678345,0.07710900157690048,-0.37122300267219546],"rotation":[0.0,0.0,0.0,1.0],"scale":[1.0,1.0,1.0],"name":"node_47","children":[21]},{"name":"node_49","children":[22]},{"mesh":3,"name":"l_tire_blurred_key_AN_49"},{"name":"node_54","children":[24]},{"mesh":4,"name":"l_gear_AN_54"},{"translation":[0.0,1.5421890020370484,-0.22005200386047364],"rotation":[0.0,0.0,0.0,1.0],"scale":[1.0,1.0,1.0],"name":"node_59","children":[26,32]},{"name":"node_60","children":[27]},{"name":"c_gear_AN_60","children":[28]},{"translation":[0.0,0.0006099999882280827,-0.7159289717674255],"rotation":[0.0,0.0,0.0,1.0],"scale":[1.0,1.0,1.0],"name":"node_63","children":[29]},{"name":"custom_anim_C_WHEEL_LR_AN_63","children":[30]},{"name":"node_66","children":[31]},{"mesh":5,"name":"c_tire_blurred_key_AN_66"},{"name":"node_71","children":[33]},{"mesh":6,"name":"c_gear_AN_71"},{"name":"node_75","children":[35]},{"name":"c_gear_AN_75","children":[36]},{"name":"node_77","children":[37]},{"mesh":7,"name":"c_gear_AN_77"},{"translation":[0.32520100474357607,-0.889045000076294,-0.49740201234817507],"rotation":[0.0,0.0,0.0,1.0],"scale":[1.0,1.0,1.0],"name":"node_81","children":[39,44]},{"name":"node_82","children":[40]},{"name":"r_gear_AN_82","children":[41]},{"translation":[1.044482946395874,0.07741399854421616,-0.3715269863605499],"rotation":[0.0,0.0,0.0,1.0],"scale":[1.0,1.0,1.0],"name":"node_85","children":[42]},{"name":"node_87","children":[43]},{"mesh":8,"name":"r_tire_blurred_key_AN_87"},{"name":"node_92","children":[45]},{"mesh":9,"name":"r_gear_AN_92"},{"name":"node_97","children":[47]},{"name":"c_gear_AN_97","children":[48]},{"name":"node_99","children":[49]},{"mesh":10,"name":"c_gear_AN_99"}],"scene":0,"scenes":[{"nodes":[0]}],"textures":[{"extensions":{"MSFT_texture_dds":{"source":0}}},{"extensions":{"MSFT_texture_dds":{"source":1}}},{"extensions":{"MSFT_texture_dds":{"source":2}}}],"extensionsUsed":["MSFT_texture_dds","ASOBO_asset_optimized"],"buffers":[{"byteLength":15242,"uri":"HTAI Cessna 177RG Cardinal MSFS_LOD3.bin"}],"images":[{"uri":"HTAI_C177RG.PNG.DDS","extras":"ASOBO_image_converted_meta"},{"uri":"HTAI_C177RG_C.PNG.DDS","extras":"ASOBO_image_converted_meta"},{"uri":"HTAI_C177RG_L.PNG.DDS","extras":"ASOBO_image_converted_meta"}]}
