{"accessors":[{"bufferView":0,"componentType":5126,"count":51,"min":[0.0],"max":[100.0],"type":"SCALAR"},{"bufferView":1,"componentType":5126,"count":51,"type":"VEC4"},{"bufferView":0,"byteOffset":204,"componentType":5126,"count":51,"min":[0.0],"max":[100.0],"type":"SCALAR"},{"bufferView":1,"byteOffset":816,"componentType":5126,"count":51,"type":"VEC4"},{"bufferView":2,"componentType":5126,"count":16,"min":[-2.308000087738037,0.0560000017285347,-5.952000141143799],"max":[2.319999933242798,1.1360000371932984,-2.5920000076293947],"type":"VEC3","name":"part000_vertices#0_POSITION"},{"bufferView":2,"byteOffset":12,"componentType":5120,"count":16,"type":"VEC4","name":"part000_vertices#0_TANGENT"},{"bufferView":2,"byteOffset":16,"componentType":5120,"count":16,"type":"VEC4","name":"part000_vertices#0_NORMAL"},{"bufferView":2,"byteOffset":20,"componentType":5122,"count":16,"type":"VEC2","name":"part000_vertices#0_TEXCOORD_0"},{"bufferView":2,"byteOffset":24,"componentType":5122,"count":16,"type":"VEC2","name":"part000_vertices#0_TEXCOORD_1"},{"bufferView":2,"byteOffset":28,"componentType":5123,"count":16,"type":"VEC4","name":"part000_vertices#0_COLOR_0"},{"bufferView":3,"componentType":5123,"count":24,"type":"SCALAR","name":"part000_indices#0"},{"bufferView":2,"byteOffset":576,"componentType":5126,"count":102,"min":[-8.5,-1.3200000524520875,-11.331999778747559],"max":[8.5,3.2880001068115236,10.175999641418457],"type":"VEC3","name":"part001_vertices#0_POSITION"},{"bufferView":2,"byteOffset":588,"componentType":5120,"count":102,"type":"VEC4","name":"part001_vertices#0_TANGENT"},{"bufferView":2,"byteOffset":592,"componentType":5120,"count":102,"type":"VEC4","name":"part001_vertices#0_NORMAL"},{"bufferView":2,"byteOffset":596,"componentType":5122,"count":102,"type":"VEC2","name":"part001_vertices#0_TEXCOORD_0"},{"bufferView":2,"byteOffset":600,"componentType":5122,"count":102,"type":"VEC2","name":"part001_vertices#0_TEXCOORD_1"},{"bufferView":2,"byteOffset":604,"componentType":5123,"count":102,"type":"VEC4","name":"part001_vertices#0_COLOR_0"},{"bufferView":3,"byteOffset":48,"componentType":5123,"count":240,"type":"SCALAR","name":"part001_indices#0"}],"animations":[{"name":"l_gear","channels":[{"sampler":0,"target":{"node":10,"path":"rotation"}}],"samplers":[{"input":0,"output":1,"interpolation":"LINEAR"}]},{"name":"r_gear","channels":[{"sampler":0,"target":{"node":14,"path":"rotation"}}],"samplers":[{"input":2,"output":3,"interpolation":"LINEAR"}]}],"asset":{"generator":"ModelConverterX","version":"2.0","extensions":{"ASOBO_asset_optimized":{"BoundingBoxMax":[8.5,3.2880001068115236,10.175999641418457],"BoundingBoxMin":[-8.5,-1.3200000524520875,-11.331999778747559],"MajorVersion":4,"MinorVersion":4,"UseCheckerboardMaterialForMissingTextures":true,"UseOnlyFilenameForImageURI":true}}},"bufferViews":[{"buffer":0,"byteLength":408,"byteStride":4},{"buffer":0,"byteLength":1632,"byteStride":16,"byteOffset":408},{"buffer":0,"byteLength":4248,"byteStride":36,"byteOffset":2040,"target":34962,"name":"BufferViewVertexND"},{"buffer":0,"byteLength":528,"byteOffset":6288,"target":34963,"name":"BufferViewIndex"}],"extensionsRequired":["MSFT_texture_dds"],"materials":[{"name":"material00","pbrMetallicRoughness":{"baseColorFactor":[0.1529410034418106,0.1529410034418106,0.1529410034418106,1.0],"metallicFactor":0.0}},{"name":"material01","emissiveTexture":{"index":1},"emissiveFactor":[0.019607843831181527,0.019607843831181527,0.019607843831181527],"pbrMetallicRoughness":{"metallicFactor":0.0,"baseColorTexture":{"index":0}},"extensions":{"ASOBO_material_day_night_switch":{}}}],"meshes":[{"primitives":[{"attributes":{"COLOR_0":9,"NORMAL":6,"POSITION":4,"TANGENT":5,"TEXCOORD_0":7,"TEXCOORD_1":8},"indices":10,"material":0,"mode":4,"extras":{"ASOBO_primitive":{"PrimitiveCount":8,"VertexType":"VTX","VertexVersion":2}}}],"name":"part000"},{"primitives":[{"attributes":{"COLOR_0":16,"NORMAL":13,"POSITION":11,"TANGENT":12,"TEXCOORD_0":14,"TEXCOORD_1":15},"indices":17,"material":1,"mode":4,"extras":{"ASOBO_primitive":{"PrimitiveCount":80,"VertexType":"VTX","VertexVersion":2}}}],"name":"part001"}],"nodes":[{"name":"node_0","children":[1,2,3,4,5,6,7,8]},{"mesh":0,"name":"node_1"},{"mesh":1,"name":"node_3"},{"translation":[1.8500000238418584,0.6000000238418579,-6.0],"rotation":[-6.123031769111886e-17,3.061515884555943e-17,1.0,1.874575902277672e-33],"scale":[1.0,1.0,1.0],"name":"contrail1"},{"translation":[-1.8500000238418573,0.6000000238418579,-6.0],"rotation":[-6.123031769111886e-17,3.061515884555943e-17,1.0,1.874575902277672e-33],"scale":[1.0,1.0,1.0],"name":"contrail2"},{"translation":[-9.796850830579017e-16,-1.899999976158142,8.0],"rotation":[-6.123031769111886e-17,3.061515884555943e-17,1.0,1.874575902277672e-33],"scale":[1.0,1.0,1.0],"name":"c_tire1"},{"translation":[1.7300000190734866,-2.0,-2.0999999046325685],"rotation":[-6.123031769111886e-17,3.061515884555943e-17,1.0,1.874575902277672e-33],"scale":[1.0,1.0,1.0],"name":"l_tire1"},{"translation":[-1.730000019073486,-2.0,-2.0999999046325685],"rotation":[-6.123031769111886e-17,3.061515884555943e-17,1.0,1.874575902277672e-33],"scale":[1.0,1.0,1.0],"name":"r_tire1"},{"translation":[0.0,0.0,0.0],"rotation":[-4.329637285359677e-17,0.7071067811865475,0.7071067811865475,4.329637285359677e-17],"scale":[1.0,1.0,1.0],"name":"node_37","children":[9,13]},{"translation":[-1.4117649793624879,-1.9421969652175904,-0.6595529913902283],"rotation":[0.0,0.0,0.0,1.0],"scale":[1.0,1.0,1.0],"name":"node_79","children":[10]},{"name":"l_gear_AN_79","children":[11,12]},{"translation":[-0.25285398960113528,0.08219700306653977,-0.5282610058784485],"rotation":[-0.004363309284746571,-2.6716681368964115e-19,0.9999904807207346,-6.122973482262525e-17],"scale":[1.0,1.0,1.0],"name":"Left_Taxi"},{"translation":[-0.25285398960113528,0.08219700306653977,-0.5282610058784485],"rotation":[-0.004363309284746571,-2.6716681368964115e-19,0.9999904807207346,-6.122973482262525e-17],"scale":[1.0,1.0,1.0],"name":"Left_Landing"},{"translation":[1.4100860357284547,-1.9421980381011963,-0.6768069863319397],"rotation":[0.0,0.0,0.0,1.0],"scale":[1.0,1.0,1.0],"name":"node_101","children":[14]},{"name":"r_gear_AN_101","children":[15,16]},{"translation":[0.24991400539875034,0.08219800144433974,-0.5131930112838745],"rotation":[0.0,0.0,1.0,-6.123031769111886e-17],"scale":[1.0,1.0,1.0],"name":"Right_Landing"},{"translation":[0.24991400539875034,0.08219800144433974,-0.5131930112838745],"rotation":[0.0,0.0,1.0,-6.123031769111886e-17],"scale":[1.0,1.0,1.0],"name":"Right_Taxi"}],"scene":0,"scenes":[{"nodes":[0]}],"textures":[{"extensions":{"MSFT_texture_dds":{"source":0}}},{"extensions":{"MSFT_texture_dds":{"source":1}}}],"extensionsUsed":["ASOBO_material_day_night_switch","MSFT_texture_dds","ASOBO_asset_optimized"],"buffers":[{"byteLength":6816,"uri":"JBAI Learjet 45 MSFS_LOD6.bin"}],"images":[{"uri":"JBS_LJ45_T.PNG.DDS","extras":"ASOBO_image_converted_meta"},{"uri":"JBS_LJ45_L.PNG.DDS","extras":"ASOBO_image_converted_meta"}]}
