{"accessors":[{"bufferView":0,"componentType":5126,"count":2,"min":[0.0],"max":[100.0],"type":"SCALAR"},{"bufferView":1,"componentType":5126,"count":2,"type":"VEC4"},{"bufferView":0,"byteOffset":8,"componentType":5126,"count":2,"min":[0.0],"max":[100.0],"type":"SCALAR"},{"bufferView":1,"byteOffset":32,"componentType":5126,"count":2,"type":"VEC4"},{"bufferView":2,"componentType":5126,"count":16,"min":[-1.448799967765808,0.21734000742435456,-3.405550003051758],"max":[1.4486700296401978,0.8733100295066834,-1.1294000148773194],"type":"VEC3","name":"part000_vertices#0_POSITION"},{"bufferView":2,"byteOffset":12,"componentType":5120,"count":16,"type":"VEC4","name":"part000_vertices#0_TANGENT"},{"bufferView":2,"byteOffset":16,"componentType":5120,"count":16,"type":"VEC4","name":"part000_vertices#0_NORMAL"},{"bufferView":2,"byteOffset":20,"componentType":5122,"count":16,"type":"VEC2","name":"part000_vertices#0_TEXCOORD_0"},{"bufferView":2,"byteOffset":24,"componentType":5122,"count":16,"type":"VEC2","name":"part000_vertices#0_TEXCOORD_1"},{"bufferView":2,"byteOffset":28,"componentType":5123,"count":16,"type":"VEC4","name":"part000_vertices#0_COLOR_0"},{"bufferView":3,"componentType":5123,"count":24,"type":"SCALAR","name":"part000_indices#0"},{"bufferView":2,"byteOffset":576,"componentType":5126,"count":174,"min":[-6.751619815826416,-0.7062199711799622,-7.981800079345703],"max":[6.751619815826416,2.448460102081299,6.922619819641113],"type":"VEC3","name":"part001_vertices#0_POSITION"},{"bufferView":2,"byteOffset":588,"componentType":5120,"count":174,"type":"VEC4","name":"part001_vertices#0_TANGENT"},{"bufferView":2,"byteOffset":592,"componentType":5120,"count":174,"type":"VEC4","name":"part001_vertices#0_NORMAL"},{"bufferView":2,"byteOffset":596,"componentType":5122,"count":174,"type":"VEC2","name":"part001_vertices#0_TEXCOORD_0"},{"bufferView":2,"byteOffset":600,"componentType":5122,"count":174,"type":"VEC2","name":"part001_vertices#0_TEXCOORD_1"},{"bufferView":2,"byteOffset":604,"componentType":5123,"count":174,"type":"VEC4","name":"part001_vertices#0_COLOR_0"},{"bufferView":3,"byteOffset":48,"componentType":5123,"count":330,"type":"SCALAR","name":"part001_indices#0"}],"animations":[{"name":"l_gear","channels":[{"sampler":0,"target":{"node":11,"path":"rotation"}}],"samplers":[{"input":0,"output":1,"interpolation":"LINEAR"}]},{"name":"r_gear","channels":[{"sampler":0,"target":{"node":18,"path":"rotation"}}],"samplers":[{"input":2,"output":3,"interpolation":"LINEAR"}]}],"asset":{"generator":"ModelConverterX","version":"2.0","extensions":{"ASOBO_asset_optimized":{"BoundingBoxMax":[6.751619815826416,2.448460102081299,6.922619819641113],"BoundingBoxMin":[-6.751619815826416,-0.7062199711799622,-7.981800079345703],"MajorVersion":4,"MinorVersion":4,"UseCheckerboardMaterialForMissingTextures":true,"UseOnlyFilenameForImageURI":true}}},"bufferViews":[{"buffer":0,"byteLength":16,"byteStride":4},{"buffer":0,"byteLength":64,"byteStride":16,"byteOffset":16},{"buffer":0,"byteLength":6840,"byteStride":36,"byteOffset":80,"target":34962,"name":"BufferViewVertexND"},{"buffer":0,"byteLength":708,"byteOffset":6920,"target":34963,"name":"BufferViewIndex"}],"extensionsRequired":["MSFT_texture_dds"],"materials":[{"name":"material00","emissiveTexture":{"index":1},"emissiveFactor":[0.019607843831181527,0.019607843831181527,0.019607843831181527],"pbrMetallicRoughness":{"metallicFactor":0.0,"baseColorTexture":{"index":0}},"extensions":{"ASOBO_material_day_night_switch":{}}},{"name":"material01","pbrMetallicRoughness":{"baseColorFactor":[0.03921600058674812,0.03921600058674812,0.03921600058674812,1.0],"metallicFactor":0.0}}],"meshes":[{"primitives":[{"attributes":{"COLOR_0":9,"NORMAL":6,"POSITION":4,"TANGENT":5,"TEXCOORD_0":7,"TEXCOORD_1":8},"indices":10,"material":1,"mode":4,"extras":{"ASOBO_primitive":{"PrimitiveCount":8,"VertexType":"VTX","VertexVersion":2}}}],"name":"part000"},{"primitives":[{"attributes":{"COLOR_0":16,"NORMAL":13,"POSITION":11,"TANGENT":12,"TEXCOORD_0":14,"TEXCOORD_1":15},"indices":17,"material":0,"mode":4,"extras":{"ASOBO_primitive":{"PrimitiveCount":110,"VertexType":"VTX","VertexVersion":2}}}],"name":"part001"}],"nodes":[{"name":"node_0","children":[1,2,3,4,5,6,7,8]},{"mesh":0,"name":"node_1"},{"mesh":1,"name":"node_2"},{"translation":[1.1599999666213994,0.5,-4.0],"rotation":[-6.123031769111886e-17,3.061515884555943e-17,1.0,1.874575902277672e-33],"scale":[1.0,1.0,1.0],"name":"contrail1"},{"translation":[-1.1599999666213985,0.5,-4.0],"rotation":[-6.123031769111886e-17,3.061515884555943e-17,1.0,1.874575902277672e-33],"scale":[1.0,1.0,1.0],"name":"contrail2"},{"translation":[-6.367952806301235e-16,-1.2999999523162842,5.199999809265137],"rotation":[-6.123031769111886e-17,3.061515884555943e-17,1.0,1.874575902277672e-33],"scale":[1.0,1.0,1.0],"name":"c_tire1"},{"translation":[1.2799999713897706,-1.2999999523162842,-0.8000000119209288],"rotation":[-6.123031769111886e-17,3.061515884555943e-17,1.0,1.874575902277672e-33],"scale":[1.0,1.0,1.0],"name":"l_tire1"},{"translation":[-1.2799999713897706,-1.2999999523162842,-0.8000000119209291],"rotation":[-6.123031769111886e-17,3.061515884555943e-17,1.0,1.874575902277672e-33],"scale":[1.0,1.0,1.0],"name":"r_tire1"},{"translation":[0.0,0.0,0.0],"rotation":[-4.329637285359677e-17,0.7071067811865475,0.7071067811865475,4.329637285359677e-17],"scale":[1.0,1.0,1.0],"name":"node_29","children":[9,16]},{"translation":[-1.1073379516601565,-0.7437120079994202,-0.2350009977817535],"rotation":[0.0,0.0,0.0,1.0],"scale":[1.0,1.0,1.0],"name":"node_54","children":[10]},{"name":"node_55","children":[11]},{"name":"l_gear_AN_55","children":[12,14]},{"translation":[-0.152661994099617,0.06371200084686279,-0.4849990010261536],"rotation":[0.0,0.0,0.0,1.0],"scale":[1.0,1.0,1.0],"name":"node_72","children":[13]},{"translation":[0.0,0.0,0.0],"rotation":[0.0,0.0,1.0,-6.123031769111886e-17],"scale":[1.0,1.0,1.0],"name":"landing_gear_l"},{"translation":[-0.152661994099617,0.06371200084686279,-0.4849990010261536],"rotation":[0.6739443995392721,0.05142990457337322,0.04712695086666726,0.7354814657763138],"scale":[1.0,1.0,1.0],"name":"node_74","children":[15]},{"translation":[0.0,0.0,0.0],"rotation":[0.7071067811865475,0.0,0.0,0.7071067811865475],"scale":[1.0,1.0,1.0],"name":"taxi_l"},{"translation":[1.1073379516601565,-0.7437120079994202,-0.2350009977817535],"rotation":[0.0,0.0,0.0,1.0],"scale":[1.0,1.0,1.0],"name":"node_112","children":[17]},{"name":"node_113","children":[18]},{"name":"r_gear_AN_113","children":[19,21]},{"translation":[0.152661994099617,0.06371200084686279,-0.4849990010261536],"rotation":[0.0,0.0,0.0,1.0],"scale":[1.0,1.0,1.0],"name":"node_130","children":[20]},{"translation":[0.0,0.0,0.0],"rotation":[0.0,0.0,1.0,-6.123031769111886e-17],"scale":[1.0,1.0,1.0],"name":"landing_gear_r"},{"translation":[0.152661994099617,0.06371200084686279,-0.4849990010261536],"rotation":[0.6739443995392721,-0.05142990457337322,-0.04712695086666726,0.7354814657763138],"scale":[1.0,1.0,1.0],"name":"node_132","children":[22]},{"translation":[0.0,0.0,0.0],"rotation":[0.7071067811865475,0.0,0.0,0.7071067811865475],"scale":[1.0,1.0,1.0],"name":"taxi_r"}],"scene":0,"scenes":[{"nodes":[0]}],"textures":[{"extensions":{"MSFT_texture_dds":{"source":0}}},{"extensions":{"MSFT_texture_dds":{"source":1}}}],"extensionsUsed":["ASOBO_material_day_night_switch","MSFT_texture_dds","ASOBO_asset_optimized"],"buffers":[{"byteLength":7628,"uri":"HTAI Learjet 31 MSFS_LOD6.bin"}],"images":[{"uri":"AILEAR31.PNG.DDS","extras":"ASOBO_image_converted_meta"},{"uri":"CABIN_LIGHTS.PNG.DDS","extras":"ASOBO_image_converted_meta"}]}
