{"accessors":[{"bufferView":0,"componentType":5126,"count":6,"min":[0.0],"max":[100.0],"type":"SCALAR"},{"bufferView":1,"componentType":5126,"count":6,"type":"VEC3"},{"bufferView":0,"byteOffset":24,"componentType":5126,"count":6,"min":[0.0],"max":[100.0],"type":"SCALAR"},{"bufferView":1,"byteOffset":72,"componentType":5126,"count":6,"type":"VEC3"},{"bufferView":2,"componentType":5126,"count":8,"min":[-6.567999839782715,-3.6679999828338625,1.3320000171661378],"max":[-6.495999813079834,-1.1640000343322755,7.156000137329102],"type":"VEC3","name":"part000_vertices#0_POSITION"},{"bufferView":2,"byteOffset":12,"componentType":5120,"count":8,"type":"VEC4","name":"part000_vertices#0_TANGENT"},{"bufferView":2,"byteOffset":16,"componentType":5120,"count":8,"type":"VEC4","name":"part000_vertices#0_NORMAL"},{"bufferView":2,"byteOffset":20,"componentType":5122,"count":8,"type":"VEC2","name":"part000_vertices#0_TEXCOORD_0"},{"bufferView":2,"byteOffset":24,"componentType":5122,"count":8,"type":"VEC2","name":"part000_vertices#0_TEXCOORD_1"},{"bufferView":2,"byteOffset":28,"componentType":5123,"count":8,"type":"VEC4","name":"part000_vertices#0_COLOR_0"},{"bufferView":3,"componentType":5123,"count":12,"type":"SCALAR","name":"part000_indices#0"},{"bufferView":2,"byteOffset":288,"componentType":5126,"count":8,"min":[6.495999813079834,-3.6679999828338625,1.3320000171661378],"max":[6.567999839782715,-1.1640000343322755,7.156000137329102],"type":"VEC3","name":"part001_vertices#0_POSITION"},{"bufferView":2,"byteOffset":300,"componentType":5120,"count":8,"type":"VEC4","name":"part001_vertices#0_TANGENT"},{"bufferView":2,"byteOffset":304,"componentType":5120,"count":8,"type":"VEC4","name":"part001_vertices#0_NORMAL"},{"bufferView":2,"byteOffset":308,"componentType":5122,"count":8,"type":"VEC2","name":"part001_vertices#0_TEXCOORD_0"},{"bufferView":2,"byteOffset":312,"componentType":5122,"count":8,"type":"VEC2","name":"part001_vertices#0_TEXCOORD_1"},{"bufferView":2,"byteOffset":316,"componentType":5123,"count":8,"type":"VEC4","name":"part001_vertices#0_COLOR_0"},{"bufferView":3,"byteOffset":24,"componentType":5123,"count":12,"type":"SCALAR","name":"part001_indices#0"},{"bufferView":2,"byteOffset":576,"componentType":5126,"count":8,"min":[2.131304725397744e-15,1.1759999990463257,-26.908000946044923],"max":[3.295170981847226e-15,9.003999710083008,-17.40399932861328],"type":"VEC3","name":"part002_vertices#0_POSITION"},{"bufferView":2,"byteOffset":588,"componentType":5120,"count":8,"type":"VEC4","name":"part002_vertices#0_TANGENT"},{"bufferView":2,"byteOffset":592,"componentType":5120,"count":8,"type":"VEC4","name":"part002_vertices#0_NORMAL"},{"bufferView":2,"byteOffset":596,"componentType":5122,"count":8,"type":"VEC2","name":"part002_vertices#0_TEXCOORD_0"},{"bufferView":2,"byteOffset":600,"componentType":5122,"count":8,"type":"VEC2","name":"part002_vertices#0_TEXCOORD_1"},{"bufferView":2,"byteOffset":604,"componentType":5123,"count":8,"type":"VEC4","name":"part002_vertices#0_COLOR_0"},{"bufferView":3,"byteOffset":48,"componentType":5123,"count":12,"type":"SCALAR","name":"part002_indices#0"},{"bufferView":2,"byteOffset":864,"componentType":5126,"count":78,"min":[-20.384000778198243,-2.3320000171661379,-26.559999465942384],"max":[20.384000778198243,2.9719998836517336,27.636009216308595],"type":"VEC3","name":"part003_vertices#0_POSITION"},{"bufferView":2,"byteOffset":876,"componentType":5120,"count":78,"type":"VEC4","name":"part003_vertices#0_TANGENT"},{"bufferView":2,"byteOffset":880,"componentType":5120,"count":78,"type":"VEC4","name":"part003_vertices#0_NORMAL"},{"bufferView":2,"byteOffset":884,"componentType":5122,"count":78,"type":"VEC2","name":"part003_vertices#0_TEXCOORD_0"},{"bufferView":2,"byteOffset":888,"componentType":5122,"count":78,"type":"VEC2","name":"part003_vertices#0_TEXCOORD_1"},{"bufferView":2,"byteOffset":892,"componentType":5123,"count":78,"type":"VEC4","name":"part003_vertices#0_COLOR_0"},{"bufferView":3,"byteOffset":72,"componentType":5123,"count":114,"type":"SCALAR","name":"part003_indices#0"},{"bufferView":2,"byteOffset":3672,"componentType":5126,"count":4,"min":[-0.0011099999537691475,-1.2777600288391114,-0.979960024356842],"max":[0.004139999859035015,1.2262400388717652,1.0723600387573243],"type":"VEC3","name":"part004_vertices#0_POSITION"},{"bufferView":2,"byteOffset":3684,"componentType":5120,"count":4,"type":"VEC4","name":"part004_vertices#0_TANGENT"},{"bufferView":2,"byteOffset":3688,"componentType":5120,"count":4,"type":"VEC4","name":"part004_vertices#0_NORMAL"},{"bufferView":2,"byteOffset":3692,"componentType":5122,"count":4,"type":"VEC2","name":"part004_vertices#0_TEXCOORD_0"},{"bufferView":2,"byteOffset":3696,"componentType":5122,"count":4,"type":"VEC2","name":"part004_vertices#0_TEXCOORD_1"},{"bufferView":2,"byteOffset":3700,"componentType":5123,"count":4,"type":"VEC4","name":"part004_vertices#0_COLOR_0"},{"bufferView":3,"byteOffset":300,"componentType":5123,"count":6,"type":"SCALAR","name":"part004_indices#0"},{"bufferView":2,"byteOffset":3816,"componentType":5126,"count":4,"min":[-0.004139999859035015,-1.2777600288391114,-0.979960024356842],"max":[0.0011099999537691475,1.2262400388717652,1.0723600387573243],"type":"VEC3","name":"part005_vertices#0_POSITION"},{"bufferView":2,"byteOffset":3828,"componentType":5120,"count":4,"type":"VEC4","name":"part005_vertices#0_TANGENT"},{"bufferView":2,"byteOffset":3832,"componentType":5120,"count":4,"type":"VEC4","name":"part005_vertices#0_NORMAL"},{"bufferView":2,"byteOffset":3836,"componentType":5122,"count":4,"type":"VEC2","name":"part005_vertices#0_TEXCOORD_0"},{"bufferView":2,"byteOffset":3840,"componentType":5122,"count":4,"type":"VEC2","name":"part005_vertices#0_TEXCOORD_1"},{"bufferView":2,"byteOffset":3844,"componentType":5123,"count":4,"type":"VEC4","name":"part005_vertices#0_COLOR_0"},{"bufferView":3,"byteOffset":312,"componentType":5123,"count":6,"type":"SCALAR","name":"part005_indices#0"}],"animations":[{"name":"custom_anim_REV_THRUST","channels":[{"sampler":0,"target":{"node":32,"path":"translation"}},{"sampler":1,"target":{"node":35,"path":"translation"}}],"samplers":[{"input":0,"output":1,"interpolation":"LINEAR"},{"input":2,"output":3,"interpolation":"LINEAR"}]}],"asset":{"generator":"ModelConverterX","version":"2.0","extensions":{"ASOBO_asset_optimized":{"BoundingBoxMax":[20.384000778198243,9.003999710083008,27.636009216308595],"BoundingBoxMin":[-20.384000778198243,-3.6679999828338625,-26.908000946044923],"MajorVersion":4,"MinorVersion":4,"UseCheckerboardMaterialForMissingTextures":true,"UseOnlyFilenameForImageURI":true}}},"bufferViews":[{"buffer":0,"byteLength":48,"byteStride":4},{"buffer":0,"byteLength":144,"byteStride":12,"byteOffset":48},{"buffer":0,"byteLength":3960,"byteStride":36,"byteOffset":192,"target":34962,"name":"BufferViewVertexND"},{"buffer":0,"byteLength":324,"byteOffset":4152,"target":34963,"name":"BufferViewIndex"}],"extensionsRequired":["MSFT_texture_dds"],"materials":[{"name":"material00","occlusionTexture":{"index":1},"emissiveTexture":{"index":2},"emissiveFactor":[0.019607843831181527,0.019607843831181527,0.019607843831181527],"pbrMetallicRoughness":{"baseColorTexture":{"index":0},"metallicRoughnessTexture":{"index":1}},"extensions":{"ASOBO_material_day_night_switch":{}}}],"meshes":[{"primitives":[{"attributes":{"COLOR_0":9,"NORMAL":6,"POSITION":4,"TANGENT":5,"TEXCOORD_0":7,"TEXCOORD_1":8},"indices":10,"material":0,"mode":4,"extras":{"ASOBO_primitive":{"PrimitiveCount":4,"VertexType":"VTX","VertexVersion":2}}}],"name":"part000"},{"primitives":[{"attributes":{"COLOR_0":16,"NORMAL":13,"POSITION":11,"TANGENT":12,"TEXCOORD_0":14,"TEXCOORD_1":15},"indices":17,"material":0,"mode":4,"extras":{"ASOBO_primitive":{"PrimitiveCount":4,"VertexType":"VTX","VertexVersion":2}}}],"name":"part001"},{"primitives":[{"attributes":{"COLOR_0":23,"NORMAL":20,"POSITION":18,"TANGENT":19,"TEXCOORD_0":21,"TEXCOORD_1":22},"indices":24,"material":0,"mode":4,"extras":{"ASOBO_primitive":{"PrimitiveCount":4,"VertexType":"VTX","VertexVersion":2}}}],"name":"part002"},{"primitives":[{"attributes":{"COLOR_0":30,"NORMAL":27,"POSITION":25,"TANGENT":26,"TEXCOORD_0":28,"TEXCOORD_1":29},"indices":31,"material":0,"mode":4,"extras":{"ASOBO_primitive":{"PrimitiveCount":38,"VertexType":"VTX","VertexVersion":2}}}],"name":"part003"},{"primitives":[{"attributes":{"COLOR_0":37,"NORMAL":34,"POSITION":32,"TANGENT":33,"TEXCOORD_0":35,"TEXCOORD_1":36},"indices":38,"material":0,"mode":4,"extras":{"ASOBO_primitive":{"PrimitiveCount":2,"VertexType":"VTX","VertexVersion":2}}}],"name":"part004"},{"primitives":[{"attributes":{"COLOR_0":44,"NORMAL":41,"POSITION":39,"TANGENT":40,"TEXCOORD_0":42,"TEXCOORD_1":43},"indices":45,"material":0,"mode":4,"extras":{"ASOBO_primitive":{"PrimitiveCount":2,"VertexType":"VTX","VertexVersion":2}}}],"name":"part005"}],"nodes":[{"name":"node_0","children":[1,2,3,4,5,6,7,8,9,10,11,12,13,14,15,16,17,18,19,20,21,22,23,24,25,26,27,28,29]},{"mesh":0,"name":"custom_vis_parts_visible_00_mcx_VC_0"},{"mesh":1,"name":"custom_vis_parts_visible_01_mcx_VC_0"},{"mesh":2,"name":"custom_vis_parts_visible_02_mcx_VC"},{"mesh":3,"name":"custom_vis_parts_visible_03_mcx_VC"},{"translation":[6.599999904632568,-2.5,1.1000000238418589],"rotation":[-6.123031769111886e-17,3.061515884555943e-17,1.0,1.874575902277672e-33],"scale":[1.0,1.0,1.0],"name":"contrail1"},{"translation":[-0.18999999761581694,-2.609999895095825,22.1299991607666],"rotation":[0.9664215911103065,0.04052311138871866,0.23380198891352589,-0.09860940958793327],"scale":[1.0,1.0,1.0],"name":"LIGHT_landing_turnoff_r"},{"translation":[-2.681887868155981e-15,-3.75,21.899999618530275],"rotation":[0.9993908270190957,0.0,0.0,-0.03489949670250105],"scale":[1.0,1.0,1.0],"name":"LIGHT_Taxi_nose"},{"translation":[2.2400000095367424,-1.1299999952316285,5.679999828338623],"rotation":[1.0,3.749151804555344e-33,1.224606353822377e-16,-3.061515884555943e-17],"scale":[1.0,1.0,1.0],"name":"LIGHT_Landing_Wing_Left"},{"translation":[-2.240000009536744,-1.1299999952316285,5.679999828338623],"rotation":[1.0,3.749151804555344e-33,1.224606353822377e-16,-3.061515884555943e-17],"scale":[1.0,1.0,1.0],"name":"LIGHT_Landing_Wing_Right"},{"translation":[0.1899999976158115,-2.609999895095825,22.1299991607666],"rotation":[0.9664215911103065,-0.04052311138871865,-0.23380198891352578,-0.09860940958793327],"scale":[1.0,1.0,1.0],"name":"LIGHT_landing_turnoff_l"},{"translation":[3.410000085830691,0.7799999713897705,-22.700000762939454],"rotation":[0.7087594932875138,-0.25445555244679476,0.6034149419424673,0.26230280277647086],"scale":[1.0,1.0,1.0],"name":"LIGHT_Logolight_l"},{"translation":[1.830000042915343,-0.4000000059604645,11.039999961853028],"rotation":[-0.3871665031172142,0.0108216063124965,0.9219334305590294,0.004872506384294527],"scale":[1.0,1.0,1.0],"name":"LIGHT_winglight_l"},{"translation":[-1.8300000429153456,-0.4000000059604645,11.039999961853028],"rotation":[0.387166503117214,0.010821606312496504,0.9219334305590294,-0.004872506384294525],"scale":[1.0,1.0,1.0],"name":"LIGHT_winglight_r"},{"translation":[-3.410000085830686,0.7799999713897705,-22.700000762939454],"rotation":[0.7087594932875138,0.2544555524467947,-0.6034149419424671,0.26230280277647086],"scale":[1.0,1.0,1.0],"name":"LIGHT_Logolight_r"},{"translation":[-0.12999999523163115,-2.8299999237060549,22.209999084472658],"rotation":[1.0,3.749151804555344e-33,1.224606353822377e-16,-3.061515884555943e-17],"scale":[1.0,1.0,1.0],"name":"LIGHT_landing_nose_gear_r"},{"translation":[0.11999999731778828,-2.8299999237060549,22.209999084472658],"rotation":[1.0,3.749151804555344e-33,1.224606353822377e-16,-3.061515884555943e-17],"scale":[1.0,1.0,1.0],"name":"LIGHT_landing_nose_gear_l"},{"translation":[-0.0225910004228378,1.979990005493164,20.00411033630371],"rotation":[0.7071067811865475,0.0,8.659274570719354e-17,0.7071067811865475],"scale":[1.0,1.0,1.0],"name":"LIGHT_Beacon_Top"},{"translation":[-1.4589776785009832e-16,-2.7380530834198,1.19138503074646],"rotation":[-4.329637285359677e-17,0.7071067811865475,0.7071067811865475,4.329637285359677e-17],"scale":[1.0,1.0,1.0],"name":"LIGHT_Beacon_Belly"},{"translation":[-20.38347053527832,2.7212419509887697,-5.910901069641116],"rotation":[0.5,0.5,0.5000000000000001,0.5000000000000001],"scale":[1.0,1.0,1.0],"name":"LIGHT_Strobe_Right"},{"translation":[-18.93726921081543,0.25934699177742007,-5.282067775726321],"rotation":[-0.009599107868527092,-0.003403228666816408,0.9999481357027791,0.00003266965346265165],"scale":[1.0,1.0,1.0],"name":"LIGHT_Navwhi_r"},{"translation":[-19.29235076904297,0.40890300273895266,-3.8124179840087915],"rotation":[0.8824795865695675,-0.0030024030391057946,0.4703098875942573,0.005419824265874499],"scale":[1.0,1.0,1.0],"name":"LIGHT_Nav_Green"},{"translation":[19.292240142822267,0.40924400091171267,-3.8124821186065649],"rotation":[0.8929041282243176,0.010460774524574217,-0.4497676189929314,0.017940983856712574],"scale":[1.0,1.0,1.0],"name":"LIGHT_Nav_Red"},{"translation":[18.93699073791504,0.26481300592422488,-5.296994209289548],"rotation":[0.03463426492754822,-0.014390343060827165,0.9992963283179812,-0.0004836628183467861],"scale":[1.0,1.0,1.0],"name":"LIGHT_Navwhi_l"},{"translation":[20.383359909057618,2.7225160598754885,-5.910234928131101],"rotation":[-0.5000000000000001,0.5000000000000001,0.5,-0.5],"scale":[1.0,1.0,1.0],"name":"LIGHT_Strobe_Left"},{"translation":[-6.599999904632568,-2.5,1.100000023841857],"rotation":[-6.123031769111886e-17,3.061515884555943e-17,1.0,1.874575902277672e-33],"scale":[1.0,1.0,1.0],"name":"contrail2"},{"translation":[-2.632903660718111e-15,-4.599999904632568,21.5],"rotation":[-6.123031769111886e-17,3.061515884555943e-17,1.0,1.874575902277672e-33],"scale":[1.0,1.0,1.0],"name":"c_tire1"},{"translation":[3.6400001049041745,-4.349999904632568,-1.3999999761581417],"rotation":[-6.123031769111886e-17,3.061515884555943e-17,1.0,1.874575902277672e-33],"scale":[1.0,1.0,1.0],"name":"l_tire1"},{"translation":[-3.6400001049041745,-4.349999904632568,-1.3999999761581424],"rotation":[-6.123031769111886e-17,3.061515884555943e-17,1.0,1.874575902277672e-33],"scale":[1.0,1.0,1.0],"name":"r_tire1"},{"translation":[0.0,0.0,0.0],"rotation":[-4.329637285359677e-17,0.7071067811865475,0.7071067811865475,4.329637285359677e-17],"scale":[1.0,1.0,1.0],"name":"node_63","children":[30,34]},{"translation":[-6.558685779571533,3.608222007751465,-2.390242099761963],"rotation":[0.7070798579985406,-0.006170446723180918,-0.006170446723180918,0.7070798579985406],"scale":[1.0,1.0,1.0],"name":"node_64","children":[31]},{"name":"node_65","children":[32]},{"name":"custom_anim_REV_THRUST_AN_65","children":[33]},{"mesh":4,"name":"custom_vis_parts_visible_01_mcx_VC_1"},{"translation":[6.558685779571533,3.608222007751465,-2.390242099761963],"rotation":[0.7070798579985406,0.006170446723180918,0.006170446723180918,0.7070798579985406],"scale":[1.0,1.0,1.0],"name":"node_143","children":[35]},{"name":"custom_anim_REV_THRUST_AN_143","children":[36]},{"mesh":5,"name":"custom_vis_parts_visible_00_mcx_VC_1"}],"scene":0,"scenes":[{"nodes":[0]}],"textures":[{"extensions":{"MSFT_texture_dds":{"source":0}}},{"extensions":{"MSFT_texture_dds":{"source":1}}},{"extensions":{"MSFT_texture_dds":{"source":2}}}],"extensionsUsed":["ASOBO_material_day_night_switch","MSFT_texture_dds","ASOBO_asset_optimized"],"buffers":[{"byteLength":4476,"uri":"AIG_B757-300_RR_W_LOD9.bin"}],"images":[{"uri":"AIG_B753_RR.PNG.DDS","extras":"ASOBO_image_converted_meta"},{"uri":"AIG_B753W_RR_C.PNG.DDS","extras":"ASOBO_image_converted_meta"},{"uri":"AIG_B753_RR_L.PNG.DDS","extras":"ASOBO_image_converted_meta"}]}
