{"accessors":[{"bufferView":0,"componentType":5126,"count":101,"min":[0.0],"max":[3.33333325],"type":"SCALAR","name":"accessorAnimationInput"},{"bufferView":1,"componentType":5126,"count":101,"type":"VEC3","name":"accessorAnimationPositions"},{"bufferView":0,"byteOffset":404,"componentType":5126,"count":101,"min":[0.0],"max":[3.33333325],"type":"SCALAR","name":"accessorAnimationInput"},{"bufferView":2,"componentType":5126,"count":101,"type":"VEC4","name":"accessorAnimationRotations"},{"bufferView":0,"byteOffset":808,"componentType":5126,"count":101,"min":[0.0],"max":[3.33333325],"type":"SCALAR","name":"accessorAnimationInput"},{"bufferView":1,"byteOffset":1212,"componentType":5126,"count":101,"type":"VEC3","name":"accessorAnimationScales"},{"bufferView":0,"byteOffset":1212,"componentType":5126,"count":101,"min":[0.0],"max":[3.33333325],"type":"SCALAR","name":"accessorAnimationInput"},{"bufferView":1,"byteOffset":2424,"componentType":5126,"count":101,"type":"VEC3","name":"accessorAnimationPositions"},{"bufferView":0,"byteOffset":1616,"componentType":5126,"count":101,"min":[0.0],"max":[3.33333325],"type":"SCALAR","name":"accessorAnimationInput"},{"bufferView":2,"byteOffset":1616,"componentType":5126,"count":101,"type":"VEC4","name":"accessorAnimationRotations"},{"bufferView":0,"byteOffset":2020,"componentType":5126,"count":101,"min":[0.0],"max":[3.33333325],"type":"SCALAR","name":"accessorAnimationInput"},{"bufferView":1,"byteOffset":3636,"componentType":5126,"count":101,"type":"VEC3","name":"accessorAnimationPositions"},{"bufferView":0,"byteOffset":2424,"componentType":5126,"count":101,"min":[0.0],"max":[3.33333325],"type":"SCALAR","name":"accessorAnimationInput"},{"bufferView":2,"byteOffset":3232,"componentType":5126,"count":101,"type":"VEC4","name":"accessorAnimationRotations"},{"bufferView":0,"byteOffset":2828,"componentType":5126,"count":101,"min":[0.0],"max":[3.33333325],"type":"SCALAR","name":"accessorAnimationInput"},{"bufferView":1,"byteOffset":4848,"componentType":5126,"count":101,"type":"VEC3","name":"accessorAnimationPositions"},{"bufferView":0,"byteOffset":3232,"componentType":5126,"count":101,"min":[0.0],"max":[3.33333325],"type":"SCALAR","name":"accessorAnimationInput"},{"bufferView":2,"byteOffset":4848,"componentType":5126,"count":101,"type":"VEC4","name":"accessorAnimationRotations"},{"bufferView":0,"byteOffset":3636,"componentType":5126,"count":101,"min":[0.0],"max":[3.33333325],"type":"SCALAR","name":"accessorAnimationInput"},{"bufferView":1,"byteOffset":6060,"componentType":5126,"count":101,"type":"VEC3","name":"accessorAnimationScales"},{"bufferView":3,"componentType":5126,"count":83,"min":[-1.6398775577545167,-2.0504465103149416,-2.6796112060546877],"max":[0.003737211227416992,0.02412053942680359,-9.5367431640625e-7],"type":"VEC3","name":"x0_cargo_door_forward_vertices#0_POSITION"},{"bufferView":3,"byteOffset":12,"componentType":5120,"count":83,"type":"VEC4","name":"x0_cargo_door_forward_vertices#0_TANGENT"},{"bufferView":3,"byteOffset":16,"componentType":5120,"count":83,"type":"VEC4","name":"x0_cargo_door_forward_vertices#0_NORMAL"},{"bufferView":3,"byteOffset":20,"componentType":5122,"count":83,"type":"VEC2","name":"x0_cargo_door_forward_vertices#0_TEXCOORD_0"},{"bufferView":3,"byteOffset":24,"componentType":5122,"count":83,"type":"VEC2","name":"x0_cargo_door_forward_vertices#0_TEXCOORD_1"},{"bufferView":3,"byteOffset":28,"componentType":5123,"count":83,"type":"VEC4","name":"x0_cargo_door_forward_vertices#0_COLOR_0"},{"bufferView":4,"componentType":5123,"count":174,"type":"SCALAR","name":"x0_cargo_door_forward_indices#0"},{"bufferView":3,"byteOffset":2988,"componentType":5126,"count":74,"min":[-1.647520661354065,-1.908549427986145,-1.8110551834106446],"max":[0.003880023956298828,0.0024560093879699709,0.0038967132568359377],"type":"VEC3","name":"x0_cargo_door_aft_vertices#0_POSITION"},{"bufferView":3,"byteOffset":3000,"componentType":5120,"count":74,"type":"VEC4","name":"x0_cargo_door_aft_vertices#0_TANGENT"},{"bufferView":3,"byteOffset":3004,"componentType":5120,"count":74,"type":"VEC4","name":"x0_cargo_door_aft_vertices#0_NORMAL"},{"bufferView":3,"byteOffset":3008,"componentType":5122,"count":74,"type":"VEC2","name":"x0_cargo_door_aft_vertices#0_TEXCOORD_0"},{"bufferView":3,"byteOffset":3012,"componentType":5122,"count":74,"type":"VEC2","name":"x0_cargo_door_aft_vertices#0_TEXCOORD_1"},{"bufferView":3,"byteOffset":3016,"componentType":5123,"count":74,"type":"VEC4","name":"x0_cargo_door_aft_vertices#0_COLOR_0"},{"bufferView":4,"byteOffset":348,"componentType":5123,"count":138,"type":"SCALAR","name":"x0_cargo_door_aft_indices#0"},{"bufferView":3,"byteOffset":5652,"componentType":5126,"count":15,"min":[-1.5518139600753785,-1.9085495471954346,-1.8110542297363282],"max":[0.0038797855377197267,-2.980232238769531e-7,0.0038976669311523439],"type":"VEC3","name":"x0_cargo_door_aft_fake_vertices#0_POSITION"},{"bufferView":3,"byteOffset":5664,"componentType":5120,"count":15,"type":"VEC4","name":"x0_cargo_door_aft_fake_vertices#0_TANGENT"},{"bufferView":3,"byteOffset":5668,"componentType":5120,"count":15,"type":"VEC4","name":"x0_cargo_door_aft_fake_vertices#0_NORMAL"},{"bufferView":3,"byteOffset":5672,"componentType":5122,"count":15,"type":"VEC2","name":"x0_cargo_door_aft_fake_vertices#0_TEXCOORD_0"},{"bufferView":3,"byteOffset":5676,"componentType":5122,"count":15,"type":"VEC2","name":"x0_cargo_door_aft_fake_vertices#0_TEXCOORD_1"},{"bufferView":3,"byteOffset":5680,"componentType":5123,"count":15,"type":"VEC4","name":"x0_cargo_door_aft_fake_vertices#0_COLOR_0"},{"bufferView":4,"byteOffset":624,"componentType":5123,"count":39,"type":"SCALAR","name":"x0_cargo_door_aft_fake_indices#0"},{"bufferView":3,"byteOffset":6192,"componentType":5126,"count":21,"min":[-0.7690904140472412,-1.0252231359481812,-1.3398056030273438],"max":[0.7690904140472412,1.0252231359481812,1.3398046493530274],"type":"VEC3","name":"x0_cargo_door_forward_fake_vertices#0_POSITION"},{"bufferView":3,"byteOffset":6204,"componentType":5120,"count":21,"type":"VEC4","name":"x0_cargo_door_forward_fake_vertices#0_TANGENT"},{"bufferView":3,"byteOffset":6208,"componentType":5120,"count":21,"type":"VEC4","name":"x0_cargo_door_forward_fake_vertices#0_NORMAL"},{"bufferView":3,"byteOffset":6212,"componentType":5122,"count":21,"type":"VEC2","name":"x0_cargo_door_forward_fake_vertices#0_TEXCOORD_0"},{"bufferView":3,"byteOffset":6216,"componentType":5122,"count":21,"type":"VEC2","name":"x0_cargo_door_forward_fake_vertices#0_TEXCOORD_1"},{"bufferView":3,"byteOffset":6220,"componentType":5123,"count":21,"type":"VEC4","name":"x0_cargo_door_forward_fake_vertices#0_COLOR_0"},{"bufferView":4,"byteOffset":702,"componentType":5123,"count":66,"type":"SCALAR","name":"x0_cargo_door_forward_fake_indices#0"}],"animations":[{"name":"cargo_door_aft","channels":[{"sampler":0,"target":{"node":2,"path":"translation","extensions":{"ASOBO_animation_retargeting":{"id":"x0_cargo_door_aft_fake"}}}},{"sampler":1,"target":{"node":2,"path":"rotation","extensions":{"ASOBO_animation_retargeting":{"id":"x0_cargo_door_aft_fake"}}}},{"sampler":2,"target":{"node":2,"path":"scale","extensions":{"ASOBO_animation_retargeting":{"id":"x0_cargo_door_aft_fake"}}}},{"sampler":3,"target":{"node":1,"path":"translation","extensions":{"ASOBO_animation_retargeting":{"id":"x0_cargo_door_aft"}}}},{"sampler":4,"target":{"node":1,"path":"rotation","extensions":{"ASOBO_animation_retargeting":{"id":"x0_cargo_door_aft"}}}}],"samplers":[{"input":0,"output":1,"interpolation":"LINEAR"},{"input":2,"output":3,"interpolation":"LINEAR"},{"input":4,"output":5,"interpolation":"LINEAR"},{"input":6,"output":7,"interpolation":"LINEAR"},{"input":8,"output":9,"interpolation":"LINEAR"}]},{"name":"cargo_door_forward","channels":[{"sampler":0,"target":{"node":0,"path":"translation","extensions":{"ASOBO_animation_retargeting":{"id":"x0_cargo_door_forward"}}}},{"sampler":1,"target":{"node":0,"path":"rotation","extensions":{"ASOBO_animation_retargeting":{"id":"x0_cargo_door_forward"}}}},{"sampler":2,"target":{"node":3,"path":"translation","extensions":{"ASOBO_animation_retargeting":{"id":"x0_cargo_door_forward_fake"}}}},{"sampler":3,"target":{"node":3,"path":"rotation","extensions":{"ASOBO_animation_retargeting":{"id":"x0_cargo_door_forward_fake"}}}},{"sampler":4,"target":{"node":3,"path":"scale","extensions":{"ASOBO_animation_retargeting":{"id":"x0_cargo_door_forward_fake"}}}}],"samplers":[{"input":10,"output":11,"interpolation":"LINEAR"},{"input":12,"output":13,"interpolation":"LINEAR"},{"input":14,"output":15,"interpolation":"LINEAR"},{"input":16,"output":17,"interpolation":"LINEAR"},{"input":18,"output":19,"interpolation":"LINEAR"}]}],"asset":{"generator":"babylon.js glTF exporter for 3dsmax 2021 v1.0.8378.27976","version":"2.0","extensions":{"ASOBO_asset_optimized":{"BoundingBoxMax":[0.7690904140472412,1.0252231359481812,1.3398046493530274],"BoundingBoxMin":[-1.647520661354065,-2.0504465103149416,-2.6796112060546877],"MajorVersion":4,"MinorVersion":4,"UseCheckerboardMaterialForMissingTextures":true,"UseOnlyFilenameForImageURI":true},"ASOBO_normal_map_convention":{"tangent_space_convention":"DirectX"}}},"bufferViews":[{"buffer":0,"byteLength":4040,"name":"bufferViewAnimationFloatScalar"},{"buffer":0,"byteLength":7272,"byteOffset":4040,"name":"bufferViewAnimationFloatVec3"},{"buffer":0,"byteLength":6464,"byteOffset":11312,"name":"bufferViewAnimationFloatVec4"},{"buffer":0,"byteLength":6948,"byteStride":36,"byteOffset":17776,"target":34962,"name":"BufferViewVertexND"},{"buffer":0,"byteLength":834,"byteOffset":24724,"target":34963,"name":"BufferViewIndex"}],"extensionsRequired":["MSFT_texture_dds"],"materials":[{"name":"Fuselage","occlusionTexture":{"index":1},"emissiveTexture":{"index":2},"pbrMetallicRoughness":{"baseColorTexture":{"index":0},"metallicRoughnessTexture":{"index":1}}},{"name":"T2","pbrMetallicRoughness":{"metallicFactor":0.0,"baseColorTexture":{"index":3}}}],"meshes":[{"primitives":[{"attributes":{"COLOR_0":25,"NORMAL":22,"POSITION":20,"TANGENT":21,"TEXCOORD_0":23,"TEXCOORD_1":24},"indices":26,"material":0,"mode":4,"extras":{"ASOBO_primitive":{"PrimitiveCount":58,"VertexType":"VTX","VertexVersion":2}}}],"name":"x0_cargo_door_forward"},{"primitives":[{"attributes":{"COLOR_0":32,"NORMAL":29,"POSITION":27,"TANGENT":28,"TEXCOORD_0":30,"TEXCOORD_1":31},"indices":33,"material":0,"mode":4,"extras":{"ASOBO_primitive":{"PrimitiveCount":46,"VertexType":"VTX","VertexVersion":2}}}],"name":"x0_cargo_door_aft"},{"primitives":[{"attributes":{"COLOR_0":39,"NORMAL":36,"POSITION":34,"TANGENT":35,"TEXCOORD_0":37,"TEXCOORD_1":38},"indices":40,"material":1,"mode":4,"extras":{"ASOBO_primitive":{"PrimitiveCount":13,"VertexType":"VTX","VertexVersion":2}}}],"name":"x0_cargo_door_aft_fake"},{"primitives":[{"attributes":{"COLOR_0":46,"NORMAL":43,"POSITION":41,"TANGENT":42,"TEXCOORD_0":44,"TEXCOORD_1":45},"indices":47,"material":1,"mode":4,"extras":{"ASOBO_primitive":{"PrimitiveCount":22,"VertexType":"VTX","VertexVersion":2}}}],"name":"x0_cargo_door_forward_fake"}],"nodes":[{"translation":[-2.78153634,-0.3010986,12.6426659],"rotation":[0.0,-1.0,0.0,7.54979e-8],"mesh":0,"extensions":{"ASOBO_unique_id":{"id":"x0_cargo_door_forward"}},"name":"cargo_door_forward"},{"translation":[-2.70483947,-0.5014216,-11.692975],"rotation":[0.0,-1.0,0.0,7.54979e-8],"mesh":1,"extensions":{"ASOBO_unique_id":{"id":"x0_cargo_door_aft"}},"name":"cargo_door_aft"},{"translation":[-2.662293,-0.501421452,-11.6929741],"rotation":[0.0,-1.0,0.0,7.54979e-8],"mesh":2,"extensions":{"ASOBO_unique_id":{"id":"x0_cargo_door_aft_fake"}},"name":"cargo_door_aft_fake"},{"translation":[-1.993722,-1.326322,13.9824715],"rotation":[0.0,-1.0,0.0,7.54979e-8],"mesh":3,"extensions":{"ASOBO_unique_id":{"id":"x0_cargo_door_forward_fake"}},"name":"cargo_door_forward_fake"}],"scene":0,"scenes":[{"nodes":[0,1,2,3]}],"textures":[{"extensions":{"MSFT_texture_dds":{"source":0}}},{"extensions":{"MSFT_texture_dds":{"source":1}}},{"extensions":{"MSFT_texture_dds":{"source":2}}},{"extensions":{"MSFT_texture_dds":{"source":3}}}],"extensionsUsed":["ASOBO_normal_map_convention","ASOBO_unique_id","ASOBO_animation_retargeting","MSFT_texture_dds","ASOBO_asset_optimized"],"buffers":[{"byteLength":25558,"uri":"TFS_Airbus_A300-600_cargo.bin"}],"images":[{"uri":"TFS_A300-600_PW_T.PNG.DDS","extras":"ASOBO_image_converted_meta"},{"uri":"TFS_A300-600_PW_C.PNG.DDS","extras":"ASOBO_image_converted_meta"},{"uri":"TFS_A300-600_PW_L.PNG.DDS","extras":"ASOBO_image_converted_meta"},{"uri":"TFS_A300-600_T2.PNG.DDS","extras":"ASOBO_image_converted_meta"}]}
